<svg width="23" height="23" viewBox="0 0 14 14" fill="none" xmlns="http://www.w3.org/2000/svg">
<path d="M9.5 5C11.9853 5 14 7.01472 14 9.5C14 11.9853 11.9853 14 9.5 14C7.01472 14 5 11.9853 5 9.5C5 7.01472 7.01472 5 9.5 5ZM9.5 7C9.2239 7 9 7.22386 9 7.5V9H7.5C7.22386 9 7 9.2239 7 9.5C7 9.7761 7.22386 10 7.5 10H9V11.5C9 11.7761 9.2239 12 9.5 12C9.7761 12 10 11.7761 10 11.5V10H11.5C11.7761 10 12 9.7761 12 9.5C12 9.2239 11.7761 9 11.5 9H10V7.5C10 7.22386 9.7761 7 9.5 7ZM5.25716 6C4.47182 6.95094 4 8.1704 4 9.5C4 10.02 4.07215 10.5231 4.20699 10.9998L4.06019 11.0008C1.53268 11.0008 0.0976671 10.1562 0.00480819 8.45377L0 8.2746V7.5C0 6.7203 0.594886 6.07955 1.35554 6.00687L1.5 6H5.25716ZM4 0C5.38094 0 6.50041 1.11947 6.50041 2.5004C6.50041 3.88134 5.38094 5.00081 4 5.00081C2.61906 5.00081 1.49959 3.88134 1.49959 2.5004C1.49959 1.11947 2.61906 0 4 0ZM9 1C10.1046 1 11 1.89543 11 3C11 3.41572 10.8732 3.80182 10.6561 4.12171C10.2833 4.04197 9.8966 4 9.5 4C8.8076 4 8.1452 4.12793 7.53491 4.36145C7.203 4.00443 7 3.52592 7 3C7 1.89543 7.89543 1 9 1Z" fill="white"/>
</svg>
