<svg width="23" height="23" viewBox="0 0 14 14" fill="none" xmlns="http://www.w3.org/2000/svg"><path d="M9.5 5a4.5 4.5 0 110 9 4.5 4.5 0 010-9zm0 2a.5.5 0 00-.5.5V9H7.5a.5.5 0 000 1H9v1.5a.5.5 0 001 0V10h1.5a.5.5 0 000-1H10V7.5a.5.5 0 00-.5-.5zM5.257 6A5.478 5.478 0 004 9.5a5.5 5.5 0 00.207 1.5H4.06C1.533 11 .098 10.157.005 8.455L0 8.274V7.5a1.5 1.5 0 011.356-1.493L1.5 6h3.757zM4 0a2.5 2.5 0 110 5 2.5 2.5 0 010-5zm5 1a2 2 0 011.656 3.122 5.522 5.522 0 00-3.121.24A2 2 0 019 1z" fill="#fff"/></svg>