<svg width="29" height="28" fill="none" xmlns="http://www.w3.org/2000/svg"><path fill-rule="evenodd" clip-rule="evenodd" d="M23.764 15.599a.846.846 0 00-.25-.6.859.859 0 00-.605-.249H5.799a.859.859 0 00-.604.249.845.845 0 00-.251.6v9.334a2.526 2.526 0 00.751 1.8 2.566 2.566 0 001.815.745h13.688a2.57 2.57 0 001.814-.747 2.531 2.531 0 00.752-1.798v-9.334zm0-12.728a2.53 2.53 0 00-.752-1.8 2.564 2.564 0 00-1.814-.746H7.51a2.574 2.574 0 00-2.37 1.572c-.13.308-.196.64-.196.974v7.637c0 .675.27 1.322.752 1.8a2.565 2.565 0 001.814.745h13.688a2.574 2.574 0 002.371-1.571c.129-.31.195-.64.195-.974V2.87zm-12.832.848a2.577 2.577 0 00-1.772.769 2.536 2.536 0 000 3.554 2.577 2.577 0 001.772.768 2.577 2.577 0 001.773-.768 2.536 2.536 0 000-3.554 2.577 2.577 0 00-1.773-.769zm6.844 0a2.577 2.577 0 00-1.772.769 2.536 2.536 0 000 3.554 2.577 2.577 0 001.772.768 2.577 2.577 0 001.772-.768 2.536 2.536 0 000-3.554 2.577 2.577 0 00-1.772-.769zm7.553 11.031h.146c.681 0 1.334.268 1.815.746.481.477.752 1.124.752 1.8v5.091c0 .675-.27 1.323-.752 1.8a2.566 2.566 0 01-1.815.746v-9.334c0-.298-.051-.583-.146-.849zm-21.95 0h-.146a2.574 2.574 0 00-2.371 1.572 2.51 2.51 0 00-.195.974v5.091c0 .675.27 1.323.752 1.8a2.566 2.566 0 001.814.746v-9.334c0-.298.051-.583.146-.849z" fill="#CACACA"/></svg>