<svg width="32" height="32" fill="none" xmlns="http://www.w3.org/2000/svg"><circle cx="16" cy="16" r="16" fill="#00B059"/><path d="M13.846 22a.934.934 0 01-.397-.09 1.003 1.003 0 01-.331-.255l-4.848-5.58A1.133 1.133 0 018 15.3c.009-.286.122-.557.315-.753a.957.957 0 01.715-.292.968.968 0 01.697.34l4.11 4.739 8.388-9.93c.085-.115.19-.21.311-.279a.942.942 0 01.788-.067.985.985 0 01.348.221c.1.099.182.219.238.353a1.153 1.153 0 01-.209 1.218l-9.117 10.794a1 1 0 01-.33.26.935.935 0 01-.398.096h-.01z" fill="#fff"/></svg>