<svg width="20" height="20" fill="none" xmlns="http://www.w3.org/2000/svg"><path d="M7.777 14.261a.832.832 0 01.648-.259h6.482c.518 0 .907.39.907.908a.886.886 0 01-.907.907H8.425a.886.886 0 01-.908-.907c0-.26.065-.454.26-.649z" fill="#CACACA"/><path d="M14.26 7.778a.832.832 0 01.648-.259c.519 0 .907.389.907.908v6.481a.886.886 0 01-.907.908.886.886 0 01-.907-.908V8.427c0-.26.064-.454.259-.649z" fill="#CACACA"/><path d="M3.887 3.89c.39-.389.908-.389 1.297 0l10.37 10.372c.39.388.39.907 0 1.296-.388.389-.906.389-1.296 0L3.889 5.187c-.39-.39-.39-.908 0-1.297z" fill="#CACACA"/></svg>