<svg width="20" height="20" fill="none" xmlns="http://www.w3.org/2000/svg"><path d="M14.262 11.669a.832.832 0 01-.26-.649V4.54c0-.519.39-.908.908-.908.519 0 .908.389.908.908v6.482a.886.886 0 01-.908.907.832.832 0 01-.648-.26z" fill="#CACACA"/><path d="M7.779 5.186a.832.832 0 01-.26-.649c0-.518.39-.907.908-.907h6.482c.518 0 .907.389.907.907a.886.886 0 01-.907.908H8.427a.832.832 0 01-.648-.26z" fill="#CACACA"/><path d="M3.89 15.558c-.388-.39-.388-.908 0-1.296L14.263 3.89c.389-.389.907-.389 1.296 0 .39.39.39.908 0 1.297l-10.37 10.37c-.39.39-.908.39-1.297 0z" fill="#CACACA"/></svg>