<svg width="21" height="24" fill="none" xmlns="http://www.w3.org/2000/svg"><path d="M19.875 5.09c.25.25.464.589.642 1.017.179.429.268.822.268 1.179v15.428c0 .357-.125.661-.375.911a1.24 1.24 0 01-.91.375h-18a1.24 1.24 0 01-.911-.375 1.24 1.24 0 01-.375-.91V1.284c0-.356.125-.66.375-.91S1.142 0 1.499 0h12c.358 0 .75.09 1.18.268.428.178.767.393 1.017.643l4.179 4.178zm-5.947-3.27v5.036h5.036c-.09-.259-.188-.442-.295-.549l-4.192-4.192c-.107-.107-.29-.205-.549-.295zm5.143 20.465V8.57H13.5a1.24 1.24 0 01-.911-.375 1.24 1.24 0 01-.375-.91V1.714H1.928v20.572h17.143zM5.357 10.714a.42.42 0 01.12-.308c.08-.08.183-.12.308-.12h9.429a.42.42 0 01.308.12c.08.08.12.183.12.308v.857c0 .125-.04.228-.12.309a.417.417 0 01-.308.12H5.785a.417.417 0 01-.308-.12.417.417 0 01-.12-.309v-.857zm9.857 3a.42.42 0 01.308.12c.08.081.12.184.12.309V15c0 .125-.04.228-.12.308a.417.417 0 01-.308.12H5.785a.417.417 0 01-.308-.12.417.417 0 01-.12-.308v-.857c0-.125.04-.228.12-.308.08-.08.183-.12.308-.12h9.429zm0 3.429a.42.42 0 01.308.12c.08.08.12.183.12.308v.858a.42.42 0 01-.12.308.417.417 0 01-.308.12H5.785a.417.417 0 01-.308-.12.417.417 0 01-.12-.308v-.858a.42.42 0 01.12-.308c.08-.08.183-.12.308-.12h9.429z" fill="#000"/></svg>