<svg width="33" height="28" fill="none" xmlns="http://www.w3.org/2000/svg"><path d="M28.05 4.927h-2.113l-.527-1.643A4.93 4.93 0 0023.593.9a4.966 4.966 0 00-2.87-.9h-8.447a4.966 4.966 0 00-2.888.932A4.928 4.928 0 007.59 3.367l-.528 1.642H4.95a4.96 4.96 0 00-3.5 1.443A4.915 4.915 0 000 9.936v13.137c0 1.307.522 2.56 1.45 3.484A4.962 4.962 0 004.95 28h23.1c1.312 0 2.571-.52 3.5-1.443A4.915 4.915 0 0033 23.073V9.936a4.906 4.906 0 00-1.421-3.537 4.95 4.95 0 00-3.53-1.472zM29.7 22.99c0 .436-.174.854-.484 1.161-.31.308-.729.481-1.167.481H4.95c-.437 0-.856-.173-1.166-.48A1.638 1.638 0 013.3 22.99V9.853c0-.435.174-.853.483-1.16.31-.309.73-.482 1.167-.482h3.3A1.656 1.656 0 009.9 7.094l.89-2.693a1.643 1.643 0 011.568-1.117h8.448a1.655 1.655 0 011.567 1.117l.892 2.693a1.643 1.643 0 001.485 1.117h3.3c.437 0 .857.173 1.166.481.31.308.483.726.483 1.161v13.138zM16.5 8.211a6.622 6.622 0 00-3.667 1.107 6.575 6.575 0 00-2.43 2.948 6.54 6.54 0 001.43 7.159 6.63 6.63 0 007.193 1.424 6.593 6.593 0 002.961-2.42 6.547 6.547 0 00-.82-8.294A6.616 6.616 0 0016.5 8.211zm0 9.853a3.312 3.312 0 01-1.834-.553 3.271 3.271 0 01-.5-5.053 3.305 3.305 0 013.596-.712c.604.248 1.119.67 1.481 1.21a3.273 3.273 0 01-.41 4.146 3.308 3.308 0 01-2.333.962z" fill="#3E3E3E"/></svg>