<svg width="27" height="28" fill="none" xmlns="http://www.w3.org/2000/svg"><path d="M22.95 0H4.05a3.978 3.978 0 00-2.864 1.23A4.28 4.28 0 000 4.2v19.6a4.28 4.28 0 001.186 2.97c.76.788 1.79 1.23 2.864 1.23h18.9c.222-.003.443-.027.662-.07l.405-.098h.161l.5-.196.175-.098c.135-.084.284-.154.419-.252a5.19 5.19 0 00.513-.448l.095-.126c.132-.14.254-.29.364-.448l.122-.182a3.28 3.28 0 00.242-.49c.037-.067.07-.137.095-.21.067-.168.108-.35.162-.532v-.21c.077-.274.122-.556.135-.84V4.2a4.28 4.28 0 00-1.186-2.97A3.978 3.978 0 0022.95 0zM4.05 25.2a1.33 1.33 0 01-.955-.41 1.427 1.427 0 01-.395-.99v-6.034l4.441-4.62c.126-.131.275-.235.44-.306a1.308 1.308 0 011.478.306L20.669 25.2H4.05zm20.25-1.4a1.446 1.446 0 01-.095.504c-.03.068-.066.134-.107.196a1.36 1.36 0 01-.122.168l-7.223-7.49 1.189-1.232c.125-.131.274-.235.439-.306a1.308 1.308 0 011.477.306l4.442 4.62V23.8zm0-7.196L21.762 14a4.08 4.08 0 00-2.862-1.184A4.08 4.08 0 0016.038 14l-1.188 1.232-3.888-4.032A4.08 4.08 0 008.1 10.016 4.08 4.08 0 005.238 11.2L2.7 13.804V4.2c0-.371.142-.727.395-.99.254-.263.597-.41.955-.41h18.9c.358 0 .701.147.955.41.253.263.395.619.395.99v12.404z" fill="#3E3E3E"/></svg>