<svg width="155" height="155" viewBox="0 0 633 633" fill="none" xmlns="http://www.w3.org/2000/svg">
<circle cx="316.5" cy="316.5" r="316.5" fill="url(#paint0_linear_1064_2027)"/>
<path d="M339.785 292.443H425.603C428.608 292.443 431.583 293.035 434.359 294.187C437.135 295.339 439.656 297.027 441.778 299.154C443.9 301.282 445.582 303.807 446.727 306.586C447.872 309.364 448.457 312.341 448.45 315.346V401.164C448.45 404.17 447.857 407.145 446.705 409.921C445.553 412.696 443.865 415.218 441.738 417.34C439.61 419.462 437.085 421.144 434.307 422.289C431.528 423.433 428.551 424.019 425.546 424.011H339.728C336.723 424.011 333.747 423.419 330.972 422.267C328.196 421.115 325.675 419.427 323.553 417.3C321.43 415.172 319.749 412.647 318.604 409.868C317.459 407.09 316.873 404.113 316.881 401.108V315.29C316.888 312.289 317.487 309.32 318.642 306.551C319.797 303.782 321.486 301.267 323.613 299.151C325.74 297.035 328.262 295.358 331.037 294.217C333.812 293.076 336.784 292.435 339.785 292.443ZM425.603 298.524H339.785C337.569 298.509 335.372 298.933 333.321 299.773C331.27 300.612 329.405 301.85 327.836 303.414C326.266 304.978 325.022 306.838 324.176 308.887C323.33 310.935 322.898 313.13 322.905 315.346V401.164C322.898 403.381 323.33 405.576 324.176 407.624C325.022 409.672 326.266 411.532 327.836 413.097C329.405 414.661 331.27 415.899 333.321 416.738C335.372 417.578 337.569 418.002 339.785 417.987H425.603C427.814 417.987 430.004 417.55 432.045 416.7C434.087 415.85 435.94 414.605 437.498 413.036C439.057 411.467 440.289 409.606 441.125 407.559C441.961 405.511 442.384 403.319 442.369 401.108V315.29C442.369 313.083 441.933 310.898 441.087 308.86C440.241 306.823 439.001 304.972 437.438 303.414C435.875 301.857 434.02 300.623 431.979 299.784C429.939 298.944 427.809 298.516 425.603 298.524Z" fill="white"/>
<path d="M355.527 315.46H409.803C411.858 315.453 413.893 315.852 415.793 316.634C417.693 317.417 419.418 318.568 420.871 320.021C422.324 321.474 423.475 323.2 424.258 325.099C425.041 326.999 425.44 329.035 425.432 331.089V385.365C425.44 387.419 425.041 389.455 424.258 391.355C423.475 393.254 422.324 394.98 420.871 396.433C419.418 397.886 417.693 399.037 415.793 399.82C413.893 400.602 411.858 401.001 409.803 400.994H355.584C353.53 401.001 351.494 400.602 349.594 399.82C347.695 399.037 345.969 397.886 344.516 396.433C343.063 394.98 341.912 393.254 341.13 391.355C340.347 389.455 339.948 387.419 339.955 385.365V331.146C339.948 329.091 340.347 327.056 341.13 325.156C341.912 323.257 343.063 321.531 344.516 320.078C345.969 318.625 347.695 317.474 349.594 316.691C351.494 315.909 353.53 315.509 355.584 315.517L355.527 315.46ZM409.803 321.541H355.584C354.328 321.534 353.083 321.775 351.921 322.253C350.76 322.73 349.704 323.433 348.816 324.321C347.928 325.209 347.225 326.265 346.748 327.426C346.271 328.588 346.029 329.833 346.036 331.089V385.365C346.029 386.621 346.271 387.866 346.748 389.028C347.225 390.189 347.928 391.245 348.816 392.133C349.704 393.021 350.76 393.724 351.921 394.201C353.083 394.679 354.328 394.92 355.584 394.913H409.86C411.116 394.92 412.361 394.679 413.523 394.201C414.684 393.724 415.74 393.021 416.628 392.133C417.516 391.245 418.219 390.189 418.696 389.028C419.174 387.866 419.415 386.621 419.408 385.365V331.146C419.415 329.89 419.174 328.645 418.696 327.483C418.219 326.321 417.516 325.266 416.628 324.378C415.74 323.49 414.684 322.787 413.523 322.309C412.361 321.832 411.116 321.591 409.86 321.598L409.803 321.541ZM350.81 295.455C350.81 296.261 351.131 297.035 351.701 297.605C352.271 298.175 353.044 298.495 353.851 298.495C354.657 298.495 355.431 298.175 356.001 297.605C356.571 297.035 356.891 296.261 356.891 295.455V265.902C356.891 265.095 356.571 264.322 356.001 263.752C355.431 263.181 354.657 262.861 353.851 262.861C353.044 262.861 352.271 263.181 351.701 263.752C351.131 264.322 350.81 265.095 350.81 265.902V295.455ZM379.625 295.455C379.625 296.261 379.945 297.035 380.515 297.605C381.085 298.175 381.859 298.495 382.665 298.495C383.472 298.495 384.245 298.175 384.815 297.605C385.385 297.035 385.706 296.261 385.706 295.455V265.902C385.706 265.095 385.385 264.322 384.815 263.752C384.245 263.181 383.472 262.861 382.665 262.861C381.859 262.861 381.085 263.181 380.515 263.752C379.945 264.322 379.625 265.095 379.625 265.902V295.455ZM408.439 295.455C408.439 296.254 408.756 297.02 409.321 297.585C409.886 298.15 410.652 298.467 411.451 298.467C412.25 298.467 413.016 298.15 413.581 297.585C414.146 297.02 414.463 296.254 414.463 295.455V265.902C414.463 265.103 414.146 264.337 413.581 263.772C413.016 263.207 412.25 262.889 411.451 262.889C410.652 262.889 409.886 263.207 409.321 263.772C408.756 264.337 408.439 265.103 408.439 265.902V295.455ZM445.381 326.372C444.574 326.372 443.801 326.692 443.231 327.263C442.66 327.833 442.34 328.606 442.34 329.413C442.34 330.219 442.66 330.992 443.231 331.563C443.801 332.133 444.574 332.453 445.381 332.453H474.991C475.797 332.453 476.571 332.133 477.141 331.563C477.711 330.992 478.031 330.219 478.031 329.413C478.031 328.606 477.711 327.833 477.141 327.263C476.571 326.692 475.797 326.372 474.991 326.372H445.381ZM445.381 355.186C444.574 355.186 443.801 355.507 443.231 356.077C442.66 356.647 442.34 357.421 442.34 358.227C442.34 359.033 442.66 359.807 443.231 360.377C443.801 360.947 444.574 361.268 445.381 361.268H474.991C475.797 361.268 476.571 360.947 477.141 360.377C477.711 359.807 478.031 359.033 478.031 358.227C478.031 357.421 477.711 356.647 477.141 356.077C476.571 355.507 475.797 355.186 474.991 355.186H445.381ZM445.381 384.001C444.574 384.001 443.801 384.321 443.231 384.891C442.66 385.462 442.34 386.235 442.34 387.041C442.34 387.848 442.66 388.621 443.231 389.191C443.801 389.762 444.574 390.082 445.381 390.082H474.991C475.797 390.082 476.571 389.762 477.141 389.191C477.711 388.621 478.031 387.848 478.031 387.041C478.031 386.235 477.711 385.462 477.141 384.891C476.571 384.321 475.797 384.001 474.991 384.001H445.381ZM414.463 420.942C414.463 420.144 414.146 419.377 413.581 418.812C413.016 418.248 412.25 417.93 411.451 417.93C410.652 417.93 409.886 418.248 409.321 418.812C408.756 419.377 408.439 420.144 408.439 420.942V450.609C408.439 451.408 408.756 452.174 409.321 452.739C409.886 453.304 410.652 453.621 411.451 453.621C412.25 453.621 413.016 453.304 413.581 452.739C414.146 452.174 414.463 451.408 414.463 450.609V420.942ZM385.706 420.942C385.706 420.136 385.385 419.363 384.815 418.792C384.245 418.222 383.472 417.902 382.665 417.902C381.859 417.902 381.085 418.222 380.515 418.792C379.945 419.363 379.625 420.136 379.625 420.942V450.609C379.625 451.416 379.945 452.189 380.515 452.759C381.085 453.33 381.859 453.65 382.665 453.65C383.472 453.65 384.245 453.33 384.815 452.759C385.385 452.189 385.706 451.416 385.706 450.609V420.942ZM356.891 420.942C356.891 420.136 356.571 419.363 356.001 418.792C355.431 418.222 354.657 417.902 353.851 417.902C353.044 417.902 352.271 418.222 351.701 418.792C351.131 419.363 350.81 420.136 350.81 420.942V450.609C350.81 451.416 351.131 452.189 351.701 452.759C352.271 453.33 353.044 453.65 353.851 453.65C354.657 453.65 355.431 453.33 356.001 452.759C356.571 452.189 356.891 451.416 356.891 450.609V420.942ZM319.95 390.082C320.756 390.082 321.53 389.762 322.1 389.191C322.67 388.621 322.99 387.848 322.99 387.041C322.99 386.235 322.67 385.462 322.1 384.891C321.53 384.321 320.756 384.001 319.95 384.001H290.226C289.42 384.001 288.646 384.321 288.076 384.891C287.506 385.462 287.186 386.235 287.186 387.041C287.186 387.848 287.506 388.621 288.076 389.191C288.646 389.762 289.42 390.082 290.226 390.082H319.836H319.95ZM319.95 361.268C320.756 361.268 321.53 360.947 322.1 360.377C322.67 359.807 322.99 359.033 322.99 358.227C322.99 357.421 322.67 356.647 322.1 356.077C321.53 355.507 320.756 355.186 319.95 355.186H290.226C289.42 355.186 288.646 355.507 288.076 356.077C287.506 356.647 287.186 357.421 287.186 358.227C287.186 359.033 287.506 359.807 288.076 360.377C288.646 360.947 289.42 361.268 290.226 361.268H319.836H319.95ZM319.95 332.453C320.749 332.453 321.515 332.136 322.08 331.571C322.645 331.006 322.962 330.24 322.962 329.441C322.962 328.642 322.645 327.876 322.08 327.311C321.515 326.746 320.749 326.429 319.95 326.429H290.226C289.427 326.429 288.661 326.746 288.096 327.311C287.531 327.876 287.214 328.642 287.214 329.441C287.214 330.24 287.531 331.006 288.096 331.571C288.661 332.136 289.427 332.453 290.226 332.453H319.836H319.95Z" fill="white"/>
<path d="M397.073 377.408H388.548L385.195 368.713H369.85L366.667 377.408H358.483L373.431 339.046H381.615L396.96 377.408H397.073ZM382.751 362.234L377.466 348.026L372.294 362.234H382.751ZM400.938 377.408V339.103H408.667V377.465L400.938 377.408ZM318.643 184.403V178.379C352.175 178.379 382.524 191.905 404.575 213.786C426.626 235.723 440.38 266.072 440.551 299.547C440.551 300.346 440.233 301.112 439.668 301.677C439.103 302.242 438.337 302.559 437.538 302.559C436.74 302.559 435.973 302.242 435.409 301.677C434.844 301.112 434.526 300.346 434.526 299.547C434.365 268.938 422.06 239.645 400.313 218.105C378.633 196.49 349.257 184.368 318.643 184.403ZM329.896 421.624C330.629 421.48 331.282 421.068 331.729 420.47C332.176 419.871 332.384 419.127 332.313 418.384C332.242 417.64 331.897 416.949 331.346 416.445C330.794 415.941 330.075 415.66 329.328 415.657C325.775 415.972 322.21 416.123 318.643 416.112C303.44 416.122 288.385 413.129 274.341 407.307C260.296 401.484 247.54 392.946 236.804 382.182C226.023 371.444 217.47 358.68 211.637 344.626C205.805 330.571 202.808 315.502 202.817 300.286C202.817 268.289 215.775 239.304 236.747 218.332C247.49 207.561 260.256 199.019 274.31 193.197C288.364 187.374 303.431 184.385 318.643 184.403C319.442 184.403 320.208 184.086 320.773 183.521C321.338 182.956 321.656 182.19 321.656 181.391C321.656 180.592 321.338 179.826 320.773 179.261C320.208 178.696 319.442 178.379 318.643 178.379C284.998 178.379 254.536 192.018 232.484 214.07C221.147 225.38 212.158 238.819 206.033 253.615C199.908 268.411 196.768 284.272 196.793 300.286C196.793 333.931 210.433 364.393 232.484 386.445C245.121 399.133 260.407 408.872 277.247 414.964C294.088 421.055 312.066 423.292 329.896 421.624Z" fill="white"/>
<path d="M418.954 236.405C419.632 235.976 420.112 235.294 420.288 234.511C420.464 233.727 420.321 232.906 419.892 232.228C419.462 231.55 418.781 231.07 417.997 230.894C417.214 230.718 416.393 230.861 415.714 231.29C405.087 238.11 390.708 243.794 373.771 247.658C355.696 251.706 337.223 253.708 318.7 253.626C298.808 253.626 280.054 251.466 263.629 247.658C248.848 244.588 234.689 239.055 221.743 231.29C221.064 230.861 220.243 230.718 219.46 230.894C218.677 231.07 217.995 231.55 217.565 232.228C217.136 232.906 216.993 233.727 217.169 234.511C217.345 235.294 217.825 235.976 218.503 236.405C229.643 243.566 244.703 249.477 262.265 253.569C279.144 257.49 298.354 259.65 318.7 259.65C339.103 259.65 358.313 257.49 375.135 253.569C392.754 249.477 407.814 243.566 418.954 236.405ZM218.503 364.109C217.825 364.539 217.345 365.22 217.169 366.004C216.993 366.787 217.136 367.608 217.565 368.287C217.995 368.965 218.677 369.445 219.46 369.621C220.243 369.796 221.064 369.654 221.743 369.224C232.371 362.404 246.749 356.721 263.629 352.856C280.054 349.049 298.808 346.946 318.757 346.946H319.894C320.7 346.946 321.473 346.625 322.044 346.055C322.614 345.485 322.934 344.712 322.934 343.905C322.934 343.099 322.614 342.325 322.044 341.755C321.473 341.185 320.7 340.865 319.894 340.865H318.757C298.354 340.865 279.144 343.081 262.322 346.946C244.703 351.038 229.643 356.948 218.503 364.109Z" fill="white"/>
<path d="M318.701 178.378C303.128 178.378 289.261 192.416 279.429 215.036C269.938 236.917 264.084 267.038 264.084 300.286C264.084 333.476 269.938 363.655 279.429 385.535C289.261 408.155 303.128 422.193 318.701 422.193C322.218 422.19 325.698 421.475 328.931 420.09C329.628 419.761 330.172 419.177 330.452 418.458C330.732 417.74 330.725 416.941 330.434 416.228C330.143 415.514 329.589 414.939 328.886 414.621C328.183 414.304 327.386 414.267 326.657 414.52C324.127 415.54 321.429 416.079 318.701 416.112C305.8 416.112 293.808 403.495 284.999 383.148C275.792 362.006 270.108 332.681 270.108 300.286C270.108 267.891 275.792 238.565 284.999 217.423C293.808 197.02 305.8 184.46 318.701 184.46V178.378ZM318.814 178.378C333.932 178.378 347.458 191.677 357.234 213.274C366.725 234.245 372.806 263.23 373.317 295.398C373.332 296.197 373.029 296.969 372.475 297.545C371.921 298.12 371.161 298.452 370.362 298.467C369.563 298.482 368.791 298.179 368.215 297.625C367.64 297.071 367.308 296.311 367.293 295.512C366.725 264.14 360.871 236.007 351.721 215.775C342.968 196.338 331.261 184.403 318.757 184.403C319.556 184.403 320.323 184.085 320.887 183.521C321.452 182.956 321.77 182.19 321.77 181.391C321.77 180.592 321.452 179.826 320.887 179.261C320.323 178.696 319.5 178.378 318.701 178.378H318.814Z" fill="white"/>
<path d="M199.861 297.217C199.055 297.217 198.282 297.537 197.711 298.107C197.141 298.677 196.821 299.451 196.821 300.257C196.821 301.064 197.141 301.837 197.711 302.407C198.282 302.977 199.055 303.298 199.861 303.298H326.827C327.633 303.298 328.406 302.977 328.977 302.407C329.547 301.837 329.867 301.064 329.867 300.257C329.867 299.451 329.547 298.677 328.977 298.107C328.406 297.537 327.633 297.217 326.827 297.217H199.861ZM193.496 389.684C193.216 389.964 192.994 390.296 192.843 390.662C192.691 391.028 192.613 391.42 192.613 391.815C192.613 392.615 192.931 393.381 193.496 393.947C194.061 394.512 194.828 394.829 195.627 394.829C196.427 394.829 197.193 394.512 197.759 393.947L221.117 370.588C221.405 370.307 221.634 369.971 221.79 369.6C221.946 369.229 222.027 368.831 222.026 368.429V364.962C222.026 364.155 221.706 363.382 221.136 362.812C220.566 362.241 219.792 361.921 218.986 361.921C218.179 361.921 217.406 362.241 216.836 362.812C216.266 363.382 215.945 364.155 215.945 364.962V367.235L193.496 389.684Z" fill="white"/>
<path d="M190.597 386.672C192.601 386.653 194.564 387.232 196.236 388.336C197.908 389.44 199.213 391.018 199.982 392.869C200.751 394.719 200.951 396.756 200.554 398.72C200.158 400.684 199.184 402.485 197.758 403.892C196.351 405.319 194.55 406.293 192.586 406.689C190.622 407.085 188.584 406.886 186.734 406.116C184.884 405.347 183.306 404.043 182.202 402.371C181.098 400.699 180.518 398.735 180.538 396.731C180.538 394.064 181.597 391.505 183.484 389.618C185.37 387.732 187.929 386.672 190.597 386.672ZM193.439 393.89C192.882 393.322 192.168 392.933 191.389 392.775C190.61 392.617 189.801 392.695 189.067 393.001C188.332 393.307 187.707 393.826 187.271 394.491C186.834 395.156 186.607 395.936 186.619 396.731C186.607 397.527 186.834 398.307 187.271 398.972C187.707 399.637 188.332 400.156 189.067 400.462C189.801 400.767 190.61 400.846 191.389 400.688C192.168 400.53 192.882 400.141 193.439 399.573C193.817 399.203 194.117 398.761 194.322 398.273C194.527 397.785 194.633 397.261 194.633 396.731C194.633 396.202 194.527 395.678 194.322 395.19C194.117 394.702 193.817 394.26 193.439 393.89ZM210.034 408.439C209.469 409.012 209.154 409.786 209.16 410.59C209.165 411.395 209.49 412.165 210.062 412.73C210.635 413.295 211.409 413.61 212.214 413.604C213.018 413.599 213.788 413.274 214.353 412.702L237.712 389.343C238 389.062 238.229 388.726 238.385 388.355C238.541 387.984 238.621 387.586 238.621 387.183V385.138C238.621 384.331 238.301 383.558 237.731 382.987C237.16 382.417 236.387 382.097 235.58 382.097C234.774 382.097 234.001 382.417 233.43 382.987C232.86 383.558 232.54 384.331 232.54 385.138V385.876L210.034 408.439ZM233.279 385.138L233.449 385.024L233.563 385.194H237.882L237.712 385.024C237.432 384.744 237.1 384.522 236.734 384.37C236.368 384.218 235.976 384.14 235.58 384.14C235.185 384.14 234.793 384.218 234.427 384.37C234.061 384.522 233.729 384.744 233.449 385.024L233.563 385.194L233.279 385.138Z" fill="white"/>
<path d="M207.25 405.484C209.248 405.476 211.204 406.064 212.867 407.172C214.53 408.281 215.826 409.859 216.588 411.707C217.35 413.555 217.545 415.587 217.147 417.546C216.749 419.505 215.777 421.301 214.354 422.704C212.947 424.131 211.146 425.104 209.182 425.501C207.217 425.897 205.18 425.697 203.33 424.928C201.48 424.159 199.902 422.855 198.798 421.183C197.694 419.51 197.114 417.547 197.133 415.543C197.133 412.875 198.193 410.317 200.08 408.43C201.966 406.544 204.525 405.484 207.193 405.484H207.25ZM210.091 412.702C209.543 412.091 208.819 411.665 208.019 411.482C207.219 411.299 206.382 411.368 205.623 411.679C204.864 411.99 204.219 412.529 203.778 413.22C203.336 413.912 203.12 414.724 203.158 415.543C203.134 416.351 203.356 417.146 203.795 417.824C204.234 418.502 204.868 419.03 205.615 419.339C206.361 419.647 207.184 419.721 207.973 419.551C208.763 419.38 209.482 418.974 210.034 418.385C210.412 418.015 210.713 417.572 210.918 417.084C211.123 416.597 211.228 416.073 211.228 415.543C211.228 415.014 211.123 414.49 210.918 414.002C210.713 413.514 210.469 413.072 210.091 412.702ZM230.153 421.624C229.588 422.197 229.274 422.971 229.279 423.776C229.284 424.58 229.609 425.35 230.182 425.915C230.755 426.481 231.528 426.795 232.333 426.79C233.138 426.784 233.907 426.46 234.473 425.887L257.433 402.926C257.998 402.354 258.313 401.58 258.308 400.775C258.302 399.97 257.978 399.201 257.405 398.635C256.832 398.07 256.058 397.756 255.254 397.761C254.449 397.766 253.679 398.091 253.114 398.664L230.153 421.624Z" fill="white"/>
<path d="M227.312 418.669C229.315 418.65 231.279 419.229 232.951 420.333C234.623 421.437 235.927 423.015 236.697 424.866C237.466 426.716 237.665 428.753 237.269 430.717C236.873 432.681 235.899 434.482 234.473 435.889C233.066 437.316 231.265 438.29 229.301 438.686C227.337 439.082 225.299 438.883 223.449 438.113C221.599 437.344 220.021 436.04 218.917 434.368C217.813 432.696 217.233 430.732 217.252 428.728C217.252 426.061 218.312 423.502 220.199 421.615C222.085 419.729 224.644 418.669 227.312 418.669ZM230.154 425.887C229.597 425.319 228.883 424.93 228.104 424.772C227.324 424.614 226.515 424.692 225.781 424.998C225.047 425.304 224.422 425.823 223.985 426.488C223.549 427.153 223.322 427.933 223.334 428.728C223.322 429.524 223.549 430.304 223.985 430.969C224.422 431.634 225.047 432.153 225.781 432.459C226.515 432.765 227.324 432.843 228.104 432.685C228.883 432.527 229.597 432.138 230.154 431.57C230.532 431.2 230.832 430.758 231.037 430.27C231.242 429.782 231.348 429.258 231.348 428.728C231.348 428.199 231.242 427.675 231.037 427.187C230.832 426.699 230.532 426.257 230.154 425.887ZM445.438 232.427C446.003 231.862 446.32 231.095 446.32 230.296C446.32 229.496 446.003 228.73 445.438 228.164C445.158 227.884 444.825 227.662 444.46 227.511C444.094 227.359 443.702 227.281 443.306 227.281C442.507 227.281 441.74 227.599 441.175 228.164L423.386 245.896C422.821 246.461 422.504 247.228 422.504 248.027C422.504 248.827 422.821 249.593 423.386 250.159C423.952 250.724 424.718 251.042 425.518 251.042C426.317 251.042 427.084 250.724 427.649 250.159L445.438 232.427Z" fill="white"/>
<path d="M448.279 235.382C446.28 235.39 444.325 234.802 442.661 233.694C440.998 232.586 439.703 231.007 438.941 229.159C438.178 227.311 437.984 225.279 438.382 223.32C438.78 221.361 439.752 219.565 441.175 218.162C442.579 216.739 444.374 215.767 446.333 215.369C448.292 214.971 450.325 215.165 452.172 215.927C454.02 216.69 455.599 217.985 456.707 219.648C457.815 221.312 458.403 223.267 458.395 225.266C458.403 226.597 458.146 227.915 457.641 229.146C457.135 230.377 456.39 231.495 455.449 232.436C454.508 233.377 453.39 234.122 452.159 234.628C450.929 235.133 449.61 235.39 448.279 235.382ZM445.437 228.164C445.994 228.733 446.708 229.121 447.487 229.279C448.267 229.438 449.076 229.359 449.81 229.053C450.544 228.747 451.169 228.228 451.606 227.563C452.042 226.898 452.269 226.118 452.257 225.323C452.269 224.528 452.042 223.747 451.606 223.082C451.169 222.417 450.544 221.898 449.81 221.593C449.076 221.287 448.267 221.208 447.487 221.366C446.708 221.525 445.994 221.913 445.437 222.481C445.059 222.852 444.759 223.294 444.554 223.782C444.349 224.27 444.243 224.793 444.243 225.323C444.243 225.852 444.349 226.376 444.554 226.864C444.759 227.352 445.059 227.794 445.437 228.164ZM428.842 213.615C429.407 213.05 429.725 212.283 429.725 211.484C429.725 210.685 429.407 209.918 428.842 209.353C428.562 209.073 428.23 208.851 427.864 208.699C427.499 208.548 427.107 208.47 426.711 208.47C425.912 208.47 425.145 208.787 424.58 209.353L409.689 224.243C409.124 224.808 408.807 225.575 408.807 226.374C408.807 227.174 409.124 227.94 409.689 228.505C410.255 229.071 411.021 229.388 411.821 229.388C412.62 229.388 413.387 229.071 413.952 228.505L428.842 213.615Z" fill="white"/>
<path d="M431.742 216.57C429.738 216.59 427.775 216.01 426.102 214.906C424.43 213.802 423.126 212.224 422.357 210.374C421.587 208.524 421.388 206.486 421.784 204.522C422.181 202.558 423.154 200.757 424.581 199.35C425.988 197.924 427.789 196.95 429.753 196.554C431.717 196.157 433.755 196.357 435.605 197.126C437.455 197.895 439.033 199.2 440.137 200.872C441.241 202.544 441.82 204.507 441.801 206.511C441.801 207.837 441.539 209.15 441.03 210.374C440.521 211.598 439.775 212.709 438.835 213.644C437.895 214.579 436.779 215.319 435.552 215.821C434.325 216.323 433.067 216.578 431.742 216.57ZM428.9 209.353C429.457 209.921 430.171 210.309 430.95 210.467C431.729 210.626 432.538 210.547 433.272 210.241C434.006 209.935 434.632 209.416 435.068 208.751C435.505 208.087 435.732 207.306 435.72 206.511C435.732 205.716 435.505 204.935 435.068 204.27C434.632 203.606 434.006 203.087 433.272 202.781C432.538 202.475 431.729 202.396 430.95 202.554C430.171 202.713 429.457 203.101 428.9 203.669C428.522 204.04 428.222 204.482 428.017 204.97C427.812 205.458 427.706 205.982 427.706 206.511C427.706 207.04 427.812 207.564 428.017 208.052C428.222 208.54 428.522 208.982 428.9 209.353ZM408.724 200.43C409.29 199.865 409.607 199.098 409.607 198.299C409.607 197.499 409.29 196.733 408.724 196.167C408.159 195.602 407.392 195.285 406.593 195.285C405.794 195.285 405.027 195.602 404.462 196.167L393.266 207.307C392.982 207.59 392.757 207.927 392.604 208.297C392.45 208.668 392.371 209.065 392.371 209.466C392.371 209.867 392.45 210.265 392.604 210.635C392.757 211.006 392.982 211.342 393.266 211.626C393.549 211.91 393.886 212.135 394.257 212.288C394.627 212.442 395.024 212.521 395.425 212.521C395.826 212.521 396.224 212.442 396.594 212.288C396.965 212.135 397.301 211.91 397.585 211.626L408.724 200.43Z" fill="white"/>
<path d="M411.566 203.385C409.567 203.393 407.611 202.805 405.948 201.697C404.285 200.588 402.989 199.01 402.227 197.162C401.465 195.314 401.27 193.282 401.668 191.323C402.066 189.364 403.039 187.568 404.461 186.165C405.865 184.742 407.661 183.769 409.62 183.371C411.578 182.974 413.611 183.168 415.459 183.93C417.306 184.693 418.885 185.988 419.994 187.651C421.102 189.314 421.69 191.27 421.682 193.269C421.689 194.599 421.433 195.918 420.927 197.149C420.421 198.38 419.677 199.498 418.736 200.439C417.795 201.38 416.677 202.125 415.446 202.63C414.215 203.136 412.896 203.393 411.566 203.385ZM408.724 196.167C409.277 196.756 409.996 197.163 410.785 197.333C411.575 197.503 412.397 197.429 413.143 197.121C413.89 196.812 414.525 196.284 414.964 195.606C415.403 194.928 415.625 194.133 415.601 193.326C415.612 192.53 415.385 191.75 414.949 191.085C414.513 190.42 413.887 189.901 413.153 189.595C412.419 189.29 411.61 189.211 410.831 189.369C410.051 189.528 409.337 189.916 408.781 190.484C408.403 190.854 408.102 191.297 407.897 191.784C407.692 192.272 407.587 192.796 407.587 193.326C407.587 193.855 407.692 194.379 407.897 194.867C408.102 195.355 408.346 195.797 408.724 196.167Z" fill="white"/>
<path d="M205.316 267.493C206.115 267.493 206.881 267.176 207.446 266.611C208.011 266.046 208.328 265.28 208.328 264.481C208.328 263.682 208.011 262.916 207.446 262.351C206.881 261.786 206.115 261.469 205.316 261.469H191.903C191.104 261.469 190.338 261.786 189.773 262.351C189.208 262.916 188.891 263.682 188.891 264.481V280.053H175.365C174.558 280.053 173.785 280.374 173.215 280.944C172.645 281.514 172.324 282.287 172.324 283.094C172.324 283.9 172.645 284.674 173.215 285.244C173.785 285.814 174.558 286.134 175.365 286.134H191.903C193.608 286.134 194.915 284.77 194.915 283.122V267.493H205.316Z" fill="white"/>
<path d="M164.17 283.122C164.179 283.928 164.426 284.713 164.88 285.379C165.333 286.046 165.974 286.563 166.72 286.866C167.467 287.17 168.287 287.246 169.077 287.086C169.866 286.925 170.591 286.535 171.16 285.964C171.712 285.392 172.086 284.672 172.236 283.892C172.385 283.112 172.305 282.304 172.003 281.569C171.702 280.834 171.193 280.202 170.539 279.751C169.884 279.3 169.113 279.05 168.318 279.03C167.776 279.023 167.238 279.123 166.735 279.325C166.232 279.527 165.774 279.828 165.388 280.208C165.002 280.589 164.696 281.043 164.486 281.543C164.277 282.043 164.17 282.58 164.17 283.122ZM161.101 290.283C159.663 288.871 158.68 287.063 158.277 285.088C157.874 283.114 158.069 281.065 158.839 279.202C159.608 277.34 160.916 275.75 162.595 274.636C164.274 273.522 166.247 272.934 168.262 272.949C170.276 272.934 172.25 273.522 173.929 274.636C175.607 275.75 176.915 277.34 177.685 279.202C178.454 281.065 178.65 283.114 178.247 285.088C177.844 287.063 176.86 288.871 175.423 290.283C174.483 291.225 173.367 291.972 172.138 292.482C170.909 292.991 169.592 293.254 168.262 293.254C166.931 293.254 165.614 292.991 164.385 292.482C163.156 291.972 162.04 291.225 161.101 290.283Z" fill="white"/>
<path d="M201.169 320.916C201.983 320.916 202.764 320.593 203.339 320.017C203.915 319.442 204.238 318.661 204.238 317.847C204.238 317.033 203.915 316.253 203.339 315.677C202.764 315.102 201.983 314.778 201.169 314.778H187.7C187.3 314.778 186.903 314.858 186.534 315.013C186.165 315.168 185.83 315.395 185.55 315.681C185.269 315.966 185.049 316.305 184.901 316.677C184.753 317.049 184.68 317.447 184.688 317.847V333.42H171.218C170.412 333.42 169.639 333.74 169.068 334.31C168.498 334.88 168.178 335.654 168.178 336.46C168.178 337.267 168.498 338.04 169.068 338.61C169.639 339.18 170.412 339.501 171.218 339.501H187.7C189.405 339.501 190.769 338.137 190.769 336.432V320.916H201.169Z" fill="white"/>
<path d="M160.021 336.432C160.03 337.231 160.273 338.01 160.72 338.673C161.166 339.336 161.797 339.853 162.535 340.161C163.272 340.47 164.084 340.555 164.869 340.408C165.655 340.26 166.38 339.885 166.955 339.33C167.507 338.759 167.881 338.039 168.031 337.258C168.18 336.478 168.1 335.671 167.798 334.936C167.497 334.2 166.988 333.569 166.334 333.118C165.679 332.667 164.908 332.416 164.113 332.397C163.038 332.396 162.006 332.82 161.24 333.575C160.474 334.33 160.036 335.356 160.021 336.432ZM156.896 343.65C155.458 342.238 154.475 340.429 154.072 338.455C153.669 336.481 153.864 334.431 154.634 332.569C155.403 330.707 156.711 329.117 158.39 328.002C160.068 326.888 162.042 326.301 164.057 326.315C166.076 326.289 168.057 326.869 169.745 327.978C171.433 329.088 172.75 330.678 173.526 332.542C174.302 334.407 174.503 336.461 174.102 338.441C173.7 340.42 172.716 342.234 171.274 343.65C170.334 344.6 169.214 345.354 167.98 345.869C166.746 346.384 165.422 346.649 164.085 346.649C162.748 346.649 161.424 346.384 160.19 345.869C158.956 345.354 157.836 344.6 156.896 343.65Z" fill="white"/>
<defs>
<linearGradient id="paint0_linear_1064_2027" x1="-68.4868" y1="381.809" x2="701.487" y2="388.191" gradientUnits="userSpaceOnUse">
<stop stop-color="#024EC9"/>
<stop offset="1" stop-color="#3884FF"/>
</linearGradient>
</defs>
</svg>
