<svg width="24" height="21" viewBox="0 0 27 24" fill="none" xmlns="http://www.w3.org/2000/svg"><path d="M13.5 17.6c2.386 0 4.32-1.91 4.32-4.267 0-2.356-1.934-4.267-4.32-4.267s-4.32 1.91-4.32 4.267S11.114 17.6 13.5 17.6z" fill="#838383"/><path d="M9.45 0L6.98 2.667H2.7C1.208 2.667 0 3.86 0 5.333v16C0 22.807 1.208 24 2.7 24h21.6c1.492 0 2.7-1.193 2.7-2.667v-16c0-1.473-1.208-2.666-2.7-2.666h-4.28L17.55 0h-8.1zm4.05 20c-3.726 0-6.75-2.987-6.75-6.667 0-3.68 3.024-6.666 6.75-6.666s6.75 2.986 6.75 6.666S17.226 20 13.5 20z" fill="#838383"/></svg>