<svg width="391" height="234" fill="none" xmlns="http://www.w3.org/2000/svg"><g clip-path="url(#clip0_1811_1917)"><rect x=".848" y="233.971" width="233.907" height="389.845" rx="17.326" transform="rotate(-90 .848 233.971)" fill="#9B0041"/><path d="M4.956 108.924c40.197 1.049 78.418 4.432 117.455.406 49.184-4.772 98.609-4.87 147.793-3.839 20.685.271 41.393-4.817 62.319-5.675 3.287-.17 6.297.121 10.492.128-1.494 5.881-6.573 6.143-11.354 6.39-45.943 3.713-92.059 4.086-137.956 2.885-27.005-.837-53.781 2.778-80.625 5.058-31.314 2.734-61.94 1.414-92.61-.797-11.435-.972-23.087-.37-34.613 2.681a271.839 271.839 0 00-3.701-13.649c35.21-2.711 68.846-12.708 105.24-9.9 28.878 2.303 57.595-4.315 85.462-9.995 42.404-8.441 84.911-9.074 127.189-2.553 12.078 1.832 24.96 1.836 37.417-.593-.816 7.409-1.689 7.9-12.181 7.772-18.605-.601-36.98-2.554-54.815-5.65-27.799-4.592-55.482-1.153-83.13 2.954a608.07 608.07 0 00-56.355 10.947c-23.075 5.657-46.276 3.06-69.11 1.784-15.916-.74-30.981 3.387-46.77 5.095l.114 2.226c11.055-.571 22.087-1.587 33.165-1.713 51.839.224 103.447-4.004 154.24-12.432 21.087-3.544 41.68.75 62.399 1.688a571.478 571.478 0 0067.662-.816c4.482-.232 8.631-1.116 11.527 2.753-3.723 3.317-8.849 2.689-13.606 3.381-25.017 2.855-49.678 1.004-74.374-1.515-24.098-2.55-47.943-.203-72.052 2.829-25.603 3.108-51.919 4.021-77.844 6.699-32.797 3.034-66.283-1.487-101.378 3.451zM-10.14 71.116c12.515-5.8 27.1-6.157 40.372-8.825 15.343-2.973 31.394-3.803 47.198-3.628 20.282.34 39.06-5.387 57.929-9.335 48.654-10.046 97.696-12.58 147.342-9.197 10.772.83 21.011-2.87 32.982-1.902-5.638 6.238-13.612 7.64-22.272 7.295-31.977-1.718-64.446-1.428-96.608-.956-15.189.19-29.918 3.528-44.656 6.668-26.823 5.746-53.02 12.055-82.22 12.176-24.434.072-49.31 3.142-73.17 8.537-2.04.898-4.07 1.994-6.898-.833z" fill="#0D1218"/><path d="M337.3 73.153c-13.246 4.225-23.499 2.672-32.868.865-64.666-12.281-128.057-5.674-190.922 11.111-7.972 2.078-15.656 3.933-24.15 1.664-22.14-5.73-42.76.543-63.744 5.584-3.25.793-6.522 1.17-9.453 2.363-12.03 4.579-23.02.356-34.51-1.966.702-3.786 4.89-3.794 7.939-2.701 16.468 6.022 31.696-.388 46.765-4.082 17.744-4.041 34.327-7.397 52.49-3.337 11.202 2.546 21.752-1.748 31.78-4.557 21.548-5.696 43.161-10.144 65.83-11.524 34.307-1.98 68.603-4.168 102.88-.94 15.039 1.514 30.078 3.028 47.963 7.52z" fill="#0D1218"/><path d="M323.042 51.742c1.724 4.39-2.18 4.165-5.11 5.383-17.574 7.52-35.154 3.31-52.039.982-44.926-6.211-88.771-3.093-131.845 9.157-20.647 5.972-41.812 7.705-63.729 6.49-7.806-.449-15.293-.489-22.337 2.221C30.95 82.4 12.097 82.521-6.36 84.541c-1.78.305-3.903-.225-6.613-.512 4.248-4.698 10.53-4.81 15.914-4.874 13.469-.056 26.529-2.224 38.915-5.85 11.213-3.138 21.962-3.693 33.362-3.216 13.502.582 26.584-1.16 39.29-4.376 33.099-8.321 66.971-13.27 101.56-15.91 21.774-1.551 43.003 3.75 64.93 5.177 13.822.993 27.888.906 42.043-3.238zm16.072 56.519c-.362 4.549-3.652 4.503-7.526 4.703-37.583 1.294-75 5.816-112.439 9.907-44.855 5.121-90.319 10.058-135.245 2.24-28.038-4.807-56.327-2.914-84.759 2.006-3.852.63-7.957 2.136-11.149-1.797 21.015-3.89 41.732-7.764 63.289-6.936 20.354.674 39.936 3.761 59.76 5.757 30.643 3.163 60.862-1.85 91.216-4.281 45.54-3.431 90.274-10.918 136.853-11.599z" fill="#0D1218"/><path fill="#0D1218" d="M261 234V0h130v234zM86.7 155.747c-.343-.099-.69-.506-.762-.894-.046-.253.013-.429.379-1.13 1.481-2.834 2.13-5.442 2.143-8.608.012-3.059-.544-5.44-1.94-8.293-.298-.612-.544-1.181-.543-1.263 0-.304.258-.744.534-.917.38-.236 1.015-.192 1.318.092.116.109.418.605.67 1.102a20.844 20.844 0 012.01 6.373c.206 1.391.238 4.026.064 5.299-.319 2.349-.95 4.444-1.954 6.497-.608 1.24-.987 1.751-1.305 1.751a.944.944 0 00-.228.035c-.064.019-.238-.001-.386-.044zm-4.087-2.133c-.525-.153-.903-.796-.75-1.279.037-.116.288-.654.556-1.194 1.135-2.289 1.614-4.742 1.394-7.151-.18-1.979-.533-3.227-1.423-5.053-.597-1.226-.624-1.415-.272-1.909.335-.469 1.166-.545 1.6-.146.302.276 1.234 2.232 1.593 3.34 1.187 3.666.988 7.602-.565 11.203-.795 1.845-1.352 2.416-2.133 2.189zm-4.214-2.164a1.263 1.263 0 01-.678-.834c-.047-.21.035-.443.424-1.222 1.43-2.861 1.456-5.616.08-8.41-.605-1.227-.618-1.471-.1-1.955.256-.239.362-.281.72-.281.6 0 .908.299 1.439 1.394.816 1.684 1.147 3.144 1.137 5.016-.01 1.923-.33 3.244-1.216 5.019-.508 1.017-.757 1.285-1.262 1.354a1.173 1.173 0 01-.544-.081zm-3.932-2.015c-.258-.106-.55-.456-.636-.759-.096-.34-.016-.609.373-1.243.501-.815.619-1.253.623-2.318.004-1.065-.11-1.503-.605-2.318-.167-.276-.335-.608-.374-.736-.157-.537.294-1.196.899-1.308.512-.096.863.131 1.33.863 1.355 2.118 1.343 4.948-.027 7.048-.484.741-1.022 1.003-1.583.771z"/><g clip-path="url(#clip1_1811_1917)"><rect x="24.672" y="158.623" width="26.446" height="36.363" rx="3.636" transform="rotate(-90 24.672 158.623)" fill="url(#paint0_linear_1811_1917)"/><path fill-rule="evenodd" clip-rule="evenodd" d="M48.785 131.626l-5.781 5.395-5.78-5.418-.473.442 5.919 5.549v2.996l-5.349-.01-.668-.001-14.708-.029v.625l14.708.029v8.755l-14.708-.029v.626l14.708.028.668.002 5.349.01v2.998l-5.92 5.524.473.444 5.781-5.396 5.78 5.418.474-.441-5.92-5.548v-2.998l5.349.011.668.001 14.709.029v-.625l-14.709-.029v-8.755l14.709.029v-.626l-15.043-.029c-.185-.001-.334.139-.334.312v9.068l-5.683-.012-5.683-.011v-8.755l5.683.011c.185.001.334-.139.334-.312v-3.309l5.92-5.525-.473-.444z" fill="#47453F"/></g><rect x="24.672" y="158.623" width="26.446" height="36.363" rx="3.636" transform="rotate(-90 24.672 158.623)" stroke="#47453F" stroke-width=".545"/></g><defs><clipPath id="clip0_1811_1917"><rect x=".848" y="233.971" width="233.907" height="389.845" rx="17.326" transform="rotate(-90 .848 233.971)" fill="#fff"/></clipPath><clipPath id="clip1_1811_1917"><rect x="24.672" y="158.623" width="26.446" height="36.363" rx="3.636" transform="rotate(-90 24.672 158.623)" fill="#fff"/></clipPath><linearGradient id="paint0_linear_1811_1917" x1="24.885" y1="158.623" x2="68.668" y2="196.841" gradientUnits="userSpaceOnUse"><stop stop-color="#F8ECC1"/><stop offset="1" stop-color="#C8AC48"/></linearGradient></defs></svg>