<svg width="332" height="196" viewBox="0 0 332 196" fill="none" xmlns="http://www.w3.org/2000/svg">
<g clip-path="url(#clip0_188_531)">
<rect width="332" height="196" rx="25" fill="url(#paint0_linear_188_531)"/>
<ellipse cx="33" cy="193.5" rx="175" ry="110.5" fill="#78165F"/>
<ellipse cx="332" cy="-13.5" rx="175" ry="110.5" fill="#78165F"/>
<path d="M24.076 162.288C23.476 162.288 22.882 162.168 22.294 161.928C21.718 161.676 21.208 161.304 20.764 160.812C20.32 160.308 20.008 159.69 19.828 158.958L21.61 158.256C21.766 158.904 22.054 159.426 22.474 159.822C22.906 160.218 23.434 160.416 24.058 160.416C24.73 160.416 25.288 160.206 25.732 159.786C26.176 159.354 26.398 158.802 26.398 158.13C26.398 157.458 26.176 156.906 25.732 156.474C25.3 156.03 24.742 155.808 24.058 155.808C23.674 155.808 23.314 155.892 22.978 156.06C22.642 156.228 22.366 156.462 22.15 156.762L20.188 155.898L20.944 149.688H27.64V151.488H22.6L22.15 154.728L22.258 154.746C22.882 154.254 23.608 154.008 24.436 154.008C25.132 154.008 25.78 154.182 26.38 154.53C26.992 154.878 27.478 155.364 27.838 155.988C28.198 156.612 28.378 157.32 28.378 158.112C28.378 158.904 28.192 159.618 27.82 160.254C27.448 160.89 26.932 161.388 26.272 161.748C25.624 162.108 24.892 162.288 24.076 162.288ZM34.3031 162.288C33.3791 162.288 32.5211 162.024 31.7291 161.496C30.9371 160.956 30.3911 160.17 30.0911 159.138L31.9271 158.382C32.0951 159.018 32.3831 159.51 32.7911 159.858C33.2111 160.206 33.7151 160.38 34.3031 160.38C34.9031 160.38 35.4191 160.2 35.8511 159.84C36.2831 159.468 36.4991 159 36.4991 158.436C36.4991 157.86 36.2711 157.392 35.8151 157.032C35.3591 156.66 34.7891 156.474 34.1051 156.474H33.0431V154.656H33.9971C34.5851 154.656 35.0771 154.5 35.4731 154.188C35.8811 153.864 36.0851 153.426 36.0851 152.874C36.0851 152.382 35.9051 151.992 35.5451 151.704C35.1851 151.404 34.7291 151.254 34.1771 151.254C33.6371 151.254 33.2051 151.398 32.8811 151.686C32.5691 151.974 32.3411 152.328 32.1971 152.748L30.3791 151.992C30.6191 151.308 31.0631 150.708 31.7111 150.192C32.3591 149.664 33.1871 149.4 34.1951 149.4C34.9391 149.4 35.6051 149.544 36.1931 149.832C36.7931 150.12 37.2611 150.522 37.5971 151.038C37.9331 151.542 38.1011 152.112 38.1011 152.748C38.1011 153.396 37.9451 153.948 37.6331 154.404C37.3211 154.848 36.9371 155.19 36.4811 155.43V155.538C37.0811 155.79 37.5731 156.174 37.9571 156.69C38.3411 157.206 38.5331 157.824 38.5331 158.544C38.5331 159.264 38.3471 159.906 37.9751 160.47C37.6151 161.034 37.1111 161.478 36.4631 161.802C35.8271 162.126 35.1071 162.288 34.3031 162.288ZM40.7059 161.37L46.1599 151.614L46.1239 151.56H40.1659V149.688H48.3199V151.668L42.4159 162.288L40.7059 161.37ZM54.0467 162.288C53.4467 162.288 52.8527 162.168 52.2647 161.928C51.6887 161.676 51.1787 161.304 50.7347 160.812C50.2907 160.308 49.9787 159.69 49.7987 158.958L51.5807 158.256C51.7367 158.904 52.0247 159.426 52.4447 159.822C52.8767 160.218 53.4047 160.416 54.0287 160.416C54.7007 160.416 55.2587 160.206 55.7027 159.786C56.1467 159.354 56.3687 158.802 56.3687 158.13C56.3687 157.458 56.1467 156.906 55.7027 156.474C55.2707 156.03 54.7127 155.808 54.0287 155.808C53.6447 155.808 53.2847 155.892 52.9487 156.06C52.6127 156.228 52.3367 156.462 52.1207 156.762L50.1587 155.898L50.9147 149.688H57.6107V151.488H52.5707L52.1207 154.728L52.2287 154.746C52.8527 154.254 53.5787 154.008 54.4067 154.008C55.1027 154.008 55.7507 154.182 56.3507 154.53C56.9627 154.878 57.4487 155.364 57.8087 155.988C58.1687 156.612 58.3487 157.32 58.3487 158.112C58.3487 158.904 58.1627 159.618 57.7907 160.254C57.4187 160.89 56.9027 161.388 56.2427 161.748C55.5947 162.108 54.8627 162.288 54.0467 162.288ZM70.1485 159.552H64.3885V158.004L69.9865 149.688H72.1285V157.716H73.6945V159.552H72.1285V162H70.1485V159.552ZM70.1485 157.716V152.622H70.0405L66.6025 157.716H70.1485ZM79.4965 162.288C78.5725 162.288 77.7145 162.024 76.9225 161.496C76.1305 160.956 75.5845 160.17 75.2845 159.138L77.1205 158.382C77.2885 159.018 77.5765 159.51 77.9845 159.858C78.4045 160.206 78.9085 160.38 79.4965 160.38C80.0965 160.38 80.6125 160.2 81.0445 159.84C81.4765 159.468 81.6925 159 81.6925 158.436C81.6925 157.86 81.4645 157.392 81.0085 157.032C80.5525 156.66 79.9825 156.474 79.2985 156.474H78.2365V154.656H79.1905C79.7785 154.656 80.2705 154.5 80.6665 154.188C81.0745 153.864 81.2785 153.426 81.2785 152.874C81.2785 152.382 81.0985 151.992 80.7385 151.704C80.3785 151.404 79.9225 151.254 79.3705 151.254C78.8305 151.254 78.3985 151.398 78.0745 151.686C77.7625 151.974 77.5345 152.328 77.3905 152.748L75.5725 151.992C75.8125 151.308 76.2565 150.708 76.9045 150.192C77.5525 149.664 78.3805 149.4 79.3885 149.4C80.1325 149.4 80.7985 149.544 81.3865 149.832C81.9865 150.12 82.4545 150.522 82.7905 151.038C83.1265 151.542 83.2945 152.112 83.2945 152.748C83.2945 153.396 83.1385 153.948 82.8265 154.404C82.5145 154.848 82.1305 155.19 81.6745 155.43V155.538C82.2745 155.79 82.7665 156.174 83.1505 156.69C83.5345 157.206 83.7265 157.824 83.7265 158.544C83.7265 159.264 83.5405 159.906 83.1685 160.47C82.8085 161.034 82.3045 161.478 81.6565 161.802C81.0205 162.126 80.3005 162.288 79.4965 162.288ZM89.6073 162.288C89.0073 162.288 88.4133 162.168 87.8253 161.928C87.2493 161.676 86.7393 161.304 86.2953 160.812C85.8513 160.308 85.5393 159.69 85.3593 158.958L87.1413 158.256C87.2973 158.904 87.5853 159.426 88.0053 159.822C88.4373 160.218 88.9653 160.416 89.5893 160.416C90.2613 160.416 90.8193 160.206 91.2633 159.786C91.7073 159.354 91.9293 158.802 91.9293 158.13C91.9293 157.458 91.7073 156.906 91.2633 156.474C90.8313 156.03 90.2733 155.808 89.5893 155.808C89.2053 155.808 88.8453 155.892 88.5093 156.06C88.1733 156.228 87.8973 156.462 87.6813 156.762L85.7192 155.898L86.4753 149.688H93.1713V151.488H88.1313L87.6813 154.728L87.7893 154.746C88.4133 154.254 89.1393 154.008 89.9673 154.008C90.6633 154.008 91.3113 154.182 91.9113 154.53C92.5233 154.878 93.0093 155.364 93.3693 155.988C93.7293 156.612 93.9093 157.32 93.9093 158.112C93.9093 158.904 93.7233 159.618 93.3513 160.254C92.9793 160.89 92.4633 161.388 91.8033 161.748C91.1553 162.108 90.4233 162.288 89.6073 162.288ZM99.9783 162.288C99.3783 162.288 98.7843 162.168 98.1963 161.928C97.6203 161.676 97.1103 161.304 96.6663 160.812C96.2223 160.308 95.9103 159.69 95.7303 158.958L97.5123 158.256C97.6683 158.904 97.9563 159.426 98.3763 159.822C98.8083 160.218 99.3363 160.416 99.9603 160.416C100.632 160.416 101.19 160.206 101.634 159.786C102.078 159.354 102.3 158.802 102.3 158.13C102.3 157.458 102.078 156.906 101.634 156.474C101.202 156.03 100.644 155.808 99.9603 155.808C99.5763 155.808 99.2163 155.892 98.8803 156.06C98.5443 156.228 98.2683 156.462 98.0523 156.762L96.0903 155.898L96.8463 149.688H103.542V151.488H98.5023L98.0523 154.728L98.1603 154.746C98.7843 154.254 99.5103 154.008 100.338 154.008C101.034 154.008 101.682 154.182 102.282 154.53C102.894 154.878 103.38 155.364 103.74 155.988C104.1 156.612 104.28 157.32 104.28 158.112C104.28 158.904 104.094 159.618 103.722 160.254C103.35 160.89 102.834 161.388 102.174 161.748C101.526 162.108 100.794 162.288 99.9783 162.288ZM114.64 162.288C113.8 162.288 113.05 162.096 112.39 161.712C111.73 161.316 111.22 160.794 110.86 160.146C110.5 159.498 110.32 158.808 110.32 158.076C110.32 157.368 110.458 156.702 110.734 156.078C111.01 155.442 111.418 154.728 111.958 153.936L115.072 149.364L116.638 150.444L113.83 154.35L113.902 154.422C114.226 154.23 114.634 154.134 115.126 154.134C115.75 154.134 116.35 154.308 116.926 154.656C117.514 155.004 117.988 155.484 118.348 156.096C118.72 156.696 118.906 157.374 118.906 158.13C118.906 158.886 118.708 159.582 118.312 160.218C117.928 160.854 117.406 161.358 116.746 161.73C116.098 162.102 115.396 162.288 114.64 162.288ZM114.622 160.434C115.03 160.434 115.414 160.338 115.774 160.146C116.134 159.942 116.416 159.666 116.62 159.318C116.836 158.97 116.944 158.58 116.944 158.148C116.944 157.716 116.836 157.326 116.62 156.978C116.404 156.618 116.116 156.342 115.756 156.15C115.408 155.946 115.03 155.844 114.622 155.844C114.214 155.844 113.83 155.946 113.47 156.15C113.11 156.342 112.822 156.618 112.606 156.978C112.39 157.326 112.282 157.716 112.282 158.148C112.282 158.58 112.384 158.97 112.588 159.318C112.804 159.666 113.092 159.942 113.452 160.146C113.812 160.338 114.202 160.434 114.622 160.434ZM123.047 152.37L121.031 153.828L120.023 152.298L123.641 149.688H125.027V162H123.047V152.37ZM130.465 152.37L128.449 153.828L127.441 152.298L131.059 149.688H132.445V162H130.465V152.37ZM139.283 162.288C138.683 162.288 138.089 162.168 137.501 161.928C136.925 161.676 136.415 161.304 135.971 160.812C135.527 160.308 135.215 159.69 135.035 158.958L136.817 158.256C136.973 158.904 137.261 159.426 137.681 159.822C138.113 160.218 138.641 160.416 139.265 160.416C139.937 160.416 140.495 160.206 140.939 159.786C141.383 159.354 141.605 158.802 141.605 158.13C141.605 157.458 141.383 156.906 140.939 156.474C140.507 156.03 139.949 155.808 139.265 155.808C138.881 155.808 138.521 155.892 138.185 156.06C137.849 156.228 137.573 156.462 137.357 156.762L135.395 155.898L136.151 149.688H142.847V151.488H137.807L137.357 154.728L137.465 154.746C138.089 154.254 138.815 154.008 139.643 154.008C140.339 154.008 140.987 154.182 141.587 154.53C142.199 154.878 142.685 155.364 143.045 155.988C143.405 156.612 143.585 157.32 143.585 158.112C143.585 158.904 143.399 159.618 143.027 160.254C142.655 160.89 142.139 161.388 141.479 161.748C140.831 162.108 140.099 162.288 139.283 162.288ZM153.873 162.288C153.273 162.288 152.679 162.168 152.091 161.928C151.515 161.676 151.005 161.304 150.561 160.812C150.117 160.308 149.805 159.69 149.625 158.958L151.407 158.256C151.563 158.904 151.851 159.426 152.271 159.822C152.703 160.218 153.231 160.416 153.855 160.416C154.527 160.416 155.085 160.206 155.529 159.786C155.973 159.354 156.195 158.802 156.195 158.13C156.195 157.458 155.973 156.906 155.529 156.474C155.097 156.03 154.539 155.808 153.855 155.808C153.471 155.808 153.111 155.892 152.775 156.06C152.439 156.228 152.163 156.462 151.947 156.762L149.985 155.898L150.741 149.688H157.437V151.488H152.397L151.947 154.728L152.055 154.746C152.679 154.254 153.405 154.008 154.233 154.008C154.929 154.008 155.577 154.182 156.177 154.53C156.789 154.878 157.275 155.364 157.635 155.988C157.995 156.612 158.175 157.32 158.175 158.112C158.175 158.904 157.989 159.618 157.617 160.254C157.245 160.89 156.729 161.388 156.069 161.748C155.421 162.108 154.689 162.288 153.873 162.288ZM161.649 161.244L164.457 157.338L164.385 157.266C164.061 157.458 163.653 157.554 163.161 157.554C162.537 157.554 161.931 157.38 161.343 157.032C160.767 156.684 160.293 156.21 159.921 155.61C159.561 154.998 159.381 154.314 159.381 153.558C159.381 152.802 159.573 152.106 159.957 151.47C160.353 150.834 160.875 150.33 161.523 149.958C162.183 149.586 162.891 149.4 163.647 149.4C164.487 149.4 165.237 149.598 165.897 149.994C166.557 150.378 167.067 150.894 167.427 151.542C167.787 152.19 167.967 152.88 167.967 153.612C167.967 154.32 167.829 154.992 167.553 155.628C167.277 156.252 166.869 156.96 166.329 157.752L163.215 162.324L161.649 161.244ZM163.665 155.844C164.073 155.844 164.457 155.748 164.817 155.556C165.177 155.352 165.465 155.076 165.681 154.728C165.897 154.368 166.005 153.972 166.005 153.54C166.005 153.108 165.897 152.718 165.681 152.37C165.477 152.022 165.195 151.752 164.835 151.56C164.475 151.356 164.085 151.254 163.665 151.254C163.257 151.254 162.873 151.356 162.513 151.56C162.153 151.752 161.865 152.022 161.649 152.37C161.445 152.718 161.343 153.108 161.343 153.54C161.343 153.972 161.451 154.368 161.667 154.728C161.883 155.076 162.165 155.352 162.513 155.556C162.873 155.748 163.257 155.844 163.665 155.844ZM171.897 161.244L174.705 157.338L174.633 157.266C174.309 157.458 173.901 157.554 173.409 157.554C172.785 157.554 172.179 157.38 171.591 157.032C171.015 156.684 170.541 156.21 170.169 155.61C169.809 154.998 169.629 154.314 169.629 153.558C169.629 152.802 169.821 152.106 170.205 151.47C170.601 150.834 171.123 150.33 171.771 149.958C172.431 149.586 173.139 149.4 173.895 149.4C174.735 149.4 175.485 149.598 176.145 149.994C176.805 150.378 177.315 150.894 177.675 151.542C178.035 152.19 178.215 152.88 178.215 153.612C178.215 154.32 178.077 154.992 177.801 155.628C177.525 156.252 177.117 156.96 176.577 157.752L173.463 162.324L171.897 161.244ZM173.913 155.844C174.321 155.844 174.705 155.748 175.065 155.556C175.425 155.352 175.713 155.076 175.929 154.728C176.145 154.368 176.253 153.972 176.253 153.54C176.253 153.108 176.145 152.718 175.929 152.37C175.725 152.022 175.443 151.752 175.083 151.56C174.723 151.356 174.333 151.254 173.913 151.254C173.505 151.254 173.121 151.356 172.761 151.56C172.401 151.752 172.113 152.022 171.897 152.37C171.693 152.718 171.591 153.108 171.591 153.54C171.591 153.972 171.699 154.368 171.915 154.728C172.131 155.076 172.413 155.352 172.761 155.556C173.121 155.748 173.505 155.844 173.913 155.844ZM182.145 161.244L184.953 157.338L184.881 157.266C184.557 157.458 184.149 157.554 183.657 157.554C183.033 157.554 182.427 157.38 181.839 157.032C181.263 156.684 180.789 156.21 180.417 155.61C180.057 154.998 179.877 154.314 179.877 153.558C179.877 152.802 180.069 152.106 180.453 151.47C180.849 150.834 181.371 150.33 182.019 149.958C182.679 149.586 183.387 149.4 184.143 149.4C184.983 149.4 185.733 149.598 186.393 149.994C187.053 150.378 187.563 150.894 187.923 151.542C188.283 152.19 188.463 152.88 188.463 153.612C188.463 154.32 188.325 154.992 188.049 155.628C187.773 156.252 187.365 156.96 186.825 157.752L183.711 162.324L182.145 161.244ZM184.161 155.844C184.569 155.844 184.953 155.748 185.313 155.556C185.673 155.352 185.961 155.076 186.177 154.728C186.393 154.368 186.501 153.972 186.501 153.54C186.501 153.108 186.393 152.718 186.177 152.37C185.973 152.022 185.691 151.752 185.331 151.56C184.971 151.356 184.581 151.254 184.161 151.254C183.753 151.254 183.369 151.356 183.009 151.56C182.649 151.752 182.361 152.022 182.145 152.37C181.941 152.718 181.839 153.108 181.839 153.54C181.839 153.972 181.947 154.368 182.163 154.728C182.379 155.076 182.661 155.352 183.009 155.556C183.369 155.748 183.753 155.844 184.161 155.844Z" fill="white"/>
<path d="M257.958 162.288C256.95 162.288 256.062 162.006 255.294 161.442C254.526 160.866 253.932 160.092 253.512 159.12C253.104 158.136 252.9 157.044 252.9 155.844C252.9 154.632 253.104 153.54 253.512 152.568C253.932 151.584 254.526 150.81 255.294 150.246C256.062 149.682 256.95 149.4 257.958 149.4C258.966 149.4 259.848 149.682 260.604 150.246C261.372 150.81 261.96 151.584 262.368 152.568C262.788 153.54 262.998 154.632 262.998 155.844C262.998 157.044 262.788 158.136 262.368 159.12C261.96 160.092 261.372 160.866 260.604 161.442C259.836 162.006 258.954 162.288 257.958 162.288ZM257.958 160.416C258.57 160.416 259.104 160.218 259.56 159.822C260.028 159.414 260.382 158.868 260.622 158.184C260.874 157.488 261 156.708 261 155.844C261 154.98 260.874 154.2 260.622 153.504C260.382 152.808 260.028 152.262 259.56 151.866C259.104 151.47 258.57 151.272 257.958 151.272C257.334 151.272 256.794 151.47 256.338 151.866C255.882 152.262 255.528 152.808 255.276 153.504C255.036 154.2 254.916 154.98 254.916 155.844C254.916 156.708 255.036 157.488 255.276 158.184C255.528 158.868 255.882 159.414 256.338 159.822C256.794 160.218 257.334 160.416 257.958 160.416ZM265.11 161.37L270.564 151.614L270.528 151.56H264.57V149.688H272.724V151.668L266.82 162.288L265.11 161.37ZM278.189 149.112H280.097L274.751 162H272.843L278.189 149.112ZM281.516 160.128C281.9 159.744 282.656 158.988 283.784 157.86C284.912 156.72 285.662 155.946 286.034 155.538C286.538 154.998 286.88 154.56 287.06 154.224C287.252 153.888 287.348 153.486 287.348 153.018C287.348 152.55 287.168 152.142 286.808 151.794C286.448 151.446 285.962 151.272 285.35 151.272C284.786 151.272 284.324 151.44 283.964 151.776C283.616 152.1 283.388 152.478 283.28 152.91L281.48 152.172C281.6 151.74 281.822 151.314 282.146 150.894C282.482 150.474 282.926 150.12 283.478 149.832C284.03 149.544 284.666 149.4 285.386 149.4C286.166 149.4 286.856 149.562 287.456 149.886C288.068 150.198 288.536 150.63 288.86 151.182C289.196 151.722 289.364 152.322 289.364 152.982C289.364 153.69 289.178 154.374 288.806 155.034C288.446 155.682 287.984 156.288 287.42 156.852C287.18 157.08 286.574 157.68 285.602 158.652C284.618 159.636 284.126 160.128 284.126 160.128L284.162 160.2H289.526V162H281.516V160.128ZM295.556 162.288C294.74 162.288 294.002 162.126 293.342 161.802C292.694 161.478 292.184 161.034 291.812 160.47C291.44 159.894 291.254 159.264 291.254 158.58C291.254 157.908 291.434 157.314 291.794 156.798C292.166 156.27 292.634 155.862 293.198 155.574V155.466C292.754 155.166 292.388 154.794 292.1 154.35C291.812 153.894 291.668 153.402 291.668 152.874C291.668 152.226 291.83 151.638 292.154 151.11C292.49 150.57 292.952 150.15 293.54 149.85C294.14 149.55 294.812 149.4 295.556 149.4C296.3 149.4 296.966 149.55 297.554 149.85C298.154 150.15 298.616 150.57 298.94 151.11C299.276 151.638 299.444 152.226 299.444 152.874C299.444 153.402 299.3 153.894 299.012 154.35C298.724 154.794 298.358 155.166 297.914 155.466V155.574C298.478 155.862 298.94 156.27 299.3 156.798C299.672 157.314 299.858 157.908 299.858 158.58C299.858 159.264 299.672 159.894 299.3 160.47C298.928 161.034 298.412 161.478 297.752 161.802C297.104 162.126 296.372 162.288 295.556 162.288ZM295.556 154.674C296.108 154.674 296.564 154.518 296.924 154.206C297.296 153.882 297.482 153.456 297.482 152.928C297.482 152.412 297.302 152.004 296.942 151.704C296.582 151.392 296.12 151.236 295.556 151.236C294.992 151.236 294.53 151.392 294.17 151.704C293.81 152.004 293.63 152.412 293.63 152.928C293.63 153.456 293.81 153.882 294.17 154.206C294.542 154.518 295.004 154.674 295.556 154.674ZM295.556 160.416C296.216 160.416 296.762 160.236 297.194 159.876C297.638 159.504 297.86 159.024 297.86 158.436C297.86 157.86 297.638 157.386 297.194 157.014C296.762 156.642 296.216 156.456 295.556 156.456C294.896 156.456 294.344 156.642 293.9 157.014C293.468 157.386 293.252 157.86 293.252 158.436C293.252 159.024 293.468 159.504 293.9 159.876C294.344 160.236 294.896 160.416 295.556 160.416Z" fill="white"/>
<circle cx="249" cy="42" r="20" fill="#EB001B" fill-opacity="0.75"/>
<circle cx="276" cy="42" r="20" fill="#F79E1B" fill-opacity="0.75"/>
<path d="M214.152 71.82H216.042V73.026H216.132C216.408 72.582 216.798 72.222 217.302 71.946C217.806 71.67 218.346 71.532 218.922 71.532C219.582 71.532 220.158 71.688 220.65 72C221.142 72.3 221.496 72.702 221.712 73.206C222.024 72.702 222.438 72.3 222.954 72C223.482 71.688 224.1 71.532 224.808 71.532C225.864 71.532 226.662 71.856 227.202 72.504C227.754 73.14 228.03 74.01 228.03 75.114V81H226.05V75.456C226.05 74.064 225.456 73.368 224.268 73.368C223.632 73.368 223.11 73.626 222.702 74.142C222.294 74.658 222.09 75.294 222.09 76.05V81H220.11V75.456C220.11 74.064 219.498 73.368 218.274 73.368C217.65 73.368 217.134 73.626 216.726 74.142C216.33 74.658 216.132 75.294 216.132 76.05V81H214.152V71.82ZM233.081 81.288C232.421 81.288 231.833 81.162 231.317 80.91C230.801 80.646 230.399 80.28 230.111 79.812C229.823 79.332 229.679 78.792 229.679 78.192C229.679 77.244 230.033 76.494 230.741 75.942C231.461 75.39 232.367 75.114 233.459 75.114C233.999 75.114 234.485 75.168 234.917 75.276C235.349 75.372 235.691 75.48 235.943 75.6V75.132C235.943 74.568 235.733 74.112 235.313 73.764C234.893 73.404 234.353 73.224 233.693 73.224C233.225 73.224 232.781 73.326 232.361 73.53C231.953 73.734 231.623 74.016 231.371 74.376L229.985 73.314C230.393 72.75 230.921 72.312 231.569 72C232.217 71.688 232.937 71.532 233.729 71.532C235.061 71.532 236.087 71.862 236.807 72.522C237.527 73.17 237.887 74.088 237.887 75.276V81H235.943V79.902H235.853C235.589 80.298 235.217 80.628 234.737 80.892C234.257 81.156 233.705 81.288 233.081 81.288ZM233.423 79.65C233.903 79.65 234.335 79.536 234.719 79.308C235.103 79.08 235.403 78.774 235.619 78.39C235.835 78.006 235.943 77.592 235.943 77.148C235.667 76.992 235.343 76.866 234.971 76.77C234.611 76.674 234.233 76.626 233.837 76.626C233.093 76.626 232.547 76.776 232.199 77.076C231.851 77.364 231.677 77.742 231.677 78.21C231.677 78.63 231.839 78.978 232.163 79.254C232.487 79.518 232.907 79.65 233.423 79.65ZM243.305 81.288C242.249 81.288 241.385 81.06 240.713 80.604C240.041 80.136 239.567 79.542 239.291 78.822L241.055 78.048C241.271 78.528 241.571 78.894 241.955 79.146C242.351 79.398 242.801 79.524 243.305 79.524C243.797 79.524 244.211 79.44 244.547 79.272C244.883 79.092 245.051 78.828 245.051 78.48C245.051 78.144 244.907 77.88 244.619 77.688C244.331 77.496 243.887 77.328 243.287 77.184L242.189 76.914C241.457 76.734 240.851 76.416 240.371 75.96C239.891 75.504 239.651 74.928 239.651 74.232C239.651 73.692 239.807 73.218 240.119 72.81C240.443 72.402 240.875 72.09 241.415 71.874C241.955 71.646 242.543 71.532 243.179 71.532C244.031 71.532 244.781 71.706 245.429 72.054C246.077 72.39 246.545 72.882 246.833 73.53L245.105 74.286C244.757 73.578 244.121 73.224 243.197 73.224C242.753 73.224 242.381 73.314 242.081 73.494C241.781 73.674 241.631 73.908 241.631 74.196C241.631 74.472 241.745 74.7 241.973 74.88C242.201 75.048 242.537 75.192 242.981 75.312L244.331 75.654C245.231 75.882 245.909 76.23 246.365 76.698C246.833 77.154 247.067 77.718 247.067 78.39C247.067 78.966 246.899 79.476 246.563 79.92C246.239 80.352 245.789 80.688 245.213 80.928C244.637 81.168 244.001 81.288 243.305 81.288ZM252.455 81.144C252.047 81.144 251.663 81.078 251.303 80.946C250.943 80.814 250.649 80.64 250.421 80.424C249.905 79.908 249.647 79.206 249.647 78.318V73.566H248.045V71.82H249.647V69.228H251.627V71.82H253.859V73.566H251.627V77.886C251.627 78.378 251.723 78.726 251.915 78.93C252.095 79.17 252.407 79.29 252.851 79.29C253.055 79.29 253.235 79.266 253.391 79.218C253.547 79.158 253.715 79.068 253.895 78.948V80.874C253.499 81.054 253.019 81.144 252.455 81.144ZM259.584 81.288C258.684 81.288 257.874 81.078 257.154 80.658C256.446 80.238 255.888 79.662 255.48 78.93C255.084 78.186 254.886 77.352 254.886 76.428C254.886 75.552 255.078 74.742 255.462 73.998C255.858 73.242 256.404 72.642 257.1 72.198C257.796 71.754 258.588 71.532 259.476 71.532C260.4 71.532 261.198 71.736 261.87 72.144C262.554 72.552 263.07 73.11 263.418 73.818C263.778 74.526 263.958 75.324 263.958 76.212C263.958 76.38 263.94 76.59 263.904 76.842H256.866C256.938 77.694 257.238 78.354 257.766 78.822C258.306 79.278 258.93 79.506 259.638 79.506C260.202 79.506 260.688 79.38 261.096 79.128C261.516 78.864 261.852 78.51 262.104 78.066L263.778 78.858C263.346 79.614 262.782 80.208 262.086 80.64C261.39 81.072 260.556 81.288 259.584 81.288ZM261.942 75.33C261.918 75.006 261.816 74.688 261.636 74.376C261.456 74.052 261.18 73.782 260.808 73.566C260.448 73.35 260.004 73.242 259.476 73.242C258.84 73.242 258.3 73.434 257.856 73.818C257.424 74.19 257.124 74.694 256.956 75.33H261.942ZM265.761 71.82H267.651V73.17H267.741C267.945 72.702 268.299 72.318 268.803 72.018C269.307 71.706 269.841 71.55 270.405 71.55C270.849 71.55 271.221 71.61 271.521 71.73V73.782C270.993 73.59 270.519 73.494 270.099 73.494C269.643 73.494 269.235 73.614 268.875 73.854C268.527 74.094 268.251 74.418 268.047 74.826C267.843 75.222 267.741 75.66 267.741 76.14V81H265.761V71.82ZM276.742 81.288C275.83 81.288 275.008 81.078 274.276 80.658C273.556 80.238 272.992 79.662 272.584 78.93C272.188 78.186 271.99 77.346 271.99 76.41C271.99 75.474 272.188 74.64 272.584 73.908C272.992 73.164 273.556 72.582 274.276 72.162C275.008 71.742 275.83 71.532 276.742 71.532C277.75 71.532 278.608 71.76 279.316 72.216C280.024 72.672 280.528 73.29 280.828 74.07L279.01 74.826C278.602 73.854 277.828 73.368 276.688 73.368C276.196 73.368 275.74 73.494 275.32 73.746C274.912 73.998 274.582 74.358 274.33 74.826C274.09 75.282 273.97 75.81 273.97 76.41C273.97 77.01 274.09 77.544 274.33 78.012C274.582 78.48 274.912 78.84 275.32 79.092C275.74 79.344 276.196 79.47 276.688 79.47C277.264 79.47 277.756 79.344 278.164 79.092C278.584 78.828 278.902 78.456 279.118 77.976L280.9 78.75C280.552 79.53 280.024 80.148 279.316 80.604C278.608 81.06 277.75 81.288 276.742 81.288ZM285.376 81.288C284.716 81.288 284.128 81.162 283.612 80.91C283.096 80.646 282.694 80.28 282.406 79.812C282.118 79.332 281.974 78.792 281.974 78.192C281.974 77.244 282.328 76.494 283.036 75.942C283.756 75.39 284.662 75.114 285.754 75.114C286.294 75.114 286.78 75.168 287.212 75.276C287.644 75.372 287.986 75.48 288.238 75.6V75.132C288.238 74.568 288.028 74.112 287.608 73.764C287.188 73.404 286.648 73.224 285.988 73.224C285.52 73.224 285.076 73.326 284.656 73.53C284.248 73.734 283.918 74.016 283.666 74.376L282.28 73.314C282.688 72.75 283.216 72.312 283.864 72C284.512 71.688 285.232 71.532 286.024 71.532C287.356 71.532 288.382 71.862 289.102 72.522C289.822 73.17 290.182 74.088 290.182 75.276V81H288.238V79.902H288.148C287.884 80.298 287.512 80.628 287.032 80.892C286.552 81.156 286 81.288 285.376 81.288ZM285.718 79.65C286.198 79.65 286.63 79.536 287.014 79.308C287.398 79.08 287.698 78.774 287.914 78.39C288.13 78.006 288.238 77.592 288.238 77.148C287.962 76.992 287.638 76.866 287.266 76.77C286.906 76.674 286.528 76.626 286.132 76.626C285.388 76.626 284.842 76.776 284.494 77.076C284.146 77.364 283.972 77.742 283.972 78.21C283.972 78.63 284.134 78.978 284.458 79.254C284.782 79.518 285.202 79.65 285.718 79.65ZM292.34 71.82H294.23V73.17H294.32C294.524 72.702 294.878 72.318 295.382 72.018C295.886 71.706 296.42 71.55 296.984 71.55C297.428 71.55 297.8 71.61 298.1 71.73V73.782C297.572 73.59 297.098 73.494 296.678 73.494C296.222 73.494 295.814 73.614 295.454 73.854C295.106 74.094 294.83 74.418 294.626 74.826C294.422 75.222 294.32 75.66 294.32 76.14V81H292.34V71.82ZM302.996 81.288C302.168 81.288 301.418 81.078 300.746 80.658C300.074 80.238 299.54 79.662 299.144 78.93C298.76 78.186 298.568 77.346 298.568 76.41C298.568 75.474 298.76 74.64 299.144 73.908C299.54 73.164 300.074 72.582 300.746 72.162C301.418 71.742 302.168 71.532 302.996 71.532C303.644 71.532 304.226 71.676 304.742 71.964C305.258 72.252 305.648 72.606 305.912 73.026H306.002L305.912 71.73V68.112H307.892V81H306.002V79.812H305.912C305.648 80.22 305.258 80.568 304.742 80.856C304.226 81.144 303.644 81.288 302.996 81.288ZM303.284 79.47C303.764 79.47 304.208 79.344 304.616 79.092C305.036 78.84 305.372 78.48 305.624 78.012C305.876 77.544 306.002 77.01 306.002 76.41C306.002 75.81 305.876 75.282 305.624 74.826C305.372 74.358 305.036 73.998 304.616 73.746C304.208 73.494 303.764 73.368 303.284 73.368C302.804 73.368 302.354 73.494 301.934 73.746C301.514 73.998 301.178 74.358 300.926 74.826C300.674 75.282 300.548 75.81 300.548 76.41C300.548 77.01 300.674 77.544 300.926 78.012C301.178 78.48 301.514 78.84 301.934 79.092C302.354 79.344 302.804 79.47 303.284 79.47Z" fill="white"/>
</g>
<defs>
<linearGradient id="paint0_linear_188_531" x1="166" y1="0" x2="166" y2="196" gradientUnits="userSpaceOnUse">
<stop stop-color="#8D007F"/>
<stop offset="1" stop-color="#B6002C"/>
</linearGradient>
<clipPath id="clip0_188_531">
<rect width="332" height="196" rx="25" fill="white"/>
</clipPath>
</defs>
</svg>
