<svg width="16" height="17" fill="none" xmlns="http://www.w3.org/2000/svg"><path d="M13.706 8.318c0 3.196-2.6 5.796-5.797 5.796a5.8 5.8 0 01-5.752-5.072.497.497 0 11.985-.123 4.805 4.805 0 009.57-.601 4.808 4.808 0 00-4.803-4.803 4.769 4.769 0 00-2.967 1.027h.625a.497.497 0 010 .994H3.694a.497.497 0 01-.497-.497V3.165a.497.497 0 01.993 0v.714a5.748 5.748 0 013.72-1.358c3.195 0 5.796 2.6 5.796 5.797zM7.949 5.17a.497.497 0 00-.497.497v.184A1.486 1.486 0 006.135 7.48c.08.776.791 1.335 1.57 1.335h.575a.497.497 0 010 .993H7.122a.497.497 0 000 .994h.33v.166a.497.497 0 00.994 0v-.189c.674-.106 1.247-.622 1.317-1.312A1.492 1.492 0 008.28 7.821h-.662a.497.497 0 010-.994H8.78a.497.497 0 000-.993h-.334v-.166a.497.497 0 00-.497-.497z" fill="#9390A0"/></svg>