<svg width="32" height="32" viewBox="0 0 32 32" fill="none" xmlns="http://www.w3.org/2000/svg">
    <path d="M16 0C12.8355 0 9.74207 0.938383 7.11088 2.69649C4.4797 4.45459 2.42894 6.95344 1.21793 9.87706C0.00693254 12.8007 -0.309921 16.0177 0.307443 19.1214C0.924806 22.2251 2.44866 25.0761 4.6863 27.3137C6.92394 29.5513 9.77486 31.0752 12.8786 31.6926C15.9823 32.3099 19.1993 31.9931 22.1229 30.7821C25.0466 29.5711 27.5454 27.5203 29.3035 24.8891C31.0616 22.2579 32 19.1645 32 16C32 13.8988 31.5861 11.8183 30.7821 9.87706C29.978 7.93585 28.7994 6.17203 27.3137 4.68629C25.828 3.20055 24.0641 2.022 22.1229 1.21793C20.1817 0.413852 18.1012 0 16 0ZM22.88 12.176L15.568 21.776C15.419 21.9696 15.2275 22.1265 15.0084 22.2347C14.7893 22.3429 14.5484 22.3994 14.304 22.4C14.061 22.4013 13.8208 22.3472 13.6018 22.2419C13.3828 22.1365 13.1907 21.9827 13.04 21.792L9.13601 16.816C9.00678 16.65 8.91152 16.4602 8.85566 16.2574C8.7998 16.0546 8.78443 15.8428 8.81043 15.634C8.83643 15.4253 8.90329 15.2237 9.0072 15.0408C9.1111 14.8579 9.25001 14.6972 9.41601 14.568C9.75124 14.307 10.1764 14.1899 10.598 14.2424C10.8067 14.2684 11.0083 14.3353 11.1912 14.4392C11.3741 14.5431 11.5348 14.682 11.664 14.848L14.272 18.176L20.32 10.176C20.4482 10.0079 20.6082 9.8667 20.7909 9.76046C20.9737 9.65421 21.1756 9.58499 21.385 9.55676C21.5945 9.52854 21.8075 9.54184 22.0119 9.59593C22.2162 9.65002 22.4079 9.74383 22.576 9.872C22.7441 10.0002 22.8853 10.1602 22.9915 10.3429C23.0978 10.5257 23.167 10.7275 23.1952 10.937C23.2235 11.1465 23.2102 11.3595 23.1561 11.5639C23.102 11.7682 23.0082 11.9599 22.88 12.128V12.176Z" fill="#009f52"/>
</svg>
