<svg width="30" height="160" fill="none" xmlns="http://www.w3.org/2000/svg"><circle cx="15" cy="15" r="14.5" stroke="url(#paint0_linear_387_730)" stroke-dasharray="2 2"/><path d="M13.27 10.214h2.436L19.612 20h-2.534l-.784-2.016h-3.612L11.898 20H9.35l3.92-9.786zm2.408 5.866l-1.19-3.29-1.204 3.29h2.394z" fill="url(#paint1_linear_387_730)"/><circle cx="15" cy="145" r="14.5" stroke="url(#paint2_linear_387_730)" stroke-dasharray="2 2"/><path d="M10.63 140.214h4.956c.943 0 1.685.233 2.226.7.55.467.826 1.134.826 2.002 0 .411-.093.793-.28 1.148a2.09 2.09 0 01-.798.84c.476.187.826.457 1.05.812.224.345.336.798.336 1.358 0 .597-.14 1.12-.42 1.568-.28.439-.658.775-1.134 1.008-.467.233-.99.35-1.568.35H10.63v-9.786zm4.41 3.878c.728 0 1.092-.341 1.092-1.022 0-.383-.093-.644-.28-.784-.187-.149-.471-.224-.854-.224h-1.89v2.03h1.932zm.154 4.06c.42 0 .733-.079.938-.238.205-.159.308-.439.308-.84 0-.401-.107-.691-.322-.868-.215-.187-.541-.28-.98-.28h-2.03v2.226h2.086z" fill="url(#paint3_linear_387_730)"/><path stroke="url(#paint4_linear_387_730)" stroke-dasharray="2 2" d="M14.5 34v92"/><defs><linearGradient id="paint0_linear_387_730" x1="15" y1="0" x2="15" y2="30" gradientUnits="userSpaceOnUse"><stop stop-color="#001F50"/><stop offset="1" stop-color="#0047B6"/></linearGradient><linearGradient id="paint1_linear_387_730" x1="14.5" y1="5" x2="14.5" y2="24" gradientUnits="userSpaceOnUse"><stop stop-color="#001F50"/><stop offset="1" stop-color="#0047B6"/></linearGradient><linearGradient id="paint2_linear_387_730" x1="15" y1="130" x2="15" y2="160" gradientUnits="userSpaceOnUse"><stop stop-color="#001F50"/><stop offset="1" stop-color="#0047B6"/></linearGradient><linearGradient id="paint3_linear_387_730" x1="15.5" y1="135" x2="15.5" y2="154" gradientUnits="userSpaceOnUse"><stop stop-color="#001F50"/><stop offset="1" stop-color="#0047B6"/></linearGradient><linearGradient id="paint4_linear_387_730" x1="13.5" y1="34" x2="13.5" y2="126" gradientUnits="userSpaceOnUse"><stop stop-color="#001F50"/><stop offset="1" stop-color="#0047B6"/></linearGradient></defs></svg>