<svg width="28" height="28" viewBox="0 0 28 28" fill="none" xmlns="http://www.w3.org/2000/svg">
<path d="M14.0002 2.33325C11.6927 2.33325 9.43709 3.01749 7.51852 4.29944C5.59994 5.58139 4.1046 7.40347 3.22157 9.53528C2.33855 11.6671 2.10751 14.0129 2.55767 16.276C3.00783 18.5391 4.11898 20.6179 5.75059 22.2495C7.3822 23.8811 9.461 24.9923 11.7241 25.4424C13.9872 25.8926 16.333 25.6615 18.4648 24.7785C20.5966 23.8955 22.4187 22.4001 23.7006 20.4816C24.9826 18.563 25.6668 16.3074 25.6668 13.9999C25.6668 12.4678 25.3651 10.9507 24.7788 9.53528C24.1925 8.11981 23.3331 6.83369 22.2497 5.75034C21.1664 4.66699 19.8803 3.80763 18.4648 3.22132C17.0493 2.63502 15.5323 2.33325 14.0002 2.33325ZM14.0002 23.3333C12.1542 23.3333 10.3497 22.7859 8.81485 21.7603C7.27999 20.7347 6.08371 19.2771 5.37729 17.5716C4.67087 15.8662 4.48604 13.9896 4.84617 12.1791C5.2063 10.3686 6.09521 8.70555 7.4005 7.40026C8.70579 6.09497 10.3688 5.20605 12.1793 4.84592C13.9898 4.48579 15.8664 4.67063 17.5719 5.37704C19.2773 6.08346 20.735 7.27974 21.7605 8.8146C22.7861 10.3495 23.3335 12.154 23.3335 13.9999C23.3335 16.4753 22.3502 18.8492 20.5998 20.5996C18.8495 22.3499 16.4755 23.3333 14.0002 23.3333Z" fill="white"/>
<path d="M17.5002 12.8333H15.1668V10.4999C15.1668 10.1905 15.0439 9.89375 14.8251 9.67496C14.6063 9.45617 14.3096 9.33325 14.0002 9.33325C13.6907 9.33325 13.394 9.45617 13.1752 9.67496C12.9564 9.89375 12.8335 10.1905 12.8335 10.4999V12.8333H10.5002C10.1907 12.8333 9.894 12.9562 9.67521 13.175C9.45641 13.3938 9.3335 13.6905 9.3335 13.9999C9.3335 14.3093 9.45641 14.6061 9.67521 14.8249C9.894 15.0437 10.1907 15.1666 10.5002 15.1666H12.8335V17.4999C12.8335 17.8093 12.9564 18.1061 13.1752 18.3249C13.394 18.5437 13.6907 18.6666 14.0002 18.6666C14.3096 18.6666 14.6063 18.5437 14.8251 18.3249C15.0439 18.1061 15.1668 17.8093 15.1668 17.4999V15.1666H17.5002C17.8096 15.1666 18.1063 15.0437 18.3251 14.8249C18.5439 14.6061 18.6668 14.3093 18.6668 13.9999C18.6668 13.6905 18.5439 13.3938 18.3251 13.175C18.1063 12.9562 17.8096 12.8333 17.5002 12.8333Z" fill="white"/>
</svg>
