<svg width="261" height="261" fill="none" xmlns="http://www.w3.org/2000/svg"><path fill-rule="evenodd" clip-rule="evenodd" d="M130.5 0C58.428 0 0 58.428 0 130.5 0 202.573 58.427 261 130.5 261c72.073 0 130.5-58.427 130.5-130.5C261 58.428 202.573 0 130.5 0zm26.496 176.571c-3.823 3.822-10.019 3.822-13.841 0l-39.15-39.151a9.784 9.784 0 010-13.84l39.15-39.15c3.822-3.823 10.018-3.823 13.841 0 3.822 3.822 3.822 10.018 0 13.84l-32.229 32.23 32.229 32.229c3.822 3.822 3.822 10.02 0 13.842z" fill="url(#paint0_linear_1057_1944)"/><defs><linearGradient id="paint0_linear_1057_1944" x1="130.5" y1="261" x2="130.5" y2="0" gradientUnits="userSpaceOnUse"><stop stop-color="#024EC9"/><stop offset="1" stop-color="#0061FF"/></linearGradient></defs></svg>