<svg width="64" height="64" fill="none" xmlns="http://www.w3.org/2000/svg"><circle cx="32" cy="32" r="32" fill="#024EC9"/><path d="M36.298 25.065c0 .261-.018.522-.051.78.015-.103.03-.21.042-.314a5.982 5.982 0 01-.415 1.499c.04-.095.082-.19.121-.285a5.897 5.897 0 01-.783 1.311l.191-.24a6.11 6.11 0 01-1.09 1.066l.246-.188a6.216 6.216 0 01-1.341.766c.097-.038.194-.08.291-.119a6.338 6.338 0 01-1.532.407c.106-.015.215-.03.321-.042a6.254 6.254 0 01-1.596 0c.106.015.215.03.321.042a6.338 6.338 0 01-1.532-.407l.291.12a6.092 6.092 0 01-1.341-.766l.245.186a6.107 6.107 0 01-1.09-1.065l.192.24a6.013 6.013 0 01-.783-1.311c.04.095.082.19.121.285a5.986 5.986 0 01-.416-1.499c.016.104.03.21.043.315a5.845 5.845 0 010-1.561c-.015.104-.03.21-.043.314a5.986 5.986 0 01.416-1.498l-.121.284a5.85 5.85 0 01.783-1.311l-.191.24a6.107 6.107 0 011.09-1.065l-.247.187a6.215 6.215 0 011.342-.766l-.291.119a6.338 6.338 0 011.532-.407c-.106.015-.215.03-.321.042a6.254 6.254 0 011.596 0c-.106-.015-.215-.03-.322-.042a6.338 6.338 0 011.533.407l-.291-.119c.48.199.929.454 1.341.766l-.245-.187a6.11 6.11 0 011.09 1.065l-.192-.24c.316.403.58.842.783 1.311-.04-.095-.082-.19-.121-.285.203.481.343.983.415 1.5a11.69 11.69 0 01-.042-.315c.033.258.048.519.051.78.004.62.556 1.217 1.215 1.187.655-.03 1.217-.522 1.214-1.187-.006-1.421-.444-2.876-1.3-4.033a8.177 8.177 0 00-.75-.893 7.686 7.686 0 00-.894-.754c-.574-.427-1.215-.742-1.894-.985-2.741-.982-6.046-.107-7.9 2.1a7.817 7.817 0 00-.705.956 7.224 7.224 0 00-.516 1.054c-.28.67-.422 1.383-.48 2.104-.112 1.413.264 2.887 1.017 4.098.726 1.17 1.821 2.173 3.102 2.74.377.166.762.32 1.163.43a8.33 8.33 0 001.21.213c.747.087 1.51.027 2.247-.118 2.801-.558 5.147-2.918 5.581-5.686a7.77 7.77 0 00.113-1.217c.003-.62-.562-1.217-1.214-1.187-.656.02-1.209.513-1.209 1.178zm4.028 18.557H24.753c-.69 0-1.378.006-2.067 0a1.86 1.86 0 01-.225-.015c.107.015.216.03.322.041a1.554 1.554 0 01-.349-.095l.291.12a1.55 1.55 0 01-.34-.197l.246.187a1.732 1.732 0 01-.249-.243l.192.24a1.62 1.62 0 01-.2-.332l.12.285a1.683 1.683 0 01-.096-.342c.015.104.03.211.042.315-.049-.36-.015-.739-.015-1.101v-1.27c0-.318.018-.632.06-.947-.015.104-.03.21-.042.315a6.815 6.815 0 01.495-1.772l-.122.285c.237-.54.54-1.048.908-1.513l-.191.24a7.12 7.12 0 011.262-1.235l-.246.187a7.222 7.222 0 011.548-.887l-.291.119a7.32 7.32 0 011.812-.484c-.106.015-.215.03-.322.041.45-.056.896-.059 1.348-.059h5.554c.501 0 .999-.003 1.5.06-.107-.015-.216-.03-.322-.042a7.225 7.225 0 011.812.484l-.291-.119a7.176 7.176 0 011.547.887l-.245-.187c.47.36.895.772 1.262 1.235l-.191-.24c.367.465.67.973.907 1.513l-.12-.285c.242.567.409 1.16.494 1.772-.015-.104-.03-.21-.043-.315.058.448.061.893.061 1.344v1.47c0 .169.006.338-.015.504.015-.104.03-.21.042-.315a1.468 1.468 0 01-.097.342l.122-.285a1.5 1.5 0 01-.2.332l.19-.24a1.675 1.675 0 01-.248.243l.245-.187a1.68 1.68 0 01-.34.196c.098-.038.195-.08.292-.119-.112.045-.23.075-.35.095.107-.015.216-.03.323-.041a2.303 2.303 0 01-.207.015c-.312.003-.634.13-.859.347-.21.205-.37.543-.355.84.03.635.534 1.196 1.214 1.187 1.18-.018 2.219-.772 2.565-1.879.137-.439.106-.91.106-1.362 0-1.033.034-2.056-.149-3.08-.267-1.499-1.038-2.909-2.094-4.015a8.242 8.242 0 00-3.979-2.283c-.862-.207-1.73-.24-2.61-.24H28.78c-.902 0-1.797.042-2.674.27-1.49.386-2.893 1.208-3.928 2.324-1.044 1.124-1.8 2.537-2.046 4.045-.164 1.011-.13 2.026-.13 3.047 0 .47-.027.959.145 1.407a2.79 2.79 0 001.108 1.371c.41.264.93.392 1.415.398.236.003.473 0 .71 0h16.948c.635 0 1.245-.546 1.214-1.187-.03-.647-.534-1.19-1.217-1.19z" fill="#fff"/></svg>