<svg width="32" height="32" viewBox="0 0 427 427" fill="none" xmlns="http://www.w3.org/2000/svg">
    <path fill-rule="evenodd" clip-rule="evenodd" d="M213.333 426.667C331.157 426.667 426.667 331.157 426.667 213.333C426.667 95.5093 331.157 0 213.333 0C95.5093 0 0 95.5093 0 213.333C0 331.157 95.5093 426.667 213.333 426.667ZM277.333 170.667C277.333 187.641 270.59 203.919 258.588 215.921C246.586 227.924 230.307 234.667 213.333 234.667C196.359 234.667 180.081 227.924 168.078 215.921C156.076 203.919 149.333 187.641 149.333 170.667C149.333 153.693 156.076 137.414 168.078 125.412C180.081 113.409 196.359 106.667 213.333 106.667C230.307 106.667 246.586 113.409 258.588 125.412C270.59 137.414 277.333 153.693 277.333 170.667ZM85.3333 320C100.224 300.115 119.547 283.977 141.767 272.867C163.986 261.757 188.491 255.982 213.333 256C238.176 255.982 262.68 261.757 284.9 272.867C307.12 283.977 326.442 300.115 341.333 320C326.442 339.885 307.12 356.023 284.9 367.133C262.68 378.243 238.176 384.018 213.333 384C188.491 384.018 163.986 378.243 141.767 367.133C119.547 356.023 100.224 339.885 85.3333 320Z" fill="#024EC9"/>
</svg>
