<svg width="13" height="42" fill="none" xmlns="http://www.w3.org/2000/svg"><path d="M6.423 12.305c-.262 0-.52-.017-.773-.05l-.065.496a6.393 6.393 0 01-1.617-.43l.19-.463a5.925 5.925 0 01-1.338-.77l-.303.397a6.452 6.452 0 01-1.187-1.18l.396-.307A5.891 5.891 0 01.95 8.664l-.461.193A6.343 6.343 0 01.054 7.24l.496-.065a5.942 5.942 0 010-1.545l-.496-.065A6.343 6.343 0 01.49 3.948l.461.193c.2-.48.462-.928.776-1.335l-.396-.305A6.45 6.45 0 012.517 1.32l.303.397a5.921 5.921 0 011.338-.77l-.19-.463a6.395 6.395 0 011.617-.43L5.65.55a6.004 6.004 0 011.546 0l.065-.496c.565.073 1.108.22 1.617.43l-.19.463c.48.198.93.458 1.337.77l.304-.397c.445.34.845.738 1.187 1.18l-.396.306c.314.407.576.855.776 1.335l.461-.193c.212.51.36 1.052.434 1.617l-.495.065a5.927 5.927 0 010 1.545l.495.065a6.342 6.342 0 01-.434 1.617l-.461-.193c-.2.48-.462.928-.776 1.334l.396.306c-.342.443-.742.84-1.187 1.181l-.304-.397a5.924 5.924 0 01-1.338.77l.191.462c-.51.21-1.052.357-1.617.43l-.065-.495c-.253.033-.51.05-.773.05zM6.577 41.5c-.262 0-.52-.017-.773-.05l-.065.496a6.401 6.401 0 01-1.617-.43l.19-.463a5.922 5.922 0 01-1.338-.77l-.303.397a6.453 6.453 0 01-1.187-1.18l.396-.306a5.892 5.892 0 01-.776-1.335l-.461.193a6.342 6.342 0 01-.434-1.617l.495-.065a5.941 5.941 0 010-1.545L.21 34.76a6.343 6.343 0 01.434-1.616l.461.192c.2-.48.462-.928.776-1.334l-.396-.306c.342-.443.742-.84 1.187-1.181l.303.397a5.921 5.921 0 011.338-.77l-.19-.462a6.393 6.393 0 011.617-.43l.065.495a6.008 6.008 0 011.546 0l.065-.496c.565.074 1.108.22 1.617.43l-.19.463c.48.198.93.458 1.338.77l.303-.397c.445.34.845.738 1.187 1.181l-.396.305c.314.407.576.855.776 1.335l.461-.192c.212.509.36 1.05.434 1.616l-.495.065a5.945 5.945 0 010 1.545l.495.065a6.342 6.342 0 01-.434 1.617l-.461-.193c-.2.48-.462.928-.776 1.335l.396.305c-.342.443-.742.84-1.187 1.181l-.303-.397a5.926 5.926 0 01-1.338.77l.19.463c-.51.21-1.052.357-1.617.43l-.065-.496c-.253.033-.51.05-.773.05z" fill="#fff" stroke="#5F35E6" stroke-dasharray="2 2"/><path d="M6.526 13.573v14.905" stroke="#5F35E6" stroke-dasharray="2 2"/><path d="M5.981 3.988h1.085L8.949 9H7.906l-.42-1.197H5.568L5.148 9H4.105l1.876-5.012zm1.197 2.947l-.441-1.26-.182-.602h-.056l-.182.602-.448 1.26h1.309zM4.574 32.988h1.96c.28 0 .537.058.77.175.238.117.425.275.56.476.135.2.203.42.203.658 0 .252-.063.471-.189.658a1.205 1.205 0 01-.483.42v.056c.261.093.469.243.623.448.154.2.231.443.231.728 0 .275-.075.52-.224.735-.145.21-.343.373-.595.49a1.98 1.98 0 01-.826.168h-2.03v-5.012zm1.89 2.044c.205 0 .369-.056.49-.168a.568.568 0 00.189-.434.548.548 0 00-.182-.42.634.634 0 00-.469-.175h-.973v1.197h.945zm.105 2.107c.229 0 .406-.058.532-.175a.611.611 0 00.196-.469.611.611 0 00-.196-.469c-.13-.121-.317-.182-.56-.182H5.519v1.295h1.05z" fill="#5F35E6"/></svg>