<svg width="28" height="81" fill="none" xmlns="http://www.w3.org/2000/svg"><circle cx="15.5" cy="11.89" r="11.89" fill="#E9ECEF"/><g filter="url(#filter0_d_391_2886)"><circle cx="15.764" cy="11.626" r="7.927" fill="#212529"/></g><path d="M15.764 13.212a1.585 1.585 0 100-3.17 1.585 1.585 0 000 3.17zm.265-5.549a.264.264 0 10-.529 0v.803a3.171 3.171 0 00-2.896 2.896h-.803a.265.265 0 000 .529h.803a3.172 3.172 0 002.896 2.896v.803a.264.264 0 00.529 0v-.803a3.172 3.172 0 002.895-2.896h.804a.264.264 0 100-.529h-.804a3.171 3.171 0 00-2.895-2.896v-.803zm-.265 6.606a2.642 2.642 0 110-5.284 2.642 2.642 0 010 5.284z" fill="#07AFF0"/><path stroke="#212529" stroke-width=".528" stroke-dasharray="2.64 2.64" d="M15.236 24.044h.528v29.593h-.528z"/><circle cx="15.5" cy="65.793" r="11.89" fill="#E9ECEF"/><g filter="url(#filter1_d_391_2886)"><circle cx="15.764" cy="65.529" r="7.927" fill="#212529"/></g><mask id="a" style="mask-type:alpha" maskUnits="userSpaceOnUse" x="10" y="60" width="12" height="11"><path fill="#D9D9D9" d="M10.48 60.243h10.569v10.569H10.48z"/></mask><g mask="url(#a)"><path d="M15.765 65.527c.242 0 .45-.086.622-.258a.848.848 0 00.258-.622.848.848 0 00-.258-.623.849.849 0 00-.622-.258.848.848 0 00-.622.259.848.848 0 00-.259.622c0 .242.086.45.259.622.172.172.38.258.622.258zm0 4.404c-1.182-1.005-2.065-1.94-2.648-2.802-.584-.862-.875-1.66-.875-2.394 0-1.101.354-1.978 1.062-2.632.708-.653 1.529-.98 2.46-.98.933 0 1.753.327 2.461.98.709.654 1.063 1.53 1.063 2.632 0 .734-.292 1.532-.875 2.394-.584.863-1.467 1.797-2.648 2.802z" fill="#07AFF0"/></g><defs><filter id="filter0_d_391_2886" x=".439" y=".528" width="26.423" height="26.423" filterUnits="userSpaceOnUse" color-interpolation-filters="sRGB"><feFlood flood-opacity="0" result="BackgroundImageFix"/><feColorMatrix in="SourceAlpha" values="0 0 0 0 0 0 0 0 0 0 0 0 0 0 0 0 0 0 127 0" result="hardAlpha"/><feOffset dx="-2.114" dy="2.114"/><feGaussianBlur stdDeviation="2.642"/><feComposite in2="hardAlpha" operator="out"/><feColorMatrix values="0 0 0 0 0 0 0 0 0 0 0 0 0 0 0 0 0 0 0.25 0"/><feBlend in2="BackgroundImageFix" result="effect1_dropShadow_391_2886"/><feBlend in="SourceGraphic" in2="effect1_dropShadow_391_2886" result="shape"/></filter><filter id="filter1_d_391_2886" x=".439" y="54.431" width="26.423" height="26.423" filterUnits="userSpaceOnUse" color-interpolation-filters="sRGB"><feFlood flood-opacity="0" result="BackgroundImageFix"/><feColorMatrix in="SourceAlpha" values="0 0 0 0 0 0 0 0 0 0 0 0 0 0 0 0 0 0 127 0" result="hardAlpha"/><feOffset dx="-2.114" dy="2.114"/><feGaussianBlur stdDeviation="2.642"/><feComposite in2="hardAlpha" operator="out"/><feColorMatrix values="0 0 0 0 0 0 0 0 0 0 0 0 0 0 0 0 0 0 0.25 0"/><feBlend in2="BackgroundImageFix" result="effect1_dropShadow_391_2886"/><feBlend in="SourceGraphic" in2="effect1_dropShadow_391_2886" result="shape"/></filter></defs></svg>