<svg width="710" height="19" fill="none" xmlns="http://www.w3.org/2000/svg"><path stroke="#707070" d="M0 9.5h291m128 0h291"/><path d="M303.18 14.24c-1.03 0-1.965-.25-2.805-.75a5.42 5.42 0 01-1.98-2.025 5.718 5.718 0 01-.72-2.835c0-1.02.24-1.96.72-2.82a5.388 5.388 0 014.785-2.79 5.388 5.388 0 014.785 2.79c.49.86.735 1.8.735 2.82 0 1.03-.24 1.975-.72 2.835a5.385 5.385 0 01-1.995 2.025c-.84.5-1.775.75-2.805.75zm0-1.215a4.15 4.15 0 002.115-.555c.65-.38 1.16-.9 1.53-1.56.38-.67.57-1.43.57-2.28 0-.85-.19-1.605-.57-2.265-.37-.67-.88-1.19-1.53-1.56a4.066 4.066 0 00-2.115-.57c-.77 0-1.475.19-2.115.57-.64.37-1.15.89-1.53 1.56-.38.67-.57 1.425-.57 2.265 0 .84.19 1.595.57 2.265.38.67.89 1.195 1.53 1.575a4.15 4.15 0 002.115.555zm7.143-6.675h1.215v1.23h.06c.15-.42.44-.765.87-1.035.43-.28.88-.42 1.35-.42.35 0 .65.05.9.15v1.38c-.32-.16-.68-.24-1.08-.24-.37 0-.71.105-1.02.315-.31.21-.56.495-.75.855-.18.35-.27.73-.27 1.14V14h-1.275V6.35zm14.113 7.89c-1.04 0-1.985-.245-2.835-.735a5.386 5.386 0 01-2.01-2.01c-.48-.86-.72-1.815-.72-2.865 0-1.05.24-2 .72-2.85a5.354 5.354 0 012.01-2.025c.85-.49 1.795-.735 2.835-.735.8 0 1.53.155 2.19.465.67.3 1.25.73 1.74 1.29l-.915.885c-.41-.49-.86-.85-1.35-1.08-.48-.23-1.035-.345-1.665-.345a4.26 4.26 0 00-2.145.555 4.06 4.06 0 00-1.56 1.545c-.38.66-.57 1.425-.57 2.295 0 .87.19 1.64.57 2.31.39.66.91 1.175 1.56 1.545.65.36 1.365.54 2.145.54 1.3 0 2.405-.535 3.315-1.605l.93.9c-.5.59-1.115 1.06-1.845 1.41-.73.34-1.53.51-2.4.51zm9.055 0c-.75 0-1.425-.18-2.025-.54-.6-.36-1.07-.85-1.41-1.47a4.305 4.305 0 01-.495-2.055c0-.75.165-1.435.495-2.055.34-.62.81-1.11 1.41-1.47.6-.36 1.275-.54 2.025-.54s1.425.18 2.025.54c.6.36 1.065.85 1.395 1.47.34.62.51 1.305.51 2.055 0 .75-.17 1.435-.51 2.055-.33.62-.795 1.11-1.395 1.47-.6.36-1.275.54-2.025.54zm0-1.155c.47 0 .905-.115 1.305-.345.41-.24.735-.58.975-1.02.25-.44.375-.955.375-1.545s-.125-1.105-.375-1.545a2.486 2.486 0 00-.975-1.005 2.49 2.49 0 00-1.305-.36c-.47 0-.91.12-1.32.36-.41.23-.74.565-.99 1.005-.24.44-.36.955-.36 1.545s.12 1.105.36 1.545c.25.44.58.78.99 1.02.41.23.85.345 1.32.345zm5.265-6.735h1.215v1.125h.06c.21-.38.545-.7 1.005-.96.46-.27.95-.405 1.47-.405.92 0 1.62.27 2.1.81.49.53.735 1.255.735 2.175V14h-1.275V9.29c0-.71-.17-1.225-.51-1.545-.34-.32-.805-.48-1.395-.48-.41 0-.78.115-1.11.345-.32.23-.57.535-.75.915-.18.37-.27.76-.27 1.17V14h-1.275V6.35zm10.967 7.77c-.31 0-.6-.05-.87-.15-.26-.1-.48-.235-.66-.405-.2-.19-.35-.41-.45-.66-.1-.25-.15-.555-.15-.915V7.505h-1.335V6.35h1.335V4.19h1.275v2.16h1.86v1.155h-1.86v4.17c0 .42.08.73.24.93.19.22.465.33.825.33.29 0 .57-.085.84-.255v1.245c-.15.07-.305.12-.465.15-.15.03-.345.045-.585.045zm3.376-9.18a.88.88 0 01-.645-.27.88.88 0 01-.27-.645c0-.25.09-.46.27-.63a.88.88 0 01.645-.27c.25 0 .465.09.645.27.18.17.27.38.27.63a.88.88 0 01-.27.645.85.85 0 01-.645.27zm-.63 1.41h1.26V14h-1.26V6.35zm3.264 0h1.215v1.125h.06c.21-.38.545-.7 1.005-.96.46-.27.95-.405 1.47-.405.92 0 1.62.27 2.1.81.49.53.735 1.255.735 2.175V14h-1.275V9.29c0-.71-.17-1.225-.51-1.545-.34-.32-.805-.48-1.395-.48-.41 0-.78.115-1.11.345-.32.23-.57.535-.75.915-.18.37-.27.76-.27 1.17V14h-1.275V6.35zm11.183 7.89c-.92 0-1.625-.27-2.115-.81-.48-.54-.72-1.295-.72-2.265V6.35h1.275v4.62c0 .73.165 1.265.495 1.605.33.34.775.51 1.335.51.43 0 .81-.115 1.14-.345.34-.23.6-.53.78-.9.19-.37.285-.76.285-1.17V6.35h1.275V14h-1.215v-1.11h-.06c-.21.38-.545.7-1.005.96-.46.26-.95.39-1.47.39zm8.965 0c-.73 0-1.385-.175-1.965-.525a3.71 3.71 0 01-1.365-1.44c-.32-.62-.48-1.315-.48-2.085 0-.74.15-1.42.45-2.04.31-.62.745-1.115 1.305-1.485.56-.37 1.21-.555 1.95-.555.75 0 1.4.17 1.95.51.55.33.97.79 1.26 1.38.3.59.45 1.265.45 2.025 0 .15-.015.28-.045.39h-6.045c.03.58.17 1.07.42 1.47.25.4.565.7.945.9.39.2.795.3 1.215.3.98 0 1.735-.46 2.265-1.38l1.08.525c-.33.62-.78 1.11-1.35 1.47-.56.36-1.24.54-2.04.54zm2.205-4.875c-.02-.32-.11-.64-.27-.96-.16-.32-.415-.59-.765-.81-.34-.22-.77-.33-1.29-.33-.6 0-1.11.195-1.53.585-.41.38-.68.885-.81 1.515h4.665zm5.489-3.015h1.305l1.83 6.045h.015l1.92-6.045h1.32l1.935 6.03h.015l1.815-6.03h1.29L392.545 14h-1.29l-1.98-6.105L387.31 14h-1.275l-2.46-7.65zm13.25-1.41a.88.88 0 01-.645-.27.88.88 0 01-.27-.645c0-.25.09-.46.27-.63a.88.88 0 01.645-.27c.25 0 .465.09.645.27.18.17.27.38.27.63a.88.88 0 01-.27.645.85.85 0 01-.645.27zm-.63 1.41h1.26V14h-1.26V6.35zm6.13 7.77c-.31 0-.6-.05-.87-.15-.26-.1-.48-.235-.66-.405-.2-.19-.35-.41-.45-.66-.1-.25-.15-.555-.15-.915V7.505h-1.335V6.35h1.335V4.19h1.275v2.16h1.86v1.155h-1.86v4.17c0 .42.08.73.24.93.19.22.465.33.825.33.29 0 .57-.085.84-.255v1.245c-.15.07-.305.12-.465.15-.15.03-.345.045-.585.045zm2.627-10.86h1.275v3.165l-.06 1.05h.06c.21-.39.54-.715.99-.975.46-.26.96-.39 1.5-.39.93 0 1.64.275 2.13.825.49.54.735 1.26.735 2.16V14h-1.275V9.29c0-.69-.175-1.2-.525-1.53-.35-.33-.805-.495-1.365-.495-.4 0-.77.12-1.11.36a2.618 2.618 0 00-1.08 2.115V14h-1.275V3.26z" fill="#707070"/></svg>