<svg width="13" height="12" viewBox="0 0 13 22" fill="none" xmlns="http://www.w3.org/2000/svg"><path d="M8.667 9.9H7.583V5.5H9.75c.287 0 .563.116.766.322.203.206.317.486.317.778 0 .292.114.572.318.778a1.075 1.075 0 001.532 0c.203-.206.317-.486.317-.778 0-.875-.342-1.715-.952-2.333A3.225 3.225 0 009.75 3.3H7.583V1.1c0-.292-.114-.572-.317-.778a1.075 1.075 0 00-1.532 0 1.109 1.109 0 00-.317.778v2.2H4.333A4.3 4.3 0 001.27 4.589 4.435 4.435 0 000 7.7c0 1.167.457 2.286 1.27 3.111A4.3 4.3 0 004.332 12.1h1.084v4.4H3.25c-.287 0-.563-.116-.766-.322a1.109 1.109 0 01-.317-.778c0-.292-.114-.572-.318-.778a1.075 1.075 0 00-1.532 0A1.109 1.109 0 000 15.4c0 .875.342 1.715.952 2.333.61.62 1.436.967 2.298.967h2.167v2.2c0 .292.114.572.317.778a1.075 1.075 0 001.532 0 1.11 1.11 0 00.317-.778v-2.2h1.084a4.3 4.3 0 003.064-1.289A4.434 4.434 0 0013 14.3a4.434 4.434 0 00-1.27-3.111A4.3 4.3 0 008.668 9.9zm-3.25 0H4.333a2.15 2.15 0 01-1.532-.644A2.217 2.217 0 012.167 7.7c0-.583.228-1.143.634-1.556A2.15 2.15 0 014.333 5.5h1.084v4.4zm3.25 6.6H7.583v-4.4h1.084a2.15 2.15 0 011.532.644c.406.413.634.973.634 1.556a2.22 2.22 0 01-.634 1.556 2.15 2.15 0 01-1.532.644z" fill="#696969"/></svg>