<svg width="92" height="89" fill="none" xmlns="http://www.w3.org/2000/svg"><path fill-rule="evenodd" clip-rule="evenodd" d="M45.977 0l-.028.006a1.437 1.437 0 00-.219.028 1.434 1.434 0 00-.066.012 1.448 1.448 0 00-.17.055l-.057.028-.072.035L23.507 9.55a1.436 1.436 0 00-1.181 1.32v.012a1.442 1.442 0 000 .276v27.595l-21.1 9.065a1.437 1.437 0 00-.971.658 3.1 3.1 0 00-.012.011 1.435 1.435 0 00-.207 1.12v28.352a1.43 1.43 0 00.006.141 1.435 1.435 0 00.888 1.217l21.962 9.43c.247.17.541.258.841.253.3.007.594-.08.842-.247L46 79.553l21.42 9.194c.247.17.541.258.841.253.3.007.594-.08.842-.247l21.968-9.436a1.436 1.436 0 00.893-1.424V49.601a1.435 1.435 0 00-.241-1.166 1.434 1.434 0 00-.936-.611l-21.06-9.048V11.129a1.435 1.435 0 00-.007-.287 1.435 1.435 0 00-1.177-1.289L46.667.153a1.437 1.437 0 00-.471-.144 1.437 1.437 0 00-.078-.003 1.435 1.435 0 00-.14-.006zm.046 3.006L49.48 4.49l-18.636 8.003-3.447-1.481 18.627-8.006zm7.092 3.042l4.452 1.912-19.136 8.227a1.436 1.436 0 00-.87 1.731v8.422l-1.178-1.77a1.436 1.436 0 00-1.838-.489l-1.729.867V14.772l20.3-8.724zm8.089 3.477l3.45 1.48-18.63 8.007-3.456-1.481 18.636-8.006zm-36.006 3.668l4.746 2.036v12.047a1.436 1.436 0 002.082 1.284l2.671-1.347 3.016 4.547a1.436 1.436 0 002.706-.413l.006-.023a1.27 1.27 0 00.012-.124v-.023a1.433 1.433 0 000-.14V19.738l4.15 1.788v25.577L25.198 38.78V13.193zm41.656 0v25.56l-19.395 8.33v-25.56l19.395-8.33zM23.734 41.27l3.455 1.487-18.636 8.006-3.45-1.486 18.63-8.007zm44.556.012l3.427 1.475-18.636 8.006-3.43-1.475 18.639-8.006zm-37.459 3.037l4.45 1.912-19.14 8.221a1.436 1.436 0 00-.86 1.435 1.32 1.32 0 000 .09v8.64l-1.179-1.78a1.437 1.437 0 00-1.84-.488l-1.736.87v-10.18l20.305-8.72zm44.528 0l4.452 1.912-19.141 8.221a1.436 1.436 0 00-.868 1.401 1.494 1.494 0 000 .123v8.635l-1.178-1.771a1.436 1.436 0 00-1.84-.488l-1.73.867v-10.18l20.305-8.72zm-36.445 3.473l3.456 1.484-18.63 8.01-3.45-1.488 18.624-8.006zm44.528 0l3.455 1.484-18.63 8.01-3.455-1.488 18.63-8.006zM2.909 51.455l4.745 2.038v12.051a1.434 1.434 0 002.082 1.277l2.677-1.337 3.103 4.679a1.436 1.436 0 002.636-.795V58.003l4.151 1.783v25.582L2.91 77.041V51.455zm44.528 0l4.745 2.038v12.051a1.434 1.434 0 001.376 1.43c.244.01.487-.043.706-.153l2.671-1.337 3.028 4.564a1.436 1.436 0 002.666-.316 1.417 1.417 0 00.028-.123 1.77 1.77 0 00.018-.144v-.014a1.43 1.43 0 000-.144V58.003l4.15 1.783v25.582l-19.389-8.33V51.455zm41.655 0v25.583L69.698 85.37V59.79l19.394-8.33v-.004zm-44.528.006v25.577L25.175 85.37V59.79l19.39-8.328zm34.75 17.895c-.178.009-.354.05-.517.124l-5.555 2.382a1.436 1.436 0 101.135 2.641l5.552-2.388a1.436 1.436 0 00-.615-2.756v-.003zm3.85 4.312v.005a1.438 1.438 0 00-.518.118l-9.392 3.896a1.44 1.44 0 101.105 2.658l9.393-3.913a1.435 1.435 0 00-.589-2.764z" fill="#024EC9"/></svg>