<svg width="253" height="820" fill="none" xmlns="http://www.w3.org/2000/svg"><circle cx="125" cy="125" r="125" fill="#2E2E2E"/><circle cx="128" cy="695" r="125" fill="#2E2E2E"/><path stroke="#2E2E2E" stroke-width="20" d="M127 265v291"/><path d="M139.818 77.91V171h-25.273v-69.818H114l-20.364 12.182V91.909l22.909-14h23.273zM94.182 743v-18.182l34.727-28.727c2.303-1.909 4.273-3.697 5.909-5.364 1.667-1.697 2.94-3.439 3.818-5.227.909-1.788 1.364-3.773 1.364-5.955 0-2.393-.515-4.439-1.545-6.136-1-1.697-2.394-3-4.182-3.909-1.788-.939-3.849-1.409-6.182-1.409s-4.394.47-6.182 1.409c-1.757.939-3.121 2.318-4.091 4.136-.97 1.819-1.454 4.031-1.454 6.637h-24c0-6.546 1.47-12.182 4.409-16.909 2.94-4.728 7.091-8.364 12.454-10.909 5.364-2.546 11.652-3.819 18.864-3.819 7.454 0 13.909 1.197 19.364 3.591 5.484 2.364 9.712 5.697 12.681 10 3 4.303 4.5 9.349 4.5 15.137 0 3.575-.742 7.136-2.227 10.681-1.485 3.516-4.151 7.41-8 11.682C150.561 704 145.091 709.091 138 715l-8.727 7.273v.545h36.363V743H94.182z" fill="#fff"/></svg>