<svg width="633" height="633" fill="none" xmlns="http://www.w3.org/2000/svg"><circle cx="316.5" cy="316.5" r="316.5" fill="url(#paint0_linear_1061_1980)"/><path d="M448.585 346.099c-5.971 0 1.492 3.762-42.632-25.675a17.315 17.315 0 00-4.299-17.912c-8.18-8.001-6.807-5.493-6.807-10.15h5.971a5.974 5.974 0 005.971-5.971v-23.884a5.971 5.971 0 00-5.971-5.97h-5.971v-11.106l17.913-.836a5.971 5.971 0 005.971-5.971v-36.243c-.418-5.971 5.135-2.747-135.718-41.139-1.612-.239-48.244-.239-49.856-.239-1.612 0 0-.955-50.454 30.631a6.926 6.926 0 00-2.448 3.224c-.358 1.97-.358 50.095.12 52.006 2.03 4.956 2.328 3.702 47.289 3.702v161.212a17.913 17.913 0 00-17.913 17.913v11.941a5.968 5.968 0 005.971 5.971h83.592a5.971 5.971 0 005.971-5.971v-11.941a17.913 17.913 0 00-17.913-17.913V250.566l95.534-4.359v10.33h-5.971a5.971 5.971 0 00-5.971 5.97v23.884a5.971 5.971 0 005.971 5.971h5.971c0 10.449-1.254 7.165 10.329 18.748.417.461.76.985 1.015 1.552-5.374-3.582-5.971-3.104-11.344.359v-2.747a5.974 5.974 0 00-5.971-5.971 5.968 5.968 0 00-5.971 5.971 28.578 28.578 0 00.896 10.15c-44.244 29.496-36.721 25.675-42.692 25.675a5.97 5.97 0 00-5.971 5.971v71.65a5.97 5.97 0 005.971 5.971h119.417a5.971 5.971 0 005.971-5.971v-71.65a5.97 5.97 0 00-5.971-5.971zm-41.796-113.446l-28.959 1.314c29.855-29.854 24.6-25.914 28.959-25.675v24.361zm-179.125-41.796h-20.958l20.958-13.136v13.136zm-35.825 11.942h27.406l-27.406 27.406v-27.406zm47.766 26.331l33.377 33.377-33.377 33.377V229.13zm2.449 81.144l33.377-33.377v66.754l-33.377-33.377zm30.928 47.767l-33.377 33.377v-66.754l33.377 33.377zm-30.928-143.3l33.377-33.377v66.754l-33.377-33.377zm45.318-11.643l25.914 1.134-25.914 25.973v-27.107zm0-11.942v-16.36l71.65 19.584-71.65-3.224zm100.191 16.479l-22.57 22.57-24.719-24.719 47.289 2.149zm-61.38.597l26.868 27.108-56.782 2.567 29.914-29.675zm-86.578-35.287h27.407l-27.407 27.406v-27.406zm-39.347 65.679l27.406-27.406v27.406h-27.406zm93.085 191.067v5.971h-71.65v-5.971a5.97 5.97 0 015.971-5.971h59.708a5.97 5.97 0 015.971 5.971zm-53.738-17.913c0-4.896-5.254 1.732 35.826-39.348v39.348h-35.826zm143.301-143.3h11.941v11.942h-11.941v-11.942zm-3.702 61.38a17.909 17.909 0 0019.345 0l24.361 16.241h-68.067l24.361-16.241zm63.41 87.891H335.139v-59.708h107.475v59.708z" fill="#fff"/><path d="M347.081 375.953v23.883a5.968 5.968 0 005.971 5.971 5.971 5.971 0 005.971-5.971v-23.883a5.97 5.97 0 00-10.193-4.222 5.97 5.97 0 00-1.749 4.222zm23.883 0v23.883a5.968 5.968 0 005.971 5.971 5.968 5.968 0 005.971-5.971v-23.883a5.97 5.97 0 00-10.193-4.222 5.97 5.97 0 00-1.749 4.222zm23.884 0v23.883a5.968 5.968 0 005.971 5.971 5.971 5.971 0 005.97-5.971v-23.883a5.973 5.973 0 00-5.97-5.971 5.968 5.968 0 00-5.971 5.971zm23.883 0v23.883a5.968 5.968 0 005.971 5.971 5.971 5.971 0 005.971-5.971v-23.883a5.97 5.97 0 00-10.193-4.222 5.97 5.97 0 00-1.749 4.222z" fill="#fff"/><defs><linearGradient id="paint0_linear_1061_1980" x1="-68.487" y1="381.809" x2="701.487" y2="388.191" gradientUnits="userSpaceOnUse"><stop stop-color="#024EC9"/><stop offset="1" stop-color="#3884FF"/></linearGradient></defs></svg>