<svg width="65" height="65" fill="none" xmlns="http://www.w3.org/2000/svg"><path d="M62.679 13.919H2.32c-1.39 0-2.32.928-2.32 2.32v16.239c0 1.392.929 2.32 2.321 2.32h13.233L9.286 62.172c-.232 1.16.464 2.552 1.625 2.784 1.16.231 2.553-.464 2.785-1.624l3.483-14.615H47.82L51.07 63.1c.233 1.16 1.161 1.856 2.322 1.856h.464c1.16-.232 2.09-1.624 1.857-2.784l-6.268-27.374H62.68c1.392 0 2.321-.928 2.321-2.32v-16.24c0-1.391-.929-2.319-2.321-2.319zm-6.268 4.64l-6.732 11.599H43.41l6.732-11.6h6.268zM31.804 30.158l6.732-11.6h6.268l-6.733 11.6h-6.267zm-11.608 0l6.733-11.6h6.267l-6.732 11.6h-6.268zm-11.607 0l6.732-11.6h6.268l-6.732 11.6H8.59zm1.393-11.6l-5.34 9.28v-9.28h5.34zm36.679 25.519H18.339l2.09-9.28H44.57l2.09 9.28zm8.357-13.92l5.34-9.278v9.279h-5.34zM20.893 6.96c0-3.944-3.018-6.96-6.964-6.96-3.947 0-6.965 3.016-6.965 6.96 0 3.943 3.018 6.959 6.965 6.959 3.946 0 6.964-3.016 6.964-6.96zm-6.964 2.32c-1.393 0-2.322-.929-2.322-2.32 0-1.392.929-2.32 2.322-2.32 1.392 0 2.321.928 2.321 2.32 0 1.391-.929 2.32-2.321 2.32zm44.107-2.32c0-3.944-3.018-6.96-6.965-6.96-3.946 0-6.964 3.016-6.964 6.96 0 3.943 3.018 6.959 6.964 6.959 3.947 0 6.965-3.016 6.965-6.96zM51.07 9.28c-1.392 0-2.321-.929-2.321-2.32 0-1.392.929-2.32 2.321-2.32 1.393 0 2.322.928 2.322 2.32 0 1.391-.929 2.32-2.322 2.32z" fill="#024EC9"/></svg>