<svg width="27" height="27" fill="none" xmlns="http://www.w3.org/2000/svg"><path d="M13.5 0C6.045 0 0 6.045 0 13.5S6.045 27 13.5 27 27 20.955 27 13.5 20.955 0 13.5 0zm1.217 19.69c-.03 1.072-.825 1.735-1.856 1.705-.988-.03-1.766-.735-1.736-1.814.03-1.073.85-1.754 1.839-1.724 1.036.03 1.79.76 1.753 1.832zm2.935-7.673c-.253.356-.82.814-1.53 1.369l-.79.542a2.09 2.09 0 00-.753 1.042c-.067.211-.115.76-.127 1.127-.006.073-.048.236-.271.236h-2.356c-.247 0-.278-.145-.272-.217.036-1 .181-1.826.597-2.49.56-.891 2.14-1.832 2.14-1.832a2.5 2.5 0 00.572-.584c.265-.362.482-.766.482-1.2 0-.5-.12-.976-.44-1.374-.373-.464-.777-.687-1.555-.687-.765 0-1.211.386-1.53.892-.32.507-.266 1.103-.266 1.646H8.618c0-2.05.537-3.357 1.67-4.129.765-.524 1.742-.753 2.88-.753 1.495 0 2.682.277 3.731 1.073.97.735 1.483 1.772 1.483 3.17 0 .862-.302 1.585-.73 2.17z" fill="#FFF"/></svg>