<svg width="30" height="30" fill="none" xmlns="http://www.w3.org/2000/svg"><path d="M25.5 0h-21A4.5 4.5 0 000 4.5v21A4.5 4.5 0 004.5 30h21c.247-.003.493-.029.735-.075l.45-.105h.18l.555-.21.195-.105c.15-.09.315-.165.465-.27.2-.147.39-.308.57-.48l.105-.135c.147-.15.283-.31.405-.48l.135-.195a3.46 3.46 0 00.27-.525c.041-.072.076-.147.105-.225.075-.18.12-.375.18-.57V26.4a3.92 3.92 0 00.15-.9v-21A4.5 4.5 0 0025.5 0zm-21 27A1.5 1.5 0 013 25.5v-6.465l4.935-4.95a1.499 1.499 0 012.13 0L22.965 27H4.5zM27 25.5a1.5 1.5 0 01-.105.54 1.504 1.504 0 01-.12.21 1.32 1.32 0 01-.135.18l-8.025-8.025 1.32-1.32a1.498 1.498 0 012.13 0L27 22.035V25.5zm0-7.71L24.18 15a4.62 4.62 0 00-6.36 0l-1.32 1.32L12.18 12a4.62 4.62 0 00-6.36 0L3 14.79V4.5A1.5 1.5 0 014.5 3h21A1.5 1.5 0 0127 4.5v13.29z" fill="#3E3E3E"/></svg>