<svg width="756" height="368" fill="none" xmlns="http://www.w3.org/2000/svg"><g filter="url(#filter0_d_8_772)"><rect x="4" width="748" height="359" rx="48" fill="#0251D2"/><path d="M319.632 165.04h7.08V193h-7.08v-27.96zm10.664 8.76h6.52v2.08a8.3 8.3 0 012.76-1.96 7.829 7.829 0 013.32-.72c1.44 0 2.587.213 3.44.64a5.073 5.073 0 012.12 1.92c.8-.8 1.773-1.427 2.92-1.88a9.405 9.405 0 013.48-.68c2.533 0 4.333.653 5.4 1.96 1.067 1.28 1.6 3.133 1.6 5.56V193h-6.72v-11.28c0-1.067-.2-1.84-.6-2.32-.4-.48-1.067-.72-2-.72-1.2 0-2.173.427-2.92 1.28.027.453.04 1.147.04 2.08V193h-6.72v-11.56c0-.987-.173-1.693-.52-2.12-.347-.427-.96-.64-1.84-.64-1.36 0-2.533.76-3.52 2.28V193h-6.76v-19.2zm41.615 19.8c-2.4 0-4.347-.573-5.84-1.72-1.467-1.173-2.2-2.8-2.2-4.88 0-2.16.707-3.813 2.12-4.96 1.44-1.173 3.493-1.76 6.16-1.76 1.04 0 2.08.12 3.12.36 1.04.213 1.933.507 2.68.88v-.4c0-2.053-1.68-3.08-5.04-3.08-2.347 0-4.493.453-6.44 1.36v-4.84c.853-.4 1.973-.72 3.36-.96a22.81 22.81 0 014.32-.4c3.573 0 6.267.72 8.08 2.16 1.84 1.413 2.76 3.4 2.76 5.96V193h-6.6v-1.64c-.72.693-1.627 1.24-2.72 1.64-1.093.4-2.347.6-3.76.6zm2.08-4.32c.827 0 1.6-.16 2.32-.48.72-.347 1.267-.787 1.64-1.32v-1.68c-1.147-.773-2.453-1.16-3.92-1.16-.933 0-1.653.2-2.16.6-.507.4-.76.987-.76 1.76 0 .72.24 1.28.72 1.68.507.4 1.227.6 2.16.6zm24.831 12.92c-1.28 0-2.573-.12-3.88-.36-1.28-.24-2.387-.56-3.32-.96V196c2.107.907 4.507 1.36 7.2 1.36 1.947 0 3.347-.4 4.2-1.2.88-.8 1.32-1.973 1.32-3.52v-1.16c-.773.667-1.733 1.187-2.88 1.56-1.12.373-2.32.56-3.6.56-2.027 0-3.813-.427-5.36-1.28a9.258 9.258 0 01-3.64-3.6c-.853-1.547-1.28-3.32-1.28-5.32 0-2.027.427-3.813 1.28-5.36a8.733 8.733 0 013.6-3.56c1.547-.853 3.32-1.28 5.32-1.28 2.747 0 5.013.84 6.8 2.52v-1.92h6.8v17.88c0 3.333-1.027 5.92-3.08 7.76-2.027 1.84-5.187 2.76-9.48 2.76zm.8-14.04c1.093 0 2.067-.28 2.92-.84a4.5 4.5 0 001.8-2.24v-3.36a4.505 4.505 0 00-1.84-2.2c-.853-.56-1.813-.84-2.88-.84-1.44 0-2.6.427-3.48 1.28-.88.827-1.32 1.96-1.32 3.4 0 1.467.44 2.64 1.32 3.52.88.853 2.04 1.28 3.48 1.28zm26.642 5.44c-3.76 0-6.72-.88-8.88-2.64-2.134-1.76-3.2-4.253-3.2-7.48 0-3.173.946-5.68 2.84-7.52 1.92-1.84 4.68-2.76 8.28-2.76 2.293 0 4.253.44 5.88 1.32 1.653.853 2.893 2.04 3.72 3.56.853 1.493 1.28 3.187 1.28 5.08v2.6h-15.32c.266 1.067.933 1.84 2 2.32 1.066.48 2.52.72 4.36.72 1.253 0 2.533-.107 3.84-.32 1.333-.213 2.48-.507 3.44-.88v4.64c-.987.4-2.227.72-3.72.96-1.467.267-2.974.4-4.52.4zm3.28-12.24c-.107-1.04-.534-1.853-1.28-2.44-.747-.587-1.774-.88-3.08-.88-1.28 0-2.294.307-3.04.92-.747.587-1.174 1.387-1.28 2.4h8.68z" fill="#fff"/></g><defs><filter id="filter0_d_8_772" x="0" y="0" width="756" height="368" filterUnits="userSpaceOnUse" color-interpolation-filters="sRGB"><feFlood flood-opacity="0" result="BackgroundImageFix"/><feColorMatrix in="SourceAlpha" values="0 0 0 0 0 0 0 0 0 0 0 0 0 0 0 0 0 0 127 0" result="hardAlpha"/><feOffset dy="5"/><feGaussianBlur stdDeviation="2"/><feComposite in2="hardAlpha" operator="out"/><feColorMatrix values="0 0 0 0 0 0 0 0 0 0 0 0 0 0 0 0 0 0 0.25 0"/><feBlend in2="BackgroundImageFix" result="effect1_dropShadow_8_772"/><feBlend in="SourceGraphic" in2="effect1_dropShadow_8_772" result="shape"/></filter></defs></svg>