<svg width="35" height="25" fill="none" xmlns="http://www.w3.org/2000/svg"><path d="M29.563 6.537H25V.503H3.708C2.028.503.667 1.853.667 3.52v16.593h3.041c0 2.497 2.046 4.526 4.563 4.526s4.562-2.029 4.562-4.526h9.125c0 2.497 2.046 4.526 4.563 4.526s4.562-2.029 4.562-4.526h3.042v-7.542l-4.563-6.034zM8.27 22.377a2.269 2.269 0 01-2.281-2.264 2.269 2.269 0 012.28-2.262 2.269 2.269 0 012.282 2.262 2.269 2.269 0 01-2.281 2.263zM28.802 8.8l2.989 3.77H25V8.8h3.802zm-2.281 13.576a2.27 2.27 0 01-2.282-2.263 2.27 2.27 0 012.282-2.262 2.269 2.269 0 012.281 2.262 2.269 2.269 0 01-2.281 2.263z" fill="#fff"/></svg>