<svg width="717" height="125" fill="none" xmlns="http://www.w3.org/2000/svg"><path d="M203.32 97.536c-6.72 0-12.832-1.568-18.336-4.704-5.44-3.2-9.728-7.552-12.864-13.056-3.136-5.504-4.704-11.552-4.704-18.144 0-6.592 1.568-12.64 4.704-18.144 3.136-5.504 7.424-9.824 12.864-12.96 5.504-3.2 11.616-4.8 18.336-4.8 6.72 0 12.8 1.6 18.24 4.8 5.504 3.136 9.824 7.456 12.96 12.96 3.136 5.504 4.704 11.552 4.704 18.144 0 6.592-1.568 12.64-4.704 18.144-3.136 5.504-7.456 9.856-12.96 13.056-5.44 3.136-11.52 4.704-18.24 4.704zm0-12.288c4.224 0 8.096-.992 11.616-2.976 3.52-1.984 6.272-4.768 8.256-8.352 2.048-3.584 3.072-7.68 3.072-12.288 0-4.608-1.024-8.704-3.072-12.288-1.984-3.584-4.736-6.368-8.256-8.352-3.52-1.984-7.392-2.976-11.616-2.976-4.224 0-8.096.992-11.616 2.976-3.456 1.984-6.208 4.768-8.256 8.352-1.984 3.584-2.976 7.68-2.976 12.288 0 4.608.992 8.704 2.976 12.288 2.048 3.584 4.8 6.368 8.256 8.352 3.52 1.984 7.392 2.976 11.616 2.976zm46.065-38.208h11.808v5.952h.768c1.344-2.112 3.296-3.872 5.856-5.28 2.56-1.472 5.504-2.208 8.832-2.208 4.416 0 8.416 1.12 12 3.36 3.648 2.176 6.496 5.248 8.544 9.216 2.048 3.968 3.072 8.448 3.072 13.44 0 5.056-1.024 9.568-3.072 13.536-2.048 3.904-4.896 6.976-8.544 9.216-3.584 2.176-7.584 3.264-12 3.264-3.328 0-6.304-.704-8.928-2.112-2.56-1.408-4.48-3.168-5.76-5.28h-.768l.768 6.912v19.68h-12.576V47.04zm25.056 38.88a12.75 12.75 0 006.624-1.824c2.048-1.216 3.68-2.912 4.896-5.088 1.216-2.176 1.824-4.672 1.824-7.488 0-2.816-.608-5.312-1.824-7.488-1.216-2.176-2.848-3.84-4.896-4.992a12.75 12.75 0 00-6.624-1.824c-2.304 0-4.48.608-6.528 1.824-2.048 1.152-3.68 2.816-4.896 4.992-1.216 2.176-1.824 4.672-1.824 7.488 0 2.816.608 5.312 1.824 7.488 1.216 2.176 2.848 3.872 4.896 5.088 2.048 1.216 4.224 1.824 6.528 1.824zm58.46 11.616c-4.864 0-9.248-1.12-13.152-3.36-3.904-2.24-6.976-5.312-9.216-9.216-2.176-3.968-3.264-8.416-3.264-13.344 0-4.672 1.088-8.992 3.264-12.96 2.176-4.032 5.184-7.232 9.024-9.6 3.84-2.368 8.128-3.552 12.864-3.552 5.056 0 9.408 1.088 13.056 3.264 3.648 2.176 6.4 5.152 8.256 8.928 1.92 3.776 2.88 7.968 2.88 12.576 0 1.472-.096 2.88-.288 4.224h-36.768c.64 3.904 2.176 6.88 4.608 8.928 2.496 1.984 5.472 2.976 8.928 2.976 2.88 0 5.344-.608 7.392-1.824 2.112-1.28 3.776-2.976 4.992-5.088l10.176 4.992c-4.992 8.704-12.576 13.056-22.752 13.056zm11.616-31.968c-.128-1.536-.704-3.04-1.728-4.512-.96-1.536-2.336-2.784-4.128-3.744-1.728-1.024-3.776-1.536-6.144-1.536-3.008 0-5.6.896-7.776 2.688-2.112 1.728-3.648 4.096-4.608 7.104h24.384zM366.3 47.04h11.808v6.144h.768c1.472-2.368 3.552-4.224 6.24-5.568 2.688-1.408 5.6-2.112 8.736-2.112 5.888 0 10.368 1.792 13.44 5.376 3.072 3.584 4.608 8.48 4.608 14.688V96h-12.576V67.104c0-3.136-.8-5.568-2.4-7.296-1.6-1.728-3.84-2.592-6.72-2.592-3.392 0-6.144 1.312-8.256 3.936-2.048 2.624-3.072 5.92-3.072 9.888V96H366.3V47.04zm79.933 50.496c-6.016 0-11.328-1.696-15.936-5.088-4.608-3.392-7.84-8.192-9.696-14.4l12.192-4.8c.96 3.648 2.592 6.56 4.896 8.736 2.304 2.176 5.184 3.264 8.64 3.264 2.88 0 5.344-.704 7.392-2.112 2.048-1.472 3.072-3.488 3.072-6.048s-.992-4.64-2.976-6.24c-1.92-1.664-5.376-3.424-10.368-5.28l-4.224-1.536c-4.416-1.536-8.192-3.872-11.328-7.008-3.136-3.2-4.704-7.2-4.704-12 0-3.584.928-6.848 2.784-9.792 1.856-2.944 4.48-5.248 7.872-6.912 3.392-1.728 7.232-2.592 11.52-2.592 6.208 0 11.104 1.472 14.688 4.416 3.584 2.88 6.048 6.272 7.392 10.176l-11.424 4.8c-.704-2.112-1.952-3.872-3.744-5.28-1.728-1.472-3.968-2.208-6.72-2.208-2.816 0-5.152.672-7.008 2.016-1.792 1.28-2.688 2.976-2.688 5.088 0 2.048.864 3.808 2.592 5.28 1.728 1.408 4.576 2.784 8.544 4.128l4.32 1.44c5.952 2.048 10.496 4.768 13.632 8.16 3.2 3.328 4.8 7.712 4.8 13.152 0 4.48-1.152 8.288-3.456 11.424-2.304 3.072-5.28 5.376-8.928 6.912-3.584 1.536-7.296 2.304-11.136 2.304zM480.3 27.264h12.576V44.64l-.768 8.544h.768c1.408-2.304 3.456-4.16 6.144-5.568 2.688-1.408 5.6-2.112 8.736-2.112 5.952 0 10.496 1.792 13.632 5.376 3.2 3.52 4.8 8.416 4.8 14.688V96h-12.576V67.104c0-3.136-.864-5.568-2.592-7.296-1.664-1.728-3.904-2.592-6.72-2.592-3.328 0-6.08 1.344-8.256 4.032-2.112 2.688-3.168 5.984-3.168 9.888V96H480.3V27.264zm64.854 14.4c-2.24 0-4.16-.8-5.76-2.4-1.6-1.6-2.4-3.52-2.4-5.76 0-2.24.8-4.128 2.4-5.664 1.6-1.6 3.52-2.4 5.76-2.4 2.24 0 4.128.8 5.664 2.4 1.6 1.536 2.4 3.424 2.4 5.664 0 2.24-.8 4.16-2.4 5.76-1.536 1.6-3.424 2.4-5.664 2.4zm-6.336 5.376h12.576V96h-12.576V47.04zm25.38 0h11.808v5.952h.768c1.344-2.112 3.296-3.872 5.856-5.28 2.56-1.472 5.504-2.208 8.832-2.208 4.416 0 8.416 1.12 12 3.36 3.648 2.176 6.496 5.248 8.544 9.216 2.048 3.968 3.072 8.448 3.072 13.44 0 5.056-1.024 9.568-3.072 13.536-2.048 3.904-4.896 6.976-8.544 9.216-3.584 2.176-7.584 3.264-12 3.264-3.328 0-6.304-.704-8.928-2.112-2.56-1.408-4.48-3.168-5.76-5.28h-.768l.768 6.912v19.68h-12.576V47.04zm25.056 38.88a12.75 12.75 0 006.624-1.824c2.048-1.216 3.68-2.912 4.896-5.088 1.216-2.176 1.824-4.672 1.824-7.488 0-2.816-.608-5.312-1.824-7.488-1.216-2.176-2.848-3.84-4.896-4.992a12.75 12.75 0 00-6.624-1.824c-2.304 0-4.48.608-6.528 1.824-2.048 1.152-3.68 2.816-4.896 4.992-1.216 2.176-1.824 4.672-1.824 7.488 0 2.816.608 5.312 1.824 7.488 1.216 2.176 2.848 3.872 4.896 5.088 2.048 1.216 4.224 1.824 6.528 1.824zm56.539-58.656h14.88L686.497 96h-14.304l-5.76-16.416h-26.304L634.369 96h-14.304l25.728-68.736zm16.416 40.416l-6.048-17.28-2.496-8.256h-.768l-2.496 8.256-6.144 17.28h17.952zm33.569-40.416h12.96V96h-12.96V27.264z" fill="url(#paint0_linear_1868_1914)"/><path d="M116.627 31.25a62.496 62.496 0 017.955 38.468 62.495 62.495 0 01-51.113 54.313 62.5 62.5 0 01-38.88-5.608l5.18-10.379a50.9 50.9 0 0073.292-39.666 50.906 50.906 0 00-6.479-31.328l10.045-5.8z" fill="url(#paint1_linear_1868_1914)"/><path d="M8.374 93.75a62.5 62.5 0 0185.35-85.39L87.93 18.407a50.9 50.9 0 00-75.896 37.455 50.9 50.9 0 006.385 32.089l-10.045 5.8z" fill="url(#paint2_linear_1868_1914)"/><path d="M102.567 22.683c.196-2.377 2.706-3.826 4.862-2.808l15.005 7.088c2.492 1.177 2.635 4.668.249 6.046l-16.369 9.451c-2.386 1.378-5.338-.492-5.112-3.239l1.365-16.538z" fill="url(#paint3_linear_1868_1914)"/><path d="M24.915 103.333c-.196 2.377-2.706 3.826-4.862 2.808L5.048 99.053c-2.492-1.177-2.636-4.668-.25-6.046l16.37-9.451c2.386-1.378 5.338.492 5.111 3.238l-1.364 16.539z" fill="url(#paint4_linear_1868_1914)"/><defs><linearGradient id="paint0_linear_1868_1914" x1="163" y1="64" x2="717" y2="64" gradientUnits="userSpaceOnUse"><stop stop-color="#024EC9"/><stop offset="1" stop-color="#0061FF"/></linearGradient><linearGradient id="paint1_linear_1868_1914" x1="34.59" y1="78.126" x2="125.001" y2="78.126" gradientUnits="userSpaceOnUse"><stop stop-color="#024EC9"/><stop offset="1" stop-color="#0057E4"/></linearGradient><linearGradient id="paint2_linear_1868_1914" x1="0" y1="46.875" x2="93.725" y2="46.875" gradientUnits="userSpaceOnUse"><stop stop-color="#024EC9"/><stop offset="1" stop-color="#0057E4"/></linearGradient><linearGradient id="paint3_linear_1868_1914" x1="101.19" y1="31.235" x2="124.391" y2="31.235" gradientUnits="userSpaceOnUse"><stop stop-color="#024EC9"/><stop offset="1" stop-color="#0057E4"/></linearGradient><linearGradient id="paint4_linear_1868_1914" x1="3.091" y1="94.781" x2="26.292" y2="94.781" gradientUnits="userSpaceOnUse"><stop stop-color="#024EC9"/><stop offset="1" stop-color="#0057E4"/></linearGradient></defs></svg>