<svg width="15" height="20" fill="none" xmlns="http://www.w3.org/2000/svg"><path d="M7.51 12.068a2.893 2.893 0 01-2.126-.875 2.893 2.893 0 01-.875-2.125v-6c0-.833.292-1.541.875-2.125A2.893 2.893 0 017.51.068c.834 0 1.542.292 2.125.875.584.584.875 1.292.875 2.125v6c0 .834-.291 1.542-.875 2.125a2.893 2.893 0 01-2.125.875zm-1 7v-3.075c-1.734-.233-3.167-1.008-4.3-2.325-1.134-1.316-1.7-2.85-1.7-4.6h2c0 1.384.487 2.563 1.462 3.538.975.975 2.154 1.462 3.537 1.462 1.384 0 2.563-.487 3.538-1.462.975-.975 1.462-2.154 1.462-3.538h2c0 1.75-.566 3.284-1.7 4.6-1.133 1.317-2.566 2.092-4.3 2.325v3.075h-2zm1-9c.283 0 .52-.095.712-.287a.968.968 0 00.287-.713v-6a.968.968 0 00-.287-.712.968.968 0 00-.713-.288.968.968 0 00-.712.288.968.968 0 00-.288.712v6c0 .284.096.521.288.713a.964.964 0 00.712.287z" fill="#9390A0"/></svg>