<svg width="443" height="350" viewBox="0 0 954 614" fill="none" xmlns="http://www.w3.org/2000/svg">
<path opacity="0.14" d="M730.418 613.427C797.064 612.711 867.405 610.852 922.85 595.553C932.354 592.931 942.318 588.724 939.1 584.192C880.259 574.014 813.836 576.058 750.211 577.935C609.961 582.074 469.424 584.555 328.83 585.375C259.968 585.776 191.092 585.781 122.23 585.385C85.293 585.173 29.969 582.602 0 593.476C40.791 602.677 115.025 601.382 161.99 603.529C225.339 606.425 288.849 608.721 352.453 610.417C478.246 613.773 604.405 614.781 730.418 613.427Z" fill="black"/>
<path d="M574.745 29.1424C575.13 29.1324 575.515 29.1504 575.898 29.2084C579.475 29.7404 580.647 33.1574 583.574 34.4834C584.879 35.0744 589.007 33.9234 588.872 36.2954C588.815 37.1704 588.875 40.1334 588.751 43.1094C589.543 45.4574 590.232 47.8454 591.243 50.1074C593.801 55.8334 605.948 64.9124 600.5 71.5794C599.446 72.8694 598.361 74.1864 596.924 75.0284C595.749 75.7164 594.403 76.0484 593.066 76.3094C592.025 76.5124 590.421 77.0844 589.561 76.5094C588.658 75.9064 587.845 73.2944 587.32 72.3114C585.819 69.5014 584.318 66.6924 582.817 63.8824C581.345 61.1264 579.353 58.0174 576.235 57.8174C575.553 57.7734 574.859 57.8804 574.19 57.7444C573.434 57.5904 572.776 57.1414 572.155 56.6854C569.878 55.0124 567.678 53.1154 565.846 50.9514C562.573 47.0814 564.746 39.4424 565.652 35.0774C565.878 33.9904 566.148 32.8734 566.823 31.9924C567.92 30.5594 569.822 30.0624 571.581 29.6544C572.621 29.4134 573.684 29.1704 574.745 29.1424Z" fill="#E5D1BD"/>
<path d="M629.712 131.693C625.909 130.441 622.054 129.165 618.717 126.952C616.057 125.187 613.807 122.879 611.639 120.536C598.194 106.005 587.032 89.3674 578.683 71.4174C585.541 65.1164 593.658 60.1914 602.413 57.0194C612.454 69.8134 623.516 81.8074 635.458 92.8474C637.901 95.1054 640.416 97.3484 643.371 98.8744C647.629 101.073 652.514 101.644 657.276 102.179C675.746 104.255 694.215 106.331 712.685 108.407C723.829 109.66 735.366 111.041 744.968 116.835C771.591 132.898 755.286 168.684 726.671 163.922C694.542 158.577 660.738 141.903 629.712 131.693Z" fill="#9EC6CC"/>
<path d="M942.039 552.776C940.022 555.842 937.314 558.244 934.962 560.993C924.336 554.277 914.525 547.357 905.477 538.381C912.562 536.64 913.214 530.229 922.328 535.851C925.278 537.67 937.026 550.289 942.039 552.776Z" fill="#E5D1BD"/>
<path d="M928.665 557.898C927.028 559.514 927.079 561.186 927.333 563.216C927.48 564.394 928.062 565.536 927.92 566.73C927.777 567.925 927.27 568.836 926.647 569.935C923.368 575.722 914.336 588.011 928.065 587.772C940.532 587.555 948.58 569.249 952.887 558.433C953.17 557.722 953.533 557.015 953.378 556.237C953.223 555.459 952.765 554.685 952.205 554.004C949.089 550.218 945.287 545.365 940.31 548.969C938.187 550.506 938.208 553.32 935.949 554.938C934.097 556.266 930.303 556.283 928.665 557.898Z" fill="#4D4D4D"/>
<path d="M865.011 353.915C869.58 378.189 835.394 406.401 844.111 425.572C862.344 465.674 895.939 498.082 923.881 528.178C925.878 530.329 932.175 534.911 934.975 537.599C930.08 545.947 923.98 552.133 917.226 559.497C878.573 533.997 813.903 493.802 794.521 471.104C768.213 440.294 758.702 379.57 744.154 338.22C741.744 331.371 738.153 321.512 742.018 314.53C744.982 309.175 749.756 306.405 755.946 304.071C772.508 297.825 794.747 285.989 812.109 294.788C831.086 304.405 861.501 335.264 865.011 353.915Z" fill="#8C9193"/>
<path d="M692.722 572.469C689.014 573.233 685.28 572.861 681.567 573.265C678.588 560.334 676.238 547.656 676.076 534.199C682.593 538.471 687.532 534.458 690.037 545.453C690.848 549.013 690.66 566.904 692.722 572.469Z" fill="#E5D1BD"/>
<path d="M679.218 566.363C676.897 566.365 675.739 567.716 674.457 569.306C673.713 570.229 673.351 571.538 672.481 572.351C671.611 573.164 670.569 573.413 669.332 573.719C662.817 575.333 647.609 577.642 657.531 587.303C666.542 596.077 685.247 588.894 696.072 584.356C696.784 584.057 697.569 583.807 698.036 583.151C698.503 582.495 698.708 581.595 698.811 580.725C699.387 575.881 700.173 569.465 694.081 568.437C691.482 567.998 689.305 570.01 686.521 569.514C684.242 569.108 681.539 566.361 679.218 566.363Z" fill="#4D4D4D"/>
<path d="M789.633 377.849C771.802 395.652 720.77 408.722 712.467 429.216C709.137 437.437 698.177 498.234 696.507 541.039C696.388 544.098 697.788 552.073 697.82 556.116C688.31 558.843 679.76 558.271 669.51 558.991C662.022 509.668 654.259 423.29 654.259 423.29C664.401 380.153 713.356 330.686 740.521 291.823C745.021 285.386 750.282 276.57 758.358 275.487C764.552 274.656 769.441 276.845 775.01 280.467C789.91 290.157 834.957 305.625 838.259 324.93C841.87 346.029 803.333 364.169 789.633 377.849Z" fill="#8C9193"/>
<path d="M781.97 110.277C797.493 123.91 820.868 136.381 830.192 155.352C852.748 201.247 866.432 250.526 873.555 300.879C875.638 315.606 877.721 330.333 879.805 345.06C881.855 359.549 881.345 362.913 869.48 363.978C847.492 365.952 802.058 360.993 780.777 353.015C770.65 349.219 760.904 343.643 750.51 341.275C735.392 337.831 721.346 344.751 706.721 343.738C708.243 328.263 711.696 313.601 712.038 297.688C712.38 281.76 711.371 265.827 709.976 250.009C707.538 222.365 706.265 194.589 703.99 167.009C702.36 147.255 698.253 131.788 711.728 115.099C719.063 106.014 732.512 90.2374 744.675 90.4504C757.58 90.6764 772.807 102.23 781.97 110.277Z" fill="#9EC6CC"/>
<path d="M710.335 84.4034C714.83 88.6504 720.486 91.4174 725.598 94.8984C730.572 98.2844 733.384 102.031 736.383 107.077C738.549 110.722 741.167 113.196 746.115 111.967C755.449 109.648 749.973 103.378 749.83 97.2614C749.667 90.2694 752.614 83.5004 753.838 76.7054C757.375 57.0714 742.045 27.2984 718.864 29.0044C693.518 30.8694 696.694 71.5144 710.335 84.4034Z" fill="#E5D1BD"/>
<path d="M740.511 50.5764C743.051 52.2144 744.45 55.7624 743.041 58.4364C742.287 59.8684 740.891 60.8594 740.027 62.2274C737.492 66.2394 740.442 71.5734 744.156 74.5264C747.87 77.4804 752.53 79.5214 755.034 83.5524C767.669 73.3154 777.339 58.4814 778.221 42.2434C778.858 30.5244 774.193 18.3144 765.468 10.3784C755.226 1.06237 744.867 1.57536 731.536 0.438358C726.049 -0.0296416 720.404 -0.482641 715.135 1.11736C710.336 2.57436 706.168 5.64636 701.416 7.25136C693.548 9.90836 683.554 8.94436 678.485 15.5234C675.553 19.3294 675.375 24.7364 676.997 29.2584C678.619 33.7804 681.8 37.5654 685.171 40.9874C689.71 45.5934 694.714 49.7404 700.083 53.3434C697.533 51.6314 706.369 41.7804 708.382 41.3474C713.137 40.3264 720.668 45.7274 725.539 46.8904C730.231 48.0104 736.359 47.8994 740.511 50.5764Z" fill="#534741"/>
<path d="M72.391 599.169H41.479V540.29H103.304V566.849L72.391 599.169Z" fill="#3A494C"/>
<path d="M402.699 597.818H433.612V538.939H371.787V565.498L402.699 597.818Z" fill="#3A494C"/>
<path d="M445.301 561.379H25.376C13.983 561.379 4.74805 552.143 4.74805 540.751V77.4943C4.74805 66.1013 13.983 56.8663 25.376 56.8663H445.3C456.692 56.8663 465.928 66.1023 465.928 77.4943V540.751C465.929 552.144 456.693 561.379 445.301 561.379Z" fill="#506266"/>
<path d="M427.567 518.418H43.1099C41.0019 518.418 39.2939 516.71 39.2939 514.602V103.643C39.2939 101.535 41.0019 99.8273 43.1099 99.8273H427.567C429.674 99.8273 431.383 101.535 431.383 103.643V514.602C431.383 516.71 429.675 518.418 427.567 518.418Z" fill="#343738"/>
<path d="M249.005 110.391L166.291 386.046L724.811 553.637L807.525 277.982L249.005 110.391Z" fill="#CBD9A4"/>
<path d="M714.343 539.366L179.462 378.87L257.568 124.398L259.503 124.981L792.443 285.366L714.343 539.366ZM184.547 376.153L711.645 534.314L787.357 288.079L260.267 129.455L184.547 376.153Z" fill="#6A8478"/>
<path d="M715.761 264.007C715.761 264.007 771.321 294.467 752.342 368.321L712.489 495.838C712.489 495.838 705.774 518.218 677.847 519.384L653.034 517.242L712.995 536.84L789.901 286.722L715.761 264.007Z" fill="#6A8478"/>
<path d="M331.539 149.425C331.539 149.425 268.388 144.264 243.571 216.367L206.636 344.759C206.636 344.759 199.921 367.139 222.592 383.488L244.485 395.36L183.64 378.709L257.141 127.569L331.539 149.425Z" fill="#6A8478"/>
<path d="M357.711 284.908C362.387 269.323 354.34 253.138 339.737 248.756C325.134 244.374 309.505 253.456 304.829 269.04C300.152 284.624 308.2 300.81 322.803 305.191C337.406 309.573 353.034 300.492 357.711 284.908Z" fill="#6A8478"/>
<path d="M270.835 316.653L264.266 338.547L271.881 340.832L278.451 318.938L270.835 316.653Z" fill="#6A8478"/>
<path d="M283.209 320.365L276.639 342.258L284.255 344.543L290.824 322.65L283.209 320.365Z" fill="#6A8478"/>
<path d="M295.584 324.078L289.015 345.971L296.63 348.256L303.199 326.363L295.584 324.078Z" fill="#6A8478"/>
<path d="M307.959 327.791L301.389 349.684L309.005 351.969L315.574 330.076L307.959 327.791Z" fill="#6A8478"/>
<path d="M320.333 331.505L313.763 353.398L321.379 355.683L327.948 333.79L320.333 331.505Z" fill="#6A8478"/>
<path d="M332.709 335.219L326.139 357.113L333.755 359.398L340.324 337.505L332.709 335.219Z" fill="#6A8478"/>
<path d="M345.082 338.931L338.512 360.824L346.128 363.109L352.697 341.216L345.082 338.931Z" fill="#6A8478"/>
<path d="M357.456 342.644L350.887 364.537L358.502 366.822L365.072 344.929L357.456 342.644Z" fill="#6A8478"/>
<path d="M625.935 314.457L623.882 321.298L631.498 323.583L633.551 316.742L625.935 314.457Z" fill="#6A8478"/>
<path d="M638.309 318.17L636.257 325.012L643.872 327.297L645.925 320.456L638.309 318.17Z" fill="#6A8478"/>
<path d="M650.686 321.886L648.633 328.727L656.249 331.012L658.302 324.171L650.686 321.886Z" fill="#6A8478"/>
<path d="M663.059 325.596L661.006 332.438L668.621 334.723L670.674 327.881L663.059 325.596Z" fill="#6A8478"/>
<path d="M675.434 329.31L673.381 336.152L680.996 338.437L683.049 331.595L675.434 329.31Z" fill="#6A8478"/>
<path d="M687.808 333.023L685.755 339.864L693.371 342.149L695.424 335.308L687.808 333.023Z" fill="#6A8478"/>
<path d="M700.183 336.737L698.13 343.578L705.745 345.863L707.798 339.022L700.183 336.737Z" fill="#6A8478"/>
<path d="M712.559 340.452L710.507 347.293L718.122 349.579L720.175 342.737L712.559 340.452Z" fill="#6A8478"/>
<path d="M365.836 415.693L361.748 429.316L538.84 482.454L542.927 468.832L365.836 415.693Z" fill="#6A8478"/>
<path d="M448.72 459.295C425.705 452.389 408.159 432.571 399.314 403.492C390.603 374.854 391.369 340.542 401.47 306.878C411.571 273.214 429.822 244.15 452.861 225.038C476.254 205.633 501.812 198.749 524.827 205.655C547.842 212.561 565.387 232.378 574.232 261.456C582.943 290.095 582.177 324.406 572.076 358.07C561.975 391.734 543.723 420.799 520.685 439.91C497.292 459.317 471.735 466.201 448.72 459.295ZM523.075 211.493C479.258 198.345 427.325 241.92 407.308 308.63C387.291 375.34 406.654 440.309 450.472 453.457C494.289 466.605 546.222 423.028 566.238 356.319C586.255 289.609 566.893 224.641 523.075 211.493Z" fill="#6A8478"/>
<path d="M568.731 357.428C589.263 289.001 569.024 222.462 523.525 208.809C478.026 195.157 424.497 239.561 403.964 307.988C383.432 376.416 403.671 442.955 449.17 456.607C494.669 470.26 548.198 425.856 568.731 357.428Z" fill="#B7BF97"/>
<path d="M375.699 579.948L43.855 520.427C42.392 520.165 41.209 518.193 41.209 516.022V106.888C41.209 104.717 42.392 102.746 43.855 102.483L375.699 42.9624C378.121 42.5284 380.09 44.4474 380.09 47.2504V575.659C380.09 578.463 378.12 580.382 375.699 579.948Z" fill="#63767C"/>
<path d="M286.74 311.455C286.74 376.534 245.084 425.804 196.975 421.778C152.139 418.025 117.97 368.733 117.97 311.455C117.97 254.177 152.139 204.885 196.975 201.132C245.084 197.106 286.74 246.376 286.74 311.455Z" fill="#506266"/>
<path d="M265.014 311.455C265.014 360.783 233.703 398.753 196.975 396.387C162.185 394.145 135.302 356.167 135.302 311.455C135.302 266.743 162.185 228.765 196.975 226.523C233.703 224.157 265.014 262.127 265.014 311.455Z" fill="#A4BBBC"/>
<path d="M219.983 311.455C219.983 328.136 209.583 341.424 196.975 341.14C184.603 340.861 174.743 327.573 174.743 311.455C174.743 295.337 184.603 282.049 196.975 281.77C209.583 281.486 219.983 294.775 219.983 311.455Z" fill="#4D4D4D"/>
<path opacity="0.11" d="M215.177 292.653C217.192 297.085 218.354 302.264 218.354 307.809C218.354 324.469 207.98 337.77 195.402 337.521C188.315 337.381 182.065 332.955 178.026 326.199C181.848 334.947 188.996 340.96 197.279 341.146C209.893 341.43 220.298 328.139 220.298 311.455C220.297 304.312 218.374 297.772 215.177 292.653Z" fill="white"/>
<path d="M198.823 394.839C198.823 388.552 198.823 382.264 198.823 375.977C198.823 373.376 195.747 373.228 195.747 375.827C195.747 382.1 195.747 388.372 195.747 394.645C195.747 397.239 198.823 397.443 198.823 394.839Z" fill="#4D4D4D"/>
<path d="M198.823 246.934C198.823 240.647 198.823 234.359 198.823 228.072C198.823 225.471 195.747 225.667 195.747 228.266C195.747 234.539 195.747 240.811 195.747 247.084C195.747 249.679 198.823 249.539 198.823 246.934Z" fill="#4D4D4D"/>
<path d="M136.465 314.174C140.834 314.153 145.233 314.131 149.663 314.109C151.505 314.1 151.493 310.203 149.648 310.218C145.218 310.253 140.819 310.288 136.45 310.323C134.653 310.338 134.664 314.183 136.465 314.174Z" fill="#4D4D4D"/>
<path d="M247.965 313.628C253.144 313.603 258.363 313.577 263.622 313.551C265.809 313.54 265.795 309.293 263.605 309.311C258.347 309.353 253.128 309.394 247.948 309.436C245.817 309.453 245.831 313.639 247.965 313.628Z" fill="#4D4D4D"/>
<path d="M155.592 371.491C158.701 367.231 161.825 362.95 164.964 358.648C166.267 356.862 164.153 354.065 162.852 355.853C159.723 360.155 156.61 364.435 153.511 368.695C152.233 370.452 154.309 373.25 155.592 371.491Z" fill="#4D4D4D"/>
<path d="M232.964 265.463C236.461 260.67 239.977 255.853 243.511 251.01C244.978 249 242.598 246.219 241.133 248.233C237.612 253.074 234.108 257.891 230.623 262.682C229.187 264.657 231.521 267.442 232.964 265.463Z" fill="#4D4D4D"/>
<path d="M155.719 252.041C158.657 256.521 161.608 261.021 164.574 265.542C165.804 267.418 168.03 264.767 166.793 262.887C163.818 258.364 160.856 253.862 157.908 249.381C156.692 247.534 154.506 250.191 155.719 252.041Z" fill="#4D4D4D"/>
<path d="M228.609 363.183C231.892 368.189 235.192 373.22 238.507 378.276C239.883 380.374 242.372 377.777 240.989 375.674C237.661 370.616 234.35 365.582 231.055 360.573C229.696 358.507 227.253 361.116 228.609 363.183Z" fill="#4D4D4D"/>
<path d="M330.721 404.234L330.559 404.224C327.387 404.021 324.826 400.798 324.826 397.025V229.668C324.826 225.894 327.387 222.678 330.559 222.484L330.721 222.474C333.907 222.279 336.501 225.204 336.501 229.008V397.716C336.501 401.519 333.908 404.438 330.721 404.234Z" fill="#798E91"/>
<path d="M384.235 580.009H375.699V42.9634H384.235C385.357 42.9634 386.266 43.8724 386.266 44.9944V577.979C386.266 579.1 385.357 580.009 384.235 580.009Z" fill="#798E91"/>
<path d="M56.229 210.448V182.404C56.229 175.166 50.362 169.299 43.124 169.299C35.886 169.299 30.019 175.166 30.019 182.404V210.448H56.229Z" fill="#798E91"/>
<path d="M30.019 214.117V242.161C30.019 249.399 35.886 255.266 43.124 255.266C50.362 255.266 56.229 249.399 56.229 242.161V214.117H30.019Z" fill="#798E91"/>
<path d="M52.909 399.856V371.812C52.909 364.574 47.042 358.707 39.804 358.707C32.566 358.707 26.699 364.574 26.699 371.812V399.856H52.909Z" fill="#798E91"/>
<path d="M26.699 403.525V431.569C26.699 438.807 32.566 444.674 39.804 444.674C47.042 444.674 52.909 438.807 52.909 431.569V403.525H26.699Z" fill="#798E91"/>
<path d="M620.412 260.742C620.515 260.371 620.645 260.008 620.812 259.658C622.367 256.393 625.977 256.271 628.101 253.86C629.048 252.785 629.154 248.501 631.383 249.324C632.203 249.635 635.054 250.443 637.864 251.433C640.341 251.362 642.826 251.402 645.285 251.097C651.508 250.325 663.743 241.364 668.525 248.524C669.45 249.909 670.392 251.332 670.778 252.953C671.093 254.278 671.016 255.662 670.875 257.017C670.765 258.072 670.842 259.773 670.042 260.428C669.201 261.115 666.466 261.129 665.372 261.344C662.246 261.958 659.121 262.571 655.995 263.185C652.929 263.787 649.374 264.782 648.27 267.705C648.028 268.344 647.928 269.039 647.602 269.64C647.234 270.318 646.612 270.816 645.994 271.276C643.729 272.964 641.271 274.513 638.666 275.632C634.008 277.63 627.338 273.318 623.43 271.175C622.457 270.641 621.467 270.056 620.822 269.153C619.773 267.684 619.853 265.72 619.977 263.92C620.049 262.852 620.128 261.765 620.412 260.742Z" fill="#E5D1BD"/>
<path d="M734.554 238.168C732.245 241.439 729.897 244.752 726.805 247.296C724.34 249.324 721.474 250.8 718.6 252.188C700.773 260.795 681.598 266.605 661.991 269.339C657.971 260.939 655.635 251.736 655.162 242.435C670.334 236.575 685.037 229.504 699.087 221.312C701.96 219.637 704.841 217.888 707.165 215.508C710.513 212.079 712.488 207.575 714.393 203.177C721.78 186.122 729.166 169.067 736.553 152.011C741.01 141.721 745.705 131.092 754.053 123.604C777.2 102.842 806.652 128.9 793.731 154.872C779.222 184.034 753.392 211.483 734.554 238.168Z" fill="#9EC6CC"/>
</svg>
