<svg width="443" height="350" viewBox="0 0 954 614" fill="none" xmlns="http://www.w3.org/2000/svg"><path opacity=".14" d="M730.418 613.427c66.646-.716 136.987-2.575 192.432-17.874 9.504-2.622 19.468-6.829 16.25-11.361-58.841-10.178-125.264-8.134-188.889-6.257a17809.245 17809.245 0 01-421.381 7.44c-68.862.401-137.738.406-206.6.01-36.937-.212-92.261-2.783-122.23 8.091 40.791 9.201 115.025 7.906 161.99 10.053a10019.705 10019.705 0 00190.463 6.888 10108.314 10108.314 0 00377.965 3.01z" fill="#000"/><path d="M574.745 29.142c.385-.01.77.008 1.153.066 3.577.532 4.749 3.95 7.676 5.275 1.305.591 5.433-.56 5.298 1.812-.057.875.003 3.838-.121 6.814.792 2.348 1.481 4.736 2.492 6.998 2.558 5.726 14.705 14.805 9.257 21.472-1.054 1.29-2.139 2.607-3.576 3.45-1.175.687-2.521 1.02-3.858 1.28-1.041.203-2.645.775-3.505.2-.903-.603-1.716-3.215-2.241-4.198l-4.503-8.429c-1.472-2.756-3.464-5.865-6.582-6.065-.682-.044-1.376.063-2.045-.073-.756-.154-1.414-.603-2.035-1.059-2.277-1.673-4.477-3.57-6.309-5.734-3.273-3.87-1.1-11.509-.194-15.874.226-1.087.496-2.204 1.171-3.085 1.097-1.433 2.999-1.93 4.758-2.338 1.04-.24 2.103-.484 3.164-.512z" fill="#E5D1BD"/><path d="M629.712 131.693c-3.803-1.252-7.658-2.528-10.995-4.741-2.66-1.765-4.91-4.073-7.078-6.416a191.196 191.196 0 01-32.956-49.119 70.868 70.868 0 0123.73-14.398 306.633 306.633 0 0033.045 35.828c2.443 2.258 4.958 4.501 7.913 6.027 4.258 2.199 9.143 2.77 13.905 3.305l55.409 6.228c11.144 1.253 22.681 2.634 32.283 8.428 26.623 16.063 10.318 51.849-18.297 47.087-32.129-5.345-65.933-22.019-96.959-32.229z" fill="#9EC6CC"/><path d="M942.039 552.776c-2.017 3.066-4.725 5.468-7.077 8.217-10.626-6.716-20.437-13.636-29.485-22.612 7.085-1.741 7.737-8.152 16.851-2.53 2.95 1.819 14.698 14.438 19.711 16.925z" fill="#E5D1BD"/><path d="M928.665 557.898c-1.637 1.616-1.586 3.288-1.332 5.318.147 1.178.729 2.32.587 3.514-.143 1.195-.65 2.106-1.273 3.205-3.279 5.787-12.311 18.076 1.418 17.837 12.467-.217 20.515-18.523 24.822-29.339.283-.711.646-1.418.491-2.196-.155-.778-.613-1.552-1.173-2.233-3.116-3.786-6.918-8.639-11.895-5.035-2.123 1.537-2.102 4.351-4.361 5.969-1.852 1.328-5.646 1.345-7.284 2.96z" fill="#4D4D4D"/><path d="M865.011 353.915c4.569 24.274-29.617 52.486-20.9 71.657 18.233 40.102 51.828 72.51 79.77 102.606 1.997 2.151 8.294 6.733 11.094 9.421-4.895 8.348-10.995 14.534-17.749 21.898-38.653-25.5-103.323-65.695-122.705-88.393-26.308-30.81-35.819-91.534-50.367-132.884-2.41-6.849-6.001-16.708-2.136-23.69 2.964-5.355 7.738-8.125 13.928-10.459 16.562-6.246 38.801-18.082 56.163-9.283 18.977 9.617 49.392 40.476 52.902 59.127z" fill="#8C9193"/><path d="M692.722 572.469c-3.708.764-7.442.392-11.155.796-2.979-12.931-5.329-25.609-5.491-39.066 6.517 4.272 11.456.259 13.961 11.254.811 3.56.623 21.451 2.685 27.016z" fill="#E5D1BD"/><path d="M679.218 566.363c-2.321.002-3.479 1.353-4.761 2.943-.744.923-1.106 2.232-1.976 3.045-.87.813-1.912 1.062-3.149 1.368-6.515 1.614-21.723 3.923-11.801 13.584 9.011 8.774 27.716 1.591 38.541-2.947.712-.299 1.497-.549 1.964-1.205.467-.656.672-1.556.775-2.426.576-4.844 1.362-11.26-4.73-12.288-2.599-.439-4.776 1.573-7.56 1.077-2.279-.406-4.982-3.153-7.303-3.151z" fill="#4D4D4D"/><path d="M789.633 377.849c-17.831 17.803-68.863 30.873-77.166 51.367-3.33 8.221-14.29 69.018-15.96 111.823-.119 3.059 1.281 11.034 1.313 15.077-9.51 2.727-18.06 2.155-28.31 2.875-7.488-49.323-15.251-135.701-15.251-135.701 10.142-43.137 59.097-92.604 86.262-131.467 4.5-6.437 9.761-15.253 17.837-16.336 6.194-.831 11.083 1.358 16.652 4.98 14.9 9.69 59.947 25.158 63.249 44.463 3.611 21.099-34.926 39.239-48.626 52.919z" fill="#8C9193"/><path d="M781.97 110.277c15.523 13.633 38.898 26.104 48.222 45.075 22.556 45.895 36.24 95.174 43.363 145.527l6.25 44.181c2.05 14.489 1.54 17.853-10.325 18.918-21.988 1.974-67.422-2.985-88.703-10.963-10.127-3.796-19.873-9.372-30.267-11.74-15.118-3.444-29.164 3.476-43.789 2.463 1.522-15.475 4.975-30.137 5.317-46.05.342-15.928-.667-31.861-2.062-47.679-2.438-27.644-3.711-55.42-5.986-83-1.63-19.754-5.737-35.221 7.738-51.91 7.335-9.085 20.784-24.862 32.947-24.649 12.905.226 28.132 11.78 37.295 19.827z" fill="#9EC6CC"/><path d="M710.335 84.403c4.495 4.247 10.151 7.014 15.263 10.495 4.974 3.386 7.786 7.133 10.785 12.179 2.166 3.645 4.784 6.119 9.732 4.89 9.334-2.319 3.858-8.589 3.715-14.706-.163-6.992 2.784-13.76 4.008-20.556 3.537-19.634-11.793-49.407-34.974-47.7-25.346 1.864-22.17 42.51-8.529 55.398z" fill="#E5D1BD"/><path d="M740.511 50.576c2.54 1.638 3.939 5.186 2.53 7.86-.754 1.432-2.15 2.423-3.014 3.791-2.535 4.012.415 9.346 4.129 12.3 3.714 2.953 8.374 4.994 10.878 9.025 12.635-10.237 22.305-25.07 23.187-41.309.637-11.719-4.028-23.929-12.753-31.865-10.242-9.316-20.601-8.803-33.932-9.94-5.487-.468-11.132-.92-16.401.68-4.799 1.456-8.967 4.528-13.719 6.133-7.868 2.657-17.862 1.693-22.931 8.272-2.932 3.806-3.11 9.213-1.488 13.735 1.622 4.522 4.803 8.307 8.174 11.73a96.268 96.268 0 0014.912 12.355c-2.55-1.712 6.286-11.563 8.299-11.996 4.755-1.02 12.286 4.38 17.157 5.543 4.692 1.12 10.82 1.01 14.972 3.686z" fill="#534741"/><path d="M72.391 599.169H41.479V540.29h61.825v26.559l-30.913 32.32zm330.308-1.351h30.913v-58.879h-61.825v26.559l30.912 32.32z" fill="#3A494C"/><path d="M445.301 561.379H25.376c-11.393 0-20.628-9.236-20.628-20.628V77.494c0-11.393 9.235-20.628 20.628-20.628H445.3c11.392 0 20.628 9.236 20.628 20.628v463.257c.001 11.393-9.235 20.628-20.627 20.628z" fill="#506266"/><path d="M427.567 518.418H43.11a3.815 3.815 0 01-3.816-3.816V103.643a3.815 3.815 0 013.816-3.816h384.457a3.816 3.816 0 013.816 3.816v410.959a3.815 3.815 0 01-3.816 3.816z" fill="#343738"/><path d="M249.005 110.391l-82.714 275.655 558.52 167.591 82.714-275.655-558.52-167.591z" fill="#CBD9A4"/><path d="M714.343 539.366L179.462 378.87l78.106-254.472 1.935.583 532.94 160.385-78.1 254zM184.547 376.153l527.098 158.161 75.712-246.235-527.09-158.624-75.72 246.698z" fill="#6A8478"/><path d="M715.761 264.007s55.56 30.46 36.581 104.314l-39.853 127.517s-6.715 22.38-34.642 23.546l-24.813-2.142 59.961 19.598 76.906-250.118-74.14-22.715zM331.539 149.425s-63.151-5.161-87.968 66.942l-36.935 128.392s-6.715 22.38 15.956 38.729l21.893 11.872-60.845-16.651 73.501-251.14 74.398 21.856zm26.172 135.483c4.676-15.585-3.371-31.77-17.974-36.152-14.603-4.382-30.232 4.7-34.908 20.284-4.677 15.584 3.371 31.77 17.974 36.151 14.603 4.382 30.231-4.699 34.908-20.283z" fill="#6A8478"/><path d="M270.835 316.653l-6.569 21.894 7.615 2.285 6.57-21.894-7.616-2.285zm12.374 3.712l-6.57 21.893 7.616 2.285 6.569-21.893-7.615-2.285zm12.375 3.713l-6.569 21.893 7.615 2.285 6.569-21.893-7.615-2.285zm12.375 3.713l-6.57 21.893 7.616 2.285 6.569-21.893-7.615-2.285zm12.374 3.714l-6.57 21.893 7.616 2.285 6.569-21.893-7.615-2.285zm12.376 3.714l-6.57 21.894 7.616 2.285 6.569-21.893-7.615-2.286zm12.373 3.712l-6.57 21.893 7.616 2.285 6.569-21.893-7.615-2.285zm12.374 3.713l-6.569 21.893 7.615 2.285 6.57-21.893-7.616-2.285zm268.479-28.187l-2.053 6.841 7.616 2.285 2.053-6.841-7.616-2.285zm12.374 3.713l-2.052 6.842 7.615 2.285 2.053-6.841-7.616-2.286zm12.377 3.716l-2.053 6.841 7.616 2.285 2.053-6.841-7.616-2.285zm12.373 3.71l-2.053 6.842 7.615 2.285 2.053-6.842-7.615-2.285zm12.375 3.714l-2.053 6.842 7.615 2.285 2.053-6.842-7.615-2.285zm12.374 3.713l-2.053 6.841 7.616 2.285 2.053-6.841-7.616-2.285zm12.375 3.714l-2.053 6.841 7.615 2.285 2.053-6.841-7.615-2.285zm12.376 3.715l-2.052 6.841 7.615 2.286 2.053-6.842-7.616-2.285zm-346.723 75.241l-4.088 13.623 177.092 53.138 4.087-13.622-177.091-53.139z" fill="#6A8478"/><path d="M448.72 459.295c-23.015-6.906-40.561-26.724-49.406-55.803-8.711-28.638-7.945-62.95 2.156-96.614s28.352-62.728 51.391-81.84c23.393-19.405 48.951-26.289 71.966-19.383 23.015 6.906 40.56 26.723 49.405 55.801 8.711 28.639 7.945 62.95-2.156 96.614s-28.353 62.729-51.391 81.84c-23.393 19.407-48.95 26.291-71.965 19.385zm74.355-247.802c-43.817-13.148-95.75 30.427-115.767 97.137-20.017 66.71-.654 131.679 43.164 144.827 43.817 13.148 95.75-30.429 115.766-97.138 20.017-66.71.655-131.678-43.163-144.826z" fill="#6A8478"/><path d="M568.731 357.428c20.532-68.427.293-134.966-45.206-148.619-45.499-13.652-99.028 30.752-119.561 99.179-20.532 68.428-.293 134.967 45.206 148.619 45.499 13.653 99.028-30.751 119.561-99.179z" fill="#B7BF97"/><path d="M375.699 579.948L43.855 520.427c-1.463-.262-2.646-2.234-2.646-4.405V106.888c0-2.171 1.183-4.142 2.646-4.405l331.844-59.52c2.422-.435 4.391 1.484 4.391 4.287v528.41c0 2.804-1.97 4.723-4.391 4.289z" fill="#63767C"/><path d="M286.74 311.455c0 65.079-41.656 114.349-89.765 110.323-44.836-3.753-79.005-53.045-79.005-110.323 0-57.278 34.169-106.57 79.005-110.323 48.109-4.026 89.765 45.244 89.765 110.323z" fill="#506266"/><path d="M265.014 311.455c0 49.328-31.311 87.298-68.039 84.932-34.79-2.242-61.673-40.22-61.673-84.932s26.883-82.69 61.673-84.932c36.728-2.366 68.039 35.604 68.039 84.932z" fill="#A4BBBC"/><path d="M219.983 311.455c0 16.681-10.4 29.969-23.008 29.685-12.372-.279-22.232-13.567-22.232-29.685s9.86-29.406 22.232-29.685c12.608-.284 23.008 13.005 23.008 29.685z" fill="#4D4D4D"/><path opacity=".11" d="M215.177 292.653c2.015 4.432 3.177 9.611 3.177 15.156 0 16.66-10.374 29.961-22.952 29.712-7.087-.14-13.337-4.566-17.376-11.322 3.822 8.748 10.97 14.761 19.253 14.947 12.614.284 23.019-13.007 23.019-29.691-.001-7.143-1.924-13.683-5.121-18.802z" fill="#fff"/><path d="M198.823 394.839v-18.862c0-2.601-3.076-2.749-3.076-.15v18.818c0 2.594 3.076 2.798 3.076.194zm0-147.905v-18.862c0-2.601-3.076-2.405-3.076.194v18.818c0 2.595 3.076 2.455 3.076-.15zm-62.358 67.24l13.198-.065c1.842-.009 1.83-3.906-.015-3.891l-13.198.105c-1.797.015-1.786 3.86.015 3.851zm111.5-.546l15.657-.077c2.187-.011 2.173-4.258-.017-4.24l-15.657.125c-2.131.017-2.117 4.203.017 4.192zm-92.373 57.863l9.372-12.843c1.303-1.786-.811-4.583-2.112-2.795l-9.341 12.842c-1.278 1.757.798 4.555 2.081 2.796zm77.372-106.028l10.547-14.453c1.467-2.01-.913-4.791-2.378-2.777l-10.51 14.449c-1.436 1.975.898 4.76 2.341 2.781zm-77.245-13.422l8.855 13.501c1.23 1.876 3.456-.775 2.219-2.655l-8.885-13.506c-1.216-1.847-3.402.81-2.189 2.66zm72.89 111.142l9.898 15.093c1.376 2.098 3.865-.499 2.482-2.602l-9.934-15.101c-1.359-2.066-3.802.543-2.446 2.61z" fill="#4D4D4D"/><path d="M330.721 404.234l-.162-.01c-3.172-.203-5.733-3.426-5.733-7.199V229.668c0-3.774 2.561-6.99 5.733-7.184l.162-.01c3.186-.195 5.78 2.73 5.78 6.534v168.708c0 3.803-2.593 6.722-5.78 6.518zm53.514 175.775h-8.536V42.963h8.536a2.03 2.03 0 012.031 2.031V577.98a2.03 2.03 0 01-2.031 2.03zM56.229 210.448v-28.044c0-7.238-5.867-13.105-13.105-13.105s-13.105 5.867-13.105 13.105v28.044h26.21zm-26.21 3.669v28.044c0 7.238 5.867 13.105 13.105 13.105s13.105-5.867 13.105-13.105v-28.044h-26.21zm22.89 185.739v-28.044c0-7.238-5.867-13.105-13.105-13.105s-13.105 5.867-13.105 13.105v28.044h26.21zm-26.21 3.669v28.044c0 7.238 5.867 13.105 13.105 13.105s13.105-5.867 13.105-13.105v-28.044h-26.21z" fill="#798E91"/><path d="M620.412 260.742c.103-.371.233-.734.4-1.084 1.555-3.265 5.165-3.387 7.289-5.798.947-1.075 1.053-5.359 3.282-4.536.82.311 3.671 1.119 6.481 2.109 2.477-.071 4.962-.031 7.421-.336 6.223-.772 18.458-9.733 23.24-2.573.925 1.385 1.867 2.808 2.253 4.429.315 1.325.238 2.709.097 4.064-.11 1.055-.033 2.756-.833 3.411-.841.687-3.576.701-4.67.916l-9.377 1.841c-3.066.602-6.621 1.597-7.725 4.52-.242.639-.342 1.334-.668 1.935-.368.678-.99 1.176-1.608 1.636-2.265 1.688-4.723 3.237-7.328 4.356-4.658 1.998-11.328-2.314-15.236-4.457-.973-.534-1.963-1.119-2.608-2.022-1.049-1.469-.969-3.433-.845-5.233.072-1.068.151-2.155.435-3.178z" fill="#E5D1BD"/><path d="M734.554 238.168c-2.309 3.271-4.657 6.584-7.749 9.128-2.465 2.028-5.331 3.504-8.205 4.892a191.191 191.191 0 01-56.609 17.151 70.862 70.862 0 01-6.829-26.904 306.474 306.474 0 0043.925-21.123c2.873-1.675 5.754-3.424 8.078-5.804 3.348-3.429 5.323-7.933 7.228-12.331l22.16-51.166c4.457-10.29 9.152-20.919 17.5-28.407 23.147-20.762 52.599 5.296 39.678 31.268-14.509 29.162-40.339 56.611-59.177 83.296z" fill="#9EC6CC"/></svg>