<svg width="701" height="112" viewBox="0 0 701 112" fill="none" xmlns="http://www.w3.org/2000/svg">
<path d="M197.518 88.7431C190.825 88.7431 184.737 87.189 179.256 84.0808C173.838 80.9091 169.567 76.5957 166.444 71.1404C163.32 65.6852 161.759 59.6907 161.759 53.1571C161.759 46.6235 163.32 40.6291 166.444 35.1738C169.567 29.7185 173.838 25.4368 179.256 22.3286C184.737 19.1569 190.825 17.5711 197.518 17.5711C204.21 17.5711 210.266 19.1569 215.684 22.3286C221.166 25.4368 225.468 29.7185 228.591 35.1738C231.715 40.6291 233.276 46.6235 233.276 53.1571C233.276 59.6907 231.715 65.6852 228.591 71.1404C225.468 76.5957 221.166 80.9091 215.684 84.0808C210.266 87.189 204.21 88.7431 197.518 88.7431ZM197.518 76.564C201.725 76.564 205.581 75.5807 209.087 73.6143C212.592 71.6479 215.333 68.8885 217.309 65.3363C219.349 61.784 220.369 57.7243 220.369 53.1571C220.369 48.5899 219.349 44.5302 217.309 40.9779C215.333 37.4257 212.592 34.6663 209.087 32.6999C205.581 30.7335 201.725 29.7503 197.518 29.7503C193.311 29.7503 189.454 30.7335 185.949 32.6999C182.507 34.6663 179.766 37.4257 177.726 40.9779C175.75 44.5302 174.762 48.5899 174.762 53.1571C174.762 57.7243 175.75 61.784 177.726 65.3363C179.766 68.8885 182.507 71.6479 185.949 73.6143C189.454 75.5807 193.311 76.564 197.518 76.564ZM243.396 38.6943H255.157V44.5936H255.922C257.26 42.5003 259.204 40.7559 261.754 39.3604C264.303 37.9014 267.236 37.172 270.55 37.172C274.948 37.172 278.932 38.282 282.502 40.5022C286.135 42.6589 288.971 45.7037 291.011 49.6366C293.051 53.5694 294.071 58.0097 294.071 62.9575C294.071 67.9688 293.051 72.4408 291.011 76.3737C288.971 80.2431 286.135 83.2879 282.502 85.508C278.932 87.6648 274.948 88.7431 270.55 88.7431C267.236 88.7431 264.272 88.0454 261.658 86.6498C259.109 85.2543 257.196 83.5099 255.922 81.4166H255.157L255.922 88.2674V107.773H243.396V38.6943ZM268.351 77.23C270.709 77.23 272.909 76.6274 274.948 75.4222C276.988 74.2169 278.613 72.536 279.824 70.3792C281.036 68.2225 281.641 65.7486 281.641 62.9575C281.641 60.1665 281.036 57.6926 279.824 55.5359C278.613 53.3791 276.988 51.7299 274.948 50.5881C272.909 49.3828 270.709 48.7802 268.351 48.7802C266.056 48.7802 263.889 49.3828 261.849 50.5881C259.81 51.7299 258.184 53.3791 256.973 55.5359C255.762 57.6926 255.157 60.1665 255.157 62.9575C255.157 65.7486 255.762 68.2225 256.973 70.3792C258.184 72.536 259.81 74.2169 261.849 75.4222C263.889 76.6274 266.056 77.23 268.351 77.23ZM326.575 88.7431C321.73 88.7431 317.364 87.633 313.476 85.4129C309.588 83.1927 306.528 80.1479 304.297 76.2785C302.13 72.3456 301.046 67.937 301.046 63.0527C301.046 58.4221 302.13 54.1403 304.297 50.2075C306.464 46.2112 309.46 43.0395 313.285 40.6925C317.109 38.3455 321.38 37.172 326.097 37.172C331.132 37.172 335.467 38.2503 339.1 40.407C342.733 42.5638 345.474 45.5134 347.322 49.256C349.235 52.9985 350.191 57.1534 350.191 61.7206C350.191 63.1796 350.095 64.5751 349.904 65.9072H313.285C313.922 69.7766 315.452 72.7263 317.874 74.7561C320.36 76.7225 323.324 77.7058 326.766 77.7058C329.634 77.7058 332.088 77.1031 334.128 75.8979C336.231 74.6292 337.889 72.9483 339.1 70.855L349.235 75.8028C344.263 84.4297 336.71 88.7431 326.575 88.7431ZM338.144 57.0583C338.016 55.5359 337.443 54.0452 336.423 52.5862C335.467 51.0638 334.096 49.8269 332.311 48.8754C330.59 47.8604 328.551 47.353 326.192 47.353C323.196 47.353 320.615 48.241 318.448 50.0172C316.344 51.7299 314.814 54.0769 313.858 57.0583H338.144ZM359.839 38.6943H371.599V44.7839H372.364C373.83 42.4369 375.901 40.5973 378.579 39.2652C381.256 37.8697 384.156 37.172 387.279 37.172C393.143 37.172 397.605 38.9481 400.665 42.5003C403.724 46.0526 405.254 50.9052 405.254 57.0583V87.2207H392.729V58.5806C392.729 55.4724 391.932 53.062 390.339 51.3493C388.745 49.6366 386.514 48.7802 383.646 48.7802C380.268 48.7802 377.527 50.0806 375.423 52.6814C373.384 55.2821 372.364 58.5489 372.364 62.4818V87.2207H359.839V38.6943ZM439.448 88.7431C433.457 88.7431 428.166 87.0621 423.577 83.7002C418.987 80.3382 415.769 75.5807 413.92 69.4277L426.063 64.6702C427.019 68.2859 428.644 71.1721 430.939 73.3289C433.234 75.4856 436.102 76.564 439.544 76.564C442.412 76.564 444.866 75.8662 446.906 74.4707C448.946 73.0117 449.966 71.0135 449.966 68.4762C449.966 65.9389 448.978 63.8773 447.002 62.2915C445.09 60.6422 441.648 58.8978 436.676 57.0583L432.469 55.5359C428.071 54.0135 424.31 51.6981 421.187 48.5899C418.063 45.4183 416.502 41.4537 416.502 36.6962C416.502 33.1439 417.426 29.9088 419.274 26.9909C421.123 24.073 423.736 21.7894 427.115 20.1401C430.493 18.4274 434.317 17.5711 438.588 17.5711C444.771 17.5711 449.647 19.0301 453.217 21.948C456.786 24.8025 459.24 28.1644 460.579 32.0339L449.201 36.7913C448.5 34.6981 447.257 32.9536 445.472 31.5581C443.751 30.0991 441.52 29.3697 438.779 29.3697C435.975 29.3697 433.648 30.0357 431.8 31.3678C430.015 32.6365 429.122 34.3175 429.122 36.4108C429.122 38.4406 429.983 40.185 431.704 41.644C433.425 43.0395 436.261 44.4033 440.213 45.7354L444.516 47.1627C450.444 49.1925 454.969 51.8885 458.093 55.2504C461.28 58.5489 462.873 62.8941 462.873 68.2859C462.873 72.7263 461.726 76.5005 459.431 79.6087C457.137 82.6535 454.173 84.9371 450.539 86.4595C446.97 87.9819 443.273 88.7431 439.448 88.7431ZM473.378 19.0935H485.903V36.3156L485.138 44.7839H485.903C487.305 42.5003 489.345 40.6608 492.022 39.2652C494.699 37.8697 497.599 37.172 500.723 37.172C506.651 37.172 511.176 38.9481 514.3 42.5003C517.487 45.9892 519.08 50.8418 519.08 57.0583V87.2207H506.555V58.5806C506.555 55.4724 505.695 53.062 503.974 51.3493C502.316 49.6366 500.085 48.7802 497.281 48.7802C493.966 48.7802 491.225 50.1123 489.058 52.7765C486.955 55.4407 485.903 58.7075 485.903 62.5769V87.2207H473.378V19.0935ZM537.969 33.366C535.739 33.366 533.826 32.573 532.233 30.9872C530.639 29.4014 529.842 27.4984 529.842 25.2782C529.842 23.0581 530.639 21.1868 532.233 19.6644C533.826 18.0786 535.739 17.2856 537.969 17.2856C540.2 17.2856 542.081 18.0786 543.611 19.6644C545.204 21.1868 546.001 23.0581 546.001 25.2782C546.001 27.4984 545.204 29.4014 543.611 30.9872C542.081 32.573 540.2 33.366 537.969 33.366ZM531.659 38.6943H544.184V87.2207H531.659V38.6943ZM556.936 38.6943H568.697V44.5936H569.462C570.8 42.5003 572.744 40.7559 575.294 39.3604C577.844 37.9014 580.776 37.172 584.09 37.172C588.488 37.172 592.472 38.282 596.042 40.5022C599.675 42.6589 602.511 45.7037 604.551 49.6366C606.591 53.5694 607.611 58.0097 607.611 62.9575C607.611 67.9688 606.591 72.4408 604.551 76.3737C602.511 80.2431 599.675 83.2879 596.042 85.508C592.472 87.6648 588.488 88.7431 584.09 88.7431C580.776 88.7431 577.812 88.0454 575.198 86.6498C572.649 85.2543 570.736 83.5099 569.462 81.4166H568.697L569.462 88.2674V107.773H556.936V38.6943ZM581.891 77.23C584.25 77.23 586.449 76.6274 588.488 75.4222C590.528 74.2169 592.154 72.536 593.365 70.3792C594.576 68.2225 595.181 65.7486 595.181 62.9575C595.181 60.1665 594.576 57.6926 593.365 55.5359C592.154 53.3791 590.528 51.7299 588.488 50.5881C586.449 49.3828 584.25 48.7802 581.891 48.7802C579.596 48.7802 577.429 49.3828 575.39 50.5881C573.35 51.7299 571.724 53.3791 570.513 55.5359C569.302 57.6926 568.697 60.1665 568.697 62.9575C568.697 65.7486 569.302 68.2225 570.513 70.3792C571.724 72.536 573.35 74.2169 575.39 75.4222C577.429 76.6274 579.596 77.23 581.891 77.23ZM638.202 19.0935H653.021L678.741 87.2207H664.495L658.758 70.9501H632.56L626.824 87.2207H612.578L638.202 19.0935ZM654.551 59.1515L648.528 42.0246L646.042 33.8417H645.277L642.791 42.0246L636.672 59.1515H654.551ZM687.984 19.0935H700.892V87.2207H687.984V19.0935Z" fill="url(#paint0_linear_1259_1911)"/>
<path d="M105.003 28C111.052 38.4242 113.563 50.51 112.166 62.4663C110.77 74.4227 105.539 85.6129 97.2499 94.3779C88.961 103.144 78.0542 109.018 66.1468 111.13C54.2394 113.243 41.9647 111.481 31.1426 106.106L35.8062 96.8072C44.6197 101.184 54.6164 102.619 64.3141 100.899C74.0113 99.178 82.8942 94.3937 89.645 87.2555C96.3957 80.1169 100.656 71.0033 101.792 61.2661C102.931 51.529 100.885 41.6859 95.9597 33.1966L105.003 28Z" fill="url(#paint1_linear_1259_1911)"/>
<path d="M7.53903 83.9995C1.34651 73.3259 -1.13447 60.9166 0.480611 48.6971C2.0957 36.4771 7.7167 25.1288 16.4721 16.4115C25.2276 7.69415 36.6283 2.09495 48.9065 0.481796C61.1854 -1.13136 73.6555 1.33177 84.384 7.48918L79.1664 16.4923C70.4293 11.4776 60.2733 9.47167 50.2736 10.7854C40.2739 12.0992 30.989 16.6592 23.8585 23.7587C16.728 30.8582 12.1503 40.1003 10.8349 50.0521C9.51955 60.0041 11.5401 70.1103 16.5833 78.8029L7.53903 83.9995Z" fill="url(#paint2_linear_1259_1911)"/>
<path d="M92.3456 20.3231C92.5221 18.1934 94.7822 16.895 96.7237 17.8078L110.233 24.1585C112.477 25.2131 112.606 28.3412 110.457 29.5755L95.7194 38.0434C93.5712 39.2778 90.9139 37.6023 91.1175 35.1417L92.3456 20.3231Z" fill="url(#paint3_linear_1259_1911)"/>
<path d="M22.4334 92.5859C22.2569 94.7154 19.997 96.0138 18.0555 95.1009L4.54583 88.7504C2.3026 87.6958 2.17314 84.5678 4.32173 83.3334L19.0595 74.8655C21.2081 73.6311 23.8655 75.3068 23.6615 77.7671L22.4334 92.5859Z" fill="url(#paint4_linear_1259_1911)"/>
<defs>
<linearGradient id="paint0_linear_1259_1911" x1="157.361" y1="55.5041" x2="709.121" y2="55.5041" gradientUnits="userSpaceOnUse">
<stop stop-color="#024EC9"/>
<stop offset="1" stop-color="#0057E4"/>
</linearGradient>
<linearGradient id="paint1_linear_1259_1911" x1="31.1426" y1="69.9998" x2="112.543" y2="69.9998" gradientUnits="userSpaceOnUse">
<stop stop-color="#024EC9"/>
<stop offset="1" stop-color="#0057E4"/>
</linearGradient>
<linearGradient id="paint2_linear_1259_1911" x1="-3.44182e-07" y1="41.9997" x2="84.384" y2="41.9997" gradientUnits="userSpaceOnUse">
<stop stop-color="#024EC9"/>
<stop offset="1" stop-color="#0057E4"/>
</linearGradient>
<linearGradient id="paint3_linear_1259_1911" x1="91.1064" y1="27.9854" x2="111.995" y2="27.9854" gradientUnits="userSpaceOnUse">
<stop stop-color="#024EC9"/>
<stop offset="1" stop-color="#0057E4"/>
</linearGradient>
<linearGradient id="paint4_linear_1259_1911" x1="2.78418" y1="84.9235" x2="23.6726" y2="84.9235" gradientUnits="userSpaceOnUse">
<stop stop-color="#024EC9"/>
<stop offset="1" stop-color="#0057E4"/>
</linearGradient>
</defs>
</svg>
