<svg width="721" height="122" fill="none" xmlns="http://www.w3.org/2000/svg"><path d="M8.274 90.206C1.53 78.676-1.571 64.433.779 51.284A56.163 56.163 0 0157.085 5.01c13.355.243 28.549 7.6 38.554 16.45l-12.014 8.548a41.595 41.595 0 00-63.463 52.157L8.274 90.206z" fill="url(#paint0_linear_782_1398)"/><path d="M105.497 34.524c5.157 11.31 7.897 27.238 5.035 39.334a55.968 55.968 0 01-53.454 43.073c-19.477 0-28.083-6.01-38.038-13.454l12.264-9.394a41.347 41.347 0 0062.382-50.268l11.811-9.291z" fill="url(#paint1_linear_782_1398)"/><path d="M217.568 94.536c-5.056 0-9.568-1.12-13.536-3.36-3.968-2.304-7.072-5.408-9.312-9.312-2.176-3.968-3.264-8.416-3.264-13.344 0-4.864 1.088-9.28 3.264-13.248 2.24-3.968 5.344-7.072 9.312-9.312 3.968-2.304 8.48-3.456 13.536-3.456 4.992 0 9.472 1.152 13.44 3.456 3.968 2.24 7.04 5.344 9.216 9.312 2.24 3.968 3.36 8.384 3.36 13.248 0 4.928-1.12 9.376-3.36 13.344-2.176 3.904-5.248 7.008-9.216 9.312-3.968 2.24-8.448 3.36-13.44 3.36zm0-11.616c2.432 0 4.672-.576 6.72-1.728 2.048-1.152 3.68-2.816 4.896-4.992 1.216-2.176 1.824-4.736 1.824-7.68 0-2.88-.608-5.408-1.824-7.584-1.216-2.176-2.848-3.84-4.896-4.992-2.048-1.152-4.288-1.728-6.72-1.728-2.432 0-4.672.576-6.72 1.728-2.048 1.152-3.712 2.816-4.992 4.992-1.216 2.176-1.824 4.704-1.824 7.584s.608 5.44 1.824 7.68c1.28 2.176 2.944 3.84 4.992 4.992 2.048 1.152 4.288 1.728 6.72 1.728zm34.786-38.88h11.808v5.952h.768c1.344-2.112 3.296-3.872 5.856-5.28 2.56-1.472 5.504-2.208 8.832-2.208 4.416 0 8.416 1.12 12 3.36 3.648 2.176 6.496 5.248 8.544 9.216 2.048 3.968 3.072 8.448 3.072 13.44 0 5.056-1.024 9.568-3.072 13.536-2.048 3.904-4.896 6.976-8.544 9.216-3.584 2.176-7.584 3.264-12 3.264-3.328 0-6.304-.704-8.928-2.112-2.56-1.408-4.48-3.168-5.76-5.28h-.768l.768 6.912v19.68h-12.576V44.04zm25.056 38.88a12.75 12.75 0 006.624-1.824c2.048-1.216 3.68-2.912 4.896-5.088 1.216-2.176 1.824-4.672 1.824-7.488 0-2.816-.608-5.312-1.824-7.488-1.216-2.176-2.848-3.84-4.896-4.992a12.75 12.75 0 00-6.624-1.824c-2.304 0-4.48.608-6.528 1.824-2.048 1.152-3.68 2.816-4.896 4.992-1.216 2.176-1.824 4.672-1.824 7.488 0 2.816.608 5.312 1.824 7.488 1.216 2.176 2.848 3.872 4.896 5.088 2.048 1.216 4.224 1.824 6.528 1.824zm58.46 11.616c-4.864 0-9.248-1.12-13.152-3.36-3.904-2.24-6.976-5.312-9.216-9.216-2.176-3.968-3.264-8.416-3.264-13.344 0-4.672 1.088-8.992 3.264-12.96 2.176-4.032 5.184-7.232 9.024-9.6 3.84-2.368 8.128-3.552 12.864-3.552 5.056 0 9.408 1.088 13.056 3.264 3.648 2.176 6.4 5.152 8.256 8.928 1.92 3.776 2.88 7.968 2.88 12.576 0 1.472-.096 2.88-.288 4.224h-36.768c.64 3.904 2.176 6.88 4.608 8.928 2.496 1.984 5.472 2.976 8.928 2.976 2.88 0 5.344-.608 7.392-1.824 2.112-1.28 3.776-2.976 4.992-5.088l10.176 4.992c-4.992 8.704-12.576 13.056-22.752 13.056zm11.616-31.968c-.128-1.536-.704-3.04-1.728-4.512-.96-1.536-2.336-2.784-4.128-3.744-1.728-1.024-3.776-1.536-6.144-1.536-3.008 0-5.6.896-7.776 2.688-2.112 1.728-3.648 4.096-4.608 7.104h24.384zm21.783-18.528h11.808v6.144h.768c1.472-2.368 3.552-4.224 6.24-5.568 2.688-1.408 5.6-2.112 8.736-2.112 5.888 0 10.368 1.792 13.44 5.376 3.072 3.584 4.608 8.48 4.608 14.688V93h-12.576V64.104c0-3.136-.8-5.568-2.4-7.296-1.6-1.728-3.84-2.592-6.72-2.592-3.392 0-6.144 1.312-8.256 3.936-2.048 2.624-3.072 5.92-3.072 9.888V93h-12.576V44.04zm75.624 50.496c-5.952 0-10.784-1.216-14.496-3.648-3.648-2.432-6.208-5.6-7.68-9.504l11.232-4.896c1.024 2.304 2.464 4.064 4.32 5.28 1.92 1.152 4.128 1.728 6.624 1.728 2.304 0 4.224-.352 5.76-1.056 1.536-.768 2.304-1.984 2.304-3.648 0-1.6-.704-2.784-2.112-3.552-1.408-.832-3.52-1.568-6.336-2.208l-5.76-1.248c-3.968-.96-7.264-2.688-9.888-5.184-2.624-2.56-3.936-5.728-3.936-9.504 0-2.816.832-5.344 2.496-7.584 1.728-2.24 4.032-3.968 6.912-5.184 2.944-1.216 6.176-1.824 9.696-1.824 10.112 0 16.864 3.552 20.256 10.656l-10.752 4.704c-1.92-3.456-4.992-5.184-9.216-5.184-2.176 0-3.904.416-5.184 1.248-1.28.768-1.92 1.76-1.92 2.976 0 2.304 2.176 4.032 6.528 5.184l7.2 1.728c4.864 1.216 8.512 3.072 10.944 5.568 2.496 2.496 3.744 5.568 3.744 9.216 0 3.136-.928 5.92-2.784 8.352-1.792 2.368-4.288 4.224-7.488 5.568-3.136 1.344-6.624 2.016-10.464 2.016zm29.845-70.272h12.576V41.64l-.768 8.544h.768c1.408-2.304 3.456-4.16 6.144-5.568 2.688-1.408 5.6-2.112 8.736-2.112 5.952 0 10.496 1.792 13.632 5.376 3.2 3.52 4.8 8.416 4.8 14.688V93H508.05V64.104c0-3.136-.864-5.568-2.592-7.296-1.664-1.728-3.904-2.592-6.72-2.592-3.328 0-6.08 1.344-8.256 4.032-2.112 2.688-3.168 5.984-3.168 9.888V93h-12.576V24.264zm64.854 14.4c-2.24 0-4.16-.8-5.76-2.4-1.6-1.6-2.4-3.52-2.4-5.76 0-2.24.8-4.128 2.4-5.664 1.6-1.6 3.52-2.4 5.76-2.4 2.24 0 4.128.8 5.664 2.4 1.6 1.536 2.4 3.424 2.4 5.664 0 2.24-.8 4.16-2.4 5.76-1.536 1.6-3.424 2.4-5.664 2.4zm-6.336 5.376h12.576V93h-12.576V44.04zm25.379 0h11.808v5.952h.768c1.344-2.112 3.296-3.872 5.856-5.28 2.56-1.472 5.504-2.208 8.832-2.208 4.416 0 8.416 1.12 12 3.36 3.648 2.176 6.496 5.248 8.544 9.216 2.048 3.968 3.072 8.448 3.072 13.44 0 5.056-1.024 9.568-3.072 13.536-2.048 3.904-4.896 6.976-8.544 9.216-3.584 2.176-7.584 3.264-12 3.264-3.328 0-6.304-.704-8.928-2.112-2.56-1.408-4.48-3.168-5.76-5.28h-.768l.768 6.912v19.68h-12.576V44.04zm25.056 38.88a12.75 12.75 0 006.624-1.824c2.048-1.216 3.68-2.912 4.896-5.088 1.216-2.176 1.824-4.672 1.824-7.488 0-2.816-.608-5.312-1.824-7.488-1.216-2.176-2.848-3.84-4.896-4.992a12.75 12.75 0 00-6.624-1.824c-2.304 0-4.48.608-6.528 1.824-2.048 1.152-3.68 2.816-4.896 4.992-1.216 2.176-1.824 4.672-1.824 7.488 0 2.816.608 5.312 1.824 7.488 1.216 2.176 2.848 3.872 4.896 5.088 2.048 1.216 4.224 1.824 6.528 1.824zm43.1 10.656c-2.304 0-4.288-.8-5.952-2.4-1.6-1.664-2.4-3.648-2.4-5.952s.8-4.256 2.4-5.856c1.664-1.6 3.648-2.4 5.952-2.4s4.256.8 5.856 2.4c1.664 1.6 2.496 3.552 2.496 5.856s-.832 4.288-2.496 5.952c-1.6 1.6-3.552 2.4-5.856 2.4zm34.861.96c-5.184 0-9.44-1.504-12.768-4.512-3.328-3.072-4.992-7.072-4.992-12 0-3.264.864-6.144 2.592-8.64 1.728-2.496 4.096-4.416 7.104-5.76 3.008-1.344 6.336-2.016 9.984-2.016 5.056 0 9.376.736 12.96 2.208v-2.112c0-2.688-1.024-4.864-3.072-6.528-1.984-1.664-4.672-2.496-8.064-2.496-2.304 0-4.544.544-6.72 1.632-2.112 1.024-3.872 2.4-5.28 4.128l-8.064-6.336c2.368-3.072 5.344-5.44 8.928-7.104 3.584-1.664 7.488-2.496 11.712-2.496 7.488 0 13.184 1.728 17.088 5.184 3.904 3.456 5.856 8.512 5.856 15.168V93h-12.384v-4.992h-.768c-1.472 1.92-3.424 3.488-5.856 4.704-2.368 1.216-5.12 1.824-8.256 1.824zm2.976-9.792c3.648 0 6.528-1.152 8.64-3.456 2.176-2.368 3.264-5.12 3.264-8.256a23.841 23.841 0 00-10.272-2.304c-6.528 0-9.792 2.432-9.792 7.296 0 1.984.704 3.616 2.112 4.896 1.408 1.216 3.424 1.824 6.048 1.824zm42.964-46.08c-2.24 0-4.16-.8-5.76-2.4-1.6-1.6-2.4-3.52-2.4-5.76 0-2.24.8-4.128 2.4-5.664 1.6-1.6 3.52-2.4 5.76-2.4 2.24 0 4.128.8 5.664 2.4 1.6 1.536 2.4 3.424 2.4 5.664 0 2.24-.8 4.16-2.4 5.76-1.536 1.6-3.424 2.4-5.664 2.4zm-6.336 5.376h12.576V93h-12.576V44.04z" fill="url(#paint2_linear_782_1398)"/><defs><linearGradient id="paint0_linear_782_1398" x1="47.819" y1="5" x2="47.819" y2="90.206" gradientUnits="userSpaceOnUse"><stop stop-color="#024EC9"/><stop offset="1" stop-color="#0061FF"/></linearGradient><linearGradient id="paint1_linear_782_1398" x1="65.365" y1="34.524" x2="65.365" y2="116.931" gradientUnits="userSpaceOnUse"><stop stop-color="#024EC9"/><stop offset="1" stop-color="#0061FF"/></linearGradient><linearGradient id="paint2_linear_782_1398" x1="188" y1="61" x2="721" y2="61" gradientUnits="userSpaceOnUse"><stop stop-color="#024EC9"/><stop offset="1" stop-color="#0061FF"/></linearGradient></defs></svg>