<svg width="204" height="32" viewBox="0 0 204 32" fill="none" xmlns="http://www.w3.org/2000/svg">
    <path d="M59.9282 25.0076C58.089 25.0076 56.416 24.5784 54.9094 23.72C53.4205 22.8441 52.2466 21.6529 51.3882 20.1463C50.5298 18.6398 50.1006 16.9843 50.1006 15.1799C50.1006 13.3756 50.5298 11.7201 51.3882 10.2136C52.2466 8.70699 53.4205 7.52452 54.9094 6.66614C56.416 5.79021 58.089 5.35228 59.9282 5.35228C61.7678 5.35228 63.4319 5.79021 64.9208 6.66614C66.4277 7.52452 67.6101 8.70699 68.4682 10.2136C69.3267 11.7201 69.7559 13.3756 69.7559 15.1799C69.7559 16.9843 69.3267 18.6398 68.4682 20.1463C67.6101 21.6529 66.4277 22.8441 64.9208 23.72C63.4319 24.5784 61.7678 25.0076 59.9282 25.0076ZM59.9282 21.6441C61.0845 21.6441 62.1442 21.3726 63.1078 20.8295C64.0714 20.2865 64.8246 19.5244 65.3676 18.5434C65.9282 17.5624 66.2084 16.4412 66.2084 15.1799C66.2084 13.9186 65.9282 12.7975 65.3676 11.8165C64.8246 10.8354 64.0714 10.0734 63.1078 9.53034C62.1442 8.98727 61.0845 8.71575 59.9282 8.71575C58.7723 8.71575 57.7122 8.98727 56.7486 9.53034C55.8027 10.0734 55.0494 10.8354 54.4888 11.8165C53.9459 12.7975 53.6742 13.9186 53.6742 15.1799C53.6742 16.4412 53.9459 17.5624 54.4888 18.5434C55.0494 19.5244 55.8027 20.2865 56.7486 20.8295C57.7122 21.3726 58.7723 21.6441 59.9282 21.6441ZM72.5372 11.1858H75.7692V12.815H75.9795C76.3474 12.2369 76.8817 11.7552 77.5826 11.3697C78.2831 10.9668 79.0891 10.7654 79.9999 10.7654C81.2086 10.7654 82.3035 11.0719 83.2846 11.6851C84.283 12.2807 85.0628 13.1216 85.6234 14.2077C86.1839 15.2938 86.4642 16.5201 86.4642 17.8865C86.4642 19.2704 86.1839 20.5054 85.6234 21.5916C85.0628 22.6602 84.283 23.5011 83.2846 24.1142C82.3035 24.7098 81.2086 25.0076 79.9999 25.0076C79.0891 25.0076 78.2745 24.8149 77.5564 24.4295C76.8555 24.0441 76.3298 23.5623 75.9795 22.9842H75.7692L75.9795 24.8762V30.263H72.5372V11.1858ZM79.3956 21.8281C80.0437 21.8281 80.648 21.6616 81.2086 21.3288C81.7692 20.996 82.2159 20.5317 82.549 19.9361C82.8816 19.3405 83.0481 18.6573 83.0481 17.8865C83.0481 17.1157 82.8816 16.4325 82.549 15.8369C82.2159 15.2412 81.7692 14.7858 81.2086 14.4705C80.648 14.1376 80.0437 13.9712 79.3956 13.9712C78.765 13.9712 78.1693 14.1376 77.6088 14.4705C77.0482 14.7858 76.6014 15.2412 76.2687 15.8369C75.9357 16.4325 75.7692 17.1157 75.7692 17.8865C75.7692 18.6573 75.9357 19.3405 76.2687 19.9361C76.6014 20.5317 77.0482 20.996 77.6088 21.3288C78.1693 21.6616 78.765 21.8281 79.3956 21.8281ZM95.3973 25.0076C94.0659 25.0076 92.8659 24.701 91.7972 24.0879C90.7288 23.4748 89.888 22.6339 89.2747 21.5653C88.679 20.4792 88.3814 19.2617 88.3814 17.9128C88.3814 16.6339 88.679 15.4515 89.2747 14.3654C89.8704 13.2617 90.6936 12.3858 91.7448 11.7376C92.7959 11.0895 93.9697 10.7654 95.266 10.7654C96.6498 10.7654 97.8412 11.0632 98.8396 11.6588C99.838 12.2544 100.591 13.069 101.099 14.1026C101.625 15.1361 101.888 16.2836 101.888 17.5449C101.888 17.9478 101.862 18.3332 101.809 18.7011H91.7448C91.9199 19.7697 92.3405 20.5843 93.0062 21.1449C93.6891 21.6879 94.5038 21.9595 95.4497 21.9595C96.2382 21.9595 96.9125 21.793 97.4731 21.4602C98.0512 21.1098 98.5069 20.6456 98.8396 20.0675L101.625 21.4339C100.259 23.8164 98.1825 25.0076 95.3973 25.0076ZM98.5769 16.2573C98.5418 15.8369 98.3842 15.4252 98.1039 15.0223C97.8412 14.6018 97.4644 14.2602 96.9739 13.9975C96.5009 13.7172 95.9403 13.577 95.2922 13.577C94.4689 13.577 93.7594 13.8223 93.1637 14.3128C92.5856 14.7858 92.1653 15.434 91.9023 16.2573H98.5769ZM104.539 11.1858H107.771V12.8675H107.982C108.384 12.2194 108.954 11.7113 109.69 11.3435C110.425 10.9581 111.222 10.7654 112.081 10.7654C113.692 10.7654 114.919 11.2559 115.76 12.2369C116.6 13.2179 117.021 14.558 117.021 16.2573V24.5872H113.579V16.6777C113.579 15.8193 113.36 15.1536 112.922 14.6807C112.484 14.2077 111.871 13.9712 111.082 13.9712C110.154 13.9712 109.401 14.3303 108.823 15.0485C108.262 15.7668 107.982 16.669 107.982 17.7551V24.5872H104.539V11.1858ZM126.419 25.0076C124.772 25.0076 123.318 24.5434 122.057 23.6149C120.795 22.6865 119.911 21.3726 119.403 19.6733L122.74 18.3595C123.003 19.358 123.449 20.1551 124.08 20.7507C124.711 21.3463 125.499 21.6441 126.445 21.6441C127.233 21.6441 127.908 21.4514 128.468 21.066C129.029 20.6631 129.309 20.1113 129.309 19.4106C129.309 18.7098 129.037 18.1405 128.494 17.7026C127.969 17.2471 127.023 16.7653 125.657 16.2573L124.5 15.8369C123.292 15.4164 122.258 14.777 121.4 13.9186C120.541 13.0427 120.112 11.9478 120.112 10.634C120.112 9.65297 120.366 8.75953 120.874 7.95372C121.382 7.14788 122.1 6.51724 123.029 6.06176C123.957 5.58877 125.008 5.35228 126.182 5.35228C127.882 5.35228 129.222 5.75518 130.203 6.56102C131.183 7.34935 131.858 8.27778 132.226 9.34639L129.099 10.6603C128.906 10.0822 128.564 9.60043 128.074 9.21501C127.601 8.8121 126.988 8.61064 126.235 8.61064C125.464 8.61064 124.824 8.79459 124.316 9.16247C123.826 9.51283 123.581 9.97706 123.581 10.5552C123.581 11.1157 123.817 11.5975 124.29 12.0004C124.763 12.3858 125.543 12.7624 126.629 13.1303L127.811 13.5245C129.44 14.085 130.684 14.8296 131.543 15.758C132.419 16.669 132.857 17.869 132.857 19.358C132.857 20.5843 132.541 21.6266 131.911 22.485C131.28 23.3259 130.465 23.9565 129.467 24.3769C128.486 24.7974 127.47 25.0076 126.419 25.0076ZM135.743 5.7727H139.186V10.5289L138.976 12.8675H139.186C139.571 12.2369 140.132 11.7289 140.868 11.3435C141.603 10.9581 142.4 10.7654 143.259 10.7654C144.888 10.7654 146.132 11.2559 146.99 12.2369C147.866 13.2004 148.304 14.5405 148.304 16.2573V24.5872H144.862V16.6777C144.862 15.8193 144.625 15.1536 144.152 14.6807C143.697 14.2077 143.084 13.9712 142.313 13.9712C141.402 13.9712 140.648 14.3391 140.053 15.0748C139.475 15.8106 139.186 16.7128 139.186 17.7814V24.5872H135.743V5.7727ZM153.495 9.7143C152.882 9.7143 152.357 9.49532 151.919 9.05735C151.481 8.61939 151.262 8.09386 151.262 7.48073C151.262 6.8676 151.481 6.3508 151.919 5.93038C152.357 5.49242 152.882 5.27344 153.495 5.27344C154.108 5.27344 154.625 5.49242 155.046 5.93038C155.484 6.3508 155.703 6.8676 155.703 7.48073C155.703 8.09386 155.484 8.61939 155.046 9.05735C154.625 9.49532 154.108 9.7143 153.495 9.7143ZM151.761 11.1858H155.203V24.5872H151.761V11.1858ZM158.708 11.1858H161.94V12.815H162.15C162.518 12.2369 163.052 11.7552 163.753 11.3697C164.454 10.9668 165.26 10.7654 166.171 10.7654C167.38 10.7654 168.475 11.0719 169.455 11.6851C170.454 12.2807 171.234 13.1216 171.794 14.2077C172.355 15.2938 172.635 16.5201 172.635 17.8865C172.635 19.2704 172.355 20.5054 171.794 21.5916C171.234 22.6602 170.454 23.5011 169.455 24.1142C168.475 24.7098 167.38 25.0076 166.171 25.0076C165.26 25.0076 164.445 24.8149 163.727 24.4295C163.026 24.0441 162.501 23.5623 162.15 22.9842H161.94L162.15 24.8762V30.263H158.708V11.1858ZM165.566 21.8281C166.214 21.8281 166.819 21.6616 167.38 21.3288C167.94 20.996 168.387 20.5317 168.72 19.9361C169.052 19.3405 169.219 18.6573 169.219 17.8865C169.219 17.1157 169.052 16.4325 168.72 15.8369C168.387 15.2412 167.94 14.7858 167.38 14.4705C166.819 14.1376 166.214 13.9712 165.566 13.9712C164.936 13.9712 164.34 14.1376 163.78 14.4705C163.219 14.7858 162.772 15.2412 162.439 15.8369C162.106 16.4325 161.94 17.1157 161.94 17.8865C161.94 18.6573 162.106 19.3405 162.439 19.9361C162.772 20.5317 163.219 20.996 163.78 21.3288C164.34 21.6616 164.936 21.8281 165.566 21.8281ZM181.042 5.7727H185.115L192.184 24.5872H188.269L186.692 20.0938H179.492L177.915 24.5872H174L181.042 5.7727ZM185.536 16.8354L183.88 12.1055L183.197 9.84568H182.987L182.304 12.1055L180.622 16.8354H185.536ZM194.724 5.7727H198.272V24.5872H194.724V5.7727Z" fill="#939393"/>
    <path d="M34.5024 8.23242C36.1647 11.1112 36.8548 14.4489 36.471 17.7509C36.0873 21.0528 34.6497 24.1432 32.3715 26.5638C30.0935 28.9846 27.0959 30.6069 23.8234 31.1902C20.5509 31.7738 17.1774 31.2871 14.2031 29.8027L15.4849 27.2347C17.907 28.4434 20.6545 28.8398 23.3197 28.3646C25.9848 27.8894 28.4261 26.5682 30.2815 24.5968C32.1368 22.6254 33.3077 20.1085 33.62 17.4194C33.9328 14.7303 33.3706 12.012 32.0169 9.66753L34.5024 8.23242Z" fill="#939393"/>
    <path d="M7.7165 23.6978C6.01459 20.7502 5.33274 17.3231 5.77662 13.9485C6.2205 10.5738 7.76533 7.43972 10.1716 5.0323C12.5779 2.62486 15.7112 1.07856 19.0856 0.633056C22.4602 0.187556 25.8874 0.867791 28.836 2.56826L27.402 5.05464C25.0007 3.66974 22.2096 3.11576 19.4613 3.47857C16.7131 3.84138 14.1613 5.10072 12.2016 7.06136C10.2419 9.022 8.98381 11.5744 8.62231 14.3227C8.26081 17.0711 8.81611 19.8621 10.2021 22.2627L7.7165 23.6978Z" fill="#939393"/>
    <path d="M31.0242 6.11237C31.0727 5.5242 31.6938 5.16565 32.2274 5.41768L35.9402 7.17158C36.5569 7.46282 36.5922 8.32666 36.0018 8.66757L31.9514 11.0061C31.361 11.347 30.6307 10.8843 30.6866 10.2048L31.0242 6.11237Z" fill="#939393"/>
    <path d="M11.8094 26.0691C11.7609 26.6572 11.1398 27.0157 10.6062 26.7639L6.89334 25.0099C6.27682 24.7187 6.24125 23.8548 6.83175 23.5139L10.8822 21.1754C11.4727 20.8345 12.203 21.2972 12.1469 21.9767L11.8094 26.0691Z" fill="#939393"/>
</svg>
