<svg width="16" height="16" fill="none" xmlns="http://www.w3.org/2000/svg"><path d="M8 8c-1.1 0-2.042-.392-2.825-1.175C4.392 6.042 4 5.1 4 4s.392-2.042 1.175-2.825C5.958.392 6.9 0 8 0s2.042.392 2.825 1.175C11.608 1.958 12 2.9 12 4s-.392 2.042-1.175 2.825C10.042 7.608 9.1 8 8 8zm-8 8v-2.8c0-.567.146-1.087.438-1.563A2.911 2.911 0 011.6 10.55a14.844 14.844 0 013.15-1.163A13.759 13.759 0 018 9c1.1 0 2.183.13 3.25.387 1.067.259 2.117.646 3.15 1.163.483.25.87.612 1.162 1.087.292.476.438.996.438 1.563V16H0zm2-2h12v-.8a.973.973 0 00-.5-.85c-.9-.45-1.808-.787-2.725-1.012a11.6 11.6 0 00-5.55 0c-.917.225-1.825.562-2.725 1.012a.973.973 0 00-.5.85v.8zm6-8c.55 0 1.02-.196 1.412-.588C9.804 5.021 10 4.55 10 4c0-.55-.196-1.02-.588-1.413A1.926 1.926 0 008 2c-.55 0-1.02.196-1.412.587A1.926 1.926 0 006 4c0 .55.196 1.02.588 1.412C6.979 5.804 7.45 6 8 6z" fill="#1C1B1F"/></svg>