<svg width="16" height="17" fill="none" xmlns="http://www.w3.org/2000/svg"><path d="M13.166 14.33H2.733a1.739 1.739 0 01-1.74-1.738V6.133a1.739 1.739 0 011.74-1.739H9.19a.248.248 0 110 .497H2.733A1.242 1.242 0 001.49 6.133v6.459a1.242 1.242 0 001.243 1.242h10.433a1.242 1.242 0 001.242-1.242v-4.72a.248.248 0 01.497 0v4.72a1.739 1.739 0 01-1.739 1.739zm-.994-1.49a.248.248 0 01-.248-.248v-.27l-.191.19a.248.248 0 01-.35-.35l.19-.191h-.27a.248.248 0 110-.497h.27l-.19-.191a.248.248 0 01.35-.35l.19.19v-.27a.249.249 0 01.498 0v.27l.191-.19a.248.248 0 01.35.35l-.191.191h.27a.248.248 0 010 .497h-.27l.191.191a.249.249 0 01-.35.35l-.191-.19v.27a.249.249 0 01-.249.248zm-2.98 0a.248.248 0 01-.25-.248v-.27l-.19.19a.248.248 0 01-.35-.35l.19-.191h-.27a.248.248 0 110-.497h.27l-.19-.191a.248.248 0 01.35-.35l.19.19v-.27a.248.248 0 11.498 0v.27l.191-.19a.249.249 0 01.35.35l-.191.191h.27a.248.248 0 010 .497h-.27l.191.191a.248.248 0 01-.35.35l-.191-.19v.27a.248.248 0 01-.249.248zm-2.982 0a.248.248 0 01-.248-.248v-.27l-.191.19a.248.248 0 11-.35-.35l.19-.191h-.27a.248.248 0 110-.497h.27l-.19-.191a.249.249 0 11.35-.35l.19.19v-.27a.248.248 0 11.498 0v.27l.191-.19a.247.247 0 01.364-.014.248.248 0 01-.014.364l-.191.191h.27a.248.248 0 010 .497h-.27l.191.191a.25.25 0 01-.07.42.249.249 0 01-.28-.07l-.191-.19v.27a.248.248 0 01-.249.248zm-2.98 0a.248.248 0 01-.249-.248v-.27l-.191.19a.248.248 0 01-.35-.35l.19-.191h-.27a.248.248 0 110-.497h.27l-.19-.191a.248.248 0 01.35-.35l.191.19v-.27a.248.248 0 11.497 0v.27l.191-.19a.249.249 0 01.35.35l-.19.191h.27a.248.248 0 010 .497h-.27l.19.191a.249.249 0 11-.35.35l-.191-.19v.27a.248.248 0 01-.249.248zm6.458-3.425a.248.248 0 01-.248-.246V7.845a.231.231 0 01.042-.14l3.113-4.662.412-.616a.994.994 0 111.65 1.1L11.12 8.811a.23.23 0 01-.114.092L9.78 9.4a.288.288 0 01-.092.015zm.249-1.49v.881l.817-.328 2.941-4.402-.825-.554-2.933 4.402zm3.229-4.808l.827.554.276-.412a.51.51 0 10-.855-.561l-.248.42z" fill="#9390A0"/></svg>