<svg width="1000" height="40" viewBox="0 0 1205 53" fill="none" xmlns="http://www.w3.org/2000/svg"><path d="M0 5a5 5 0 015-5h161.395l17.872 25.884L166.395 53H5a5 5 0 01-5-5V5z" fill="#00AE5A"/><path d="M42.312 20.544h4.032a4.25 4.25 0 011.984.464 3.405 3.405 0 011.408 1.28c.341.544.512 1.168.512 1.872 0 .704-.17 1.333-.512 1.888-.341.555-.81.987-1.408 1.296a4.373 4.373 0 01-1.984.448h-1.872V32h-2.16V20.544zm4.096 5.2c.533 0 .95-.155 1.248-.464.31-.31.464-.683.464-1.12 0-.437-.155-.805-.464-1.104-.299-.31-.715-.464-1.248-.464h-1.936v3.152h1.936zm8.17 6.512c-.982 0-1.729-.304-2.24-.912-.513-.608-.769-1.456-.769-2.544v-4.96h2.096v4.704c0 .555.134.992.4 1.312.267.31.619.464 1.056.464.598 0 1.072-.219 1.424-.656.352-.437.528-.992.528-1.664v-4.16h2.096V32h-1.968v-1.024h-.128c-.245.395-.592.71-1.04.944a3.147 3.147 0 01-1.456.336zm11.177 0a3.09 3.09 0 01-1.487-.352c-.427-.235-.747-.528-.96-.88h-.129V32h-1.968V20.544h2.096v3.136l-.128 1.152h.128c.224-.352.55-.645.977-.88.426-.245.917-.368 1.471-.368.737 0 1.403.187 2 .56a3.743 3.743 0 011.425 1.536c.34.661.511 1.408.511 2.24 0 .843-.17 1.595-.511 2.256a3.878 3.878 0 01-1.425 1.536 3.778 3.778 0 01-2 .544zm-.367-1.936a2.12 2.12 0 001.103-.304 2.23 2.23 0 00.817-.848c.202-.363.303-.779.303-1.248 0-.47-.1-.885-.303-1.248a2.112 2.112 0 00-.817-.832 2.125 2.125 0 00-2.192 0c-.34.192-.613.47-.816.832a2.515 2.515 0 00-.303 1.248c0 .47.1.885.303 1.248.203.363.475.645.816.848.342.203.704.304 1.088.304zm5.84-9.776h2.095V32h-2.096V20.544zm5.34 2.4c-.374 0-.694-.133-.96-.4a1.31 1.31 0 01-.4-.96c0-.373.133-.688.4-.944.266-.267.586-.4.96-.4.373 0 .687.133.943.4.267.256.4.57.4.944 0 .373-.133.693-.4.96-.256.267-.57.4-.944.4zm-1.057.896h2.096V32h-2.096v-8.16zm8.056 8.416c-.821 0-1.557-.181-2.208-.544a4.052 4.052 0 01-1.536-1.552c-.362-.661-.544-1.408-.544-2.24 0-.832.181-1.573.544-2.224a4.052 4.052 0 011.536-1.552c.65-.373 1.387-.56 2.208-.56.907 0 1.686.197 2.336.592.65.384 1.12.933 1.408 1.648l-1.92.8c-.341-.725-.95-1.088-1.824-1.088-.64 0-1.168.219-1.584.656-.405.437-.608 1.013-.608 1.728 0 .725.203 1.307.608 1.744.416.437.944.656 1.584.656.886 0 1.526-.384 1.92-1.152l1.904.832a3.926 3.926 0 01-1.504 1.664c-.65.395-1.424.592-2.32.592zm7.75 0c-.864 0-1.573-.25-2.128-.752-.555-.512-.832-1.179-.832-2 0-.544.144-1.024.432-1.44a2.783 2.783 0 011.184-.96 4.033 4.033 0 011.664-.336c.843 0 1.563.123 2.16.368v-.352c0-.448-.17-.81-.512-1.088-.33-.277-.779-.416-1.344-.416-.384 0-.758.09-1.12.272-.352.17-.645.4-.88.688l-1.344-1.056c.395-.512.89-.907 1.488-1.184a4.578 4.578 0 011.952-.416c1.248 0 2.197.288 2.848.864.65.576.976 1.419.976 2.528V32h-2.064v-.832h-.128a2.76 2.76 0 01-.976.784c-.395.203-.853.304-1.376.304zm.496-1.632c.608 0 1.088-.192 1.44-.576.362-.395.544-.853.544-1.376a3.974 3.974 0 00-1.712-.384c-1.088 0-1.632.405-1.632 1.216 0 .33.117.603.352.816.234.203.57.304 1.008.304zm9.372 1.504a3.43 3.43 0 01-1.12-.176 2.298 2.298 0 01-.832-.512c-.501-.48-.752-1.163-.752-2.048v-3.76h-1.424V23.84h1.424v-2.304h2.096v2.304h2v1.792h-2v3.376c0 .416.091.715.272.896.15.17.406.256.768.256.203 0 .368-.027.496-.08.139-.053.315-.144.528-.272v2.048a3.922 3.922 0 01-1.456.272zm4.398-9.184a1.31 1.31 0 01-.96-.4 1.308 1.308 0 01-.4-.96c0-.373.133-.688.4-.944.267-.267.587-.4.96-.4s.688.133.944.4c.267.256.4.57.4.944 0 .373-.133.693-.4.96-.256.267-.571.4-.944.4zm-1.056.896h2.096V32h-2.096v-8.16zm8.12 8.416c-.843 0-1.595-.187-2.256-.56a4.16 4.16 0 01-1.552-1.552c-.363-.661-.544-1.403-.544-2.224 0-.81.181-1.547.544-2.208a4.012 4.012 0 011.552-1.552c.661-.384 1.413-.576 2.256-.576.832 0 1.578.192 2.24.576.661.373 1.173.89 1.536 1.552.373.661.56 1.397.56 2.208 0 .821-.187 1.563-.56 2.224a4.054 4.054 0 01-1.536 1.552c-.662.373-1.408.56-2.24.56zm0-1.936c.405 0 .778-.096 1.12-.288.341-.192.613-.47.816-.832.202-.363.304-.79.304-1.28 0-.48-.102-.901-.304-1.264a2.116 2.116 0 00-.816-.832 2.248 2.248 0 00-1.12-.288 2.217 2.217 0 00-1.952 1.12c-.203.363-.304.784-.304 1.264s.101.907.304 1.28a2.217 2.217 0 001.952 1.12zm5.783-6.48h1.968v1.024h.128a2.521 2.521 0 011.04-.928 3.092 3.092 0 011.456-.352c.982 0 1.728.299 2.24.896.512.597.768 1.413.768 2.448V32h-2.096v-4.816c0-.523-.133-.928-.4-1.216-.266-.288-.64-.432-1.12-.432-.565 0-1.024.219-1.376.656-.341.437-.512.987-.512 1.648V32h-2.096v-8.16z" fill="#fff"/><path d="M168.861 0h167.628l17.872 25.267L336.489 53H168.861l17.256-27.116L168.861 0z" fill="#00AE5A"/><path d="M234.528 19.544h2.48L241.312 31h-2.384l-.96-2.736h-4.384l-.96 2.736h-2.384l4.288-11.456zm2.736 6.736l-1.008-2.88-.416-1.376h-.128l-.416 1.376-1.024 2.88h2.992zm8.913 4.976c-.822 0-1.558-.181-2.208-.544a4.047 4.047 0 01-1.536-1.552c-.363-.661-.544-1.408-.544-2.24 0-.832.181-1.573.544-2.224a4.047 4.047 0 011.536-1.552c.65-.373 1.386-.56 2.208-.56.906 0 1.685.197 2.336.592.65.384 1.12.933 1.408 1.648l-1.92.8c-.342-.725-.95-1.088-1.824-1.088-.64 0-1.168.219-1.584.656-.406.437-.608 1.013-.608 1.728 0 .725.202 1.307.608 1.744.416.437.944.656 1.584.656.885 0 1.525-.384 1.92-1.152l1.904.832a3.93 3.93 0 01-1.504 1.664c-.651.395-1.424.592-2.32.592zm8.805-.128a3.43 3.43 0 01-1.12-.176 2.306 2.306 0 01-.832-.512c-.501-.48-.752-1.163-.752-2.048v-3.76h-1.424V22.84h1.424v-2.304h2.096v2.304h2v1.792h-2v3.376c0 .416.091.715.272.896.15.17.406.256.768.256.203 0 .368-.027.496-.08.139-.053.315-.144.528-.272v2.048a3.922 3.922 0 01-1.456.272zm4.398-9.184a1.31 1.31 0 01-.96-.4 1.308 1.308 0 01-.4-.96c0-.373.133-.688.4-.944.267-.267.587-.4.96-.4s.688.133.944.4c.267.256.4.57.4.944 0 .373-.133.693-.4.96-.256.267-.571.4-.944.4zm-1.056.896h2.096V31h-2.096v-8.16zm3.382 0h2.384l2.064 5.312h.128l2.096-5.312h2.352L267.242 31h-2.08l-3.456-8.16zm13.751 8.416c-.81 0-1.541-.187-2.192-.56a4.093 4.093 0 01-1.536-1.536c-.362-.661-.544-1.403-.544-2.224 0-.779.182-1.499.544-2.16a4.176 4.176 0 011.504-1.6 4.003 4.003 0 012.144-.592c.843 0 1.568.181 2.176.544a3.493 3.493 0 011.376 1.488c.32.63.48 1.328.48 2.096 0 .245-.016.48-.048.704h-6.128c.107.65.363 1.147.768 1.488.416.33.912.496 1.488.496.48 0 .891-.101 1.232-.304a2.34 2.34 0 00.832-.848l1.696.832c-.832 1.45-2.096 2.176-3.792 2.176zm1.936-5.328a1.527 1.527 0 00-.288-.752 1.777 1.777 0 00-.688-.624c-.288-.17-.629-.256-1.024-.256-.501 0-.933.15-1.296.448-.352.288-.608.683-.768 1.184h4.064z" fill="#fff"/><path d="M338.953 0h167.628l17.872 25.267L506.581 53H338.953l17.256-27.733L338.953 0z" fill="#00AE5A"/><path d="M402.312 21.544h4.48c.64 0 1.227.133 1.76.4.544.267.971.63 1.28 1.088.309.459.464.96.464 1.504 0 .576-.144 1.077-.432 1.504a2.749 2.749 0 01-1.104.96v.128c.597.213 1.072.555 1.424 1.024.352.459.528 1.013.528 1.664 0 .63-.171 1.19-.512 1.68a3.29 3.29 0 01-1.36 1.12 4.525 4.525 0 01-1.888.384h-4.64V21.544zm4.32 4.672c.469 0 .843-.128 1.12-.384.288-.267.432-.597.432-.992 0-.384-.139-.704-.416-.96-.267-.267-.624-.4-1.072-.4h-2.224v2.736h2.16zm.24 4.816c.523 0 .928-.133 1.216-.4.299-.277.448-.635.448-1.072 0-.437-.149-.795-.448-1.072-.299-.277-.725-.416-1.28-.416h-2.336v2.96h2.4zm9.415 2.224c-.842 0-1.594-.187-2.256-.56a4.175 4.175 0 01-1.552-1.552c-.362-.661-.544-1.403-.544-2.224 0-.81.182-1.547.544-2.208a4.026 4.026 0 011.552-1.552c.662-.384 1.414-.576 2.256-.576.832 0 1.579.192 2.24.576a3.9 3.9 0 011.536 1.552c.374.661.56 1.397.56 2.208 0 .821-.186 1.563-.56 2.224a4.04 4.04 0 01-1.536 1.552c-.661.373-1.408.56-2.24.56zm0-1.936c.406 0 .779-.096 1.12-.288.342-.192.614-.47.816-.832.203-.363.304-.79.304-1.28 0-.48-.101-.901-.304-1.264a2.103 2.103 0 00-.816-.832 2.243 2.243 0 00-1.12-.288c-.405 0-.778.096-1.12.288a2.23 2.23 0 00-.832.832c-.202.363-.304.784-.304 1.264s.102.907.304 1.28c.214.363.491.64.832.832.342.192.715.288 1.12.288zm9.844 1.936c-.843 0-1.595-.187-2.256-.56a4.167 4.167 0 01-1.552-1.552c-.363-.661-.544-1.403-.544-2.224 0-.81.181-1.547.544-2.208a4.019 4.019 0 011.552-1.552c.661-.384 1.413-.576 2.256-.576.832 0 1.579.192 2.24.576.661.373 1.173.89 1.536 1.552.373.661.56 1.397.56 2.208 0 .821-.187 1.563-.56 2.224a4.054 4.054 0 01-1.536 1.552c-.661.373-1.408.56-2.24.56zm0-1.936c.405 0 .779-.096 1.12-.288.341-.192.613-.47.816-.832.203-.363.304-.79.304-1.28 0-.48-.101-.901-.304-1.264a2.116 2.116 0 00-.816-.832 2.246 2.246 0 00-1.12-.288c-.405 0-.779.096-1.12.288-.341.192-.619.47-.832.832-.203.363-.304.784-.304 1.264s.101.907.304 1.28c.213.363.491.64.832.832.341.192.715.288 1.12.288zm5.862-9.776h2.096v6.24h.112l2.928-2.944h2.576v.128l-3.088 3.024 3.232 4.88V33h-2.48l-2.224-3.568-1.056 1.04V33h-2.096V21.544zm12.527 11.712c-.811 0-1.541-.187-2.192-.56a4.079 4.079 0 01-1.536-1.536c-.363-.661-.544-1.403-.544-2.224 0-.779.181-1.499.544-2.16a4.176 4.176 0 011.504-1.6 4.003 4.003 0 012.144-.592c.843 0 1.568.181 2.176.544a3.493 3.493 0 011.376 1.488c.32.63.48 1.328.48 2.096 0 .245-.016.48-.048.704h-6.128c.107.65.363 1.147.768 1.488.416.33.912.496 1.488.496.48 0 .891-.101 1.232-.304a2.35 2.35 0 00.832-.848l1.696.832c-.832 1.45-2.096 2.176-3.792 2.176zm1.936-5.328a1.527 1.527 0 00-.288-.752 1.777 1.777 0 00-.688-.624c-.288-.17-.629-.256-1.024-.256-.501 0-.933.15-1.296.448-.352.288-.608.683-.768 1.184h4.064zm7.213 5.328a3.861 3.861 0 01-2.016-.544 4.032 4.032 0 01-1.424-1.536c-.342-.661-.512-1.413-.512-2.256 0-.832.17-1.579.512-2.24.352-.661.826-1.173 1.424-1.536a3.778 3.778 0 012.016-.56c.554 0 1.045.123 1.472.368.426.235.752.528.976.88h.128l-.128-1.152v-3.136h2.08V33h-1.952v-.976h-.128c-.214.352-.539.645-.976.88-.427.235-.918.352-1.472.352zm.352-1.936c.394 0 .762-.101 1.104-.304.341-.203.613-.485.816-.848.202-.363.304-.779.304-1.248 0-.47-.102-.885-.304-1.248a2.116 2.116 0 00-.816-.832 2.128 2.128 0 00-2.192 0c-.342.192-.614.47-.816.832a2.511 2.511 0 00-.304 1.248c0 .47.101.885.304 1.248.202.363.474.645.816.848.341.203.704.304 1.088.304z" fill="#fff"/><path d="M509.047 0h167.628l17.872 25.267L676.675 53H509.047l17.256-27.733L509.047 0z" fill="#00AE5A"/><path d="M559.312 19.544h3.872c1.195 0 2.235.24 3.12.72a5.04 5.04 0 012.048 2.016c.48.864.72 1.861.72 2.992 0 1.13-.24 2.128-.72 2.992a5.04 5.04 0 01-2.048 2.016c-.885.48-1.925.72-3.12.72h-3.872V19.544zm3.776 9.408c1.237 0 2.181-.325 2.832-.976.651-.661.976-1.563.976-2.704 0-1.141-.325-2.037-.976-2.688-.651-.661-1.595-.992-2.832-.992h-1.616v7.36h1.616zm8.933-7.008c-.374 0-.694-.133-.96-.4a1.308 1.308 0 01-.4-.96c0-.373.133-.688.4-.944.266-.267.586-.4.96-.4.373 0 .688.133.944.4.266.256.4.57.4.944 0 .373-.134.693-.4.96-.256.267-.571.4-.944.4zm-1.056.896h2.096V31h-2.096v-8.16zm7.397 8.416c-.992 0-1.797-.203-2.416-.608a3.253 3.253 0 01-1.28-1.584l1.872-.816c.171.384.411.677.72.88.32.192.688.288 1.104.288.384 0 .704-.059.96-.176.256-.128.384-.33.384-.608a.63.63 0 00-.352-.592c-.234-.139-.586-.261-1.056-.368l-.96-.208c-.661-.16-1.21-.448-1.648-.864a2.127 2.127 0 01-.656-1.584c0-.47.139-.89.416-1.264a2.792 2.792 0 011.152-.864 4.196 4.196 0 011.616-.304c1.686 0 2.811.592 3.376 1.776l-1.792.784c-.32-.576-.832-.864-1.536-.864-.362 0-.65.07-.864.208-.213.128-.32.293-.32.496 0 .384.363.672 1.088.864l1.2.288c.811.203 1.419.512 1.824.928.416.416.624.928.624 1.536 0 .523-.154.987-.464 1.392-.298.395-.714.704-1.248.928a4.381 4.381 0 01-1.744.336zm4.832-8.416h1.968v.992h.128c.224-.352.55-.645.976-.88.427-.245.918-.368 1.472-.368.736 0 1.403.187 2 .56a3.741 3.741 0 011.424 1.536c.342.661.512 1.408.512 2.24 0 .843-.17 1.595-.512 2.256a3.876 3.876 0 01-1.424 1.536 3.777 3.777 0 01-2 .544 3.1 3.1 0 01-1.488-.352c-.426-.235-.746-.528-.96-.88h-.128l.128 1.152v3.28h-2.096V22.84zm4.176 6.48a2.12 2.12 0 001.104-.304c.342-.203.614-.485.816-.848.203-.363.304-.779.304-1.248 0-.47-.101-.885-.304-1.248a2.103 2.103 0 00-.816-.832 2.123 2.123 0 00-2.192 0c-.341.192-.613.47-.816.832a2.522 2.522 0 00-.304 1.248c0 .47.102.885.304 1.248.203.363.475.645.816.848.342.203.704.304 1.088.304zm8.416 1.936c-.864 0-1.574-.25-2.128-.752-.555-.512-.832-1.179-.832-2 0-.544.144-1.024.432-1.44a2.78 2.78 0 011.184-.96 4.032 4.032 0 011.664-.336c.842 0 1.562.123 2.16.368v-.352c0-.448-.171-.81-.512-1.088-.331-.277-.779-.416-1.344-.416-.384 0-.758.09-1.12.272-.352.17-.646.4-.88.688l-1.344-1.056c.394-.512.89-.907 1.488-1.184a4.577 4.577 0 011.952-.416c1.248 0 2.197.288 2.848.864.65.576.976 1.419.976 2.528V31h-2.064v-.832h-.128c-.246.32-.571.581-.976.784-.395.203-.854.304-1.376.304zm.496-1.632c.608 0 1.088-.192 1.44-.576.362-.395.544-.853.544-1.376a3.975 3.975 0 00-1.712-.384c-1.088 0-1.632.405-1.632 1.216 0 .33.117.603.352.816.234.203.57.304 1.008.304zm9.372 1.504c-.405 0-.779-.059-1.12-.176a2.297 2.297 0 01-.832-.512c-.501-.48-.752-1.163-.752-2.048v-3.76h-1.424V22.84h1.424v-2.304h2.096v2.304h2v1.792h-2v3.376c0 .416.091.715.272.896.149.17.405.256.768.256.203 0 .368-.027.496-.08.139-.053.315-.144.528-.272v2.048a3.926 3.926 0 01-1.456.272zm6.694.128c-.821 0-1.557-.181-2.208-.544a4.06 4.06 0 01-1.536-1.552c-.362-.661-.544-1.408-.544-2.24 0-.832.182-1.573.544-2.224a4.06 4.06 0 011.536-1.552c.651-.373 1.387-.56 2.208-.56.907 0 1.686.197 2.336.592.651.384 1.12.933 1.408 1.648l-1.92.8c-.341-.725-.949-1.088-1.824-1.088-.64 0-1.168.219-1.584.656-.405.437-.608 1.013-.608 1.728 0 .725.203 1.307.608 1.744.416.437.944.656 1.584.656.886 0 1.526-.384 1.92-1.152l1.904.832a3.924 3.924 0 01-1.504 1.664c-.65.395-1.424.592-2.32.592zm5.332-11.712h2.096v2.896l-.128 1.424h.128c.235-.384.576-.693 1.024-.928a3.092 3.092 0 011.456-.352c.992 0 1.75.299 2.272.896.534.587.8 1.403.8 2.448V31h-2.096v-4.816c0-.523-.144-.928-.432-1.216-.277-.288-.65-.432-1.12-.432-.554 0-1.013.224-1.376.672-.352.448-.528.997-.528 1.648V31h-2.096V19.544zm13.449 11.712c-.81 0-1.541-.187-2.192-.56a4.093 4.093 0 01-1.536-1.536c-.362-.661-.544-1.403-.544-2.224 0-.779.182-1.499.544-2.16a4.176 4.176 0 011.504-1.6 4.003 4.003 0 012.144-.592c.843 0 1.568.181 2.176.544a3.493 3.493 0 011.376 1.488c.32.63.48 1.328.48 2.096 0 .245-.016.48-.048.704h-6.128c.107.65.363 1.147.768 1.488.416.33.912.496 1.488.496.48 0 .891-.101 1.232-.304a2.34 2.34 0 00.832-.848l1.696.832c-.832 1.45-2.096 2.176-3.792 2.176zm1.936-5.328a1.527 1.527 0 00-.288-.752 1.777 1.777 0 00-.688-.624c-.288-.17-.629-.256-1.024-.256-.501 0-.933.15-1.296.448-.352.288-.608.683-.768 1.184h4.064zm7.213 5.328a3.861 3.861 0 01-2.016-.544 4.04 4.04 0 01-1.424-1.536c-.341-.661-.512-1.413-.512-2.256 0-.832.171-1.579.512-2.24a3.892 3.892 0 011.424-1.536 3.778 3.778 0 012.016-.56c.555 0 1.045.123 1.472.368.427.235.752.528.976.88h.128l-.128-1.152v-3.136h2.08V31h-1.952v-.976h-.128c-.213.352-.539.645-.976.88-.427.235-.917.352-1.472.352zm.352-1.936a2.12 2.12 0 001.104-.304c.341-.203.613-.485.816-.848.203-.363.304-.779.304-1.248 0-.47-.101-.885-.304-1.248a2.116 2.116 0 00-.816-.832 2.123 2.123 0 00-2.192 0c-.341.192-.613.47-.816.832a2.511 2.511 0 00-.304 1.248c0 .47.101.885.304 1.248.203.363.475.645.816.848.341.203.704.304 1.088.304z" fill="#fff"/><path d="M679.139 0h167.628l17.872 25.267L846.767 53H679.139l17.255-27.733L679.139 0z" fill="#00AE5A"/><path d="M732.312 19.544h4.032a4.25 4.25 0 011.984.464 3.405 3.405 0 011.408 1.28c.341.544.512 1.168.512 1.872 0 .704-.171 1.333-.512 1.888a3.515 3.515 0 01-1.408 1.296 4.373 4.373 0 01-1.984.448h-1.872V31h-2.16V19.544zm4.096 5.2c.533 0 .949-.155 1.248-.464a1.53 1.53 0 00.464-1.12c0-.437-.155-.805-.464-1.104-.299-.31-.715-.464-1.248-.464h-1.936v3.152h1.936zm6.566-2.8c-.374 0-.694-.133-.96-.4a1.308 1.308 0 01-.4-.96c0-.373.133-.688.4-.944.266-.267.586-.4.96-.4.373 0 .688.133.944.4.266.256.4.57.4.944 0 .373-.134.693-.4.96-.256.267-.571.4-.944.4zm-1.056.896h2.096V31h-2.096v-8.16zm8.055 8.416c-.821 0-1.557-.181-2.208-.544a4.06 4.06 0 01-1.536-1.552c-.362-.661-.544-1.408-.544-2.24 0-.832.182-1.573.544-2.224a4.06 4.06 0 011.536-1.552c.651-.373 1.387-.56 2.208-.56.907 0 1.686.197 2.336.592.651.384 1.12.933 1.408 1.648l-1.92.8c-.341-.725-.949-1.088-1.824-1.088-.64 0-1.168.219-1.584.656-.405.437-.608 1.013-.608 1.728 0 .725.203 1.307.608 1.744.416.437.944.656 1.584.656.886 0 1.526-.384 1.92-1.152l1.904.832a3.924 3.924 0 01-1.504 1.664c-.65.395-1.424.592-2.32.592zm5.332-11.712h2.096v6.24h.112l2.928-2.944h2.576v.128l-3.088 3.024 3.232 4.88V31h-2.48l-2.224-3.568-1.056 1.04V31h-2.096V19.544zm12.527 11.712c-.81 0-1.541-.187-2.192-.56a4.093 4.093 0 01-1.536-1.536c-.362-.661-.544-1.403-.544-2.224 0-.779.182-1.499.544-2.16a4.176 4.176 0 011.504-1.6 4.003 4.003 0 012.144-.592c.843 0 1.568.181 2.176.544a3.493 3.493 0 011.376 1.488c.32.63.48 1.328.48 2.096 0 .245-.016.48-.048.704h-6.128c.107.65.363 1.147.768 1.488.416.33.912.496 1.488.496.48 0 .891-.101 1.232-.304a2.34 2.34 0 00.832-.848l1.696.832c-.832 1.45-2.096 2.176-3.792 2.176zm1.936-5.328a1.527 1.527 0 00-.288-.752 1.777 1.777 0 00-.688-.624c-.288-.17-.629-.256-1.024-.256-.501 0-.933.15-1.296.448-.352.288-.608.683-.768 1.184h4.064zm7.213 5.328a3.861 3.861 0 01-2.016-.544 4.04 4.04 0 01-1.424-1.536c-.341-.661-.512-1.413-.512-2.256 0-.832.171-1.579.512-2.24a3.892 3.892 0 011.424-1.536 3.778 3.778 0 012.016-.56c.555 0 1.045.123 1.472.368.427.235.752.528.976.88h.128l-.128-1.152v-3.136h2.08V31h-1.952v-.976h-.128c-.213.352-.539.645-.976.88-.427.235-.917.352-1.472.352zm.352-1.936a2.12 2.12 0 001.104-.304c.341-.203.613-.485.816-.848.203-.363.304-.779.304-1.248 0-.47-.101-.885-.304-1.248a2.116 2.116 0 00-.816-.832 2.123 2.123 0 00-2.192 0c-.341.192-.613.47-.816.832a2.511 2.511 0 00-.304 1.248c0 .47.101.885.304 1.248.203.363.475.645.816.848.341.203.704.304 1.088.304zm14.203 1.936c-.896 0-1.68-.192-2.352-.576-.661-.384-1.178-.939-1.552-1.664-.362-.725-.544-1.584-.544-2.576v-6.896h2.144v7.024c0 .79.198 1.43.592 1.92.406.48.976.72 1.712.72s1.302-.24 1.696-.72c.406-.49.608-1.13.608-1.92v-7.024h2.144v6.896c0 .95-.181 1.787-.544 2.512a4.044 4.044 0 01-1.552 1.696c-.672.405-1.456.608-2.352.608zm6.518-8.416h1.968v.992h.128c.224-.352.549-.645.976-.88.426-.245.917-.368 1.472-.368.736 0 1.402.187 2 .56a3.748 3.748 0 011.424 1.536c.341.661.512 1.408.512 2.24 0 .843-.171 1.595-.512 2.256a3.883 3.883 0 01-1.424 1.536 3.78 3.78 0 01-2 .544 3.095 3.095 0 01-1.488-.352c-.427-.235-.747-.528-.96-.88h-.128l.128 1.152v3.28h-2.096V22.84zm4.176 6.48c.394 0 .762-.101 1.104-.304.341-.203.613-.485.816-.848.202-.363.304-.779.304-1.248 0-.47-.102-.885-.304-1.248a2.116 2.116 0 00-.816-.832 2.128 2.128 0 00-2.192 0c-.342.192-.614.47-.816.832a2.511 2.511 0 00-.304 1.248c0 .47.101.885.304 1.248.202.363.474.645.816.848.341.203.704.304 1.088.304z" fill="#fff"/><path d="M849.232 0h167.628l17.87 25.267L1016.86 53H849.232l17.256-27.733L849.232 0z" fill="#D9D9D9"/><path d="M905.312 19.544h3.872c1.195 0 2.235.24 3.12.72a5.04 5.04 0 012.048 2.016c.48.864.72 1.861.72 2.992 0 1.13-.24 2.128-.72 2.992a5.04 5.04 0 01-2.048 2.016c-.885.48-1.925.72-3.12.72h-3.872V19.544zm3.776 9.408c1.237 0 2.181-.325 2.832-.976.651-.661.976-1.563.976-2.704 0-1.141-.325-2.037-.976-2.688-.651-.661-1.595-.992-2.832-.992h-1.616v7.36h1.616zm11.338 2.304c-.811 0-1.541-.187-2.192-.56a4.079 4.079 0 01-1.536-1.536c-.363-.661-.544-1.403-.544-2.224 0-.779.181-1.499.544-2.16a4.176 4.176 0 011.504-1.6 4.003 4.003 0 012.144-.592c.843 0 1.568.181 2.176.544a3.493 3.493 0 011.376 1.488c.32.63.48 1.328.48 2.096 0 .245-.016.48-.048.704h-6.128c.107.65.363 1.147.768 1.488.416.33.912.496 1.488.496.48 0 .891-.101 1.232-.304a2.35 2.35 0 00.832-.848l1.696.832c-.832 1.45-2.096 2.176-3.792 2.176zm1.936-5.328a1.527 1.527 0 00-.288-.752 1.777 1.777 0 00-.688-.624c-.288-.17-.629-.256-1.024-.256-.501 0-.933.15-1.296.448-.352.288-.608.683-.768 1.184h4.064zm3.631-6.384h2.096V31h-2.096V19.544zm5.34 2.4a1.31 1.31 0 01-.96-.4 1.308 1.308 0 01-.4-.96c0-.373.133-.688.4-.944.267-.267.587-.4.96-.4s.688.133.944.4c.267.256.4.57.4.944 0 .373-.133.693-.4.96-.256.267-.571.4-.944.4zm-1.056.896h2.096V31h-2.096v-8.16zm3.382 0h2.384l2.064 5.312h.128l2.096-5.312h2.352L939.195 31h-2.08l-3.456-8.16zm13.752 8.416c-.811 0-1.542-.187-2.192-.56a4.079 4.079 0 01-1.536-1.536c-.363-.661-.544-1.403-.544-2.224 0-.779.181-1.499.544-2.16a4.169 4.169 0 011.504-1.6 4 4 0 012.144-.592c.842 0 1.568.181 2.176.544a3.5 3.5 0 011.376 1.488c.32.63.48 1.328.48 2.096 0 .245-.016.48-.048.704h-6.128c.106.65.362 1.147.768 1.488.416.33.912.496 1.488.496.48 0 .89-.101 1.232-.304a2.35 2.35 0 00.832-.848l1.696.832c-.832 1.45-2.096 2.176-3.792 2.176zm1.936-5.328a1.546 1.546 0 00-.288-.752 1.785 1.785 0 00-.688-.624 1.98 1.98 0 00-1.024-.256c-.502 0-.934.15-1.296.448-.352.288-.608.683-.768 1.184h4.064zm3.63-3.088h1.968v1.088h.128c.203-.384.517-.699.944-.944a2.686 2.686 0 011.408-.384c.373 0 .715.059 1.024.176v2.096a5.364 5.364 0 00-.736-.224c-.192-.053-.4-.08-.624-.08-.619 0-1.109.224-1.472.672-.363.448-.544 1.013-.544 1.696V31h-2.096v-8.16zm10.168 8.416c-.811 0-1.541-.187-2.192-.56a4.079 4.079 0 01-1.536-1.536c-.363-.661-.544-1.403-.544-2.224 0-.779.181-1.499.544-2.16a4.176 4.176 0 011.504-1.6 4.003 4.003 0 012.144-.592c.843 0 1.568.181 2.176.544a3.493 3.493 0 011.376 1.488c.32.63.48 1.328.48 2.096 0 .245-.016.48-.048.704h-6.128c.107.65.363 1.147.768 1.488.416.33.912.496 1.488.496.48 0 .891-.101 1.232-.304a2.35 2.35 0 00.832-.848l1.696.832c-.832 1.45-2.096 2.176-3.792 2.176zm1.936-5.328a1.527 1.527 0 00-.288-.752 1.777 1.777 0 00-.688-.624c-.288-.17-.629-.256-1.024-.256-.501 0-.933.15-1.296.448-.352.288-.608.683-.768 1.184h4.064zm7.213 5.328a3.861 3.861 0 01-2.016-.544 4.032 4.032 0 01-1.424-1.536c-.342-.661-.512-1.413-.512-2.256 0-.832.17-1.579.512-2.24.352-.661.826-1.173 1.424-1.536a3.778 3.778 0 012.016-.56c.554 0 1.045.123 1.472.368.426.235.752.528.976.88h.128l-.128-1.152v-3.136h2.08V31h-1.952v-.976h-.128c-.214.352-.539.645-.976.88-.427.235-.918.352-1.472.352zm.352-1.936c.394 0 .762-.101 1.104-.304.341-.203.613-.485.816-.848.202-.363.304-.779.304-1.248 0-.47-.102-.885-.304-1.248a2.116 2.116 0 00-.816-.832 2.128 2.128 0 00-2.192 0c-.342.192-.614.47-.816.832a2.511 2.511 0 00-.304 1.248c0 .47.101.885.304 1.248.202.363.474.645.816.848.341.203.704.304 1.088.304z" fill="#979797"/><path d="M1019.33 0h167.62l17.88 25.267L1186.95 53h-167.62l17.25-27.733L1019.33 0z" fill="#D9D9D9"/><path d="M1075.74 31.256c-1.11 0-2.13-.261-3.04-.784a5.917 5.917 0 01-2.18-2.16c-.52-.917-.78-1.93-.78-3.04s.26-2.117.78-3.024a5.762 5.762 0 012.18-2.16c.91-.533 1.93-.8 3.04-.8 1.72 0 3.15.624 4.28 1.872l-1.52 1.472c-.73-.864-1.65-1.296-2.75-1.296-.71 0-1.36.165-1.95.496a3.49 3.49 0 00-1.39 1.376c-.33.597-.5 1.285-.5 2.064 0 .779.17 1.467.5 2.064a3.6 3.6 0 001.39 1.392c.59.32 1.24.48 1.95.48 1.21 0 2.22-.501 3.03-1.504l1.53 1.456a5.75 5.75 0 01-2.01 1.568c-.77.352-1.63.528-2.56.528zm9.88 0c-.85 0-1.6-.187-2.26-.56a4.148 4.148 0 01-1.55-1.552c-.37-.661-.55-1.403-.55-2.224 0-.81.18-1.547.55-2.208a4 4 0 011.55-1.552c.66-.384 1.41-.576 2.26-.576.83 0 1.57.192 2.24.576.66.373 1.17.89 1.53 1.552.37.661.56 1.397.56 2.208a4.48 4.48 0 01-.56 2.224 4.03 4.03 0 01-1.53 1.552c-.67.373-1.41.56-2.24.56zm0-1.936c.4 0 .77-.096 1.12-.288.34-.192.61-.47.81-.832.2-.363.31-.79.31-1.28 0-.48-.11-.901-.31-1.264a2.09 2.09 0 00-.81-.832 2.284 2.284 0 00-1.12-.288 2.23 2.23 0 00-1.96 1.12c-.2.363-.3.784-.3 1.264s.1.907.3 1.28a2.23 2.23 0 001.96 1.12zm5.78-6.48h1.97v1.024h.13c.25-.395.59-.704 1.02-.928a3.03 3.03 0 011.46-.352c.57 0 1.07.139 1.5.416.43.267.73.608.91 1.024a3.11 3.11 0 011.09-1.04c.47-.267 1.02-.4 1.65-.4.93 0 1.63.288 2.11.864.49.565.74 1.333.74 2.304V31h-2.08v-4.864c0-.512-.13-.907-.37-1.184-.24-.277-.57-.416-.99-.416-.55 0-.99.219-1.32.656-.32.427-.48.992-.48 1.696V31h-2.09v-4.864c0-.512-.13-.907-.39-1.184-.24-.277-.59-.416-1.05-.416-.51 0-.93.219-1.25.656-.31.427-.46.992-.46 1.696V31h-2.1v-8.16zm14.51 0h1.97v.992h.13c.22-.352.55-.645.98-.88.42-.245.91-.368 1.47-.368.73 0 1.4.187 2 .56.61.363 1.08.875 1.42 1.536.34.661.51 1.408.51 2.24 0 .843-.17 1.595-.51 2.256-.34.65-.81 1.163-1.42 1.536a3.8 3.8 0 01-2 .544c-.56 0-1.05-.117-1.49-.352-.43-.235-.75-.528-.96-.88h-.13l.13 1.152v3.28h-2.1V22.84zm4.18 6.48c.39 0 .76-.101 1.1-.304.34-.203.62-.485.82-.848.2-.363.3-.779.3-1.248 0-.47-.1-.885-.3-1.248a2.11 2.11 0 00-.82-.832 2.12 2.12 0 00-2.19 0c-.34.192-.61.47-.81.832-.21.363-.31.779-.31 1.248 0 .47.1.885.31 1.248.2.363.47.645.81.848.34.203.71.304 1.09.304zm5.76-9.776h2.1V31h-2.1V19.544zm7.9 11.712c-.81 0-1.54-.187-2.19-.56a4.049 4.049 0 01-1.53-1.536c-.37-.661-.55-1.403-.55-2.224 0-.779.18-1.499.55-2.16.36-.672.86-1.205 1.5-1.6a3.987 3.987 0 012.14-.592c.85 0 1.57.181 2.18.544a3.5 3.5 0 011.38 1.488c.32.63.48 1.328.48 2.096 0 .245-.02.48-.05.704h-6.13c.11.65.36 1.147.77 1.488.41.33.91.496 1.49.496.48 0 .89-.101 1.23-.304.35-.213.63-.496.83-.848l1.7.832c-.84 1.45-2.1 2.176-3.8 2.176zm1.94-5.328a1.53 1.53 0 00-.29-.752 1.777 1.777 0 00-.69-.624c-.28-.17-.63-.256-1.02-.256-.5 0-.93.15-1.3.448-.35.288-.6.683-.76 1.184h4.06zm6.95 5.2a3.4 3.4 0 01-1.12-.176 2.271 2.271 0 01-.83-.512c-.5-.48-.76-1.163-.76-2.048v-3.76h-1.42V22.84h1.42v-2.304h2.1v2.304h2v1.792h-2v3.376c0 .416.09.715.27.896.15.17.41.256.77.256.2 0 .37-.027.5-.08.14-.053.31-.144.52-.272v2.048c-.45.181-.94.272-1.45.272zm6.68.128c-.81 0-1.54-.187-2.2-.56a4.049 4.049 0 01-1.53-1.536 4.581 4.581 0 01-.55-2.224c0-.779.19-1.499.55-2.16.36-.672.86-1.205 1.5-1.6a4.022 4.022 0 012.15-.592c.84 0 1.56.181 2.17.544a3.5 3.5 0 011.38 1.488c.32.63.48 1.328.48 2.096 0 .245-.02.48-.05.704h-6.13c.11.65.37 1.147.77 1.488.42.33.91.496 1.49.496.48 0 .89-.101 1.23-.304.35-.213.63-.496.83-.848l1.7.832c-.83 1.45-2.1 2.176-3.79 2.176zm1.93-5.328a1.44 1.44 0 00-.29-.752 1.746 1.746 0 00-.68-.624c-.29-.17-.63-.256-1.03-.256-.5 0-.93.15-1.29.448-.36.288-.61.683-.77 1.184h4.06zm7.22 5.328a3.87 3.87 0 01-2.02-.544 3.991 3.991 0 01-1.42-1.536c-.35-.661-.52-1.413-.52-2.256 0-.832.17-1.579.52-2.24.35-.661.82-1.173 1.42-1.536a3.79 3.79 0 012.02-.56c.55 0 1.04.123 1.47.368.42.235.75.528.97.88h.13l-.13-1.152v-3.136h2.08V31h-1.95v-.976h-.13c-.21.352-.54.645-.97.88-.43.235-.92.352-1.47.352zm.35-1.936c.39 0 .76-.101 1.1-.304.34-.203.61-.485.82-.848.2-.363.3-.779.3-1.248 0-.47-.1-.885-.3-1.248a2.18 2.18 0 00-.82-.832 2.12 2.12 0 00-2.19 0c-.34.192-.61.47-.82.832-.2.363-.3.779-.3 1.248 0 .47.1.885.3 1.248.21.363.48.645.82.848.34.203.7.304 1.09.304z" fill="#979797"/></svg>