<svg width="256" height="975" fill="none" xmlns="http://www.w3.org/2000/svg"><circle cx="20.5" cy="189.5" r="19.5" fill="#fff" stroke="#024EC9" stroke-width="2"/><circle cx="20.5" cy="274.5" r="19.5" fill="#fff" stroke="#024EC9" stroke-width="2"/><circle cx="20.5" cy="359.5" r="19.5" fill="#fff" stroke="#024EC9" stroke-width="2"/><circle cx="20.5" cy="444.5" r="19.5" fill="#fff" stroke="#024EC9" stroke-width="2"/><path stroke="#fff" stroke-width="3" d="M20.5 212v40m0 45v40m0 45v40m0 45v40m0 45v40m0 45v40m0 45v40"/><circle cx="20.5" cy="869.5" r="19.5" stroke="#fff" stroke-width="2" stroke-dasharray="4 4"/><path stroke="#fff" stroke-width="3" stroke-dasharray="6 6" d="M20.5 807v40"/><circle cx="20.5" cy="954.5" r="19.5" stroke="#fff" stroke-width="2" stroke-dasharray="4 4"/><path stroke="#fff" stroke-width="3" stroke-dasharray="6 6" d="M20.5 892v40"/><path d="M52.894 194.224c-.97 0-1.857-.229-2.66-.686a5.213 5.213 0 01-1.904-1.89 5.279 5.279 0 01-.686-2.66c0-.971.229-1.853.686-2.646a5.065 5.065 0 011.904-1.89c.803-.467 1.69-.7 2.66-.7 1.512 0 2.763.546 3.752 1.638l-1.33 1.288c-.644-.756-1.447-1.134-2.408-1.134-.625 0-1.195.145-1.708.434-.513.28-.92.681-1.218 1.204-.29.523-.434 1.125-.434 1.806s.145 1.283.434 1.806c.299.523.705.929 1.218 1.218.513.28 1.083.42 1.708.42 1.055 0 1.937-.439 2.646-1.316l1.344 1.274a5.023 5.023 0 01-1.764 1.372c-.672.308-1.419.462-2.24.462zm7.413 0c-.756 0-1.377-.219-1.862-.658-.486-.448-.728-1.031-.728-1.75 0-.476.126-.896.378-1.26a2.436 2.436 0 011.036-.84 3.53 3.53 0 011.456-.294c.737 0 1.367.107 1.89.322v-.308c0-.392-.15-.709-.448-.952-.29-.243-.682-.364-1.176-.364-.336 0-.663.079-.98.238a2.23 2.23 0 00-.77.602l-1.176-.924A3.453 3.453 0 0159.229 187a4 4 0 011.708-.364c1.092 0 1.922.252 2.492.756.569.504.854 1.241.854 2.212V194h-1.806v-.728h-.112c-.215.28-.5.509-.854.686-.346.177-.747.266-1.204.266zm.434-1.428c.532 0 .952-.168 1.26-.504.317-.345.476-.747.476-1.204a3.477 3.477 0 00-1.498-.336c-.952 0-1.428.355-1.428 1.064 0 .289.102.527.308.714.205.177.499.266.882.266zm5.23-5.936h1.721v.952h.112a2.07 2.07 0 01.826-.826 2.35 2.35 0 011.232-.336 2.5 2.5 0 01.896.154v1.834a4.703 4.703 0 00-.644-.196 2.02 2.02 0 00-.546-.07c-.541 0-.97.196-1.288.588-.317.392-.476.887-.476 1.484V194H65.97v-7.14zm5.974 0h1.722v.952h.112a2.07 2.07 0 01.826-.826 2.35 2.35 0 011.232-.336 2.5 2.5 0 01.896.154v1.834a4.703 4.703 0 00-.644-.196 2.02 2.02 0 00-.546-.07c-.542 0-.97.196-1.288.588-.317.392-.476.887-.476 1.484V194h-1.834v-7.14zm7.01-.784c-.326 0-.606-.117-.84-.35a1.145 1.145 0 01-.35-.84 1.1 1.1 0 01.35-.826c.234-.233.514-.35.84-.35a1.1 1.1 0 01.826.35 1.1 1.1 0 01.35.826c0 .327-.116.607-.35.84a1.1 1.1 0 01-.826.35zm-.924.784h1.834V194h-1.834v-7.14zm7.035 7.364a3.78 3.78 0 01-1.918-.49 3.579 3.579 0 01-1.344-1.344 3.983 3.983 0 01-.476-1.946c0-.681.159-1.311.476-1.89a3.65 3.65 0 011.316-1.4 3.506 3.506 0 011.876-.518c.738 0 1.372.159 1.904.476a3.05 3.05 0 011.204 1.302c.28.551.42 1.162.42 1.834 0 .215-.014.42-.042.616H83.12c.094.569.318 1.003.672 1.302.364.289.798.434 1.302.434.42 0 .78-.089 1.078-.266.308-.187.55-.434.728-.742l1.484.728c-.728 1.269-1.834 1.904-3.318 1.904zm1.694-4.662a1.341 1.341 0 00-.252-.658 1.557 1.557 0 00-.602-.546 1.729 1.729 0 00-.896-.224 1.73 1.73 0 00-1.134.392c-.308.252-.532.597-.672 1.036h3.556zm3.177-2.702h1.722v.952h.112c.177-.336.453-.611.826-.826a2.35 2.35 0 011.232-.336 2.5 2.5 0 01.896.154v1.834a4.707 4.707 0 00-.644-.196 2.02 2.02 0 00-.546-.07c-.541 0-.97.196-1.288.588-.317.392-.476.887-.476 1.484V194h-1.834v-7.14zm9.508-2.884h3.528c.635 0 1.213.135 1.736.406a2.98 2.98 0 011.232 1.12c.299.476.448 1.022.448 1.638 0 .616-.149 1.167-.448 1.652a3.08 3.08 0 01-1.232 1.134 3.831 3.831 0 01-1.736.392h-1.638V194h-1.89v-10.024zm3.584 4.55c.467 0 .831-.135 1.092-.406.271-.271.406-.597.406-.98s-.135-.705-.406-.966c-.261-.271-.625-.406-1.092-.406h-1.694v2.758h1.694zm4.709-1.666h1.722v.952h.112c.177-.336.452-.611.826-.826a2.349 2.349 0 011.232-.336c.326 0 .625.051.896.154v1.834a4.72 4.72 0 00-.644-.196 2.02 2.02 0 00-.546-.07c-.542 0-.971.196-1.288.588-.318.392-.476.887-.476 1.484V194h-1.834v-7.14zm8.897 7.364c-.71 0-1.349-.163-1.918-.49a3.569 3.569 0 01-1.344-1.344c-.318-.579-.476-1.227-.476-1.946 0-.681.158-1.311.476-1.89a3.647 3.647 0 011.316-1.4 3.505 3.505 0 011.876-.518c.737 0 1.372.159 1.904.476.532.317.933.751 1.204 1.302.28.551.42 1.162.42 1.834 0 .215-.014.42-.042.616h-5.362c.093.569.317 1.003.672 1.302.364.289.798.434 1.302.434.42 0 .779-.089 1.078-.266.308-.187.55-.434.728-.742l1.484.728c-.728 1.269-1.834 1.904-3.318 1.904zm1.694-4.662a1.35 1.35 0 00-.252-.658 1.56 1.56 0 00-.602-.546 1.73 1.73 0 00-.896-.224c-.439 0-.817.131-1.134.392-.308.252-.532.597-.672 1.036h3.556zm8.453 4.592l.112-1.008h-.112c-.187.308-.472.565-.854.77a2.635 2.635 0 01-1.288.308 3.382 3.382 0 01-1.764-.476 3.535 3.535 0 01-1.246-1.344c-.299-.579-.448-1.237-.448-1.974 0-.728.149-1.381.448-1.96a3.396 3.396 0 011.246-1.344 3.302 3.302 0 011.764-.49c.485 0 .914.107 1.288.322.373.205.658.462.854.77h.112v-.868h1.708v10.164h-1.82v-2.87zm-1.834-1.624c.345 0 .667-.089.966-.266a1.96 1.96 0 00.714-.742c.177-.317.266-.681.266-1.092 0-.411-.089-.775-.266-1.092a1.86 1.86 0 00-.714-.728 1.864 1.864 0 00-1.918 0 1.846 1.846 0 00-.714.728 2.192 2.192 0 00-.266 1.092c0 .411.088.775.266 1.092.177.317.415.565.714.742.298.177.616.266.952.266zm7.979 1.694c-.859 0-1.512-.266-1.96-.798-.448-.532-.672-1.274-.672-2.226v-4.34h1.834v4.116c0 .485.117.868.35 1.148.233.271.541.406.924.406.523 0 .938-.191 1.246-.574.308-.383.462-.868.462-1.456v-3.64h1.834V194h-1.722v-.896h-.112a2.302 2.302 0 01-.91.826 2.753 2.753 0 01-1.274.294zm7.921 0c-.756 0-1.377-.219-1.862-.658-.486-.448-.728-1.031-.728-1.75 0-.476.126-.896.378-1.26a2.434 2.434 0 011.036-.84 3.527 3.527 0 011.456-.294c.737 0 1.367.107 1.89.322v-.308c0-.392-.15-.709-.448-.952-.29-.243-.682-.364-1.176-.364-.336 0-.663.079-.98.238a2.23 2.23 0 00-.77.602l-1.176-.924A3.453 3.453 0 01139.77 187a3.999 3.999 0 011.708-.364c1.092 0 1.922.252 2.492.756.569.504.854 1.241.854 2.212V194h-1.806v-.728h-.112c-.215.28-.5.509-.854.686-.346.177-.747.266-1.204.266zm.434-1.428c.532 0 .952-.168 1.26-.504.317-.345.476-.747.476-1.204a3.479 3.479 0 00-1.498-.336c-.952 0-1.428.355-1.428 1.064 0 .289.102.527.308.714.205.177.499.266.882.266zm5.229-8.82h1.834V194h-1.834v-10.024zm4.673 2.1c-.327 0-.607-.117-.84-.35a1.146 1.146 0 01-.35-.84 1.1 1.1 0 01.35-.826c.233-.233.513-.35.84-.35a1.1 1.1 0 01.826.35 1.1 1.1 0 01.35.826c0 .327-.117.607-.35.84a1.1 1.1 0 01-.826.35zm-.924.784h1.834V194h-1.834v-7.14zm10.099-.714c-.327 0-.607-.117-.84-.35a1.169 1.169 0 01-.336-.84c0-.327.112-.602.336-.826.233-.233.513-.35.84-.35.327 0 .607.117.84.35a1.1 1.1 0 01.35.826c0 .327-.117.607-.35.84-.233.233-.513.35-.84.35zm-5.572 2.282h-1.274v-1.568h1.274v-.392c0-.812.243-1.447.728-1.904.485-.467 1.12-.7 1.904-.7.317 0 .579.028.784.084v1.764a6.028 6.028 0 01-.238-.07 1.495 1.495 0 00-.434-.056.866.866 0 00-.658.266c-.168.177-.252.42-.252.728v.28h4.662V194h-1.834v-5.572h-2.828V194h-1.834v-5.572zm11.696 5.796c-.719 0-1.363-.159-1.932-.476a3.536 3.536 0 01-1.344-1.358c-.318-.579-.476-1.232-.476-1.96s.158-1.377.476-1.946a3.536 3.536 0 011.344-1.358c.569-.327 1.213-.49 1.932-.49.793 0 1.474.173 2.044.518.569.336.98.817 1.232 1.442l-1.68.7c-.299-.635-.831-.952-1.596-.952-.56 0-1.022.191-1.386.574-.355.383-.532.887-.532 1.512 0 .635.177 1.143.532 1.526.364.383.826.574 1.386.574.774 0 1.334-.336 1.68-1.008l1.666.728a3.438 3.438 0 01-1.316 1.456c-.57.345-1.246.518-2.03.518zm6.781 0c-.756 0-1.377-.219-1.862-.658-.486-.448-.728-1.031-.728-1.75 0-.476.126-.896.378-1.26a2.434 2.434 0 011.036-.84 3.527 3.527 0 011.456-.294c.737 0 1.367.107 1.89.322v-.308c0-.392-.15-.709-.448-.952-.29-.243-.682-.364-1.176-.364-.336 0-.663.079-.98.238a2.23 2.23 0 00-.77.602l-1.176-.924a3.453 3.453 0 011.302-1.036 3.999 3.999 0 011.708-.364c1.092 0 1.922.252 2.492.756.569.504.854 1.241.854 2.212V194h-1.806v-.728h-.112c-.215.28-.5.509-.854.686-.346.177-.747.266-1.204.266zm.434-1.428c.532 0 .952-.168 1.26-.504.317-.345.476-.747.476-1.204a3.479 3.479 0 00-1.498-.336c-.952 0-1.428.355-1.428 1.064 0 .289.102.527.308.714.205.177.499.266.882.266zm8.201 1.316c-.355 0-.682-.051-.98-.154a1.997 1.997 0 01-.728-.448c-.439-.42-.658-1.017-.658-1.792v-3.29h-1.246v-1.568h1.246v-2.016h1.834v2.016h1.75v1.568h-1.75v2.954c0 .364.079.625.238.784.13.149.354.224.672.224.177 0 .322-.023.434-.07.121-.047.275-.126.462-.238v1.792a3.43 3.43 0 01-1.274.238zm3.847-8.036c-.326 0-.606-.117-.84-.35a1.146 1.146 0 01-.35-.84 1.1 1.1 0 01.35-.826c.234-.233.514-.35.84-.35a1.1 1.1 0 01.826.35c.234.224.35.499.35.826 0 .327-.116.607-.35.84a1.1 1.1 0 01-.826.35zm-.924.784h1.834V194h-1.834v-7.14zm7.105 7.364c-.737 0-1.395-.163-1.974-.49a3.656 3.656 0 01-1.358-1.358 3.983 3.983 0 01-.476-1.946c0-.709.159-1.353.476-1.932a3.523 3.523 0 011.358-1.358c.579-.336 1.237-.504 1.974-.504.728 0 1.382.168 1.96.504a3.416 3.416 0 011.344 1.358 3.86 3.86 0 01.49 1.932c0 .719-.163 1.367-.49 1.946a3.54 3.54 0 01-1.344 1.358c-.578.327-1.232.49-1.96.49zm0-1.694c.355 0 .682-.084.98-.252.299-.168.537-.411.714-.728.178-.317.266-.691.266-1.12 0-.42-.088-.789-.266-1.106a1.846 1.846 0 00-.714-.728 1.962 1.962 0 00-.98-.252c-.354 0-.681.084-.98.252a1.956 1.956 0 00-.728.728 2.232 2.232 0 00-.266 1.106c0 .42.089.793.266 1.12.187.317.43.56.728.728.299.168.626.252.98.252zm5.061-5.67h1.722v.896h.112a2.2 2.2 0 01.91-.812 2.706 2.706 0 011.274-.308c.858 0 1.512.261 1.96.784.448.523.672 1.237.672 2.142V194h-1.834v-4.214c0-.457-.117-.812-.35-1.064-.234-.252-.56-.378-.98-.378-.495 0-.896.191-1.204.574-.299.383-.448.863-.448 1.442V194h-1.834v-7.14zM52.894 279.224c-.97 0-1.857-.229-2.66-.686a5.213 5.213 0 01-1.904-1.89 5.279 5.279 0 01-.686-2.66c0-.971.229-1.853.686-2.646a5.065 5.065 0 011.904-1.89c.803-.467 1.69-.7 2.66-.7 1.512 0 2.763.546 3.752 1.638l-1.33 1.288c-.644-.756-1.447-1.134-2.408-1.134-.625 0-1.195.145-1.708.434-.513.28-.92.681-1.218 1.204-.29.523-.434 1.125-.434 1.806s.145 1.283.434 1.806c.299.523.705.929 1.218 1.218.513.28 1.083.42 1.708.42 1.055 0 1.937-.439 2.646-1.316l1.344 1.274a5.023 5.023 0 01-1.764 1.372c-.672.308-1.419.462-2.24.462zm8.645 0c-.738 0-1.396-.163-1.974-.49a3.648 3.648 0 01-1.358-1.358c-.318-.579-.476-1.227-.476-1.946 0-.709.158-1.353.476-1.932a3.516 3.516 0 011.358-1.358c.578-.336 1.236-.504 1.974-.504.728 0 1.38.168 1.96.504a3.421 3.421 0 011.344 1.358 3.87 3.87 0 01.49 1.932 3.89 3.89 0 01-.49 1.946 3.547 3.547 0 01-1.344 1.358c-.58.327-1.232.49-1.96.49zm0-1.694c.354 0 .68-.084.98-.252a1.86 1.86 0 00.714-.728c.177-.317.266-.691.266-1.12 0-.42-.09-.789-.266-1.106a1.851 1.851 0 00-.714-.728 1.965 1.965 0 00-.98-.252c-.355 0-.682.084-.98.252a1.948 1.948 0 00-.728.728 2.228 2.228 0 00-.266 1.106c0 .42.088.793.266 1.12a1.941 1.941 0 001.708.98zm5.06-5.67h1.722v.896h.112c.215-.345.518-.616.91-.812a2.708 2.708 0 011.274-.308c.859 0 1.512.261 1.96.784.448.523.672 1.237.672 2.142V279h-1.834v-4.214c0-.457-.117-.812-.35-1.064-.233-.252-.56-.378-.98-.378-.494 0-.896.191-1.204.574-.299.383-.448.863-.448 1.442V279H66.6v-7.14zm11.133 7.252c-.354 0-.68-.051-.98-.154a2.005 2.005 0 01-.727-.448c-.44-.42-.659-1.017-.659-1.792v-3.29h-1.245v-1.568h1.246v-2.016H77.2v2.016h1.75v1.568H77.2v2.954c0 .364.079.625.238.784.13.149.354.224.672.224.177 0 .322-.023.433-.07a3.17 3.17 0 00.463-.238v1.792a3.427 3.427 0 01-1.275.238zm4.791.112c-.756 0-1.376-.219-1.862-.658-.485-.448-.728-1.031-.728-1.75 0-.476.126-.896.378-1.26a2.436 2.436 0 011.036-.84 3.53 3.53 0 011.456-.294c.738 0 1.368.107 1.89.322v-.308c0-.392-.149-.709-.448-.952-.289-.243-.681-.364-1.176-.364-.336 0-.662.079-.98.238-.308.149-.564.35-.77.602l-1.176-.924c.346-.448.78-.793 1.302-1.036a4 4 0 011.708-.364c1.092 0 1.923.252 2.492.756.57.504.854 1.241.854 2.212V279h-1.806v-.728h-.112c-.214.28-.499.509-.854.686-.345.177-.746.266-1.204.266zm.434-1.428c.532 0 .952-.168 1.26-.504.318-.345.476-.747.476-1.204a3.477 3.477 0 00-1.498-.336c-.952 0-1.428.355-1.428 1.064 0 .289.103.527.308.714.206.177.5.266.882.266zm8.522 1.428c-.719 0-1.363-.159-1.932-.476a3.544 3.544 0 01-1.344-1.358c-.318-.579-.476-1.232-.476-1.96s.158-1.377.476-1.946a3.544 3.544 0 011.344-1.358c.569-.327 1.213-.49 1.932-.49.793 0 1.474.173 2.044.518.569.336.98.817 1.232 1.442l-1.68.7c-.299-.635-.831-.952-1.596-.952-.56 0-1.022.191-1.386.574-.355.383-.532.887-.532 1.512 0 .635.177 1.143.532 1.526.364.383.826.574 1.386.574.774 0 1.334-.336 1.68-1.008l1.666.728a3.436 3.436 0 01-1.316 1.456c-.57.345-1.246.518-2.03.518zm7.705-.112c-.355 0-.682-.051-.98-.154a2.005 2.005 0 01-.728-.448c-.439-.42-.658-1.017-.658-1.792v-3.29h-1.246v-1.568h1.246v-2.016h1.834v2.016h1.75v1.568h-1.75v2.954c0 .364.079.625.238.784.13.149.354.224.672.224.177 0 .322-.023.434-.07.121-.047.275-.126.462-.238v1.792a3.43 3.43 0 01-1.274.238zm6.277-10.136h1.89V279h-1.89v-10.024zm3.917 2.884h1.722v.896h.112c.215-.345.518-.616.91-.812a2.71 2.71 0 011.274-.308c.859 0 1.512.261 1.96.784.448.523.672 1.237.672 2.142V279h-1.834v-4.214c0-.457-.116-.812-.35-1.064-.233-.252-.56-.378-.98-.378-.494 0-.896.191-1.204.574-.298.383-.448.863-.448 1.442V279h-1.834v-7.14zm9.015 1.568h-1.274v-1.568h1.274v-.392c0-.812.242-1.447.728-1.904.485-.467 1.12-.7 1.904-.7.448 0 .835.051 1.162.154v1.792a3.648 3.648 0 00-.476-.168 1.709 1.709 0 00-.462-.056c-.308 0-.556.089-.742.266-.187.177-.28.42-.28.728v.28h1.75v1.568h-1.75V279h-1.834v-5.572zm8.005 5.796c-.737 0-1.395-.163-1.974-.49a3.65 3.65 0 01-1.358-1.358 3.983 3.983 0 01-.476-1.946c0-.709.159-1.353.476-1.932a3.517 3.517 0 011.358-1.358c.579-.336 1.237-.504 1.974-.504.728 0 1.381.168 1.96.504a3.416 3.416 0 011.344 1.358 3.86 3.86 0 01.49 1.932c0 .719-.163 1.367-.49 1.946a3.54 3.54 0 01-1.344 1.358c-.579.327-1.232.49-1.96.49zm0-1.694c.355 0 .681-.084.98-.252.299-.168.537-.411.714-.728.177-.317.266-.691.266-1.12 0-.42-.089-.789-.266-1.106a1.846 1.846 0 00-.714-.728 1.965 1.965 0 00-.98-.252c-.355 0-.681.084-.98.252a1.948 1.948 0 00-.728.728 2.232 2.232 0 00-.266 1.106c0 .42.089.793.266 1.12.187.317.429.56.728.728.299.168.625.252.98.252zm5.061-5.67h1.722v.952h.112c.177-.336.452-.611.826-.826a2.349 2.349 0 011.232-.336c.326 0 .625.051.896.154v1.834a4.72 4.72 0 00-.644-.196 2.02 2.02 0 00-.546-.07c-.542 0-.971.196-1.288.588-.318.392-.476.887-.476 1.484V279h-1.834v-7.14zm5.974 0h1.722v.896h.112c.224-.345.523-.616.896-.812a2.655 2.655 0 011.274-.308c.504 0 .943.121 1.316.364.373.233.639.532.798.896a2.7 2.7 0 01.952-.91c.411-.233.891-.35 1.442-.35.812 0 1.428.252 1.848.756.429.495.644 1.167.644 2.016V279h-1.82v-4.256c0-.448-.107-.793-.322-1.036-.205-.243-.495-.364-.868-.364-.476 0-.859.191-1.148.574-.28.373-.42.868-.42 1.484V279h-1.834v-4.256c0-.448-.112-.793-.336-1.036-.215-.243-.523-.364-.924-.364-.448 0-.812.191-1.092.574-.271.373-.406.868-.406 1.484V279h-1.834v-7.14zm14.872 7.364c-.756 0-1.377-.219-1.862-.658-.486-.448-.728-1.031-.728-1.75 0-.476.126-.896.378-1.26a2.434 2.434 0 011.036-.84 3.527 3.527 0 011.456-.294c.737 0 1.367.107 1.89.322v-.308c0-.392-.15-.709-.448-.952-.29-.243-.682-.364-1.176-.364-.336 0-.663.079-.98.238a2.23 2.23 0 00-.77.602l-1.176-.924a3.453 3.453 0 011.302-1.036 3.999 3.999 0 011.708-.364c1.092 0 1.922.252 2.492.756.569.504.854 1.241.854 2.212V279h-1.806v-.728h-.112c-.215.28-.5.509-.854.686-.346.177-.747.266-1.204.266zm.434-1.428c.532 0 .952-.168 1.26-.504.317-.345.476-.747.476-1.204a3.479 3.479 0 00-1.498-.336c-.952 0-1.428.355-1.428 1.064 0 .289.102.527.308.714.205.177.499.266.882.266zm8.201 1.316c-.355 0-.682-.051-.98-.154a1.997 1.997 0 01-.728-.448c-.439-.42-.658-1.017-.658-1.792v-3.29h-1.246v-1.568h1.246v-2.016h1.834v2.016h1.75v1.568h-1.75v2.954c0 .364.079.625.238.784.13.149.354.224.672.224.177 0 .322-.023.434-.07.121-.047.275-.126.462-.238v1.792a3.43 3.43 0 01-1.274.238zm3.847-8.036c-.326 0-.606-.117-.84-.35a1.146 1.146 0 01-.35-.84 1.1 1.1 0 01.35-.826c.234-.233.514-.35.84-.35a1.1 1.1 0 01.826.35c.234.224.35.499.35.826 0 .327-.116.607-.35.84a1.1 1.1 0 01-.826.35zm-.924.784h1.834V279h-1.834v-7.14zm7.105 7.364c-.737 0-1.395-.163-1.974-.49a3.656 3.656 0 01-1.358-1.358 3.983 3.983 0 01-.476-1.946c0-.709.159-1.353.476-1.932a3.523 3.523 0 011.358-1.358c.579-.336 1.237-.504 1.974-.504.728 0 1.382.168 1.96.504a3.416 3.416 0 011.344 1.358 3.86 3.86 0 01.49 1.932c0 .719-.163 1.367-.49 1.946a3.54 3.54 0 01-1.344 1.358c-.578.327-1.232.49-1.96.49zm0-1.694c.355 0 .682-.084.98-.252.299-.168.537-.411.714-.728.178-.317.266-.691.266-1.12 0-.42-.088-.789-.266-1.106a1.846 1.846 0 00-.714-.728 1.962 1.962 0 00-.98-.252c-.354 0-.681.084-.98.252a1.956 1.956 0 00-.728.728 2.232 2.232 0 00-.266 1.106c0 .42.089.793.266 1.12.187.317.43.56.728.728.299.168.626.252.98.252zm5.061-5.67h1.722v.896h.112a2.2 2.2 0 01.91-.812 2.706 2.706 0 011.274-.308c.858 0 1.512.261 1.96.784.448.523.672 1.237.672 2.142V279h-1.834v-4.214c0-.457-.117-.812-.35-1.064-.234-.252-.56-.378-.98-.378-.495 0-.896.191-1.204.574-.299.383-.448.863-.448 1.442V279h-1.834v-7.14zM48.148 353.976h3.528c.635 0 1.213.135 1.736.406a2.98 2.98 0 011.232 1.12c.299.476.448 1.022.448 1.638 0 .616-.15 1.167-.448 1.652a3.08 3.08 0 01-1.232 1.134 3.831 3.831 0 01-1.736.392h-1.638V364h-1.89v-10.024zm3.584 4.55c.467 0 .83-.135 1.092-.406.27-.271.406-.597.406-.98s-.135-.705-.406-.966c-.261-.271-.625-.406-1.092-.406h-1.694v2.758h1.694zm6.62 5.698c-.756 0-1.377-.219-1.862-.658-.486-.448-.729-1.031-.729-1.75 0-.476.127-.896.378-1.26a2.436 2.436 0 011.036-.84 3.53 3.53 0 011.457-.294c.737 0 1.367.107 1.89.322v-.308c0-.392-.15-.709-.448-.952-.29-.243-.682-.364-1.176-.364-.337 0-.663.079-.98.238a2.22 2.22 0 00-.77.602l-1.177-.924c.346-.448.78-.793 1.303-1.036a4 4 0 011.707-.364c1.093 0 1.923.252 2.492.756.57.504.855 1.241.855 2.212V364h-1.806v-.728h-.112c-.215.28-.5.509-.854.686-.346.177-.747.266-1.204.266zm.434-1.428c.532 0 .951-.168 1.26-.504.317-.345.476-.747.476-1.204a3.477 3.477 0 00-1.498-.336c-.953 0-1.428.355-1.428 1.064 0 .289.102.527.308.714.205.177.499.266.881.266zm7.318.868l-3.01-6.804h2.086l1.848 4.438h.112l1.778-4.438h2.044l-4.41 10.164h-1.974l1.526-3.36zm9.401-9.688h1.89V364h-1.89v-10.024zm3.918 2.884h1.722v.896h.112c.215-.345.518-.616.91-.812a2.708 2.708 0 011.274-.308c.859 0 1.512.261 1.96.784.448.523.672 1.237.672 2.142V364H84.24v-4.214c0-.457-.116-.812-.35-1.064-.233-.252-.56-.378-.98-.378-.494 0-.896.191-1.204.574-.298.383-.448.863-.448 1.442V364h-1.834v-7.14zm9.014 1.568h-1.273v-1.568h1.273v-.392c0-.812.243-1.447.728-1.904.486-.467 1.12-.7 1.904-.7.448 0 .836.051 1.162.154v1.792a3.613 3.613 0 00-.475-.168 1.705 1.705 0 00-.463-.056c-.308 0-.555.089-.742.266-.186.177-.28.42-.28.728v.28h1.75v1.568h-1.75V364h-1.834v-5.572zm8.006 5.796c-.737 0-1.395-.163-1.974-.49a3.648 3.648 0 01-1.358-1.358c-.318-.579-.476-1.227-.476-1.946 0-.709.158-1.353.476-1.932a3.516 3.516 0 011.358-1.358c.579-.336 1.237-.504 1.974-.504.728 0 1.381.168 1.96.504a3.421 3.421 0 011.344 1.358 3.86 3.86 0 01.49 1.932c0 .719-.163 1.367-.49 1.946a3.547 3.547 0 01-1.344 1.358c-.579.327-1.232.49-1.96.49zm0-1.694c.355 0 .681-.084.98-.252.299-.168.537-.411.714-.728.177-.317.266-.691.266-1.12 0-.42-.089-.789-.266-1.106a1.851 1.851 0 00-.714-.728 1.965 1.965 0 00-.98-.252c-.355 0-.681.084-.98.252a1.948 1.948 0 00-.728.728 2.228 2.228 0 00-.266 1.106c0 .42.089.793.266 1.12.186.317.43.56.728.728.299.168.625.252.98.252zm5.06-5.67h1.722v.952h.112c.178-.336.453-.611.826-.826a2.351 2.351 0 011.232-.336c.327 0 .626.051.896.154v1.834a4.678 4.678 0 00-.644-.196 2.02 2.02 0 00-.546-.07c-.541 0-.97.196-1.288.588-.317.392-.476.887-.476 1.484V364h-1.834v-7.14zm5.975 0h1.722v.896h.112c.224-.345.523-.616.896-.812a2.655 2.655 0 011.274-.308c.504 0 .943.121 1.316.364.373.233.639.532.798.896a2.7 2.7 0 01.952-.91c.411-.233.891-.35 1.442-.35.812 0 1.428.252 1.848.756.429.495.644 1.167.644 2.016V364h-1.82v-4.256c0-.448-.107-.793-.322-1.036-.205-.243-.495-.364-.868-.364-.476 0-.859.191-1.148.574-.28.373-.42.868-.42 1.484V364h-1.834v-4.256c0-.448-.112-.793-.336-1.036-.215-.243-.523-.364-.924-.364-.448 0-.812.191-1.092.574-.271.373-.406.868-.406 1.484V364h-1.834v-7.14zm14.872 7.364c-.756 0-1.377-.219-1.862-.658-.486-.448-.728-1.031-.728-1.75 0-.476.126-.896.378-1.26a2.434 2.434 0 011.036-.84 3.527 3.527 0 011.456-.294c.737 0 1.367.107 1.89.322v-.308c0-.392-.15-.709-.448-.952-.29-.243-.682-.364-1.176-.364-.336 0-.663.079-.98.238a2.23 2.23 0 00-.77.602l-1.176-.924a3.453 3.453 0 011.302-1.036 3.999 3.999 0 011.708-.364c1.092 0 1.922.252 2.492.756.569.504.854 1.241.854 2.212V364h-1.806v-.728h-.112c-.215.28-.5.509-.854.686-.346.177-.747.266-1.204.266zm.434-1.428c.532 0 .952-.168 1.26-.504.317-.345.476-.747.476-1.204a3.479 3.479 0 00-1.498-.336c-.952 0-1.428.355-1.428 1.064 0 .289.102.527.308.714.205.177.499.266.882.266zm8.2 1.316c-.354 0-.681-.051-.98-.154a2.014 2.014 0 01-.728-.448c-.438-.42-.658-1.017-.658-1.792v-3.29h-1.246v-1.568h1.246v-2.016h1.834v2.016h1.75v1.568h-1.75v2.954c0 .364.08.625.238.784.131.149.355.224.672.224.178 0 .322-.023.434-.07.122-.047.276-.126.462-.238v1.792a3.425 3.425 0 01-1.274.238zm3.848-8.036c-.326 0-.606-.117-.84-.35a1.146 1.146 0 01-.35-.84 1.1 1.1 0 01.35-.826c.234-.233.514-.35.84-.35a1.1 1.1 0 01.826.35c.234.224.35.499.35.826 0 .327-.116.607-.35.84a1.1 1.1 0 01-.826.35zm-.924.784h1.834V364h-1.834v-7.14zm7.105 7.364c-.737 0-1.395-.163-1.974-.49a3.656 3.656 0 01-1.358-1.358 3.983 3.983 0 01-.476-1.946c0-.709.159-1.353.476-1.932a3.523 3.523 0 011.358-1.358c.579-.336 1.237-.504 1.974-.504.728 0 1.382.168 1.96.504a3.416 3.416 0 011.344 1.358 3.86 3.86 0 01.49 1.932c0 .719-.163 1.367-.49 1.946a3.54 3.54 0 01-1.344 1.358c-.578.327-1.232.49-1.96.49zm0-1.694c.355 0 .682-.084.98-.252.299-.168.537-.411.714-.728.178-.317.266-.691.266-1.12 0-.42-.088-.789-.266-1.106a1.846 1.846 0 00-.714-.728 1.962 1.962 0 00-.98-.252c-.354 0-.681.084-.98.252a1.956 1.956 0 00-.728.728 2.232 2.232 0 00-.266 1.106c0 .42.089.793.266 1.12.187.317.43.56.728.728.299.168.626.252.98.252zm5.061-5.67h1.722v.896h.112a2.2 2.2 0 01.91-.812 2.706 2.706 0 011.274-.308c.858 0 1.512.261 1.96.784.448.523.672 1.237.672 2.142V364h-1.834v-4.214c0-.457-.117-.812-.35-1.064-.234-.252-.56-.378-.98-.378-.495 0-.896.191-1.204.574-.299.383-.448.863-.448 1.442V364h-1.834v-7.14z" fill="#fff"/><circle cx="20.5" cy="529.5" r="19.5" fill="#fff" stroke="#024EC9" stroke-width="2"/><circle cx="20.5" cy="614.5" r="19.5" fill="#fff" stroke="#024EC9" stroke-width="2"/><circle cx="20.5" cy="699.5" r="19.5" fill="#fff" stroke="#024EC9" stroke-width="2"/><circle cx="20.5" cy="784.5" r="19.5" fill="#fff" stroke="#024EC9" stroke-width="2"/><path d="M52.894 450.224c-.97 0-1.857-.229-2.66-.686a5.213 5.213 0 01-1.904-1.89 5.279 5.279 0 01-.686-2.66c0-.971.229-1.853.686-2.646a5.065 5.065 0 011.904-1.89c.803-.467 1.69-.7 2.66-.7 1.512 0 2.763.546 3.752 1.638l-1.33 1.288c-.644-.756-1.447-1.134-2.408-1.134-.625 0-1.195.145-1.708.434-.513.28-.92.681-1.218 1.204-.29.523-.434 1.125-.434 1.806s.145 1.283.434 1.806c.299.523.705.929 1.218 1.218.513.28 1.083.42 1.708.42 1.055 0 1.937-.439 2.646-1.316l1.344 1.274a5.023 5.023 0 01-1.764 1.372c-.672.308-1.419.462-2.24.462zm8.645 0c-.738 0-1.396-.163-1.974-.49a3.648 3.648 0 01-1.358-1.358c-.318-.579-.476-1.227-.476-1.946 0-.709.158-1.353.476-1.932a3.516 3.516 0 011.358-1.358c.578-.336 1.236-.504 1.974-.504.728 0 1.38.168 1.96.504a3.421 3.421 0 011.344 1.358 3.87 3.87 0 01.49 1.932 3.89 3.89 0 01-.49 1.946 3.547 3.547 0 01-1.344 1.358c-.58.327-1.232.49-1.96.49zm0-1.694c.354 0 .68-.084.98-.252a1.86 1.86 0 00.714-.728c.177-.317.266-.691.266-1.12 0-.42-.09-.789-.266-1.106a1.851 1.851 0 00-.714-.728 1.965 1.965 0 00-.98-.252c-.355 0-.682.084-.98.252a1.948 1.948 0 00-.728.728 2.228 2.228 0 00-.266 1.106c0 .42.088.793.266 1.12a1.941 1.941 0 001.708.98zm5.06-5.67h1.722v.952h.112a2.07 2.07 0 01.826-.826 2.35 2.35 0 011.232-.336 2.5 2.5 0 01.896.154v1.834a4.703 4.703 0 00-.644-.196 2.02 2.02 0 00-.546-.07c-.541 0-.97.196-1.288.588-.317.392-.476.887-.476 1.484V450H66.6v-7.14zm5.919 0h1.722v.868h.112a2.29 2.29 0 01.854-.77 2.534 2.534 0 011.288-.322c.644 0 1.227.163 1.75.49a3.27 3.27 0 011.246 1.344c.298.579.448 1.232.448 1.96 0 .737-.15 1.395-.448 1.974a3.398 3.398 0 01-1.246 1.344 3.309 3.309 0 01-1.75.476 2.71 2.71 0 01-1.302-.308c-.374-.205-.654-.462-.84-.77h-.112l.112 1.008v2.87h-1.834V442.86zm3.654 5.67c.345 0 .667-.089.966-.266a1.95 1.95 0 00.714-.742c.177-.317.266-.681.266-1.092 0-.411-.089-.775-.266-1.092a1.85 1.85 0 00-.714-.728 1.862 1.862 0 00-1.918 0 1.851 1.851 0 00-.714.728 2.199 2.199 0 00-.266 1.092c0 .411.088.775.266 1.092.177.317.415.565.714.742.298.177.616.266.952.266zm8.595 1.694c-.737 0-1.395-.163-1.974-.49a3.648 3.648 0 01-1.358-1.358 3.983 3.983 0 01-.476-1.946c0-.709.159-1.353.476-1.932a3.516 3.516 0 011.358-1.358c.579-.336 1.237-.504 1.974-.504.728 0 1.381.168 1.96.504a3.421 3.421 0 011.344 1.358 3.86 3.86 0 01.49 1.932 3.89 3.89 0 01-.49 1.946 3.547 3.547 0 01-1.344 1.358c-.579.327-1.232.49-1.96.49zm0-1.694c.355 0 .681-.084.98-.252.299-.168.537-.411.714-.728.177-.317.266-.691.266-1.12 0-.42-.089-.789-.266-1.106a1.851 1.851 0 00-.714-.728 1.965 1.965 0 00-.98-.252c-.355 0-.681.084-.98.252a1.948 1.948 0 00-.728.728 2.228 2.228 0 00-.266 1.106c0 .42.089.793.266 1.12.187.317.43.56.728.728.299.168.625.252.98.252zm5.06-5.67h1.723v.952h.112a2.07 2.07 0 01.826-.826 2.35 2.35 0 011.232-.336 2.5 2.5 0 01.896.154v1.834a4.703 4.703 0 00-.644-.196 2.02 2.02 0 00-.546-.07c-.542 0-.971.196-1.288.588-.318.392-.476.887-.476 1.484V450h-1.834v-7.14zm7.94 7.364c-.755 0-1.376-.219-1.861-.658-.486-.448-.729-1.031-.729-1.75 0-.476.126-.896.378-1.26a2.436 2.436 0 011.036-.84 3.53 3.53 0 011.457-.294c.737 0 1.367.107 1.89.322v-.308c0-.392-.15-.709-.448-.952-.29-.243-.682-.364-1.176-.364-.336 0-.663.079-.98.238a2.22 2.22 0 00-.77.602l-1.176-.924A3.457 3.457 0 0196.689 443a4 4 0 011.709-.364c1.092 0 1.922.252 2.492.756.569.504.854 1.241.854 2.212V450h-1.806v-.728h-.112c-.215.28-.5.509-.854.686-.346.177-.747.266-1.204.266zm.434-1.428c.533 0 .953-.168 1.26-.504.318-.345.477-.747.477-1.204a3.477 3.477 0 00-1.499-.336c-.951 0-1.427.355-1.427 1.064 0 .289.102.527.308.714.205.177.499.266.882.266zm8.201 1.316c-.354 0-.681-.051-.98-.154a2.014 2.014 0 01-.728-.448c-.438-.42-.658-1.017-.658-1.792v-3.29h-1.246v-1.568h1.246v-2.016h1.834v2.016h1.75v1.568h-1.75v2.954c0 .364.08.625.238.784.131.149.355.224.672.224.178 0 .322-.023.434-.07.122-.047.276-.126.462-.238v1.792a3.425 3.425 0 01-1.274.238zm5.844.112c-.709 0-1.349-.163-1.918-.49a3.583 3.583 0 01-1.344-1.344 3.983 3.983 0 01-.476-1.946c0-.681.159-1.311.476-1.89a3.647 3.647 0 011.316-1.4 3.505 3.505 0 011.876-.518c.737 0 1.372.159 1.904.476.532.317.933.751 1.204 1.302.28.551.42 1.162.42 1.834 0 .215-.014.42-.042.616H110.3c.093.569.317 1.003.672 1.302.364.289.798.434 1.302.434.42 0 .779-.089 1.078-.266.308-.187.551-.434.728-.742l1.484.728c-.728 1.269-1.834 1.904-3.318 1.904zm1.694-4.662a1.35 1.35 0 00-.252-.658 1.56 1.56 0 00-.602-.546 1.73 1.73 0 00-.896-.224c-.439 0-.817.131-1.134.392-.308.252-.532.597-.672 1.036h3.556zm11.183 4.662a5.28 5.28 0 01-2.66-.686 5.206 5.206 0 01-1.904-1.89 5.272 5.272 0 01-.686-2.66c0-.971.228-1.853.686-2.646a5.058 5.058 0 011.904-1.89 5.19 5.19 0 012.66-.7c1.512 0 2.762.546 3.752 1.638l-1.33 1.288c-.644-.756-1.447-1.134-2.408-1.134-.626 0-1.195.145-1.708.434-.514.28-.92.681-1.218 1.204-.29.523-.434 1.125-.434 1.806s.144 1.283.434 1.806c.298.523.704.929 1.218 1.218.513.28 1.082.42 1.708.42 1.054 0 1.936-.439 2.646-1.316l1.344 1.274a5.029 5.029 0 01-1.764 1.372c-.672.308-1.419.462-2.24.462zm8.644 0c-.737 0-1.395-.163-1.974-.49a3.65 3.65 0 01-1.358-1.358 3.983 3.983 0 01-.476-1.946c0-.709.159-1.353.476-1.932a3.517 3.517 0 011.358-1.358c.579-.336 1.237-.504 1.974-.504.728 0 1.381.168 1.96.504a3.416 3.416 0 011.344 1.358 3.86 3.86 0 01.49 1.932c0 .719-.163 1.367-.49 1.946a3.54 3.54 0 01-1.344 1.358c-.579.327-1.232.49-1.96.49zm0-1.694c.355 0 .681-.084.98-.252.299-.168.537-.411.714-.728.177-.317.266-.691.266-1.12 0-.42-.089-.789-.266-1.106a1.846 1.846 0 00-.714-.728 1.965 1.965 0 00-.98-.252c-.355 0-.681.084-.98.252a1.948 1.948 0 00-.728.728 2.232 2.232 0 00-.266 1.106c0 .42.089.793.266 1.12.187.317.429.56.728.728.299.168.625.252.98.252zm5.061-5.67h1.722v.896h.112a2.2 2.2 0 01.91-.812 2.706 2.706 0 011.274-.308c.858 0 1.512.261 1.96.784.448.523.672 1.237.672 2.142V450h-1.834v-4.214c0-.457-.117-.812-.35-1.064-.234-.252-.56-.378-.98-.378-.495 0-.896.191-1.204.574-.299.383-.448.863-.448 1.442V450h-1.834v-7.14zm11.133 7.252c-.355 0-.681-.051-.98-.154a2.005 2.005 0 01-.728-.448c-.439-.42-.658-1.017-.658-1.792v-3.29h-1.246v-1.568h1.246v-2.016h1.834v2.016h1.75v1.568h-1.75v2.954c0 .364.079.625.238.784.131.149.355.224.672.224.177 0 .322-.023.434-.07.121-.047.275-.126.462-.238v1.792a3.425 3.425 0 01-1.274.238zm4.791.112c-.756 0-1.377-.219-1.862-.658-.485-.448-.728-1.031-.728-1.75 0-.476.126-.896.378-1.26a2.434 2.434 0 011.036-.84 3.53 3.53 0 011.456-.294c.737 0 1.367.107 1.89.322v-.308c0-.392-.149-.709-.448-.952-.289-.243-.681-.364-1.176-.364-.336 0-.663.079-.98.238a2.23 2.23 0 00-.77.602l-1.176-.924a3.453 3.453 0 011.302-1.036 4.002 4.002 0 011.708-.364c1.092 0 1.923.252 2.492.756s.854 1.241.854 2.212V450h-1.806v-.728h-.112a2.41 2.41 0 01-.854.686c-.345.177-.747.266-1.204.266zm.434-1.428c.532 0 .952-.168 1.26-.504.317-.345.476-.747.476-1.204a3.476 3.476 0 00-1.498-.336c-.952 0-1.428.355-1.428 1.064 0 .289.103.527.308.714.205.177.499.266.882.266zm8.521 1.428c-.718 0-1.362-.159-1.932-.476a3.55 3.55 0 01-1.344-1.358c-.317-.579-.476-1.232-.476-1.96s.159-1.377.476-1.946a3.55 3.55 0 011.344-1.358c.57-.327 1.214-.49 1.932-.49.794 0 1.475.173 2.044.518.57.336.98.817 1.232 1.442l-1.68.7c-.298-.635-.83-.952-1.596-.952-.56 0-1.022.191-1.386.574-.354.383-.532.887-.532 1.512 0 .635.178 1.143.532 1.526.364.383.826.574 1.386.574.775 0 1.335-.336 1.68-1.008l1.666.728a3.431 3.431 0 01-1.316 1.456c-.569.345-1.246.518-2.03.518zm7.705-.112c-.354 0-.681-.051-.98-.154a2.014 2.014 0 01-.728-.448c-.438-.42-.658-1.017-.658-1.792v-3.29H167.8v-1.568h1.246v-2.016h1.834v2.016h1.75v1.568h-1.75v2.954c0 .364.08.625.238.784.131.149.355.224.672.224.178 0 .322-.023.434-.07.122-.047.276-.126.462-.238v1.792a3.425 3.425 0 01-1.274.238zm6.277-10.136h1.89V450h-1.89v-10.024zm3.918 2.884h1.722v.896h.112c.215-.345.518-.616.91-.812a2.71 2.71 0 011.274-.308c.859 0 1.512.261 1.96.784.448.523.672 1.237.672 2.142V450h-1.834v-4.214c0-.457-.117-.812-.35-1.064-.233-.252-.56-.378-.98-.378-.495 0-.896.191-1.204.574-.299.383-.448.863-.448 1.442V450h-1.834v-7.14zm9.014 1.568h-1.274v-1.568h1.274v-.392c0-.812.243-1.447.728-1.904.485-.467 1.12-.7 1.904-.7.448 0 .835.051 1.162.154v1.792a3.598 3.598 0 00-.476-.168 1.709 1.709 0 00-.462-.056c-.308 0-.555.089-.742.266-.187.177-.28.42-.28.728v.28h1.75v1.568h-1.75V450h-1.834v-5.572zm8.005 5.796c-.737 0-1.395-.163-1.974-.49a3.656 3.656 0 01-1.358-1.358 3.983 3.983 0 01-.476-1.946c0-.709.159-1.353.476-1.932a3.523 3.523 0 011.358-1.358c.579-.336 1.237-.504 1.974-.504.728 0 1.382.168 1.96.504a3.416 3.416 0 011.344 1.358 3.86 3.86 0 01.49 1.932c0 .719-.163 1.367-.49 1.946a3.54 3.54 0 01-1.344 1.358c-.578.327-1.232.49-1.96.49zm0-1.694c.355 0 .682-.084.98-.252.299-.168.537-.411.714-.728.178-.317.266-.691.266-1.12 0-.42-.088-.789-.266-1.106a1.846 1.846 0 00-.714-.728 1.962 1.962 0 00-.98-.252c-.354 0-.681.084-.98.252a1.956 1.956 0 00-.728.728 2.232 2.232 0 00-.266 1.106c0 .42.089.793.266 1.12.187.317.43.56.728.728.299.168.626.252.98.252zm5.061-5.67h1.722v.952h.112c.177-.336.453-.611.826-.826a2.349 2.349 0 011.232-.336 2.5 2.5 0 01.896.154v1.834a4.72 4.72 0 00-.644-.196 2.02 2.02 0 00-.546-.07c-.541 0-.971.196-1.288.588-.317.392-.476.887-.476 1.484V450h-1.834v-7.14zm5.975 0h1.722v.896h.112c.224-.345.522-.616.896-.812a2.652 2.652 0 011.274-.308c.504 0 .942.121 1.316.364.373.233.639.532.798.896.233-.373.55-.677.952-.91.41-.233.891-.35 1.442-.35.812 0 1.428.252 1.848.756.429.495.644 1.167.644 2.016V450h-1.82v-4.256c0-.448-.108-.793-.322-1.036-.206-.243-.495-.364-.868-.364-.476 0-.859.191-1.148.574-.28.373-.42.868-.42 1.484V450h-1.834v-4.256c0-.448-.112-.793-.336-1.036-.215-.243-.523-.364-.924-.364-.448 0-.812.191-1.092.574-.271.373-.406.868-.406 1.484V450h-1.834v-7.14zm14.871 7.364c-.756 0-1.377-.219-1.862-.658-.485-.448-.728-1.031-.728-1.75 0-.476.126-.896.378-1.26a2.434 2.434 0 011.036-.84 3.53 3.53 0 011.456-.294c.737 0 1.367.107 1.89.322v-.308c0-.392-.149-.709-.448-.952-.289-.243-.681-.364-1.176-.364-.336 0-.663.079-.98.238a2.23 2.23 0 00-.77.602l-1.176-.924a3.453 3.453 0 011.302-1.036 4.002 4.002 0 011.708-.364c1.092 0 1.923.252 2.492.756s.854 1.241.854 2.212V450h-1.806v-.728h-.112a2.41 2.41 0 01-.854.686c-.345.177-.747.266-1.204.266zm.434-1.428c.532 0 .952-.168 1.26-.504.317-.345.476-.747.476-1.204a3.476 3.476 0 00-1.498-.336c-.952 0-1.428.355-1.428 1.064 0 .289.103.527.308.714.205.177.499.266.882.266zm8.201 1.316c-.355 0-.681-.051-.98-.154a2.005 2.005 0 01-.728-.448c-.439-.42-.658-1.017-.658-1.792v-3.29h-1.246v-1.568h1.246v-2.016h1.834v2.016h1.75v1.568h-1.75v2.954c0 .364.079.625.238.784.131.149.355.224.672.224.177 0 .322-.023.434-.07.121-.047.275-.126.462-.238v1.792a3.425 3.425 0 01-1.274.238zm3.848-8.036c-.327 0-.607-.117-.84-.35a1.146 1.146 0 01-.35-.84 1.1 1.1 0 01.35-.826c.233-.233.513-.35.84-.35a1.1 1.1 0 01.826.35 1.1 1.1 0 01.35.826c0 .327-.117.607-.35.84a1.1 1.1 0 01-.826.35zm-.924.784h1.834V450h-1.834v-7.14zm7.105 7.364c-.738 0-1.396-.163-1.974-.49a3.642 3.642 0 01-1.358-1.358c-.318-.579-.476-1.227-.476-1.946 0-.709.158-1.353.476-1.932a3.51 3.51 0 011.358-1.358c.578-.336 1.236-.504 1.974-.504.728 0 1.381.168 1.96.504a3.429 3.429 0 011.344 1.358 3.87 3.87 0 01.49 1.932c0 .719-.164 1.367-.49 1.946a3.555 3.555 0 01-1.344 1.358c-.579.327-1.232.49-1.96.49zm0-1.694c.354 0 .681-.084.98-.252a1.86 1.86 0 00.714-.728c.177-.317.266-.691.266-1.12 0-.42-.089-.789-.266-1.106a1.86 1.86 0 00-.714-.728 1.968 1.968 0 00-.98-.252 1.941 1.941 0 00-1.708.98 2.222 2.222 0 00-.266 1.106c0 .42.088.793.266 1.12a1.941 1.941 0 001.708.98zm5.06-5.67h1.722v.896h.112c.215-.345.518-.616.91-.812a2.71 2.71 0 011.274-.308c.859 0 1.512.261 1.96.784.448.523.672 1.237.672 2.142V450h-1.834v-4.214c0-.457-.116-.812-.35-1.064-.233-.252-.56-.378-.98-.378-.494 0-.896.191-1.204.574-.298.383-.448.863-.448 1.442V450h-1.834v-7.14zM51.172 534.224c-.877 0-1.652-.247-2.324-.742-.672-.495-1.143-1.195-1.414-2.1l1.778-.7c.14.532.378.957.714 1.274.336.317.756.476 1.26.476.42 0 .78-.103 1.078-.308.299-.215.448-.509.448-.882s-.145-.677-.434-.91c-.28-.243-.784-.499-1.512-.77l-.616-.224a4.299 4.299 0 01-1.652-1.022c-.457-.467-.686-1.05-.686-1.75 0-.523.135-.999.406-1.428.27-.429.653-.765 1.148-1.008.495-.252 1.055-.378 1.68-.378.905 0 1.62.215 2.142.644.523.42.882.915 1.078 1.484l-1.666.7a1.607 1.607 0 00-.546-.77c-.252-.215-.579-.322-.98-.322-.41 0-.751.098-1.022.294a.87.87 0 00-.392.742c0 .299.126.555.378.77.252.205.667.406 1.246.602l.63.21c.868.299 1.53.695 1.988 1.19.467.485.7 1.125.7 1.918 0 .653-.168 1.209-.504 1.666-.336.448-.77.784-1.302 1.008a4.083 4.083 0 01-1.624.336zm7.152 0c-.756 0-1.377-.219-1.862-.658-.485-.448-.728-1.031-.728-1.75 0-.476.126-.896.378-1.26a2.436 2.436 0 011.036-.84 3.53 3.53 0 011.456-.294c.738 0 1.367.107 1.89.322v-.308c0-.392-.15-.709-.448-.952-.29-.243-.681-.364-1.176-.364-.336 0-.662.079-.98.238a2.23 2.23 0 00-.77.602l-1.176-.924A3.46 3.46 0 0157.246 527a4 4 0 011.708-.364c1.092 0 1.923.252 2.492.756.57.504.854 1.241.854 2.212V534h-1.806v-.728h-.112c-.215.28-.5.509-.854.686-.345.177-.746.266-1.204.266zm.434-1.428c.532 0 .952-.168 1.26-.504.318-.345.476-.747.476-1.204a3.477 3.477 0 00-1.498-.336c-.952 0-1.428.355-1.428 1.064 0 .289.103.527.308.714.206.177.5.266.882.266zm5.23-8.82h1.834V534h-1.834v-10.024zm6.914 10.248c-.71 0-1.349-.163-1.918-.49a3.577 3.577 0 01-1.344-1.344 3.983 3.983 0 01-.476-1.946c0-.681.159-1.311.476-1.89a3.65 3.65 0 011.316-1.4 3.505 3.505 0 011.876-.518c.738 0 1.372.159 1.904.476.532.317.933.751 1.204 1.302.28.551.42 1.162.42 1.834 0 .215-.014.42-.042.616h-5.362c.093.569.317 1.003.672 1.302.364.289.798.434 1.302.434.42 0 .78-.089 1.078-.266.308-.187.55-.434.728-.742l1.484.728c-.728 1.269-1.834 1.904-3.318 1.904zm1.694-4.662a1.343 1.343 0 00-.252-.658 1.558 1.558 0 00-.602-.546 1.729 1.729 0 00-.896-.224c-.439 0-.817.131-1.134.392-.308.252-.532.597-.672 1.036h3.556zm5.961 4.662c-.868 0-1.572-.177-2.114-.532a2.847 2.847 0 01-1.12-1.386l1.638-.714c.15.336.36.593.63.77.28.168.602.252.966.252.336 0 .616-.051.84-.154a.557.557 0 00.336-.532.553.553 0 00-.308-.518c-.205-.121-.513-.229-.924-.322l-.84-.182c-.578-.14-1.059-.392-1.442-.756a1.858 1.858 0 01-.574-1.386c0-.411.122-.779.364-1.106a2.437 2.437 0 011.008-.756c.43-.177.901-.266 1.414-.266 1.475 0 2.46.518 2.954 1.554l-1.568.686c-.28-.504-.728-.756-1.344-.756-.317 0-.569.061-.756.182-.186.112-.28.257-.28.434 0 .336.318.588.952.756l1.05.252c.71.177 1.242.448 1.596.812.364.364.546.812.546 1.344 0 .457-.135.863-.406 1.218-.261.345-.625.616-1.092.812a3.836 3.836 0 01-1.526.294zm12.358 0c-.97 0-1.857-.229-2.66-.686a5.213 5.213 0 01-1.903-1.89 5.279 5.279 0 01-.687-2.66c0-.971.23-1.853.686-2.646a5.065 5.065 0 011.904-1.89c.803-.467 1.69-.7 2.66-.7 1.512 0 2.763.546 3.752 1.638l-1.33 1.288c-.644-.756-1.446-1.134-2.407-1.134-.626 0-1.195.145-1.709.434-.513.28-.919.681-1.218 1.204-.289.523-.433 1.125-.433 1.806s.144 1.283.434 1.806c.298.523.704.929 1.218 1.218.513.28 1.082.42 1.708.42 1.054 0 1.936-.439 2.645-1.316l1.344 1.274a5.023 5.023 0 01-1.763 1.372c-.672.308-1.42.462-2.24.462zm8.645 0c-.737 0-1.395-.163-1.974-.49a3.65 3.65 0 01-1.358-1.358 3.983 3.983 0 01-.476-1.946c0-.709.159-1.353.476-1.932a3.517 3.517 0 011.358-1.358c.579-.336 1.237-.504 1.974-.504.728 0 1.381.168 1.96.504a3.416 3.416 0 011.344 1.358 3.86 3.86 0 01.49 1.932c0 .719-.163 1.367-.49 1.946a3.54 3.54 0 01-1.344 1.358c-.579.327-1.232.49-1.96.49zm0-1.694c.355 0 .681-.084.98-.252.299-.168.537-.411.714-.728.177-.317.266-.691.266-1.12 0-.42-.089-.789-.266-1.106a1.846 1.846 0 00-.714-.728 1.966 1.966 0 00-.98-.252c-.355 0-.681.084-.98.252a1.95 1.95 0 00-.728.728 2.23 2.23 0 00-.266 1.106c0 .42.089.793.266 1.12.187.317.43.56.728.728.299.168.625.252.98.252zm5.061-5.67h1.722v.896h.112a2.2 2.2 0 01.91-.812 2.706 2.706 0 011.274-.308c.858 0 1.512.261 1.96.784.448.523.672 1.237.672 2.142V534h-1.834v-4.214c0-.457-.117-.812-.35-1.064-.234-.252-.56-.378-.98-.378-.495 0-.896.191-1.204.574-.299.383-.448.863-.448 1.442V534h-1.834v-7.14zm11.133 7.252c-.355 0-.681-.051-.98-.154a2.005 2.005 0 01-.728-.448c-.439-.42-.658-1.017-.658-1.792v-3.29h-1.246v-1.568h1.246v-2.016h1.834v2.016h1.75v1.568h-1.75v2.954c0 .364.079.625.238.784.131.149.355.224.672.224.177 0 .322-.023.434-.07.121-.047.275-.126.462-.238v1.792a3.425 3.425 0 01-1.274.238zm4.791.112c-.756 0-1.377-.219-1.862-.658-.485-.448-.728-1.031-.728-1.75 0-.476.126-.896.378-1.26a2.434 2.434 0 011.036-.84 3.53 3.53 0 011.456-.294c.737 0 1.367.107 1.89.322v-.308c0-.392-.149-.709-.448-.952-.289-.243-.681-.364-1.176-.364-.336 0-.663.079-.98.238a2.23 2.23 0 00-.77.602l-1.176-.924a3.453 3.453 0 011.302-1.036 4.002 4.002 0 011.708-.364c1.092 0 1.923.252 2.492.756s.854 1.241.854 2.212V534h-1.806v-.728h-.112a2.41 2.41 0 01-.854.686c-.345.177-.747.266-1.204.266zm.434-1.428c.532 0 .952-.168 1.26-.504.317-.345.476-.747.476-1.204a3.476 3.476 0 00-1.498-.336c-.952 0-1.428.355-1.428 1.064 0 .289.103.527.308.714.205.177.499.266.882.266zm8.521 1.428c-.719 0-1.363-.159-1.932-.476a3.55 3.55 0 01-1.344-1.358c-.317-.579-.476-1.232-.476-1.96s.159-1.377.476-1.946a3.55 3.55 0 011.344-1.358c.569-.327 1.213-.49 1.932-.49.793 0 1.475.173 2.044.518.569.336.98.817 1.232 1.442l-1.68.7c-.299-.635-.831-.952-1.596-.952-.56 0-1.022.191-1.386.574-.355.383-.532.887-.532 1.512 0 .635.177 1.143.532 1.526.364.383.826.574 1.386.574.775 0 1.335-.336 1.68-1.008l1.666.728a3.438 3.438 0 01-1.316 1.456c-.569.345-1.246.518-2.03.518zm7.705-.112c-.354 0-.681-.051-.98-.154a2.014 2.014 0 01-.728-.448c-.438-.42-.658-1.017-.658-1.792v-3.29h-1.246v-1.568h1.246v-2.016h1.834v2.016h1.75v1.568h-1.75v2.954c0 .364.08.625.238.784.131.149.355.224.672.224.178 0 .322-.023.434-.07.122-.047.276-.126.462-.238v1.792a3.425 3.425 0 01-1.274.238zm6.277-10.136h1.89V534h-1.89v-10.024zm3.918 2.884h1.722v.896h.112c.215-.345.518-.616.91-.812a2.71 2.71 0 011.274-.308c.859 0 1.512.261 1.96.784.448.523.672 1.237.672 2.142V534h-1.834v-4.214c0-.457-.117-.812-.35-1.064-.233-.252-.56-.378-.98-.378-.495 0-.896.191-1.204.574-.299.383-.448.863-.448 1.442V534H147.4v-7.14zm9.014 1.568h-1.274v-1.568h1.274v-.392c0-.812.243-1.447.728-1.904.485-.467 1.12-.7 1.904-.7.448 0 .835.051 1.162.154v1.792a3.598 3.598 0 00-.476-.168 1.709 1.709 0 00-.462-.056c-.308 0-.555.089-.742.266-.187.177-.28.42-.28.728v.28h1.75v1.568h-1.75V534h-1.834v-5.572zm8.005 5.796c-.737 0-1.395-.163-1.974-.49a3.656 3.656 0 01-1.358-1.358 3.983 3.983 0 01-.476-1.946c0-.709.159-1.353.476-1.932a3.523 3.523 0 011.358-1.358c.579-.336 1.237-.504 1.974-.504.728 0 1.382.168 1.96.504a3.416 3.416 0 011.344 1.358 3.86 3.86 0 01.49 1.932c0 .719-.163 1.367-.49 1.946a3.54 3.54 0 01-1.344 1.358c-.578.327-1.232.49-1.96.49zm0-1.694c.355 0 .682-.084.98-.252.299-.168.537-.411.714-.728.178-.317.266-.691.266-1.12 0-.42-.088-.789-.266-1.106a1.846 1.846 0 00-.714-.728 1.962 1.962 0 00-.98-.252c-.354 0-.681.084-.98.252a1.956 1.956 0 00-.728.728 2.232 2.232 0 00-.266 1.106c0 .42.089.793.266 1.12.187.317.43.56.728.728.299.168.626.252.98.252zm5.061-5.67h1.722v.952h.112c.177-.336.453-.611.826-.826a2.349 2.349 0 011.232-.336 2.5 2.5 0 01.896.154v1.834a4.72 4.72 0 00-.644-.196 2.02 2.02 0 00-.546-.07c-.541 0-.971.196-1.288.588-.317.392-.476.887-.476 1.484V534h-1.834v-7.14zm5.975 0h1.722v.896h.112c.224-.345.522-.616.896-.812a2.652 2.652 0 011.274-.308c.504 0 .942.121 1.316.364.373.233.639.532.798.896.233-.373.55-.677.952-.91.41-.233.891-.35 1.442-.35.812 0 1.428.252 1.848.756.429.495.644 1.167.644 2.016V534h-1.82v-4.256c0-.448-.108-.793-.322-1.036-.206-.243-.495-.364-.868-.364-.476 0-.859.191-1.148.574-.28.373-.42.868-.42 1.484V534h-1.834v-4.256c0-.448-.112-.793-.336-1.036-.215-.243-.523-.364-.924-.364-.448 0-.812.191-1.092.574-.271.373-.406.868-.406 1.484V534h-1.834v-7.14zm14.871 7.364c-.756 0-1.377-.219-1.862-.658-.485-.448-.728-1.031-.728-1.75 0-.476.126-.896.378-1.26a2.434 2.434 0 011.036-.84 3.53 3.53 0 011.456-.294c.737 0 1.367.107 1.89.322v-.308c0-.392-.149-.709-.448-.952-.289-.243-.681-.364-1.176-.364-.336 0-.663.079-.98.238a2.23 2.23 0 00-.77.602l-1.176-.924a3.453 3.453 0 011.302-1.036 4.002 4.002 0 011.708-.364c1.092 0 1.923.252 2.492.756s.854 1.241.854 2.212V534h-1.806v-.728h-.112a2.41 2.41 0 01-.854.686c-.345.177-.747.266-1.204.266zm.434-1.428c.532 0 .952-.168 1.26-.504.317-.345.476-.747.476-1.204a3.476 3.476 0 00-1.498-.336c-.952 0-1.428.355-1.428 1.064 0 .289.103.527.308.714.205.177.499.266.882.266zm8.201 1.316c-.355 0-.681-.051-.98-.154a2.005 2.005 0 01-.728-.448c-.439-.42-.658-1.017-.658-1.792v-3.29h-1.246v-1.568h1.246v-2.016h1.834v2.016h1.75v1.568h-1.75v2.954c0 .364.079.625.238.784.131.149.355.224.672.224.177 0 .322-.023.434-.07.121-.047.275-.126.462-.238v1.792a3.425 3.425 0 01-1.274.238zm3.848-8.036c-.327 0-.607-.117-.84-.35a1.146 1.146 0 01-.35-.84 1.1 1.1 0 01.35-.826c.233-.233.513-.35.84-.35a1.1 1.1 0 01.826.35 1.1 1.1 0 01.35.826c0 .327-.117.607-.35.84a1.1 1.1 0 01-.826.35zm-.924.784h1.834V534h-1.834v-7.14zm7.105 7.364c-.738 0-1.396-.163-1.974-.49a3.642 3.642 0 01-1.358-1.358c-.318-.579-.476-1.227-.476-1.946 0-.709.158-1.353.476-1.932a3.51 3.51 0 011.358-1.358c.578-.336 1.236-.504 1.974-.504.728 0 1.381.168 1.96.504a3.429 3.429 0 011.344 1.358 3.87 3.87 0 01.49 1.932c0 .719-.164 1.367-.49 1.946a3.555 3.555 0 01-1.344 1.358c-.579.327-1.232.49-1.96.49zm0-1.694c.354 0 .681-.084.98-.252a1.86 1.86 0 00.714-.728c.177-.317.266-.691.266-1.12 0-.42-.089-.789-.266-1.106a1.86 1.86 0 00-.714-.728 1.968 1.968 0 00-.98-.252 1.941 1.941 0 00-1.708.98 2.222 2.222 0 00-.266 1.106c0 .42.088.793.266 1.12a1.941 1.941 0 001.708.98zm5.06-5.67h1.722v.896h.112c.215-.345.518-.616.91-.812a2.71 2.71 0 011.274-.308c.859 0 1.512.261 1.96.784.448.523.672 1.237.672 2.142V534h-1.834v-4.214c0-.457-.116-.812-.35-1.064-.233-.252-.56-.378-.98-.378-.494 0-.896.191-1.204.574-.298.383-.448.863-.448 1.442V534h-1.834v-7.14zM48.148 608.976h3.388c1.045 0 1.955.21 2.73.63a4.408 4.408 0 011.792 1.764c.42.756.63 1.629.63 2.618 0 .989-.21 1.862-.63 2.618a4.408 4.408 0 01-1.792 1.764c-.775.42-1.685.63-2.73.63h-3.388v-10.024zm3.304 8.232c1.083 0 1.909-.285 2.478-.854.57-.579.854-1.367.854-2.366 0-.999-.285-1.783-.854-2.352-.57-.579-1.395-.868-2.478-.868h-1.414v6.44h1.414zm7.816-6.132c-.327 0-.607-.117-.84-.35a1.145 1.145 0 01-.35-.84 1.1 1.1 0 01.35-.826c.233-.233.513-.35.84-.35a1.1 1.1 0 01.826.35 1.1 1.1 0 01.35.826c0 .327-.117.607-.35.84-.224.233-.5.35-.826.35zm-.924.784h1.834V619h-1.834v-7.14zm6.473 7.364c-.868 0-1.573-.177-2.114-.532a2.846 2.846 0 01-1.12-1.386l1.638-.714c.15.336.36.593.63.77.28.168.602.252.966.252.336 0 .616-.051.84-.154a.557.557 0 00.336-.532.553.553 0 00-.308-.518c-.205-.121-.513-.229-.924-.322l-.84-.182c-.579-.14-1.06-.392-1.442-.756a1.858 1.858 0 01-.574-1.386c0-.411.121-.779.364-1.106a2.437 2.437 0 011.008-.756c.43-.177.9-.266 1.414-.266 1.475 0 2.46.518 2.954 1.554l-1.568.686c-.28-.504-.728-.756-1.344-.756-.317 0-.57.061-.756.182-.187.112-.28.257-.28.434 0 .336.317.588.952.756l1.05.252c.71.177 1.241.448 1.596.812.364.364.546.812.546 1.344 0 .457-.135.863-.406 1.218-.261.345-.625.616-1.092.812a3.836 3.836 0 01-1.526.294zm4.228-7.364h1.722v.868h.112a2.29 2.29 0 01.854-.77 2.534 2.534 0 011.288-.322c.644 0 1.227.163 1.75.49.532.317.947.765 1.246 1.344.299.579.448 1.232.448 1.96 0 .737-.15 1.395-.448 1.974a3.399 3.399 0 01-1.246 1.344 3.309 3.309 0 01-1.75.476c-.485 0-.92-.103-1.302-.308-.373-.205-.653-.462-.84-.77h-.112l.112 1.008v2.87h-1.834V611.86zm3.654 5.67c.345 0 .667-.089.966-.266.299-.177.537-.425.714-.742.177-.317.266-.681.266-1.092 0-.411-.089-.775-.266-1.092a1.851 1.851 0 00-.714-.728 1.863 1.863 0 00-1.918 0 1.85 1.85 0 00-.714.728 2.198 2.198 0 00-.266 1.092c0 .411.089.775.266 1.092.177.317.415.565.714.742.299.177.616.266.952.266zm7.363 1.694c-.756 0-1.376-.219-1.862-.658-.485-.448-.728-1.031-.728-1.75 0-.476.126-.896.378-1.26a2.436 2.436 0 011.036-.84 3.53 3.53 0 011.456-.294c.738 0 1.368.107 1.89.322v-.308c0-.392-.149-.709-.448-.952-.289-.243-.68-.364-1.176-.364-.336 0-.662.079-.98.238-.308.149-.564.35-.77.602l-1.176-.924A3.46 3.46 0 0178.984 612a4 4 0 011.708-.364c1.092 0 1.923.252 2.492.756.57.504.854 1.241.854 2.212V619h-1.806v-.728h-.112c-.214.28-.499.509-.854.686-.345.177-.746.266-1.204.266zm.434-1.428c.532 0 .952-.168 1.26-.504.318-.345.476-.747.476-1.204a3.477 3.477 0 00-1.498-.336c-.952 0-1.428.355-1.428 1.064 0 .289.103.527.308.714.206.177.5.266.882.266zm8.201 1.316c-.354 0-.681-.051-.98-.154a2.005 2.005 0 01-.728-.448c-.438-.42-.658-1.017-.658-1.792v-3.29h-1.246v-1.568h1.246v-2.016h1.834v2.016h1.75v1.568h-1.75v2.954c0 .364.08.625.238.784.131.149.355.224.672.224.178 0 .322-.023.434-.07.122-.047.276-.126.462-.238v1.792a3.427 3.427 0 01-1.274.238zm5.858.112c-.719 0-1.363-.159-1.932-.476a3.545 3.545 0 01-1.344-1.358c-.317-.579-.476-1.232-.476-1.96s.159-1.377.476-1.946a3.545 3.545 0 011.344-1.358c.57-.327 1.213-.49 1.932-.49.793 0 1.474.173 2.044.518.57.336.98.817 1.232 1.442l-1.68.7c-.299-.635-.83-.952-1.596-.952-.56 0-1.022.191-1.386.574-.355.383-.532.887-.532 1.512 0 .635.177 1.143.532 1.526.364.383.826.574 1.386.574.774 0 1.334-.336 1.68-1.008l1.666.728a3.435 3.435 0 01-1.316 1.456c-.57.345-1.246.518-2.03.518zm4.665-10.248h1.834v2.534l-.112 1.246h.112c.206-.336.504-.607.896-.812a2.71 2.71 0 011.274-.308c.868 0 1.531.261 1.988.784.467.513.7 1.227.7 2.142V619h-1.834v-4.214c0-.457-.126-.812-.378-1.064-.242-.252-.569-.378-.98-.378-.485 0-.886.196-1.204.588-.308.392-.462.873-.462 1.442V619H99.22v-10.024zm16.428 10.248a5.282 5.282 0 01-2.66-.686 5.213 5.213 0 01-1.904-1.89 5.282 5.282 0 01-.686-2.66c0-.971.229-1.853.686-2.646a5.065 5.065 0 011.904-1.89 5.193 5.193 0 012.66-.7c1.512 0 2.763.546 3.752 1.638l-1.33 1.288c-.644-.756-1.447-1.134-2.408-1.134-.625 0-1.195.145-1.708.434-.513.28-.919.681-1.218 1.204-.289.523-.434 1.125-.434 1.806s.145 1.283.434 1.806c.299.523.705.929 1.218 1.218.513.28 1.083.42 1.708.42 1.055 0 1.937-.439 2.646-1.316l1.344 1.274a5.029 5.029 0 01-1.764 1.372c-.672.308-1.419.462-2.24.462zm8.644 0c-.737 0-1.395-.163-1.974-.49a3.656 3.656 0 01-1.358-1.358 3.983 3.983 0 01-.476-1.946c0-.709.159-1.353.476-1.932a3.523 3.523 0 011.358-1.358c.579-.336 1.237-.504 1.974-.504.728 0 1.382.168 1.96.504a3.416 3.416 0 011.344 1.358 3.86 3.86 0 01.49 1.932c0 .719-.163 1.367-.49 1.946a3.54 3.54 0 01-1.344 1.358c-.578.327-1.232.49-1.96.49zm0-1.694c.355 0 .682-.084.98-.252.299-.168.537-.411.714-.728.178-.317.266-.691.266-1.12 0-.42-.088-.789-.266-1.106a1.846 1.846 0 00-.714-.728 1.962 1.962 0 00-.98-.252c-.354 0-.681.084-.98.252a1.956 1.956 0 00-.728.728 2.232 2.232 0 00-.266 1.106c0 .42.089.793.266 1.12.187.317.43.56.728.728.299.168.626.252.98.252zm5.061-5.67h1.722v.896h.112c.215-.345.518-.616.91-.812a2.71 2.71 0 011.274-.308c.859 0 1.512.261 1.96.784.448.523.672 1.237.672 2.142V619h-1.834v-4.214c0-.457-.117-.812-.35-1.064-.233-.252-.56-.378-.98-.378-.495 0-.896.191-1.204.574-.299.383-.448.863-.448 1.442V619h-1.834v-7.14zm11.133 7.252c-.354 0-.681-.051-.98-.154a2.014 2.014 0 01-.728-.448c-.438-.42-.658-1.017-.658-1.792v-3.29h-1.246v-1.568h1.246v-2.016h1.834v2.016h1.75v1.568h-1.75v2.954c0 .364.08.625.238.784.131.149.355.224.672.224.178 0 .322-.023.434-.07.122-.047.276-.126.462-.238v1.792a3.425 3.425 0 01-1.274.238zm4.791.112c-.756 0-1.376-.219-1.862-.658-.485-.448-.728-1.031-.728-1.75 0-.476.126-.896.378-1.26a2.44 2.44 0 011.036-.84 3.53 3.53 0 011.456-.294c.738 0 1.368.107 1.89.322v-.308c0-.392-.149-.709-.448-.952-.289-.243-.681-.364-1.176-.364-.336 0-.662.079-.98.238-.308.149-.564.35-.77.602l-1.176-.924c.346-.448.78-.793 1.302-1.036a4.002 4.002 0 011.708-.364c1.092 0 1.923.252 2.492.756.57.504.854 1.241.854 2.212V619h-1.806v-.728h-.112c-.214.28-.499.509-.854.686-.345.177-.746.266-1.204.266zm.434-1.428c.532 0 .952-.168 1.26-.504.318-.345.476-.747.476-1.204a3.476 3.476 0 00-1.498-.336c-.952 0-1.428.355-1.428 1.064 0 .289.103.527.308.714.206.177.5.266.882.266zm8.522 1.428c-.719 0-1.363-.159-1.932-.476a3.536 3.536 0 01-1.344-1.358c-.318-.579-.476-1.232-.476-1.96s.158-1.377.476-1.946a3.536 3.536 0 011.344-1.358c.569-.327 1.213-.49 1.932-.49.793 0 1.474.173 2.044.518.569.336.98.817 1.232 1.442l-1.68.7c-.299-.635-.831-.952-1.596-.952-.56 0-1.022.191-1.386.574-.355.383-.532.887-.532 1.512 0 .635.177 1.143.532 1.526.364.383.826.574 1.386.574.774 0 1.334-.336 1.68-1.008l1.666.728a3.438 3.438 0 01-1.316 1.456c-.57.345-1.246.518-2.03.518zm7.705-.112c-.355 0-.682-.051-.98-.154a1.997 1.997 0 01-.728-.448c-.439-.42-.658-1.017-.658-1.792v-3.29h-1.246v-1.568h1.246v-2.016h1.834v2.016h1.75v1.568h-1.75v2.954c0 .364.079.625.238.784.13.149.354.224.672.224.177 0 .322-.023.434-.07.121-.047.275-.126.462-.238v1.792a3.43 3.43 0 01-1.274.238zm6.276-10.136h1.89V619h-1.89v-10.024zm3.918 2.884h1.722v.896h.112c.215-.345.518-.616.91-.812a2.71 2.71 0 011.274-.308c.859 0 1.512.261 1.96.784.448.523.672 1.237.672 2.142V619h-1.834v-4.214c0-.457-.116-.812-.35-1.064-.233-.252-.56-.378-.98-.378-.494 0-.896.191-1.204.574-.298.383-.448.863-.448 1.442V619h-1.834v-7.14zm9.014 1.568h-1.274v-1.568h1.274v-.392c0-.812.243-1.447.728-1.904.486-.467 1.12-.7 1.904-.7.448 0 .836.051 1.162.154v1.792a3.598 3.598 0 00-.476-.168 1.698 1.698 0 00-.462-.056c-.308 0-.555.089-.742.266-.186.177-.28.42-.28.728v.28h1.75v1.568h-1.75V619h-1.834v-5.572zm8.006 5.796c-.737 0-1.395-.163-1.974-.49a3.65 3.65 0 01-1.358-1.358 3.983 3.983 0 01-.476-1.946c0-.709.159-1.353.476-1.932a3.517 3.517 0 011.358-1.358c.579-.336 1.237-.504 1.974-.504.728 0 1.381.168 1.96.504a3.416 3.416 0 011.344 1.358 3.86 3.86 0 01.49 1.932c0 .719-.163 1.367-.49 1.946a3.54 3.54 0 01-1.344 1.358c-.579.327-1.232.49-1.96.49zm0-1.694c.355 0 .681-.084.98-.252.299-.168.537-.411.714-.728.177-.317.266-.691.266-1.12 0-.42-.089-.789-.266-1.106a1.846 1.846 0 00-.714-.728 1.965 1.965 0 00-.98-.252c-.355 0-.681.084-.98.252a1.948 1.948 0 00-.728.728 2.232 2.232 0 00-.266 1.106c0 .42.089.793.266 1.12.187.317.429.56.728.728.299.168.625.252.98.252zm5.06-5.67h1.722v.952h.112c.178-.336.453-.611.826-.826a2.351 2.351 0 011.232-.336c.327 0 .626.051.896.154v1.834a4.678 4.678 0 00-.644-.196 2.02 2.02 0 00-.546-.07c-.541 0-.97.196-1.288.588-.317.392-.476.887-.476 1.484V619h-1.834v-7.14zm5.975 0h1.722v.896h.112c.224-.345.523-.616.896-.812a2.655 2.655 0 011.274-.308c.504 0 .943.121 1.316.364.373.233.639.532.798.896a2.7 2.7 0 01.952-.91c.411-.233.891-.35 1.442-.35.812 0 1.428.252 1.848.756.429.495.644 1.167.644 2.016V619h-1.82v-4.256c0-.448-.107-.793-.322-1.036-.205-.243-.495-.364-.868-.364-.476 0-.859.191-1.148.574-.28.373-.42.868-.42 1.484V619h-1.834v-4.256c0-.448-.112-.793-.336-1.036-.215-.243-.523-.364-.924-.364-.448 0-.812.191-1.092.574-.271.373-.406.868-.406 1.484V619h-1.834v-7.14zm14.872 7.364c-.756 0-1.377-.219-1.862-.658-.486-.448-.728-1.031-.728-1.75 0-.476.126-.896.378-1.26a2.434 2.434 0 011.036-.84 3.527 3.527 0 011.456-.294c.737 0 1.367.107 1.89.322v-.308c0-.392-.15-.709-.448-.952-.29-.243-.682-.364-1.176-.364-.336 0-.663.079-.98.238a2.23 2.23 0 00-.77.602l-1.176-.924a3.453 3.453 0 011.302-1.036 3.999 3.999 0 011.708-.364c1.092 0 1.922.252 2.492.756.569.504.854 1.241.854 2.212V619h-1.806v-.728h-.112c-.215.28-.5.509-.854.686-.346.177-.747.266-1.204.266zm.434-1.428c.532 0 .952-.168 1.26-.504.317-.345.476-.747.476-1.204a3.479 3.479 0 00-1.498-.336c-.952 0-1.428.355-1.428 1.064 0 .289.102.527.308.714.205.177.499.266.882.266zm8.2 1.316c-.354 0-.681-.051-.98-.154a2.014 2.014 0 01-.728-.448c-.438-.42-.658-1.017-.658-1.792v-3.29h-1.246v-1.568h1.246v-2.016h1.834v2.016h1.75v1.568h-1.75v2.954c0 .364.08.625.238.784.131.149.355.224.672.224.178 0 .322-.023.434-.07.122-.047.276-.126.462-.238v1.792a3.425 3.425 0 01-1.274.238zm3.848-8.036c-.326 0-.606-.117-.84-.35a1.146 1.146 0 01-.35-.84 1.1 1.1 0 01.35-.826c.234-.233.514-.35.84-.35a1.1 1.1 0 01.826.35c.234.224.35.499.35.826 0 .327-.116.607-.35.84a1.1 1.1 0 01-.826.35zm-.924.784h1.834V619h-1.834v-7.14zm7.105 7.364c-.737 0-1.395-.163-1.974-.49a3.65 3.65 0 01-1.358-1.358 3.983 3.983 0 01-.476-1.946c0-.709.159-1.353.476-1.932a3.517 3.517 0 011.358-1.358c.579-.336 1.237-.504 1.974-.504.728 0 1.381.168 1.96.504a3.416 3.416 0 011.344 1.358 3.86 3.86 0 01.49 1.932c0 .719-.163 1.367-.49 1.946a3.54 3.54 0 01-1.344 1.358c-.579.327-1.232.49-1.96.49zm0-1.694c.355 0 .681-.084.98-.252.299-.168.537-.411.714-.728.177-.317.266-.691.266-1.12 0-.42-.089-.789-.266-1.106a1.846 1.846 0 00-.714-.728 1.965 1.965 0 00-.98-.252c-.355 0-.681.084-.98.252a1.948 1.948 0 00-.728.728 2.232 2.232 0 00-.266 1.106c0 .42.089.793.266 1.12.187.317.429.56.728.728.299.168.625.252.98.252zm5.061-5.67h1.722v.896h.112a2.2 2.2 0 01.91-.812 2.706 2.706 0 011.274-.308c.858 0 1.512.261 1.96.784.448.523.672 1.237.672 2.142V619h-1.834v-4.214c0-.457-.117-.812-.35-1.064-.234-.252-.56-.378-.98-.378-.495 0-.896.191-1.204.574-.299.383-.448.863-.448 1.442V619h-1.834v-7.14zM48.148 693.976h3.92a3.4 3.4 0 011.54.35c.476.233.85.551 1.12.952.27.401.406.84.406 1.316 0 .504-.126.943-.378 1.316a2.41 2.41 0 01-.966.84v.112a2.61 2.61 0 011.246.896c.308.401.462.887.462 1.456a2.51 2.51 0 01-.448 1.47c-.29.42-.686.747-1.19.98a3.96 3.96 0 01-1.652.336h-4.06v-10.024zm3.78 4.088c.41 0 .737-.112.98-.336.252-.233.378-.523.378-.868 0-.336-.121-.616-.364-.84-.233-.233-.546-.35-.938-.35h-1.946v2.394h1.89zm.21 4.214c.457 0 .812-.117 1.064-.35.261-.243.392-.555.392-.938 0-.383-.13-.695-.392-.938-.261-.243-.635-.364-1.12-.364h-2.044v2.59h2.1zm4.823-5.418h1.721v.952h.112c.178-.336.453-.611.827-.826a2.35 2.35 0 011.231-.336c.327 0 .626.051.897.154v1.834a4.707 4.707 0 00-.645-.196 2.02 2.02 0 00-.545-.07c-.542 0-.971.196-1.288.588-.318.392-.477.887-.477 1.484V704h-1.833v-7.14zm8.966 7.364c-.737 0-1.395-.163-1.974-.49a3.65 3.65 0 01-1.358-1.358 3.983 3.983 0 01-.476-1.946c0-.709.159-1.353.476-1.932a3.517 3.517 0 011.358-1.358c.579-.336 1.237-.504 1.974-.504.728 0 1.382.168 1.96.504a3.42 3.42 0 011.344 1.358 3.86 3.86 0 01.49 1.932c0 .719-.163 1.367-.49 1.946a3.545 3.545 0 01-1.344 1.358c-.578.327-1.232.49-1.96.49zm0-1.694c.355 0 .682-.084.98-.252a1.85 1.85 0 00.714-.728c.178-.317.266-.691.266-1.12 0-.42-.088-.789-.266-1.106a1.85 1.85 0 00-.714-.728 1.965 1.965 0 00-.98-.252c-.354 0-.681.084-.98.252a1.95 1.95 0 00-.728.728 2.23 2.23 0 00-.266 1.106c0 .42.089.793.266 1.12.187.317.43.56.728.728.299.168.626.252.98.252zm5.13-8.554h1.833v5.46h.098l2.562-2.576h2.254v.112l-2.702 2.646 2.828 4.27V704h-2.17l-1.946-3.122-.924.91V704h-1.834v-10.024zm10.96 10.248a3.784 3.784 0 01-1.918-.49 3.579 3.579 0 01-1.344-1.344 3.983 3.983 0 01-.476-1.946c0-.681.16-1.311.476-1.89a3.65 3.65 0 011.316-1.4 3.505 3.505 0 011.876-.518c.738 0 1.372.159 1.904.476a3.05 3.05 0 011.204 1.302c.28.551.42 1.162.42 1.834 0 .215-.014.42-.042.616h-5.362c.094.569.318 1.003.672 1.302.364.289.798.434 1.302.434.42 0 .78-.089 1.078-.266.308-.187.551-.434.728-.742l1.484.728c-.728 1.269-1.834 1.904-3.318 1.904zm1.694-4.662a1.343 1.343 0 00-.252-.658 1.558 1.558 0 00-.602-.546 1.729 1.729 0 00-.896-.224c-.438 0-.816.131-1.134.392-.308.252-.532.597-.672 1.036h3.556zm3.177-2.702h1.722v.952h.112c.178-.336.453-.611.826-.826a2.35 2.35 0 011.232-.336 2.5 2.5 0 01.896.154v1.834a4.707 4.707 0 00-.644-.196 2.02 2.02 0 00-.546-.07c-.541 0-.97.196-1.288.588-.317.392-.476.887-.476 1.484V704h-1.834v-7.14zm5.96 1.988h4.747v1.624h-4.746v-1.624zm11.521 5.376a5.28 5.28 0 01-2.66-.686 5.21 5.21 0 01-1.904-1.89 5.279 5.279 0 01-.686-2.66c0-.971.228-1.853.686-2.646a5.062 5.062 0 011.904-1.89 5.19 5.19 0 012.66-.7c1.512 0 2.762.546 3.752 1.638l-1.33 1.288c-.644-.756-1.447-1.134-2.408-1.134-.626 0-1.195.145-1.708.434-.514.28-.92.681-1.218 1.204-.29.523-.434 1.125-.434 1.806s.144 1.283.434 1.806c.298.523.704.929 1.218 1.218.513.28 1.082.42 1.708.42 1.054 0 1.936-.439 2.646-1.316l1.344 1.274a5.029 5.029 0 01-1.764 1.372c-.672.308-1.419.462-2.24.462zm7.412 0c-.756 0-1.376-.219-1.862-.658-.485-.448-.728-1.031-.728-1.75 0-.476.126-.896.378-1.26a2.44 2.44 0 011.036-.84 3.53 3.53 0 011.456-.294c.738 0 1.368.107 1.89.322v-.308c0-.392-.149-.709-.448-.952-.289-.243-.681-.364-1.176-.364-.336 0-.662.079-.98.238-.308.149-.564.35-.77.602l-1.176-.924c.346-.448.78-.793 1.302-1.036a4.002 4.002 0 011.708-.364c1.092 0 1.923.252 2.492.756.57.504.854 1.241.854 2.212V704h-1.806v-.728h-.112c-.214.28-.499.509-.854.686-.345.177-.746.266-1.204.266zm.434-1.428c.532 0 .952-.168 1.26-.504.318-.345.476-.747.476-1.204a3.476 3.476 0 00-1.498-.336c-.952 0-1.428.355-1.428 1.064 0 .289.103.527.308.714.206.177.5.266.882.266zm5.23-5.936h1.722v.952h.112c.177-.336.452-.611.826-.826a2.349 2.349 0 011.232-.336c.326 0 .625.051.896.154v1.834a4.72 4.72 0 00-.644-.196 2.02 2.02 0 00-.546-.07c-.542 0-.971.196-1.288.588-.318.392-.476.887-.476 1.484V704h-1.834v-7.14zm5.974 0h1.722v.952h.112c.178-.336.453-.611.826-.826a2.351 2.351 0 011.232-.336c.327 0 .626.051.896.154v1.834a4.678 4.678 0 00-.644-.196 2.02 2.02 0 00-.546-.07c-.541 0-.97.196-1.288.588-.317.392-.476.887-.476 1.484V704h-1.834v-7.14zm7.011-.784c-.327 0-.607-.117-.84-.35a1.146 1.146 0 01-.35-.84 1.1 1.1 0 01.35-.826c.233-.233.513-.35.84-.35a1.1 1.1 0 01.826.35 1.1 1.1 0 01.35.826c0 .327-.117.607-.35.84a1.1 1.1 0 01-.826.35zm-.924.784h1.834V704h-1.834v-7.14zm7.035 7.364c-.71 0-1.349-.163-1.918-.49a3.569 3.569 0 01-1.344-1.344c-.318-.579-.476-1.227-.476-1.946 0-.681.158-1.311.476-1.89a3.647 3.647 0 011.316-1.4 3.505 3.505 0 011.876-.518c.737 0 1.372.159 1.904.476.532.317.933.751 1.204 1.302.28.551.42 1.162.42 1.834 0 .215-.014.42-.042.616h-5.362c.093.569.317 1.003.672 1.302.364.289.798.434 1.302.434.42 0 .779-.089 1.078-.266.308-.187.55-.434.728-.742l1.484.728c-.728 1.269-1.834 1.904-3.318 1.904zm1.694-4.662a1.35 1.35 0 00-.252-.658 1.56 1.56 0 00-.602-.546 1.73 1.73 0 00-.896-.224c-.439 0-.817.131-1.134.392-.308.252-.532.597-.672 1.036h3.556zm3.177-2.702h1.722v.952h.112c.177-.336.452-.611.826-.826a2.349 2.349 0 011.232-.336c.326 0 .625.051.896.154v1.834a4.72 4.72 0 00-.644-.196 2.02 2.02 0 00-.546-.07c-.542 0-.971.196-1.288.588-.318.392-.476.887-.476 1.484V704h-1.834v-7.14zm11.898-2.884h2.17L159.246 704h-2.086l-.84-2.394h-3.836l-.84 2.394h-2.086l3.752-10.024zm2.394 5.894l-.882-2.52-.364-1.204h-.112l-.364 1.204-.896 2.52h2.618zm7.796 7.378c-.905 0-1.656-.205-2.254-.616-.597-.401-.998-.887-1.204-1.456l1.722-.7c.15.355.378.635.686.84.308.205.658.308 1.05.308.579 0 1.036-.177 1.372-.532.346-.355.518-.859.518-1.512v-.56h-.112c-.224.317-.518.56-.882.728a2.94 2.94 0 01-1.246.252 3.23 3.23 0 01-1.652-.448 3.443 3.443 0 01-1.218-1.288c-.308-.56-.462-1.209-.462-1.946 0-.737.154-1.381.462-1.932.308-.56.714-.989 1.218-1.288a3.158 3.158 0 011.652-.462c.467 0 .882.084 1.246.252.364.168.658.411.882.728h.112v-.756h1.764v6.65c0 .765-.149 1.428-.448 1.988-.298.56-.723.989-1.274 1.288-.55.308-1.194.462-1.932.462zm.028-4.914c.514 0 .952-.177 1.316-.532.364-.364.546-.859.546-1.484 0-.644-.182-1.139-.546-1.484-.354-.355-.793-.532-1.316-.532-.522 0-.966.177-1.33.532-.364.355-.546.849-.546 1.484s.182 1.129.546 1.484c.364.355.808.532 1.33.532zm5.419-5.474h1.722v.952h.112c.177-.336.452-.611.826-.826a2.349 2.349 0 011.232-.336c.326 0 .625.051.896.154v1.834a4.72 4.72 0 00-.644-.196 2.02 2.02 0 00-.546-.07c-.542 0-.971.196-1.288.588-.318.392-.476.887-.476 1.484V704h-1.834v-7.14zm8.897 7.364c-.71 0-1.349-.163-1.918-.49a3.569 3.569 0 01-1.344-1.344c-.318-.579-.476-1.227-.476-1.946 0-.681.158-1.311.476-1.89a3.647 3.647 0 011.316-1.4 3.505 3.505 0 011.876-.518c.737 0 1.372.159 1.904.476.532.317.933.751 1.204 1.302.28.551.42 1.162.42 1.834 0 .215-.014.42-.042.616h-5.362c.093.569.317 1.003.672 1.302.364.289.798.434 1.302.434.42 0 .779-.089 1.078-.266.308-.187.55-.434.728-.742l1.484.728c-.728 1.269-1.834 1.904-3.318 1.904zm1.694-4.662a1.35 1.35 0 00-.252-.658 1.56 1.56 0 00-.602-.546 1.73 1.73 0 00-.896-.224c-.439 0-.817.131-1.134.392-.308.252-.532.597-.672 1.036h3.556zm6.591 4.662c-.71 0-1.349-.163-1.918-.49a3.569 3.569 0 01-1.344-1.344c-.318-.579-.476-1.227-.476-1.946 0-.681.158-1.311.476-1.89a3.647 3.647 0 011.316-1.4 3.505 3.505 0 011.876-.518c.737 0 1.372.159 1.904.476.532.317.933.751 1.204 1.302.28.551.42 1.162.42 1.834 0 .215-.014.42-.042.616h-5.362c.093.569.317 1.003.672 1.302.364.289.798.434 1.302.434.42 0 .779-.089 1.078-.266.308-.187.55-.434.728-.742l1.484.728c-.728 1.269-1.834 1.904-3.318 1.904zm1.694-4.662a1.35 1.35 0 00-.252-.658 1.56 1.56 0 00-.602-.546 1.73 1.73 0 00-.896-.224c-.439 0-.817.131-1.134.392-.308.252-.532.597-.672 1.036h3.556zM191 696.86h1.722v.896h.112c.224-.345.522-.616.896-.812a2.652 2.652 0 011.274-.308c.504 0 .942.121 1.316.364.373.233.639.532.798.896.233-.373.55-.677.952-.91.41-.233.891-.35 1.442-.35.812 0 1.428.252 1.848.756.429.495.644 1.167.644 2.016V704h-1.82v-4.256c0-.448-.108-.793-.322-1.036-.206-.243-.495-.364-.868-.364-.476 0-.859.191-1.148.574-.28.373-.42.868-.42 1.484V704h-1.834v-4.256c0-.448-.112-.793-.336-1.036-.215-.243-.523-.364-.924-.364-.448 0-.812.191-1.092.574-.271.373-.406.868-.406 1.484V704H191v-7.14zm16.101 7.364a3.784 3.784 0 01-1.918-.49 3.583 3.583 0 01-1.344-1.344 3.983 3.983 0 01-.476-1.946c0-.681.159-1.311.476-1.89a3.655 3.655 0 011.316-1.4 3.507 3.507 0 011.876-.518c.738 0 1.372.159 1.904.476a3.05 3.05 0 011.204 1.302c.28.551.42 1.162.42 1.834 0 .215-.014.42-.042.616h-5.362c.094.569.318 1.003.672 1.302.364.289.798.434 1.302.434.42 0 .78-.089 1.078-.266.308-.187.551-.434.728-.742l1.484.728c-.728 1.269-1.834 1.904-3.318 1.904zm1.694-4.662a1.33 1.33 0 00-.252-.658 1.553 1.553 0 00-.602-.546 1.727 1.727 0 00-.896-.224c-.438 0-.816.131-1.134.392-.308.252-.532.597-.672 1.036h3.556zm3.177-2.702h1.722v.896h.112c.215-.345.518-.616.91-.812a2.71 2.71 0 011.274-.308c.859 0 1.512.261 1.96.784.448.523.672 1.237.672 2.142V704h-1.834v-4.214c0-.457-.116-.812-.35-1.064-.233-.252-.56-.378-.98-.378-.494 0-.896.191-1.204.574-.298.383-.448.863-.448 1.442V704h-1.834v-7.14zm11.134 7.252c-.355 0-.682-.051-.98-.154a1.997 1.997 0 01-.728-.448c-.439-.42-.658-1.017-.658-1.792v-3.29h-1.246v-1.568h1.246v-2.016h1.834v2.016h1.75v1.568h-1.75v2.954c0 .364.079.625.238.784.13.149.354.224.672.224.177 0 .322-.023.434-.07.121-.047.275-.126.462-.238v1.792a3.43 3.43 0 01-1.274.238zM52.894 789.224c-.97 0-1.857-.229-2.66-.686a5.213 5.213 0 01-1.904-1.89 5.279 5.279 0 01-.686-2.66c0-.971.229-1.853.686-2.646a5.065 5.065 0 011.904-1.89c.803-.467 1.69-.7 2.66-.7 1.512 0 2.763.546 3.752 1.638l-1.33 1.288c-.644-.756-1.447-1.134-2.408-1.134-.625 0-1.195.145-1.708.434-.513.28-.92.681-1.218 1.204-.29.523-.434 1.125-.434 1.806s.145 1.283.434 1.806c.299.523.705.929 1.218 1.218.513.28 1.083.42 1.708.42 1.055 0 1.937-.439 2.646-1.316l1.344 1.274a5.023 5.023 0 01-1.764 1.372c-.672.308-1.419.462-2.24.462zm7.413 0c-.756 0-1.377-.219-1.862-.658-.486-.448-.728-1.031-.728-1.75 0-.476.126-.896.378-1.26a2.436 2.436 0 011.036-.84 3.53 3.53 0 011.456-.294c.737 0 1.367.107 1.89.322v-.308c0-.392-.15-.709-.448-.952-.29-.243-.682-.364-1.176-.364-.336 0-.663.079-.98.238a2.23 2.23 0 00-.77.602l-1.176-.924A3.453 3.453 0 0159.229 782a4 4 0 011.708-.364c1.092 0 1.922.252 2.492.756.569.504.854 1.241.854 2.212V789h-1.806v-.728h-.112c-.215.28-.5.509-.854.686-.346.177-.747.266-1.204.266zm.434-1.428c.532 0 .952-.168 1.26-.504.317-.345.476-.747.476-1.204a3.477 3.477 0 00-1.498-.336c-.952 0-1.428.355-1.428 1.064 0 .289.102.527.308.714.205.177.499.266.882.266zm5.23-5.936h1.721v.952h.112a2.07 2.07 0 01.826-.826 2.35 2.35 0 011.232-.336 2.5 2.5 0 01.896.154v1.834a4.703 4.703 0 00-.644-.196 2.02 2.02 0 00-.546-.07c-.541 0-.97.196-1.288.588-.317.392-.476.887-.476 1.484V789H65.97v-7.14zm8.908 10.388c-.905 0-1.656-.205-2.254-.616-.597-.401-.998-.887-1.204-1.456l1.722-.7a1.84 1.84 0 001.736 1.148c.579 0 1.036-.177 1.372-.532.346-.355.518-.859.518-1.512v-.56h-.112c-.224.317-.518.56-.882.728a2.94 2.94 0 01-1.246.252 3.227 3.227 0 01-1.652-.448 3.443 3.443 0 01-1.218-1.288c-.308-.56-.462-1.209-.462-1.946 0-.737.154-1.381.462-1.932.308-.56.714-.989 1.218-1.288a3.156 3.156 0 011.652-.462c.467 0 .882.084 1.246.252.364.168.658.411.882.728h.112v-.756h1.764v6.65c0 .765-.149 1.428-.448 1.988-.298.56-.723.989-1.274 1.288-.55.308-1.194.462-1.932.462zm.028-4.914c.514 0 .952-.177 1.316-.532.364-.364.546-.859.546-1.484 0-.644-.182-1.139-.546-1.484a1.786 1.786 0 00-1.316-.532c-.522 0-.966.177-1.33.532-.364.355-.546.849-.546 1.484s.182 1.129.546 1.484c.364.355.808.532 1.33.532zm8.766 1.89c-.737 0-1.395-.163-1.974-.49a3.65 3.65 0 01-1.358-1.358 3.983 3.983 0 01-.476-1.946c0-.709.159-1.353.476-1.932a3.517 3.517 0 011.358-1.358c.579-.336 1.237-.504 1.974-.504.728 0 1.382.168 1.96.504a3.42 3.42 0 011.344 1.358 3.86 3.86 0 01.49 1.932c0 .719-.163 1.367-.49 1.946a3.545 3.545 0 01-1.344 1.358c-.578.327-1.232.49-1.96.49zm0-1.694c.355 0 .682-.084.98-.252a1.85 1.85 0 00.714-.728c.178-.317.266-.691.266-1.12 0-.42-.088-.789-.266-1.106a1.85 1.85 0 00-.714-.728 1.965 1.965 0 00-.98-.252c-.354 0-.681.084-.98.252a1.95 1.95 0 00-.728.728 2.23 2.23 0 00-.266 1.106c0 .42.089.793.266 1.12.187.317.43.56.728.728.299.168.626.252.98.252zm8.73-8.554h1.89V789h-1.89v-10.024zm3.919 2.884h1.722v.896h.112a2.2 2.2 0 01.91-.812 2.708 2.708 0 011.274-.308c.858 0 1.512.261 1.96.784.448.523.672 1.237.672 2.142V789h-1.834v-4.214c0-.457-.117-.812-.35-1.064-.234-.252-.56-.378-.98-.378-.495 0-.896.191-1.204.574-.299.383-.448.863-.448 1.442V789h-1.834v-7.14zm11.028 7.364c-.868 0-1.572-.177-2.114-.532a2.849 2.849 0 01-1.12-1.386l1.638-.714c.15.336.36.593.63.77.28.168.602.252.966.252.336 0 .616-.051.84-.154a.557.557 0 00.336-.532.552.552 0 00-.308-.518c-.205-.121-.513-.229-.924-.322l-.84-.182c-.578-.14-1.059-.392-1.442-.756a1.86 1.86 0 01-.574-1.386c0-.411.122-.779.364-1.106a2.437 2.437 0 011.008-.756c.43-.177.901-.266 1.414-.266 1.475 0 2.46.518 2.954 1.554l-1.568.686c-.28-.504-.728-.756-1.344-.756-.317 0-.569.061-.756.182-.186.112-.28.257-.28.434 0 .336.318.588.952.756l1.05.252c.71.177 1.242.448 1.596.812.364.364.546.812.546 1.344 0 .457-.135.863-.406 1.218-.261.345-.625.616-1.092.812a3.834 3.834 0 01-1.526.294zm6.929 0c-.859 0-1.512-.266-1.96-.798-.448-.532-.672-1.274-.672-2.226v-4.34h1.834v4.116c0 .485.116.868.35 1.148.233.271.541.406.924.406.522 0 .938-.191 1.246-.574.308-.383.462-.868.462-1.456v-3.64h1.834V789h-1.722v-.896h-.112a2.302 2.302 0 01-.91.826 2.756 2.756 0 01-1.274.294zm5.805-7.364h1.722v.952h.112c.177-.336.452-.611.826-.826a2.349 2.349 0 011.232-.336c.326 0 .625.051.896.154v1.834a4.72 4.72 0 00-.644-.196 2.02 2.02 0 00-.546-.07c-.542 0-.971.196-1.288.588-.318.392-.476.887-.476 1.484V789h-1.834v-7.14zm7.939 7.364c-.756 0-1.376-.219-1.862-.658-.485-.448-.728-1.031-.728-1.75 0-.476.126-.896.378-1.26a2.44 2.44 0 011.036-.84 3.53 3.53 0 011.456-.294c.738 0 1.368.107 1.89.322v-.308c0-.392-.149-.709-.448-.952-.289-.243-.681-.364-1.176-.364-.336 0-.662.079-.98.238-.308.149-.564.35-.77.602l-1.176-.924c.346-.448.78-.793 1.302-1.036a4.002 4.002 0 011.708-.364c1.092 0 1.923.252 2.492.756.57.504.854 1.241.854 2.212V789h-1.806v-.728h-.112c-.214.28-.499.509-.854.686-.345.177-.746.266-1.204.266zm.434-1.428c.532 0 .952-.168 1.26-.504.318-.345.476-.747.476-1.204a3.476 3.476 0 00-1.498-.336c-.952 0-1.428.355-1.428 1.064 0 .289.103.527.308.714.206.177.5.266.882.266zm5.23-5.936h1.722v.896h.112c.215-.345.518-.616.91-.812a2.71 2.71 0 011.274-.308c.859 0 1.512.261 1.96.784.448.523.672 1.237.672 2.142V789h-1.834v-4.214c0-.457-.117-.812-.35-1.064-.233-.252-.56-.378-.98-.378-.495 0-.896.191-1.204.574-.299.383-.448.863-.448 1.442V789h-1.834v-7.14zm11.741 7.364c-.719 0-1.363-.159-1.932-.476a3.55 3.55 0 01-1.344-1.358c-.317-.579-.476-1.232-.476-1.96s.159-1.377.476-1.946a3.55 3.55 0 011.344-1.358c.569-.327 1.213-.49 1.932-.49.793 0 1.475.173 2.044.518.569.336.98.817 1.232 1.442l-1.68.7c-.299-.635-.831-.952-1.596-.952-.56 0-1.022.191-1.386.574-.355.383-.532.887-.532 1.512 0 .635.177 1.143.532 1.526.364.383.826.574 1.386.574.775 0 1.335-.336 1.68-1.008l1.666.728a3.438 3.438 0 01-1.316 1.456c-.569.345-1.246.518-2.03.518zm7.943 0c-.709 0-1.349-.163-1.918-.49a3.583 3.583 0 01-1.344-1.344 3.983 3.983 0 01-.476-1.946c0-.681.159-1.311.476-1.89a3.647 3.647 0 011.316-1.4 3.505 3.505 0 011.876-.518c.737 0 1.372.159 1.904.476.532.317.933.751 1.204 1.302.28.551.42 1.162.42 1.834 0 .215-.014.42-.042.616h-5.362c.093.569.317 1.003.672 1.302.364.289.798.434 1.302.434.42 0 .779-.089 1.078-.266.308-.187.551-.434.728-.742l1.484.728c-.728 1.269-1.834 1.904-3.318 1.904zm1.694-4.662a1.35 1.35 0 00-.252-.658 1.56 1.56 0 00-.602-.546 1.73 1.73 0 00-.896-.224c-.439 0-.817.131-1.134.392-.308.252-.532.597-.672 1.036h3.556zm9.1-5.586h2.17L170.101 789h-2.086l-.84-2.394h-3.836l-.84 2.394h-2.086l3.752-10.024zm2.394 5.894l-.882-2.52-.364-1.204h-.112l-.364 1.204-.896 2.52h2.618zm7.797 7.378c-.905 0-1.657-.205-2.254-.616-.597-.401-.999-.887-1.204-1.456l1.722-.7a1.839 1.839 0 001.736 1.148c.579 0 1.036-.177 1.372-.532.345-.355.518-.859.518-1.512v-.56h-.112c-.224.317-.518.56-.882.728a2.94 2.94 0 01-1.246.252 3.226 3.226 0 01-1.652-.448 3.443 3.443 0 01-1.218-1.288c-.308-.56-.462-1.209-.462-1.946 0-.737.154-1.381.462-1.932.308-.56.714-.989 1.218-1.288a3.155 3.155 0 011.652-.462c.467 0 .882.084 1.246.252.364.168.658.411.882.728h.112v-.756h1.764v6.65c0 .765-.149 1.428-.448 1.988-.299.56-.723.989-1.274 1.288-.551.308-1.195.462-1.932.462zm.028-4.914c.513 0 .952-.177 1.316-.532.364-.364.546-.859.546-1.484 0-.644-.182-1.139-.546-1.484a1.786 1.786 0 00-1.316-.532c-.523 0-.966.177-1.33.532-.364.355-.546.849-.546 1.484s.182 1.129.546 1.484c.364.355.807.532 1.33.532zm8.696 1.89c-.709 0-1.349-.163-1.918-.49a3.583 3.583 0 01-1.344-1.344 3.983 3.983 0 01-.476-1.946c0-.681.159-1.311.476-1.89a3.647 3.647 0 011.316-1.4 3.505 3.505 0 011.876-.518c.737 0 1.372.159 1.904.476.532.317.933.751 1.204 1.302.28.551.42 1.162.42 1.834 0 .215-.014.42-.042.616h-5.362c.093.569.317 1.003.672 1.302.364.289.798.434 1.302.434.42 0 .779-.089 1.078-.266.308-.187.551-.434.728-.742l1.484.728c-.728 1.269-1.834 1.904-3.318 1.904zm1.694-4.662a1.35 1.35 0 00-.252-.658 1.56 1.56 0 00-.602-.546 1.73 1.73 0 00-.896-.224c-.439 0-.817.131-1.134.392-.308.252-.532.597-.672 1.036h3.556zm3.177-2.702h1.722v.896h.112a2.2 2.2 0 01.91-.812 2.706 2.706 0 011.274-.308c.858 0 1.512.261 1.96.784.448.523.672 1.237.672 2.142V789h-1.834v-4.214c0-.457-.117-.812-.35-1.064-.234-.252-.56-.378-.98-.378-.495 0-.896.191-1.204.574-.299.383-.448.863-.448 1.442V789h-1.834v-7.14zm11.741 7.364c-.719 0-1.363-.159-1.932-.476a3.536 3.536 0 01-1.344-1.358c-.318-.579-.476-1.232-.476-1.96s.158-1.377.476-1.946a3.536 3.536 0 011.344-1.358c.569-.327 1.213-.49 1.932-.49.793 0 1.474.173 2.044.518.569.336.98.817 1.232 1.442l-1.68.7c-.299-.635-.831-.952-1.596-.952-.56 0-1.022.191-1.386.574-.355.383-.532.887-.532 1.512 0 .635.177 1.143.532 1.526.364.383.826.574 1.386.574.774 0 1.334-.336 1.68-1.008l1.666.728a3.438 3.438 0 01-1.316 1.456c-.57.345-1.246.518-2.03.518zm6.891-.56l-3.01-6.804h2.086l1.848 4.438h.112l1.778-4.438h2.044l-4.41 10.164h-1.974l1.526-3.36zM48.148 863.976h3.654c.653 0 1.232.135 1.736.406.513.271.91.649 1.19 1.134.28.476.42 1.017.42 1.624a2.65 2.65 0 01-.616 1.722c-.401.495-.91.854-1.526 1.078l-.014.098 2.688 3.85V874h-2.17l-2.59-3.766h-.882V874h-1.89v-10.024zm3.64 4.522c.43 0 .78-.131 1.05-.392s.406-.593.406-.994c0-.383-.13-.709-.392-.98-.252-.271-.597-.406-1.036-.406h-1.778v2.772h1.75zm8.19 5.726a3.784 3.784 0 01-1.918-.49 3.579 3.579 0 01-1.344-1.344 3.983 3.983 0 01-.476-1.946c0-.681.159-1.311.476-1.89a3.65 3.65 0 011.316-1.4 3.506 3.506 0 011.876-.518c.738 0 1.372.159 1.904.476a3.05 3.05 0 011.204 1.302c.28.551.42 1.162.42 1.834 0 .215-.014.42-.042.616h-5.362c.094.569.318 1.003.672 1.302.364.289.798.434 1.302.434.42 0 .78-.089 1.078-.266.308-.187.551-.434.728-.742l1.484.728c-.728 1.269-1.834 1.904-3.318 1.904zm1.694-4.662a1.341 1.341 0 00-.252-.658 1.557 1.557 0 00-.602-.546 1.729 1.729 0 00-.896-.224 1.73 1.73 0 00-1.134.392c-.308.252-.532.597-.672 1.036h3.556zm8.454 4.592l.111-1.008h-.111c-.187.308-.472.565-.855.77a2.633 2.633 0 01-1.287.308 3.382 3.382 0 01-1.764-.476 3.537 3.537 0 01-1.246-1.344c-.3-.579-.449-1.237-.449-1.974 0-.728.15-1.381.448-1.96a3.398 3.398 0 011.246-1.344 3.302 3.302 0 011.765-.49c.485 0 .914.107 1.288.322.373.205.657.462.853.77h.112v-.868h1.709v10.164h-1.82v-2.87zm-1.835-1.624c.346 0 .668-.089.966-.266a1.95 1.95 0 00.715-.742c.177-.317.266-.681.266-1.092 0-.411-.09-.775-.266-1.092a1.85 1.85 0 00-.715-.728 1.863 1.863 0 00-1.918 0 1.85 1.85 0 00-.713.728 2.199 2.199 0 00-.267 1.092c0 .411.09.775.267 1.092.177.317.415.565.713.742.3.177.617.266.953.266zm7.98 1.694c-.859 0-1.512-.266-1.96-.798-.448-.532-.672-1.274-.672-2.226v-4.34h1.834v4.116c0 .485.117.868.35 1.148.233.271.541.406.924.406.522 0 .938-.191 1.246-.574.308-.383.462-.868.462-1.456v-3.64h1.834V874h-1.722v-.896h-.112a2.3 2.3 0 01-.91.826 2.753 2.753 0 01-1.274.294zm9.082 0a3.784 3.784 0 01-1.918-.49 3.579 3.579 0 01-1.344-1.344 3.983 3.983 0 01-.476-1.946c0-.681.159-1.311.476-1.89a3.65 3.65 0 011.316-1.4 3.506 3.506 0 011.876-.518c.738 0 1.372.159 1.904.476a3.05 3.05 0 011.204 1.302c.28.551.42 1.162.42 1.834 0 .215-.014.42-.042.616h-5.362c.094.569.318 1.003.672 1.302.364.289.798.434 1.302.434.42 0 .78-.089 1.078-.266.308-.187.551-.434.728-.742l1.484.728c-.728 1.269-1.834 1.904-3.318 1.904zm1.694-4.662a1.341 1.341 0 00-.252-.658 1.557 1.557 0 00-.602-.546 1.729 1.729 0 00-.896-.224 1.73 1.73 0 00-1.134.392c-.308.252-.532.597-.672 1.036h3.556zm5.962 4.662c-.868 0-1.573-.177-2.115-.532a2.847 2.847 0 01-1.12-1.386l1.638-.714c.15.336.36.593.63.77.28.168.602.252.966.252.337 0 .617-.051.84-.154a.557.557 0 00.337-.532.553.553 0 00-.309-.518c-.205-.121-.513-.229-.924-.322l-.84-.182c-.578-.14-1.059-.392-1.441-.756a1.858 1.858 0 01-.575-1.386c0-.411.122-.779.364-1.106a2.437 2.437 0 011.009-.756 3.67 3.67 0 011.413-.266c1.475 0 2.46.518 2.954 1.554l-1.567.686c-.28-.504-.729-.756-1.345-.756-.317 0-.569.061-.756.182-.186.112-.28.257-.28.434 0 .336.318.588.953.756l1.05.252c.709.177 1.24.448 1.596.812.364.364.546.812.546 1.344 0 .457-.136.863-.407 1.218-.26.345-.625.616-1.092.812a3.836 3.836 0 01-1.526.294zm7.391-.112c-.354 0-.68-.051-.98-.154a2.005 2.005 0 01-.728-.448c-.438-.42-.657-1.017-.657-1.792v-3.29h-1.246v-1.568h1.245v-2.016h1.834v2.016h1.75v1.568h-1.75v2.954c0 .364.08.625.238.784.131.149.355.224.672.224.178 0 .322-.023.434-.07.122-.047.276-.126.462-.238v1.792a3.425 3.425 0 01-1.274.238zm6.277-10.136h6.356v1.792h-4.466v2.436h4.018v1.792h-4.018V874h-1.89v-10.024zm10.766 10.248c-.737 0-1.395-.163-1.974-.49a3.65 3.65 0 01-1.358-1.358 3.983 3.983 0 01-.476-1.946c0-.709.159-1.353.476-1.932a3.517 3.517 0 011.358-1.358c.579-.336 1.237-.504 1.974-.504.728 0 1.381.168 1.96.504a3.416 3.416 0 011.344 1.358 3.86 3.86 0 01.49 1.932c0 .719-.163 1.367-.49 1.946a3.54 3.54 0 01-1.344 1.358c-.579.327-1.232.49-1.96.49zm0-1.694c.355 0 .681-.084.98-.252.299-.168.537-.411.714-.728.177-.317.266-.691.266-1.12 0-.42-.089-.789-.266-1.106a1.846 1.846 0 00-.714-.728 1.965 1.965 0 00-.98-.252c-.355 0-.681.084-.98.252a1.948 1.948 0 00-.728.728 2.232 2.232 0 00-.266 1.106c0 .42.089.793.266 1.12.187.317.429.56.728.728.299.168.625.252.98.252zm5.06-5.67h1.722v.952h.112c.178-.336.453-.611.826-.826a2.351 2.351 0 011.232-.336c.327 0 .626.051.896.154v1.834a4.678 4.678 0 00-.644-.196 2.02 2.02 0 00-.546-.07c-.541 0-.97.196-1.288.588-.317.392-.476.887-.476 1.484V874h-1.834v-7.14zm10.978-1.092h-2.8v-1.792h7.49v1.792h-2.8V874h-1.89v-8.232zm7.079 8.456c-.756 0-1.376-.219-1.862-.658-.485-.448-.728-1.031-.728-1.75 0-.476.126-.896.378-1.26a2.44 2.44 0 011.036-.84 3.53 3.53 0 011.456-.294c.738 0 1.368.107 1.89.322v-.308c0-.392-.149-.709-.448-.952-.289-.243-.681-.364-1.176-.364-.336 0-.662.079-.98.238-.308.149-.564.35-.77.602l-1.176-.924c.346-.448.78-.793 1.302-1.036a4.002 4.002 0 011.708-.364c1.092 0 1.923.252 2.492.756.57.504.854 1.241.854 2.212V874h-1.806v-.728h-.112c-.214.28-.499.509-.854.686-.345.177-.746.266-1.204.266zm.434-1.428c.532 0 .952-.168 1.26-.504.318-.345.476-.747.476-1.204a3.476 3.476 0 00-1.498-.336c-.952 0-1.428.355-1.428 1.064 0 .289.103.527.308.714.206.177.5.266.882.266zm6.926-2.422l-2.464-3.514h2.17l1.358 2.044h.084l1.274-2.044h2.24l-2.506 3.514 2.506 3.626h-2.17l-1.372-2.086h-.084L147.612 874h-2.17l2.478-3.626zm5.686-3.514h1.722v.868h.112c.196-.308.48-.565.854-.77a2.531 2.531 0 011.288-.322c.644 0 1.227.163 1.75.49.532.317.947.765 1.246 1.344.298.579.448 1.232.448 1.96 0 .737-.15 1.395-.448 1.974a3.4 3.4 0 01-1.246 1.344 3.31 3.31 0 01-1.75.476 2.71 2.71 0 01-1.302-.308c-.374-.205-.654-.462-.84-.77h-.112l.112 1.008v2.87h-1.834V866.86zm3.654 5.67c.345 0 .667-.089.966-.266a1.96 1.96 0 00.714-.742c.177-.317.266-.681.266-1.092 0-.411-.089-.775-.266-1.092a1.86 1.86 0 00-.714-.728 1.864 1.864 0 00-1.918 0 1.846 1.846 0 00-.714.728 2.192 2.192 0 00-.266 1.092c0 .411.088.775.266 1.092.177.317.415.565.714.742.298.177.616.266.952.266zm7.363 1.694c-.756 0-1.377-.219-1.862-.658-.485-.448-.728-1.031-.728-1.75 0-.476.126-.896.378-1.26a2.434 2.434 0 011.036-.84 3.53 3.53 0 011.456-.294c.737 0 1.367.107 1.89.322v-.308c0-.392-.149-.709-.448-.952-.289-.243-.681-.364-1.176-.364-.336 0-.663.079-.98.238a2.23 2.23 0 00-.77.602l-1.176-.924a3.453 3.453 0 011.302-1.036 4.002 4.002 0 011.708-.364c1.092 0 1.923.252 2.492.756s.854 1.241.854 2.212V874h-1.806v-.728h-.112a2.41 2.41 0 01-.854.686c-.345.177-.747.266-1.204.266zm.434-1.428c.532 0 .952-.168 1.26-.504.317-.345.476-.747.476-1.204a3.476 3.476 0 00-1.498-.336c-.952 0-1.428.355-1.428 1.064 0 .289.103.527.308.714.205.177.499.266.882.266zm7.319.868l-3.01-6.804h2.086l1.848 4.438h.112l1.778-4.438h2.044l-4.41 10.164h-1.974l1.526-3.36zm8.94.56a3.784 3.784 0 01-1.918-.49 3.583 3.583 0 01-1.344-1.344 3.983 3.983 0 01-.476-1.946c0-.681.159-1.311.476-1.89a3.655 3.655 0 011.316-1.4 3.507 3.507 0 011.876-.518c.738 0 1.372.159 1.904.476a3.05 3.05 0 011.204 1.302c.28.551.42 1.162.42 1.834 0 .215-.014.42-.042.616h-5.362c.094.569.318 1.003.672 1.302.364.289.798.434 1.302.434.42 0 .78-.089 1.078-.266.308-.187.551-.434.728-.742l1.484.728c-.728 1.269-1.834 1.904-3.318 1.904zm1.694-4.662a1.33 1.33 0 00-.252-.658 1.553 1.553 0 00-.602-.546 1.727 1.727 0 00-.896-.224c-.438 0-.816.131-1.134.392-.308.252-.532.597-.672 1.036h3.556zm3.177-2.702h1.722v.952h.112c.177-.336.453-.611.826-.826a2.349 2.349 0 011.232-.336 2.5 2.5 0 01.896.154v1.834a4.72 4.72 0 00-.644-.196 2.02 2.02 0 00-.546-.07c-.541 0-.971.196-1.288.588-.317.392-.476.887-.476 1.484V874h-1.834v-7.14zM48.148 948.976h6.356v1.792h-4.466v2.436h4.018v1.792h-4.018V959h-1.89v-10.024zm8.673 2.1c-.327 0-.607-.117-.84-.35a1.144 1.144 0 01-.35-.84 1.1 1.1 0 01.35-.826c.233-.233.513-.35.84-.35.326 0 .602.117.826.35a1.1 1.1 0 01.35.826c0 .327-.117.607-.35.84-.224.233-.5.35-.826.35zm-.924.784h1.834V959h-1.834v-7.14zm3.757 0h1.722v.896h.112c.215-.345.518-.616.91-.812a2.708 2.708 0 011.274-.308c.859 0 1.512.261 1.96.784.448.523.672 1.237.672 2.142V959H64.47v-4.214c0-.457-.117-.812-.35-1.064-.234-.252-.56-.378-.98-.378-.495 0-.896.191-1.204.574-.299.383-.448.863-.448 1.442V959h-1.834v-7.14zm9.417-.784c-.327 0-.607-.117-.84-.35a1.144 1.144 0 01-.35-.84 1.1 1.1 0 01.35-.826c.233-.233.513-.35.84-.35.326 0 .602.117.826.35a1.1 1.1 0 01.35.826c0 .327-.117.607-.35.84-.224.233-.5.35-.826.35zm-.924.784h1.834V959h-1.834v-7.14zm6.473 7.364c-.868 0-1.573-.177-2.114-.532a2.847 2.847 0 01-1.12-1.386l1.638-.714c.15.336.36.593.63.77.28.168.602.252.966.252.336 0 .616-.051.84-.154a.557.557 0 00.336-.532.553.553 0 00-.308-.518c-.206-.121-.513-.229-.924-.322l-.84-.182c-.579-.14-1.06-.392-1.442-.756a1.858 1.858 0 01-.574-1.386c0-.411.121-.779.364-1.106a2.437 2.437 0 011.008-.756c.43-.177.9-.266 1.414-.266 1.475 0 2.46.518 2.954 1.554l-1.568.686c-.28-.504-.728-.756-1.344-.756-.317 0-.57.061-.756.182-.187.112-.28.257-.28.434 0 .336.317.588.952.756l1.05.252c.71.177 1.241.448 1.596.812.364.364.546.812.546 1.344 0 .457-.136.863-.406 1.218-.261.345-.626.616-1.092.812a3.836 3.836 0 01-1.526.294zm4.352-10.248h1.834v2.534l-.112 1.246h.112a2.23 2.23 0 01.896-.812 2.708 2.708 0 011.274-.308c.868 0 1.53.261 1.988.784.467.513.7 1.227.7 2.142V959H83.83v-4.214c0-.457-.126-.812-.378-1.064-.242-.252-.57-.378-.98-.378-.485 0-.886.196-1.204.588-.308.392-.462.873-.462 1.442V959h-1.834v-10.024zm11.955 0h3.654c.654 0 1.232.135 1.736.406.514.271.91.649 1.19 1.134.28.476.42 1.017.42 1.624a2.65 2.65 0 01-.616 1.722c-.401.495-.91.854-1.526 1.078l-.014.098 2.688 3.85V959h-2.17l-2.59-3.766h-.882V959h-1.89v-10.024zm3.64 4.522c.43 0 .78-.131 1.05-.392.271-.261.406-.593.406-.994 0-.383-.13-.709-.392-.98-.252-.271-.597-.406-1.036-.406h-1.778v2.772h1.75zm8.191 5.726c-.71 0-1.349-.163-1.918-.49a3.575 3.575 0 01-1.344-1.344c-.318-.579-.476-1.227-.476-1.946 0-.681.158-1.311.476-1.89a3.651 3.651 0 011.316-1.4 3.505 3.505 0 011.876-.518c.737 0 1.372.159 1.904.476.532.317.933.751 1.204 1.302.28.551.42 1.162.42 1.834 0 .215-.014.42-.042.616h-5.362c.093.569.317 1.003.672 1.302.364.289.798.434 1.302.434.42 0 .779-.089 1.078-.266.308-.187.55-.434.728-.742l1.484.728c-.728 1.269-1.834 1.904-3.318 1.904zm1.694-4.662a1.35 1.35 0 00-.252-.658 1.56 1.56 0 00-.602-.546 1.73 1.73 0 00-.896-.224c-.439 0-.817.131-1.134.392-.308.252-.532.597-.672 1.036h3.556zm6.535 7.686c-.906 0-1.657-.205-2.254-.616-.598-.401-.999-.887-1.204-1.456l1.722-.7a1.839 1.839 0 001.736 1.148c.578 0 1.036-.177 1.372-.532.345-.355.518-.859.518-1.512v-.56h-.112c-.224.317-.518.56-.882.728-.364.168-.78.252-1.246.252a3.226 3.226 0 01-1.652-.448 3.443 3.443 0 01-1.218-1.288c-.308-.56-.462-1.209-.462-1.946 0-.737.154-1.381.462-1.932.308-.56.714-.989 1.218-1.288a3.155 3.155 0 011.652-.462c.466 0 .882.084 1.246.252.364.168.658.411.882.728h.112v-.756h1.764v6.65c0 .765-.15 1.428-.448 1.988a3.09 3.09 0 01-1.274 1.288c-.551.308-1.195.462-1.932.462zm.028-4.914c.513 0 .952-.177 1.316-.532.364-.364.546-.859.546-1.484 0-.644-.182-1.139-.546-1.484a1.788 1.788 0 00-1.316-.532c-.523 0-.966.177-1.33.532-.364.355-.546.849-.546 1.484s.182 1.129.546 1.484c.364.355.807.532 1.33.532zm6.454-6.258c-.327 0-.607-.117-.84-.35a1.146 1.146 0 01-.35-.84 1.1 1.1 0 01.35-.826c.233-.233.513-.35.84-.35a1.1 1.1 0 01.826.35 1.1 1.1 0 01.35.826c0 .327-.117.607-.35.84a1.1 1.1 0 01-.826.35zm-.924.784h1.834V959h-1.834v-7.14zm6.473 7.364c-.868 0-1.572-.177-2.114-.532a2.849 2.849 0 01-1.12-1.386l1.638-.714c.15.336.36.593.63.77.28.168.602.252.966.252.336 0 .616-.051.84-.154a.557.557 0 00.336-.532.552.552 0 00-.308-.518c-.205-.121-.513-.229-.924-.322l-.84-.182c-.578-.14-1.059-.392-1.442-.756a1.86 1.86 0 01-.574-1.386c0-.411.122-.779.364-1.106a2.437 2.437 0 011.008-.756c.43-.177.901-.266 1.414-.266 1.475 0 2.46.518 2.954 1.554l-1.568.686c-.28-.504-.728-.756-1.344-.756-.317 0-.569.061-.756.182-.186.112-.28.257-.28.434 0 .336.318.588.952.756l1.05.252c.71.177 1.242.448 1.596.812.364.364.546.812.546 1.344 0 .457-.135.863-.406 1.218-.261.345-.625.616-1.092.812a3.834 3.834 0 01-1.526.294zm7.392-.112c-.354 0-.681-.051-.98-.154a2.014 2.014 0 01-.728-.448c-.438-.42-.658-1.017-.658-1.792v-3.29h-1.246v-1.568h1.246v-2.016h1.834v2.016h1.75v1.568h-1.75v2.954c0 .364.08.625.238.784.131.149.355.224.672.224.178 0 .322-.023.434-.07.122-.047.276-.126.462-.238v1.792a3.425 3.425 0 01-1.274.238zm2.744-7.252h1.722v.952h.112c.177-.336.452-.611.826-.826a2.349 2.349 0 011.232-.336c.326 0 .625.051.896.154v1.834a4.72 4.72 0 00-.644-.196 2.02 2.02 0 00-.546-.07c-.542 0-.971.196-1.288.588-.318.392-.476.887-.476 1.484V959h-1.834v-7.14zm7.94 7.364c-.756 0-1.377-.219-1.862-.658-.486-.448-.728-1.031-.728-1.75 0-.476.126-.896.378-1.26a2.434 2.434 0 011.036-.84 3.527 3.527 0 011.456-.294c.737 0 1.367.107 1.89.322v-.308c0-.392-.15-.709-.448-.952-.29-.243-.682-.364-1.176-.364-.336 0-.663.079-.98.238a2.23 2.23 0 00-.77.602l-1.176-.924a3.453 3.453 0 011.302-1.036 3.999 3.999 0 011.708-.364c1.092 0 1.922.252 2.492.756.569.504.854 1.241.854 2.212V959h-1.806v-.728h-.112c-.215.28-.5.509-.854.686-.346.177-.747.266-1.204.266zm.434-1.428c.532 0 .952-.168 1.26-.504.317-.345.476-.747.476-1.204a3.479 3.479 0 00-1.498-.336c-.952 0-1.428.355-1.428 1.064 0 .289.102.527.308.714.205.177.499.266.882.266zm8.201 1.316c-.355 0-.682-.051-.98-.154a1.997 1.997 0 01-.728-.448c-.439-.42-.658-1.017-.658-1.792v-3.29h-1.246v-1.568h1.246v-2.016h1.834v2.016h1.75v1.568h-1.75v2.954c0 .364.079.625.238.784.13.149.354.224.672.224.177 0 .322-.023.434-.07.121-.047.275-.126.462-.238v1.792a3.43 3.43 0 01-1.274.238zm3.848-8.036c-.327 0-.607-.117-.84-.35a1.142 1.142 0 01-.35-.84c0-.327.116-.602.35-.826.233-.233.513-.35.84-.35.326 0 .602.117.826.35a1.1 1.1 0 01.35.826c0 .327-.117.607-.35.84-.224.233-.5.35-.826.35zm-.924.784h1.834V959h-1.834v-7.14zm7.104 7.364c-.737 0-1.395-.163-1.974-.49a3.656 3.656 0 01-1.358-1.358 3.983 3.983 0 01-.476-1.946c0-.709.159-1.353.476-1.932a3.523 3.523 0 011.358-1.358c.579-.336 1.237-.504 1.974-.504.728 0 1.382.168 1.96.504a3.416 3.416 0 011.344 1.358 3.86 3.86 0 01.49 1.932c0 .719-.163 1.367-.49 1.946a3.54 3.54 0 01-1.344 1.358c-.578.327-1.232.49-1.96.49zm0-1.694c.355 0 .682-.084.98-.252.299-.168.537-.411.714-.728.178-.317.266-.691.266-1.12 0-.42-.088-.789-.266-1.106a1.846 1.846 0 00-.714-.728 1.962 1.962 0 00-.98-.252c-.354 0-.681.084-.98.252a1.956 1.956 0 00-.728.728 2.232 2.232 0 00-.266 1.106c0 .42.089.793.266 1.12.187.317.43.56.728.728.299.168.626.252.98.252zm5.061-5.67h1.722v.896h.112c.215-.345.518-.616.91-.812a2.71 2.71 0 011.274-.308c.859 0 1.512.261 1.96.784.448.523.672 1.237.672 2.142V959h-1.834v-4.214c0-.457-.117-.812-.35-1.064-.233-.252-.56-.378-.98-.378-.495 0-.896.191-1.204.574-.299.383-.448.863-.448 1.442V959h-1.834v-7.14z" fill="#fff"/><circle cx="20.5" cy="189.5" r="7.5" fill="#024EC9"/><circle cx="20.5" cy="274.5" r="7.5" fill="#024EC9"/><circle cx="20.5" cy="359.5" r="7.5" fill="#024EC9"/><circle cx="20.5" cy="444.5" r="7.5" fill="#024EC9"/><circle cx="20.5" cy="529.5" r="7.5" fill="#024EC9"/><circle cx="20.5" cy="614.5" r="7.5" fill="#024EC9"/><circle cx="20.5" cy="699.5" r="7.5" fill="#024EC9"/><rect x="61" width="129" height="129" rx="20" fill="#fff"/><path d="M149.786 59.286h-2.429v-3.643a3.646 3.646 0 00-.835-2.672 3.655 3.655 0 00-5.152-.464 3.66 3.66 0 00-1.299 2.48c-12.361-5.707-10.928-4.93-10.928-5.416a1.216 1.216 0 00-1.602-1.107c-.239.08-.448.235-.596.44-1.506-.705-1.372-.705-2.429-.219 0 0 .073-.134.122-.182 2.574-2.574 2.076-1.36 2.076-6.217h2.429a1.212 1.212 0 001.214-1.215v-4.857A1.213 1.213 0 00129.143 35h-7.286a1.211 1.211 0 00-1.214 1.214v4.857a1.214 1.214 0 001.214 1.215h2.429v3.145c-1.506 1.505-2.429 2.1-2.429 4.14 0 .498 1.36-.279-10.928 5.416a3.66 3.66 0 00-3.971-3.315 3.66 3.66 0 00-3.315 3.97v3.644h-2.429A1.211 1.211 0 00100 60.5v31.571a1.214 1.214 0 001.214 1.215h48.572A1.212 1.212 0 00151 92.07V60.5a1.213 1.213 0 00-1.214-1.214zm-26.715-21.857h4.858v2.428h-4.858V37.43zM142.5 55.643a1.213 1.213 0 112.429 0v3.643H142.5v-3.643zm-14.401-3.534l11.972 5.525v1.652h-29.142v-1.652l11.972-5.525a3.645 3.645 0 005.198 0zm-22.028 3.534a1.213 1.213 0 112.429 0v3.643h-2.429v-3.643zm42.5 35.214h-46.142V61.714h46.142v29.143z" fill="#024EC9"/><path d="M106.07 66.571V86a1.213 1.213 0 002.429 0V66.57a1.213 1.213 0 00-2.429 0zm18.215 0V86a1.217 1.217 0 001.214 1.214A1.216 1.216 0 00126.713 86V66.57a1.217 1.217 0 00-1.214-1.214 1.216 1.216 0 00-1.214 1.214zm-12.143 0V86a1.217 1.217 0 001.214 1.214A1.216 1.216 0 00114.57 86V66.57a1.217 1.217 0 00-1.214-1.214 1.216 1.216 0 00-1.214 1.214zm6.071 0V86a1.213 1.213 0 002.429 0V66.57a1.213 1.213 0 00-2.429 0zm12.143 0V86a1.213 1.213 0 002.429 0V66.57a1.213 1.213 0 00-2.429 0zm6.071 0V86a1.213 1.213 0 002.429 0V66.57a1.213 1.213 0 00-2.429 0zm6.072 0V86a1.213 1.213 0 002.428 0V66.57a1.212 1.212 0 00-2.072-.858 1.213 1.213 0 00-.356.858z" fill="#024EC9"/></svg>