<svg width="25" height="25" viewBox="0 0 65 65" fill="none" xmlns="http://www.w3.org/2000/svg">
    <path fill-rule="evenodd" clip-rule="evenodd" d="M32.5 65C50.4497 65 65 50.4497 65 32.5C65 14.5503 50.4497 0 32.5 0C14.5503 0 0 14.5503 0 32.5C0 50.4497 14.5503 65 32.5 65ZM28.9705 36.647C28.6975 38.467 30.2445 39.9685 32.084 39.9685H33.6115C34.0455 39.9685 34.4632 39.8032 34.7795 39.5061C35.0959 39.2091 35.2872 38.8026 35.3145 38.3695C35.4998 36.66 36.2342 35.165 37.5115 33.8878L39.559 31.8728C41.158 30.264 42.276 28.8048 42.9162 27.495C43.5565 26.1658 43.875 24.7585 43.875 23.2733C43.875 20.007 42.8902 17.4817 40.9207 15.7007C38.9512 13.9002 36.1822 13 32.6137 13C29.0777 13 26.286 13.9425 24.2287 15.8307C23.011 16.9603 22.1206 18.3975 21.6515 19.9908C21.0535 21.9537 22.8215 23.6665 24.869 23.6665C26.6045 23.6665 27.9013 22.2528 29.107 20.9365C29.276 20.7513 29.4417 20.566 29.6075 20.3905C30.368 19.5878 31.369 19.188 32.6137 19.188C35.2397 19.188 36.5527 20.6635 36.5527 23.6145C36.5527 24.5927 36.2992 25.5287 35.7955 26.4192C35.2917 27.2935 34.2713 28.4375 32.7405 29.8513C31.226 31.2488 30.1827 32.6755 29.6075 34.125C29.3247 34.8433 29.1135 35.685 28.9705 36.647ZM29.1557 45.1328C28.3985 45.8835 28.0183 46.8455 28.0183 48.0155C28.0183 49.1693 28.3888 50.1215 29.1298 50.8755C29.887 51.623 30.8815 52 32.11 52C33.3385 52 34.32 51.623 35.0642 50.8722C35.8215 50.1215 36.2017 49.1693 36.2017 48.0155C36.2017 46.8455 35.8118 45.8835 35.0383 45.1328C34.281 44.3625 33.3028 43.979 32.11 43.979C30.914 43.979 29.9325 44.3625 29.1557 45.1328Z" fill="#A6A6A6"/>
</svg>
