<svg width="443" height="350" viewBox="0 0 443 350" fill="none" xmlns="http://www.w3.org/2000/svg">
<path d="M242.294 40.661C131.837 40.661 42.2939 134.349 42.2939 249.918C42.2939 285.432 50.7609 318.872 65.6799 348.169H418.908C433.827 318.872 442.294 285.432 442.294 249.918C442.295 134.348 352.751 40.661 242.294 40.661Z" fill="#DEDDF9"/>
<path d="M421.139 213.258C423.33 215.929 426.732 217.287 429.995 217.365C433.277 217.44 436.524 216.438 439.104 214.575C436.298 216.047 433.12 216.775 430.064 216.387C427.023 216.084 424.125 214.64 422.362 212.288C422.002 211.796 421.691 211.266 421.414 210.718C423.864 210.165 426.18 208.843 427.805 206.815C428.888 205.435 429.633 203.729 429.653 201.848C429.651 200.919 429.451 199.912 428.86 199.041C428.28 198.16 427.318 197.555 426.354 197.328C425.383 197.089 424.365 197.165 423.444 197.492C422.537 197.821 421.749 198.362 421.105 198.996C419.819 200.261 418.976 201.9 418.628 203.618C418.23 205.584 418.417 207.583 419.037 209.429C418.933 209.438 418.831 209.456 418.726 209.463C415.723 209.637 412.652 208.847 409.777 207.649C406.866 206.492 404.161 204.828 401.652 202.881C403.866 205.168 406.515 207.042 409.369 208.534C412.232 209.979 415.415 211.062 418.785 211.017C419.078 211.018 419.373 210.992 419.667 210.971C420.073 211.787 420.564 212.558 421.139 213.258ZM420.478 204.027C420.791 202.651 421.472 201.349 422.466 200.399C423.445 199.442 424.714 198.962 425.878 199.269C427.048 199.52 427.699 200.521 427.701 201.858C427.714 203.163 427.146 204.539 426.31 205.661C425.458 206.794 424.291 207.72 422.983 208.369C422.276 208.713 421.531 208.968 420.762 209.152C420.215 207.48 420.07 205.696 420.478 204.027Z" fill="#DEDDF9"/>
<path d="M146.721 245.7L54.6731 246.9L84.0881 260.907L74.0831 283.519L92.0121 275.169L87.4901 268.511L109.101 300.328L146.721 245.7Z" fill="#DEDDF9"/>
<path d="M63.8731 290.51C61.3241 292.291 58.6801 293.924 55.8981 295.23C53.2271 296.431 50.4311 297.406 47.5701 297.741C47.6831 298.247 47.7971 298.753 47.9131 299.258C50.9301 298.78 53.7741 297.678 56.4311 296.315C57.8381 295.578 59.1901 294.755 60.5031 293.88C61.8041 292.987 63.0571 292.036 64.2841 291.057C66.7281 289.087 69.0501 286.992 71.3211 284.844C68.8561 286.765 66.4161 288.716 63.8731 290.51Z" fill="#DEDDF9"/>
<path d="M337.103 326.388V161.362L340.264 160.232V123.312L337.103 122.182V115.113L340.264 113.983V94.446L337.103 93.316V89.363L340.264 88.233V68.698L337.103 67.567V65.629C308.887 49.705 276.602 40.662 242.295 40.662C211.519 40.662 182.371 47.943 156.326 60.936V113.315H130.52C127.301 105.463 119.584 99.913 110.587 99.913C106.889 99.913 103.407 100.851 100.363 102.499C96.9622 106.083 93.6852 109.796 90.5372 113.629C89.5852 116.059 89.0442 118.692 89.0442 121.455C89.0442 131.267 95.6452 139.551 104.634 142.142V191.193C104.634 200.98 112.568 208.914 122.355 208.914H156.326V326.389C156.326 335.056 160.89 343.138 167.828 348.17H325.179C332.503 343.251 337.103 335.341 337.103 326.388Z" fill="#DEDDF9"/>
<path d="M349.607 175.681L375.615 213.447L387.429 196.054L399.824 201.826L392.907 186.194L413.243 176.511L349.607 175.681Z" fill="#DEDDF9"/>
<path d="M435.917 348.169H48.6731" stroke="#5774BE" stroke-width="2.0719" stroke-miterlimit="10" stroke-linecap="round" stroke-linejoin="round"/>
<path d="M334.263 82.232V62.697L331.102 61.566V54.01C331.102 40.017 319.717 28.632 305.724 28.632H175.704C161.711 28.632 150.326 40.017 150.326 54.01V320.388C150.326 333.478 160.73 345.239 174.011 347.162C174.273 347.2 174.537 347.218 174.8 347.218H304.821C305.046 347.218 305.269 347.205 305.492 347.178C320.331 345.357 331.103 334.091 331.103 320.388V155.362L334.264 154.232V117.312L331.103 116.182V109.113L334.264 107.983V88.446L331.103 87.316V83.363L334.263 82.232Z" fill="#5774BE"/>
<path d="M174.8 341.711C164.747 340.256 155.834 331.342 155.834 320.388V54.01C155.834 43.053 164.747 34.139 175.704 34.139H305.725C316.682 34.139 325.595 43.053 325.595 54.01V320.387C325.595 331.341 316.682 340.255 304.822 341.71H174.8V341.711Z" fill="#94B7F7"/>
<path d="M305.725 41.916H283.056C283.056 41.916 275.557 52.492 271.884 52.492H212.917C209.245 52.492 201.745 41.916 201.745 41.916H175.704C169.025 41.916 163.61 47.331 163.61 54.01V295.031C163.61 303.66 170.605 310.655 179.234 310.655H302.196C310.825 310.655 317.82 303.66 317.82 295.031V54.01C317.819 47.331 312.405 41.916 305.725 41.916Z" fill="white"/>
<path d="M306.818 69.257H176.333V82.306H306.818V69.257Z" fill="#B5B5E2"/>
<path d="M306.818 96.938H176.333V103.462H306.818V96.938Z" fill="#B5B5E2"/>
<path d="M306.818 113.006H176.333V119.53H306.818V113.006Z" fill="#B5B5E2"/>
<path d="M306.818 129.074H176.333V135.598H306.818V129.074Z" fill="#B5B5E2"/>
<path d="M306.818 145.141H176.333V151.665H306.818V145.141Z" fill="#B5B5E2"/>
<path d="M306.818 161.209H176.333V167.733H306.818V161.209Z" fill="#B5B5E2"/>
<path d="M306.818 177.277H176.333V183.801H306.818V177.277Z" fill="#B5B5E2"/>
<path d="M306.818 193.344H176.333V199.868H306.818V193.344Z" fill="#B5B5E2"/>
<path d="M306.818 209.412H176.333V215.936H306.818V209.412Z" fill="#B5B5E2"/>
<path d="M306.818 225.48H176.333V232.004H306.818V225.48Z" fill="#B5B5E2"/>
<path d="M306.818 241.548H176.333V248.072H306.818V241.548Z" fill="#B5B5E2"/>
<path d="M306.818 257.615H176.333V264.139H306.818V257.615Z" fill="#B5B5E2"/>
<path d="M260.189 273.683H176.333V280.207H260.189V273.683Z" fill="#B5B5E2"/>
<path d="M226.944 289.751H176.333V296.275H226.944V289.751Z" fill="#B5B5E2"/>
<path d="M258.247 45.8H216.592C215.524 45.8 214.65 44.926 214.65 43.858C214.65 42.79 215.524 41.916 216.592 41.916H258.247C259.315 41.916 260.189 42.79 260.189 43.858C260.189 44.926 259.315 45.8 258.247 45.8Z" fill="#5774BE"/>
<path d="M270.151 43.879C270.151 44.963 269.272 45.842 268.188 45.842C267.104 45.842 266.225 44.963 266.225 43.879C266.225 42.795 267.104 41.916 268.188 41.916C269.273 41.916 270.151 42.795 270.151 43.879Z" fill="#5774BE"/>
<path d="M242.295 336.369C247.617 336.369 251.932 332.054 251.932 326.732C251.932 321.41 247.617 317.095 242.295 317.095C236.973 317.095 232.658 321.41 232.658 326.732C232.658 332.054 236.973 336.369 242.295 336.369Z" fill="#5774BE"/>
<path d="M309.314 42.457L163.61 286.067V295.031C163.61 303.66 170.605 310.655 179.234 310.655H206.164L317.82 123.971V54.01C317.819 48.58 314.241 43.986 309.314 42.457Z" fill="white"/>
<path d="M283.056 41.916C283.056 41.916 275.557 52.492 271.884 52.492H219.04L163.61 145.169V265.702L297.457 41.916H283.056Z" fill="white"/>
<path d="M256.064 310.654L317.819 207.402V144.337L218.344 310.654H256.064Z" fill="white"/>
<path d="M329.181 0C329.806 2.177 330.117 4.354 330.356 6.53C330.576 8.707 330.679 10.884 330.68 13.06C330.682 15.237 330.58 17.414 330.36 19.59C330.123 21.767 329.809 23.944 329.181 26.12C328.553 23.943 328.239 21.766 328.002 19.59C327.782 17.413 327.679 15.236 327.682 13.06C327.684 10.883 327.786 8.706 328.006 6.53C328.245 4.354 328.556 2.177 329.181 0Z" fill="#BE515B"/>
<path d="M363.773 35.325C361.596 35.95 359.419 36.261 357.243 36.5C355.066 36.72 352.889 36.822 350.712 36.824C348.535 36.826 346.359 36.724 344.182 36.504C342.005 36.266 339.828 35.953 337.652 35.324C339.829 34.696 342.006 34.382 344.182 34.145C346.359 33.925 348.535 33.822 350.712 33.825C352.889 33.827 355.066 33.929 357.243 34.149C359.419 34.389 361.596 34.7 363.773 35.325Z" fill="#BE515B"/>
<path d="M352.197 11.891C351.099 13.872 349.78 15.631 348.411 17.34C347.027 19.035 345.56 20.646 344.022 22.187C342.485 23.728 340.873 25.194 339.178 26.578C337.471 27.949 335.71 29.267 333.726 30.362C334.821 28.378 336.138 26.618 337.51 24.91C338.894 23.215 340.36 21.604 341.901 20.066C343.441 18.528 345.053 17.061 346.748 15.677C348.456 14.308 350.216 12.989 352.197 11.891Z" fill="#BE515B"/>
<path d="M356.663 59.334C354.682 58.237 352.922 56.917 351.214 55.548C349.519 54.164 347.908 52.697 346.367 51.159C344.826 49.622 343.359 48.01 341.975 46.315C340.604 44.608 339.286 42.847 338.191 40.863C340.175 41.958 341.936 43.275 343.643 44.647C345.338 46.031 346.949 47.498 348.487 49.038C350.025 50.578 351.492 52.19 352.875 53.885C354.246 55.594 355.565 57.353 356.663 59.334Z" fill="#BE515B"/>
<path d="M323.225 25.896C321.244 24.799 319.485 23.48 317.776 22.11C316.081 20.726 314.47 19.259 312.929 17.722C311.388 16.184 309.921 14.573 308.538 12.878C307.167 11.171 305.849 9.40999 304.754 7.42599C306.738 8.52099 308.498 9.839 310.206 11.21C311.901 12.594 313.512 14.06 315.05 15.601C316.588 17.141 318.055 18.753 319.438 20.448C320.808 22.155 322.127 23.915 323.225 25.896Z" fill="#BE515B"/>
<path d="M163.135 184.858C163.135 184.858 177.065 235.592 240.143 229.534C240.143 229.534 208.568 224.208 208.568 184.858H163.135Z" fill="#BE515B"/>
<path d="M232.621 202.913H116.355C106.568 202.913 98.634 194.979 98.634 185.192V125.034C98.634 115.247 106.568 107.313 116.355 107.313H232.622C242.409 107.313 250.343 115.247 250.343 125.034V185.192C250.343 194.979 242.409 202.913 232.621 202.913Z" fill="#BE515B"/>
<path d="M212.013 137.025H136.964V190.966H212.013V137.025Z" fill="#DCB650"/>
<path d="M202.367 119.26H146.609V188.372H202.367V119.26Z" fill="white"/>
<path d="M196.161 126.751H152.816V130.821H196.161V126.751Z" fill="#D0D0D0"/>
<path d="M196.161 135.094H152.816V139.164H196.161V135.094Z" fill="#D0D0D0"/>
<path d="M196.161 143.438H152.816V147.508H196.161V143.438Z" fill="#D0D0D0"/>
<path d="M196.161 151.781H152.816V155.851H196.161V151.781Z" fill="#D0D0D0"/>
<path d="M196.161 160.124H152.816V164.194H196.161V160.124Z" fill="#D0D0D0"/>
<path d="M196.161 168.468H152.816V172.538H196.161V168.468Z" fill="#D0D0D0"/>
<path d="M196.161 176.811H152.816V180.881H196.161V176.811Z" fill="#D0D0D0"/>
<path d="M153.739 162.285L136.963 137.025V190.966H212.013L212.012 137.025L195.302 162.285H153.739Z" fill="#E9D457"/>
<path d="M212.013 190.966H136.964L153.739 162.285H195.237L212.013 190.966Z" fill="#E9D457"/>
<path d="M136.964 190.966C138.264 188.519 139.595 186.089 140.929 183.662C142.264 181.235 143.58 178.797 144.949 176.39L149.021 169.148L153.11 161.916L153.311 161.56L153.739 161.555C160.655 161.479 167.572 161.462 174.488 161.445C181.404 161.461 188.321 161.476 195.237 161.553L195.663 161.558L195.867 161.915C198.618 166.721 201.306 171.565 204.028 176.388C205.396 178.795 206.714 181.232 208.048 183.66C209.382 186.088 210.713 188.517 212.012 190.965C210.515 188.633 209.051 186.282 207.588 183.929C206.126 181.577 204.648 179.233 203.22 176.86C200.351 172.123 197.446 167.406 194.605 162.652L195.235 163.014C188.319 163.091 181.402 163.106 174.486 163.122C167.57 163.106 160.653 163.089 153.737 163.012L154.366 162.651L150.067 169.76L145.751 176.859C144.324 179.232 142.845 181.575 141.383 183.928C139.924 186.283 138.46 188.634 136.964 190.966Z" fill="#DCB650"/>
<path d="M238.002 139.276C236.905 141.257 235.585 143.016 234.216 144.725C232.832 146.42 231.366 148.031 229.827 149.572C228.289 151.113 226.678 152.58 224.983 153.963C223.276 155.334 221.515 156.652 219.531 157.747C220.626 155.763 221.944 154.003 223.315 152.295C224.699 150.6 226.165 148.988 227.706 147.451C229.246 145.913 230.858 144.446 232.553 143.062C234.261 141.693 236.021 140.374 238.002 139.276Z" fill="#E2C7C9"/>
<path d="M237.483 188.715C235.502 187.618 233.743 186.298 232.034 184.928C230.339 183.544 228.727 182.078 227.187 180.54C225.646 179.002 224.18 177.391 222.796 175.696C221.425 173.989 220.107 172.228 219.012 170.244C220.996 171.339 222.756 172.656 224.464 174.028C226.158 175.412 227.771 176.878 229.308 178.419C230.846 179.959 232.313 181.571 233.696 183.266C235.067 184.975 236.386 186.734 237.483 188.715Z" fill="#E2C7C9"/>
<path d="M245.868 163.959C243.691 164.584 241.514 164.895 239.338 165.134C237.161 165.354 234.984 165.456 232.808 165.458C230.631 165.46 228.454 165.358 226.278 165.138C224.101 164.9 221.924 164.587 219.748 163.958C221.925 163.33 224.102 163.016 226.278 162.778C228.455 162.558 230.632 162.456 232.808 162.458C234.985 162.46 237.162 162.562 239.338 162.782C241.514 163.023 243.691 163.334 245.868 163.959Z" fill="#E2C7C9"/>
<path d="M110.975 139.276C112.956 140.373 114.715 141.693 116.424 143.062C118.119 144.446 119.73 145.913 121.271 147.451C122.812 148.988 124.278 150.6 125.662 152.295C127.033 154.002 128.351 155.763 129.446 157.747C127.462 156.652 125.702 155.334 123.994 153.963C122.299 152.579 120.687 151.113 119.15 149.572C117.612 148.032 116.145 146.42 114.762 144.725C113.391 143.017 112.072 141.257 110.975 139.276Z" fill="#E2C7C9"/>
<path d="M111.493 188.715C112.59 186.734 113.91 184.975 115.279 183.266C116.663 181.571 118.129 179.96 119.668 178.419C121.205 176.878 122.817 175.411 124.512 174.028C126.219 172.657 127.98 171.339 129.964 170.244C128.869 172.228 127.552 173.988 126.18 175.696C124.796 177.391 123.33 179.002 121.789 180.54C120.249 182.078 118.637 183.545 116.942 184.928C115.233 186.299 113.474 187.618 111.493 188.715Z" fill="#E2C7C9"/>
<path d="M103.108 163.959C105.285 163.334 107.462 163.023 109.638 162.784C111.815 162.564 113.992 162.462 116.168 162.46C118.345 162.458 120.522 162.56 122.698 162.78C124.875 163.018 127.052 163.331 129.228 163.96C127.051 164.588 124.874 164.902 122.698 165.14C120.521 165.36 118.344 165.462 116.168 165.46C113.991 165.458 111.814 165.356 109.638 165.136C107.462 164.895 105.285 164.584 103.108 163.959Z" fill="#E2C7C9"/>
<path d="M112.434 134.387C122.889 130.056 127.854 118.069 123.523 107.613C119.192 97.1578 107.205 92.1928 96.7497 96.5238C86.2941 100.855 81.3291 112.842 85.66 123.297C89.991 133.753 101.978 138.718 112.434 134.387Z" fill="white" stroke="#BE515B" stroke-width="2.1036" stroke-miterlimit="10"/>
<path d="M106.719 103.802H104.414C104.11 103.802 103.836 103.985 103.72 104.266C103.203 105.513 101.37 106.365 98.8181 106.545C98.4241 106.573 98.1191 106.9 98.1191 107.295V109.6C98.1191 110.015 98.4561 110.352 98.8711 110.352H102.667V126.356C102.667 126.771 103.004 127.108 103.419 127.108H106.72C107.135 127.108 107.472 126.771 107.472 126.356V104.555C107.471 104.138 107.134 103.802 106.719 103.802Z" fill="#405071"/>
<path d="M81.49 262.511L140.721 239.7L103.101 294.328L81.49 262.511Z" fill="#CBEBF9"/>
<path d="M68.083 277.519L81.49 262.511L86.012 269.169L68.083 277.519Z" fill="#A3CADD"/>
<path d="M78.088 254.907L68.083 277.519L81.49 262.511L140.721 239.7L78.088 254.907Z" fill="#BADFF9"/>
<path d="M48.6731 240.9L78.0881 254.907L140.721 239.7L48.6731 240.9Z" fill="white"/>
<path d="M65.322 278.844C63.051 280.992 60.729 283.087 58.285 285.057C57.058 286.035 55.805 286.987 54.504 287.88C53.191 288.755 51.839 289.578 50.432 290.315C47.613 291.762 44.586 292.923 41.362 293.347C38.161 293.783 34.863 293.55 31.737 292.615C28.624 291.686 25.635 289.983 23.467 287.417C21.294 284.895 19.985 281.506 20.233 278.084C20.343 276.381 20.888 274.66 21.89 273.207C22.924 271.734 24.3 270.72 25.765 269.901C26.509 269.502 27.292 269.161 28.141 268.936C28.984 268.714 29.909 268.582 30.888 268.78C31.866 268.944 32.848 269.597 33.381 270.454C33.914 271.306 34.127 272.22 34.214 273.08L34.215 273.089C34.236 273.3 34.182 273.501 34.075 273.666C33.08 275.197 31.598 276.485 29.876 277.16C28.161 277.864 26.315 277.989 24.57 277.847C21.058 277.516 17.82 276.221 14.841 274.609C11.853 272.99 9.098 270.997 6.59 268.747C4.09 266.497 1.775 264.007 0 261.161C2.021 263.83 4.44 266.151 7.036 268.218C9.648 270.265 12.448 272.069 15.4 273.525C18.352 274.944 21.499 276.083 24.68 276.271C26.259 276.353 27.836 276.165 29.217 275.573C30.606 274.993 31.743 273.965 32.549 272.684L32.41 273.27C32.333 272.582 32.14 271.946 31.832 271.474C31.514 271.015 31.094 270.738 30.526 270.641C29.378 270.445 27.93 270.916 26.692 271.599C25.446 272.298 24.255 273.217 23.505 274.324C22.743 275.45 22.304 276.813 22.224 278.223C22.121 279.631 22.337 281.078 22.798 282.433C23.272 283.777 24.02 285.051 24.949 286.163C26.822 288.39 29.439 289.976 32.273 290.89C35.116 291.804 38.178 292.08 41.177 291.789C44.176 291.502 47.104 290.485 49.897 289.229C52.679 287.923 55.323 286.29 57.872 284.509C60.416 282.716 62.856 280.765 65.322 278.844Z" fill="#BADFF9"/>
<path d="M384.556 185.451L343.607 169.681L369.615 207.447L384.556 185.451Z" fill="#CBEBF9"/>
<path d="M393.824 195.826L384.556 185.451L381.429 190.054L393.824 195.826Z" fill="#A3CADD"/>
<path d="M386.907 180.194L393.824 195.826L384.556 185.451L343.607 169.681L386.907 180.194Z" fill="#BADFF9"/>
<path d="M407.243 170.511L386.907 180.194L343.607 169.681L407.243 170.511Z" fill="white"/>
<path d="M395.652 196.881C398.162 198.828 400.866 200.492 403.777 201.649C406.652 202.847 409.722 203.637 412.726 203.463C414.226 203.363 415.667 203.01 416.983 202.369C418.291 201.719 419.458 200.794 420.31 199.661C421.146 198.539 421.714 197.163 421.701 195.858C421.699 194.521 421.048 193.52 419.878 193.269C418.714 192.962 417.445 193.442 416.466 194.399C415.472 195.349 414.791 196.651 414.478 198.027C413.798 200.811 414.632 203.926 416.362 206.288C418.125 208.641 421.023 210.084 424.064 210.387C427.121 210.775 430.299 210.047 433.104 208.575C430.524 210.438 427.277 211.44 423.995 211.365C420.732 211.287 417.33 209.928 415.139 207.258C412.985 204.639 411.929 201.068 412.628 197.618C412.976 195.9 413.818 194.261 415.105 192.996C415.749 192.362 416.536 191.82 417.444 191.492C418.365 191.165 419.384 191.089 420.354 191.328C421.318 191.555 422.28 192.16 422.86 193.041C423.451 193.913 423.651 194.92 423.653 195.848C423.632 197.729 422.888 199.435 421.805 200.815C419.604 203.561 416.139 205.023 412.785 205.017C409.415 205.062 406.232 203.979 403.369 202.534C400.515 201.042 397.866 199.168 395.652 196.881Z" fill="#BADFF9"/>
</svg>
