<svg width="27" height="26" fill="none" xmlns="http://www.w3.org/2000/svg"><path fill-rule="evenodd" clip-rule="evenodd" d="M19.448 11.556h-3.645a4.229 4.229 0 00-4.232 4.225v.216a4.229 4.229 0 004.232 4.225h3.577a1.834 1.834 0 011.834 1.832v.189a1.829 1.829 0 01-1.834 1.831H7.552c1.252-1.962 2.09-5.194 2.09-6.74a4.82 4.82 0 00-4.82-4.816A4.82 4.82 0 000 17.334c0 1.615.914 5.067 2.258 6.992C3.006 25.395 3.923 26 4.821 26h14.56a3.764 3.764 0 003.762-3.758v-.188a3.764 3.764 0 00-3.763-3.758h-3.577a2.3 2.3 0 01-2.303-2.3v-.215a2.3 2.3 0 012.303-2.3h6.376c.898 0 1.815-.604 2.563-1.674C26.086 9.882 27 6.43 27 4.815A4.82 4.82 0 0022.179 0a4.82 4.82 0 00-4.822 4.815c0 1.546.84 4.779 2.09 6.74zM4.82 24.074c-.198 0-.365-.148-.544-.323-.322-.313-.613-.757-.88-1.263-.882-1.667-1.468-3.98-1.468-5.155a2.892 2.892 0 012.892-2.889 2.892 2.892 0 012.893 2.89c0 1.173-.586 3.487-1.468 5.154-.267.506-.559.95-.88 1.264-.18.174-.346.322-.545.322zm0-8.185c.799 0 1.447.647 1.447 1.444a1.446 1.446 0 01-2.893 0c0-.797.648-1.444 1.446-1.444zM22.18 1.926a2.892 2.892 0 012.892 2.889c0 1.174-.586 3.488-1.468 5.155-.267.505-.559.949-.88 1.263-.179.174-.346.323-.544.323-.2 0-.366-.149-.545-.323-.321-.314-.613-.758-.88-1.263-.882-1.667-1.468-3.981-1.468-5.155a2.892 2.892 0 012.893-2.89zm0 1.444a1.446 1.446 0 11-1.447 1.444c0-.797.648-1.444 1.447-1.444z" fill="#FFF"/></svg>