<svg width="32" height="32" viewBox="0 0 19 19" fill="none" xmlns="http://www.w3.org/2000/svg">
<path d="M18.4972 15.9709L14.3114 11.7853C15.0402 10.6052 15.4808 9.22865 15.4808 7.74016C15.4808 3.46521 12.0155 0 7.7404 0C3.46532 0 0 3.46521 0 7.74016C0 12.0151 3.46532 15.4803 7.7404 15.4803C9.22894 15.4803 10.6055 15.0397 11.7845 14.3121L15.9714 18.4978C16.3084 18.8236 16.7599 19.0039 17.2286 18.9999C17.6973 18.9959 18.1456 18.8079 18.477 18.4764C18.8084 18.1449 18.9962 17.6965 18.9999 17.2278C19.0037 16.7591 18.8232 16.3077 18.4972 15.9709ZM7.7404 13.0987C4.78119 13.0987 2.38166 10.6993 2.38166 7.74016C2.38166 4.78104 4.78119 2.38159 7.7404 2.38159C10.6996 2.38159 13.0991 4.78104 13.0991 7.74016C13.0991 10.6993 10.6996 13.0987 7.7404 13.0987Z" fill="#A4A4A4"/>
</svg>
