<svg width="25" height="25" viewBox="0 0 25 25" fill="none" xmlns="http://www.w3.org/2000/svg">
<path d="M24.3384 21.0144L18.8308 15.507C19.7897 13.9542 20.3695 12.143 20.3695 10.1844C20.3695 4.55949 15.8099 0 10.1847 0C4.55963 0 0 4.55949 0 10.1844C0 15.8094 4.55963 20.3688 10.1847 20.3688C12.1433 20.3688 13.9547 19.7891 15.5059 18.8318L21.015 24.3392C21.4584 24.7679 22.0525 25.0052 22.6692 24.9999C23.2859 24.9947 23.8759 24.7473 24.3118 24.3111C24.7478 23.8749 24.995 23.2849 24.9999 22.6682C25.0049 22.0515 24.7673 21.4575 24.3384 21.0144ZM10.1847 17.2352C6.29104 17.2352 3.13377 14.078 3.13377 10.1844C3.13377 6.29084 6.29104 3.13367 10.1847 3.13367C14.0784 3.13367 17.2357 6.29084 17.2357 10.1844C17.2357 14.078 14.0784 17.2352 10.1847 17.2352Z" fill="#B4B4B4"/>
</svg>
