<svg width="20" height="20" viewBox="0 0 496 368" fill="none" xmlns="http://www.w3.org/2000/svg">
    <path d="M479.976 161.402L31.9763 1.40247C23.1765 -1.79673 13.2566 0.602625 6.69597 7.32247C0.136455 14.0429 -1.78354 24.1231 1.73614 32.9229L48.4373 149.896C50.8649 155.975 56.7507 159.963 63.2966 159.963H186.536C199.816 159.963 210.536 170.683 210.536 183.963C210.536 197.242 199.816 207.963 186.536 207.963H63.2966C56.7507 207.963 50.8649 211.95 48.4373 218.03L1.73614 335.003C-1.78338 343.803 0.136455 353.883 6.69614 360.603C11.3366 365.402 17.576 367.963 23.9763 367.963C26.696 367.963 29.4168 367.482 31.9763 366.522L479.976 206.522C489.576 203.163 495.976 194.043 495.976 183.963C495.976 173.883 489.576 164.763 479.976 161.402Z" fill="white"/>
</svg>
