<svg width="29" height="28" fill="none" xmlns="http://www.w3.org/2000/svg"><path d="M24.812 15.486c.057-.435.099-.87.099-1.33 0-.463-.042-.897-.099-1.332l2.97-2.24a.669.669 0 00.168-.868l-2.814-4.698c-.169-.299-.549-.407-.858-.299l-3.504 1.358a10.376 10.376 0 00-2.378-1.33l-.535-3.598c-.042-.326-.338-.57-.69-.57h-5.628c-.352 0-.647.244-.69.57l-.534 3.598c-.859.339-1.647.8-2.378 1.33L4.437 4.719a.698.698 0 00-.859.299L.764 9.716a.654.654 0 00.169.868l2.97 2.24c-.057.435-.1.883-.1 1.331 0 .448.043.896.1 1.33l-2.97 2.24a.669.669 0 00-.169.87l2.814 4.697c.17.299.55.407.859.299l3.504-1.358c.731.543 1.52.991 2.378 1.33l.534 3.598c.043.326.338.57.69.57h5.629c.351 0 .647-.244.689-.57l.535-3.597a10.91 10.91 0 002.378-1.33l3.504 1.357c.323.122.69 0 .858-.299l2.814-4.697a.669.669 0 00-.169-.87l-2.969-2.24zm-10.455 3.42c-2.716 0-4.925-2.13-4.925-4.75 0-2.621 2.21-4.753 4.925-4.753 2.716 0 4.925 2.132 4.925 4.752 0 2.62-2.209 4.752-4.925 4.752z" fill="#fff"/></svg>