<svg width="122" height="55" viewBox="0 0 374 117" fill="none" xmlns="http://www.w3.org/2000/svg">
    <path d="M112.648 95.216C107.885 95.216 103.68 93.8733 100.032 91.188C96.384 88.5027 93.8253 84.7027 92.356 79.788L102.008 75.988C102.768 78.876 104.06 81.1813 105.884 82.904C107.708 84.6267 109.988 85.488 112.724 85.488C115.004 85.488 116.955 84.9307 118.576 83.816C120.197 82.6507 121.008 81.0547 121.008 79.028C121.008 77.0013 120.223 75.3547 118.652 74.088C117.132 72.7707 114.396 71.3773 110.444 69.908L107.1 68.692C103.604 67.476 100.615 65.6267 98.132 63.144C95.6493 60.6107 94.408 57.444 94.408 53.644C94.408 50.8067 95.1427 48.2227 96.612 45.892C98.0813 43.5613 100.159 41.7373 102.844 40.42C105.529 39.052 108.569 38.368 111.964 38.368C116.879 38.368 120.755 39.5333 123.592 41.864C126.429 44.144 128.38 46.8293 129.444 49.92L120.4 53.72C119.843 52.048 118.855 50.6547 117.436 49.54C116.068 48.3747 114.295 47.792 112.116 47.792C109.887 47.792 108.037 48.324 106.568 49.388C105.149 50.4013 104.44 51.744 104.44 53.416C104.44 55.0373 105.124 56.4307 106.492 57.596C107.86 58.7107 110.115 59.8 113.256 60.864L116.676 62.004C121.388 63.6253 124.985 65.7787 127.468 68.464C130.001 71.0987 131.268 74.5693 131.268 78.876C131.268 82.4227 130.356 85.4373 128.532 87.92C126.708 90.352 124.352 92.176 121.464 93.392C118.627 94.608 115.688 95.216 112.648 95.216ZM139.618 39.584H149.574V53.34L148.966 60.104H149.574C150.689 58.28 152.31 56.8107 154.438 55.696C156.566 54.5813 158.871 54.024 161.354 54.024C166.066 54.024 169.663 55.4427 172.146 58.28C174.679 61.0667 175.946 64.9427 175.946 69.908V94H165.99V71.124C165.99 68.6413 165.306 66.716 163.938 65.348C162.621 63.98 160.847 63.296 158.618 63.296C155.983 63.296 153.805 64.36 152.082 66.488C150.41 68.616 149.574 71.2253 149.574 74.316V94H139.618V39.584ZM190.961 50.984C189.187 50.984 187.667 50.3507 186.401 49.084C185.134 47.8173 184.501 46.2973 184.501 44.524C184.501 42.7507 185.134 41.256 186.401 40.04C187.667 38.7733 189.187 38.14 190.961 38.14C192.734 38.14 194.229 38.7733 195.445 40.04C196.711 41.256 197.345 42.7507 197.345 44.524C197.345 46.2973 196.711 47.8173 195.445 49.084C194.229 50.3507 192.734 50.984 190.961 50.984ZM185.945 55.24H195.901V94H185.945V55.24ZM206.037 55.24H215.385V59.952H215.993C217.057 58.28 218.602 56.8867 220.629 55.772C222.655 54.6067 224.986 54.024 227.621 54.024C231.117 54.024 234.283 54.9107 237.121 56.684C240.009 58.4067 242.263 60.8387 243.885 63.98C245.506 67.1213 246.317 70.668 246.317 74.62C246.317 78.6227 245.506 82.1947 243.885 85.336C242.263 88.4267 240.009 90.8587 237.121 92.632C234.283 94.3547 231.117 95.216 227.621 95.216C224.986 95.216 222.63 94.6587 220.553 93.544C218.526 92.4293 217.006 91.036 215.993 89.364H215.385L215.993 94.836V110.416H206.037V55.24ZM225.873 86.02C227.747 86.02 229.495 85.5387 231.117 84.576C232.738 83.6133 234.03 82.2707 234.993 80.548C235.955 78.8253 236.437 76.8493 236.437 74.62C236.437 72.3907 235.955 70.4147 234.993 68.692C234.03 66.9693 232.738 65.652 231.117 64.74C229.495 63.7773 227.747 63.296 225.873 63.296C224.049 63.296 222.326 63.7773 220.705 64.74C219.083 65.652 217.791 66.9693 216.829 68.692C215.866 70.4147 215.385 72.3907 215.385 74.62C215.385 76.8493 215.866 78.8253 216.829 80.548C217.791 82.2707 219.083 83.6133 220.705 84.576C222.326 85.5387 224.049 86.02 225.873 86.02ZM252.943 55.24H262.291V59.952H262.899C263.963 58.28 265.508 56.8867 267.535 55.772C269.561 54.6067 271.892 54.024 274.527 54.024C278.023 54.024 281.189 54.9107 284.027 56.684C286.915 58.4067 289.169 60.8387 290.791 63.98C292.412 67.1213 293.223 70.668 293.223 74.62C293.223 78.6227 292.412 82.1947 290.791 85.336C289.169 88.4267 286.915 90.8587 284.027 92.632C281.189 94.3547 278.023 95.216 274.527 95.216C271.892 95.216 269.536 94.6587 267.459 93.544C265.432 92.4293 263.912 91.036 262.899 89.364H262.291L262.899 94.836V110.416H252.943V55.24ZM272.779 86.02C274.653 86.02 276.401 85.5387 278.023 84.576C279.644 83.6133 280.936 82.2707 281.899 80.548C282.861 78.8253 283.343 76.8493 283.343 74.62C283.343 72.3907 282.861 70.4147 281.899 68.692C280.936 66.9693 279.644 65.652 278.023 64.74C276.401 63.7773 274.653 63.296 272.779 63.296C270.955 63.296 269.232 63.7773 267.611 64.74C265.989 65.652 264.697 66.9693 263.735 68.692C262.772 70.4147 262.291 72.3907 262.291 74.62C262.291 76.8493 262.772 78.8253 263.735 80.548C264.697 82.2707 265.989 83.6133 267.611 84.576C269.232 85.5387 270.955 86.02 272.779 86.02ZM319.059 95.216C315.209 95.216 311.738 94.3293 308.647 92.556C305.557 90.7827 303.125 88.3507 301.351 85.26C299.629 82.1187 298.767 78.5973 298.767 74.696C298.767 70.9973 299.629 67.5773 301.351 64.436C303.074 61.244 305.455 58.7107 308.495 56.836C311.535 54.9613 314.93 54.024 318.679 54.024C322.682 54.024 326.127 54.8853 329.015 56.608C331.903 58.3307 334.082 60.6867 335.551 63.676C337.071 66.6653 337.831 69.984 337.831 73.632C337.831 74.7973 337.755 75.912 337.603 76.976H308.495C309.002 80.0667 310.218 82.4227 312.143 84.044C314.119 85.6147 316.475 86.4 319.211 86.4C321.491 86.4 323.442 85.9187 325.063 84.956C326.735 83.9427 328.053 82.6 329.015 80.928L337.071 84.88C333.119 91.7707 327.115 95.216 319.059 95.216ZM328.255 69.908C328.154 68.692 327.698 67.5013 326.887 66.336C326.127 65.12 325.038 64.132 323.619 63.372C322.251 62.5613 320.63 62.156 318.755 62.156C316.374 62.156 314.322 62.8653 312.599 64.284C310.927 65.652 309.711 67.5267 308.951 69.908H328.255ZM345.501 55.24H354.849V60.408H355.457C356.419 58.584 357.914 57.0893 359.941 55.924C361.967 54.708 364.197 54.1 366.629 54.1C368.402 54.1 370.023 54.3787 371.493 54.936V64.892C370.125 64.3853 368.959 64.0307 367.997 63.828C367.085 63.5747 366.097 63.448 365.033 63.448C362.094 63.448 359.763 64.512 358.041 66.64C356.318 68.768 355.457 71.4533 355.457 74.696V94H345.501V55.24Z" fill="url(#paint0_linear_1938_1914)"/>
    <path d="M91.92 7.52H95.22V29H91.92V7.52ZM106.121 29.48C104.581 29.48 103.201 29.13 101.981 28.43C100.761 27.71 99.8113 26.73 99.1313 25.49C98.4513 24.25 98.1113 22.87 98.1113 21.35C98.1113 19.83 98.4513 18.45 99.1313 17.21C99.8113 15.97 100.761 15 101.981 14.3C103.201 13.58 104.581 13.22 106.121 13.22C107.661 13.22 109.041 13.58 110.261 14.3C111.481 15.02 112.431 16 113.111 17.24C113.791 18.48 114.131 19.85 114.131 21.35C114.131 22.87 113.791 24.25 113.111 25.49C112.431 26.73 111.481 27.71 110.261 28.43C109.041 29.13 107.661 29.48 106.121 29.48ZM106.121 26.45C106.961 26.45 107.741 26.25 108.461 25.85C109.181 25.43 109.751 24.84 110.171 24.08C110.611 23.3 110.831 22.39 110.831 21.35C110.831 20.31 110.611 19.41 110.171 18.65C109.751 17.89 109.181 17.31 108.461 16.91C107.741 16.49 106.961 16.28 106.121 16.28C105.281 16.28 104.501 16.49 103.781 16.91C103.061 17.31 102.481 17.89 102.041 18.65C101.621 19.41 101.411 20.31 101.411 21.35C101.411 22.39 101.621 23.3 102.041 24.08C102.481 24.84 103.061 25.43 103.781 25.85C104.501 26.25 105.281 26.45 106.121 26.45ZM121.974 29.48C120.874 29.48 119.894 29.27 119.034 28.85C118.174 28.41 117.504 27.8 117.024 27.02C116.544 26.22 116.304 25.32 116.304 24.32C116.304 22.74 116.894 21.49 118.074 20.57C119.274 19.65 120.784 19.19 122.604 19.19C123.504 19.19 124.314 19.28 125.034 19.46C125.754 19.62 126.324 19.8 126.744 20V19.22C126.744 18.28 126.394 17.52 125.694 16.94C124.994 16.34 124.094 16.04 122.994 16.04C122.214 16.04 121.474 16.21 120.774 16.55C120.094 16.89 119.544 17.36 119.124 17.96L116.814 16.19C117.494 15.25 118.374 14.52 119.454 14C120.534 13.48 121.734 13.22 123.054 13.22C125.274 13.22 126.984 13.77 128.184 14.87C129.384 15.95 129.984 17.48 129.984 19.46V29H126.744V27.17H126.594C126.154 27.83 125.534 28.38 124.734 28.82C123.934 29.26 123.014 29.48 121.974 29.48ZM122.544 26.75C123.344 26.75 124.064 26.56 124.704 26.18C125.344 25.8 125.844 25.29 126.204 24.65C126.564 24.01 126.744 23.32 126.744 22.58C126.284 22.32 125.744 22.11 125.124 21.95C124.524 21.79 123.894 21.71 123.234 21.71C121.994 21.71 121.084 21.96 120.504 22.46C119.924 22.94 119.634 23.57 119.634 24.35C119.634 25.05 119.904 25.63 120.444 26.09C120.984 26.53 121.684 26.75 122.544 26.75ZM139.974 29.48C138.594 29.48 137.344 29.13 136.224 28.43C135.104 27.73 134.214 26.77 133.554 25.55C132.914 24.31 132.594 22.91 132.594 21.35C132.594 19.79 132.914 18.4 133.554 17.18C134.214 15.94 135.104 14.97 136.224 14.27C137.344 13.57 138.594 13.22 139.974 13.22C141.054 13.22 142.024 13.46 142.884 13.94C143.744 14.42 144.394 15.01 144.834 15.71H144.984L144.834 13.55V7.52H148.134V29H144.984V27.02H144.834C144.394 27.7 143.744 28.28 142.884 28.76C142.024 29.24 141.054 29.48 139.974 29.48ZM140.454 26.45C141.254 26.45 141.994 26.24 142.674 25.82C143.374 25.4 143.934 24.8 144.354 24.02C144.774 23.24 144.984 22.35 144.984 21.35C144.984 20.35 144.774 19.47 144.354 18.71C143.934 17.93 143.374 17.33 142.674 16.91C141.994 16.49 141.254 16.28 140.454 16.28C139.654 16.28 138.904 16.49 138.204 16.91C137.504 17.33 136.944 17.93 136.524 18.71C136.104 19.47 135.894 20.35 135.894 21.35C135.894 22.35 136.104 23.24 136.524 24.02C136.944 24.8 137.504 25.4 138.204 25.82C138.904 26.24 139.654 26.45 140.454 26.45ZM160.134 16.61H157.344V13.7H160.134V12.5C160.134 10.9 160.634 9.63 161.634 8.69C162.634 7.75 163.914 7.28 165.474 7.28C166.374 7.28 167.154 7.39 167.814 7.61V10.85C167.454 10.71 167.114 10.6 166.794 10.52C166.494 10.42 166.144 10.37 165.744 10.37C165.084 10.37 164.534 10.58 164.094 11C163.654 11.42 163.434 12 163.434 12.74V13.7H167.274V16.61H163.434V29H160.134V16.61ZM170.377 13.7H173.527V15.95H173.677C174.017 15.17 174.607 14.53 175.447 14.03C176.287 13.51 177.177 13.25 178.117 13.25C178.857 13.25 179.477 13.35 179.977 13.55V16.97C179.097 16.65 178.307 16.49 177.607 16.49C176.847 16.49 176.167 16.69 175.567 17.09C174.987 17.49 174.527 18.03 174.187 18.71C173.847 19.37 173.677 20.1 173.677 20.9V29H170.377V13.7ZM188.768 29.48C187.228 29.48 185.848 29.13 184.628 28.43C183.408 27.71 182.458 26.73 181.778 25.49C181.098 24.25 180.758 22.87 180.758 21.35C180.758 19.83 181.098 18.45 181.778 17.21C182.458 15.97 183.408 15 184.628 14.3C185.848 13.58 187.228 13.22 188.768 13.22C190.308 13.22 191.688 13.58 192.908 14.3C194.128 15.02 195.078 16 195.758 17.24C196.438 18.48 196.778 19.85 196.778 21.35C196.778 22.87 196.438 24.25 195.758 25.49C195.078 26.73 194.128 27.71 192.908 28.43C191.688 29.13 190.308 29.48 188.768 29.48ZM188.768 26.45C189.608 26.45 190.388 26.25 191.108 25.85C191.828 25.43 192.398 24.84 192.818 24.08C193.258 23.3 193.478 22.39 193.478 21.35C193.478 20.31 193.258 19.41 192.818 18.65C192.398 17.89 191.828 17.31 191.108 16.91C190.388 16.49 189.608 16.28 188.768 16.28C187.928 16.28 187.148 16.49 186.428 16.91C185.708 17.31 185.128 17.89 184.688 18.65C184.268 19.41 184.058 20.31 184.058 21.35C184.058 22.39 184.268 23.3 184.688 24.08C185.128 24.84 185.708 25.43 186.428 25.85C187.148 26.25 187.928 26.45 188.768 26.45ZM199.527 13.7H202.677V15.71H202.827C203.287 14.97 203.937 14.37 204.777 13.91C205.617 13.45 206.517 13.22 207.477 13.22C208.577 13.22 209.537 13.48 210.357 14C211.177 14.5 211.767 15.17 212.127 16.01C212.647 15.17 213.337 14.5 214.197 14C215.077 13.48 216.107 13.22 217.287 13.22C219.047 13.22 220.377 13.76 221.277 14.84C222.197 15.9 222.657 17.35 222.657 19.19V29H219.357V19.76C219.357 17.44 218.367 16.28 216.387 16.28C215.327 16.28 214.457 16.71 213.777 17.57C213.097 18.43 212.757 19.49 212.757 20.75V29H209.457V19.76C209.457 17.44 208.437 16.28 206.397 16.28C205.357 16.28 204.497 16.71 203.817 17.57C203.157 18.43 202.827 19.49 202.827 20.75V29H199.527V13.7Z" fill="#AFAFAF"/>
    <path d="M69.0427 38.5C73.0193 45.3874 74.6707 53.3728 73.7524 61.2726C72.8341 69.1724 69.3949 76.5659 63.9444 82.3573C58.4942 88.1487 51.3227 92.0303 43.4932 93.4258C35.6638 94.8217 27.5929 93.6575 20.4771 90.1059L23.5435 83.9619C29.3386 86.8539 35.9117 87.8022 42.2882 86.6655C48.6644 85.5288 54.5051 82.3678 58.9439 77.6512C63.3827 72.9347 66.1838 66.9131 66.9315 60.4796C67.6795 54.046 66.3346 47.5425 63.096 41.9334L69.0427 38.5Z" fill="url(#paint1_linear_1938_1914)"/>
    <path d="M4.95711 75.5001C0.885369 68.4478 -0.745947 60.2488 0.316014 52.1751C1.37798 44.1011 5.07393 36.603 10.8309 30.8434C16.5878 25.0837 24.084 21.3842 32.1573 20.3183C40.231 19.2525 48.4304 20.8799 55.4847 24.9483L52.054 30.8968C46.3091 27.5835 39.6313 26.2581 33.0562 27.1261C26.4811 27.9942 20.3761 31.0071 15.6876 35.6978C10.9991 40.3886 7.98909 46.495 7.12422 53.0704C6.25935 59.6458 7.58791 66.3232 10.904 72.0665L4.95711 75.5001Z" fill="url(#paint2_linear_1938_1914)"/>
    <path d="M60.7191 33.4281C60.8351 32.021 62.3212 31.1631 63.5978 31.7662L72.4806 35.9622C73.9558 36.659 74.0407 38.7258 72.6282 39.5414L62.9375 45.1362C61.525 45.9518 59.7777 44.8448 59.9115 43.219L60.7191 33.4281Z" fill="url(#paint3_linear_1938_1914)"/>
    <path d="M14.75 81.1729C14.6339 82.5797 13.148 83.4377 11.8714 82.8348L2.98841 78.6387C1.51342 77.9419 1.4283 75.8752 2.84106 75.0596L12.5315 69.4647C13.9443 68.6491 15.6916 69.7562 15.5575 71.3818L14.75 81.1729Z" fill="url(#paint4_linear_1938_1914)"/>
    <defs>
        <linearGradient id="paint0_linear_1938_1914" x1="90" y1="68.5" x2="374" y2="68.5" gradientUnits="userSpaceOnUse">
            <stop stop-color="#024EC9"/>
            <stop offset="1" stop-color="#1A5FCE"/>
        </linearGradient>
        <linearGradient id="paint1_linear_1938_1914" x1="20.4771" y1="66.2501" x2="73.9999" y2="66.2501" gradientUnits="userSpaceOnUse">
            <stop stop-color="#024EC9"/>
            <stop offset="1" stop-color="#1A5FCE"/>
        </linearGradient>
        <linearGradient id="paint2_linear_1938_1914" x1="0" y1="47.75" x2="55.4847" y2="47.75" gradientUnits="userSpaceOnUse">
            <stop stop-color="#024EC9"/>
            <stop offset="1" stop-color="#1A5FCE"/>
        </linearGradient>
        <linearGradient id="paint3_linear_1938_1914" x1="59.9043" y1="38.4908" x2="73.639" y2="38.4908" gradientUnits="userSpaceOnUse">
            <stop stop-color="#024EC9"/>
            <stop offset="1" stop-color="#1A5FCE"/>
        </linearGradient>
        <linearGradient id="paint4_linear_1938_1914" x1="1.83008" y1="76.1101" x2="15.5648" y2="76.1101" gradientUnits="userSpaceOnUse">
            <stop stop-color="#024EC9"/>
            <stop offset="1" stop-color="#1A5FCE"/>
        </linearGradient>
    </defs>
</svg>
