<svg width="13" height="21" fill="none" xmlns="http://www.w3.org/2000/svg"><path d="M12.51 13.818c0 1.734-.61 3.209-1.826 4.425-1.216 1.217-2.691 1.825-4.425 1.825-1.733 0-3.208-.608-4.425-1.825C.618 17.027.01 15.552.01 13.818v-9.25c0-1.25.438-2.312 1.313-3.187S3.259.068 4.509.068s2.313.438 3.188 1.313 1.312 1.937 1.312 3.187v8.75c0 .767-.266 1.417-.8 1.95-.533.534-1.183.8-1.95.8a2.654 2.654 0 01-1.95-.8 2.654 2.654 0 01-.8-1.95v-9.25h2v9.25a.729.729 0 00.75.75.729.729 0 00.75-.75v-8.75c-.016-.7-.262-1.291-.737-1.775-.475-.483-1.063-.725-1.763-.725s-1.291.242-1.775.725a2.416 2.416 0 00-.725 1.775v9.25c-.016 1.184.392 2.188 1.225 3.013.834.825 1.842 1.237 3.025 1.237 1.167 0 2.159-.412 2.975-1.237.817-.825 1.242-1.83 1.275-3.013v-9.75h2v9.75z" fill="#9390A0"/></svg>