<svg width="155" height="155" viewBox="0 0 26 26" fill="none" xmlns="http://www.w3.org/2000/svg"><path d="M13 26c7.18 0 13-5.82 13-13S20.18 0 13 0 0 5.82 0 13s5.82 13 13 13z" fill="url(#paint0_linear_1046_1911)"/><path d="M13.049 4.716c-.335 0-.503.174-.646.323-.15.165-.28.342-.391.53-.253.406-.51.917-.764 1.437-.253.519-.5 1.044-.71 1.453a7.42 7.42 0 01-.28.5c-.046.073-.09.123-.11.149-.03.011-.093.036-.176.056a7.165 7.165 0 01-.566.1c-.456.067-1.035.13-1.61.2a16.92 16.92 0 00-1.609.253 3.27 3.27 0 00-.63.199c-.188.085-.41.188-.516.504-.106.315.01.53.11.712.098.181.229.352.384.535.308.365.716.767 1.134 1.168.416.4.841.796 1.166 1.123.161.162.299.309.392.42.053.064.089.122.107.15 0 .032.005.099-.001.184-.019.19-.045.38-.08.567-.076.453-.196 1.021-.307 1.588-.11.566-.212 1.13-.255 1.605a3.236 3.236 0 00-.006.658c.024.206.054.448.32.646.27.197.51.154.714.116a3.33 3.33 0 00.63-.199c.442-.18.953-.443 1.463-.715.51-.271 1.02-.551 1.431-.758.205-.104.387-.188.523-.243.079-.03.144-.045.175-.053.032.01.096.024.176.057.133.055.314.144.517.25.408.213.913.502 1.42.782.505.28 1.01.551 1.452.739.22.093.421.167.625.208.203.041.444.088.715-.105.271-.194.304-.436.331-.64a3.34 3.34 0 00.005-.658c-.05-.54-.126-1.076-.23-1.61-.1-.568-.21-1.137-.281-1.592a7.033 7.033 0 01-.07-.569c-.005-.084 0-.152.004-.184.017-.026.053-.084.108-.148.095-.11.234-.254.399-.414.329-.32.76-.71 1.184-1.104.423-.393.838-.79 1.154-1.149.157-.18.288-.35.39-.53.103-.179.223-.392.122-.71-.101-.317-.321-.423-.508-.512-.2-.09-.41-.16-.626-.208-.465-.113-1.033-.2-1.606-.28-.574-.08-1.15-.151-1.605-.224a7.243 7.243 0 01-.565-.11c-.082-.022-.144-.048-.174-.059-.02-.026-.064-.077-.108-.15a7.043 7.043 0 01-.271-.505c-.204-.412-.443-.942-.687-1.465a16.605 16.605 0 00-.74-1.449 3.249 3.249 0 00-.384-.534c-.14-.152-.305-.332-.64-.335zm-.01 1.136c.053.071.105.132.173.247.208.345.452.843.692 1.357.24.514.479 1.046.696 1.486.11.218.212.414.314.581.102.167.175.301.364.44.188.14.338.17.528.218.19.047.408.087.65.127.485.079 1.065.15 1.628.228.564.079 1.112.165 1.504.26.13.033.203.063.288.093-.052.074-.095.14-.181.24-.266.305-.666.69-1.082 1.076-.417.387-.85.778-1.2 1.12-.177.17-.332.33-.46.477-.127.148-.233.26-.306.481-.075.22-.057.373-.044.568.013.194.041.414.079.657.075.483.186 1.055.285 1.614.1.558.187 1.105.217 1.507.01.132.003.21 0 .301-.086-.026-.164-.047-.286-.098a16.23 16.23 0 01-1.359-.693c-.498-.275-1.004-.565-1.44-.793a7.803 7.803 0 00-.596-.287c-.18-.075-.32-.141-.554-.143-.233 0-.373.062-.555.134a8.187 8.187 0 00-.601.278c-.438.22-.95.503-1.453.77-.502.267-.995.518-1.369.67-.124.05-.2.069-.288.094-.001-.09-.006-.169.005-.301.037-.401.133-.947.242-1.503.107-.557.228-1.127.31-1.61.04-.217.07-.436.09-.655.016-.194.036-.347-.034-.57-.07-.222-.174-.334-.3-.485a7.777 7.777 0 00-.45-.484c-.346-.348-.773-.745-1.183-1.139A16.262 16.262 0 016.3 11.023c-.086-.102-.128-.17-.178-.244.085-.03.16-.058.288-.088.394-.09.944-.168 1.51-.236.563-.07 1.144-.132 1.63-.202.244-.035.462-.073.653-.118.19-.045.341-.073.531-.209s.267-.269.371-.434c.105-.165.21-.36.323-.577.224-.436.472-.963.72-1.474.216-.458.454-.906.714-1.345.07-.114.121-.174.177-.245v.001z" fill="#fff"/><defs><linearGradient id="paint0_linear_1046_1911" x1="13" y1="0" x2="13" y2="26" gradientUnits="userSpaceOnUse"><stop stop-color="#024EC9"/><stop offset="1" stop-color="#5093FF"/></linearGradient></defs></svg>