<svg width="303" height="347" fill="none" xmlns="http://www.w3.org/2000/svg"><path d="M276.469 123.328c-.663-38.469-12.492-68.868-35.042-90.313C203.842-2.47 150.671-.038 148.902.073 110.764.183 80.586 11.569 59.03 34.01c-30.51 31.947-33.605 76.053-33.716 89.65C10.28 133.388 0 151.185 0 171.636c0 21.666 11.386 40.238 27.967 49.523-.663 18.682 3.538 59.804 47.092 87.882-.885 5.196-.332 10.502 2.21 15.145 3.096 5.527 8.07 9.617 14.15 11.386l33.827 9.948a23.69 23.69 0 006.743.995c3.869 0 7.738-.995 11.275-2.874 5.527-2.984 9.617-8.069 11.386-14.149l.663-2.211c1.769-6.08 1.106-12.492-1.879-18.129-3.095-5.527-8.07-9.618-14.149-11.386l-2.653-.774c4.863.663 9.727 1.216 14.702 1.216 45.875 0 84.897-29.405 99.489-70.416.331 0 .552.11.774.11 28.299 0 51.402-25.093 51.402-56.045.111-20.893-10.723-39.022-26.53-48.529zM17.908 171.746c0-18.681 11.939-34.379 27.525-37.474v58.478c0 5.195.443 10.391 1.216 15.476.11.442 0 .884.11 1.326-16.25-2.653-28.851-18.571-28.851-37.806zM87.44 289.807c-1.548.884-2.764 2.21-4.09 3.426-31.947-21.224-37.474-50.076-37.696-66.215 1.88.221 3.759.663 5.749.663h.442c9.728 27.526 30.289 49.303 56.156 61.02l-2.432-.663c-6.19-1.879-12.602-1.216-18.13 1.769zm50.297 28.078c.774 1.326.884 2.984.442 4.421l-.663 2.211c-.442 1.548-1.437 2.764-2.874 3.538-1.327.773-2.985.884-4.422.442l-33.826-9.949c-1.548-.442-2.764-1.437-3.427-2.764a5.664 5.664 0 01-.442-4.421l.663-2.211c.442-1.548 1.437-2.764 2.874-3.538a5.995 5.995 0 012.764-.663c.552 0 1.105.111 1.658.221l33.826 9.949c1.437.442 2.653 1.437 3.427 2.764zm101.479-125.246c0 48.418-39.464 87.882-87.882 87.882-39.575 0-74.506-26.53-84.898-64.557a89.02 89.02 0 01-3.095-23.325v-27.194l.442 1.438c50.298-15.808 73.18-43.223 84.566-63.563l1.216 1.879c13.044 20.009 32.389 49.855 89.651 56.709v30.731zm0-49.081c-46.981-6.301-62.457-29.294-74.617-48.197l-1.216-1.88c-3.648-5.637-9.728-8.732-16.36-8.4-6.744.331-12.492 4.2-15.587 10.17-8.401 16.47-27.304 38.579-67.984 52.729v-15.034c0-2.322.11-4.754.331-7.296 3.759-45.102 42.228-80.586 87.661-80.586 23.435 0 45.544 9.175 62.126 25.646 16.581 16.692 25.646 38.801 25.646 62.236v10.612zm-13.044-85.56c-20.119-19.898-46.65-30.842-74.838-30.842-51.734 0-95.62 38.358-104.022 88.987-1.215.111-2.542.221-3.758.442 1.327-16.139 6.633-47.423 28.52-70.305 18.019-18.793 43.886-28.3 77.27-28.41.442 0 47.644-2.21 79.702 28.078 17.687 16.692 26.972 40.68 28.852 70.748-.774-.111-1.438-.221-2.211-.221-3.317-21.888-13.487-42.338-29.515-58.478zm30.178 151.775a108.67 108.67 0 001.326-16.802v-58.367c15.698 3.206 27.526 18.792 27.526 37.474 0 19.235-12.602 35.153-28.852 37.695z" fill="url(#paint0_linear_1064_2020)"/><defs><linearGradient id="paint0_linear_1064_2020" x1="151.5" y1="0" x2="151.5" y2="346.515" gradientUnits="userSpaceOnUse"><stop stop-color="#024EC9"/><stop offset="1" stop-color="#024EC9"/></linearGradient></defs></svg>