<svg width="633" height="633" fill="none" xmlns="http://www.w3.org/2000/svg"><circle cx="316.5" cy="316.5" r="316.5" fill="url(#paint0_linear_1064_2028)"/><path d="M423.752 273.057c-.571-33.081-10.742-59.224-30.135-77.666-32.321-30.515-78.047-28.424-79.568-28.328-32.796.095-58.748 9.886-77.286 29.184-26.237 27.473-28.899 65.403-28.994 77.096C194.841 281.708 186 297.013 186 314.6c0 18.632 9.791 34.603 24.051 42.588-.571 16.065 3.042 51.429 40.497 75.575-.761 4.468-.286 9.031 1.901 13.023 2.662 4.753 6.939 8.271 12.168 9.792l29.089 8.555a20.38 20.38 0 005.799.856c3.327 0 6.654-.856 9.696-2.472 4.753-2.566 8.271-6.939 9.792-12.168l.57-1.901c1.521-5.228.951-10.742-1.616-15.59-2.662-4.753-6.94-8.271-12.168-9.792l-2.282-.665c4.183.57 8.366 1.046 12.644 1.046 39.451 0 73.008-25.287 85.556-60.555.285 0 .476.095.666.095 24.336 0 44.204-21.58 44.204-48.197.095-17.967-9.221-33.557-22.815-41.733zM201.4 314.695c0-16.066 10.267-29.565 23.671-32.226v50.288c0 4.468.38 8.936 1.045 13.309.096.38 0 .76.096 1.14-13.975-2.281-24.812-15.97-24.812-32.511zm59.795 101.527c-1.331.76-2.377 1.901-3.518 2.947-27.473-18.252-32.226-43.064-32.416-56.943 1.616.19 3.232.571 4.943.571h.38c8.366 23.67 26.048 42.398 48.292 52.474l-2.091-.57c-5.324-1.616-10.837-1.046-15.59 1.521zm43.253 24.146c.666 1.14.761 2.566.38 3.802l-.57 1.901c-.38 1.331-1.236 2.377-2.472 3.042-1.14.666-2.566.761-3.802.381l-29.089-8.556c-1.331-.38-2.377-1.236-2.947-2.376a4.872 4.872 0 01-.381-3.803l.571-1.901c.38-1.331 1.236-2.377 2.471-3.042a5.16 5.16 0 012.377-.571c.475 0 .951.095 1.426.19l29.089 8.556c1.236.38 2.282 1.236 2.947 2.377zm87.268-107.706c0 41.637-33.938 75.575-75.575 75.575-34.033 0-64.072-22.816-73.008-55.517a76.515 76.515 0 01-2.662-20.058v-23.386l.38 1.236c43.254-13.594 62.932-37.169 72.723-54.661l1.046 1.616c11.217 17.206 27.853 42.873 77.096 48.767v26.428zm0-42.208c-40.402-5.419-53.711-25.192-64.168-41.447l-1.045-1.617c-3.137-4.848-8.366-7.509-14.07-7.224-5.798.285-10.742 3.612-13.403 8.745-7.225 14.165-23.481 33.177-58.464 45.345v-12.928c0-1.996.095-4.088.285-6.274 3.232-38.786 36.314-69.301 75.385-69.301 20.153 0 39.166 7.89 53.425 22.055 14.26 14.354 22.055 33.367 22.055 53.52v9.126zm-11.218-73.579c-17.301-17.111-40.116-26.522-64.357-26.522-44.49 0-82.229 32.987-89.454 76.525-1.046.095-2.187.19-3.232.381 1.14-13.88 5.703-40.782 24.526-60.46 15.495-16.161 37.74-24.336 66.449-24.431.38 0 40.972-1.902 68.54 24.146 15.21 14.354 23.195 34.983 24.811 60.84-.665-.095-1.236-.19-1.901-.19-2.852-18.823-11.598-36.409-25.382-50.289zm25.952 130.521a93.358 93.358 0 001.141-14.449v-50.193c13.499 2.757 23.671 16.16 23.671 32.226 0 16.541-10.837 30.23-24.812 32.416z" fill="#fff"/><defs><linearGradient id="paint0_linear_1064_2028" x1="-68.487" y1="381.809" x2="701.487" y2="388.191" gradientUnits="userSpaceOnUse"><stop stop-color="#024EC9"/><stop offset="1" stop-color="#3884FF"/></linearGradient></defs></svg>