<svg width="633" height="633" fill="none" xmlns="http://www.w3.org/2000/svg"><circle cx="316.5" cy="316.5" r="316.5" fill="url(#paint0_linear_1064_2026)"/><path d="M428 366a50.001 50.001 0 00-49 40H238a39.996 39.996 0 01-28.284-11.716 39.996 39.996 0 010-56.568A39.996 39.996 0 01238 326h180a59.996 59.996 0 0042.426-17.574 59.996 59.996 0 000-84.852A60 60 0 00418 206H277a50.002 50.002 0 00-54.015-39.747 50 50 0 00-32.064 83.279 49.998 49.998 0 0066.723 6.74A49.999 49.999 0 00277 226h141a40.003 40.003 0 0137.066 24.642 40.004 40.004 0 01-21.698 52.343A40.006 40.006 0 01418 306H238a59.996 59.996 0 00-42.426 17.574 59.996 59.996 0 000 84.852A59.996 59.996 0 00238 426h141a49.999 49.999 0 0087.716 21.627 49.997 49.997 0 006.45-53.054A49.999 49.999 0 00428 366zM228 246a29.995 29.995 0 01-27.716-18.519 30 30 0 0152.66-28.148 29.995 29.995 0 01-3.731 37.88A30 30 0 01228 246zm200 200a29.995 29.995 0 01-27.716-18.519 30 30 0 0139.197-39.197 29.995 29.995 0 019.732 48.929A30 30 0 01428 446z" fill="#fff"/><defs><linearGradient id="paint0_linear_1064_2026" x1="-68.487" y1="381.809" x2="701.487" y2="388.191" gradientUnits="userSpaceOnUse"><stop stop-color="#024EC9"/><stop offset="1" stop-color="#3884FF"/></linearGradient></defs></svg>