<svg width="1697" height="72" fill="none" xmlns="http://www.w3.org/2000/svg"><path transform="matrix(0 1 1 0 0 27)" fill="url(#paint0_linear_546_4343)" d="M0 0h18v1672H0z"/><g clip-path="url(#clip0_546_4343)"><g clip-path="url(#clip1_546_4343)"><path d="M1666.97 23.438h11.51c.61 0 1.1.493 1.1 1.102v.052a1.1 1.1 0 01-1.1 1.102h-11.51a1.1 1.1 0 01-1.1-1.102v-.052a1.1 1.1 0 011.1-1.102zm0 21.564h11.51c.61 0 1.1.494 1.1 1.102v.052a1.1 1.1 0 01-1.1 1.102h-11.51c-.61 0-1.11-.493-1.11-1.102v-.052c0-.608.5-1.102 1.11-1.102z" fill="#7F94A8" stroke="#231F20" stroke-width=".284" stroke-linecap="round" stroke-linejoin="round"/><path d="M1640.85 24.248h2.98v22.2h-2.98v-22.2z" fill="#000" stroke="#231F20" stroke-width=".284" stroke-linecap="round" stroke-linejoin="round"/><path d="M1644.12 23.2h18.76c.16 0 .29.128.29.285v23.724c0 .157-.13.284-.29.284h-18.76a.279.279 0 01-.28-.284V23.485c0-.157.12-.284.28-.284z" fill="#BAD2E7" stroke="#231F20" stroke-width=".284" stroke-linecap="round" stroke-linejoin="round"/><path d="M1683.69 21.43h7.37c2.41 0 4.36 1.948 4.36 4.353V44.91a4.356 4.356 0 01-4.36 4.353h-7.37c-2.4 0-4.35-1.949-4.35-4.353V25.783a4.354 4.354 0 014.35-4.354z" fill="#7F94A8" stroke="#231F20" stroke-width=".284" stroke-linecap="round" stroke-linejoin="round"/><path d="M1675.69 45.238l18.88-1.581a1.889 1.889 0 001.73-1.883V28.922c0-.982-.75-1.8-1.73-1.883l-18.88-1.582v19.784-.003z" fill="#BAD2E7" stroke="#231F20" stroke-width=".284" stroke-linecap="round" stroke-linejoin="round"/><path d="M1675.32 25.348h-9.45v19.996h9.45a5.74 5.74 0 005.74-5.737v-8.524a5.74 5.74 0 00-5.74-5.738v.003z" fill="#000" stroke="#231F20" stroke-width=".284" stroke-linecap="round" stroke-linejoin="round"/><path d="M1674.97 25.347h-8.6v19.996h8.6a3.9 3.9 0 003.9-3.892V29.239c0-2.15-1.75-3.892-3.9-3.892z" fill="#BAD2E7" stroke="#231F20" stroke-width=".284" stroke-linecap="round" stroke-linejoin="round"/><path d="M1663.17 47.494l3.2-2.147V25.35l-3.2-2.147v24.292z" fill="#B9CADA" stroke="#231F20" stroke-width=".284" stroke-linecap="round" stroke-linejoin="round"/><path d="M1523.83 21.62h117.94c.16 0 .29.127.29.284v26.89c0 .157-.13.284-.29.284h-117.94a.279.279 0 01-.28-.284v-26.89c0-.157.12-.284.28-.284z" fill="#19B66A"/></g></g><defs><clipPath id="clip0_546_4343"><path fill="#fff" transform="matrix(0 1 1 0 1522.45 .254)" d="M0 0h71.324v173.852H0z"/></clipPath><clipPath id="clip1_546_4343"><path fill="#fff" transform="matrix(0 1 1 0 1522.45 21.43)" d="M0 0h28.975v173.852H0z"/></clipPath><linearGradient id="paint0_linear_546_4343" x1="9" y1="0" x2="9" y2="1672" gradientUnits="userSpaceOnUse"><stop stop-color="#F9F9FB"/><stop offset="1" stop-color="#39B98E"/></linearGradient></defs></svg>