<svg width="86" height="66" fill="none" xmlns="http://www.w3.org/2000/svg"><path d="M83.875 56.375h-11A1.375 1.375 0 0171.5 55a8.25 8.25 0 00-1.004-3.96 1.375 1.375 0 112.379-1.306 11 11 0 011.293 3.891H82.5V33.33l-7.948-15.922a4.125 4.125 0 00-3.698-2.283H49.5v38.5h2.833a10.999 10.999 0 0116.197-8.25 1.392 1.392 0 01-1.375 2.42A8.25 8.25 0 0055 55a1.375 1.375 0 01-1.375 1.375h-5.5A1.375 1.375 0 0146.75 55V13.75a1.375 1.375 0 011.375-1.375h22.729A6.874 6.874 0 0177 16.17l8.099 16.211c.098.192.15.404.151.619v22a1.375 1.375 0 01-1.375 1.375z" fill="#707070"/><path d="M63.25 66a11 11 0 115.28-20.625 1.392 1.392 0 01-1.375 2.42 8.25 8.25 0 103.287 3.286 1.391 1.391 0 012.433-1.347A11 11 0 0163.25 66z" fill="#707070"/><path d="M63.25 60.5a5.5 5.5 0 110-11 5.5 5.5 0 010 11zm0-8.25a2.75 2.75 0 100 5.5 2.75 2.75 0 000-5.5zM17.875 66a11 11 0 110-22 11 11 0 010 22zm0-19.25a8.25 8.25 0 100 16.501 8.25 8.25 0 000-16.501z" fill="#707070"/><path d="M17.875 60.5a5.5 5.5 0 110-11 5.5 5.5 0 010 11zm0-8.25a2.75 2.75 0 100 5.5 2.75 2.75 0 000-5.5zm66-17.875h-27.5A1.375 1.375 0 0155 33V19.25a1.375 1.375 0 011.375-1.375H60.5a1.375 1.375 0 010 2.75h-2.75v11h23.897l-5.5-11H66a1.375 1.375 0 010-2.75h11a1.375 1.375 0 011.224.756l6.875 13.75a1.375 1.375 0 01-1.224 1.994zm0 15.125H82.5a5.5 5.5 0 010-11h1.375a1.375 1.375 0 011.375 1.375v8.25a1.375 1.375 0 01-1.375 1.375zM82.5 41.25a2.75 2.75 0 100 5.5v-5.5zM48.125 56.375h-5.5a1.375 1.375 0 010-2.75h4.125V41.25H15.125a1.375 1.375 0 010-2.75h33a1.375 1.375 0 011.375 1.375V55a1.375 1.375 0 01-1.375 1.375z" fill="#707070"/><path d="M30.25 56.375H27.5A1.375 1.375 0 0126.125 55a8.25 8.25 0 10-16.5 0 1.375 1.375 0 01-1.375 1.375H1.375A1.375 1.375 0 010 55V39.875A1.375 1.375 0 011.375 38.5h8.25a1.375 1.375 0 010 2.75H2.75v12.375h4.207a11 11 0 0121.835 0h1.458a1.375 1.375 0 010 2.75zm6.875 0H35.75a1.375 1.375 0 010-2.75h1.375a1.375 1.375 0 010 2.75zm11-15.125h-22a1.375 1.375 0 01-1.375-1.375v-19.25a1.375 1.375 0 011.375-1.375h22a1.375 1.375 0 011.375 1.375v19.25a1.375 1.375 0 01-1.375 1.375zM27.5 38.5h19.25V22H27.5v16.5z" fill="#707070"/><path d="M48.125 22h-22a1.375 1.375 0 01-1.375-1.375V13.75a1.375 1.375 0 012.75 0v5.5h19.25V2.75H27.5v5.5a1.375 1.375 0 01-2.75 0V1.375A1.375 1.375 0 0126.125 0h22A1.375 1.375 0 0149.5 1.375v19.25A1.375 1.375 0 0148.125 22z" fill="#707070"/><path d="M26.125 41.25h-11a1.375 1.375 0 010-2.75h9.625V22H5.5v16.5h4.125a1.375 1.375 0 010 2.75h-5.5a1.375 1.375 0 01-1.375-1.375v-19.25a1.375 1.375 0 011.375-1.375h22a1.375 1.375 0 011.375 1.375v19.25a1.375 1.375 0 01-1.375 1.375zm13.75-31.625h-5.5A1.375 1.375 0 0133 8.25V1.375A1.375 1.375 0 0134.375 0h5.5a1.375 1.375 0 011.375 1.375V8.25a1.375 1.375 0 01-1.375 1.375zm-4.125-2.75h2.75V2.75h-2.75v4.125zm4.125 22h-5.5A1.375 1.375 0 0133 27.5v-6.875a1.375 1.375 0 011.375-1.375h5.5a1.375 1.375 0 011.375 1.375V27.5a1.375 1.375 0 01-1.375 1.375zm-4.125-2.75h2.75V22h-2.75v4.125z" fill="#707070"/><path d="M17.875 28.875h-5.5A1.375 1.375 0 0111 27.5v-6.875a1.375 1.375 0 011.375-1.375h5.5a1.375 1.375 0 011.375 1.375V27.5a1.375 1.375 0 01-1.375 1.375zm-4.125-2.75h2.75V22h-2.75v4.125zm45.375 13.75h-2.75a1.375 1.375 0 010-2.75h2.75a1.375 1.375 0 010 2.75z" fill="#707070"/></svg>