<svg width="633" height="633" fill="none" xmlns="http://www.w3.org/2000/svg"><circle cx="316.5" cy="316.5" r="316.5" fill="url(#paint0_linear_1061_1979)"/><path d="M449.973 392.762c-24.47 0-44.393-19.923-44.393-44.392 0-24.47 19.923-44.393 44.393-44.393 24.469 0 44.392 19.923 44.392 44.393 0 24.469-19.923 44.392-44.392 44.392zm0-80.601c-19.923 0-36.126 16.203-36.126 36.126s16.203 36.126 36.126 36.126 36.126-16.203 36.126-36.126-16.203-36.126-36.126-36.126zm-268.01 80.601c-24.47 0-44.393-19.923-44.393-44.392 0-24.47 19.923-44.393 44.393-44.393 24.47 0 44.393 19.923 44.393 44.393 0 24.469-19.923 44.392-44.393 44.392zm0-80.601c-19.923 0-36.126 16.203-36.126 36.126s16.203 36.209 36.126 36.209 36.126-16.203 36.126-36.126-16.203-36.209-36.126-36.209z" fill="#fff"/><path d="M181.964 372.261c-13.144 0-23.891-10.747-23.891-23.891 0-13.145 10.747-23.891 23.891-23.891 13.145 0 23.891 10.746 23.891 23.891 0 13.144-10.746 23.891-23.891 23.891zm0-39.598c-8.597 0-15.624 7.026-15.624 15.624 0 8.597 7.027 15.624 15.624 15.624 8.598 0 15.625-7.027 15.625-15.624 0-8.598-7.027-15.624-15.625-15.624zm267.845 39.598c-13.145 0-23.891-10.747-23.891-23.891 0-13.145 10.746-23.891 23.891-23.891 13.144 0 23.891 10.746 23.891 23.891 0 13.144-10.747 23.891-23.891 23.891zm0-39.598c-8.598 0-15.625 7.026-15.625 15.624 0 8.597 7.027 15.624 15.625 15.624 8.597 0 15.624-7.027 15.624-15.624 0-8.598-7.027-15.624-15.624-15.624z" fill="#fff"/><path d="M514.207 372.095h-29.182v-8.266h25.048v-15.542c0-.579.083-1.157.331-1.653l8.597-19.593-16.451-12.317c-18.187-13.64-40.672-21.163-63.406-21.163h-34.886c-.827 0-1.653-.248-2.315-.744l-36.622-24.883c-20.005-13.558-43.318-20.75-67.457-20.75h-86.47l-98.127 30.009v3.968h4.96a4.092 4.092 0 014.133 4.133v35.547a4.093 4.093 0 01-4.133 4.134h-4.96v22.568l12.4 16.286h21.163v8.266H123.6c-1.322 0-2.48-.578-3.306-1.653l-14.467-19.014c-.579-.744-.827-1.57-.827-2.48v-28.107a4.093 4.093 0 014.133-4.133h4.96v-27.281h-4.96a4.093 4.093 0 01-4.133-4.133v-11.16c0-1.819 1.157-3.389 2.893-3.968l101.682-31.001c.413-.082.827-.165 1.24-.165h87.049c25.793 0 50.759 7.688 72.087 22.155l35.547 24.139h33.646c24.47 0 48.774 8.102 68.366 22.816l19.097 14.302c1.57 1.157 2.066 3.224 1.322 4.96l-9.589 21.824v18.766a4.093 4.093 0 01-4.133 4.133z" fill="#fff"/><path d="M414.84 363.829h-59.191v8.266h59.191v-8.266zm-75.724 0h-122.1v8.266h122.1v-8.266zm-202.95-38.854h-17.939a4.093 4.093 0 01-4.133-4.133v-35.548a4.093 4.093 0 014.133-4.133h18.022c1.653 0 3.141.992 3.802 2.48l8.681 20.254c.496 1.157.413 2.562-.166 3.637l-8.68 15.294c-.827 1.322-2.232 2.149-3.72 2.149zm-13.805-8.267h11.408l6.448-11.408-6.696-15.872h-11.16v27.28zm256.27-24.8H316.63c-.248 0-.413 0-.661-.083l-83.081-12.813 1.24-8.185 82.833 12.814h48.774l-3.389-2.397c-20.502-14.633-44.641-22.403-69.855-22.403h-73.657l-21.659 6.365 20.502 3.141-1.24 8.185-38.854-5.953c-1.902-.33-3.39-1.901-3.472-3.802a4.02 4.02 0 012.976-4.216l40.094-11.739c.413-.083.744-.166 1.157-.166h74.236c26.95 0 52.742 8.267 74.649 23.892l13.888 9.92c1.488 1.074 2.067 2.893 1.571 4.629-.661 1.653-2.232 2.811-4.051 2.811z" fill="#fff"/><path d="M266.368 284.219c-.248 0-.414 0-.662-.082l-16.864-2.563c-1.984-.331-3.472-2.067-3.472-4.051v-22.816a4.094 4.094 0 014.133-4.134h16.865a4.094 4.094 0 014.133 4.134v25.296c0 1.24-.496 2.315-1.405 3.142-.744.661-1.736 1.074-2.728 1.074zm-12.731-10.333l8.597 1.323V258.84h-8.597v15.046zm145.826 78.534l-134.418-8.018c-1.157-.083-2.232-.662-2.976-1.571l-25.545-32.241c-.826-.992-1.074-2.314-.744-3.554.331-1.24 1.158-2.232 2.315-2.811l26.702-11.987c.744-.331 1.488-.413 2.315-.331l130.946 19.841-1.24 8.184-129.789-19.592-20.667 9.258 21.08 26.62 132.6 7.936-.579 8.266zm124.663-30.752h-25.627v8.267h25.627v-8.267z" fill="#fff"/><defs><linearGradient id="paint0_linear_1061_1979" x1="-68.487" y1="381.809" x2="701.487" y2="388.191" gradientUnits="userSpaceOnUse"><stop stop-color="#024EC9"/><stop offset="1" stop-color="#3884FF"/></linearGradient></defs></svg>