<svg width="20" height="40" viewBox="0 0 20 61" fill="none" xmlns="http://www.w3.org/2000/svg"><circle cx="10" cy="10" r="10" fill="#024EC9"/><circle cx="10" cy="51" r="10" fill="#024EC9"/><path stroke="#024EC9" stroke-width="2" d="M10 22v16"/><path d="M9.396 5.408h1.86L14.484 14h-1.788l-.72-2.052H8.688L7.968 14H6.18l3.216-8.592zm2.052 5.052l-.756-2.16-.312-1.032h-.096L9.972 8.3l-.768 2.16h2.244zM6.984 46.408h3.36c.48 0 .92.1 1.32.3.408.2.728.472.96.816.232.344.348.72.348 1.128 0 .432-.108.808-.324 1.128a2.065 2.065 0 01-.828.72v.096c.448.16.804.416 1.068.768.264.344.396.76.396 1.248 0 .472-.128.892-.384 1.26-.248.36-.588.64-1.02.84a3.394 3.394 0 01-1.416.288h-3.48v-8.592zm3.24 3.504c.352 0 .632-.096.84-.288a.973.973 0 00.324-.744.94.94 0 00-.312-.72c-.2-.2-.468-.3-.804-.3H8.604v2.052h1.62zm.18 3.612c.392 0 .696-.1.912-.3.224-.208.336-.476.336-.804 0-.328-.112-.596-.336-.804-.224-.208-.544-.312-.96-.312H8.604v2.22h1.8z" fill="#fff"/></svg>