<svg width="21" height="21" viewBox="0 0 432 384" fill="none" xmlns="http://www.w3.org/2000/svg"><path d="M253.28 296.637l-32 11.6a7.992 7.992 0 00-4.688 4.099 8.006 8.006 0 003.902 10.789 8.003 8.003 0 006.226.152l32-11.6a8.004 8.004 0 004.59-10.165 7.996 7.996 0 00-10.03-4.875zm-29.28-4.8a8.033 8.033 0 002.72-.48l16-5.84a8.004 8.004 0 004.59-10.165 7.996 7.996 0 00-10.03-4.875l-16 5.84a7.995 7.995 0 00-5.151 8.901 8.002 8.002 0 007.871 6.619z" fill="#fff"/><path d="M432 207.437a88.003 88.003 0 00-64-84.56v-51.44a7.996 7.996 0 00-.56-2.8v-.8a8.028 8.028 0 00-1.12-1.6l-.64-.64a7.99 7.99 0 00-1.68-1.12h-.64l-176-64a8 8 0 00-5.44 0l-176 64h-.64a8 8 0 00-1.68 1.12l-.64.64a8 8 0 00-1.12 1.6v.8a8 8 0 00-1.84 2.8v240a7.997 7.997 0 005.28 7.52l176 64a8.033 8.033 0 002.72.48 8.022 8.022 0 002.4-.4l176-64a8.003 8.003 0 005.6-7.6v-19.44a88.006 88.006 0 0064-84.56zm-248-80.48l-28.16-10.24 143.2-58.56 37.52 13.28L184 126.957zm-104-20.8l40 14.56v35.44l-18.32-18.32a7.996 7.996 0 00-8-1.92l-13.68 4.4v-34.16zm16-11.28l146.96-56a7.998 7.998 0 001.6-.96l32.64 11.92-144 58.72L96 94.877zm88-78.96l37.92 13.84-149.04 56.8-41.44-15.12L184 15.917zM16 305.837V82.877l48 17.44v51.12a7.999 7.999 0 0010.56 7.6l19.28-6.4 28.48 28.48a8.006 8.006 0 008.748 1.755 8.012 8.012 0 003.599-2.966 8.007 8.007 0 001.333-4.469v-48.96l40 14.56v222.96l-160-58.16zm336 0l-160 58.16v-222.96l160-58.16v36.96c-2.64 0-5.28-.4-8-.4a88 88 0 100 176c2.72 0 5.36 0 8-.4v10.8zm-8-26.4a71.996 71.996 0 01-66.519-44.447 71.998 71.998 0 0152.472-98.17 72.006 72.006 0 0173.913 30.616A72 72 0 01344 279.437z" fill="#fff"/><path d="M376 199.437h-24v-24a8 8 0 10-16 0v24h-24a7.996 7.996 0 00-8 8 8 8 0 008 8h24v24a8 8 0 0016 0v-24h24a7.997 7.997 0 008-8 8 8 0 00-8-8z" fill="#fff"/></svg>