<svg width="332" height="196" fill="none" xmlns="http://www.w3.org/2000/svg"><g clip-path="url(#clip0_188_534)"><rect width="332" height="196" rx="25" fill="#EDEDED"/><ellipse cx="33" cy="193.5" rx="175" ry="110.5" fill="#F6F6F6"/><ellipse cx="332" cy="-13.5" rx="175" ry="110.5" fill="#F6F6F6"/><path fill-rule="evenodd" clip-rule="evenodd" d="M207.5 107.75c6.213 0 11.25-5.037 11.25-11.25s-5.037-11.25-11.25-11.25-11.25 5.037-11.25 11.25 5.037 11.25 11.25 11.25zM206.375 92a1.125 1.125 0 012.25 0v3.375H212a1.123 1.123 0 011.125 1.125A1.125 1.125 0 01212 97.625h-3.375V101a1.123 1.123 0 01-1.125 1.125 1.123 1.123 0 01-1.125-1.125v-3.375H203a1.123 1.123 0 01-1.125-1.125A1.125 1.125 0 01203 95.375h3.375V92z" fill="#000"/><path d="M112.112 89.112h2.304L119.258 102h-2.232l-1.152-3.294h-5.202l-1.17 3.294h-2.232l4.842-12.888zm3.078 7.722L113.822 93l-.504-1.494h-.108L112.706 93l-1.368 3.834h3.852zm9.156 5.454c-.828 0-1.578-.21-2.25-.63a4.542 4.542 0 01-1.602-1.728c-.384-.744-.576-1.584-.576-2.52 0-.936.192-1.77.576-2.502a4.509 4.509 0 011.602-1.746 4.159 4.159 0 012.25-.63c.648 0 1.23.144 1.746.432.516.288.906.642 1.17 1.062h.09l-.09-1.296v-3.618h1.98V102h-1.89v-1.188h-.09c-.264.408-.654.756-1.17 1.044a3.52 3.52 0 01-1.746.432zm.288-1.818c.48 0 .924-.126 1.332-.378.42-.252.756-.612 1.008-1.08.252-.468.378-1.002.378-1.602 0-.6-.126-1.128-.378-1.584a2.742 2.742 0 00-1.008-1.08 2.487 2.487 0 00-1.332-.378c-.48 0-.93.126-1.35.378-.42.252-.756.612-1.008 1.08-.252.456-.378.984-.378 1.584 0 .6.126 1.134.378 1.602.252.468.588.828 1.008 1.08.42.252.87.378 1.35.378zm10.751 1.818c-.828 0-1.578-.21-2.25-.63a4.542 4.542 0 01-1.602-1.728c-.384-.744-.576-1.584-.576-2.52 0-.936.192-1.77.576-2.502a4.509 4.509 0 011.602-1.746 4.159 4.159 0 012.25-.63c.648 0 1.23.144 1.746.432.516.288.906.642 1.17 1.062h.09l-.09-1.296v-3.618h1.98V102h-1.89v-1.188h-.09c-.264.408-.654.756-1.17 1.044a3.52 3.52 0 01-1.746.432zm.288-1.818c.48 0 .924-.126 1.332-.378.42-.252.756-.612 1.008-1.08.252-.468.378-1.002.378-1.602 0-.6-.126-1.128-.378-1.584a2.742 2.742 0 00-1.008-1.08 2.487 2.487 0 00-1.332-.378c-.48 0-.93.126-1.35.378-.42.252-.756.612-1.008 1.08-.252.456-.378.984-.378 1.584 0 .6.126 1.134.378 1.602.252.468.588.828 1.008 1.08.42.252.87.378 1.35.378zm11.133-7.65h1.89v1.206h.09c.264-.432.654-.786 1.17-1.062a3.445 3.445 0 011.674-.432c1.116 0 1.962.33 2.538.99.588.648.882 1.536.882 2.664V102h-1.98v-5.544c0-.72-.18-1.248-.54-1.584-.348-.336-.834-.504-1.458-.504-.444 0-.84.126-1.188.378-.348.24-.618.564-.81.972a3.047 3.047 0 00-.288 1.314V102h-1.98v-9.18zm14.671 9.468c-.9 0-1.71-.21-2.43-.63a4.541 4.541 0 01-1.674-1.728c-.396-.744-.594-1.578-.594-2.502 0-.876.192-1.686.576-2.43a4.652 4.652 0 011.638-1.8c.696-.444 1.488-.666 2.376-.666.924 0 1.722.204 2.394.612.684.408 1.2.966 1.548 1.674.36.708.54 1.506.54 2.394a4.6 4.6 0 01-.054.63h-7.038c.072.852.372 1.512.9 1.98.54.456 1.164.684 1.872.684.564 0 1.05-.126 1.458-.378.42-.264.756-.618 1.008-1.062l1.674.792a4.932 4.932 0 01-1.692 1.782c-.696.432-1.53.648-2.502.648zm2.358-5.958a2.225 2.225 0 00-.306-.954c-.18-.324-.456-.594-.828-.81-.36-.216-.804-.324-1.332-.324-.636 0-1.176.192-1.62.576-.432.372-.732.876-.9 1.512h4.986zm2.617-3.51h2.142l1.854 6.57h.072l2.07-6.57h2.034l2.052 6.57h.072l1.854-6.57h2.106l-2.934 9.18h-2.088l-2.106-6.588h-.054L171.438 102h-2.052l-2.934-9.18z" fill="#000"/></g><defs><clipPath id="clip0_188_534"><rect width="332" height="196" rx="25" fill="#fff"/></clipPath></defs></svg>