<svg width="999" height="999" viewBox="0 0 999 999" fill="none" xmlns="http://www.w3.org/2000/svg">
<rect width="999" height="999" fill="white"/>
<path d="M764.002 346C796.889 402.961 810.547 469.002 802.953 534.335C795.358 599.669 766.915 660.815 721.837 708.712C676.763 756.608 617.453 788.71 552.701 800.251C487.95 811.796 421.201 802.167 362.351 772.795L387.712 721.982C435.639 745.9 490 753.742 542.735 744.342C595.468 734.941 643.772 708.799 680.482 669.791C717.192 630.784 740.358 580.984 746.542 527.777C752.728 474.57 741.605 420.784 714.821 374.395L764.002 346Z" fill="url(#paint0_linear_1677_1905)"/>
<path d="M233.997 652.001C200.322 593.677 186.831 525.868 195.614 459.097C204.396 392.323 234.963 330.312 282.574 282.678C330.185 235.044 392.181 204.448 458.949 195.633C525.721 186.818 593.533 200.277 651.873 233.924L623.501 283.119C575.989 255.717 520.761 244.756 466.384 251.935C412.006 259.114 361.516 284.032 322.741 322.825C283.966 361.619 259.072 412.121 251.919 466.501C244.767 520.882 255.754 576.106 283.179 623.604L233.997 652.001Z" fill="url(#paint1_linear_1677_1905)"/>
<path d="M695.164 304.054C696.123 292.417 708.414 285.322 718.972 290.309L792.435 325.012C804.635 330.774 805.337 347.867 793.656 354.612L713.51 400.883C701.829 407.629 687.378 398.473 688.485 385.027L695.164 304.054Z" fill="url(#paint2_linear_1677_1905)"/>
<path d="M314.986 698.915C314.026 710.55 301.737 717.647 291.179 712.66L217.714 677.957C205.516 672.195 204.812 655.102 216.496 648.357L296.639 602.086C308.322 595.34 322.773 604.497 321.664 617.941L314.986 698.915Z" fill="url(#paint3_linear_1677_1905)"/>
<defs>
<linearGradient id="paint0_linear_1677_1905" x1="443.334" y1="750.224" x2="602.785" y2="-266.232" gradientUnits="userSpaceOnUse">
<stop stop-color="#024EC9"/>
<stop offset="1" stop-color="#4B8FFF"/>
</linearGradient>
<linearGradient id="paint1_linear_1677_1905" x1="554.666" y1="247.776" x2="395.216" y2="1264.24" gradientUnits="userSpaceOnUse">
<stop stop-color="#024EC9"/>
<stop offset="1" stop-color="#4B8FFF"/>
</linearGradient>
<linearGradient id="paint2_linear_1677_1905" x1="664.915" y1="336.143" x2="936.73" y2="404.379" gradientUnits="userSpaceOnUse">
<stop stop-color="#024EC9"/>
<stop offset="1" stop-color="#4B8FFF"/>
</linearGradient>
<linearGradient id="paint3_linear_1677_1905" x1="345.236" y1="666.827" x2="73.4201" y2="598.591" gradientUnits="userSpaceOnUse">
<stop stop-color="#024EC9"/>
<stop offset="1" stop-color="#4B8FFF"/>
</linearGradient>
</defs>
</svg>
