<svg width="28" height="28" fill="none" xmlns="http://www.w3.org/2000/svg"><path fill-rule="evenodd" clip-rule="evenodd" d="M23.098 16.096c0-.225-.09-.44-.25-.6a.859.859 0 00-.606-.249H5.132a.859.859 0 00-.604.249.845.845 0 00-.25.6v9.334a2.527 2.527 0 00.75 1.8 2.566 2.566 0 001.816.745H20.53a2.57 2.57 0 001.814-.746 2.53 2.53 0 00.753-1.8v-9.333zm0-12.728c0-.675-.27-1.323-.752-1.8A2.564 2.564 0 0020.53.822H6.844a2.574 2.574 0 00-2.371 1.572 2.51 2.51 0 00-.196.974v7.637c0 .675.27 1.323.752 1.8a2.566 2.566 0 001.815.745H20.53a2.574 2.574 0 002.371-1.571c.13-.309.196-.64.196-.974V3.368zm-12.832.848a2.577 2.577 0 00-1.773.769 2.536 2.536 0 000 3.554 2.577 2.577 0 001.773.769 2.577 2.577 0 001.772-.769 2.536 2.536 0 000-3.554 2.577 2.577 0 00-1.772-.769zm6.843 0a2.577 2.577 0 00-1.772.769 2.536 2.536 0 000 3.554 2.577 2.577 0 001.772.769 2.577 2.577 0 001.773-.769 2.536 2.536 0 000-3.554 2.577 2.577 0 00-1.773-.769zm7.553 11.031h.147c.68 0 1.333.269 1.814.746.482.477.752 1.125.752 1.8v5.091a2.53 2.53 0 01-.752 1.8 2.564 2.564 0 01-1.814.746v-9.334c0-.298-.052-.583-.147-.849zm-21.95 0h-.146a2.574 2.574 0 00-2.37 1.572 2.51 2.51 0 00-.196.974v5.091c0 .676.27 1.323.752 1.8a2.566 2.566 0 001.814.746v-9.334c0-.298.052-.583.147-.849z" fill="#fff"/></svg>