<svg width="75" height="75" viewBox="0 0 44 43" fill="none" xmlns="http://www.w3.org/2000/svg"><path d="M19.417 4.372c1.161-1.965 4.005-1.965 5.166 0l13.796 23.352c1.181 2-.26 4.526-2.583 4.526H8.204c-2.323 0-3.764-2.526-2.583-4.526L19.417 4.372z" fill="#FDA302"/><path d="M23.845 11.755C23.845 10.671 23.051 10 22 10c-1.026 0-1.846.697-1.846 1.755v9.94c0 1.058.82 1.755 1.846 1.755 1.05 0 1.845-.672 1.845-1.755v-9.94zM24 26.985c0-.533-.212-1.045-.587-1.422a1.996 1.996 0 00-1.413-.59c-.53 0-1.038.213-1.413.59a2.024 2.024 0 000 2.846c.374.378.883.59 1.413.591.53 0 1.039-.213 1.413-.59.375-.378.586-.89.587-1.424z" fill="#fff"/></svg>