<svg width="32" height="32" viewBox="0 0 32 32" fill="none" xmlns="http://www.w3.org/2000/svg">
<circle cx="16" cy="16" r="16" fill="#FD3A31"/>
<path d="M17.2329 15.9993L22.7414 10.4989C22.906 10.3342 22.9985 10.1109 22.9985 9.87804C22.9985 9.64517 22.906 9.42184 22.7414 9.25717C22.5767 9.09251 22.3534 9 22.1206 9C21.8877 9 21.6644 9.09251 21.4998 9.25717L16 14.7663L10.5002 9.25717C10.3356 9.09251 10.1123 9 9.87944 9C9.64659 9 9.42328 9.09251 9.25864 9.25717C9.09399 9.42184 9.00149 9.64517 9.00149 9.87804C9.00149 10.1109 9.09399 10.3342 9.25864 10.4989L14.7671 15.9993L9.25864 21.4996C9.17668 21.5809 9.11164 21.6776 9.06725 21.7842C9.02285 21.8907 9 22.005 9 22.1205C9 22.2359 9.02285 22.3502 9.06725 22.4568C9.11164 22.5633 9.17668 22.66 9.25864 22.7413C9.33992 22.8233 9.43663 22.8884 9.54318 22.9327C9.64972 22.9771 9.76401 23 9.87944 23C9.99486 23 10.1091 22.9771 10.2157 22.9327C10.3222 22.8884 10.419 22.8233 10.5002 22.7413L16 17.2322L21.4998 22.7413C21.581 22.8233 21.6778 22.8884 21.7843 22.9327C21.8909 22.9771 22.0051 23 22.1206 23C22.236 23 22.3503 22.9771 22.4568 22.9327C22.5634 22.8884 22.6601 22.8233 22.7414 22.7413C22.8233 22.66 22.8884 22.5633 22.9328 22.4568C22.9771 22.3502 23 22.2359 23 22.1205C23 22.005 22.9771 21.8907 22.9328 21.7842C22.8884 21.6776 22.8233 21.5809 22.7414 21.4996L17.2329 15.9993Z" fill="white"/>
</svg>
