<svg width="20" height="20" viewBox="0 0 20 20" fill="none" xmlns="http://www.w3.org/2000/svg">
<path d="M7.77663 14.2615C7.97108 14.067 8.16554 14.0022 8.42482 14.0022L14.9067 14.0022C15.4253 14.0022 15.8142 14.3911 15.8142 14.9097C15.8142 15.4282 15.4253 15.8171 14.9067 15.8171L8.42482 15.8171C7.90626 15.8171 7.51735 15.4282 7.51735 14.9097C7.51735 14.6504 7.58217 14.4559 7.77663 14.2615Z" fill="#CACACA"/>
<path d="M14.2598 7.77833C14.4542 7.58387 14.6487 7.51905 14.908 7.51905C15.4265 7.51905 15.8154 7.90797 15.8154 8.42652L15.8154 14.9084C15.8154 15.427 15.4265 15.8159 14.908 15.8159C14.3894 15.8159 14.0005 15.427 14.0005 14.9084L14.0005 8.42652C14.0005 8.16724 14.0653 7.97279 14.2598 7.77833Z" fill="#CACACA"/>
<path d="M3.88747 3.8904C4.27639 3.50148 4.79494 3.50148 5.18386 3.8904L15.5549 14.2615C15.9438 14.6504 15.9438 15.1689 15.5549 15.5579C15.166 15.9468 14.6475 15.9468 14.2585 15.5579L3.88747 5.18678C3.49856 4.79787 3.49856 4.27932 3.88747 3.8904Z" fill="#CACACA"/>
</svg>
