<svg width="28" height="28" fill="none" xmlns="http://www.w3.org/2000/svg"><path d="M9.394 7.989l3.206-3.22v13.429a1.4 1.4 0 002.8 0V4.768l3.206 3.221a1.4 1.4 0 001.988 0 1.4 1.4 0 000-1.988l-5.6-5.602a1.399 1.399 0 00-.462-.294 1.4 1.4 0 00-1.064 0 1.399 1.399 0 00-.462.294l-5.6 5.602a1.406 1.406 0 001.988 1.988zM26.6 13.996a1.4 1.4 0 00-1.4 1.4V23.8a1.4 1.4 0 01-1.4 1.4H4.2a1.4 1.4 0 01-1.4-1.4v-8.402a1.4 1.4 0 10-2.8 0V23.8A4.201 4.201 0 004.2 28h19.6a4.2 4.2 0 004.2-4.201v-8.402a1.4 1.4 0 00-1.4-1.4z" fill="#3E3E3E"/></svg>