<svg width="322" height="322" viewBox="0 0 322 322" fill="none" xmlns="http://www.w3.org/2000/svg">
<path d="M268.333 214.667C255.962 214.664 243.969 218.936 234.385 226.76C224.801 234.584 218.214 245.478 215.74 257.6H64.4C53.0134 257.6 42.0931 253.077 34.0415 245.025C25.99 236.974 21.4667 226.053 21.4667 214.667C21.4667 203.28 25.99 192.36 34.0415 184.308C42.0931 176.257 53.0134 171.733 64.4 171.733H257.6C274.68 171.733 291.06 164.948 303.138 152.871C315.215 140.794 322 124.413 322 107.333C322 90.2535 315.215 73.8731 303.138 61.7958C291.06 49.7184 274.68 42.9334 257.6 42.9334H106.26C103.6 29.9027 96.1966 18.3238 85.4847 10.4415C74.7728 2.55926 61.5157 -1.06483 48.2836 0.271881C35.0516 1.60859 22.7872 7.81087 13.8681 17.6763C4.94915 27.5417 0.0109539 40.3673 0.0109539 53.6668C0.0109539 66.9662 4.94915 79.7919 13.8681 89.6573C22.7872 99.5227 35.0516 105.725 48.2836 107.062C61.5157 108.398 74.7728 104.774 85.4847 96.892C96.1966 89.0097 103.6 77.4308 106.26 64.4001H257.6C266.105 64.3721 274.428 66.8711 281.511 71.58C288.594 76.2889 294.118 82.9956 297.384 90.8492C300.65 98.7028 301.509 107.349 299.853 115.692C298.197 124.035 294.1 131.698 288.083 137.709C284.08 141.707 279.326 144.875 274.095 147.03C268.863 149.185 263.258 150.285 257.6 150.267H64.4C47.3201 150.267 30.9397 157.052 18.8623 169.129C6.78498 181.206 0 197.587 0 214.667C0 231.747 6.78498 248.127 18.8623 260.204C30.9397 272.282 47.3201 279.067 64.4 279.067H215.74C217.771 289.016 222.582 298.184 229.616 305.508C236.65 312.831 245.617 318.009 255.475 320.44C265.334 322.87 275.68 322.454 285.312 319.24C294.944 316.025 303.466 310.144 309.889 302.279C316.312 294.415 320.372 284.889 321.597 274.809C322.822 264.73 321.163 254.509 316.811 245.335C312.46 236.16 305.595 228.409 297.014 222.98C288.433 217.551 278.487 214.669 268.333 214.667ZM53.6667 85.8668C47.2981 85.8668 41.0726 83.9783 35.7773 80.4401C30.482 76.9019 26.3549 71.8729 23.9177 65.9892C21.4806 60.1054 20.8429 53.631 22.0854 47.3849C23.3278 41.1387 26.3946 35.4012 30.8978 30.8979C35.4011 26.3947 41.1386 23.3279 47.3848 22.0855C53.6309 20.843 60.1053 21.4807 65.9891 23.9179C71.8729 26.355 76.9018 30.4821 80.44 35.7774C83.9782 41.0727 85.8667 47.2982 85.8667 53.6668C85.8667 62.2067 82.4742 70.3969 76.4355 76.4356C70.3968 82.4743 62.2066 85.8668 53.6667 85.8668ZM268.333 300.533C261.965 300.533 255.739 298.645 250.444 295.107C245.149 291.568 241.022 286.54 238.584 280.656C236.147 274.772 235.51 268.298 236.752 262.051C237.994 255.805 241.061 250.068 245.564 245.565C250.068 241.061 255.805 237.995 262.051 236.752C268.298 235.51 274.772 236.147 280.656 238.584C286.54 241.022 291.568 245.149 295.107 250.444C298.645 255.739 300.533 261.965 300.533 268.333C300.533 276.873 297.141 285.064 291.102 291.102C285.064 297.141 276.873 300.533 268.333 300.533Z" fill="url(#paint0_linear_1064_2004)"/>
<defs>
<linearGradient id="paint0_linear_1064_2004" x1="161" y1="0" x2="161" y2="322" gradientUnits="userSpaceOnUse">
<stop stop-color="#024EC9"/>
<stop offset="1" stop-color="#438BFF"/>
</linearGradient>
</defs>
</svg>
