<svg width="155" height="155" viewBox="0 0 633 633" fill="none" xmlns="http://www.w3.org/2000/svg"><circle cx="316.5" cy="316.5" r="316.5" fill="url(#paint0_linear_1064_2027)"/><path d="M339.785 292.443h85.818a22.842 22.842 0 0121.124 14.143 22.848 22.848 0 011.723 8.76v85.818a22.844 22.844 0 01-6.712 16.176 22.863 22.863 0 01-7.431 4.949 22.856 22.856 0 01-8.761 1.722h-85.818a22.838 22.838 0 01-16.175-6.711 22.84 22.84 0 01-6.672-16.192V315.29a22.838 22.838 0 016.732-16.139 22.844 22.844 0 017.424-4.934c2.775-1.141 5.747-1.782 8.748-1.774zm85.818 6.081h-85.818a16.755 16.755 0 00-11.949 4.89 16.778 16.778 0 00-4.931 11.932v85.818a16.78 16.78 0 004.931 11.933 16.758 16.758 0 0011.949 4.89h85.818a16.758 16.758 0 0011.895-4.951 16.759 16.759 0 004.871-11.928V315.29a16.772 16.772 0 00-4.931-11.876 16.77 16.77 0 00-5.459-3.63 16.457 16.457 0 00-6.376-1.26z" fill="#fff"/><path d="M355.527 315.46h54.276a15.57 15.57 0 0115.629 15.629v54.276a15.563 15.563 0 01-4.561 11.068 15.57 15.57 0 01-11.068 4.561h-54.219a15.581 15.581 0 01-14.454-9.639 15.582 15.582 0 01-1.175-5.99v-54.219a15.579 15.579 0 019.639-14.455 15.581 15.581 0 015.99-1.174l-.057-.057zm54.276 6.081h-54.219a9.488 9.488 0 00-8.836 5.885 9.506 9.506 0 00-.712 3.663v54.276a9.506 9.506 0 002.78 6.768 9.495 9.495 0 006.768 2.78h54.276a9.488 9.488 0 008.836-5.885 9.488 9.488 0 00.712-3.663v-54.219a9.488 9.488 0 00-2.78-6.768 9.513 9.513 0 00-3.105-2.069 9.505 9.505 0 00-3.663-.711l-.057-.057zm-58.993-26.086a3.042 3.042 0 005.191 2.15c.57-.57.89-1.344.89-2.15v-29.553a3.04 3.04 0 10-6.081 0v29.553zm28.815 0a3.041 3.041 0 106.081 0v-29.553a3.04 3.04 0 00-6.081 0v29.553zm28.814 0a3.012 3.012 0 106.024 0v-29.553a3.012 3.012 0 10-6.024 0v29.553zm36.942 30.917c-.807 0-1.58.32-2.15.891a3.036 3.036 0 000 4.3c.57.57 1.343.89 2.15.89h29.61a3.041 3.041 0 100-6.081h-29.61zm0 28.814a3.04 3.04 0 000 6.082h29.61a3.042 3.042 0 000-6.082h-29.61zm0 28.815a3.04 3.04 0 100 6.081h29.61a3.038 3.038 0 003.04-3.041 3.041 3.041 0 00-3.04-3.04h-29.61zm-30.918 36.941a3.013 3.013 0 00-5.142-2.13 3.013 3.013 0 00-.882 2.13v29.667a3.012 3.012 0 106.024 0v-29.667zm-28.757 0a3.044 3.044 0 00-3.041-3.04 3.041 3.041 0 00-3.04 3.04v29.667a3.04 3.04 0 106.081 0v-29.667zm-28.815 0a3.041 3.041 0 00-6.081 0v29.667a3.04 3.04 0 006.081 0v-29.667zm-36.941-30.86a3.038 3.038 0 003.04-3.041 3.041 3.041 0 00-3.04-3.04h-29.724a3.041 3.041 0 100 6.081h29.724zm0-28.814a3.042 3.042 0 000-6.082h-29.724a3.042 3.042 0 000 6.082h29.724zm0-28.815a3.012 3.012 0 100-6.024h-29.724a3.012 3.012 0 100 6.024h29.724z" fill="#fff"/><path d="M397.073 377.408h-8.525l-3.353-8.695H369.85l-3.183 8.695h-8.184l14.948-38.362h8.184l15.345 38.362h.113zm-14.322-15.174l-5.285-14.208-5.172 14.208h10.457zm18.187 15.174v-38.305h7.729v38.362l-7.729-.057zm-82.295-193.005v-6.024c33.532 0 63.881 13.526 85.932 35.407 22.051 21.937 35.805 52.286 35.976 85.761a3.013 3.013 0 01-6.025 0 115.483 115.483 0 00-34.213-81.442 115.486 115.486 0 00-81.67-33.702zm11.253 237.221a3.015 3.015 0 002.417-3.24 3.01 3.01 0 00-2.985-2.727c-3.553.315-7.118.466-10.685.455a115.487 115.487 0 01-81.839-33.93 115.494 115.494 0 01-33.987-81.896c0-31.997 12.958-60.982 33.93-81.954a115.47 115.47 0 0137.563-25.135 115.466 115.466 0 0144.333-8.794 3.012 3.012 0 100-6.024c-33.645 0-64.107 13.639-86.159 35.691a121.502 121.502 0 00-35.691 86.216c0 33.645 13.64 64.107 35.691 86.159a121.526 121.526 0 0044.763 28.519c16.841 6.091 34.819 8.328 52.649 6.66z" fill="#fff"/><path d="M418.954 236.405a3.027 3.027 0 10-3.24-5.115c-10.627 6.82-25.006 12.504-41.943 16.368a246.989 246.989 0 01-55.071 5.968c-19.892 0-38.646-2.16-55.071-5.968a134.676 134.676 0 01-41.886-16.368 3.03 3.03 0 00-4.178.938 3.029 3.029 0 00.938 4.177c11.14 7.161 26.2 13.072 43.762 17.164 16.879 3.921 36.089 6.081 56.435 6.081 20.403 0 39.613-2.16 56.435-6.081 17.619-4.092 32.679-10.003 43.819-17.164zM218.503 364.109a3.03 3.03 0 00.957 5.512 3.03 3.03 0 002.283-.397c10.628-6.82 25.006-12.503 41.886-16.368 16.425-3.807 35.179-5.91 55.128-5.91h1.137a3.044 3.044 0 003.04-3.041 3.041 3.041 0 00-3.04-3.04h-1.137c-20.403 0-39.613 2.216-56.435 6.081-17.619 4.092-32.679 10.002-43.819 17.163z" fill="#fff"/><path d="M318.701 178.378c-15.573 0-29.44 14.038-39.272 36.658-9.491 21.881-15.345 52.002-15.345 85.25 0 33.19 5.854 63.369 15.345 85.249 9.832 22.62 23.699 36.658 39.272 36.658a26.035 26.035 0 0010.23-2.103 3.013 3.013 0 00-2.274-5.57 21.988 21.988 0 01-7.956 1.592c-12.901 0-24.893-12.617-33.702-32.964-9.207-21.142-14.891-50.467-14.891-82.862 0-32.395 5.684-61.721 14.891-82.863 8.809-20.403 20.801-32.963 33.702-32.963v-6.082zm.113 0c15.118 0 28.644 13.299 38.42 34.896 9.491 20.971 15.572 49.956 16.083 82.124a3.015 3.015 0 01-2.955 3.069 3.015 3.015 0 01-3.069-2.955c-.568-31.372-6.422-59.505-15.572-79.737-8.753-19.437-20.46-31.372-32.964-31.372a3.014 3.014 0 003.013-3.012c0-.799-.318-1.565-.883-2.13-.564-.565-1.387-.883-2.186-.883h.113z" fill="#fff"/><path d="M199.861 297.217a3.041 3.041 0 000 6.081h126.966a3.044 3.044 0 003.04-3.041 3.041 3.041 0 00-3.04-3.04H199.861zm-6.365 92.467a3.007 3.007 0 000 4.263 3.014 3.014 0 004.263 0l23.358-23.359a3.012 3.012 0 00.909-2.159v-3.467a3.04 3.04 0 10-6.081 0v2.273l-22.449 22.449z" fill="#fff"/><path d="M190.597 386.672a10.059 10.059 0 017.161 17.22 10.054 10.054 0 01-11.024 2.224 10.056 10.056 0 01-6.196-9.385 10.06 10.06 0 0110.059-10.059zm2.842 7.218a3.98 3.98 0 00-4.372-.889 3.973 3.973 0 00-2.448 3.73 3.973 3.973 0 004.77 3.957 3.98 3.98 0 002.05-1.115 3.97 3.97 0 001.194-2.842 3.98 3.98 0 00-1.194-2.841zm16.595 14.549a3.033 3.033 0 002.18 5.165 3.035 3.035 0 002.139-.902l23.359-23.359a3.012 3.012 0 00.909-2.16v-2.045c0-.807-.32-1.58-.89-2.151a3.044 3.044 0 00-4.301 0 3.044 3.044 0 00-.89 2.151v.738l-22.506 22.563zm23.245-23.301l.17-.114.114.17h4.319l-.17-.17a3.021 3.021 0 00-2.132-.884 3.007 3.007 0 00-2.131.884l.114.17-.284-.056z" fill="#fff"/><path d="M207.25 405.484a10.06 10.06 0 017.104 17.22 10.061 10.061 0 01-11.024 2.224 10.056 10.056 0 01-6.197-9.385 10.059 10.059 0 0110.06-10.059h.057zm2.841 7.218a3.973 3.973 0 00-4.468-1.023 3.98 3.98 0 00-2.465 3.864 3.978 3.978 0 006.876 2.842 3.977 3.977 0 00.884-4.383c-.205-.488-.449-.93-.827-1.3zm20.062 8.922a3.038 3.038 0 00.029 4.291 3.032 3.032 0 004.291-.028l22.96-22.961a3.034 3.034 0 10-4.319-4.262l-22.961 22.96z" fill="#fff"/><path d="M227.312 418.669a10.061 10.061 0 019.957 12.048 10.06 10.06 0 01-2.796 5.172 10.054 10.054 0 01-11.024 2.224 10.056 10.056 0 01-6.197-9.385 10.06 10.06 0 0110.06-10.059zm2.842 7.218a3.98 3.98 0 00-6.169.601 3.976 3.976 0 00-.651 2.24 3.977 3.977 0 006.82 2.842 3.97 3.97 0 001.194-2.842 3.98 3.98 0 00-1.194-2.841zm215.284-193.46a3.014 3.014 0 00-4.263-4.263l-17.789 17.732a3.014 3.014 0 004.263 4.263l17.789-17.732z" fill="#fff"/><path d="M448.279 235.382a10.063 10.063 0 01-9.338-6.223 10.052 10.052 0 012.234-10.997 10.058 10.058 0 0117.22 7.104 10.062 10.062 0 01-6.236 9.362c-1.23.505-2.549.762-3.88.754zm-2.842-7.218a3.974 3.974 0 004.373.889 3.983 3.983 0 002.447-3.73 3.979 3.979 0 00-6.82-2.842 3.985 3.985 0 00-.883 4.383c.205.488.505.93.883 1.3zm-16.595-14.549a3.015 3.015 0 00-4.262-4.262l-14.891 14.89a3.014 3.014 0 004.263 4.262l14.89-14.89z" fill="#fff"/><path d="M431.742 216.57a10.057 10.057 0 01-9.958-12.048 10.061 10.061 0 012.797-5.172 10.06 10.06 0 0117.22 7.161 10.061 10.061 0 01-6.249 9.31 9.775 9.775 0 01-3.81.749zm-2.842-7.217a3.98 3.98 0 006.82-2.842 3.972 3.972 0 00-2.448-3.73 3.98 3.98 0 00-4.372.888 3.985 3.985 0 00-.883 4.383c.205.488.505.93.883 1.301zm-20.176-8.923a3.01 3.01 0 000-4.263 3.014 3.014 0 00-4.262 0l-11.196 11.14a3.048 3.048 0 000 4.319c.283.284.62.509.991.662a3.04 3.04 0 002.337 0 3.04 3.04 0 00.991-.662l11.139-11.196z" fill="#fff"/><path d="M411.566 203.385a10.06 10.06 0 01-7.105-17.22 10.062 10.062 0 0110.998-2.235 10.06 10.06 0 016.223 9.339 10.066 10.066 0 01-2.946 7.17 10.044 10.044 0 01-3.29 2.191c-1.231.506-2.55.763-3.88.755zm-2.842-7.218a3.977 3.977 0 006.877-2.841 3.985 3.985 0 00-2.448-3.731 3.98 3.98 0 00-4.372.889 3.984 3.984 0 00-1.194 2.842c0 .529.105 1.053.31 1.541.205.488.449.93.827 1.3zm-203.408 71.326a3.012 3.012 0 100-6.024h-13.413a3.012 3.012 0 00-3.012 3.012v15.572h-13.526a3.04 3.04 0 000 6.081h16.538a2.995 2.995 0 003.012-3.012v-15.629h10.401z" fill="#fff"/><path d="M164.17 283.122a4.088 4.088 0 002.55 3.744 4.096 4.096 0 004.44-.902 4.094 4.094 0 00-2.842-6.934 4.105 4.105 0 00-2.93 1.178 4.095 4.095 0 00-1.218 2.914zm-3.069 7.161a10.112 10.112 0 01-2.262-11.081 10.112 10.112 0 019.423-6.253 10.116 10.116 0 017.161 17.334 10.12 10.12 0 01-11.038 2.199 10.105 10.105 0 01-3.284-2.199zm40.068 30.633a3.066 3.066 0 003.069-3.069 3.068 3.068 0 00-3.069-3.069H187.7a3.013 3.013 0 00-3.012 3.069v15.573h-13.47a3.041 3.041 0 000 6.081H187.7a3.056 3.056 0 003.069-3.069v-15.516h10.4z" fill="#fff"/><path d="M160.021 336.432a4.091 4.091 0 006.934 2.898 4.091 4.091 0 00-2.842-6.933 4.088 4.088 0 00-4.092 4.035zm-3.125 7.218a10.116 10.116 0 017.161-17.335 10.123 10.123 0 019.469 6.227c.776 1.865.977 3.919.576 5.899a10.124 10.124 0 01-2.828 5.209 10.113 10.113 0 01-14.378 0z" fill="#fff"/><defs><linearGradient id="paint0_linear_1064_2027" x1="-68.487" y1="381.809" x2="701.487" y2="388.191" gradientUnits="userSpaceOnUse"><stop stop-color="#024EC9"/><stop offset="1" stop-color="#3884FF"/></linearGradient></defs></svg>