<svg width="22" height="28" fill="none" xmlns="http://www.w3.org/2000/svg"><path d="M11.025 2.638a7.506 7.506 0 00-7.5 7.5v3.612c0 .762-.325 1.925-.712 2.575l-1.438 2.387c-.887 1.476-.275 3.113 1.35 3.663 5.388 1.8 11.2 1.8 16.588 0 1.512-.5 2.175-2.288 1.35-3.663l-1.438-2.387c-.375-.65-.7-1.813-.7-2.575v-3.613c0-4.124-3.375-7.5-7.5-7.5z" stroke="#024EC9" stroke-width="1.5" stroke-miterlimit="10" stroke-linecap="round"/><path d="M13.337 3a8.442 8.442 0 00-4.625 0 2.482 2.482 0 012.313-1.575c1.05 0 1.95.65 2.312 1.575z" stroke="#024EC9" stroke-width="1.5" stroke-miterlimit="10" stroke-linecap="round" stroke-linejoin="round"/><path d="M14.775 22.825a3.761 3.761 0 01-3.75 3.75 3.763 3.763 0 01-2.65-1.1 3.763 3.763 0 01-1.1-2.65" stroke="#024EC9" stroke-width="1.5" stroke-miterlimit="10"/></svg>