<svg width="633" height="633" fill="none" xmlns="http://www.w3.org/2000/svg"><circle cx="316.5" cy="316.5" r="316.5" fill="url(#paint0_linear_1061_1981)"/><path fill-rule="evenodd" clip-rule="evenodd" d="M356.169 155.022a5.45 5.45 0 00-1.421.186l-31.499 8.66c-.095.016-.19.034-.284.055l-63.118 17.32a5.464 5.464 0 00-3.312 2.579 5.498 5.498 0 00-.514 4.173l24.534 89.855-4.592 1.261h.754a5.446 5.446 0 00-2.423.565 5.474 5.474 0 00-2.946 3.858 5.503 5.503 0 00.088 2.494l28.044 102.811c-.579-.043-1.104-.219-1.694-.23a42.483 42.483 0 00-14.192 2.083c-17.001-61.65-44.749-160.68-60.176-220.565a5.488 5.488 0 00-2.065-3.06 5.457 5.457 0 00-3.533-1.05l-33.499 1.907a5.453 5.453 0 00-3.876 1.767 5.48 5.48 0 00-1.436 4.019 5.494 5.494 0 001.875 3.833 5.465 5.465 0 004.049 1.321l29.082-1.644c7.741 29.882 18.368 68.895 29.028 107.69l-13.929 24.171a5.488 5.488 0 00-.514 4.165l12.409 45.492c.037.821.258 1.622.645 2.346l13.667 50.118.875 3.19a45.273 45.273 0 00-4.374 16.881c-1.498 24.259 16.63 44.856 40.541 45.7 23.911.844 44.531-18.372 46.029-42.642.12-2.561.017-5.129-.307-7.673l106.107-29.115 5.795-1.589a5.465 5.465 0 003.108-2.264 5.494 5.494 0 00-.965-7.148 5.46 5.46 0 00-3.597-1.353 5.457 5.457 0 00-1.454.219l-5.773 1.579-105.757 29.027a42.858 42.858 0 00-9.075-14.382l98.716-27.065h-.754a5.463 5.463 0 004.34-2.146 5.488 5.488 0 00.941-4.76l-31.75-116.35a5.487 5.487 0 00-.678-1.534 5.465 5.465 0 00-4.614-2.489c-.48 0-.958.062-1.421.187l-5.259 1.436-24.534-89.855a5.497 5.497 0 00-1.544-2.575 5.46 5.46 0 00-2.666-1.371 5.426 5.426 0 00-1.093-.11l.011.022zm-3.794 12.222l23.069 84.572-84.382 23.14-23.08-84.571 21.112-5.777 12.988 47.641a5.48 5.48 0 001.909 2.925 5.454 5.454 0 006.609.117 5.471 5.471 0 002.011-2.856l7.325-18.471 14.52 11.214a5.476 5.476 0 003.49 2.362 5.45 5.45 0 004.13-.827 5.477 5.477 0 002.537-3.533 5.489 5.489 0 00-.831-4.272l-12.508-45.887 21.101-5.777zm-31.63 8.671l8.561 31.461-8.419-6.511a5.453 5.453 0 00-3.575-1.14 5.453 5.453 0 00-2.922 1.007 5.475 5.475 0 00-1.91 2.435l-4.144 10.413-8.692-31.888 21.101-5.777zm68.136 83.585l28.864 105.749L315.41 393.29c-1.236-.636-2.526-1.107-3.827-1.622l-28.164-103.24 4.92-1.348.033-.022.328-.066 26.371-7.234 15.558 57.056a5.49 5.49 0 001.258 3.363 5.452 5.452 0 006.621 1.417 5.466 5.466 0 002.518-2.554c.046-.083.09-.167.132-.253.03-.072.06-.145.087-.219l.022-.022.044-.153 7.762-18.734 15.318 12.398a5.458 5.458 0 008.546-2.229 5.492 5.492 0 00.211-3.373v-.044a12.392 12.392 0 00-.065-.175l-.044-.132a4.554 4.554 0 00-.066-.219l-15.744-57.692 26.36-7.235.088-.022 5.204-1.425v-.011zm-42.169 11.587l11.381 41.765-7.817-6.315a5.458 5.458 0 00-3.542-1.216 5.459 5.459 0 00-4.953 3.376l-4.505 10.907-11.665-42.74 21.101-5.777zm-99.602 28.665l12.202 44.122-9.403 5.952-10.168-37.27 7.369-12.804zm15.252 55.171c3.684 13.297 8.025 29.038 11.108 40.231-3.389 2.082-6.385 4.713-9.118 7.618l-11.425-41.896 9.435-5.953zm34.768 44.615c17.875.647 31.454 15.895 30.317 34.388-1.126 18.493-16.52 32.732-34.396 32.096-17.875-.635-31.487-15.894-30.35-34.387 1.137-18.482 16.553-32.722 34.429-32.086v-.011zm-.984 11.335a21.92 21.92 0 00-15.731 5.696 22.039 22.039 0 00-7.164 15.153 22.049 22.049 0 005.686 15.776 21.93 21.93 0 0015.12 7.179 21.924 21.924 0 0015.724-5.701 22.038 22.038 0 007.16-15.149 22.052 22.052 0 00-5.682-15.772 21.933 21.933 0 00-15.113-7.182zm-.514 10.962a10.823 10.823 0 017.597 3.554 10.898 10.898 0 012.8 7.923 10.897 10.897 0 01-3.562 7.611 10.846 10.846 0 01-7.907 2.803 10.862 10.862 0 01-7.587-3.568 10.915 10.915 0 01-2.799-7.92 10.9 10.9 0 013.555-7.611 10.854 10.854 0 013.671-2.197 10.828 10.828 0 014.232-.595z" fill="#fff"/><defs><linearGradient id="paint0_linear_1061_1981" x1="-68.487" y1="381.809" x2="701.487" y2="388.191" gradientUnits="userSpaceOnUse"><stop stop-color="#024EC9"/><stop offset="1" stop-color="#3884FF"/></linearGradient></defs></svg>