<svg width="68" height="79" viewBox="0 0 68 79" fill="none" xmlns="http://www.w3.org/2000/svg">
<path d="M56.2311 73.1955H61.4619C63.1789 73.1667 63.1815 70.6088 61.4619 70.5801H56.2311C54.5141 70.6075 54.5115 73.1667 56.2311 73.1955Z" fill="#707070"/>
<path d="M62.7692 28.7336H47.0769C46.1197 28.7336 45.2331 29.0109 44.4615 29.4607V13.0413C44.4615 10.1565 42.1155 7.81055 39.2308 7.81055H15.6923C12.8075 7.81055 10.4615 10.1565 10.4615 13.0413V35.2721C10.4615 36.228 10.7388 37.1146 11.1886 37.8875H5.23077C2.346 37.8875 0 40.2335 0 43.1182V73.1952C0 76.0799 2.346 78.4259 5.23077 78.4259H39.2308C40.8 78.4259 42.194 77.7159 43.1538 76.6174C44.1137 77.7159 45.5077 78.4259 47.0769 78.4259H62.7692C65.654 78.4259 68 76.0799 68 73.1952V57.5029C68 55.9336 67.2912 54.5383 66.1928 53.5798C66.7576 53.0936 67.2113 52.4917 67.5232 51.8148C67.835 51.138 67.9976 50.4019 68 49.6567V33.9644C68 31.0796 65.654 28.7336 62.7692 28.7336ZM23.5385 10.4259H31.3846V14.349C31.3846 15.0682 30.7975 15.6567 30.0769 15.6567H24.8462C24.1256 15.6567 23.5385 15.0682 23.5385 14.349V10.4259ZM28.7692 75.8106H15.6923V70.5798C15.6923 69.8579 16.2795 69.2721 17 69.2721H27.4615C28.1821 69.2721 28.7692 69.8579 28.7692 70.5798V75.8106ZM41.8462 73.1952C41.8462 74.6362 40.6732 75.8106 39.2308 75.8106H31.3846V70.5798C31.3846 68.4156 29.6245 66.6567 27.4615 66.6567H17C14.8371 66.6567 13.0769 68.4156 13.0769 70.5798V75.8106H5.23077C3.78838 75.8106 2.61538 74.6362 2.61538 73.1952V50.9644H41.8462V73.1952ZM41.8462 48.349H2.61538V43.1182C2.61538 41.6759 3.78838 40.5029 5.23077 40.5029H39.2308C40.6732 40.5029 41.8462 41.6759 41.8462 43.1182V48.349ZM23.5385 37.8875V33.9644C23.5385 33.2425 24.1256 32.6567 24.8462 32.6567H30.0769C30.7975 32.6567 31.3846 33.2425 31.3846 33.9644V37.8875H23.5385ZM41.8462 35.2721C41.8462 36.7145 40.6732 37.8875 39.2308 37.8875H34V33.9644C34 31.8002 32.2398 30.0413 30.0769 30.0413H24.8462C22.6832 30.0413 20.9231 31.8002 20.9231 33.9644V37.8875H15.6923C14.2499 37.8875 13.0769 36.7145 13.0769 35.2721V13.0413C13.0769 11.5989 14.2499 10.4259 15.6923 10.4259H20.9231V14.349C20.9231 16.5119 22.6832 18.2721 24.8462 18.2721H30.0769C32.2398 18.2721 34 16.5119 34 14.349V10.4259H39.2308C40.6732 10.4259 41.8462 11.5989 41.8462 13.0413V35.2721ZM65.3846 73.1952C65.3846 74.6362 64.2116 75.8106 62.7692 75.8106H47.0769C45.6345 75.8106 44.4615 74.6362 44.4615 73.1952V61.4259H65.3846V73.1952ZM65.3846 58.8106H44.4615V57.5029C44.4615 56.0605 45.6345 54.8875 47.0769 54.8875H62.7692C64.2116 54.8875 65.3846 56.0605 65.3846 57.5029V58.8106ZM65.3846 49.6567C65.3846 51.0978 64.2116 52.2721 62.7692 52.2721H47.0769C45.6345 52.2721 44.4615 51.0978 44.4615 49.6567V37.8875H65.3846V49.6567ZM65.3846 35.2721H44.4615V33.9644C44.4615 32.522 45.6345 31.349 47.0769 31.349H62.7692C64.2116 31.349 65.3846 32.522 65.3846 33.9644V35.2721Z" fill="#707070"/>
<path d="M56.2307 49.6557H61.4614C63.1784 49.6269 63.181 47.0691 61.4614 47.0403H56.2307C54.5137 47.0678 54.511 49.6269 56.2307 49.6557ZM27.4614 5.23077C27.8083 5.23077 28.1409 5.093 28.3861 4.84776C28.6314 4.60252 28.7691 4.2699 28.7691 3.92308V1.30769C28.7691 0.960871 28.6314 0.628254 28.3861 0.383014C28.1409 0.137774 27.8083 0 27.4614 0C27.1146 0 26.782 0.137774 26.5368 0.383014C26.2915 0.628254 26.1537 0.960871 26.1537 1.30769V3.92308C26.1537 4.2699 26.2915 4.60252 26.5368 4.84776C26.782 5.093 27.1146 5.23077 27.4614 5.23077ZM20.5895 5.08169C21.1884 6.69146 23.6234 5.79046 23.0467 4.18723L22.1509 1.72877C22.0946 1.56427 22.0061 1.41265 21.8905 1.28278C21.7749 1.15291 21.6346 1.04739 21.4777 0.972395C21.3209 0.897401 21.1506 0.854439 20.977 0.846022C20.8033 0.837604 20.6297 0.863901 20.4663 0.923373C20.303 0.982845 20.1531 1.0743 20.0255 1.19238C19.8979 1.31047 19.7951 1.45281 19.7232 1.6111C19.6512 1.76938 19.6116 1.94041 19.6065 2.1142C19.6015 2.28799 19.6311 2.46104 19.6937 2.62323L20.5895 5.08169ZM32.6595 5.86238C32.985 5.98036 33.344 5.96442 33.6578 5.81807C33.9716 5.67172 34.2145 5.4069 34.3334 5.08169L35.2278 2.62323C35.2947 2.46022 35.328 2.28537 35.3257 2.10918C35.3233 1.93298 35.2854 1.75908 35.2141 1.59792C35.1429 1.43675 35.0398 1.29165 34.9111 1.17132C34.7824 1.05099 34.6306 0.957916 34.465 0.897691C34.2994 0.837465 34.1234 0.811328 33.9474 0.82085C33.7715 0.830372 33.5993 0.875356 33.4411 0.953101C33.283 1.03085 33.1422 1.13975 33.0272 1.27327C32.9122 1.40678 32.8254 1.56216 32.772 1.73008L31.8762 4.18854C31.7583 4.51422 31.7744 4.87338 31.921 5.18719C32.0676 5.501 32.3341 5.74383 32.6595 5.86238ZM54.923 26.1172C55.2698 26.1172 55.6024 25.9795 55.8477 25.7342C56.0929 25.489 56.2307 25.1564 56.2307 24.8095V22.1942C56.2307 21.8473 56.0929 21.5147 55.8477 21.2695C55.6024 21.0242 55.2698 20.8865 54.923 20.8865C54.5762 20.8865 54.2435 21.0242 53.9983 21.2695C53.7531 21.5147 53.6153 21.8473 53.6153 22.1942V24.8095C53.6153 25.1564 53.7531 25.489 53.9983 25.7342C54.2435 25.9795 54.5762 26.1172 54.923 26.1172ZM48.051 25.9655C48.65 27.5766 51.0849 26.6756 50.5082 25.0724L49.6124 22.6139C49.5561 22.4494 49.4676 22.2978 49.352 22.1679C49.2364 22.0381 49.0961 21.9325 48.9392 21.8575C48.7824 21.7826 48.6122 21.7396 48.4385 21.7312C48.2648 21.7228 48.0912 21.7491 47.9279 21.8085C47.7645 21.868 47.6146 21.9595 47.487 22.0775C47.3594 22.1956 47.2566 22.338 47.1847 22.4962C47.1127 22.6545 47.0731 22.8256 47.068 22.9994C47.063 23.1731 47.0927 23.3462 47.1553 23.5084L48.051 25.9655ZM60.121 26.7475C60.4467 26.8654 60.8059 26.8493 61.1197 26.7027C61.4335 26.5561 61.6763 26.291 61.7949 25.9655L62.6894 23.5084C62.7554 23.3456 62.788 23.1711 62.7852 22.9954C62.7823 22.8197 62.7441 22.6464 62.6728 22.4858C62.6015 22.3252 62.4985 22.1806 62.37 22.0607C62.2416 21.9408 62.0903 21.848 61.9252 21.7879C61.7601 21.7277 61.5845 21.7015 61.4091 21.7107C61.2336 21.7199 61.0618 21.7644 60.9039 21.8415C60.746 21.9186 60.6052 22.0268 60.49 22.1595C60.3749 22.2922 60.2876 22.4467 60.2335 22.6139L59.3377 25.0724C59.2194 25.3982 59.2353 25.7577 59.382 26.0718C59.5286 26.386 59.7953 26.629 60.121 26.7475Z" fill="#707070"/>
</svg>
