<svg width="245" height="202" fill="none" xmlns="http://www.w3.org/2000/svg"><path d="M222.826 201.8H21.664C9.8 201.8 0 192 0 180.136V50.671c0-11.864 9.8-21.664 21.664-21.664H64.99c1.031 0 3.61-1.548 4.126-2.58l7.737-15.989C79.95 4.764 87.17.122 93.876.122h57.253c6.706 0 13.927 4.642 17.022 10.316l7.737 15.99c.516 1.031 2.579 2.579 4.126 2.579h43.327c11.864 0 21.664 9.8 21.664 21.663v129.466C244.489 192 234.689 201.8 222.826 201.8zM21.664 43.965c-4.127 0-7.222 3.095-7.222 7.221v129.466c0 4.127 3.095 7.221 7.222 7.221h201.162c4.126 0 7.221-3.094 7.221-7.221V51.186c0-4.126-3.095-7.22-7.221-7.22h-43.328c-6.705 0-13.926-4.643-17.021-10.317l-7.737-15.99c-.516-1.031-2.579-2.579-4.126-2.579H93.36c-1.032 0-3.61 1.548-4.127 2.58l-7.737 15.99c-3.094 5.673-10.316 10.315-17.021 10.315H21.664z" fill="#024EC9"/><path d="M122.245 172.915c-35.59 0-64.475-28.885-64.475-64.475 0-35.59 28.884-64.475 64.475-64.475 35.59 0 64.475 28.885 64.475 64.475 0 35.59-28.885 64.475-64.475 64.475zm0-115.023c-27.854 0-50.549 22.695-50.549 50.548s22.695 50.548 50.549 50.548c27.853 0 50.548-22.695 50.548-50.548s-22.695-50.548-50.548-50.548zm78.917 0c0 4.126-3.095 7.22-7.221 7.22-4.127 0-7.221-3.094-7.221-7.22 0-4.127 3.094-7.222 7.221-7.222 4.126 0 7.221 3.61 7.221 7.221zM28.885 15.08H57.77v7.221H28.885v-7.22z" fill="#024EC9"/><path d="M122.245 79.555v-7.221c-19.601 0-36.106 15.99-36.106 36.106h7.22c0-15.99 12.896-28.885 28.886-28.885z" fill="#024EC9"/></svg>