<svg width="390" height="234" fill="none" xmlns="http://www.w3.org/2000/svg"><g clip-path="url(#clip0_1811_1949)"><rect y="233.907" width="233.907" height="389.845" rx="17.326" transform="rotate(-90 0 233.907)" fill="#00AEB9"/><path d="M4.108 108.86c40.197 1.048 78.418 4.431 117.455.406 49.184-4.773 98.609-4.87 147.794-3.84 20.684.271 41.392-4.816 62.318-5.674 3.287-.17 6.298.121 10.492.128-1.494 5.881-6.573 6.143-11.353 6.39-45.944 3.712-92.059 4.086-137.957 2.885-27.005-.837-53.78 2.778-80.625 5.057-31.314 2.734-61.94 1.414-92.61-.796-11.435-.972-23.087-.37-34.613 2.68a271.99 271.99 0 00-3.7-13.648c35.21-2.712 68.845-12.708 105.239-9.9 28.878 2.302 57.595-4.315 85.462-9.996 42.404-8.44 84.911-9.074 127.189-2.552 12.078 1.832 24.96 1.836 37.417-.593-.816 7.408-1.689 7.9-12.181 7.772-18.605-.602-36.98-2.554-54.815-5.651-27.798-4.591-55.482-1.152-83.13 2.955a608.017 608.017 0 00-56.354 10.947c-23.075 5.656-46.277 3.06-69.11 1.784-15.917-.74-30.982 3.386-46.771 5.095l.115 2.226c11.054-.571 22.086-1.588 33.164-1.713 51.839.224 103.447-4.005 154.24-12.432 21.087-3.545 41.68.749 62.399 1.688a571.498 571.498 0 0067.663-.817c4.481-.231 8.63-1.115 11.526 2.753-3.723 3.318-8.849 2.69-13.606 3.382-25.017 2.854-49.678 1.003-74.374-1.516-24.098-2.55-47.943-.202-72.052 2.829-25.603 3.108-51.919 4.021-77.844 6.7-32.797 3.033-66.283-1.487-101.378 3.451zm-15.096-37.809c12.515-5.8 27.1-6.157 40.372-8.825 15.344-2.973 31.394-3.802 47.198-3.627 20.283.34 39.06-5.388 57.929-9.336 48.654-10.046 97.697-12.58 147.342-9.197 10.772.831 21.012-2.87 32.982-1.902-5.638 6.238-13.612 7.642-22.272 7.296-31.977-1.718-64.446-1.429-96.608-.957-15.189.19-29.917 3.528-44.656 6.668-26.823 5.747-53.02 12.056-82.22 12.176-24.434.073-49.31 3.142-73.17 8.537-2.04.899-4.07 1.995-6.897-.833z" fill="#0D1218"/><path d="M336.453 73.088c-13.247 4.226-23.5 2.672-32.869.865-64.666-12.28-128.057-5.674-190.922 11.112-7.972 2.078-15.655 3.933-24.15 1.664-22.139-5.73-42.76.543-63.743 5.584-3.25.793-6.523 1.17-9.453 2.363-12.031 4.578-23.021.356-34.511-1.967.702-3.785 4.89-3.793 7.939-2.701 16.469 6.023 31.697-.388 46.766-4.082 17.744-4.04 34.326-7.397 52.489-3.336 11.202 2.545 21.752-1.749 31.78-4.558 21.548-5.695 43.161-10.144 65.83-11.523 34.307-1.98 68.603-4.169 102.88-.94 15.039 1.514 30.078 3.028 47.964 7.52z" fill="#0D1218"/><path d="M322.194 51.678c1.724 4.39-2.179 4.165-5.11 5.383-17.574 7.52-35.154 3.309-52.039.981-44.926-6.21-88.771-3.092-131.845 9.157-20.647 5.972-41.812 7.706-63.728 6.491-7.807-.45-15.293-.49-22.338 2.22-17.031 6.426-35.885 6.547-54.34 8.567-1.781.305-3.904-.225-6.613-.512 4.247-4.699 10.528-4.81 15.914-4.875 13.468-.055 26.528-2.223 38.914-5.849 11.214-3.139 21.962-3.694 33.362-3.216 13.502.582 26.584-1.16 39.29-4.376 33.099-8.322 66.971-13.27 101.561-15.91 21.773-1.552 43.002 3.75 64.929 5.177 13.822.992 27.888.906 42.043-3.238zm16.073 56.519c-.363 4.548-3.652 4.503-7.526 4.703-37.584 1.294-75 5.815-112.439 9.906-44.856 5.122-90.319 10.059-135.246 2.241-28.038-4.807-56.327-2.915-84.759 2.005-3.852.631-7.957 2.137-11.148-1.797 21.014-3.889 41.73-7.764 63.288-6.936 20.354.674 39.936 3.761 59.761 5.757 30.642 3.163 60.862-1.849 91.215-4.28 45.541-3.431 90.274-10.919 136.854-11.599z" fill="#0D1218"/><path fill="#0D1218" d="M260.152 233.936v-234h130v234zm-174.3-78.253c-.343-.099-.69-.506-.762-.894-.046-.253.013-.429.38-1.13 1.48-2.834 2.13-5.442 2.142-8.608.012-3.059-.543-5.44-1.94-8.293-.298-.612-.543-1.181-.543-1.263.001-.304.258-.744.535-.916.38-.237 1.014-.193 1.317.091.116.109.418.606.67 1.102a20.84 20.84 0 012.01 6.373c.206 1.391.238 4.026.064 5.299-.319 2.349-.95 4.444-1.954 6.497-.608 1.24-.987 1.751-1.304 1.751a.942.942 0 00-.229.035c-.063.019-.238-.001-.386-.044zm-4.087-2.133c-.525-.153-.903-.796-.75-1.279.038-.116.288-.654.557-1.194 1.135-2.289 1.613-4.742 1.393-7.151-.18-1.979-.532-3.227-1.423-5.053-.596-1.226-.624-1.415-.272-1.909.336-.469 1.166-.545 1.6-.146.303.276 1.234 2.232 1.593 3.34 1.188 3.666.989 7.602-.565 11.203-.795 1.845-1.351 2.416-2.133 2.189zm-4.214-2.164a1.26 1.26 0 01-.678-.834c-.046-.21.036-.443.424-1.222 1.43-2.86 1.456-5.616.08-8.41-.605-1.227-.617-1.471-.1-1.955.256-.239.363-.281.721-.281.599 0 .907.299 1.438 1.394.817 1.684 1.147 3.144 1.137 5.016-.01 1.923-.33 3.244-1.215 5.019-.508 1.017-.758 1.285-1.263 1.354a1.173 1.173 0 01-.544-.081zm-3.932-2.015c-.257-.106-.55-.456-.636-.759-.096-.34-.015-.609.374-1.243.5-.815.618-1.253.622-2.318.005-1.065-.11-1.503-.604-2.318-.168-.276-.336-.608-.374-.736-.158-.537.293-1.196.898-1.308.513-.096.863.131 1.33.863 1.355 2.118 1.344 4.948-.027 7.048-.484.741-1.021 1.003-1.583.771z"/><g clip-path="url(#clip1_1811_1949)"><rect x="23.824" y="158.559" width="26.446" height="36.363" rx="3.636" transform="rotate(-90 23.824 158.559)" fill="url(#paint0_linear_1811_1949)"/><path fill-rule="evenodd" clip-rule="evenodd" d="M47.937 131.562l-5.78 5.396-5.781-5.419-.473.442 5.92 5.549v2.996l-5.35-.01-.668-.001-14.708-.029v.625l14.708.029v8.755l-14.708-.029v.626l14.708.028.669.002 5.348.01v2.998l-5.919 5.525.473.443 5.78-5.396 5.781 5.418.473-.441-5.92-5.548v-2.998l5.35.011.668.001 14.708.029v-.625l-14.708-.029v-8.755l14.708.029v-.626l-15.043-.029c-.184-.001-.334.139-.334.312v9.068l-5.683-.012-5.682-.011v-8.755l5.682.011c.185.001.335-.139.335-.312v-3.309l5.919-5.525-.473-.444z" fill="#47453F"/></g><rect x="23.824" y="158.559" width="26.446" height="36.363" rx="3.636" transform="rotate(-90 23.824 158.559)" stroke="#47453F" stroke-width=".545"/></g><defs><clipPath id="clip0_1811_1949"><rect y="233.907" width="233.907" height="389.845" rx="17.326" transform="rotate(-90 0 233.907)" fill="#fff"/></clipPath><clipPath id="clip1_1811_1949"><rect x="23.824" y="158.559" width="26.446" height="36.363" rx="3.636" transform="rotate(-90 23.824 158.559)" fill="#fff"/></clipPath><linearGradient id="paint0_linear_1811_1949" x1="24.037" y1="158.559" x2="67.82" y2="196.777" gradientUnits="userSpaceOnUse"><stop stop-color="#F8ECC1"/><stop offset="1" stop-color="#C8AC48"/></linearGradient></defs></svg>