<svg width="332" height="196" viewBox="0 0 332 196" fill="none" xmlns="http://www.w3.org/2000/svg">
<g clip-path="url(#clip0_188_528)">
<rect width="332" height="196" rx="25" fill="url(#paint0_linear_188_528)"/>
<ellipse cx="33" cy="193.5" rx="175" ry="110.5" fill="#001F50"/>
<ellipse cx="332" cy="-13.5" rx="175" ry="110.5" fill="#001F50"/>
<path d="M28.076 154.288C27.476 154.288 26.882 154.168 26.294 153.928C25.718 153.676 25.208 153.304 24.764 152.812C24.32 152.308 24.008 151.69 23.828 150.958L25.61 150.256C25.766 150.904 26.054 151.426 26.474 151.822C26.906 152.218 27.434 152.416 28.058 152.416C28.73 152.416 29.288 152.206 29.732 151.786C30.176 151.354 30.398 150.802 30.398 150.13C30.398 149.458 30.176 148.906 29.732 148.474C29.3 148.03 28.742 147.808 28.058 147.808C27.674 147.808 27.314 147.892 26.978 148.06C26.642 148.228 26.366 148.462 26.15 148.762L24.188 147.898L24.944 141.688H31.64V143.488H26.6L26.15 146.728L26.258 146.746C26.882 146.254 27.608 146.008 28.436 146.008C29.132 146.008 29.78 146.182 30.38 146.53C30.992 146.878 31.478 147.364 31.838 147.988C32.198 148.612 32.378 149.32 32.378 150.112C32.378 150.904 32.192 151.618 31.82 152.254C31.448 152.89 30.932 153.388 30.272 153.748C29.624 154.108 28.892 154.288 28.076 154.288ZM38.3031 154.288C37.3791 154.288 36.5211 154.024 35.7291 153.496C34.9371 152.956 34.3911 152.17 34.0911 151.138L35.9271 150.382C36.0951 151.018 36.3831 151.51 36.7911 151.858C37.2111 152.206 37.7151 152.38 38.3031 152.38C38.9031 152.38 39.4191 152.2 39.8511 151.84C40.2831 151.468 40.4991 151 40.4991 150.436C40.4991 149.86 40.2711 149.392 39.8151 149.032C39.3591 148.66 38.7891 148.474 38.1051 148.474H37.0431V146.656H37.9971C38.5851 146.656 39.0771 146.5 39.4731 146.188C39.8811 145.864 40.0851 145.426 40.0851 144.874C40.0851 144.382 39.9051 143.992 39.5451 143.704C39.1851 143.404 38.7291 143.254 38.1771 143.254C37.6371 143.254 37.2051 143.398 36.8811 143.686C36.5691 143.974 36.3411 144.328 36.1971 144.748L34.3791 143.992C34.6191 143.308 35.0631 142.708 35.7111 142.192C36.3591 141.664 37.1871 141.4 38.1951 141.4C38.9391 141.4 39.6051 141.544 40.1931 141.832C40.7931 142.12 41.2611 142.522 41.5971 143.038C41.9331 143.542 42.1011 144.112 42.1011 144.748C42.1011 145.396 41.9451 145.948 41.6331 146.404C41.3211 146.848 40.9371 147.19 40.4811 147.43V147.538C41.0811 147.79 41.5731 148.174 41.9571 148.69C42.3411 149.206 42.5331 149.824 42.5331 150.544C42.5331 151.264 42.3471 151.906 41.9751 152.47C41.6151 153.034 41.1111 153.478 40.4631 153.802C39.8271 154.126 39.1071 154.288 38.3031 154.288ZM44.7059 153.37L50.1599 143.614L50.1239 143.56H44.1659V141.688H52.3199V143.668L46.4159 154.288L44.7059 153.37ZM58.0467 154.288C57.4467 154.288 56.8527 154.168 56.2647 153.928C55.6887 153.676 55.1787 153.304 54.7347 152.812C54.2907 152.308 53.9787 151.69 53.7987 150.958L55.5807 150.256C55.7367 150.904 56.0247 151.426 56.4447 151.822C56.8767 152.218 57.4047 152.416 58.0287 152.416C58.7007 152.416 59.2587 152.206 59.7027 151.786C60.1467 151.354 60.3687 150.802 60.3687 150.13C60.3687 149.458 60.1467 148.906 59.7027 148.474C59.2707 148.03 58.7127 147.808 58.0287 147.808C57.6447 147.808 57.2847 147.892 56.9487 148.06C56.6127 148.228 56.3367 148.462 56.1207 148.762L54.1587 147.898L54.9147 141.688H61.6107V143.488H56.5707L56.1207 146.728L56.2287 146.746C56.8527 146.254 57.5787 146.008 58.4067 146.008C59.1027 146.008 59.7507 146.182 60.3507 146.53C60.9627 146.878 61.4487 147.364 61.8087 147.988C62.1687 148.612 62.3487 149.32 62.3487 150.112C62.3487 150.904 62.1627 151.618 61.7907 152.254C61.4187 152.89 60.9027 153.388 60.2427 153.748C59.5947 154.108 58.8627 154.288 58.0467 154.288ZM74.1485 151.552H68.3885V150.004L73.9865 141.688H76.1285V149.716H77.6945V151.552H76.1285V154H74.1485V151.552ZM74.1485 149.716V144.622H74.0405L70.6025 149.716H74.1485ZM79.4285 152.128C79.8125 151.744 80.5685 150.988 81.6965 149.86C82.8245 148.72 83.5745 147.946 83.9465 147.538C84.4505 146.998 84.7925 146.56 84.9725 146.224C85.1645 145.888 85.2605 145.486 85.2605 145.018C85.2605 144.55 85.0805 144.142 84.7205 143.794C84.3605 143.446 83.8745 143.272 83.2625 143.272C82.6985 143.272 82.2365 143.44 81.8765 143.776C81.5285 144.1 81.3005 144.478 81.1925 144.91L79.3925 144.172C79.5125 143.74 79.7345 143.314 80.0585 142.894C80.3945 142.474 80.8385 142.12 81.3905 141.832C81.9425 141.544 82.5785 141.4 83.2985 141.4C84.0785 141.4 84.7685 141.562 85.3685 141.886C85.9805 142.198 86.4485 142.63 86.7725 143.182C87.1085 143.722 87.2765 144.322 87.2765 144.982C87.2765 145.69 87.0905 146.374 86.7185 147.034C86.3585 147.682 85.8965 148.288 85.3325 148.852C85.0925 149.08 84.4865 149.68 83.5145 150.652C82.5305 151.636 82.0385 152.128 82.0385 152.128L82.0745 152.2H87.4385V154H79.4285V152.128ZM94.9259 151.552H89.1659V150.004L94.7639 141.688H96.9059V149.716H98.4719V151.552H96.9059V154H94.9259V151.552ZM94.9259 149.716V144.622H94.8179L91.3799 149.716H94.9259ZM104.418 154.288C103.818 154.288 103.224 154.168 102.636 153.928C102.06 153.676 101.55 153.304 101.106 152.812C100.662 152.308 100.35 151.69 100.17 150.958L101.952 150.256C102.108 150.904 102.396 151.426 102.816 151.822C103.248 152.218 103.776 152.416 104.4 152.416C105.072 152.416 105.63 152.206 106.074 151.786C106.518 151.354 106.74 150.802 106.74 150.13C106.74 149.458 106.518 148.906 106.074 148.474C105.642 148.03 105.084 147.808 104.4 147.808C104.016 147.808 103.656 147.892 103.32 148.06C102.984 148.228 102.708 148.462 102.492 148.762L100.53 147.898L101.286 141.688H107.982V143.488H102.942L102.492 146.728L102.6 146.746C103.224 146.254 103.95 146.008 104.778 146.008C105.474 146.008 106.122 146.182 106.722 146.53C107.334 146.878 107.82 147.364 108.18 147.988C108.54 148.612 108.72 149.32 108.72 150.112C108.72 150.904 108.534 151.618 108.162 152.254C107.79 152.89 107.274 153.388 106.614 153.748C105.966 154.108 105.234 154.288 104.418 154.288ZM119.08 154.288C118.24 154.288 117.49 154.096 116.83 153.712C116.17 153.316 115.66 152.794 115.3 152.146C114.94 151.498 114.76 150.808 114.76 150.076C114.76 149.368 114.898 148.702 115.174 148.078C115.45 147.442 115.858 146.728 116.398 145.936L119.512 141.364L121.078 142.444L118.27 146.35L118.342 146.422C118.666 146.23 119.074 146.134 119.566 146.134C120.19 146.134 120.79 146.308 121.366 146.656C121.954 147.004 122.428 147.484 122.788 148.096C123.16 148.696 123.346 149.374 123.346 150.13C123.346 150.886 123.148 151.582 122.752 152.218C122.368 152.854 121.846 153.358 121.186 153.73C120.538 154.102 119.836 154.288 119.08 154.288ZM119.062 152.434C119.47 152.434 119.854 152.338 120.214 152.146C120.574 151.942 120.856 151.666 121.06 151.318C121.276 150.97 121.384 150.58 121.384 150.148C121.384 149.716 121.276 149.326 121.06 148.978C120.844 148.618 120.556 148.342 120.196 148.15C119.848 147.946 119.47 147.844 119.062 147.844C118.654 147.844 118.27 147.946 117.91 148.15C117.55 148.342 117.262 148.618 117.046 148.978C116.83 149.326 116.722 149.716 116.722 150.148C116.722 150.58 116.824 150.97 117.028 151.318C117.244 151.666 117.532 151.942 117.892 152.146C118.252 152.338 118.642 152.434 119.062 152.434ZM130.768 151.552H125.008V150.004L130.606 141.688H132.748V149.716H134.314V151.552H132.748V154H130.768V151.552ZM130.768 149.716V144.622H130.66L127.222 149.716H130.768ZM138.86 144.37L136.844 145.828L135.836 144.298L139.454 141.688H140.84V154H138.86V144.37ZM147.678 154.288C147.078 154.288 146.484 154.168 145.896 153.928C145.32 153.676 144.81 153.304 144.366 152.812C143.922 152.308 143.61 151.69 143.43 150.958L145.212 150.256C145.368 150.904 145.656 151.426 146.076 151.822C146.508 152.218 147.036 152.416 147.66 152.416C148.332 152.416 148.89 152.206 149.334 151.786C149.778 151.354 150 150.802 150 150.13C150 149.458 149.778 148.906 149.334 148.474C148.902 148.03 148.344 147.808 147.66 147.808C147.276 147.808 146.916 147.892 146.58 148.06C146.244 148.228 145.968 148.462 145.752 148.762L143.79 147.898L144.546 141.688H151.242V143.488H146.202L145.752 146.728L145.86 146.746C146.484 146.254 147.21 146.008 148.038 146.008C148.734 146.008 149.382 146.182 149.982 146.53C150.594 146.878 151.08 147.364 151.44 147.988C151.8 148.612 151.98 149.32 151.98 150.112C151.98 150.904 151.794 151.618 151.422 152.254C151.05 152.89 150.534 153.388 149.874 153.748C149.226 154.108 148.494 154.288 147.678 154.288ZM162.267 154.288C161.667 154.288 161.073 154.168 160.485 153.928C159.909 153.676 159.399 153.304 158.955 152.812C158.511 152.308 158.199 151.69 158.019 150.958L159.801 150.256C159.957 150.904 160.245 151.426 160.665 151.822C161.097 152.218 161.625 152.416 162.249 152.416C162.921 152.416 163.479 152.206 163.923 151.786C164.367 151.354 164.589 150.802 164.589 150.13C164.589 149.458 164.367 148.906 163.923 148.474C163.491 148.03 162.933 147.808 162.249 147.808C161.865 147.808 161.505 147.892 161.169 148.06C160.833 148.228 160.557 148.462 160.341 148.762L158.379 147.898L159.135 141.688H165.831V143.488H160.791L160.341 146.728L160.449 146.746C161.073 146.254 161.799 146.008 162.627 146.008C163.323 146.008 163.971 146.182 164.571 146.53C165.183 146.878 165.669 147.364 166.029 147.988C166.389 148.612 166.569 149.32 166.569 150.112C166.569 150.904 166.383 151.618 166.011 152.254C165.639 152.89 165.123 153.388 164.463 153.748C163.815 154.108 163.083 154.288 162.267 154.288ZM168.427 152.128C168.811 151.744 169.567 150.988 170.695 149.86C171.823 148.72 172.573 147.946 172.945 147.538C173.449 146.998 173.791 146.56 173.971 146.224C174.163 145.888 174.259 145.486 174.259 145.018C174.259 144.55 174.079 144.142 173.719 143.794C173.359 143.446 172.873 143.272 172.261 143.272C171.697 143.272 171.235 143.44 170.875 143.776C170.527 144.1 170.299 144.478 170.191 144.91L168.391 144.172C168.511 143.74 168.733 143.314 169.057 142.894C169.393 142.474 169.837 142.12 170.389 141.832C170.941 141.544 171.577 141.4 172.297 141.4C173.077 141.4 173.767 141.562 174.367 141.886C174.979 142.198 175.447 142.63 175.771 143.182C176.107 143.722 176.275 144.322 176.275 144.982C176.275 145.69 176.089 146.374 175.717 147.034C175.357 147.682 174.895 148.288 174.331 148.852C174.091 149.08 173.485 149.68 172.513 150.652C171.529 151.636 171.037 152.128 171.037 152.128L171.073 152.2H176.437V154H168.427V152.128ZM183.924 151.552H178.164V150.004L183.762 141.688H185.904V149.716H187.47V151.552H185.904V154H183.924V151.552ZM183.924 149.716V144.622H183.816L180.378 149.716H183.924ZM193.47 154.288C192.654 154.288 191.916 154.126 191.256 153.802C190.608 153.478 190.098 153.034 189.726 152.47C189.354 151.894 189.168 151.264 189.168 150.58C189.168 149.908 189.348 149.314 189.708 148.798C190.08 148.27 190.548 147.862 191.112 147.574V147.466C190.668 147.166 190.302 146.794 190.014 146.35C189.726 145.894 189.582 145.402 189.582 144.874C189.582 144.226 189.744 143.638 190.068 143.11C190.404 142.57 190.866 142.15 191.454 141.85C192.054 141.55 192.726 141.4 193.47 141.4C194.214 141.4 194.88 141.55 195.468 141.85C196.068 142.15 196.53 142.57 196.854 143.11C197.19 143.638 197.358 144.226 197.358 144.874C197.358 145.402 197.214 145.894 196.926 146.35C196.638 146.794 196.272 147.166 195.828 147.466V147.574C196.392 147.862 196.854 148.27 197.214 148.798C197.586 149.314 197.772 149.908 197.772 150.58C197.772 151.264 197.586 151.894 197.214 152.47C196.842 153.034 196.326 153.478 195.666 153.802C195.018 154.126 194.286 154.288 193.47 154.288ZM193.47 146.674C194.022 146.674 194.478 146.518 194.838 146.206C195.21 145.882 195.396 145.456 195.396 144.928C195.396 144.412 195.216 144.004 194.856 143.704C194.496 143.392 194.034 143.236 193.47 143.236C192.906 143.236 192.444 143.392 192.084 143.704C191.724 144.004 191.544 144.412 191.544 144.928C191.544 145.456 191.724 145.882 192.084 146.206C192.456 146.518 192.918 146.674 193.47 146.674ZM193.47 152.416C194.13 152.416 194.676 152.236 195.108 151.876C195.552 151.504 195.774 151.024 195.774 150.436C195.774 149.86 195.552 149.386 195.108 149.014C194.676 148.642 194.13 148.456 193.47 148.456C192.81 148.456 192.258 148.642 191.814 149.014C191.382 149.386 191.166 149.86 191.166 150.436C191.166 151.024 191.382 151.504 191.814 151.876C192.258 152.236 192.81 152.416 193.47 152.416Z" fill="white"/>
<path d="M261.958 154.288C260.95 154.288 260.062 154.006 259.294 153.442C258.526 152.866 257.932 152.092 257.512 151.12C257.104 150.136 256.9 149.044 256.9 147.844C256.9 146.632 257.104 145.54 257.512 144.568C257.932 143.584 258.526 142.81 259.294 142.246C260.062 141.682 260.95 141.4 261.958 141.4C262.966 141.4 263.848 141.682 264.604 142.246C265.372 142.81 265.96 143.584 266.368 144.568C266.788 145.54 266.998 146.632 266.998 147.844C266.998 149.044 266.788 150.136 266.368 151.12C265.96 152.092 265.372 152.866 264.604 153.442C263.836 154.006 262.954 154.288 261.958 154.288ZM261.958 152.416C262.57 152.416 263.104 152.218 263.56 151.822C264.028 151.414 264.382 150.868 264.622 150.184C264.874 149.488 265 148.708 265 147.844C265 146.98 264.874 146.2 264.622 145.504C264.382 144.808 264.028 144.262 263.56 143.866C263.104 143.47 262.57 143.272 261.958 143.272C261.334 143.272 260.794 143.47 260.338 143.866C259.882 144.262 259.528 144.808 259.276 145.504C259.036 146.2 258.916 146.98 258.916 147.844C258.916 148.708 259.036 149.488 259.276 150.184C259.528 150.868 259.882 151.414 260.338 151.822C260.794 152.218 261.334 152.416 261.958 152.416ZM269.11 153.37L274.564 143.614L274.528 143.56H268.57V141.688H276.724V143.668L270.82 154.288L269.11 153.37ZM282.189 141.112H284.097L278.751 154H276.843L282.189 141.112ZM285.516 152.128C285.9 151.744 286.656 150.988 287.784 149.86C288.912 148.72 289.662 147.946 290.034 147.538C290.538 146.998 290.88 146.56 291.06 146.224C291.252 145.888 291.348 145.486 291.348 145.018C291.348 144.55 291.168 144.142 290.808 143.794C290.448 143.446 289.962 143.272 289.35 143.272C288.786 143.272 288.324 143.44 287.964 143.776C287.616 144.1 287.388 144.478 287.28 144.91L285.48 144.172C285.6 143.74 285.822 143.314 286.146 142.894C286.482 142.474 286.926 142.12 287.478 141.832C288.03 141.544 288.666 141.4 289.386 141.4C290.166 141.4 290.856 141.562 291.456 141.886C292.068 142.198 292.536 142.63 292.86 143.182C293.196 143.722 293.364 144.322 293.364 144.982C293.364 145.69 293.178 146.374 292.806 147.034C292.446 147.682 291.984 148.288 291.42 148.852C291.18 149.08 290.574 149.68 289.602 150.652C288.618 151.636 288.126 152.128 288.126 152.128L288.162 152.2H293.526V154H285.516V152.128ZM299.574 154.288C298.734 154.288 297.984 154.096 297.324 153.712C296.664 153.316 296.154 152.794 295.794 152.146C295.434 151.498 295.254 150.808 295.254 150.076C295.254 149.368 295.392 148.702 295.668 148.078C295.944 147.442 296.352 146.728 296.892 145.936L300.006 141.364L301.572 142.444L298.764 146.35L298.836 146.422C299.16 146.23 299.568 146.134 300.06 146.134C300.684 146.134 301.284 146.308 301.86 146.656C302.448 147.004 302.922 147.484 303.282 148.096C303.654 148.696 303.84 149.374 303.84 150.13C303.84 150.886 303.642 151.582 303.246 152.218C302.862 152.854 302.34 153.358 301.68 153.73C301.032 154.102 300.33 154.288 299.574 154.288ZM299.556 152.434C299.964 152.434 300.348 152.338 300.708 152.146C301.068 151.942 301.35 151.666 301.554 151.318C301.77 150.97 301.878 150.58 301.878 150.148C301.878 149.716 301.77 149.326 301.554 148.978C301.338 148.618 301.05 148.342 300.69 148.15C300.342 147.946 299.964 147.844 299.556 147.844C299.148 147.844 298.764 147.946 298.404 148.15C298.044 148.342 297.756 148.618 297.54 148.978C297.324 149.326 297.216 149.716 297.216 150.148C297.216 150.58 297.318 150.97 297.522 151.318C297.738 151.666 298.026 151.942 298.386 152.146C298.746 152.338 299.136 152.434 299.556 152.434Z" fill="white"/>
<circle cx="253" cy="34" r="20" fill="#EB001B" fill-opacity="0.75"/>
<circle cx="280" cy="34" r="20" fill="#F79E1B" fill-opacity="0.75"/>
<path d="M218.152 61.82H220.042V63.026H220.132C220.408 62.582 220.798 62.222 221.302 61.946C221.806 61.67 222.346 61.532 222.922 61.532C223.582 61.532 224.158 61.688 224.65 62C225.142 62.3 225.496 62.702 225.712 63.206C226.024 62.702 226.438 62.3 226.954 62C227.482 61.688 228.1 61.532 228.808 61.532C229.864 61.532 230.662 61.856 231.202 62.504C231.754 63.14 232.03 64.01 232.03 65.114V71H230.05V65.456C230.05 64.064 229.456 63.368 228.268 63.368C227.632 63.368 227.11 63.626 226.702 64.142C226.294 64.658 226.09 65.294 226.09 66.05V71H224.11V65.456C224.11 64.064 223.498 63.368 222.274 63.368C221.65 63.368 221.134 63.626 220.726 64.142C220.33 64.658 220.132 65.294 220.132 66.05V71H218.152V61.82ZM237.081 71.288C236.421 71.288 235.833 71.162 235.317 70.91C234.801 70.646 234.399 70.28 234.111 69.812C233.823 69.332 233.679 68.792 233.679 68.192C233.679 67.244 234.033 66.494 234.741 65.942C235.461 65.39 236.367 65.114 237.459 65.114C237.999 65.114 238.485 65.168 238.917 65.276C239.349 65.372 239.691 65.48 239.943 65.6V65.132C239.943 64.568 239.733 64.112 239.313 63.764C238.893 63.404 238.353 63.224 237.693 63.224C237.225 63.224 236.781 63.326 236.361 63.53C235.953 63.734 235.623 64.016 235.371 64.376L233.985 63.314C234.393 62.75 234.921 62.312 235.569 62C236.217 61.688 236.937 61.532 237.729 61.532C239.061 61.532 240.087 61.862 240.807 62.522C241.527 63.17 241.887 64.088 241.887 65.276V71H239.943V69.902H239.853C239.589 70.298 239.217 70.628 238.737 70.892C238.257 71.156 237.705 71.288 237.081 71.288ZM237.423 69.65C237.903 69.65 238.335 69.536 238.719 69.308C239.103 69.08 239.403 68.774 239.619 68.39C239.835 68.006 239.943 67.592 239.943 67.148C239.667 66.992 239.343 66.866 238.971 66.77C238.611 66.674 238.233 66.626 237.837 66.626C237.093 66.626 236.547 66.776 236.199 67.076C235.851 67.364 235.677 67.742 235.677 68.21C235.677 68.63 235.839 68.978 236.163 69.254C236.487 69.518 236.907 69.65 237.423 69.65ZM247.305 71.288C246.249 71.288 245.385 71.06 244.713 70.604C244.041 70.136 243.567 69.542 243.291 68.822L245.055 68.048C245.271 68.528 245.571 68.894 245.955 69.146C246.351 69.398 246.801 69.524 247.305 69.524C247.797 69.524 248.211 69.44 248.547 69.272C248.883 69.092 249.051 68.828 249.051 68.48C249.051 68.144 248.907 67.88 248.619 67.688C248.331 67.496 247.887 67.328 247.287 67.184L246.189 66.914C245.457 66.734 244.851 66.416 244.371 65.96C243.891 65.504 243.651 64.928 243.651 64.232C243.651 63.692 243.807 63.218 244.119 62.81C244.443 62.402 244.875 62.09 245.415 61.874C245.955 61.646 246.543 61.532 247.179 61.532C248.031 61.532 248.781 61.706 249.429 62.054C250.077 62.39 250.545 62.882 250.833 63.53L249.105 64.286C248.757 63.578 248.121 63.224 247.197 63.224C246.753 63.224 246.381 63.314 246.081 63.494C245.781 63.674 245.631 63.908 245.631 64.196C245.631 64.472 245.745 64.7 245.973 64.88C246.201 65.048 246.537 65.192 246.981 65.312L248.331 65.654C249.231 65.882 249.909 66.23 250.365 66.698C250.833 67.154 251.067 67.718 251.067 68.39C251.067 68.966 250.899 69.476 250.563 69.92C250.239 70.352 249.789 70.688 249.213 70.928C248.637 71.168 248.001 71.288 247.305 71.288ZM256.455 71.144C256.047 71.144 255.663 71.078 255.303 70.946C254.943 70.814 254.649 70.64 254.421 70.424C253.905 69.908 253.647 69.206 253.647 68.318V63.566H252.045V61.82H253.647V59.228H255.627V61.82H257.859V63.566H255.627V67.886C255.627 68.378 255.723 68.726 255.915 68.93C256.095 69.17 256.407 69.29 256.851 69.29C257.055 69.29 257.235 69.266 257.391 69.218C257.547 69.158 257.715 69.068 257.895 68.948V70.874C257.499 71.054 257.019 71.144 256.455 71.144ZM263.584 71.288C262.684 71.288 261.874 71.078 261.154 70.658C260.446 70.238 259.888 69.662 259.48 68.93C259.084 68.186 258.886 67.352 258.886 66.428C258.886 65.552 259.078 64.742 259.462 63.998C259.858 63.242 260.404 62.642 261.1 62.198C261.796 61.754 262.588 61.532 263.476 61.532C264.4 61.532 265.198 61.736 265.87 62.144C266.554 62.552 267.07 63.11 267.418 63.818C267.778 64.526 267.958 65.324 267.958 66.212C267.958 66.38 267.94 66.59 267.904 66.842H260.866C260.938 67.694 261.238 68.354 261.766 68.822C262.306 69.278 262.93 69.506 263.638 69.506C264.202 69.506 264.688 69.38 265.096 69.128C265.516 68.864 265.852 68.51 266.104 68.066L267.778 68.858C267.346 69.614 266.782 70.208 266.086 70.64C265.39 71.072 264.556 71.288 263.584 71.288ZM265.942 65.33C265.918 65.006 265.816 64.688 265.636 64.376C265.456 64.052 265.18 63.782 264.808 63.566C264.448 63.35 264.004 63.242 263.476 63.242C262.84 63.242 262.3 63.434 261.856 63.818C261.424 64.19 261.124 64.694 260.956 65.33H265.942ZM269.761 61.82H271.651V63.17H271.741C271.945 62.702 272.299 62.318 272.803 62.018C273.307 61.706 273.841 61.55 274.405 61.55C274.849 61.55 275.221 61.61 275.521 61.73V63.782C274.993 63.59 274.519 63.494 274.099 63.494C273.643 63.494 273.235 63.614 272.875 63.854C272.527 64.094 272.251 64.418 272.047 64.826C271.843 65.222 271.741 65.66 271.741 66.14V71H269.761V61.82ZM280.742 71.288C279.83 71.288 279.008 71.078 278.276 70.658C277.556 70.238 276.992 69.662 276.584 68.93C276.188 68.186 275.99 67.346 275.99 66.41C275.99 65.474 276.188 64.64 276.584 63.908C276.992 63.164 277.556 62.582 278.276 62.162C279.008 61.742 279.83 61.532 280.742 61.532C281.75 61.532 282.608 61.76 283.316 62.216C284.024 62.672 284.528 63.29 284.828 64.07L283.01 64.826C282.602 63.854 281.828 63.368 280.688 63.368C280.196 63.368 279.74 63.494 279.32 63.746C278.912 63.998 278.582 64.358 278.33 64.826C278.09 65.282 277.97 65.81 277.97 66.41C277.97 67.01 278.09 67.544 278.33 68.012C278.582 68.48 278.912 68.84 279.32 69.092C279.74 69.344 280.196 69.47 280.688 69.47C281.264 69.47 281.756 69.344 282.164 69.092C282.584 68.828 282.902 68.456 283.118 67.976L284.9 68.75C284.552 69.53 284.024 70.148 283.316 70.604C282.608 71.06 281.75 71.288 280.742 71.288ZM289.376 71.288C288.716 71.288 288.128 71.162 287.612 70.91C287.096 70.646 286.694 70.28 286.406 69.812C286.118 69.332 285.974 68.792 285.974 68.192C285.974 67.244 286.328 66.494 287.036 65.942C287.756 65.39 288.662 65.114 289.754 65.114C290.294 65.114 290.78 65.168 291.212 65.276C291.644 65.372 291.986 65.48 292.238 65.6V65.132C292.238 64.568 292.028 64.112 291.608 63.764C291.188 63.404 290.648 63.224 289.988 63.224C289.52 63.224 289.076 63.326 288.656 63.53C288.248 63.734 287.918 64.016 287.666 64.376L286.28 63.314C286.688 62.75 287.216 62.312 287.864 62C288.512 61.688 289.232 61.532 290.024 61.532C291.356 61.532 292.382 61.862 293.102 62.522C293.822 63.17 294.182 64.088 294.182 65.276V71H292.238V69.902H292.148C291.884 70.298 291.512 70.628 291.032 70.892C290.552 71.156 290 71.288 289.376 71.288ZM289.718 69.65C290.198 69.65 290.63 69.536 291.014 69.308C291.398 69.08 291.698 68.774 291.914 68.39C292.13 68.006 292.238 67.592 292.238 67.148C291.962 66.992 291.638 66.866 291.266 66.77C290.906 66.674 290.528 66.626 290.132 66.626C289.388 66.626 288.842 66.776 288.494 67.076C288.146 67.364 287.972 67.742 287.972 68.21C287.972 68.63 288.134 68.978 288.458 69.254C288.782 69.518 289.202 69.65 289.718 69.65ZM296.34 61.82H298.23V63.17H298.32C298.524 62.702 298.878 62.318 299.382 62.018C299.886 61.706 300.42 61.55 300.984 61.55C301.428 61.55 301.8 61.61 302.1 61.73V63.782C301.572 63.59 301.098 63.494 300.678 63.494C300.222 63.494 299.814 63.614 299.454 63.854C299.106 64.094 298.83 64.418 298.626 64.826C298.422 65.222 298.32 65.66 298.32 66.14V71H296.34V61.82ZM306.996 71.288C306.168 71.288 305.418 71.078 304.746 70.658C304.074 70.238 303.54 69.662 303.144 68.93C302.76 68.186 302.568 67.346 302.568 66.41C302.568 65.474 302.76 64.64 303.144 63.908C303.54 63.164 304.074 62.582 304.746 62.162C305.418 61.742 306.168 61.532 306.996 61.532C307.644 61.532 308.226 61.676 308.742 61.964C309.258 62.252 309.648 62.606 309.912 63.026H310.002L309.912 61.73V58.112H311.892V71H310.002V69.812H309.912C309.648 70.22 309.258 70.568 308.742 70.856C308.226 71.144 307.644 71.288 306.996 71.288ZM307.284 69.47C307.764 69.47 308.208 69.344 308.616 69.092C309.036 68.84 309.372 68.48 309.624 68.012C309.876 67.544 310.002 67.01 310.002 66.41C310.002 65.81 309.876 65.282 309.624 64.826C309.372 64.358 309.036 63.998 308.616 63.746C308.208 63.494 307.764 63.368 307.284 63.368C306.804 63.368 306.354 63.494 305.934 63.746C305.514 63.998 305.178 64.358 304.926 64.826C304.674 65.282 304.548 65.81 304.548 66.41C304.548 67.01 304.674 67.544 304.926 68.012C305.178 68.48 305.514 68.84 305.934 69.092C306.354 69.344 306.804 69.47 307.284 69.47Z" fill="white"/>
</g>
<defs>
<linearGradient id="paint0_linear_188_528" x1="166" y1="0" x2="166" y2="196" gradientUnits="userSpaceOnUse">
<stop stop-color="#001F50"/>
<stop offset="1" stop-color="#0047B6"/>
</linearGradient>
<clipPath id="clip0_188_528">
<rect width="332" height="196" rx="25" fill="white"/>
</clipPath>
</defs>
</svg>
