<svg width="332" height="196" fill="none" xmlns="http://www.w3.org/2000/svg"><g clip-path="url(#clip0_188_531)"><rect width="332" height="196" rx="25" fill="url(#paint0_linear_188_531)"/><ellipse cx="33" cy="193.5" rx="175" ry="110.5" fill="#78165F"/><ellipse cx="332" cy="-13.5" rx="175" ry="110.5" fill="#78165F"/><path d="M24.076 162.288c-.6 0-1.194-.12-1.782-.36a4.45 4.45 0 01-1.53-1.116c-.444-.504-.756-1.122-.936-1.854l1.782-.702c.156.648.444 1.17.864 1.566.432.396.96.594 1.584.594.672 0 1.23-.21 1.674-.63.444-.432.666-.984.666-1.656 0-.672-.222-1.224-.666-1.656-.432-.444-.99-.666-1.674-.666-.384 0-.744.084-1.08.252a2.237 2.237 0 00-.828.702l-1.962-.864.756-6.21h6.696v1.8H22.6l-.45 3.24.108.018c.624-.492 1.35-.738 2.178-.738.696 0 1.344.174 1.944.522a3.866 3.866 0 011.458 1.458c.36.624.54 1.332.54 2.124s-.186 1.506-.558 2.142a3.945 3.945 0 01-1.548 1.494c-.648.36-1.38.54-2.196.54zm10.227 0a4.55 4.55 0 01-2.574-.792c-.792-.54-1.338-1.326-1.638-2.358l1.836-.756c.168.636.456 1.128.864 1.476.42.348.924.522 1.512.522.6 0 1.116-.18 1.548-.54.432-.372.648-.84.648-1.404 0-.576-.228-1.044-.684-1.404-.456-.372-1.026-.558-1.71-.558h-1.062v-1.818h.954c.588 0 1.08-.156 1.476-.468.408-.324.612-.762.612-1.314 0-.492-.18-.882-.54-1.17-.36-.3-.816-.45-1.368-.45-.54 0-.972.144-1.296.432a2.54 2.54 0 00-.684 1.062l-1.818-.756c.24-.684.684-1.284 1.332-1.8.648-.528 1.476-.792 2.484-.792.744 0 1.41.144 1.998.432.6.288 1.068.69 1.404 1.206.336.504.504 1.074.504 1.71 0 .648-.156 1.2-.468 1.656a3.243 3.243 0 01-1.152 1.026v.108a3.49 3.49 0 011.476 1.152c.384.516.576 1.134.576 1.854 0 .72-.186 1.362-.558 1.926-.36.564-.864 1.008-1.512 1.332-.636.324-1.356.486-2.16.486zm6.403-.918l5.454-9.756-.036-.054h-5.958v-1.872h8.154v1.98l-5.904 10.62-1.71-.918zm13.34.918c-.6 0-1.193-.12-1.781-.36a4.45 4.45 0 01-1.53-1.116c-.444-.504-.756-1.122-.936-1.854l1.782-.702c.156.648.444 1.17.864 1.566.432.396.96.594 1.584.594.672 0 1.23-.21 1.674-.63.444-.432.666-.984.666-1.656 0-.672-.222-1.224-.666-1.656-.432-.444-.99-.666-1.674-.666-.384 0-.744.084-1.08.252a2.237 2.237 0 00-.828.702l-1.962-.864.756-6.21h6.696v1.8h-5.04l-.45 3.24.108.018c.624-.492 1.35-.738 2.178-.738.696 0 1.344.174 1.944.522a3.866 3.866 0 011.458 1.458c.36.624.54 1.332.54 2.124s-.186 1.506-.558 2.142a3.945 3.945 0 01-1.548 1.494c-.648.36-1.38.54-2.196.54zm16.102-2.736h-5.76v-1.548l5.599-8.316h2.142v8.028h1.566v1.836h-1.566V162h-1.98v-2.448zm0-1.836v-5.094h-.108l-3.438 5.094h3.546zm9.349 4.572a4.55 4.55 0 01-2.575-.792c-.791-.54-1.337-1.326-1.638-2.358l1.837-.756c.168.636.456 1.128.864 1.476.42.348.924.522 1.511.522.6 0 1.117-.18 1.549-.54.431-.372.647-.84.647-1.404 0-.576-.227-1.044-.683-1.404-.457-.372-1.026-.558-1.71-.558h-1.063v-1.818h.954c.588 0 1.08-.156 1.477-.468.407-.324.611-.762.611-1.314 0-.492-.18-.882-.54-1.17-.36-.3-.816-.45-1.367-.45-.54 0-.972.144-1.296.432a2.54 2.54 0 00-.684 1.062l-1.819-.756c.24-.684.684-1.284 1.332-1.8.648-.528 1.477-.792 2.484-.792.744 0 1.41.144 1.998.432.6.288 1.069.69 1.404 1.206.336.504.504 1.074.504 1.71 0 .648-.156 1.2-.468 1.656a3.243 3.243 0 01-1.151 1.026v.108a3.49 3.49 0 011.475 1.152c.384.516.576 1.134.576 1.854 0 .72-.186 1.362-.558 1.926-.36.564-.864 1.008-1.512 1.332-.636.324-1.356.486-2.16.486zm10.11 0c-.6 0-1.194-.12-1.782-.36a4.45 4.45 0 01-1.53-1.116c-.444-.504-.756-1.122-.936-1.854l1.782-.702c.156.648.444 1.17.864 1.566.432.396.96.594 1.584.594.672 0 1.23-.21 1.674-.63.444-.432.666-.984.666-1.656 0-.672-.222-1.224-.666-1.656-.432-.444-.99-.666-1.674-.666-.384 0-.744.084-1.08.252a2.237 2.237 0 00-.828.702l-1.962-.864.756-6.21h6.696v1.8h-5.04l-.45 3.24.108.018c.624-.492 1.35-.738 2.178-.738.696 0 1.344.174 1.944.522a3.866 3.866 0 011.458 1.458c.36.624.54 1.332.54 2.124s-.186 1.506-.558 2.142a3.945 3.945 0 01-1.548 1.494c-.648.36-1.38.54-2.196.54zm10.371 0c-.6 0-1.194-.12-1.782-.36a4.45 4.45 0 01-1.53-1.116c-.444-.504-.756-1.122-.936-1.854l1.782-.702c.156.648.444 1.17.864 1.566.432.396.96.594 1.584.594.672 0 1.23-.21 1.674-.63.444-.432.666-.984.666-1.656 0-.672-.222-1.224-.666-1.656-.432-.444-.99-.666-1.674-.666-.384 0-.744.084-1.08.252a2.237 2.237 0 00-.828.702l-1.962-.864.756-6.21h6.696v1.8h-5.04l-.45 3.24.108.018c.624-.492 1.35-.738 2.178-.738.696 0 1.344.174 1.944.522a3.866 3.866 0 011.458 1.458c.36.624.54 1.332.54 2.124s-.186 1.506-.558 2.142a3.945 3.945 0 01-1.548 1.494c-.648.36-1.38.54-2.196.54zm14.662 0c-.84 0-1.59-.192-2.25-.576a4.162 4.162 0 01-1.53-1.566 4.197 4.197 0 01-.54-2.07c0-.708.138-1.374.414-1.998.276-.636.684-1.35 1.224-2.142l3.114-4.572 1.566 1.08-2.808 3.906.072.072c.324-.192.732-.288 1.224-.288.624 0 1.224.174 1.8.522a3.99 3.99 0 011.422 1.44c.372.6.558 1.278.558 2.034 0 .756-.198 1.452-.594 2.088a4.21 4.21 0 01-1.566 1.512 4.158 4.158 0 01-2.106.558zm-.018-1.854c.408 0 .792-.096 1.152-.288.36-.204.642-.48.846-.828.216-.348.324-.738.324-1.17 0-.432-.108-.822-.324-1.17a2.202 2.202 0 00-.864-.828 2.203 2.203 0 00-1.134-.306 2.3 2.3 0 00-1.152.306c-.36.192-.648.468-.864.828a2.173 2.173 0 00-.324 1.17c0 .432.102.822.306 1.17.216.348.504.624.864.828.36.192.75.288 1.17.288zm8.425-8.064l-2.016 1.458-1.008-1.53 3.618-2.61h1.386V162h-1.98v-9.63zm7.418 0l-2.016 1.458-1.008-1.53 3.618-2.61h1.386V162h-1.98v-9.63zm8.818 9.918c-.6 0-1.194-.12-1.782-.36a4.45 4.45 0 01-1.53-1.116c-.444-.504-.756-1.122-.936-1.854l1.782-.702c.156.648.444 1.17.864 1.566.432.396.96.594 1.584.594.672 0 1.23-.21 1.674-.63.444-.432.666-.984.666-1.656 0-.672-.222-1.224-.666-1.656-.432-.444-.99-.666-1.674-.666-.384 0-.744.084-1.08.252a2.237 2.237 0 00-.828.702l-1.962-.864.756-6.21h6.696v1.8h-5.04l-.45 3.24.108.018c.624-.492 1.35-.738 2.178-.738.696 0 1.344.174 1.944.522a3.866 3.866 0 011.458 1.458c.36.624.54 1.332.54 2.124s-.186 1.506-.558 2.142a3.945 3.945 0 01-1.548 1.494c-.648.36-1.38.54-2.196.54zm14.59 0c-.6 0-1.194-.12-1.782-.36a4.45 4.45 0 01-1.53-1.116c-.444-.504-.756-1.122-.936-1.854l1.782-.702c.156.648.444 1.17.864 1.566.432.396.96.594 1.584.594.672 0 1.23-.21 1.674-.63.444-.432.666-.984.666-1.656 0-.672-.222-1.224-.666-1.656-.432-.444-.99-.666-1.674-.666-.384 0-.744.084-1.08.252a2.237 2.237 0 00-.828.702l-1.962-.864.756-6.21h6.696v1.8h-5.04l-.45 3.24.108.018c.624-.492 1.35-.738 2.178-.738.696 0 1.344.174 1.944.522a3.866 3.866 0 011.458 1.458c.36.624.54 1.332.54 2.124s-.186 1.506-.558 2.142a3.945 3.945 0 01-1.548 1.494c-.648.36-1.38.54-2.196.54zm7.776-1.044l2.808-3.906-.072-.072c-.324.192-.732.288-1.224.288-.624 0-1.23-.174-1.818-.522a4.24 4.24 0 01-1.422-1.422 3.971 3.971 0 01-.54-2.052c0-.756.192-1.452.576-2.088a4.396 4.396 0 011.566-1.512 4.256 4.256 0 012.124-.558c.84 0 1.59.198 2.25.594.66.384 1.17.9 1.53 1.548.36.648.54 1.338.54 2.07a5.01 5.01 0 01-.414 2.016c-.276.624-.684 1.332-1.224 2.124l-3.114 4.572-1.566-1.08zm2.016-5.4c.408 0 .792-.096 1.152-.288.36-.204.648-.48.864-.828.216-.36.324-.756.324-1.188 0-.432-.108-.822-.324-1.17a2.115 2.115 0 00-.846-.81 2.334 2.334 0 00-1.17-.306 2.3 2.3 0 00-1.152.306c-.36.192-.648.462-.864.81a2.27 2.27 0 00-.306 1.17c0 .432.108.828.324 1.188.216.348.498.624.846.828.36.192.744.288 1.152.288zm8.232 5.4l2.808-3.906-.072-.072c-.324.192-.732.288-1.224.288-.624 0-1.23-.174-1.818-.522a4.24 4.24 0 01-1.422-1.422 3.971 3.971 0 01-.54-2.052c0-.756.192-1.452.576-2.088a4.396 4.396 0 011.566-1.512 4.256 4.256 0 012.124-.558c.84 0 1.59.198 2.25.594.66.384 1.17.9 1.53 1.548.36.648.54 1.338.54 2.07a5.01 5.01 0 01-.414 2.016c-.276.624-.684 1.332-1.224 2.124l-3.114 4.572-1.566-1.08zm2.016-5.4c.408 0 .792-.096 1.152-.288.36-.204.648-.48.864-.828.216-.36.324-.756.324-1.188 0-.432-.108-.822-.324-1.17a2.115 2.115 0 00-.846-.81 2.334 2.334 0 00-1.17-.306 2.3 2.3 0 00-1.152.306c-.36.192-.648.462-.864.81a2.27 2.27 0 00-.306 1.17c0 .432.108.828.324 1.188.216.348.498.624.846.828.36.192.744.288 1.152.288zm8.232 5.4l2.808-3.906-.072-.072c-.324.192-.732.288-1.224.288-.624 0-1.23-.174-1.818-.522a4.24 4.24 0 01-1.422-1.422 3.971 3.971 0 01-.54-2.052c0-.756.192-1.452.576-2.088a4.396 4.396 0 011.566-1.512 4.256 4.256 0 012.124-.558c.84 0 1.59.198 2.25.594.66.384 1.17.9 1.53 1.548.36.648.54 1.338.54 2.07a5.01 5.01 0 01-.414 2.016c-.276.624-.684 1.332-1.224 2.124l-3.114 4.572-1.566-1.08zm2.016-5.4c.408 0 .792-.096 1.152-.288.36-.204.648-.48.864-.828.216-.36.324-.756.324-1.188 0-.432-.108-.822-.324-1.17a2.115 2.115 0 00-.846-.81 2.334 2.334 0 00-1.17-.306 2.3 2.3 0 00-1.152.306c-.36.192-.648.462-.864.81a2.27 2.27 0 00-.306 1.17c0 .432.108.828.324 1.188.216.348.498.624.846.828.36.192.744.288 1.152.288zm73.797 6.444c-1.008 0-1.896-.282-2.664-.846-.768-.576-1.362-1.35-1.782-2.322-.408-.984-.612-2.076-.612-3.276 0-1.212.204-2.304.612-3.276.42-.984 1.014-1.758 1.782-2.322.768-.564 1.656-.846 2.664-.846 1.008 0 1.89.282 2.646.846.768.564 1.356 1.338 1.764 2.322.42.972.63 2.064.63 3.276 0 1.2-.21 2.292-.63 3.276-.408.972-.996 1.746-1.764 2.322-.768.564-1.65.846-2.646.846zm0-1.872c.612 0 1.146-.198 1.602-.594.468-.408.822-.954 1.062-1.638.252-.696.378-1.476.378-2.34 0-.864-.126-1.644-.378-2.34-.24-.696-.594-1.242-1.062-1.638a2.366 2.366 0 00-1.602-.594 2.39 2.39 0 00-1.62.594c-.456.396-.81.942-1.062 1.638-.24.696-.36 1.476-.36 2.34 0 .864.12 1.644.36 2.34.252.684.606 1.23 1.062 1.638a2.39 2.39 0 001.62.594zm7.152.954l5.454-9.756-.036-.054h-5.958v-1.872h8.154v1.98l-5.904 10.62-1.71-.918zm13.079-12.258h1.908L274.751 162h-1.908l5.346-12.888zm3.327 11.016l2.268-2.268c1.128-1.14 1.878-1.914 2.25-2.322.504-.54.846-.978 1.026-1.314.192-.336.288-.738.288-1.206 0-.468-.18-.876-.54-1.224-.36-.348-.846-.522-1.458-.522-.564 0-1.026.168-1.386.504a2.286 2.286 0 00-.684 1.134l-1.8-.738a3.74 3.74 0 01.666-1.278c.336-.42.78-.774 1.332-1.062.552-.288 1.188-.432 1.908-.432.78 0 1.47.162 2.07.486.612.312 1.08.744 1.404 1.296.336.54.504 1.14.504 1.8 0 .708-.186 1.392-.558 2.052a8.21 8.21 0 01-1.386 1.818c-.24.228-.846.828-1.818 1.8l-1.476 1.476.036.072h5.364v1.8h-8.01v-1.872zm14.04 2.16c-.816 0-1.554-.162-2.214-.486a3.853 3.853 0 01-1.53-1.332 3.414 3.414 0 01-.558-1.89c0-.672.18-1.266.54-1.782.372-.528.84-.936 1.404-1.224v-.108a3.89 3.89 0 01-1.098-1.116 2.713 2.713 0 01-.432-1.476c0-.648.162-1.236.486-1.764.336-.54.798-.96 1.386-1.26.6-.3 1.272-.45 2.016-.45s1.41.15 1.998.45c.6.3 1.062.72 1.386 1.26.336.528.504 1.116.504 1.764 0 .528-.144 1.02-.432 1.476a3.89 3.89 0 01-1.098 1.116v.108a3.678 3.678 0 011.386 1.224c.372.516.558 1.11.558 1.782 0 .684-.186 1.314-.558 1.89-.372.564-.888 1.008-1.548 1.332-.648.324-1.38.486-2.196.486zm0-7.614c.552 0 1.008-.156 1.368-.468.372-.324.558-.75.558-1.278 0-.516-.18-.924-.54-1.224-.36-.312-.822-.468-1.386-.468s-1.026.156-1.386.468c-.36.3-.54.708-.54 1.224 0 .528.18.954.54 1.278.372.312.834.468 1.386.468zm0 5.742c.66 0 1.206-.18 1.638-.54.444-.372.666-.852.666-1.44 0-.576-.222-1.05-.666-1.422-.432-.372-.978-.558-1.638-.558-.66 0-1.212.186-1.656.558a1.794 1.794 0 00-.648 1.422c0 .588.216 1.068.648 1.44.444.36.996.54 1.656.54z" fill="#fff"/><circle cx="249" cy="42" r="20" fill="#EB001B" fill-opacity=".75"/><circle cx="276" cy="42" r="20" fill="#F79E1B" fill-opacity=".75"/><path d="M214.152 71.82h1.89v1.206h.09a3.09 3.09 0 011.17-1.08 3.32 3.32 0 011.62-.414c.66 0 1.236.156 1.728.468.492.3.846.702 1.062 1.206A3.517 3.517 0 01222.954 72c.528-.312 1.146-.468 1.854-.468 1.056 0 1.854.324 2.394.972.552.636.828 1.506.828 2.61V81h-1.98v-5.544c0-1.392-.594-2.088-1.782-2.088-.636 0-1.158.258-1.566.774-.408.516-.612 1.152-.612 1.908V81h-1.98v-5.544c0-1.392-.612-2.088-1.836-2.088-.624 0-1.14.258-1.548.774-.396.516-.594 1.152-.594 1.908V81h-1.98v-9.18zm18.929 9.468c-.66 0-1.248-.126-1.764-.378a2.97 2.97 0 01-1.206-1.098 3.087 3.087 0 01-.432-1.62c0-.948.354-1.698 1.062-2.25.72-.552 1.626-.828 2.718-.828.54 0 1.026.054 1.458.162.432.096.774.204 1.026.324v-.468c0-.564-.21-1.02-.63-1.368-.42-.36-.96-.54-1.62-.54a3.01 3.01 0 00-1.332.306 2.611 2.611 0 00-.99.846l-1.386-1.062A4.131 4.131 0 01231.569 72c.648-.312 1.368-.468 2.16-.468 1.332 0 2.358.33 3.078.99.72.648 1.08 1.566 1.08 2.754V81h-1.944v-1.098h-.09c-.264.396-.636.726-1.116.99-.48.264-1.032.396-1.656.396zm.342-1.638c.48 0 .912-.114 1.296-.342a2.492 2.492 0 001.224-2.16 4.004 4.004 0 00-.972-.378 4.383 4.383 0 00-1.134-.144c-.744 0-1.29.15-1.638.45-.348.288-.522.666-.522 1.134 0 .42.162.768.486 1.044.324.264.744.396 1.26.396zm9.882 1.638c-1.056 0-1.92-.228-2.592-.684-.672-.468-1.146-1.062-1.422-1.782l1.764-.774c.216.48.516.846.9 1.098a2.46 2.46 0 001.35.378c.492 0 .906-.084 1.242-.252.336-.18.504-.444.504-.792 0-.336-.144-.6-.432-.792-.288-.192-.732-.36-1.332-.504l-1.098-.27c-.732-.18-1.338-.498-1.818-.954-.48-.456-.72-1.032-.72-1.728 0-.54.156-1.014.468-1.422.324-.408.756-.72 1.296-.936a4.489 4.489 0 011.764-.342c.852 0 1.602.174 2.25.522a2.996 2.996 0 011.404 1.476l-1.728.756c-.348-.708-.984-1.062-1.908-1.062-.444 0-.816.09-1.116.27-.3.18-.45.414-.45.702 0 .276.114.504.342.684.228.168.564.312 1.008.432l1.35.342c.9.228 1.578.576 2.034 1.044.468.456.702 1.02.702 1.692 0 .576-.168 1.086-.504 1.53-.324.432-.774.768-1.35 1.008-.576.24-1.212.36-1.908.36zm9.15-.144a3.32 3.32 0 01-1.152-.198 2.53 2.53 0 01-.882-.522c-.516-.516-.774-1.218-.774-2.106v-4.752h-1.602V71.82h1.602v-2.592h1.98v2.592h2.232v1.746h-2.232v4.32c0 .492.096.84.288 1.044.18.24.492.36.936.36.204 0 .384-.024.54-.072.156-.06.324-.15.504-.27v1.926c-.396.18-.876.27-1.44.27zm7.129.144c-.9 0-1.71-.21-2.43-.63a4.541 4.541 0 01-1.674-1.728c-.396-.744-.594-1.578-.594-2.502 0-.876.192-1.686.576-2.43a4.652 4.652 0 011.638-1.8c.696-.444 1.488-.666 2.376-.666.924 0 1.722.204 2.394.612.684.408 1.2.966 1.548 1.674.36.708.54 1.506.54 2.394a4.6 4.6 0 01-.054.63h-7.038c.072.852.372 1.512.9 1.98.54.456 1.164.684 1.872.684.564 0 1.05-.126 1.458-.378.42-.264.756-.618 1.008-1.062l1.674.792a4.932 4.932 0 01-1.692 1.782c-.696.432-1.53.648-2.502.648zm2.358-5.958a2.225 2.225 0 00-.306-.954c-.18-.324-.456-.594-.828-.81-.36-.216-.804-.324-1.332-.324-.636 0-1.176.192-1.62.576-.432.372-.732.876-.9 1.512h4.986zm3.819-3.51h1.89v1.35h.09c.204-.468.558-.852 1.062-1.152a2.994 2.994 0 011.602-.468c.444 0 .816.06 1.116.18v2.052c-.528-.192-1.002-.288-1.422-.288-.456 0-.864.12-1.224.36-.348.24-.624.564-.828.972a2.826 2.826 0 00-.306 1.314V81h-1.98v-9.18zm10.981 9.468c-.912 0-1.734-.21-2.466-.63a4.502 4.502 0 01-1.692-1.728c-.396-.744-.594-1.584-.594-2.52 0-.936.198-1.77.594-2.502a4.468 4.468 0 011.692-1.746c.732-.42 1.554-.63 2.466-.63 1.008 0 1.866.228 2.574.684a3.76 3.76 0 011.512 1.854l-1.818.756c-.408-.972-1.182-1.458-2.322-1.458-.492 0-.948.126-1.368.378a2.789 2.789 0 00-.99 1.08c-.24.456-.36.984-.36 1.584 0 .6.12 1.134.36 1.602.252.468.582.828.99 1.08.42.252.876.378 1.368.378.576 0 1.068-.126 1.476-.378.42-.264.738-.636.954-1.116l1.782.774a4.185 4.185 0 01-1.584 1.854c-.708.456-1.566.684-2.574.684zm8.634 0c-.66 0-1.248-.126-1.764-.378a2.97 2.97 0 01-1.206-1.098 3.087 3.087 0 01-.432-1.62c0-.948.354-1.698 1.062-2.25.72-.552 1.626-.828 2.718-.828.54 0 1.026.054 1.458.162.432.096.774.204 1.026.324v-.468c0-.564-.21-1.02-.63-1.368-.42-.36-.96-.54-1.62-.54a3.01 3.01 0 00-1.332.306 2.611 2.611 0 00-.99.846l-1.386-1.062A4.131 4.131 0 01283.864 72c.648-.312 1.368-.468 2.16-.468 1.332 0 2.358.33 3.078.99.72.648 1.08 1.566 1.08 2.754V81h-1.944v-1.098h-.09c-.264.396-.636.726-1.116.99-.48.264-1.032.396-1.656.396zm.342-1.638c.48 0 .912-.114 1.296-.342a2.492 2.492 0 001.224-2.16 4.004 4.004 0 00-.972-.378 4.383 4.383 0 00-1.134-.144c-.744 0-1.29.15-1.638.45-.348.288-.522.666-.522 1.134 0 .42.162.768.486 1.044.324.264.744.396 1.26.396zm6.622-7.83h1.89v1.35h.09c.204-.468.558-.852 1.062-1.152a2.994 2.994 0 011.602-.468c.444 0 .816.06 1.116.18v2.052c-.528-.192-1.002-.288-1.422-.288-.456 0-.864.12-1.224.36-.348.24-.624.564-.828.972a2.826 2.826 0 00-.306 1.314V81h-1.98v-9.18zm10.656 9.468c-.828 0-1.578-.21-2.25-.63a4.542 4.542 0 01-1.602-1.728c-.384-.744-.576-1.584-.576-2.52 0-.936.192-1.77.576-2.502a4.509 4.509 0 011.602-1.746 4.159 4.159 0 012.25-.63c.648 0 1.23.144 1.746.432.516.288.906.642 1.17 1.062h.09l-.09-1.296v-3.618h1.98V81h-1.89v-1.188h-.09c-.264.408-.654.756-1.17 1.044a3.52 3.52 0 01-1.746.432zm.288-1.818c.48 0 .924-.126 1.332-.378.42-.252.756-.612 1.008-1.08.252-.468.378-1.002.378-1.602 0-.6-.126-1.128-.378-1.584a2.742 2.742 0 00-1.008-1.08 2.487 2.487 0 00-1.332-.378c-.48 0-.93.126-1.35.378-.42.252-.756.612-1.008 1.08-.252.456-.378.984-.378 1.584 0 .6.126 1.134.378 1.602.252.468.588.828 1.008 1.08.42.252.87.378 1.35.378z" fill="#fff"/></g><defs><linearGradient id="paint0_linear_188_531" x1="166" y1="0" x2="166" y2="196" gradientUnits="userSpaceOnUse"><stop stop-color="#8D007F"/><stop offset="1" stop-color="#B6002C"/></linearGradient><clipPath id="clip0_188_531"><rect width="332" height="196" rx="25" fill="#fff"/></clipPath></defs></svg>