<svg width="25" height="24" viewBox="0 0 25 24" fill="none" xmlns="http://www.w3.org/2000/svg">
<path d="M12.5 0C10.1266 0 7.80655 0.703788 5.83316 2.02236C3.85977 3.34094 2.3217 5.21508 1.41345 7.4078C0.505199 9.60051 0.267559 12.0133 0.730582 14.3411C1.1936 16.6689 2.33649 18.807 4.01472 20.4853C5.69295 22.1635 7.83115 23.3064 10.1589 23.7694C12.4867 24.2324 14.8995 23.9948 17.0922 23.0865C19.2849 22.1783 21.1591 20.6402 22.4776 18.6668C23.7962 16.6934 24.5 14.3734 24.5 12C24.4963 8.81853 23.2309 5.76842 20.9812 3.51878C18.7316 1.26914 15.6815 0.00367709 12.5 0ZM18.2151 9.89874L11.4453 16.3603C11.2732 16.524 11.0447 16.6154 10.8071 16.6154C10.5695 16.6154 10.341 16.524 10.1689 16.3603L6.78486 13.1295C6.60807 12.9602 6.50572 12.7276 6.5003 12.4828C6.49488 12.238 6.58683 12.0011 6.75596 11.8241C6.92509 11.6471 7.15756 11.5445 7.40231 11.5387C7.64706 11.533 7.88408 11.6247 8.0613 11.7936L10.8071 14.4159L16.9387 8.5628C17.1159 8.3939 17.3529 8.30225 17.5977 8.30797C17.8425 8.3137 18.0749 8.41635 18.244 8.59336C18.4132 8.77037 18.5051 9.00727 18.4997 9.25203C18.4943 9.49679 18.3919 9.72939 18.2151 9.89874Z" fill="#0D8F5C"/>
</svg>
