<svg width="331" height="18" fill="none" xmlns="http://www.w3.org/2000/svg"><path d="M1.04 11.98c.248-.248.74-.744 1.476-1.488a88.318 88.318 0 001.536-1.596c.408-.44.684-.784.828-1.032.144-.248.216-.548.216-.9 0-.24-.064-.464-.192-.672-.12-.216-.3-.388-.54-.516-.232-.136-.512-.204-.84-.204-.432 0-.78.128-1.044.384-.256.248-.424.52-.504.816L1.04 6.4a2.6 2.6 0 01.432-.792 2.54 2.54 0 01.84-.708c.352-.2.768-.3 1.248-.3.504 0 .948.108 1.332.324.392.216.696.504.912.864.216.36.324.748.324 1.164 0 .84-.44 1.708-1.32 2.604l-2.46 2.472h3.876V13H1.04v-1.02zm9.7-7.572h.949L8.125 13h-.948l3.564-8.592zm5.088 6.828h-3.936v-.768l3.84-5.676h1.104v5.484h1.056v.96h-1.056V13h-1.008v-1.764zm0-.96V6.28h-.048l-2.724 3.996h2.772z" fill="#9390A0"/><rect x="22.5" y="7" width="65" height="4" rx="2" fill="#07AFF0"/><rect x="103.5" y="7" width="65" height="4" rx="2" fill="#07AFF0"/><rect x="184.5" y="7" width="65" height="4" rx="2" fill="#EFEFEF"/><rect x="265.5" y="7" width="65" height="4" rx="2" fill="#EFEFEF"/></svg>