<svg width="331" height="18" fill="none" xmlns="http://www.w3.org/2000/svg"><path d="M4.476 11.236H.54v-.768l3.84-5.676h1.104v5.484H6.54v.96H5.484V13H4.476v-1.764zm0-.96V6.28h-.048l-2.724 3.996h2.772zm6.562-5.868h.948L8.422 13h-.948l3.564-8.592zm5.086 6.828h-3.936v-.768l3.84-5.676h1.104v5.484h1.056v.96h-1.056V13h-1.008v-1.764zm0-.96V6.28h-.048l-2.724 3.996h2.772z" fill="#9390A0"/><rect x="23" y="7" width="65" height="4" rx="2" fill="#07AFF0"/><rect x="104" y="7" width="65" height="4" rx="2" fill="#07AFF0"/><rect x="185" y="7" width="65" height="4" rx="2" fill="#07AFF0"/><rect x="266" y="7" width="65" height="4" rx="2" fill="#07AFF0"/></svg>