<svg width="331" height="18" viewBox="0 0 331 18" fill="none" xmlns="http://www.w3.org/2000/svg">
<path d="M3.132 13.192C2.788 13.192 2.436 13.12 2.076 12.976C1.716 12.832 1.388 12.608 1.092 12.304C0.804 11.992 0.596 11.604 0.468 11.14L1.392 10.756C1.52 11.22 1.736 11.58 2.04 11.836C2.352 12.092 2.716 12.22 3.132 12.22C3.436 12.22 3.72 12.156 3.984 12.028C4.248 11.892 4.456 11.708 4.608 11.476C4.768 11.236 4.848 10.972 4.848 10.684C4.848 10.404 4.768 10.148 4.608 9.916C4.456 9.684 4.244 9.504 3.972 9.376C3.708 9.24 3.416 9.172 3.096 9.172H2.388V8.224H3.024C3.464 8.224 3.832 8.1 4.128 7.852C4.424 7.596 4.572 7.26 4.572 6.844C4.572 6.46 4.428 6.152 4.14 5.92C3.852 5.688 3.496 5.572 3.072 5.572C2.656 5.572 2.328 5.68 2.088 5.896C1.856 6.112 1.688 6.376 1.584 6.688L0.648 6.292C0.792 5.86 1.068 5.472 1.476 5.128C1.892 4.776 2.424 4.6 3.072 4.6C3.552 4.6 3.984 4.696 4.368 4.888C4.752 5.08 5.052 5.348 5.268 5.692C5.492 6.036 5.604 6.42 5.604 6.844C5.604 7.268 5.496 7.628 5.28 7.924C5.064 8.22 4.796 8.452 4.476 8.62V8.668C4.884 8.836 5.22 9.096 5.484 9.448C5.748 9.792 5.88 10.2 5.88 10.672C5.88 11.152 5.756 11.584 5.508 11.968C5.268 12.352 4.936 12.652 4.512 12.868C4.096 13.084 3.636 13.192 3.132 13.192ZM10.3579 4.408H11.3059L7.74188 13H6.79388L10.3579 4.408ZM15.4448 11.236H11.5088V10.468L15.3488 4.792H16.4528V10.276H17.5088V11.236H16.4528V13H15.4448V11.236ZM15.4448 10.276V6.28H15.3968L12.6728 10.276H15.4448Z" fill="#9390A0"/>
<rect x="23" y="7" width="65" height="4" rx="2" fill="#07AFF0"/>
<rect x="104" y="7" width="65" height="4" rx="2" fill="#07AFF0"/>
<rect x="185" y="7" width="65" height="4" rx="2" fill="#07AFF0"/>
<rect x="266" y="7" width="65" height="4" rx="2" fill="#EFEFEF"/>
</svg>
