<svg width="329" height="18" viewBox="0 0 329 18" fill="none" xmlns="http://www.w3.org/2000/svg">
<path d="M2.508 6.22L1.068 7.252L0.54 6.472L2.88 4.792H3.528V13H2.508V6.22ZM8.49459 4.408H9.44259L5.87859 13H4.93059L8.49459 4.408ZM13.5815 11.236H9.64547V10.468L13.4855 4.792H14.5895V10.276H15.6455V11.236H14.5895V13H13.5815V11.236ZM13.5815 10.276V6.28H13.5335L10.8095 10.276H13.5815Z" fill="#9390A0"/>
<rect x="21" y="7" width="65" height="4" rx="2" fill="#07AFF0"/>
<rect x="102" y="7" width="65" height="4" rx="2" fill="#EFEFEF"/>
<rect x="183" y="7" width="65" height="4" rx="2" fill="#EFEFEF"/>
<rect x="264" y="7" width="65" height="4" rx="2" fill="#EFEFEF"/>
</svg>
