<svg width="329" height="18" fill="none" xmlns="http://www.w3.org/2000/svg"><path d="M2.508 6.22l-1.44 1.032-.528-.78 2.34-1.68h.648V13h-1.02V6.22zm5.987-1.812h.948L5.879 13H4.93l3.564-8.592zm5.087 6.828H9.645v-.768l3.84-5.676h1.104v5.484h1.056v.96H14.59V13h-1.008v-1.764zm0-.96V6.28h-.049l-2.723 3.996h2.771z" fill="#9390A0"/><rect x="21" y="7" width="65" height="4" rx="2" fill="#07AFF0"/><rect x="102" y="7" width="65" height="4" rx="2" fill="#EFEFEF"/><rect x="183" y="7" width="65" height="4" rx="2" fill="#EFEFEF"/><rect x="264" y="7" width="65" height="4" rx="2" fill="#EFEFEF"/></svg>