<svg width="331" height="18" viewBox="0 0 331 18" fill="none" xmlns="http://www.w3.org/2000/svg">
<path d="M4.476 11.236H0.54V10.468L4.38 4.792H5.484V10.276H6.54V11.236H5.484V13H4.476V11.236ZM4.476 10.276V6.28H4.428L1.704 10.276H4.476ZM11.0376 4.408H11.9856L8.42156 13H7.47356L11.0376 4.408ZM16.1244 11.236H12.1884V10.468L16.0284 4.792H17.1324V10.276H18.1884V11.236H17.1324V13H16.1244V11.236ZM16.1244 10.276V6.28H16.0764L13.3524 10.276H16.1244Z" fill="#9390A0"/>
<rect x="23" y="7" width="65" height="4" rx="2" fill="#07AFF0"/>
<rect x="104" y="7" width="65" height="4" rx="2" fill="#07AFF0"/>
<rect x="185" y="7" width="65" height="4" rx="2" fill="#07AFF0"/>
<rect x="266" y="7" width="65" height="4" rx="2" fill="#07AFF0"/>
</svg>
