<svg width="29" height="28" fill="none" xmlns="http://www.w3.org/2000/svg"><path d="M2.187 15.151h9.126a1.52 1.52 0 001.52-1.508V1.575a1.52 1.52 0 00-1.52-1.509H2.187a1.52 1.52 0 00-1.52 1.509v12.068c0 .83.684 1.508 1.52 1.508zm0 12.068h9.126a1.52 1.52 0 001.52-1.508v-6.034a1.52 1.52 0 00-1.52-1.509H2.187a1.52 1.52 0 00-1.52 1.509v6.034c0 .83.684 1.508 1.52 1.508zm15.209 0h9.125a1.52 1.52 0 001.52-1.508V13.643a1.52 1.52 0 00-1.52-1.509h-9.125a1.52 1.52 0 00-1.521 1.509V25.71c0 .83.684 1.508 1.52 1.508zM15.875 1.575v6.034c0 .83.684 1.508 1.52 1.508h9.126a1.52 1.52 0 001.52-1.508V1.575a1.52 1.52 0 00-1.52-1.509h-9.125a1.52 1.52 0 00-1.521 1.509z" fill="#CACACA"/></svg>