<svg width="210" height="210" fill="none" xmlns="http://www.w3.org/2000/svg"><path fill="url(#paint0_linear_1768_1907)" d="M0 0h210v210H0z"/><path d="M120.199 78.74c0 .841-.058 1.682-.162 2.513.047-.334.095-.678.133-1.013a19.635 19.635 0 01-1.306 4.824c.124-.305.257-.611.381-.917a19.09 19.09 0 01-2.46 4.222l.601-.773a19.403 19.403 0 01-3.423 3.429l.772-.602a19.374 19.374 0 01-4.214 2.464c.305-.124.611-.258.916-.382a19.555 19.555 0 01-4.815 1.309c.333-.048.677-.096 1.01-.134-1.668.22-3.346.22-5.015 0 .334.048.677.096 1.011.134a19.553 19.553 0 01-4.815-1.309c.305.124.61.258.915.382a19.022 19.022 0 01-4.214-2.464l.773.602a19.402 19.402 0 01-3.423-3.43l.6.774a19.455 19.455 0 01-2.46-4.222c.124.306.258.612.382.917a19.635 19.635 0 01-1.306-4.823c.047.334.095.678.133 1.012a19.268 19.268 0 010-5.024 36.53 36.53 0 00-.133 1.012 19.635 19.635 0 011.306-4.824c-.124.306-.257.612-.382.917a19.077 19.077 0 012.46-4.222l-.6.774a19.402 19.402 0 013.422-3.43l-.772.603a19.403 19.403 0 014.214-2.465c-.305.124-.61.258-.915.382a19.553 19.553 0 014.815-1.308c-.334.047-.677.095-1.011.133 1.669-.22 3.347-.22 5.015 0a36.74 36.74 0 00-1.01-.133c1.659.229 3.27.668 4.815 1.308-.305-.124-.611-.258-.916-.382a18.994 18.994 0 014.214 2.465l-.772-.602a19.403 19.403 0 013.423 3.43l-.601-.775a19.448 19.448 0 012.46 4.222c-.124-.305-.257-.611-.381-.917a19.635 19.635 0 011.306 4.824 35.062 35.062 0 01-.133-1.012c.104.83.152 1.671.162 2.512.009 1.996 1.744 3.916 3.813 3.82 2.06-.095 3.824-1.68 3.814-3.82-.019-4.576-1.392-9.256-4.081-12.981-.724-1.003-1.496-1.987-2.355-2.876-.867-.897-1.821-1.671-2.812-2.426-1.802-1.375-3.814-2.388-5.95-3.171-8.609-3.162-18.992-.344-24.817 6.763-.801.974-1.564 1.987-2.213 3.076-.648 1.079-1.153 2.225-1.62 3.39-.877 2.16-1.326 4.452-1.507 6.773-.353 4.547.83 9.294 3.194 13.191 2.279 3.764 5.72 6.992 9.744 8.817 1.183.535 2.393 1.031 3.652 1.385 1.249.344 2.517.535 3.804.688 2.346.277 4.739.086 7.056-.383 8.8-1.795 16.17-9.39 17.533-18.301.201-1.3.353-2.598.353-3.917.01-1.996-1.764-3.916-3.814-3.82-2.059.067-3.794 1.652-3.794 3.792zm12.652 59.73H83.93c-2.164 0-4.329.019-6.493 0-.238 0-.477-.02-.705-.048.333.048.677.095 1.01.134a4.84 4.84 0 01-1.096-.306c.305.124.61.258.915.382a4.851 4.851 0 01-1.068-.63l.773.601a5.448 5.448 0 01-.782-.783l.6.774a5.266 5.266 0 01-.629-1.07c.124.306.258.611.382.917a5.513 5.513 0 01-.306-1.099c.048.335.096.679.134 1.013-.153-1.156-.048-2.378-.048-3.544v-4.088c0-1.022.057-2.035.19-3.047-.047.334-.094.678-.133 1.012a22.37 22.37 0 011.554-5.702c-.123.305-.257.611-.38.917a22.47 22.47 0 012.85-4.872l-.6.774a22.651 22.651 0 013.966-3.974l-.773.602a22.4 22.4 0 014.863-2.856c-.305.124-.61.258-.915.382a22.584 22.584 0 015.691-1.557c-.333.048-.677.096-1.01.134 1.41-.182 2.812-.191 4.233-.191h17.448c1.573 0 3.137-.01 4.71.191a34.974 34.974 0 00-1.011-.134c1.955.268 3.871.783 5.692 1.557-.305-.124-.61-.258-.915-.382 1.735.745 3.366 1.7 4.862 2.856l-.772-.602a22.636 22.636 0 013.966 3.974l-.6-.774a22.51 22.51 0 012.851 4.872c-.124-.306-.258-.612-.382-.917a22.653 22.653 0 011.554 5.702 38.92 38.92 0 01-.133-1.012c.181 1.442.19 2.875.19 4.327v4.728c0 .545.02 1.089-.047 1.624.047-.334.095-.678.133-1.013a4.788 4.788 0 01-.305 1.099c.124-.306.258-.611.382-.917a4.881 4.881 0 01-.63 1.07l.601-.774a5.46 5.46 0 01-.782.783l.772-.601a5.262 5.262 0 01-1.067.63c.305-.124.61-.258.915-.382a5.536 5.536 0 01-1.097.306c.334-.048.677-.096 1.011-.134-.21.028-.429.038-.648.048a3.972 3.972 0 00-2.698 1.117c-.658.659-1.164 1.748-1.116 2.703.095 2.045 1.678 3.85 3.814 3.821a8.545 8.545 0 008.056-6.046c.429-1.414.334-2.933.334-4.385 0-3.324.105-6.619-.467-9.915-.839-4.823-3.261-9.361-6.579-12.923-3.318-3.563-7.78-6.181-12.499-7.346-2.708-.669-5.435-.774-8.2-.774H96.582c-2.832 0-5.644.134-8.4.87-4.681 1.241-9.086 3.887-12.337 7.479-3.28 3.62-5.654 8.167-6.426 13.019-.515 3.257-.41 6.524-.41 9.81 0 1.509-.086 3.085.457 4.528.706 1.853 1.831 3.314 3.48 4.413 1.288.85 2.918 1.261 4.444 1.28.743.009 1.487 0 2.23 0h53.24c1.993 0 3.909-1.758 3.814-3.821-.095-2.082-1.678-3.83-3.823-3.83z" fill="#fff"/><defs><linearGradient id="paint0_linear_1768_1907" x1="105" y1="0" x2="105" y2="210" gradientUnits="userSpaceOnUse"><stop stop-color="#024EC9"/><stop offset="1" stop-color="#0047B6"/></linearGradient></defs></svg>