<svg width="35" height="76" viewBox="0 0 15 46" fill="none" xmlns="http://www.w3.org/2000/svg">
<circle cx="7.5" cy="7.5" r="7" stroke="#024EC9" stroke-dasharray="2 2"/>
<circle cx="7.5" cy="38.5" r="7" stroke="#024EC9" stroke-dasharray="2 2"/>
<line x1="7.5" y1="16" x2="7.5" y2="30" stroke="#024EC9" stroke-dasharray="2 2"/>
<path d="M6.981 4.988H8.066L9.949 10H8.906L8.486 8.803H6.568L6.148 10H5.105L6.981 4.988ZM8.178 7.935L7.737 6.675L7.555 6.073H7.499L7.317 6.675L6.869 7.935H8.178Z" fill="#024EC9"/>
<path d="M5.574 35.988H7.534C7.814 35.988 8.07067 36.0463 8.304 36.163C8.542 36.2797 8.72867 36.4383 8.864 36.639C8.99933 36.8397 9.067 37.059 9.067 37.297C9.067 37.549 9.004 37.7683 8.878 37.955C8.75667 38.137 8.59567 38.277 8.395 38.375V38.431C8.65633 38.5243 8.864 38.6737 9.018 38.879C9.172 39.0797 9.249 39.3223 9.249 39.607C9.249 39.8823 9.17433 40.1273 9.025 40.342C8.88033 40.552 8.682 40.7153 8.43 40.832C8.18267 40.944 7.90733 41 7.604 41H5.574V35.988ZM7.464 38.032C7.66933 38.032 7.83267 37.976 7.954 37.864C8.08 37.7473 8.143 37.6027 8.143 37.43C8.143 37.262 8.08233 37.122 7.961 37.01C7.84433 36.8933 7.688 36.835 7.492 36.835H6.519V38.032H7.464ZM7.569 40.139C7.79767 40.139 7.975 40.0807 8.101 39.964C8.23167 39.8427 8.297 39.6863 8.297 39.495C8.297 39.3037 8.23167 39.1473 8.101 39.026C7.97033 38.9047 7.78367 38.844 7.541 38.844H6.519V40.139H7.569Z" fill="#024EC9"/>
</svg>
