<svg width="22" height="71" fill="none" xmlns="http://www.w3.org/2000/svg"><g clip-path="url(#clip0_486_3183)"><path d="M10.87 21.646c6.003 0 10.87-4.845 10.87-10.823C21.74 4.846 16.872 0 10.87 0 4.866 0 0 4.846 0 10.823c0 5.978 4.866 10.823 10.87 10.823zM11.131 71c6.003 0 10.87-4.846 10.87-10.823 0-5.978-4.867-10.824-10.87-10.824-6.003 0-10.87 4.846-10.87 10.824C.262 66.154 5.129 71 11.132 71z" fill="#024EC9"/><path d="M11.043 22.945v25.197" stroke="#024EC9"/><path d="M12.156 6.746v8.06H9.96V8.76h-.05L8.14 9.814V7.958l1.992-1.212h2.023zM8.19 64.333V62.76l3.02-2.487c.2-.166.37-.32.513-.465.145-.147.256-.298.332-.453.079-.154.119-.326.119-.515a.998.998 0 00-.135-.531.87.87 0 00-.364-.339 1.143 1.143 0 00-.537-.122c-.203 0-.382.04-.538.122a.85.85 0 00-.355.358 1.2 1.2 0 00-.127.575H8.031c0-.567.128-1.055.384-1.464.255-.41.616-.724 1.083-.945.466-.22 1.013-.33 1.64-.33.648 0 1.21.103 1.684.31.477.205.844.494 1.103.866.26.373.39.81.39 1.311 0 .31-.064.618-.193.925-.129.304-.36.641-.695 1.011-.335.37-.81.811-1.427 1.323l-.76.63v.047h3.163v1.747H8.189z" fill="#fff"/></g><defs><clipPath id="clip0_486_3183"><path fill="#fff" d="M0 0h22v71H0z"/></clipPath></defs></svg>