<svg width="23" height="23" viewBox="0 0 23 23" fill="none" xmlns="http://www.w3.org/2000/svg">
<path fill-rule="evenodd" clip-rule="evenodd" d="M11.5 22.75C17.7134 22.75 22.75 17.7134 22.75 11.5C22.75 5.28663 17.7134 0.25 11.5 0.25C5.28663 0.25 0.25 5.28663 0.25 11.5C0.25 17.7134 5.28663 22.75 11.5 22.75ZM10.375 7C10.375 6.70163 10.4935 6.41548 10.7045 6.2045C10.9155 5.99353 11.2016 5.875 11.5 5.875C11.7984 5.875 12.0845 5.99353 12.2955 6.2045C12.5065 6.41548 12.625 6.70163 12.625 7V10.375H16C16.2984 10.375 16.5845 10.4935 16.7955 10.7045C17.0065 10.9155 17.125 11.2016 17.125 11.5C17.125 11.7984 17.0065 12.0845 16.7955 12.2955C16.5845 12.5065 16.2984 12.625 16 12.625H12.625V16C12.625 16.2984 12.5065 16.5845 12.2955 16.7955C12.0845 17.0065 11.7984 17.125 11.5 17.125C11.2016 17.125 10.9155 17.0065 10.7045 16.7955C10.4935 16.5845 10.375 16.2984 10.375 16V12.625H7C6.70163 12.625 6.41548 12.5065 6.2045 12.2955C5.99353 12.0845 5.875 11.7984 5.875 11.5C5.875 11.2016 5.99353 10.9155 6.2045 10.7045C6.41548 10.4935 6.70163 10.375 7 10.375H10.375V7Z" fill="#B7C6CE"/>
</svg>
