<svg width="12" height="12" viewBox="0 0 32 32" fill="none" xmlns="http://www.w3.org/2000/svg">
<path d="M16 0C7.2 0 0 7.2 0 16C0 24.8 7.2 32 16 32C24.8 32 32 24.8 32 16C32 7.2 24.8 0 16 0ZM21.92 19.68C22.56 20.32 22.56 21.28 21.92 21.92C21.28 22.56 20.32 22.56 19.68 21.92L16 18.24L12.32 21.92C11.68 22.56 10.72 22.56 10.08 21.92C9.44 21.28 9.44 20.32 10.08 19.68L13.76 16L10.08 12.32C9.44 11.68 9.44 10.72 10.08 10.08C10.72 9.44 11.68 9.44 12.32 10.08L16 13.76L19.68 10.08C20.32 9.44 21.28 9.44 21.92 10.08C22.56 10.72 22.56 11.68 21.92 12.32L18.24 16L21.92 19.68Z" fill="#D10000"/>
</svg>
