<svg width="245" height="211" fill="none" xmlns="http://www.w3.org/2000/svg"><path d="M222.052 211.001H22.948a23.08 23.08 0 01-8.782-1.736 22.953 22.953 0 01-7.445-4.944A22.73 22.73 0 010 188.196V32.462h222.052a23.023 23.023 0 0116.227 6.68A22.734 22.734 0 01245 55.265v132.93a22.733 22.733 0 01-6.721 16.125 23.023 23.023 0 01-16.227 6.68zM16.333 48.693v139.503c0 1.744.697 3.416 1.938 4.649a6.64 6.64 0 004.677 1.925h199.104a6.638 6.638 0 004.677-1.925 6.553 6.553 0 001.938-4.649V55.266a6.551 6.551 0 00-1.938-4.648 6.635 6.635 0 00-4.677-1.925H16.333z" fill="#024EC9"/><path d="M135.73 48.693H0V22.805A22.732 22.732 0 016.721 6.68 23.022 23.022 0 0122.948 0H97.02a22.973 22.973 0 0112.098 3.368 22.77 22.77 0 018.482 9.211l18.13 36.114zM16.333 32.462h92.937l-6.37-12.579a6.59 6.59 0 00-2.42-2.653 6.645 6.645 0 00-3.46-.999H22.948a6.637 6.637 0 00-4.677 1.925 6.553 6.553 0 00-1.938 4.649v9.657z" fill="#024EC9"/></svg>