<svg width="15" height="14" viewBox="0 0 15 14" fill="none" xmlns="http://www.w3.org/2000/svg">
<path d="M0.5 2.49953H0.571C0.680136 2.92832 0.929029 3.30853 1.27836 3.58009C1.62769 3.85164 2.05754 3.99906 2.5 3.99906C2.94246 3.99906 3.37231 3.85164 3.72164 3.58009C4.07097 3.30853 4.31986 2.92832 4.429 2.49953H14.5C14.6326 2.49953 14.7598 2.44685 14.8536 2.35309C14.9473 2.25932 15 2.13214 15 1.99953C15 1.86692 14.9473 1.73975 14.8536 1.64598C14.7598 1.55221 14.6326 1.49953 14.5 1.49953H4.429C4.31986 1.07074 4.07097 0.690534 3.72164 0.418978C3.37231 0.147423 2.94246 0 2.5 0C2.05754 0 1.62769 0.147423 1.27836 0.418978C0.929029 0.690534 0.680136 1.07074 0.571 1.49953H0.5C0.367392 1.49953 0.240215 1.55221 0.146447 1.64598C0.0526784 1.73975 0 1.86692 0 1.99953C0 2.13214 0.0526784 2.25932 0.146447 2.35309C0.240215 2.44685 0.367392 2.49953 0.5 2.49953ZM2.5 0.999532C2.69778 0.999532 2.89112 1.05818 3.05557 1.16806C3.22002 1.27794 3.34819 1.43412 3.42388 1.61685C3.49957 1.79957 3.51937 2.00064 3.48079 2.19462C3.4422 2.3886 3.34696 2.56679 3.20711 2.70664C3.06725 2.84649 2.88907 2.94173 2.69509 2.98032C2.50111 3.0189 2.30004 2.9991 2.11732 2.92341C1.93459 2.84772 1.77841 2.71955 1.66853 2.5551C1.55865 2.39065 1.5 2.19731 1.5 1.99953C1.5 1.73432 1.60536 1.47996 1.79289 1.29243C1.98043 1.10489 2.23478 0.999532 2.5 0.999532ZM14.5 6.49953H14.429C14.3199 6.07074 14.071 5.69053 13.7216 5.41898C13.3723 5.14742 12.9425 5 12.5 5C12.0575 5 11.6277 5.14742 11.2784 5.41898C10.929 5.69053 10.6801 6.07074 10.571 6.49953H0.5C0.367392 6.49953 0.240215 6.55221 0.146447 6.64598C0.0526784 6.73975 0 6.86692 0 6.99953C0 7.13214 0.0526784 7.25932 0.146447 7.35309C0.240215 7.44685 0.367392 7.49953 0.5 7.49953H10.571C10.6801 7.92832 10.929 8.30853 11.2784 8.58009C11.6277 8.85164 12.0575 8.99907 12.5 8.99907C12.9425 8.99907 13.3723 8.85164 13.7216 8.58009C14.071 8.30853 14.3199 7.92832 14.429 7.49953H14.5C14.6326 7.49953 14.7598 7.44685 14.8536 7.35309C14.9473 7.25932 15 7.13214 15 6.99953C15 6.86692 14.9473 6.73975 14.8536 6.64598C14.7598 6.55221 14.6326 6.49953 14.5 6.49953ZM12.5 7.99953C12.3022 7.99953 12.1089 7.94088 11.9444 7.831C11.78 7.72112 11.6518 7.56494 11.5761 7.38222C11.5004 7.19949 11.4806 6.99842 11.5192 6.80444C11.5578 6.61046 11.653 6.43228 11.7929 6.29243C11.9327 6.15257 12.1109 6.05733 12.3049 6.01875C12.4989 5.98016 12.7 5.99996 12.8827 6.07565C13.0654 6.15134 13.2216 6.27951 13.3315 6.44396C13.4414 6.60841 13.5 6.80175 13.5 6.99953C13.5 7.26475 13.3946 7.5191 13.2071 7.70664C13.0196 7.89418 12.7652 7.99953 12.5 7.99953ZM14.5 11.4995H9.429C9.31987 11.0707 9.07097 10.6905 8.72164 10.419C8.37231 10.1474 7.94246 10 7.5 10C7.05754 10 6.62769 10.1474 6.27836 10.419C5.92903 10.6905 5.68014 11.0707 5.571 11.4995H0.5C0.367392 11.4995 0.240215 11.5522 0.146447 11.646C0.0526784 11.7397 0 11.8669 0 11.9995C0 12.1321 0.0526784 12.2593 0.146447 12.3531C0.240215 12.4469 0.367392 12.4995 0.5 12.4995H5.571C5.68014 12.9283 5.92903 13.3085 6.27836 13.5801C6.62769 13.8516 7.05754 13.9991 7.5 13.9991C7.94246 13.9991 8.37231 13.8516 8.72164 13.5801C9.07097 13.3085 9.31987 12.9283 9.429 12.4995H14.5C14.6326 12.4995 14.7598 12.4469 14.8536 12.3531C14.9473 12.2593 15 12.1321 15 11.9995C15 11.8669 14.9473 11.7397 14.8536 11.646C14.7598 11.5522 14.6326 11.4995 14.5 11.4995ZM7.5 12.9995C7.30222 12.9995 7.10888 12.9409 6.94443 12.831C6.77998 12.7211 6.65181 12.5649 6.57612 12.3822C6.50043 12.1995 6.48063 11.9984 6.51922 11.8044C6.5578 11.6105 6.65304 11.4323 6.79289 11.2924C6.93275 11.1526 7.11093 11.0573 7.30491 11.0187C7.49889 10.9802 7.69996 11 7.88268 11.0757C8.06541 11.1513 8.22159 11.2795 8.33147 11.444C8.44135 11.6084 8.5 11.8018 8.5 11.9995C8.5 12.2647 8.39464 12.5191 8.20711 12.7066C8.01957 12.8942 7.76522 12.9995 7.5 12.9995Z" fill="#707070"/>
</svg>
