<svg width="17" height="20" fill="none" xmlns="http://www.w3.org/2000/svg"><path d="M9 20l-.25-3H8.5c-2.367 0-4.375-.825-6.025-2.475C.825 12.875 0 10.867 0 8.5c0-2.367.825-4.375 2.475-6.025C4.125.825 6.133 0 8.5 0a8.28 8.28 0 013.313.662 8.585 8.585 0 014.524 4.526A8.28 8.28 0 0117 8.5c0 1.25-.204 2.45-.613 3.6a12.739 12.739 0 01-1.675 3.2 14.164 14.164 0 01-2.524 2.675A15.65 15.65 0 019 20zm2-3.65c1.183-1 2.146-2.17 2.887-3.513A8.822 8.822 0 0015 8.5c0-1.817-.63-3.354-1.887-4.612C11.854 2.629 10.317 2 8.5 2c-1.817 0-3.354.63-4.612 1.888C2.629 5.146 2 6.683 2 8.5c0 1.817.63 3.354 1.888 4.613C5.146 14.37 6.683 15 8.5 15H11v1.35zm-2.525-2.375c.283 0 .525-.1.725-.3.2-.2.3-.442.3-.725s-.1-.525-.3-.725c-.2-.2-.442-.3-.725-.3s-.525.1-.725.3c-.2.2-.3.442-.3.725s.1.525.3.725c.2.2.442.3.725.3zM7.75 10.8h1.5c0-.5.05-.85.15-1.05.1-.2.417-.567.95-1.1.3-.3.55-.625.75-.975.2-.35.3-.725.3-1.125 0-.85-.287-1.487-.863-1.912C9.963 4.213 9.284 4 8.5 4c-.733 0-1.35.204-1.85.612-.5.409-.85.905-1.05 1.488l1.4.55a2.32 2.32 0 01.475-.838C7.708 5.537 8.05 5.4 8.5 5.4c.45 0 .787.125 1.012.375.226.25.338.525.338.825 0 .283-.083.538-.25.763a6.2 6.2 0 01-.6.687c-.583.5-.938.896-1.063 1.188-.125.291-.187.812-.187 1.562z" fill="#1C1B1F"/></svg>