<svg width="633" height="633" viewBox="0 0 633 633" fill="none" xmlns="http://www.w3.org/2000/svg">
<circle cx="316.5" cy="316.5" r="316.5" fill="url(#paint0_linear_1061_1982)"/>
<path d="M460.75 203.5C462.408 203.5 463.997 202.842 465.169 201.669C466.342 200.497 467 198.908 467 197.25V172.25C467 170.592 466.342 169.003 465.169 167.831C463.997 166.658 462.408 166 460.75 166H173.25C171.592 166 170.003 166.658 168.831 167.831C167.658 169.003 167 170.592 167 172.25V197.25C167 198.908 167.658 200.497 168.831 201.669C170.003 202.842 171.592 203.5 173.25 203.5H179.5V403.5H173.25C171.592 403.5 170.003 404.158 168.831 405.331C167.658 406.503 167 408.092 167 409.75V434.75C167 436.408 167.658 437.997 168.831 439.169C170.003 440.342 171.592 441 173.25 441H179.5V459.75C179.5 461.408 180.158 462.997 181.331 464.169C182.503 465.342 184.092 466 185.75 466H210.75C212.408 466 213.997 465.342 215.169 464.169C216.342 462.997 217 461.408 217 459.75V441H417V459.75C417 461.408 417.658 462.997 418.831 464.169C420.003 465.342 421.592 466 423.25 466H448.25C449.908 466 451.497 465.342 452.669 464.169C453.842 462.997 454.5 461.408 454.5 459.75V441H460.75C462.408 441 463.997 440.342 465.169 439.169C466.342 437.997 467 436.408 467 434.75V409.75C467 408.092 466.342 406.503 465.169 405.331C463.997 404.158 462.408 403.5 460.75 403.5H454.5V203.5H460.75ZM179.5 178.5H454.5V191H179.5V178.5ZM192 203.5H310.75V403.5H192V203.5ZM204.5 453.5H192V441H204.5V453.5ZM442 453.5H429.5V441H442V453.5ZM454.5 428.5H179.5V416H454.5V428.5ZM442 403.5H323.25V203.5H442V403.5Z" fill="white"/>
<path d="M342 322.25C343.658 322.25 345.247 321.592 346.419 320.419C347.592 319.247 348.25 317.658 348.25 316V291C348.25 289.342 347.592 287.753 346.419 286.581C345.247 285.408 343.658 284.75 342 284.75C340.342 284.75 338.753 285.408 337.581 286.581C336.408 287.753 335.75 289.342 335.75 291V316C335.75 317.658 336.408 319.247 337.581 320.419C338.753 321.592 340.342 322.25 342 322.25ZM292 284.75C290.342 284.75 288.753 285.408 287.581 286.581C286.408 287.753 285.75 289.342 285.75 291V316C285.75 317.658 286.408 319.247 287.581 320.419C288.753 321.592 290.342 322.25 292 322.25C293.658 322.25 295.247 321.592 296.419 320.419C297.592 319.247 298.25 317.658 298.25 316V291C298.25 289.342 297.592 287.753 296.419 286.581C295.247 285.408 293.658 284.75 292 284.75Z" fill="white"/>
<defs>
<linearGradient id="paint0_linear_1061_1982" x1="-68.4868" y1="381.809" x2="701.487" y2="388.191" gradientUnits="userSpaceOnUse">
<stop stop-color="#024EC9"/>
<stop offset="1" stop-color="#3884FF"/>
</linearGradient>
</defs>
</svg>
