<svg width="73" height="73" fill="none" xmlns="http://www.w3.org/2000/svg"><path d="M30.059 31.49c-.79 0-1.431.641-1.431 1.432v2.862a1.431 1.431 0 002.862 0v-2.862c0-.791-.64-1.432-1.431-1.432zm12.882 0c-.79 0-1.431.641-1.431 1.432v2.862a1.432 1.432 0 002.863 0v-2.862c0-.791-.641-1.432-1.432-1.432zM22.544 51.53h-2.863a1.431 1.431 0 000 2.862h2.863a1.431 1.431 0 100-2.863zm30.775 0h-2.863a1.432 1.432 0 000 2.862h2.863a1.431 1.431 0 000-2.863z" fill="#024EC9"/><path d="M67.274 7.157c-.79 0-1.431.64-1.431 1.431v37.216H37.931V8.588a1.431 1.431 0 00-2.862 0v37.216H7.157V8.588a1.431 1.431 0 00-2.863 0v57.255c0 .79.64 1.431 1.431 1.431h1.432v4.295c0 .79.64 1.431 1.431 1.431h5.726c.656 0 1.229-.447 1.388-1.084l1.16-4.641h39.275l1.16 4.64c.16.638.732 1.085 1.39 1.085h5.725c.79 0 1.431-.641 1.431-1.431v-4.294h1.431c.79 0 1.432-.642 1.432-1.432V8.588c0-.79-.641-1.431-1.432-1.431zm-1.431 50.098H37.931v-8.588h27.912v8.588zm-30.775-8.588v8.588H7.157v-8.588h27.912zm-21.872 21.47h-3.177v-2.862h3.893l-.716 2.862zm49.784 0h-3.176l-.716-2.862h3.892v2.862zM7.157 64.412v-4.294h58.686v4.294H7.157z" fill="#024EC9"/><path d="M71.569 0H1.43C.641 0 0 .64 0 1.431v7.157c0 .79.64 1.432 1.431 1.432H71.57c.79 0 1.431-.641 1.431-1.432V1.431A1.433 1.433 0 0071.569 0zm-1.432 7.157H2.863V2.863h67.274v4.294z" fill="#024EC9"/></svg>