<svg width="27" height="27" fill="none" xmlns="http://www.w3.org/2000/svg"><path d="M13.5 0C6.045 0 0 6.044 0 13.5A13.5 13.5 0 0013.5 27C20.956 27 27 20.956 27 13.5S20.955 0 13.5 0zm1.26 4.874c1.317 0 1.704.763 1.704 1.637 0 1.09-.872 2.098-2.361 2.098-1.246 0-1.84-.626-1.803-1.662 0-.874.73-2.073 2.46-2.073zm-3.371 16.71c-.9 0-1.557-.546-.928-2.944l1.03-4.253c.179-.681.208-.954 0-.954-.268 0-1.437.47-2.126.934l-.448-.736c2.186-1.826 4.7-2.898 5.776-2.898.9 0 1.05 1.063.6 2.7l-1.18 4.472c-.21.79-.12 1.063.09 1.063.27 0 1.152-.326 2.021-1.011l.51.683c-2.128 2.126-4.447 2.945-5.345 2.945z" fill="#A4A4A4"/></svg>