<svg width="820" height="820" fill="none" xmlns="http://www.w3.org/2000/svg"><rect width="820" height="820" rx="133" fill="#F66711"/><path d="M560.681 672.011H258.318a64.895 64.895 0 01-64.82-64.82V401.032c0-88.8 72.247-161.047 161.047-161.047h109.932c88.8 0 161.047 72.247 161.047 161.047v206.159a64.899 64.899 0 01-64.843 64.82zM354.534 273.09a128.089 128.089 0 00-127.942 127.942v206.159a31.747 31.747 0 0031.726 31.715h302.363a31.75 31.75 0 0031.715-31.715V401.032a128.086 128.086 0 00-127.93-127.942H354.534z" fill="#fff"/><path d="M626.705 521.293H608.96a16.552 16.552 0 01-16.552-16.553v-97.484a16.554 16.554 0 0116.552-16.553h17.745a65.298 65.298 0 0146.171 19.124 65.298 65.298 0 010 92.341 65.295 65.295 0 01-46.171 19.125zm-1.192-33.106h1.192a32.187 32.187 0 100-64.379h-1.192v64.379zM210.04 521.293h-17.745a65.295 65.295 0 010-130.59h17.745a16.552 16.552 0 0116.552 16.553v97.484a16.556 16.556 0 01-16.552 16.553zm-17.745-97.485a32.19 32.19 0 000 64.379h1.192v-64.379h-1.192zM409.5 273.09a16.556 16.556 0 01-16.553-16.553v-66.486a16.554 16.554 0 0128.258-11.705 16.554 16.554 0 014.848 11.705v66.486A16.554 16.554 0 01409.5 273.09z" fill="#fff"/><path d="M409.5 206.603a49.796 49.796 0 01-46.019-30.735 49.797 49.797 0 01-2.838-28.775 49.795 49.795 0 0139.126-39.135 49.795 49.795 0 0151.127 21.174 49.8 49.8 0 018.394 27.67 49.846 49.846 0 01-49.79 49.801zm0-66.486a16.693 16.693 0 00-16.387 19.95 16.697 16.697 0 0033.072-3.265 16.708 16.708 0 00-16.685-16.685zm83.105 398.92h-33.237a16.554 16.554 0 01-16.553-16.552 16.554 16.554 0 0116.553-16.553h33.237a16.553 16.553 0 110 33.105z" fill="#fff"/><path d="M559.093 539.037h-33.238a16.554 16.554 0 01-16.553-16.552 16.554 16.554 0 0116.553-16.553h33.238a16.552 16.552 0 010 33.105zm0-66.486h-33.238a16.551 16.551 0 01-16.553-16.553 16.556 16.556 0 0116.553-16.553h33.238a16.552 16.552 0 010 33.106zm49.867 132.973H210.04a16.553 16.553 0 110-33.105h398.92a16.553 16.553 0 110 33.105zm-282.566-83.106a16.544 16.544 0 01-11.708-4.855l-49.868-49.857a16.547 16.547 0 01-4.844-11.708v-41.559a58.165 58.165 0 0158.111-58.1h116.343a58.12 58.12 0 0141.608 16.733 58.122 58.122 0 0117.304 41.373 58.101 58.101 0 01-17.304 41.373 58.12 58.12 0 01-41.608 16.733h-65.935l-28.327 42.496a16.56 16.56 0 01-5.251 5.005 16.562 16.562 0 01-6.888 2.278c-.551.055-1.092.088-1.633.088zm-33.315-73.317l30.744 30.733 22.07-33.106a16.565 16.565 0 0113.772-7.371h74.797a25.001 25.001 0 0023.576-15.31 24.998 24.998 0 000-19.381 24.996 24.996 0 00-23.576-15.309H318.085a25.025 25.025 0 00-25.006 24.994v34.75z" fill="#fff"/></svg>