<svg width="22" height="27" fill="none" xmlns="http://www.w3.org/2000/svg"><path d="M12.375 16.2h-5.5c-.365 0-.714.142-.972.395a1.338 1.338 0 00-.403.955c0 .358.145.701.403.955.258.253.607.395.972.395h5.5c.365 0 .714-.142.972-.395.258-.254.403-.597.403-.955s-.145-.701-.403-.955a1.388 1.388 0 00-.972-.395zm5.5-13.5h-1.622A4.059 4.059 0 0014.75.746 4.177 4.177 0 0012.375 0h-2.75A4.177 4.177 0 007.25.746 4.059 4.059 0 005.747 2.7H4.125a4.164 4.164 0 00-2.917 1.186A4.013 4.013 0 000 6.75v16.2c0 1.074.435 2.104 1.208 2.864A4.164 4.164 0 004.125 27h13.75a4.164 4.164 0 002.917-1.186A4.013 4.013 0 0022 22.95V6.75a4.013 4.013 0 00-1.208-2.864A4.164 4.164 0 0017.875 2.7zM8.25 4.05c0-.358.145-.701.403-.955.258-.253.607-.395.972-.395h2.75c.365 0 .714.142.972.395.258.254.403.597.403.955V5.4h-5.5V4.05zm11 18.9c0 .358-.145.701-.403.955a1.388 1.388 0 01-.972.395H4.125c-.365 0-.714-.142-.972-.395a1.338 1.338 0 01-.403-.955V6.75c0-.358.145-.701.403-.955.258-.253.607-.395.972-.395H5.5v1.35c0 .358.145.701.403.955.258.253.607.395.972.395h8.25c.365 0 .714-.142.972-.395a1.34 1.34 0 00.403-.955V5.4h1.375c.365 0 .714.142.972.395.258.254.403.597.403.955v16.2zM15.125 10.8h-8.25c-.365 0-.714.142-.972.395a1.338 1.338 0 00-.403.955c0 .358.145.701.403.955.258.253.607.395.972.395h8.25c.365 0 .714-.142.972-.395.258-.254.403-.597.403-.955s-.145-.701-.403-.955a1.388 1.388 0 00-.972-.395z" fill="#fff"/></svg>