<svg width="16" height="17" fill="none" xmlns="http://www.w3.org/2000/svg"><path d="M7.95 9.031a.987.987 0 00-.663 1.729v.92a.662.662 0 101.325 0v-.92a.987.987 0 00-.663-1.729zm3.312-2.65V5.056a3.312 3.312 0 00-6.625 0v1.325A1.987 1.987 0 002.65 8.37v4.637a1.987 1.987 0 001.987 1.987h6.625a1.987 1.987 0 001.987-1.987V8.369a1.987 1.987 0 00-1.987-1.988zm-5.3-1.325a1.987 1.987 0 013.975 0v1.325H5.962V5.056zm5.962 7.95a.662.662 0 01-.662.662H4.637a.663.663 0 01-.662-.662V8.369a.662.662 0 01.662-.663h6.625a.662.662 0 01.662.663v4.637z" fill="#9390A0"/></svg>