<svg width="265" height="115" fill="none" xmlns="http://www.w3.org/2000/svg"><path d="M69.636 69.275c-2.36 0-4.506-.55-6.438-1.651a12.282 12.282 0 01-4.517-4.584c-1.101-1.933-1.652-4.057-1.652-6.371 0-2.315.55-4.438 1.652-6.371a12.03 12.03 0 014.517-4.55c1.932-1.124 4.078-1.686 6.438-1.686 2.36 0 4.494.562 6.404 1.686a11.96 11.96 0 014.551 4.55c1.101 1.933 1.652 4.056 1.652 6.37 0 2.315-.55 4.439-1.652 6.372a12.206 12.206 0 01-4.55 4.584c-1.91 1.101-4.045 1.651-6.405 1.651zm0-4.314c1.483 0 2.843-.348 4.079-1.045a7.427 7.427 0 002.899-2.933c.719-1.258 1.078-2.696 1.078-4.314 0-1.618-.36-3.056-1.078-4.315a7.427 7.427 0 00-2.9-2.932c-1.235-.697-2.595-1.045-4.078-1.045s-2.843.348-4.079 1.045c-1.213.696-2.18 1.674-2.899 2.932-.696 1.259-1.044 2.697-1.044 4.315 0 1.618.348 3.056 1.044 4.314.72 1.259 1.686 2.236 2.9 2.933 1.235.697 2.595 1.045 4.078 1.045zm16.175-13.416h4.146v2.09h.27c.471-.741 1.157-1.36 2.055-1.854.9-.517 1.933-.775 3.102-.775 1.55 0 2.955.393 4.213 1.18 1.281.764 2.281 1.842 3 3.236.719 1.393 1.079 2.966 1.079 4.719 0 1.775-.36 3.36-1.079 4.753-.719 1.37-1.719 2.449-3 3.235-1.258.764-2.663 1.146-4.213 1.146-1.169 0-2.214-.247-3.135-.741-.9-.494-1.573-1.112-2.023-1.854h-.27l.27 2.427v6.91h-4.415V51.545zm8.797 13.652c.832 0 1.607-.214 2.326-.64a4.694 4.694 0 001.72-1.787c.426-.764.64-1.64.64-2.63 0-.988-.214-1.864-.64-2.629-.428-.764-1-1.348-1.72-1.752a4.476 4.476 0 00-2.326-.64c-.809 0-1.573.213-2.292.64-.719.404-1.292.989-1.719 1.752-.427.764-.64 1.64-.64 2.63 0 .989.213 1.865.64 2.629.427.764 1 1.36 1.72 1.786a4.41 4.41 0 002.291.64zm20.527 4.078c-1.708 0-3.247-.393-4.618-1.18a8.605 8.605 0 01-3.236-3.235c-.764-1.393-1.146-2.955-1.146-4.686 0-1.64.382-3.157 1.146-4.55a8.787 8.787 0 013.169-3.37c1.348-.832 2.854-1.248 4.516-1.248 1.776 0 3.304.382 4.585 1.146a7.365 7.365 0 012.899 3.135c.674 1.326 1.011 2.797 1.011 4.416 0 .516-.034 1.01-.101 1.483h-12.91c.224 1.37.764 2.415 1.618 3.134.876.697 1.921 1.045 3.134 1.045 1.012 0 1.877-.213 2.596-.64a4.952 4.952 0 001.753-1.786l3.573 1.752c-1.753 3.056-4.416 4.584-7.989 4.584zm4.079-11.224c-.045-.54-.248-1.068-.607-1.584-.337-.54-.82-.978-1.45-1.315-.606-.36-1.325-.54-2.157-.54-1.056 0-1.966.315-2.73.944-.742.607-1.281 1.439-1.618 2.495h8.562zm7.648-6.506h4.146v2.157h.27c.517-.831 1.247-1.483 2.191-1.954a6.51 6.51 0 013.067-.742c2.068 0 3.641.63 4.719 1.888 1.079 1.258 1.618 2.977 1.618 5.157v10.685h-4.415V58.59c0-1.101-.281-1.955-.843-2.562-.562-.606-1.348-.91-2.36-.91-1.191 0-2.157.46-2.898 1.382-.72.922-1.079 2.079-1.079 3.472v8.764h-4.416v-17.19zm28.067 17.73c-2.113 0-3.978-.595-5.596-1.786-1.618-1.191-2.753-2.876-3.404-5.056l4.28-1.685c.338 1.28.911 2.303 1.72 3.067.809.764 1.82 1.146 3.033 1.146 1.011 0 1.877-.247 2.596-.742.719-.516 1.078-1.224 1.078-2.123 0-.9-.348-1.63-1.045-2.191-.674-.584-1.887-1.203-3.64-1.854l-1.483-.54c-1.551-.539-2.877-1.36-3.978-2.46-1.101-1.124-1.651-2.528-1.651-4.214 0-1.258.325-2.404.977-3.438.652-1.034 1.573-1.843 2.764-2.427 1.191-.607 2.54-.91 4.045-.91 2.18 0 3.899.517 5.157 1.55 1.259 1.012 2.124 2.203 2.596 3.574l-4.011 1.685a3.874 3.874 0 00-1.315-1.854c-.607-.517-1.393-.775-2.359-.775-.989 0-1.809.236-2.461.708-.629.45-.944 1.045-.944 1.786 0 .72.303 1.337.91 1.854.607.494 1.607.978 3 1.45l1.517.505c2.09.72 3.685 1.674 4.787 2.865 1.123 1.169 1.685 2.708 1.685 4.618 0 1.573-.405 2.91-1.214 4.012a7.456 7.456 0 01-3.134 2.427 9.832 9.832 0 01-3.91.808zm11.961-24.674h4.416v6.102l-.27 3h.27c.494-.81 1.213-1.461 2.157-1.956a6.514 6.514 0 013.068-.741c2.09 0 3.685.63 4.786 1.888 1.124 1.236 1.686 2.955 1.686 5.157v10.685h-4.416V58.59c0-1.101-.303-1.955-.91-2.562-.584-.606-1.371-.91-2.36-.91-1.168 0-2.135.472-2.899 1.416-.741.944-1.112 2.101-1.112 3.472v8.73h-4.416V44.601zm22.772 5.057a2.755 2.755 0 01-2.022-.843 2.758 2.758 0 01-.843-2.023c0-.786.281-1.449.843-1.988a2.755 2.755 0 012.022-.843c.787 0 1.449.28 1.989.843.562.539.842 1.202.842 1.988 0 .787-.28 1.461-.842 2.023a2.65 2.65 0 01-1.989.843zm-2.225 1.887h4.416v17.191h-4.416v-17.19zm8.912 0h4.146v2.09h.27c.471-.741 1.157-1.36 2.056-1.854.899-.517 1.932-.775 3.101-.775 1.55 0 2.955.393 4.213 1.18 1.281.764 2.281 1.842 3 3.236.719 1.393 1.079 2.966 1.079 4.719 0 1.775-.36 3.36-1.079 4.753-.719 1.37-1.719 2.449-3 3.235-1.258.764-2.663 1.146-4.213 1.146-1.169 0-2.214-.247-3.135-.741-.899-.494-1.573-1.112-2.022-1.854h-.27l.27 2.427v6.91h-4.416V51.545zm8.798 13.652c.831 0 1.606-.214 2.325-.64a4.69 4.69 0 001.72-1.787c.426-.764.64-1.64.64-2.63 0-.988-.214-1.864-.64-2.629-.427-.764-1-1.348-1.72-1.752a4.475 4.475 0 00-2.325-.64c-.809 0-1.573.213-2.293.64-.719.404-1.292.989-1.719 1.752-.427.764-.64 1.64-.64 2.63 0 .989.213 1.865.64 2.629.427.764 1 1.36 1.719 1.786.72.427 1.484.64 2.293.64zM224.999 44.6h5.224l9.068 24.135h-5.023l-2.022-5.764h-9.236l-2.022 5.764h-5.023l9.034-24.135zm5.764 14.191l-2.124-6.067-.876-2.899h-.27l-.876 2.899-2.158 6.067h6.304zm11.787-14.19h4.55v24.134h-4.55V44.601zM37.018 47.756a19.837 19.837 0 01-26.04 27.67l1.645-3.294A16.158 16.158 0 0033.83 49.597l3.188-1.841zM2.658 67.594A19.838 19.838 0 0129.75 40.489l-1.84 3.19A16.156 16.156 0 005.846 65.752l-3.188 1.84z" fill="#5956DF"/><path d="M32.558 45.037a1.084 1.084 0 011.544-.891l4.762 2.25c.791.373.837 1.481.08 1.919l-5.197 3a1.084 1.084 0 01-1.622-1.028l.433-5.25zM7.908 70.636a1.084 1.084 0 01-1.544.891l-4.762-2.25a1.084 1.084 0 01-.08-1.919l5.196-3a1.084 1.084 0 011.623 1.028l-.433 5.25z" fill="#5956DF"/></svg>