<svg width="97" height="63" fill="none" xmlns="http://www.w3.org/2000/svg"><circle cx="36" cy="20" r="20" fill="#EB001B" fill-opacity=".75"/><circle cx="63" cy="20" r="20" fill="#F79E1B" fill-opacity=".75"/><path d="M1.152 47.82h1.89v1.206h.09a3.09 3.09 0 011.17-1.08 3.32 3.32 0 011.62-.414c.66 0 1.236.156 1.728.468.492.3.846.702 1.062 1.206A3.517 3.517 0 019.954 48c.528-.312 1.146-.468 1.854-.468 1.056 0 1.854.324 2.394.972.552.636.828 1.506.828 2.61V57h-1.98v-5.544c0-1.392-.594-2.088-1.782-2.088-.636 0-1.158.258-1.566.774-.408.516-.612 1.152-.612 1.908V57H7.11v-5.544c0-1.392-.612-2.088-1.836-2.088-.624 0-1.14.258-1.548.774-.396.516-.594 1.152-.594 1.908V57h-1.98v-9.18zm18.929 9.468c-.66 0-1.248-.126-1.764-.378a2.97 2.97 0 01-1.206-1.098 3.087 3.087 0 01-.432-1.62c0-.948.354-1.698 1.062-2.25.72-.552 1.626-.828 2.718-.828.54 0 1.026.054 1.458.162.432.096.774.204 1.026.324v-.468c0-.564-.21-1.02-.63-1.368-.42-.36-.96-.54-1.62-.54a3.01 3.01 0 00-1.332.306 2.611 2.611 0 00-.99.846l-1.386-1.062A4.131 4.131 0 0118.569 48c.648-.312 1.368-.468 2.16-.468 1.332 0 2.358.33 3.078.99.72.648 1.08 1.566 1.08 2.754V57h-1.944v-1.098h-.09c-.264.396-.636.726-1.116.99-.48.264-1.032.396-1.656.396zm.342-1.638c.48 0 .912-.114 1.296-.342a2.492 2.492 0 001.224-2.16 4.004 4.004 0 00-.972-.378 4.383 4.383 0 00-1.134-.144c-.744 0-1.29.15-1.638.45-.348.288-.522.666-.522 1.134 0 .42.162.768.486 1.044.324.264.744.396 1.26.396zm9.882 1.638c-1.056 0-1.92-.228-2.592-.684-.672-.468-1.146-1.062-1.422-1.782l1.764-.774c.216.48.516.846.9 1.098a2.46 2.46 0 001.35.378c.492 0 .906-.084 1.242-.252.336-.18.504-.444.504-.792 0-.336-.144-.6-.432-.792-.288-.192-.732-.36-1.332-.504l-1.098-.27c-.732-.18-1.338-.498-1.818-.954-.48-.456-.72-1.032-.72-1.728 0-.54.156-1.014.468-1.422.324-.408.756-.72 1.296-.936a4.489 4.489 0 011.764-.342c.852 0 1.602.174 2.25.522a2.996 2.996 0 011.404 1.476l-1.728.756c-.348-.708-.984-1.062-1.908-1.062-.444 0-.816.09-1.116.27-.3.18-.45.414-.45.702 0 .276.114.504.342.684.228.168.564.312 1.008.432l1.35.342c.9.228 1.578.576 2.034 1.044.468.456.702 1.02.702 1.692 0 .576-.168 1.086-.504 1.53-.324.432-.774.768-1.35 1.008-.576.24-1.212.36-1.908.36zm9.15-.144a3.32 3.32 0 01-1.152-.198 2.53 2.53 0 01-.882-.522c-.516-.516-.774-1.218-.774-2.106v-4.752h-1.602V47.82h1.602v-2.592h1.98v2.592h2.232v1.746h-2.232v4.32c0 .492.096.84.288 1.044.18.24.492.36.936.36.204 0 .384-.024.54-.072.156-.06.324-.15.504-.27v1.926c-.396.18-.876.27-1.44.27zm7.13.144c-.9 0-1.71-.21-2.43-.63a4.541 4.541 0 01-1.675-1.728c-.396-.744-.594-1.578-.594-2.502 0-.876.192-1.686.576-2.43a4.652 4.652 0 011.638-1.8c.696-.444 1.488-.666 2.376-.666.924 0 1.722.204 2.394.612.684.408 1.2.966 1.548 1.674.36.708.54 1.506.54 2.394a4.6 4.6 0 01-.054.63h-7.038c.072.852.372 1.512.9 1.98.54.456 1.164.684 1.872.684.564 0 1.05-.126 1.458-.378.42-.264.756-.618 1.008-1.062l1.674.792a4.932 4.932 0 01-1.692 1.782c-.696.432-1.53.648-2.502.648zm2.357-5.958a2.225 2.225 0 00-.306-.954c-.18-.324-.456-.594-.828-.81-.36-.216-.804-.324-1.332-.324-.636 0-1.176.192-1.62.576-.432.372-.732.876-.9 1.512h4.986zm3.82-3.51h1.89v1.35h.09c.203-.468.557-.852 1.061-1.152a2.994 2.994 0 011.602-.468c.444 0 .816.06 1.116.18v2.052c-.528-.192-1.002-.288-1.422-.288-.456 0-.864.12-1.224.36-.348.24-.624.564-.828.972a2.826 2.826 0 00-.306 1.314V57h-1.98v-9.18zm10.98 9.468c-.912 0-1.734-.21-2.466-.63a4.502 4.502 0 01-1.692-1.728c-.396-.744-.594-1.584-.594-2.52 0-.936.198-1.77.594-2.502a4.468 4.468 0 011.692-1.746c.732-.42 1.554-.63 2.466-.63 1.008 0 1.866.228 2.574.684a3.76 3.76 0 011.512 1.854l-1.818.756c-.408-.972-1.182-1.458-2.322-1.458-.492 0-.948.126-1.368.378a2.789 2.789 0 00-.99 1.08c-.24.456-.36.984-.36 1.584 0 .6.12 1.134.36 1.602.252.468.582.828.99 1.08.42.252.876.378 1.368.378.576 0 1.068-.126 1.476-.378.42-.264.738-.636.954-1.116l1.782.774a4.185 4.185 0 01-1.584 1.854c-.708.456-1.566.684-2.574.684zm8.634 0c-.66 0-1.248-.126-1.764-.378a2.97 2.97 0 01-1.206-1.098 3.087 3.087 0 01-.432-1.62c0-.948.354-1.698 1.062-2.25.72-.552 1.626-.828 2.718-.828.54 0 1.026.054 1.458.162.432.096.774.204 1.026.324v-.468c0-.564-.21-1.02-.63-1.368-.42-.36-.96-.54-1.62-.54a3.01 3.01 0 00-1.332.306 2.611 2.611 0 00-.99.846l-1.386-1.062A4.131 4.131 0 0170.864 48c.648-.312 1.368-.468 2.16-.468 1.332 0 2.358.33 3.078.99.72.648 1.08 1.566 1.08 2.754V57h-1.944v-1.098h-.09c-.264.396-.636.726-1.116.99-.48.264-1.032.396-1.656.396zm.342-1.638c.48 0 .912-.114 1.296-.342a2.492 2.492 0 001.224-2.16 4.004 4.004 0 00-.972-.378 4.383 4.383 0 00-1.134-.144c-.744 0-1.29.15-1.638.45-.348.288-.522.666-.522 1.134 0 .42.162.768.486 1.044.324.264.744.396 1.26.396zm6.621-7.83h1.89v1.35h.09c.204-.468.558-.852 1.063-1.152a2.994 2.994 0 011.602-.468c.444 0 .816.06 1.116.18v2.052c-.528-.192-1.002-.288-1.422-.288-.456 0-.864.12-1.224.36-.348.24-.624.564-.828.972a2.826 2.826 0 00-.306 1.314V57h-1.98v-9.18zm10.657 9.468c-.828 0-1.578-.21-2.25-.63a4.542 4.542 0 01-1.602-1.728c-.384-.744-.576-1.584-.576-2.52 0-.936.192-1.77.576-2.502a4.509 4.509 0 011.602-1.746 4.159 4.159 0 012.25-.63c.648 0 1.23.144 1.746.432.516.288.906.642 1.17 1.062h.09l-.09-1.296v-3.618h1.98V57h-1.89v-1.188h-.09c-.264.408-.654.756-1.17 1.044a3.52 3.52 0 01-1.746.432zm.288-1.818c.48 0 .924-.126 1.332-.378.42-.252.756-.612 1.008-1.08.252-.468.378-1.002.378-1.602 0-.6-.126-1.128-.378-1.584a2.742 2.742 0 00-1.008-1.08 2.487 2.487 0 00-1.332-.378c-.48 0-.93.126-1.35.378-.42.252-.756.612-1.008 1.08-.252.456-.378.984-.378 1.584 0 .6.126 1.134.378 1.602.252.468.588.828 1.008 1.08.42.252.87.378 1.35.378z" fill="#fff"/></svg>