<svg width="13" height="22" viewBox="0 0 15 24" fill="none" xmlns="http://www.w3.org/2000/svg"><path d="M7.5 14.4a3.575 3.575 0 01-2.475-.984A3.293 3.293 0 014 11.04V3.36c0-.441.09-.878.266-1.286.176-.407.434-.778.76-1.09.324-.312.71-.56 1.135-.728a3.627 3.627 0 012.678 0c.425.169.81.416 1.136.728.325.312.583.683.759 1.09.175.408.266.845.266 1.286v7.68c0 .891-.369 1.746-1.025 2.376A3.575 3.575 0 017.5 14.4z" fill="#838383"/><path d="M13 7.68v3.36c0 2.91-2.468 5.28-5.5 5.28S2 13.95 2 11.04V7.68H0v3.36c0 3.644 2.837 6.657 6.5 7.128v3.912H3V24h9v-1.92H8.5v-3.912c3.663-.471 6.5-3.484 6.5-7.128V7.68h-2z" fill="#838383"/></svg>