<svg width="26" height="6" viewBox="0 0 26 6" fill="none" xmlns="http://www.w3.org/2000/svg">
<path d="M12.7487 0.000325432C11.1839 0.000325295 9.91537 1.26885 9.91536 2.83366C9.91536 4.39847 11.1839 5.66699 12.7487 5.66699C14.3135 5.66699 15.582 4.39847 15.582 2.83366C15.582 1.26885 14.3135 0.000325569 12.7487 0.000325432Z" fill="#A2A2A2"/>
<path d="M2.83464 0.000325432C1.26983 0.000325295 0.00130263 1.26885 0.00130249 2.83366C0.00130235 4.39847 1.26983 5.66699 2.83464 5.66699C4.39944 5.66699 5.66797 4.39847 5.66797 2.83366C5.66797 1.26885 4.39944 0.000325569 2.83464 0.000325432Z" fill="#A2A2A2"/>
<path d="M22.6667 0.000325432C21.1019 0.000325295 19.8333 1.26885 19.8333 2.83366C19.8333 4.39847 21.1019 5.66699 22.6667 5.66699C24.2315 5.66699 25.5 4.39847 25.5 2.83366C25.5 1.26885 24.2315 0.000325569 22.6667 0.000325432Z" fill="#A2A2A2"/>
</svg>
