<svg width="70" height="81" fill="none" xmlns="http://www.w3.org/2000/svg"><path d="M57.884 75.347h5.385c1.767-.03 1.77-2.663 0-2.692h-5.385c-1.767.028-1.77 2.662 0 2.692z" fill="#024EC9"/><path d="M64.615 29.578H48.462c-.986 0-1.899.285-2.693.748V13.424a5.39 5.39 0 00-5.384-5.385H16.154a5.39 5.39 0 00-5.385 5.385v22.884c0 .984.286 1.897.749 2.693H5.385A5.39 5.39 0 000 44.385v30.962a5.39 5.39 0 005.385 5.385h35c1.615 0 3.05-.731 4.038-1.862.988 1.13 2.423 1.861 4.038 1.861h16.154A5.39 5.39 0 0070 75.347V59.193c0-1.615-.73-3.052-1.86-4.038A5.351 5.351 0 0070 51.116V34.962a5.39 5.39 0 00-5.385-5.384zM24.231 10.732h8.077v4.038a1.35 1.35 0 01-1.346 1.346h-5.385a1.35 1.35 0 01-1.346-1.346v-4.038zm5.384 67.307H16.154v-5.384c0-.743.604-1.347 1.346-1.347h10.77c.741 0 1.345.603 1.345 1.347v5.384zm13.462-2.692a2.696 2.696 0 01-2.692 2.692h-8.077v-5.384a4.043 4.043 0 00-4.039-4.039H17.5a4.043 4.043 0 00-4.039 4.039v5.384H5.385a2.696 2.696 0 01-2.693-2.692V52.462h40.385v22.885zm0-25.577H2.692v-5.385a2.695 2.695 0 012.693-2.692h35a2.695 2.695 0 012.692 2.692v5.385zM24.23 39v-4.038c0-.743.604-1.346 1.346-1.346h5.384c.742 0 1.347.603 1.347 1.346v4.039H24.23zm18.846-2.692a2.695 2.695 0 01-2.692 2.693H35v-4.039a4.043 4.043 0 00-4.038-4.038h-5.385a4.043 4.043 0 00-4.039 4.038v4.039h-5.384a2.695 2.695 0 01-2.693-2.693V13.424a2.695 2.695 0 012.693-2.692h5.384v4.038a4.043 4.043 0 004.039 4.038h5.384A4.043 4.043 0 0035 14.77v-4.038h5.385a2.695 2.695 0 012.692 2.692v22.884zm24.23 39.039a2.696 2.696 0 01-2.692 2.692H48.462a2.696 2.696 0 01-2.693-2.692V63.232h21.539v12.115zm0-14.808H45.77v-1.346a2.695 2.695 0 012.693-2.692h16.153a2.695 2.695 0 012.693 2.692v1.346zm0-9.423a2.696 2.696 0 01-2.692 2.692H48.462a2.696 2.696 0 01-2.693-2.692V39.001h21.539v12.115zm0-14.808H45.77v-1.346a2.695 2.695 0 012.693-2.692h16.153a2.695 2.695 0 012.693 2.692v1.346z" fill="#024EC9"/><path d="M57.885 51.116h5.384c1.768-.03 1.77-2.663 0-2.692h-5.384c-1.768.028-1.77 2.663 0 2.692zM28.269 5.385a1.346 1.346 0 001.346-1.347V1.346a1.346 1.346 0 10-2.692 0v2.692a1.346 1.346 0 001.346 1.347zm-7.074-.154c.617 1.657 3.123.73 2.53-.92l-.923-2.531a1.345 1.345 0 10-2.529.92l.922 2.531zm12.425.804a1.346 1.346 0 001.723-.804l.92-2.53a1.346 1.346 0 10-2.527-.92l-.922 2.53a1.346 1.346 0 00.806 1.724zm22.918 20.85a1.346 1.346 0 001.347-1.346v-2.692a1.346 1.346 0 10-2.693 0v2.692a1.346 1.346 0 001.346 1.346zm-7.074-.156c.617 1.659 3.123.731 2.53-.92l-.922-2.53a1.345 1.345 0 10-2.53.92l.922 2.53zm12.425.805a1.346 1.346 0 001.723-.805l.921-2.53a1.345 1.345 0 10-2.528-.92l-.922 2.53a1.346 1.346 0 00.806 1.725z" fill="#024EC9"/></svg>