<svg width="253" height="253" fill="none" xmlns="http://www.w3.org/2000/svg"><circle cx="126.5" cy="125.5" r="108.5" fill="#fff"/><circle cx="126.357" cy="126.357" r="87" transform="rotate(30 126.357 126.357)" fill="#fff" stroke="url(#paint0_linear_940_1386)" stroke-width="11"/><path d="M100.933 148.791l14.097-14.097c7.03-7.03 11.544-11.618 13.542-13.764 2.664-2.886 4.477-5.291 5.439-7.215 1.036-1.924 1.554-4.107 1.554-6.549 0-2.59-.962-4.773-2.886-6.549-1.924-1.776-4.477-2.664-7.659-2.664-3.108 0-5.624.888-7.548 2.664-1.924 1.776-3.293 3.996-4.107 6.66l-13.098-5.439c.814-2.886 2.294-5.661 4.44-8.325 2.22-2.738 5.069-4.958 8.547-6.66 3.478-1.702 7.474-2.553 11.988-2.553 5.032 0 9.435.999 13.209 2.997 3.774 1.924 6.697 4.588 8.769 7.992 2.072 3.33 3.108 7.067 3.108 11.211 0 8.214-3.996 16.243-11.988 24.087-3.256 3.182-9.287 9.176-18.093 17.982l.333.666h30.747V162h-50.394v-13.209z" fill="url(#paint1_linear_940_1386)"/><defs><linearGradient id="paint0_linear_940_1386" x1="126.357" y1="33.857" x2="126.357" y2="218.857" gradientUnits="userSpaceOnUse"><stop stop-color="#024EC9"/><stop offset="1" stop-color="#89B6FF"/></linearGradient><linearGradient id="paint1_linear_940_1386" x1="126" y1="100" x2="126" y2="151" gradientUnits="userSpaceOnUse"><stop stop-color="#024EC9"/><stop offset="1" stop-color="#89B6FF"/></linearGradient></defs></svg>