<svg width="203" height="31" viewBox="0 0 603 97" fill="none" xmlns="http://www.w3.org/2000/svg"><path d="M169.857 76.686c-5.755 0-10.99-1.343-15.704-4.029-4.659-2.74-8.332-6.468-11.018-11.182s-4.029-9.894-4.029-15.54c0-5.646 1.343-10.826 4.029-15.54 2.686-4.714 6.359-8.414 11.018-11.1 4.714-2.741 9.949-4.111 15.704-4.111 5.756 0 10.963 1.37 15.622 4.11 4.715 2.687 8.415 6.387 11.1 11.1 2.686 4.715 4.029 9.895 4.029 15.54 0 5.647-1.343 10.827-4.029 15.54-2.685 4.715-6.385 8.442-11.1 11.183-4.659 2.686-9.866 4.029-15.622 4.029zm0-10.525c3.618 0 6.934-.85 9.949-2.549 3.015-1.699 5.372-4.083 7.071-7.153 1.754-3.07 2.631-6.578 2.631-10.524 0-3.947-.877-7.455-2.631-10.525-1.699-3.07-4.056-5.454-7.071-7.153-3.015-1.7-6.331-2.549-9.949-2.549-3.617 0-6.934.85-9.949 2.549-2.96 1.7-5.317 4.084-7.071 7.153-1.699 3.07-2.549 6.578-2.549 10.525 0 3.946.85 7.455 2.549 10.524 1.754 3.07 4.111 5.454 7.071 7.153 3.015 1.7 6.332 2.55 9.949 2.55zm39.454-32.724h10.113v5.098h.658c1.151-1.81 2.823-3.316 5.016-4.522 2.192-1.261 4.714-1.892 7.564-1.892 3.782 0 7.208.96 10.278 2.878 3.124 1.864 5.564 4.495 7.318 7.893 1.754 3.4 2.631 7.236 2.631 11.512 0 4.33-.877 8.194-2.631 11.593-1.754 3.344-4.194 5.975-7.318 7.893-3.07 1.864-6.496 2.796-10.278 2.796-2.85 0-5.399-.603-7.646-1.809-2.193-1.206-3.838-2.713-4.934-4.522h-.658l.658 5.92V93.13h-10.771V33.437zm21.46 33.3c2.028 0 3.919-.52 5.673-1.562s3.152-2.494 4.194-4.358c1.041-1.864 1.562-4.002 1.562-6.413 0-2.412-.521-4.55-1.562-6.414-1.042-1.863-2.44-3.289-4.194-4.275a10.92 10.92 0 00-5.673-1.563c-1.973 0-3.837.521-5.591 1.563-1.754.986-3.152 2.412-4.193 4.275-1.042 1.864-1.563 4.002-1.563 6.414 0 2.411.521 4.55 1.563 6.413 1.041 1.864 2.439 3.316 4.193 4.358 1.754 1.041 3.618 1.562 5.591 1.562zm50.07 9.949c-4.166 0-7.921-.96-11.265-2.878-3.343-1.919-5.974-4.55-7.893-7.893-1.864-3.399-2.795-7.208-2.795-11.43 0-4 .931-7.7 2.795-11.1 1.864-3.453 4.44-6.193 7.729-8.221 3.289-2.029 6.962-3.043 11.018-3.043 4.33 0 8.058.932 11.182 2.796 3.124 1.864 5.481 4.413 7.071 7.647 1.645 3.234 2.467 6.824 2.467 10.77 0 1.261-.082 2.467-.247 3.618h-31.491c.548 3.344 1.864 5.893 3.947 7.647 2.137 1.7 4.686 2.55 7.646 2.55 2.467 0 4.577-.522 6.331-1.563a12.06 12.06 0 004.276-4.358l8.716 4.276c-4.276 7.454-10.772 11.182-19.487 11.182zm9.949-27.38c-.11-1.316-.603-2.604-1.48-3.865-.822-1.315-2.001-2.384-3.536-3.206-1.48-.877-3.234-1.316-5.262-1.316-2.576 0-4.796.768-6.66 2.302-1.809 1.48-3.124 3.509-3.947 6.085h20.885zm18.657-15.869h10.113v5.262h.658c1.26-2.028 3.042-3.618 5.344-4.769 2.302-1.206 4.796-1.809 7.482-1.809 5.043 0 8.88 1.535 11.511 4.605 2.631 3.07 3.947 7.263 3.947 12.58V75.37h-10.771V50.621c0-2.686-.685-4.769-2.056-6.248-1.37-1.48-3.288-2.22-5.755-2.22-2.905 0-5.262 1.123-7.071 3.37-1.754 2.248-2.631 5.071-2.631 8.47V75.37h-10.771V33.437zm68.461 43.249c-5.153 0-9.703-1.453-13.649-4.358-3.947-2.905-6.715-7.016-8.305-12.333l10.442-4.111c.823 3.124 2.22 5.618 4.194 7.482 1.973 1.864 4.44 2.795 7.4 2.795 2.466 0 4.577-.603 6.331-1.808 1.754-1.261 2.631-2.988 2.631-5.18 0-2.193-.85-3.974-2.549-5.345-1.644-1.425-4.604-2.933-8.88-4.522l-3.618-1.316c-3.782-1.315-7.016-3.316-9.702-6.002-2.686-2.74-4.029-6.167-4.029-10.278 0-3.07.795-5.865 2.385-8.386 1.589-2.522 3.837-4.495 6.742-5.92 2.905-1.48 6.194-2.22 9.867-2.22 5.317 0 9.51 1.26 12.58 3.782 3.069 2.467 5.18 5.372 6.331 8.715l-9.785 4.112c-.603-1.81-1.672-3.317-3.206-4.523-1.48-1.26-3.399-1.89-5.756-1.89-2.412 0-4.413.575-6.002 1.726-1.535 1.096-2.302 2.549-2.302 4.358 0 1.754.74 3.261 2.22 4.522 1.48 1.206 3.919 2.384 7.317 3.535l3.7 1.234c5.098 1.754 8.99 4.084 11.676 6.989 2.741 2.85 4.111 6.605 4.111 11.264 0 3.837-.987 7.099-2.96 9.785-1.973 2.63-4.522 4.604-7.647 5.92a23.973 23.973 0 01-9.537 1.973zm29.177-60.187h10.771v14.882l-.657 7.318h.657c1.206-1.973 2.96-3.563 5.263-4.769 2.302-1.206 4.796-1.809 7.482-1.809 5.098 0 8.989 1.535 11.675 4.605 2.741 3.015 4.111 7.208 4.111 12.58V75.37h-10.771V50.621c0-2.686-.74-4.769-2.22-6.248-1.425-1.48-3.343-2.22-5.755-2.22-2.851 0-5.208 1.15-7.071 3.453-1.809 2.302-2.714 5.125-2.714 8.469V75.37h-10.771V16.5zm55.546 12.334c-1.918 0-3.562-.686-4.933-2.056-1.37-1.37-2.055-3.015-2.055-4.933 0-1.919.685-3.536 2.055-4.851 1.371-1.37 3.015-2.056 4.933-2.056 1.919 0 3.536.685 4.852 2.056 1.37 1.315 2.055 2.932 2.055 4.85 0 1.92-.685 3.564-2.055 4.934-1.316 1.37-2.933 2.056-4.852 2.056zm-5.426 4.604h10.771V75.37h-10.771V33.437zm21.737 0h10.114v5.098h.657c1.152-1.81 2.823-3.316 5.016-4.522 2.193-1.261 4.714-1.892 7.564-1.892 3.783 0 7.209.96 10.278 2.878 3.125 1.864 5.564 4.495 7.318 7.893 1.754 3.4 2.631 7.236 2.631 11.512 0 4.33-.877 8.194-2.631 11.593-1.754 3.344-4.193 5.975-7.318 7.893-3.069 1.864-6.495 2.796-10.278 2.796-2.85 0-5.399-.603-7.646-1.809-2.193-1.206-3.837-2.713-4.934-4.522h-.657l.657 5.92V93.13h-10.771V33.437zm21.46 33.3c2.028 0 3.92-.52 5.674-1.562 1.754-1.042 3.151-2.494 4.193-4.358 1.041-1.864 1.562-4.002 1.562-6.413 0-2.412-.521-4.55-1.562-6.414-1.042-1.863-2.439-3.289-4.193-4.275a10.923 10.923 0 00-5.674-1.563c-1.973 0-3.837.521-5.591 1.563-1.754.986-3.152 2.412-4.193 4.275-1.042 1.864-1.562 4.002-1.562 6.414 0 2.411.52 4.55 1.562 6.413 1.041 1.864 2.439 3.316 4.193 4.358 1.754 1.041 3.618 1.562 5.591 1.562zm48.425-50.238h12.744l22.118 58.871h-12.251l-4.933-14.06h-22.529l-4.934 14.06h-12.251l22.036-58.87zm14.06 34.616l-5.18-14.8-2.138-7.071h-.658l-2.137 7.07-5.263 14.8h15.376zm28.751-34.616h11.1V75.37h-11.1V16.5zM90.299 24.196A48.388 48.388 0 0156.884 96.03a48.388 48.388 0 01-30.102-4.341l4.01-8.036a39.413 39.413 0 0056.745-30.712 39.403 39.403 0 00-5.016-24.256l7.778-4.49zM6.483 72.587A48.39 48.39 0 0172.567 6.472l-4.487 7.78a39.409 39.409 0 00-53.82 53.844l-7.777 4.49z" fill="#2e2a2a"/><path d="M79.413 17.562a2.645 2.645 0 013.765-2.173l11.617 5.488c1.93.91 2.04 3.614.193 4.68l-12.674 7.318c-1.847 1.067-4.132-.381-3.957-2.508l1.056-12.805zM19.291 80.006a2.645 2.645 0 01-3.765 2.174L3.91 76.692c-1.93-.912-2.04-3.615-.193-4.681l12.674-7.318c1.847-1.066 4.133.382 3.957 2.508l-1.056 12.805z" fill="#2e2a2a"/></svg>