<svg width="160" height="168" viewBox="0 0 760 168" fill="none" xmlns="http://www.w3.org/2000/svg">
<path d="M12.3481 127.165C2.28317 109.957 -2.34411 88.7009 1.16216 69.0768C4.66843 49.4528 15.0541 31.7208 30.455 19.0635C45.856 6.40614 65.2639 -0.347819 85.1955 0.0138008C105.127 0.375421 127.804 11.3558 142.735 24.5634L124.805 37.3212C113.746 27.5393 99.5628 22.0191 84.8011 21.7512C70.0394 21.4834 55.6654 26.4855 44.2592 35.8598C32.8529 45.2341 25.1611 58.3668 22.5642 72.9008C19.9674 87.4348 22.6356 102.418 30.0899 115.163L12.3481 127.165Z" fill="url(#paint0_linear_782_1398)"/>
<path d="M157.447 44.0625C165.144 60.9414 169.234 84.7141 164.963 102.767C160.691 120.819 150.532 136.936 136.087 148.576C121.642 160.215 103.734 166.715 85.1857 167.051C56.1176 167.051 43.2734 158.081 28.417 146.971L46.7195 132.951C57.6944 141.158 71.089 145.478 84.791 145.23C98.4929 144.982 111.722 140.181 122.393 131.582C133.064 122.983 140.569 111.077 143.725 97.7412C146.88 84.4053 145.507 70.3984 139.821 57.9294L157.447 44.0625Z" fill="url(#paint1_linear_782_1398)"/>
<path d="M256.568 107.536C251.512 107.536 247 106.416 243.032 104.176C239.064 101.872 235.96 98.768 233.72 94.864C231.544 90.896 230.456 86.448 230.456 81.52C230.456 76.656 231.544 72.24 233.72 68.272C235.96 64.304 239.064 61.2 243.032 58.96C247 56.656 251.512 55.504 256.568 55.504C261.56 55.504 266.04 56.656 270.008 58.96C273.976 61.2 277.048 64.304 279.224 68.272C281.464 72.24 282.584 76.656 282.584 81.52C282.584 86.448 281.464 90.896 279.224 94.864C277.048 98.768 273.976 101.872 270.008 104.176C266.04 106.416 261.56 107.536 256.568 107.536ZM256.568 95.92C259 95.92 261.24 95.344 263.288 94.192C265.336 93.04 266.968 91.376 268.184 89.2C269.4 87.024 270.008 84.464 270.008 81.52C270.008 78.64 269.4 76.112 268.184 73.936C266.968 71.76 265.336 70.096 263.288 68.944C261.24 67.792 259 67.216 256.568 67.216C254.136 67.216 251.896 67.792 249.848 68.944C247.8 70.096 246.136 71.76 244.856 73.936C243.64 76.112 243.032 78.64 243.032 81.52C243.032 84.4 243.64 86.96 244.856 89.2C246.136 91.376 247.8 93.04 249.848 94.192C251.896 95.344 254.136 95.92 256.568 95.92ZM291.354 57.04H303.162V62.992H303.93C305.274 60.88 307.226 59.12 309.786 57.712C312.346 56.24 315.29 55.504 318.618 55.504C323.034 55.504 327.034 56.624 330.618 58.864C334.266 61.04 337.114 64.112 339.162 68.08C341.21 72.048 342.234 76.528 342.234 81.52C342.234 86.576 341.21 91.088 339.162 95.056C337.114 98.96 334.266 102.032 330.618 104.272C327.034 106.448 323.034 107.536 318.618 107.536C315.29 107.536 312.314 106.832 309.69 105.424C307.13 104.016 305.21 102.256 303.93 100.144H303.162L303.93 107.056V126.736H291.354V57.04ZM316.41 95.92C318.778 95.92 320.986 95.312 323.034 94.096C325.082 92.88 326.714 91.184 327.93 89.008C329.146 86.832 329.754 84.336 329.754 81.52C329.754 78.704 329.146 76.208 327.93 74.032C326.714 71.856 325.082 70.192 323.034 69.04C320.986 67.824 318.778 67.216 316.41 67.216C314.106 67.216 311.93 67.824 309.882 69.04C307.834 70.192 306.202 71.856 304.986 74.032C303.77 76.208 303.162 78.704 303.162 81.52C303.162 84.336 303.77 86.832 304.986 89.008C306.202 91.184 307.834 92.88 309.882 94.096C311.93 95.312 314.106 95.92 316.41 95.92ZM374.869 107.536C370.005 107.536 365.621 106.416 361.717 104.176C357.813 101.936 354.741 98.864 352.501 94.96C350.325 90.992 349.237 86.544 349.237 81.616C349.237 76.944 350.325 72.624 352.501 68.656C354.677 64.624 357.685 61.424 361.525 59.056C365.365 56.688 369.653 55.504 374.389 55.504C379.445 55.504 383.797 56.592 387.445 58.768C391.093 60.944 393.845 63.92 395.701 67.696C397.621 71.472 398.581 75.664 398.581 80.272C398.581 81.744 398.485 83.152 398.293 84.496H361.525C362.165 88.4 363.701 91.376 366.133 93.424C368.629 95.408 371.605 96.4 375.061 96.4C377.941 96.4 380.405 95.792 382.453 94.576C384.565 93.296 386.229 91.6 387.445 89.488L397.621 94.48C392.629 103.184 385.045 107.536 374.869 107.536ZM386.485 75.568C386.357 74.032 385.781 72.528 384.757 71.056C383.797 69.52 382.421 68.272 380.629 67.312C378.901 66.288 376.853 65.776 374.485 65.776C371.477 65.776 368.885 66.672 366.709 68.464C364.597 70.192 363.061 72.56 362.101 75.568H386.485ZM408.269 57.04H420.077V63.184H420.845C422.317 60.816 424.397 58.96 427.085 57.616C429.773 56.208 432.685 55.504 435.821 55.504C441.709 55.504 446.189 57.296 449.261 60.88C452.333 64.464 453.869 69.36 453.869 75.568V106H441.293V77.104C441.293 73.968 440.493 71.536 438.893 69.808C437.293 68.08 435.053 67.216 432.173 67.216C428.781 67.216 426.029 68.528 423.917 71.152C421.869 73.776 420.845 77.072 420.845 81.04V106H408.269V57.04ZM483.893 107.536C477.941 107.536 473.109 106.32 469.397 103.888C465.749 101.456 463.189 98.288 461.717 94.384L472.949 89.488C473.973 91.792 475.413 93.552 477.269 94.768C479.189 95.92 481.397 96.496 483.893 96.496C486.197 96.496 488.117 96.144 489.653 95.44C491.189 94.672 491.957 93.456 491.957 91.792C491.957 90.192 491.253 89.008 489.845 88.24C488.437 87.408 486.325 86.672 483.509 86.032L477.749 84.784C473.781 83.824 470.485 82.096 467.861 79.6C465.237 77.04 463.925 73.872 463.925 70.096C463.925 67.28 464.757 64.752 466.421 62.512C468.149 60.272 470.453 58.544 473.333 57.328C476.277 56.112 479.509 55.504 483.029 55.504C493.141 55.504 499.893 59.056 503.285 66.16L492.533 70.864C490.613 67.408 487.541 65.68 483.317 65.68C481.141 65.68 479.413 66.096 478.133 66.928C476.853 67.696 476.213 68.688 476.213 69.904C476.213 72.208 478.389 73.936 482.741 75.088L489.941 76.816C494.805 78.032 498.453 79.888 500.885 82.384C503.381 84.88 504.629 87.952 504.629 91.6C504.629 94.736 503.701 97.52 501.845 99.952C500.053 102.32 497.557 104.176 494.357 105.52C491.221 106.864 487.733 107.536 483.893 107.536ZM513.738 37.264H526.314V54.64L525.546 63.184H526.314C527.722 60.88 529.77 59.024 532.458 57.616C535.146 56.208 538.058 55.504 541.194 55.504C547.146 55.504 551.69 57.296 554.826 60.88C558.026 64.4 559.626 69.296 559.626 75.568V106H547.05V77.104C547.05 73.968 546.186 71.536 544.458 69.808C542.794 68.08 540.554 67.216 537.738 67.216C534.41 67.216 531.658 68.56 529.482 71.248C527.37 73.936 526.314 77.232 526.314 81.136V106H513.738V37.264ZM578.592 51.664C576.352 51.664 574.432 50.864 572.832 49.264C571.232 47.664 570.432 45.744 570.432 43.504C570.432 41.264 571.232 39.376 572.832 37.84C574.432 36.24 576.352 35.44 578.592 35.44C580.832 35.44 582.72 36.24 584.256 37.84C585.856 39.376 586.656 41.264 586.656 43.504C586.656 45.744 585.856 47.664 584.256 49.264C582.72 50.864 580.832 51.664 578.592 51.664ZM572.256 57.04H584.832V106H572.256V57.04ZM597.635 57.04H609.443V62.992H610.211C611.555 60.88 613.507 59.12 616.067 57.712C618.627 56.24 621.571 55.504 624.899 55.504C629.315 55.504 633.315 56.624 636.899 58.864C640.547 61.04 643.395 64.112 645.443 68.08C647.491 72.048 648.515 76.528 648.515 81.52C648.515 86.576 647.491 91.088 645.443 95.056C643.395 98.96 640.547 102.032 636.899 104.272C633.315 106.448 629.315 107.536 624.899 107.536C621.571 107.536 618.595 106.832 615.971 105.424C613.411 104.016 611.491 102.256 610.211 100.144H609.443L610.211 107.056V126.736H597.635V57.04ZM622.691 95.92C625.059 95.92 627.267 95.312 629.315 94.096C631.363 92.88 632.995 91.184 634.211 89.008C635.427 86.832 636.035 84.336 636.035 81.52C636.035 78.704 635.427 76.208 634.211 74.032C632.995 71.856 631.363 70.192 629.315 69.04C627.267 67.824 625.059 67.216 622.691 67.216C620.387 67.216 618.211 67.824 616.163 69.04C614.115 70.192 612.483 71.856 611.267 74.032C610.051 76.208 609.443 78.704 609.443 81.52C609.443 84.336 610.051 86.832 611.267 89.008C612.483 91.184 614.115 92.88 616.163 94.096C618.211 95.312 620.387 95.92 622.691 95.92ZM665.791 106.576C663.487 106.576 661.503 105.776 659.839 104.176C658.239 102.512 657.439 100.528 657.439 98.224C657.439 95.92 658.239 93.968 659.839 92.368C661.503 90.768 663.487 89.968 665.791 89.968C668.095 89.968 670.047 90.768 671.647 92.368C673.311 93.968 674.143 95.92 674.143 98.224C674.143 100.528 673.311 102.512 671.647 104.176C670.047 105.776 668.095 106.576 665.791 106.576ZM700.651 107.536C695.467 107.536 691.211 106.032 687.883 103.024C684.555 99.952 682.891 95.952 682.891 91.024C682.891 87.76 683.755 84.88 685.483 82.384C687.211 79.888 689.579 77.968 692.587 76.624C695.595 75.28 698.923 74.608 702.571 74.608C707.627 74.608 711.947 75.344 715.531 76.816V74.704C715.531 72.016 714.507 69.84 712.459 68.176C710.475 66.512 707.787 65.68 704.395 65.68C702.091 65.68 699.851 66.224 697.675 67.312C695.563 68.336 693.803 69.712 692.395 71.44L684.331 65.104C686.699 62.032 689.675 59.664 693.259 58C696.843 56.336 700.747 55.504 704.971 55.504C712.459 55.504 718.155 57.232 722.059 60.688C725.963 64.144 727.915 69.2 727.915 75.856V106H715.531V101.008H714.763C713.291 102.928 711.339 104.496 708.907 105.712C706.539 106.928 703.787 107.536 700.651 107.536ZM703.627 97.744C707.275 97.744 710.155 96.592 712.267 94.288C714.443 91.92 715.531 89.168 715.531 86.032C712.267 84.496 708.843 83.728 705.259 83.728C698.731 83.728 695.467 86.16 695.467 91.024C695.467 93.008 696.171 94.64 697.579 95.92C698.987 97.136 701.003 97.744 703.627 97.744ZM746.592 51.664C744.352 51.664 742.432 50.864 740.832 49.264C739.232 47.664 738.432 45.744 738.432 43.504C738.432 41.264 739.232 39.376 740.832 37.84C742.432 36.24 744.352 35.44 746.592 35.44C748.832 35.44 750.72 36.24 752.256 37.84C753.856 39.376 754.656 41.264 754.656 43.504C754.656 45.744 753.856 47.664 752.256 49.264C750.72 50.864 748.832 51.664 746.592 51.664ZM740.256 57.04H752.832V106H740.256V57.04Z" fill="url(#paint2_linear_782_1398)"/>
<defs>
<linearGradient id="paint0_linear_782_1398" x1="71.3677" y1="-3.11958e-06" x2="71.3677" y2="127.165" gradientUnits="userSpaceOnUse">
<stop stop-color="#024EC9"/>
<stop offset="1" stop-color="#0061FF"/>
</linearGradient>
<linearGradient id="paint1_linear_782_1398" x1="97.5528" y1="44.0625" x2="97.5528" y2="167.051" gradientUnits="userSpaceOnUse">
<stop stop-color="#024EC9"/>
<stop offset="1" stop-color="#0061FF"/>
</linearGradient>
<linearGradient id="paint2_linear_782_1398" x1="227" y1="74" x2="760" y2="74" gradientUnits="userSpaceOnUse">
<stop stop-color="#024EC9"/>
<stop offset="1" stop-color="#0061FF"/>
</linearGradient>
</defs>
</svg>
