<svg width="207" height="553" viewBox="0 0 207 553" fill="none" xmlns="http://www.w3.org/2000/svg">
<line x1="20.5" y1="242" x2="20.5" y2="298" stroke="white" stroke-width="3" stroke-dasharray="6 6"/>
<circle cx="20.5" cy="323.5" r="19.5" stroke="white" stroke-width="2" stroke-dasharray="4 4"/>
<line x1="21.5" y1="348" x2="21.5" y2="404" stroke="white" stroke-width="3" stroke-dasharray="6 6"/>
<circle cx="21.5" cy="427.5" r="19.5" stroke="white" stroke-width="2" stroke-dasharray="4 4"/>
<line x1="21.5" y1="452" x2="21.5" y2="508" stroke="white" stroke-width="3" stroke-dasharray="6 6"/>
<circle cx="21.5" cy="532.5" r="19.5" stroke="white" stroke-width="2" stroke-dasharray="4 4"/>
<circle cx="20.5" cy="217.5" r="19.5" fill="white" stroke="#024EC9" stroke-width="2"/>
<circle cx="20.5" cy="217.5" r="7.5" fill="#024EC9"/>
<path d="M56.736 222.256C55.6267 222.256 54.6133 221.995 53.696 221.472C52.7787 220.939 52.0533 220.219 51.52 219.312C50.9973 218.395 50.736 217.381 50.736 216.272C50.736 215.163 50.9973 214.155 51.52 213.248C52.0533 212.331 52.7787 211.611 53.696 211.088C54.6133 210.555 55.6267 210.288 56.736 210.288C58.464 210.288 59.8933 210.912 61.024 212.16L59.504 213.632C58.768 212.768 57.8507 212.336 56.752 212.336C56.0373 212.336 55.3867 212.501 54.8 212.832C54.2133 213.152 53.7493 213.611 53.408 214.208C53.0773 214.805 52.912 215.493 52.912 216.272C52.912 217.051 53.0773 217.739 53.408 218.336C53.7493 218.933 54.2133 219.397 54.8 219.728C55.3867 220.048 56.0373 220.208 56.752 220.208C57.9573 220.208 58.9653 219.707 59.776 218.704L61.312 220.16C60.7467 220.843 60.0747 221.365 59.296 221.728C58.528 222.08 57.6747 222.256 56.736 222.256ZM66.6155 222.256C65.7728 222.256 65.0208 222.069 64.3595 221.696C63.6982 221.312 63.1808 220.795 62.8075 220.144C62.4448 219.483 62.2635 218.741 62.2635 217.92C62.2635 217.109 62.4448 216.373 62.8075 215.712C63.1808 215.051 63.6982 214.533 64.3595 214.16C65.0208 213.776 65.7728 213.584 66.6155 213.584C67.4475 213.584 68.1942 213.776 68.8555 214.16C69.5168 214.533 70.0288 215.051 70.3915 215.712C70.7648 216.373 70.9515 217.109 70.9515 217.92C70.9515 218.741 70.7648 219.483 70.3915 220.144C70.0288 220.795 69.5168 221.312 68.8555 221.696C68.1942 222.069 67.4475 222.256 66.6155 222.256ZM66.6155 220.32C67.0208 220.32 67.3942 220.224 67.7355 220.032C68.0768 219.84 68.3488 219.563 68.5515 219.2C68.7542 218.837 68.8555 218.411 68.8555 217.92C68.8555 217.44 68.7542 217.019 68.5515 216.656C68.3488 216.293 68.0768 216.016 67.7355 215.824C67.3942 215.632 67.0208 215.536 66.6155 215.536C66.2102 215.536 65.8368 215.632 65.4955 215.824C65.1542 216.016 64.8768 216.293 64.6635 216.656C64.4608 217.019 64.3595 217.44 64.3595 217.92C64.3595 218.4 64.4608 218.827 64.6635 219.2C64.8768 219.563 65.1542 219.84 65.4955 220.032C65.8368 220.224 66.2102 220.32 66.6155 220.32ZM72.399 213.84H74.367V214.864H74.495C74.7403 214.469 75.087 214.16 75.535 213.936C75.983 213.701 76.4683 213.584 76.991 213.584C77.9723 213.584 78.719 213.883 79.231 214.48C79.743 215.077 79.999 215.893 79.999 216.928V222H77.903V217.184C77.903 216.661 77.7697 216.256 77.503 215.968C77.2363 215.68 76.863 215.536 76.383 215.536C75.8177 215.536 75.359 215.755 75.007 216.192C74.6657 216.629 74.495 217.179 74.495 217.84V222H72.399V213.84ZM85.1229 222.128C84.7175 222.128 84.3442 222.069 84.0029 221.952C83.6615 221.824 83.3842 221.653 83.1709 221.44C82.6695 220.96 82.4189 220.277 82.4189 219.392V215.632H80.9949V213.84H82.4189V211.536H84.5149V213.84H86.5149V215.632H84.5149V219.008C84.5149 219.424 84.6055 219.723 84.7869 219.904C84.9362 220.075 85.1922 220.16 85.5549 220.16C85.7575 220.16 85.9229 220.133 86.0509 220.08C86.1895 220.027 86.3655 219.936 86.5789 219.808V221.856C86.1202 222.037 85.6349 222.128 85.1229 222.128ZM90.5981 222.256C89.7341 222.256 89.0248 222.005 88.4701 221.504C87.9155 220.992 87.6381 220.325 87.6381 219.504C87.6381 218.96 87.7821 218.48 88.0701 218.064C88.3581 217.648 88.7528 217.328 89.2541 217.104C89.7555 216.88 90.3101 216.768 90.9181 216.768C91.7608 216.768 92.4808 216.891 93.0781 217.136V216.784C93.0781 216.336 92.9075 215.973 92.5661 215.696C92.2355 215.419 91.7875 215.28 91.2221 215.28C90.8381 215.28 90.4648 215.371 90.1021 215.552C89.7501 215.723 89.4568 215.952 89.2221 216.24L87.8781 215.184C88.2728 214.672 88.7688 214.277 89.3661 214C89.9635 213.723 90.6141 213.584 91.3181 213.584C92.5661 213.584 93.5155 213.872 94.1661 214.448C94.8168 215.024 95.1421 215.867 95.1421 216.976V222H93.0781V221.168H92.9501C92.7048 221.488 92.3795 221.749 91.9741 221.952C91.5795 222.155 91.1208 222.256 90.5981 222.256ZM91.0941 220.624C91.7021 220.624 92.1821 220.432 92.5341 220.048C92.8968 219.653 93.0781 219.195 93.0781 218.672C92.5341 218.416 91.9635 218.288 91.3661 218.288C90.2781 218.288 89.7341 218.693 89.7341 219.504C89.7341 219.835 89.8515 220.107 90.0861 220.32C90.3208 220.523 90.6568 220.624 91.0941 220.624ZM100.833 222.256C100.011 222.256 99.2754 222.075 98.6248 221.712C97.9741 221.339 97.4621 220.821 97.0888 220.16C96.7261 219.499 96.5448 218.752 96.5448 217.92C96.5448 217.088 96.7261 216.347 97.0888 215.696C97.4621 215.035 97.9741 214.517 98.6248 214.144C99.2754 213.771 100.011 213.584 100.833 213.584C101.739 213.584 102.518 213.781 103.169 214.176C103.819 214.56 104.289 215.109 104.577 215.824L102.657 216.624C102.315 215.899 101.707 215.536 100.833 215.536C100.193 215.536 99.6648 215.755 99.2488 216.192C98.8434 216.629 98.6408 217.205 98.6408 217.92C98.6408 218.645 98.8434 219.227 99.2488 219.664C99.6648 220.101 100.193 220.32 100.833 220.32C101.718 220.32 102.358 219.936 102.753 219.168L104.657 220C104.305 220.715 103.803 221.269 103.153 221.664C102.502 222.059 101.729 222.256 100.833 222.256ZM109.639 222.128C109.233 222.128 108.86 222.069 108.519 221.952C108.177 221.824 107.9 221.653 107.687 221.44C107.185 220.96 106.935 220.277 106.935 219.392V215.632H105.511V213.84H106.935V211.536H109.031V213.84H111.031V215.632H109.031V219.008C109.031 219.424 109.121 219.723 109.303 219.904C109.452 220.075 109.708 220.16 110.071 220.16C110.273 220.16 110.439 220.133 110.567 220.08C110.705 220.027 110.881 219.936 111.095 219.808V221.856C110.636 222.037 110.151 222.128 109.639 222.128ZM116.812 210.544H118.972V222H116.812V210.544ZM121.29 213.84H123.258V214.864H123.386C123.631 214.469 123.978 214.16 124.426 213.936C124.874 213.701 125.359 213.584 125.882 213.584C126.863 213.584 127.61 213.883 128.122 214.48C128.634 215.077 128.89 215.893 128.89 216.928V222H126.794V217.184C126.794 216.661 126.66 216.256 126.394 215.968C126.127 215.68 125.754 215.536 125.274 215.536C124.708 215.536 124.25 215.755 123.898 216.192C123.556 216.629 123.386 217.179 123.386 217.84V222H121.29V213.84ZM131.592 215.632H130.136V213.84H131.592V213.392C131.592 212.464 131.869 211.739 132.424 211.216C132.978 210.683 133.704 210.416 134.6 210.416C135.112 210.416 135.554 210.475 135.928 210.592V212.64C135.725 212.555 135.544 212.491 135.384 212.448C135.234 212.405 135.058 212.384 134.856 212.384C134.504 212.384 134.221 212.485 134.008 212.688C133.794 212.891 133.688 213.168 133.688 213.52V213.84H135.688V215.632H133.688V222H131.592V215.632ZM140.741 222.256C139.898 222.256 139.146 222.069 138.485 221.696C137.823 221.312 137.306 220.795 136.933 220.144C136.57 219.483 136.389 218.741 136.389 217.92C136.389 217.109 136.57 216.373 136.933 215.712C137.306 215.051 137.823 214.533 138.485 214.16C139.146 213.776 139.898 213.584 140.741 213.584C141.573 213.584 142.319 213.776 142.981 214.16C143.642 214.533 144.154 215.051 144.517 215.712C144.89 216.373 145.077 217.109 145.077 217.92C145.077 218.741 144.89 219.483 144.517 220.144C144.154 220.795 143.642 221.312 142.981 221.696C142.319 222.069 141.573 222.256 140.741 222.256ZM140.741 220.32C141.146 220.32 141.519 220.224 141.861 220.032C142.202 219.84 142.474 219.563 142.677 219.2C142.879 218.837 142.981 218.411 142.981 217.92C142.981 217.44 142.879 217.019 142.677 216.656C142.474 216.293 142.202 216.016 141.861 215.824C141.519 215.632 141.146 215.536 140.741 215.536C140.335 215.536 139.962 215.632 139.621 215.824C139.279 216.016 139.002 216.293 138.789 216.656C138.586 217.019 138.485 217.44 138.485 217.92C138.485 218.4 138.586 218.827 138.789 219.2C139.002 219.563 139.279 219.84 139.621 220.032C139.962 220.224 140.335 220.32 140.741 220.32ZM146.524 213.84H148.492V214.928H148.62C148.823 214.544 149.137 214.229 149.564 213.984C149.991 213.728 150.46 213.6 150.972 213.6C151.345 213.6 151.687 213.659 151.996 213.776V215.872C151.708 215.765 151.463 215.691 151.26 215.648C151.068 215.595 150.86 215.568 150.636 215.568C150.017 215.568 149.527 215.792 149.164 216.24C148.801 216.688 148.62 217.253 148.62 217.936V222H146.524V213.84ZM153.352 213.84H155.32V214.864H155.448C155.704 214.469 156.045 214.16 156.472 213.936C156.909 213.701 157.395 213.584 157.928 213.584C158.504 213.584 159.005 213.723 159.432 214C159.859 214.267 160.163 214.608 160.344 215.024C160.611 214.597 160.973 214.251 161.432 213.984C161.901 213.717 162.451 213.584 163.08 213.584C164.008 213.584 164.712 213.872 165.192 214.448C165.683 215.013 165.928 215.781 165.928 216.752V222H163.848V217.136C163.848 216.624 163.725 216.229 163.48 215.952C163.245 215.675 162.915 215.536 162.488 215.536C161.944 215.536 161.507 215.755 161.176 216.192C160.856 216.619 160.696 217.184 160.696 217.888V222H158.6V217.136C158.6 216.624 158.472 216.229 158.216 215.952C157.971 215.675 157.619 215.536 157.16 215.536C156.648 215.536 156.232 215.755 155.912 216.192C155.603 216.619 155.448 217.184 155.448 217.888V222H153.352V213.84ZM170.348 222.256C169.484 222.256 168.775 222.005 168.22 221.504C167.665 220.992 167.388 220.325 167.388 219.504C167.388 218.96 167.532 218.48 167.82 218.064C168.108 217.648 168.503 217.328 169.004 217.104C169.505 216.88 170.06 216.768 170.668 216.768C171.511 216.768 172.231 216.891 172.828 217.136V216.784C172.828 216.336 172.657 215.973 172.316 215.696C171.985 215.419 171.537 215.28 170.972 215.28C170.588 215.28 170.215 215.371 169.852 215.552C169.5 215.723 169.207 215.952 168.972 216.24L167.628 215.184C168.023 214.672 168.519 214.277 169.116 214C169.713 213.723 170.364 213.584 171.068 213.584C172.316 213.584 173.265 213.872 173.916 214.448C174.567 215.024 174.892 215.867 174.892 216.976V222H172.828V221.168H172.7C172.455 221.488 172.129 221.749 171.724 221.952C171.329 222.155 170.871 222.256 170.348 222.256ZM170.844 220.624C171.452 220.624 171.932 220.432 172.284 220.048C172.647 219.653 172.828 219.195 172.828 218.672C172.284 218.416 171.713 218.288 171.116 218.288C170.028 218.288 169.484 218.693 169.484 219.504C169.484 219.835 169.601 220.107 169.836 220.32C170.071 220.523 170.407 220.624 170.844 220.624ZM180.217 222.128C179.811 222.128 179.438 222.069 179.097 221.952C178.755 221.824 178.478 221.653 178.265 221.44C177.763 220.96 177.513 220.277 177.513 219.392V215.632H176.089V213.84H177.513V211.536H179.609V213.84H181.609V215.632H179.609V219.008C179.609 219.424 179.699 219.723 179.881 219.904C180.03 220.075 180.286 220.16 180.649 220.16C180.851 220.16 181.017 220.133 181.145 220.08C181.283 220.027 181.459 219.936 181.673 219.808V221.856C181.214 222.037 180.729 222.128 180.217 222.128ZM184.614 212.944C184.241 212.944 183.921 212.811 183.654 212.544C183.388 212.277 183.254 211.957 183.254 211.584C183.254 211.211 183.388 210.896 183.654 210.64C183.921 210.373 184.241 210.24 184.614 210.24C184.988 210.24 185.302 210.373 185.558 210.64C185.825 210.896 185.958 211.211 185.958 211.584C185.958 211.957 185.825 212.277 185.558 212.544C185.302 212.811 184.988 212.944 184.614 212.944ZM183.558 213.84H185.654V222H183.558V213.84ZM191.678 222.256C190.835 222.256 190.083 222.069 189.422 221.696C188.761 221.312 188.243 220.795 187.87 220.144C187.507 219.483 187.326 218.741 187.326 217.92C187.326 217.109 187.507 216.373 187.87 215.712C188.243 215.051 188.761 214.533 189.422 214.16C190.083 213.776 190.835 213.584 191.678 213.584C192.51 213.584 193.257 213.776 193.918 214.16C194.579 214.533 195.091 215.051 195.454 215.712C195.827 216.373 196.014 217.109 196.014 217.92C196.014 218.741 195.827 219.483 195.454 220.144C195.091 220.795 194.579 221.312 193.918 221.696C193.257 222.069 192.51 222.256 191.678 222.256ZM191.678 220.32C192.083 220.32 192.457 220.224 192.798 220.032C193.139 219.84 193.411 219.563 193.614 219.2C193.817 218.837 193.918 218.411 193.918 217.92C193.918 217.44 193.817 217.019 193.614 216.656C193.411 216.293 193.139 216.016 192.798 215.824C192.457 215.632 192.083 215.536 191.678 215.536C191.273 215.536 190.899 215.632 190.558 215.824C190.217 216.016 189.939 216.293 189.726 216.656C189.523 217.019 189.422 217.44 189.422 217.92C189.422 218.4 189.523 218.827 189.726 219.2C189.939 219.563 190.217 219.84 190.558 220.032C190.899 220.224 191.273 220.32 191.678 220.32ZM197.462 213.84H199.43V214.864H199.558C199.803 214.469 200.15 214.16 200.598 213.936C201.046 213.701 201.531 213.584 202.054 213.584C203.035 213.584 203.782 213.883 204.294 214.48C204.806 215.077 205.062 215.893 205.062 216.928V222H202.966V217.184C202.966 216.661 202.832 216.256 202.566 215.968C202.299 215.68 201.926 215.536 201.446 215.536C200.88 215.536 200.422 215.755 200.07 216.192C199.728 216.629 199.558 217.179 199.558 217.84V222H197.462V213.84Z" fill="white"/>
<path d="M54.528 316.544H57.008L61.312 328H58.928L57.968 325.264H53.584L52.624 328H50.24L54.528 316.544ZM57.264 323.28L56.256 320.4L55.84 319.024H55.712L55.296 320.4L54.272 323.28H57.264ZM65.1086 328.256C64.1273 328.256 63.3806 327.952 62.8686 327.344C62.3566 326.736 62.1006 325.888 62.1006 324.8V319.84H64.1966V324.544C64.1966 325.099 64.33 325.536 64.5966 325.856C64.8633 326.165 65.2153 326.32 65.6526 326.32C66.25 326.32 66.7246 326.101 67.0766 325.664C67.4286 325.227 67.6046 324.672 67.6046 324V319.84H69.7006V328H67.7326V326.976H67.6046C67.3593 327.371 67.0126 327.685 66.5646 327.92C66.1273 328.144 65.642 328.256 65.1086 328.256ZM75.3729 328.128C74.9675 328.128 74.5942 328.069 74.2529 327.952C73.9115 327.824 73.6342 327.653 73.4209 327.44C72.9195 326.96 72.6689 326.277 72.6689 325.392V321.632H71.2449V319.84H72.6689V317.536H74.7649V319.84H76.7649V321.632H74.7649V325.008C74.7649 325.424 74.8555 325.723 75.0369 325.904C75.1862 326.075 75.4422 326.16 75.8049 326.16C76.0075 326.16 76.1729 326.133 76.3009 326.08C76.4395 326.027 76.6155 325.936 76.8289 325.808V327.856C76.3702 328.037 75.8849 328.128 75.3729 328.128ZM78.5865 316.544H80.6825V319.44L80.5545 320.864H80.6825C80.9172 320.48 81.2585 320.171 81.7065 319.936C82.1545 319.701 82.6398 319.584 83.1625 319.584C84.1545 319.584 84.9118 319.883 85.4345 320.48C85.9678 321.067 86.2345 321.883 86.2345 322.928V328H84.1385V323.184C84.1385 322.661 83.9945 322.256 83.7065 321.968C83.4292 321.68 83.0558 321.536 82.5865 321.536C82.0318 321.536 81.5732 321.76 81.2105 322.208C80.8585 322.656 80.6825 323.205 80.6825 323.856V328H78.5865V316.544ZM92.1155 328.256C91.2728 328.256 90.5208 328.069 89.8595 327.696C89.1982 327.312 88.6808 326.795 88.3075 326.144C87.9448 325.483 87.7635 324.741 87.7635 323.92C87.7635 323.109 87.9448 322.373 88.3075 321.712C88.6808 321.051 89.1982 320.533 89.8595 320.16C90.5208 319.776 91.2728 319.584 92.1155 319.584C92.9475 319.584 93.6942 319.776 94.3555 320.16C95.0168 320.533 95.5288 321.051 95.8915 321.712C96.2648 322.373 96.4515 323.109 96.4515 323.92C96.4515 324.741 96.2648 325.483 95.8915 326.144C95.5288 326.795 95.0168 327.312 94.3555 327.696C93.6942 328.069 92.9475 328.256 92.1155 328.256ZM92.1155 326.32C92.5208 326.32 92.8942 326.224 93.2355 326.032C93.5768 325.84 93.8488 325.563 94.0515 325.2C94.2542 324.837 94.3555 324.411 94.3555 323.92C94.3555 323.44 94.2542 323.019 94.0515 322.656C93.8488 322.293 93.5768 322.016 93.2355 321.824C92.8942 321.632 92.5208 321.536 92.1155 321.536C91.7102 321.536 91.3368 321.632 90.9955 321.824C90.6542 322.016 90.3768 322.293 90.1635 322.656C89.9608 323.019 89.8595 323.44 89.8595 323.92C89.8595 324.4 89.9608 324.827 90.1635 325.2C90.3768 325.563 90.6542 325.84 90.9955 326.032C91.3368 326.224 91.7102 326.32 92.1155 326.32ZM97.899 319.84H99.867V320.928H99.995C100.198 320.544 100.512 320.229 100.939 319.984C101.366 319.728 101.835 319.6 102.347 319.6C102.72 319.6 103.062 319.659 103.371 319.776V321.872C103.083 321.765 102.838 321.691 102.635 321.648C102.443 321.595 102.235 321.568 102.011 321.568C101.392 321.568 100.902 321.792 100.539 322.24C100.176 322.688 99.995 323.253 99.995 323.936V328H97.899V319.84ZM105.911 318.944C105.538 318.944 105.218 318.811 104.951 318.544C104.684 318.277 104.551 317.957 104.551 317.584C104.551 317.211 104.684 316.896 104.951 316.64C105.218 316.373 105.538 316.24 105.911 316.24C106.284 316.24 106.599 316.373 106.855 316.64C107.122 316.896 107.255 317.211 107.255 317.584C107.255 317.957 107.122 318.277 106.855 318.544C106.599 318.811 106.284 318.944 105.911 318.944ZM104.855 319.84H106.951V328H104.855V319.84ZM112.623 328.128C112.218 328.128 111.844 328.069 111.503 327.952C111.162 327.824 110.884 327.653 110.671 327.44C110.17 326.96 109.919 326.277 109.919 325.392V321.632H108.495V319.84H109.919V317.536H112.015V319.84H114.015V321.632H112.015V325.008C112.015 325.424 112.106 325.723 112.287 325.904C112.436 326.075 112.692 326.16 113.055 326.16C113.258 326.16 113.423 326.133 113.551 326.08C113.69 326.027 113.866 325.936 114.079 325.808V327.856C113.62 328.037 113.135 328.128 112.623 328.128ZM118.381 327.616L114.941 319.84H117.325L119.437 324.912H119.565L121.597 319.84H123.933L118.893 331.456H116.637L118.381 327.616Z" fill="white"/>
<path d="M56.736 435.256C55.6267 435.256 54.6133 434.995 53.696 434.472C52.7787 433.939 52.0533 433.219 51.52 432.312C50.9973 431.395 50.736 430.381 50.736 429.272C50.736 428.163 50.9973 427.155 51.52 426.248C52.0533 425.331 52.7787 424.611 53.696 424.088C54.6133 423.555 55.6267 423.288 56.736 423.288C58.464 423.288 59.8933 423.912 61.024 425.16L59.504 426.632C58.768 425.768 57.8507 425.336 56.752 425.336C56.0373 425.336 55.3867 425.501 54.8 425.832C54.2133 426.152 53.7493 426.611 53.408 427.208C53.0773 427.805 52.912 428.493 52.912 429.272C52.912 430.051 53.0773 430.739 53.408 431.336C53.7493 431.933 54.2133 432.397 54.8 432.728C55.3867 433.048 56.0373 433.208 56.752 433.208C57.9573 433.208 58.9653 432.707 59.776 431.704L61.312 433.16C60.7467 433.843 60.0747 434.365 59.296 434.728C58.528 435.08 57.6747 435.256 56.736 435.256ZM66.6155 435.256C65.7728 435.256 65.0208 435.069 64.3595 434.696C63.6982 434.312 63.1808 433.795 62.8075 433.144C62.4448 432.483 62.2635 431.741 62.2635 430.92C62.2635 430.109 62.4448 429.373 62.8075 428.712C63.1808 428.051 63.6982 427.533 64.3595 427.16C65.0208 426.776 65.7728 426.584 66.6155 426.584C67.4475 426.584 68.1942 426.776 68.8555 427.16C69.5168 427.533 70.0288 428.051 70.3915 428.712C70.7648 429.373 70.9515 430.109 70.9515 430.92C70.9515 431.741 70.7648 432.483 70.3915 433.144C70.0288 433.795 69.5168 434.312 68.8555 434.696C68.1942 435.069 67.4475 435.256 66.6155 435.256ZM66.6155 433.32C67.0208 433.32 67.3942 433.224 67.7355 433.032C68.0768 432.84 68.3488 432.563 68.5515 432.2C68.7542 431.837 68.8555 431.411 68.8555 430.92C68.8555 430.44 68.7542 430.019 68.5515 429.656C68.3488 429.293 68.0768 429.016 67.7355 428.824C67.3942 428.632 67.0208 428.536 66.6155 428.536C66.2102 428.536 65.8368 428.632 65.4955 428.824C65.1542 429.016 64.8768 429.293 64.6635 429.656C64.4608 430.019 64.3595 430.44 64.3595 430.92C64.3595 431.4 64.4608 431.827 64.6635 432.2C64.8768 432.563 65.1542 432.84 65.4955 433.032C65.8368 433.224 66.2102 433.32 66.6155 433.32ZM72.399 426.84H74.367V427.864H74.495C74.751 427.469 75.0923 427.16 75.519 426.936C75.9563 426.701 76.4417 426.584 76.975 426.584C77.551 426.584 78.0523 426.723 78.479 427C78.9057 427.267 79.2097 427.608 79.391 428.024C79.6577 427.597 80.0203 427.251 80.479 426.984C80.9483 426.717 81.4977 426.584 82.127 426.584C83.055 426.584 83.759 426.872 84.239 427.448C84.7297 428.013 84.975 428.781 84.975 429.752V435H82.895V430.136C82.895 429.624 82.7723 429.229 82.527 428.952C82.2923 428.675 81.9617 428.536 81.535 428.536C80.991 428.536 80.5537 428.755 80.223 429.192C79.903 429.619 79.743 430.184 79.743 430.888V435H77.647V430.136C77.647 429.624 77.519 429.229 77.263 428.952C77.0177 428.675 76.6657 428.536 76.207 428.536C75.695 428.536 75.279 428.755 74.959 429.192C74.6497 429.619 74.495 430.184 74.495 430.888V435H72.399V426.84ZM86.9131 426.84H88.8811V427.832H89.0091C89.2331 427.48 89.5585 427.187 89.9851 426.952C90.4118 426.707 90.9025 426.584 91.4571 426.584C92.1931 426.584 92.8598 426.771 93.4571 427.144C94.0651 427.507 94.5398 428.019 94.8811 428.68C95.2225 429.341 95.3931 430.088 95.3931 430.92C95.3931 431.763 95.2225 432.515 94.8811 433.176C94.5398 433.827 94.0651 434.339 93.4571 434.712C92.8598 435.075 92.1931 435.256 91.4571 435.256C90.9025 435.256 90.4065 435.139 89.9691 434.904C89.5425 434.669 89.2225 434.376 89.0091 434.024H88.8811L89.0091 435.176V438.456H86.9131V426.84ZM91.0891 433.32C91.4838 433.32 91.8518 433.219 92.1931 433.016C92.5345 432.813 92.8065 432.531 93.0091 432.168C93.2118 431.805 93.3131 431.389 93.3131 430.92C93.3131 430.451 93.2118 430.035 93.0091 429.672C92.8065 429.309 92.5345 429.032 92.1931 428.84C91.8518 428.637 91.4838 428.536 91.0891 428.536C90.7051 428.536 90.3425 428.637 90.0011 428.84C89.6598 429.032 89.3878 429.309 89.1851 429.672C88.9825 430.035 88.8811 430.451 88.8811 430.92C88.8811 431.389 88.9825 431.805 89.1851 432.168C89.3878 432.531 89.6598 432.813 90.0011 433.016C90.3425 433.219 90.7051 433.32 91.0891 433.32ZM99.5044 435.256C98.6404 435.256 97.931 435.005 97.3764 434.504C96.8217 433.992 96.5444 433.325 96.5444 432.504C96.5444 431.96 96.6884 431.48 96.9764 431.064C97.2644 430.648 97.659 430.328 98.1604 430.104C98.6617 429.88 99.2164 429.768 99.8244 429.768C100.667 429.768 101.387 429.891 101.984 430.136V429.784C101.984 429.336 101.814 428.973 101.472 428.696C101.142 428.419 100.694 428.28 100.128 428.28C99.7444 428.28 99.371 428.371 99.0084 428.552C98.6564 428.723 98.363 428.952 98.1284 429.24L96.7844 428.184C97.179 427.672 97.675 427.277 98.2724 427C98.8697 426.723 99.5204 426.584 100.224 426.584C101.472 426.584 102.422 426.872 103.072 427.448C103.723 428.024 104.048 428.867 104.048 429.976V435H101.984V434.168H101.856C101.611 434.488 101.286 434.749 100.88 434.952C100.486 435.155 100.027 435.256 99.5044 435.256ZM100 433.624C100.608 433.624 101.088 433.432 101.44 433.048C101.803 432.653 101.984 432.195 101.984 431.672C101.44 431.416 100.87 431.288 100.272 431.288C99.1844 431.288 98.6404 431.693 98.6404 432.504C98.6404 432.835 98.7577 433.107 98.9924 433.32C99.227 433.523 99.563 433.624 100 433.624ZM105.977 426.84H107.945V427.864H108.073C108.318 427.469 108.665 427.16 109.113 426.936C109.561 426.701 110.046 426.584 110.569 426.584C111.55 426.584 112.297 426.883 112.809 427.48C113.321 428.077 113.577 428.893 113.577 429.928V435H111.481V430.184C111.481 429.661 111.348 429.256 111.081 428.968C110.814 428.68 110.441 428.536 109.961 428.536C109.396 428.536 108.937 428.755 108.585 429.192C108.244 429.629 108.073 430.179 108.073 430.84V435H105.977V426.84ZM117.865 434.616L114.425 426.84H116.809L118.921 431.912H119.049L121.081 426.84H123.417L118.377 438.456H116.121L117.865 434.616ZM128.609 423.544H132.481C133.676 423.544 134.716 423.784 135.601 424.264C136.486 424.744 137.169 425.416 137.649 426.28C138.129 427.144 138.369 428.141 138.369 429.272C138.369 430.403 138.129 431.4 137.649 432.264C137.169 433.128 136.486 433.8 135.601 434.28C134.716 434.76 133.676 435 132.481 435H128.609V423.544ZM132.385 432.952C133.622 432.952 134.566 432.627 135.217 431.976C135.868 431.315 136.193 430.413 136.193 429.272C136.193 428.131 135.868 427.235 135.217 426.584C134.566 425.923 133.622 425.592 132.385 425.592H130.769V432.952H132.385ZM143.723 435.256C142.912 435.256 142.182 435.069 141.531 434.696C140.88 434.323 140.368 433.811 139.995 433.16C139.632 432.499 139.451 431.757 139.451 430.936C139.451 430.157 139.632 429.437 139.995 428.776C140.358 428.104 140.859 427.571 141.499 427.176C142.139 426.781 142.854 426.584 143.643 426.584C144.486 426.584 145.211 426.765 145.819 427.128C146.427 427.491 146.886 427.987 147.195 428.616C147.515 429.245 147.675 429.944 147.675 430.712C147.675 430.957 147.659 431.192 147.627 431.416H141.499C141.606 432.067 141.862 432.563 142.267 432.904C142.683 433.235 143.179 433.4 143.755 433.4C144.235 433.4 144.646 433.299 144.987 433.096C145.339 432.883 145.616 432.6 145.819 432.248L147.515 433.08C146.683 434.531 145.419 435.256 143.723 435.256ZM145.659 429.928C145.638 429.672 145.542 429.421 145.371 429.176C145.211 428.92 144.982 428.712 144.683 428.552C144.395 428.381 144.054 428.296 143.659 428.296C143.158 428.296 142.726 428.445 142.363 428.744C142.011 429.032 141.755 429.427 141.595 429.928H145.659ZM152.607 435.128C152.202 435.128 151.829 435.069 151.487 434.952C151.146 434.824 150.869 434.653 150.655 434.44C150.154 433.96 149.903 433.277 149.903 432.392V428.632H148.479V426.84H149.903V424.536H151.999V426.84H153.999V428.632H151.999V432.008C151.999 432.424 152.09 432.723 152.271 432.904C152.421 433.075 152.677 433.16 153.039 433.16C153.242 433.16 153.407 433.133 153.535 433.08C153.674 433.027 153.85 432.936 154.063 432.808V434.856C153.605 435.037 153.119 435.128 152.607 435.128ZM158.083 435.256C157.219 435.256 156.509 435.005 155.955 434.504C155.4 433.992 155.123 433.325 155.123 432.504C155.123 431.96 155.267 431.48 155.555 431.064C155.843 430.648 156.237 430.328 156.739 430.104C157.24 429.88 157.795 429.768 158.403 429.768C159.245 429.768 159.965 429.891 160.563 430.136V429.784C160.563 429.336 160.392 428.973 160.051 428.696C159.72 428.419 159.272 428.28 158.707 428.28C158.323 428.28 157.949 428.371 157.587 428.552C157.235 428.723 156.941 428.952 156.707 429.24L155.363 428.184C155.757 427.672 156.253 427.277 156.851 427C157.448 426.723 158.099 426.584 158.803 426.584C160.051 426.584 161 426.872 161.651 427.448C162.301 428.024 162.627 428.867 162.627 429.976V435H160.563V434.168H160.435C160.189 434.488 159.864 434.749 159.459 434.952C159.064 435.155 158.605 435.256 158.083 435.256ZM158.579 433.624C159.187 433.624 159.667 433.432 160.019 433.048C160.381 432.653 160.563 432.195 160.563 431.672C160.019 431.416 159.448 431.288 158.851 431.288C157.763 431.288 157.219 431.693 157.219 432.504C157.219 432.835 157.336 433.107 157.571 433.32C157.805 433.523 158.141 433.624 158.579 433.624ZM165.739 425.944C165.366 425.944 165.046 425.811 164.779 425.544C164.513 425.277 164.379 424.957 164.379 424.584C164.379 424.211 164.513 423.896 164.779 423.64C165.046 423.373 165.366 423.24 165.739 423.24C166.113 423.24 166.427 423.373 166.683 423.64C166.95 423.896 167.083 424.211 167.083 424.584C167.083 424.957 166.95 425.277 166.683 425.544C166.427 425.811 166.113 425.944 165.739 425.944ZM164.683 426.84H166.779V435H164.683V426.84ZM168.977 423.544H171.073V435H168.977V423.544ZM176.159 435.256C175.167 435.256 174.362 435.053 173.743 434.648C173.135 434.243 172.709 433.715 172.463 433.064L174.335 432.248C174.506 432.632 174.746 432.925 175.055 433.128C175.375 433.32 175.743 433.416 176.159 433.416C176.543 433.416 176.863 433.357 177.119 433.24C177.375 433.112 177.503 432.909 177.503 432.632C177.503 432.365 177.386 432.168 177.151 432.04C176.917 431.901 176.565 431.779 176.095 431.672L175.135 431.464C174.474 431.304 173.925 431.016 173.487 430.6C173.05 430.173 172.831 429.645 172.831 429.016C172.831 428.547 172.97 428.125 173.247 427.752C173.535 427.379 173.919 427.091 174.399 426.888C174.89 426.685 175.429 426.584 176.015 426.584C177.701 426.584 178.826 427.176 179.391 428.36L177.599 429.144C177.279 428.568 176.767 428.28 176.063 428.28C175.701 428.28 175.413 428.349 175.199 428.488C174.986 428.616 174.879 428.781 174.879 428.984C174.879 429.368 175.242 429.656 175.967 429.848L177.167 430.136C177.978 430.339 178.586 430.648 178.991 431.064C179.407 431.48 179.615 431.992 179.615 432.6C179.615 433.123 179.461 433.587 179.151 433.992C178.853 434.387 178.437 434.696 177.903 434.92C177.381 435.144 176.799 435.256 176.159 435.256Z" fill="white"/>
<path d="M56.72 539.256C55.6 539.256 54.5813 538.995 53.664 538.472C52.7573 537.939 52.0427 537.213 51.52 536.296C50.9973 535.379 50.736 534.371 50.736 533.272C50.736 532.173 50.9973 531.165 51.52 530.248C52.0427 529.331 52.7573 528.611 53.664 528.088C54.5813 527.555 55.6 527.288 56.72 527.288C57.84 527.288 58.8533 527.555 59.76 528.088C60.6773 528.611 61.3973 529.331 61.92 530.248C62.4427 531.165 62.704 532.173 62.704 533.272C62.704 534.371 62.4427 535.379 61.92 536.296C61.3973 537.213 60.6773 537.939 59.76 538.472C58.8533 538.995 57.84 539.256 56.72 539.256ZM56.72 537.208C57.424 537.208 58.0693 537.043 58.656 536.712C59.2427 536.381 59.7013 535.917 60.032 535.32C60.3733 534.723 60.544 534.04 60.544 533.272C60.544 532.504 60.3733 531.821 60.032 531.224C59.7013 530.627 59.2427 530.163 58.656 529.832C58.0693 529.501 57.424 529.336 56.72 529.336C56.016 529.336 55.3707 529.501 54.784 529.832C54.208 530.163 53.7493 530.627 53.408 531.224C53.0773 531.821 52.912 532.504 52.912 533.272C52.912 534.04 53.0773 534.723 53.408 535.32C53.7493 535.917 54.208 536.381 54.784 536.712C55.3707 537.043 56.016 537.208 56.72 537.208ZM64.3975 530.84H66.3655V531.832H66.4935C66.7175 531.48 67.0428 531.187 67.4695 530.952C67.8962 530.707 68.3868 530.584 68.9415 530.584C69.6775 530.584 70.3442 530.771 70.9415 531.144C71.5495 531.507 72.0242 532.019 72.3655 532.68C72.7068 533.341 72.8775 534.088 72.8775 534.92C72.8775 535.763 72.7068 536.515 72.3655 537.176C72.0242 537.827 71.5495 538.339 70.9415 538.712C70.3442 539.075 69.6775 539.256 68.9415 539.256C68.3868 539.256 67.8908 539.139 67.4535 538.904C67.0268 538.669 66.7068 538.376 66.4935 538.024H66.3655L66.4935 539.176V542.456H64.3975V530.84ZM68.5735 537.32C68.9682 537.32 69.3362 537.219 69.6775 537.016C70.0188 536.813 70.2908 536.531 70.4935 536.168C70.6962 535.805 70.7975 535.389 70.7975 534.92C70.7975 534.451 70.6962 534.035 70.4935 533.672C70.2908 533.309 70.0188 533.032 69.6775 532.84C69.3362 532.637 68.9682 532.536 68.5735 532.536C68.1895 532.536 67.8268 532.637 67.4855 532.84C67.1442 533.032 66.8722 533.309 66.6695 533.672C66.4668 534.035 66.3655 534.451 66.3655 534.92C66.3655 535.389 66.4668 535.805 66.6695 536.168C66.8722 536.531 67.1442 536.813 67.4855 537.016C67.8268 537.219 68.1895 537.32 68.5735 537.32ZM78.3168 539.256C77.5061 539.256 76.7754 539.069 76.1248 538.696C75.4741 538.323 74.9621 537.811 74.5888 537.16C74.2261 536.499 74.0448 535.757 74.0448 534.936C74.0448 534.157 74.2261 533.437 74.5888 532.776C74.9514 532.104 75.4528 531.571 76.0928 531.176C76.7328 530.781 77.4474 530.584 78.2368 530.584C79.0794 530.584 79.8048 530.765 80.4128 531.128C81.0208 531.491 81.4794 531.987 81.7888 532.616C82.1088 533.245 82.2688 533.944 82.2688 534.712C82.2688 534.957 82.2528 535.192 82.2208 535.416H76.0928C76.1994 536.067 76.4554 536.563 76.8608 536.904C77.2768 537.235 77.7728 537.4 78.3488 537.4C78.8288 537.4 79.2394 537.299 79.5808 537.096C79.9328 536.883 80.2101 536.6 80.4128 536.248L82.1088 537.08C81.2768 538.531 80.0128 539.256 78.3168 539.256ZM80.2528 533.928C80.2314 533.672 80.1354 533.421 79.9648 533.176C79.8048 532.92 79.5754 532.712 79.2768 532.552C78.9888 532.381 78.6474 532.296 78.2528 532.296C77.7514 532.296 77.3194 532.445 76.9568 532.744C76.6048 533.032 76.3488 533.427 76.1888 533.928H80.2528ZM83.8834 530.84H85.8514V531.864H85.9794C86.2247 531.469 86.5714 531.16 87.0194 530.936C87.4674 530.701 87.9527 530.584 88.4754 530.584C89.4567 530.584 90.2034 530.883 90.7154 531.48C91.2274 532.077 91.4834 532.893 91.4834 533.928V539H89.3874V534.184C89.3874 533.661 89.254 533.256 88.9874 532.968C88.7207 532.68 88.3474 532.536 87.8674 532.536C87.302 532.536 86.8434 532.755 86.4914 533.192C86.15 533.629 85.9794 534.179 85.9794 534.84V539H83.8834V530.84ZM96.4874 539.256C95.4954 539.256 94.69 539.053 94.0714 538.648C93.4634 538.243 93.0367 537.715 92.7914 537.064L94.6634 536.248C94.834 536.632 95.074 536.925 95.3834 537.128C95.7034 537.32 96.0714 537.416 96.4874 537.416C96.8714 537.416 97.1914 537.357 97.4474 537.24C97.7034 537.112 97.8314 536.909 97.8314 536.632C97.8314 536.365 97.714 536.168 97.4794 536.04C97.2447 535.901 96.8927 535.779 96.4234 535.672L95.4634 535.464C94.802 535.304 94.2527 535.016 93.8154 534.6C93.378 534.173 93.1594 533.645 93.1594 533.016C93.1594 532.547 93.298 532.125 93.5754 531.752C93.8634 531.379 94.2474 531.091 94.7274 530.888C95.218 530.685 95.7567 530.584 96.3434 530.584C98.0287 530.584 99.154 531.176 99.7194 532.36L97.9274 533.144C97.6074 532.568 97.0954 532.28 96.3914 532.28C96.0287 532.28 95.7407 532.349 95.5274 532.488C95.314 532.616 95.2074 532.781 95.2074 532.984C95.2074 533.368 95.57 533.656 96.2954 533.848L97.4954 534.136C98.306 534.339 98.914 534.648 99.3194 535.064C99.7354 535.48 99.9434 535.992 99.9434 536.6C99.9434 537.123 99.7887 537.587 99.4794 537.992C99.1807 538.387 98.7647 538.696 98.2314 538.92C97.7087 539.144 97.1274 539.256 96.4874 539.256ZM101.462 527.544H103.558V530.44L103.43 531.864H103.558C103.792 531.48 104.134 531.171 104.582 530.936C105.03 530.701 105.515 530.584 106.038 530.584C107.03 530.584 107.787 530.883 108.31 531.48C108.843 532.067 109.11 532.883 109.11 533.928V539H107.014V534.184C107.014 533.661 106.87 533.256 106.582 532.968C106.304 532.68 105.931 532.536 105.462 532.536C104.907 532.536 104.448 532.76 104.086 533.208C103.734 533.656 103.558 534.205 103.558 534.856V539H101.462V527.544ZM112.271 529.944C111.897 529.944 111.577 529.811 111.311 529.544C111.044 529.277 110.911 528.957 110.911 528.584C110.911 528.211 111.044 527.896 111.311 527.64C111.577 527.373 111.897 527.24 112.271 527.24C112.644 527.24 112.959 527.373 113.215 527.64C113.481 527.896 113.615 528.211 113.615 528.584C113.615 528.957 113.481 529.277 113.215 529.544C112.959 529.811 112.644 529.944 112.271 529.944ZM111.215 530.84H113.311V539H111.215V530.84ZM115.444 530.84H117.412V531.832H117.54C117.764 531.48 118.09 531.187 118.516 530.952C118.943 530.707 119.434 530.584 119.988 530.584C120.724 530.584 121.391 530.771 121.988 531.144C122.596 531.507 123.071 532.019 123.412 532.68C123.754 533.341 123.924 534.088 123.924 534.92C123.924 535.763 123.754 536.515 123.412 537.176C123.071 537.827 122.596 538.339 121.988 538.712C121.391 539.075 120.724 539.256 119.988 539.256C119.434 539.256 118.938 539.139 118.5 538.904C118.074 538.669 117.754 538.376 117.54 538.024H117.412L117.54 539.176V542.456H115.444V530.84ZM119.62 537.32C120.015 537.32 120.383 537.219 120.724 537.016C121.066 536.813 121.338 536.531 121.54 536.168C121.743 535.805 121.844 535.389 121.844 534.92C121.844 534.451 121.743 534.035 121.54 533.672C121.338 533.309 121.066 533.032 120.724 532.84C120.383 532.637 120.015 532.536 119.62 532.536C119.236 532.536 118.874 532.637 118.532 532.84C118.191 533.032 117.919 533.309 117.716 533.672C117.514 534.035 117.412 534.451 117.412 534.92C117.412 535.389 117.514 535.805 117.716 536.168C117.919 536.531 118.191 536.813 118.532 537.016C118.874 537.219 119.236 537.32 119.62 537.32ZM132.309 527.544H134.789L139.093 539H136.709L135.749 536.264H131.365L130.405 539H128.021L132.309 527.544ZM135.045 534.28L134.037 531.4L133.621 530.024H133.493L133.077 531.4L132.053 534.28H135.045ZM143.958 539.256C143.136 539.256 142.4 539.075 141.75 538.712C141.099 538.339 140.587 537.821 140.214 537.16C139.851 536.499 139.67 535.752 139.67 534.92C139.67 534.088 139.851 533.347 140.214 532.696C140.587 532.035 141.099 531.517 141.75 531.144C142.4 530.771 143.136 530.584 143.958 530.584C144.864 530.584 145.643 530.781 146.294 531.176C146.944 531.56 147.414 532.109 147.702 532.824L145.782 533.624C145.44 532.899 144.832 532.536 143.958 532.536C143.318 532.536 142.79 532.755 142.374 533.192C141.968 533.629 141.766 534.205 141.766 534.92C141.766 535.645 141.968 536.227 142.374 536.664C142.79 537.101 143.318 537.32 143.958 537.32C144.843 537.32 145.483 536.936 145.878 536.168L147.782 537C147.43 537.715 146.928 538.269 146.278 538.664C145.627 539.059 144.854 539.256 143.958 539.256ZM153.052 539.256C152.23 539.256 151.494 539.075 150.844 538.712C150.193 538.339 149.681 537.821 149.308 537.16C148.945 536.499 148.764 535.752 148.764 534.92C148.764 534.088 148.945 533.347 149.308 532.696C149.681 532.035 150.193 531.517 150.844 531.144C151.494 530.771 152.23 530.584 153.052 530.584C153.958 530.584 154.737 530.781 155.388 531.176C156.038 531.56 156.508 532.109 156.796 532.824L154.876 533.624C154.534 532.899 153.926 532.536 153.052 532.536C152.412 532.536 151.884 532.755 151.468 533.192C151.062 533.629 150.86 534.205 150.86 534.92C150.86 535.645 151.062 536.227 151.468 536.664C151.884 537.101 152.412 537.32 153.052 537.32C153.937 537.32 154.577 536.936 154.972 536.168L156.876 537C156.524 537.715 156.022 538.269 155.372 538.664C154.721 539.059 153.948 539.256 153.052 539.256ZM162.209 539.256C161.367 539.256 160.615 539.069 159.953 538.696C159.292 538.312 158.775 537.795 158.401 537.144C158.039 536.483 157.857 535.741 157.857 534.92C157.857 534.109 158.039 533.373 158.401 532.712C158.775 532.051 159.292 531.533 159.953 531.16C160.615 530.776 161.367 530.584 162.209 530.584C163.041 530.584 163.788 530.776 164.449 531.16C165.111 531.533 165.623 532.051 165.985 532.712C166.359 533.373 166.545 534.109 166.545 534.92C166.545 535.741 166.359 536.483 165.985 537.144C165.623 537.795 165.111 538.312 164.449 538.696C163.788 539.069 163.041 539.256 162.209 539.256ZM162.209 537.32C162.615 537.32 162.988 537.224 163.329 537.032C163.671 536.84 163.943 536.563 164.145 536.2C164.348 535.837 164.449 535.411 164.449 534.92C164.449 534.44 164.348 534.019 164.145 533.656C163.943 533.293 163.671 533.016 163.329 532.824C162.988 532.632 162.615 532.536 162.209 532.536C161.804 532.536 161.431 532.632 161.089 532.824C160.748 533.016 160.471 533.293 160.257 533.656C160.055 534.019 159.953 534.44 159.953 534.92C159.953 535.4 160.055 535.827 160.257 536.2C160.471 536.563 160.748 536.84 161.089 537.032C161.431 537.224 161.804 537.32 162.209 537.32ZM171.015 539.256C170.034 539.256 169.287 538.952 168.775 538.344C168.263 537.736 168.007 536.888 168.007 535.8V530.84H170.103V535.544C170.103 536.099 170.236 536.536 170.503 536.856C170.77 537.165 171.122 537.32 171.559 537.32C172.156 537.32 172.631 537.101 172.983 536.664C173.335 536.227 173.511 535.672 173.511 535V530.84H175.607V539H173.639V537.976H173.511C173.266 538.371 172.919 538.685 172.471 538.92C172.034 539.144 171.548 539.256 171.015 539.256ZM177.649 530.84H179.617V531.864H179.745C179.99 531.469 180.337 531.16 180.785 530.936C181.233 530.701 181.718 530.584 182.241 530.584C183.222 530.584 183.969 530.883 184.481 531.48C184.993 532.077 185.249 532.893 185.249 533.928V539H183.153V534.184C183.153 533.661 183.02 533.256 182.753 532.968C182.486 532.68 182.113 532.536 181.633 532.536C181.068 532.536 180.609 532.755 180.257 533.192C179.916 533.629 179.745 534.179 179.745 534.84V539H177.649V530.84ZM190.373 539.128C189.968 539.128 189.594 539.069 189.253 538.952C188.912 538.824 188.634 538.653 188.421 538.44C187.92 537.96 187.669 537.277 187.669 536.392V532.632H186.245V530.84H187.669V528.536H189.765V530.84H191.765V532.632H189.765V536.008C189.765 536.424 189.856 536.723 190.037 536.904C190.186 537.075 190.442 537.16 190.805 537.16C191.008 537.16 191.173 537.133 191.301 537.08C191.44 537.027 191.616 536.936 191.829 536.808V538.856C191.37 539.037 190.885 539.128 190.373 539.128Z" fill="white"/>
<rect x="46" width="129" height="129" rx="11" fill="white"/>
<path d="M137 32H89.5C86.8756 32 84.75 34.1256 84.75 36.75V41.5H82.375C81.064 41.5 80 42.564 80 43.875C80 45.186 81.064 46.25 82.375 46.25C86.6381 46.25 79.6556 46.25 89.5 46.25C90.811 46.25 91.875 47.314 91.875 48.625C91.875 49.936 90.811 51 89.5 51H84.75V79.5H82.375C81.064 79.5 80 80.564 80 81.875C80 83.186 81.064 84.25 82.375 84.25C86.6381 84.25 79.6556 84.25 89.5 84.25C90.811 84.25 91.875 85.314 91.875 86.625C91.875 87.936 90.811 89 89.5 89H84.75V93.75C84.75 96.3744 86.8756 98.5 89.5 98.5H137C139.624 98.5 141.75 96.3744 141.75 93.75V36.75C141.75 34.1256 139.624 32 137 32ZM113.25 43.875C118.496 43.875 122.75 48.1286 122.75 53.375C122.75 58.6214 118.496 62.875 113.25 62.875C108.004 62.875 103.75 58.6214 103.75 53.375C103.75 48.1286 108.004 43.875 113.25 43.875ZM127.5 84.25H99V79.5C99 71.6292 105.379 65.25 113.25 65.25C121.121 65.25 127.5 71.6292 127.5 79.5V84.25Z" fill="url(#paint0_linear_732_1383)"/>
<defs>
<linearGradient id="paint0_linear_732_1383" x1="110.875" y1="32" x2="110.875" y2="98.5" gradientUnits="userSpaceOnUse">
<stop stop-color="#02204F"/>
<stop offset="1" stop-color="#0549B5"/>
</linearGradient>
</defs>
</svg>
