<svg width="207" height="553" fill="none" xmlns="http://www.w3.org/2000/svg"><path stroke="#fff" stroke-width="3" stroke-dasharray="6 6" d="M20.5 242v56"/><circle cx="20.5" cy="323.5" r="19.5" stroke="#fff" stroke-width="2" stroke-dasharray="4 4"/><path stroke="#fff" stroke-width="3" stroke-dasharray="6 6" d="M21.5 348v56"/><circle cx="21.5" cy="427.5" r="19.5" stroke="#fff" stroke-width="2" stroke-dasharray="4 4"/><path stroke="#fff" stroke-width="3" stroke-dasharray="6 6" d="M21.5 452v56"/><circle cx="21.5" cy="532.5" r="19.5" stroke="#fff" stroke-width="2" stroke-dasharray="4 4"/><circle cx="20.5" cy="217.5" r="19.5" fill="#fff" stroke="#024EC9" stroke-width="2"/><circle cx="20.5" cy="217.5" r="7.5" fill="#024EC9"/><path d="M56.736 222.256c-1.11 0-2.123-.261-3.04-.784a5.947 5.947 0 01-2.176-2.16c-.523-.917-.784-1.931-.784-3.04s.261-2.117.784-3.024a5.799 5.799 0 012.176-2.16c.917-.533 1.93-.8 3.04-.8 1.728 0 3.157.624 4.288 1.872l-1.52 1.472c-.736-.864-1.653-1.296-2.752-1.296-.715 0-1.365.165-1.952.496-.587.32-1.05.779-1.392 1.376-.33.597-.496 1.285-.496 2.064 0 .779.165 1.467.496 2.064a3.64 3.64 0 001.392 1.392 4.01 4.01 0 001.952.48c1.205 0 2.213-.501 3.024-1.504l1.536 1.456a5.74 5.74 0 01-2.016 1.568c-.768.352-1.621.528-2.56.528zm9.88 0c-.843 0-1.595-.187-2.257-.56a4.165 4.165 0 01-1.551-1.552c-.363-.661-.544-1.403-.544-2.224 0-.811.18-1.547.543-2.208a4.019 4.019 0 011.552-1.552c.662-.384 1.414-.576 2.257-.576.832 0 1.578.192 2.24.576a3.91 3.91 0 011.535 1.552c.374.661.56 1.397.56 2.208 0 .821-.186 1.563-.56 2.224a4.048 4.048 0 01-1.535 1.552c-.662.373-1.408.56-2.24.56zm0-1.936c.405 0 .778-.096 1.12-.288a2.11 2.11 0 00.816-.832c.202-.363.303-.789.303-1.28 0-.48-.1-.901-.303-1.264a2.11 2.11 0 00-.817-.832 2.246 2.246 0 00-1.12-.288c-.405 0-.778.096-1.12.288a2.222 2.222 0 00-.832.832c-.202.363-.303.784-.303 1.264s.1.907.303 1.28c.214.363.491.64.833.832.34.192.714.288 1.12.288zm5.783-6.48h1.968v1.024h.128a2.515 2.515 0 011.04-.928 3.087 3.087 0 011.456-.352c.981 0 1.728.299 2.24.896.512.597.768 1.413.768 2.448V222h-2.096v-4.816c0-.523-.133-.928-.4-1.216-.267-.288-.64-.432-1.12-.432-.565 0-1.024.219-1.376.656-.341.437-.512.987-.512 1.648V222h-2.096v-8.16zm12.724 8.288a3.43 3.43 0 01-1.12-.176 2.3 2.3 0 01-.832-.512c-.502-.48-.752-1.163-.752-2.048v-3.76h-1.424v-1.792h1.424v-2.304h2.096v2.304h2v1.792h-2v3.376c0 .416.09.715.272.896.15.171.405.256.768.256.202 0 .368-.027.496-.08.138-.053.314-.144.528-.272v2.048a3.93 3.93 0 01-1.456.272zm5.475.128c-.864 0-1.573-.251-2.128-.752-.555-.512-.832-1.179-.832-2 0-.544.144-1.024.432-1.44a2.784 2.784 0 011.184-.96 4.034 4.034 0 011.664-.336c.843 0 1.563.123 2.16.368v-.352c0-.448-.17-.811-.512-1.088-.33-.277-.779-.416-1.344-.416-.384 0-.757.091-1.12.272a2.56 2.56 0 00-.88.688l-1.344-1.056c.395-.512.89-.907 1.488-1.184a4.583 4.583 0 011.952-.416c1.248 0 2.198.288 2.848.864.65.576.976 1.419.976 2.528V222h-2.064v-.832h-.128c-.245.32-.57.581-.976.784-.395.203-.853.304-1.376.304zm.496-1.632c.608 0 1.088-.192 1.44-.576a1.97 1.97 0 00.544-1.376 3.973 3.973 0 00-1.712-.384c-1.088 0-1.632.405-1.632 1.216 0 .331.118.603.352.816.235.203.57.304 1.008.304zm9.739 1.632c-.822 0-1.558-.181-2.208-.544a4.05 4.05 0 01-1.536-1.552c-.363-.661-.544-1.408-.544-2.24 0-.832.181-1.573.544-2.224a4.05 4.05 0 011.536-1.552c.65-.373 1.386-.56 2.208-.56.906 0 1.685.197 2.336.592.65.384 1.12.933 1.408 1.648l-1.92.8c-.342-.725-.95-1.088-1.824-1.088-.64 0-1.168.219-1.584.656-.406.437-.608 1.013-.608 1.728 0 .725.202 1.307.608 1.744.416.437.944.656 1.584.656.885 0 1.525-.384 1.92-1.152l1.904.832a3.93 3.93 0 01-1.504 1.664c-.651.395-1.424.592-2.32.592zm8.806-.128a3.43 3.43 0 01-1.12-.176 2.293 2.293 0 01-.832-.512c-.502-.48-.752-1.163-.752-2.048v-3.76h-1.424v-1.792h1.424v-2.304h2.096v2.304h2v1.792h-2v3.376c0 .416.09.715.272.896.149.171.405.256.768.256.202 0 .368-.027.496-.08.138-.053.314-.144.528-.272v2.048a3.932 3.932 0 01-1.456.272zm7.173-11.584h2.16V222h-2.16v-11.456zm4.478 3.296h1.968v1.024h.128a2.513 2.513 0 011.04-.928 3.086 3.086 0 011.456-.352c.981 0 1.728.299 2.24.896.512.597.768 1.413.768 2.448V222h-2.096v-4.816c0-.523-.134-.928-.4-1.216-.267-.288-.64-.432-1.12-.432-.566 0-1.024.219-1.376.656-.342.437-.512.987-.512 1.648V222h-2.096v-8.16zm10.302 1.792h-1.456v-1.792h1.456v-.448c0-.928.277-1.653.832-2.176.554-.533 1.28-.8 2.176-.8.512 0 .954.059 1.328.176v2.048a4.368 4.368 0 00-.544-.192 1.928 1.928 0 00-.528-.064c-.352 0-.635.101-.848.304-.214.203-.32.48-.32.832v.32h2v1.792h-2V222h-2.096v-6.368zm9.149 6.624c-.843 0-1.595-.187-2.256-.56a4.158 4.158 0 01-1.552-1.552c-.363-.661-.544-1.403-.544-2.224 0-.811.181-1.547.544-2.208a4.012 4.012 0 011.552-1.552c.661-.384 1.413-.576 2.256-.576.832 0 1.578.192 2.24.576a3.913 3.913 0 011.536 1.552c.373.661.56 1.397.56 2.208 0 .821-.187 1.563-.56 2.224a4.052 4.052 0 01-1.536 1.552c-.662.373-1.408.56-2.24.56zm0-1.936c.405 0 .778-.096 1.12-.288.341-.192.613-.469.816-.832.202-.363.304-.789.304-1.28 0-.48-.102-.901-.304-1.264a2.114 2.114 0 00-.816-.832 2.248 2.248 0 00-1.12-.288 2.214 2.214 0 00-1.952 1.12c-.203.363-.304.784-.304 1.264s.101.907.304 1.28a2.214 2.214 0 001.952 1.12zm5.783-6.48h1.968v1.088h.128c.203-.384.517-.699.944-.944a2.686 2.686 0 011.408-.384c.373 0 .715.059 1.024.176v2.096a5.364 5.364 0 00-.736-.224c-.192-.053-.4-.08-.624-.08-.619 0-1.109.224-1.472.672-.363.448-.544 1.013-.544 1.696V222h-2.096v-8.16zm6.828 0h1.968v1.024h.128a2.68 2.68 0 011.024-.928 3.026 3.026 0 011.456-.352c.576 0 1.077.139 1.504.416.427.267.731.608.912 1.024a3.087 3.087 0 011.088-1.04c.469-.267 1.019-.4 1.648-.4.928 0 1.632.288 2.112.864.491.565.736 1.333.736 2.304V222h-2.08v-4.864c0-.512-.123-.907-.368-1.184-.235-.277-.565-.416-.992-.416-.544 0-.981.219-1.312.656-.32.427-.48.992-.48 1.696V222H158.6v-4.864c0-.512-.128-.907-.384-1.184-.245-.277-.597-.416-1.056-.416-.512 0-.928.219-1.248.656-.309.427-.464.992-.464 1.696V222h-2.096v-8.16zm16.996 8.416c-.864 0-1.573-.251-2.128-.752-.555-.512-.832-1.179-.832-2 0-.544.144-1.024.432-1.44a2.786 2.786 0 011.184-.96 4.032 4.032 0 011.664-.336c.843 0 1.563.123 2.16.368v-.352c0-.448-.171-.811-.512-1.088-.331-.277-.779-.416-1.344-.416-.384 0-.757.091-1.12.272-.352.171-.645.4-.88.688l-1.344-1.056a3.95 3.95 0 011.488-1.184 4.582 4.582 0 011.952-.416c1.248 0 2.197.288 2.848.864.651.576.976 1.419.976 2.528V222h-2.064v-.832h-.128c-.245.32-.571.581-.976.784-.395.203-.853.304-1.376.304zm.496-1.632c.608 0 1.088-.192 1.44-.576a1.97 1.97 0 00.544-1.376 3.975 3.975 0 00-1.712-.384c-1.088 0-1.632.405-1.632 1.216 0 .331.117.603.352.816.235.203.571.304 1.008.304zm9.373 1.504a3.43 3.43 0 01-1.12-.176 2.293 2.293 0 01-.832-.512c-.502-.48-.752-1.163-.752-2.048v-3.76h-1.424v-1.792h1.424v-2.304h2.096v2.304h2v1.792h-2v3.376c0 .416.09.715.272.896.149.171.405.256.768.256.202 0 .368-.027.496-.08.138-.053.314-.144.528-.272v2.048a3.932 3.932 0 01-1.456.272zm4.397-9.184c-.373 0-.693-.133-.96-.4a1.313 1.313 0 01-.4-.96c0-.373.134-.688.4-.944.267-.267.587-.4.96-.4.374 0 .688.133.944.4.267.256.4.571.4.944s-.133.693-.4.96c-.256.267-.57.4-.944.4zm-1.056.896h2.096V222h-2.096v-8.16zm8.12 8.416c-.843 0-1.595-.187-2.256-.56a4.165 4.165 0 01-1.552-1.552c-.363-.661-.544-1.403-.544-2.224 0-.811.181-1.547.544-2.208a4.019 4.019 0 011.552-1.552c.661-.384 1.413-.576 2.256-.576.832 0 1.579.192 2.24.576a3.913 3.913 0 011.536 1.552c.373.661.56 1.397.56 2.208 0 .821-.187 1.563-.56 2.224a4.052 4.052 0 01-1.536 1.552c-.661.373-1.408.56-2.24.56zm0-1.936c.405 0 .779-.096 1.12-.288.341-.192.613-.469.816-.832.203-.363.304-.789.304-1.28 0-.48-.101-.901-.304-1.264a2.114 2.114 0 00-.816-.832 2.246 2.246 0 00-1.12-.288c-.405 0-.779.096-1.12.288a2.222 2.222 0 00-.832.832c-.203.363-.304.784-.304 1.264s.101.907.304 1.28c.213.363.491.64.832.832.341.192.715.288 1.12.288zm5.784-6.48h1.968v1.024h.128a2.513 2.513 0 011.04-.928 3.086 3.086 0 011.456-.352c.981 0 1.728.299 2.24.896.512.597.768 1.413.768 2.448V222h-2.096v-4.816c0-.523-.134-.928-.4-1.216-.267-.288-.64-.432-1.12-.432-.566 0-1.024.219-1.376.656-.342.437-.512.987-.512 1.648V222h-2.096v-8.16zM54.528 316.544h2.48L61.312 328h-2.384l-.96-2.736h-4.384l-.96 2.736H50.24l4.288-11.456zm2.736 6.736l-1.008-2.88-.416-1.376h-.128l-.416 1.376-1.024 2.88h2.992zm7.845 4.976c-.982 0-1.728-.304-2.24-.912-.512-.608-.768-1.456-.768-2.544v-4.96h2.096v4.704c0 .555.133.992.4 1.312.266.309.618.464 1.056.464.597 0 1.072-.219 1.424-.656.352-.437.528-.992.528-1.664v-4.16H69.7V328h-1.968v-1.024h-.128a2.628 2.628 0 01-1.04.944 3.146 3.146 0 01-1.456.336zm10.264-.128a3.43 3.43 0 01-1.12-.176 2.3 2.3 0 01-.832-.512c-.502-.48-.752-1.163-.752-2.048v-3.76h-1.424v-1.792h1.424v-2.304h2.096v2.304h2v1.792h-2v3.376c0 .416.09.715.272.896.15.171.405.256.768.256.202 0 .368-.027.496-.08.138-.053.314-.144.528-.272v2.048a3.93 3.93 0 01-1.456.272zm3.213-11.584h2.097v2.896l-.129 1.424h.129c.234-.384.575-.693 1.023-.928a3.087 3.087 0 011.456-.352c.992 0 1.75.299 2.272.896.534.587.8 1.403.8 2.448V328h-2.096v-4.816c0-.523-.144-.928-.431-1.216-.278-.288-.651-.432-1.12-.432-.555 0-1.014.224-1.377.672-.351.448-.527.997-.527 1.648V328h-2.097v-11.456zm13.53 11.712c-.843 0-1.595-.187-2.257-.56a4.165 4.165 0 01-1.551-1.552c-.363-.661-.545-1.403-.545-2.224 0-.811.182-1.547.544-2.208a4.019 4.019 0 011.552-1.552c.662-.384 1.414-.576 2.257-.576.832 0 1.578.192 2.24.576a3.91 3.91 0 011.535 1.552c.374.661.56 1.397.56 2.208 0 .821-.186 1.563-.56 2.224a4.048 4.048 0 01-1.535 1.552c-.662.373-1.408.56-2.24.56zm0-1.936c.405 0 .778-.096 1.12-.288a2.11 2.11 0 00.816-.832c.202-.363.303-.789.303-1.28 0-.48-.1-.901-.303-1.264a2.11 2.11 0 00-.817-.832 2.246 2.246 0 00-1.12-.288c-.405 0-.778.096-1.12.288a2.222 2.222 0 00-.832.832c-.202.363-.303.784-.303 1.264s.1.907.303 1.28c.214.363.491.64.833.832.34.192.714.288 1.12.288zm5.783-6.48h1.968v1.088h.128c.203-.384.517-.699.944-.944a2.686 2.686 0 011.408-.384c.373 0 .715.059 1.024.176v2.096a5.364 5.364 0 00-.736-.224c-.192-.053-.4-.08-.624-.08-.619 0-1.109.224-1.472.672-.363.448-.544 1.013-.544 1.696V328h-2.096v-8.16zm8.012-.896c-.373 0-.693-.133-.96-.4a1.309 1.309 0 01-.4-.96c0-.373.133-.688.4-.944.267-.267.587-.4.96-.4s.688.133.944.4c.267.256.4.571.4.944s-.133.693-.4.96c-.256.267-.571.4-.944.4zm-1.056.896h2.096V328h-2.096v-8.16zm7.768 8.288c-.405 0-.779-.059-1.12-.176a2.302 2.302 0 01-.832-.512c-.501-.48-.752-1.163-.752-2.048v-3.76h-1.424v-1.792h1.424v-2.304h2.096v2.304h2v1.792h-2v3.376c0 .416.091.715.272.896.149.171.405.256.768.256.203 0 .368-.027.496-.08.139-.053.315-.144.528-.272v2.048a3.932 3.932 0 01-1.456.272zm5.758-.512l-3.44-7.776h2.384l2.112 5.072h.128l2.032-5.072h2.336l-5.04 11.616h-2.256l1.744-3.84zm-61.645 107.64c-1.11 0-2.123-.261-3.04-.784a5.947 5.947 0 01-2.176-2.16c-.523-.917-.784-1.931-.784-3.04s.261-2.117.784-3.024a5.799 5.799 0 012.176-2.16c.917-.533 1.93-.8 3.04-.8 1.728 0 3.157.624 4.288 1.872l-1.52 1.472c-.736-.864-1.653-1.296-2.752-1.296-.715 0-1.365.165-1.952.496-.587.32-1.05.779-1.392 1.376-.33.597-.496 1.285-.496 2.064 0 .779.165 1.467.496 2.064a3.64 3.64 0 001.392 1.392 4.01 4.01 0 001.952.48c1.205 0 2.213-.501 3.024-1.504l1.536 1.456a5.74 5.74 0 01-2.016 1.568c-.768.352-1.621.528-2.56.528zm9.88 0c-.843 0-1.595-.187-2.257-.56a4.165 4.165 0 01-1.551-1.552c-.363-.661-.544-1.403-.544-2.224 0-.811.18-1.547.543-2.208a4.019 4.019 0 011.552-1.552c.662-.384 1.414-.576 2.257-.576.832 0 1.578.192 2.24.576a3.91 3.91 0 011.535 1.552c.374.661.56 1.397.56 2.208 0 .821-.186 1.563-.56 2.224a4.048 4.048 0 01-1.535 1.552c-.662.373-1.408.56-2.24.56zm0-1.936c.405 0 .778-.096 1.12-.288a2.11 2.11 0 00.816-.832c.202-.363.303-.789.303-1.28 0-.48-.1-.901-.303-1.264a2.11 2.11 0 00-.817-.832 2.246 2.246 0 00-1.12-.288c-.405 0-.778.096-1.12.288a2.222 2.222 0 00-.832.832c-.202.363-.303.784-.303 1.264s.1.907.303 1.28c.214.363.491.64.833.832.34.192.714.288 1.12.288zm5.783-6.48h1.968v1.024h.128a2.683 2.683 0 011.024-.928 3.026 3.026 0 011.456-.352c.576 0 1.077.139 1.504.416.427.267.73.608.912 1.024.267-.427.63-.773 1.088-1.04.47-.267 1.019-.4 1.648-.4.928 0 1.632.288 2.112.864.49.565.736 1.333.736 2.304V435h-2.08v-4.864c0-.512-.123-.907-.368-1.184-.235-.277-.565-.416-.992-.416-.544 0-.981.219-1.312.656-.32.427-.48.992-.48 1.696V435h-2.096v-4.864c0-.512-.128-.907-.384-1.184-.245-.277-.597-.416-1.056-.416-.512 0-.928.219-1.248.656-.31.427-.464.992-.464 1.696V435h-2.096v-8.16zm14.514 0h1.968v.992h.128c.224-.352.55-.645.976-.88.427-.245.918-.368 1.472-.368a3.7 3.7 0 012 .56 3.747 3.747 0 011.424 1.536c.341.661.512 1.408.512 2.24 0 .843-.17 1.595-.512 2.256a3.874 3.874 0 01-1.424 1.536 3.775 3.775 0 01-2 .544c-.554 0-1.05-.117-1.488-.352-.426-.235-.746-.528-.96-.88h-.128l.128 1.152v3.28h-2.096V426.84zm4.176 6.48a2.12 2.12 0 001.104-.304c.341-.203.614-.485.816-.848.203-.363.304-.779.304-1.248s-.101-.885-.304-1.248a2.11 2.11 0 00-.816-.832 2.122 2.122 0 00-2.192 0 2.11 2.11 0 00-.816.832 2.517 2.517 0 00-.304 1.248c0 .469.102.885.304 1.248.203.363.475.645.816.848.341.203.704.304 1.088.304zm8.415 1.936c-.864 0-1.573-.251-2.128-.752-.554-.512-.832-1.179-.832-2 0-.544.144-1.024.432-1.44a2.783 2.783 0 011.184-.96 4.033 4.033 0 011.664-.336c.843 0 1.563.123 2.16.368v-.352c0-.448-.17-.811-.512-1.088-.33-.277-.778-.416-1.344-.416a2.48 2.48 0 00-1.12.272c-.352.171-.645.4-.88.688l-1.344-1.056A3.95 3.95 0 0198.272 427a4.582 4.582 0 011.952-.416c1.248 0 2.198.288 2.848.864.651.576.976 1.419.976 2.528V435h-2.064v-.832h-.128c-.245.32-.57.581-.976.784-.394.203-.853.304-1.376.304zm.496-1.632c.608 0 1.088-.192 1.44-.576a1.97 1.97 0 00.544-1.376 3.971 3.971 0 00-1.712-.384c-1.088 0-1.632.405-1.632 1.216 0 .331.118.603.352.816.235.203.571.304 1.008.304zm5.977-6.784h1.968v1.024h.128a2.513 2.513 0 011.04-.928 3.086 3.086 0 011.456-.352c.981 0 1.728.299 2.24.896.512.597.768 1.413.768 2.448V435h-2.096v-4.816c0-.523-.133-.928-.4-1.216-.267-.288-.64-.432-1.12-.432-.565 0-1.024.219-1.376.656-.341.437-.512.987-.512 1.648V435h-2.096v-8.16zm11.888 7.776l-3.44-7.776h2.384l2.112 5.072h.128l2.032-5.072h2.336l-5.04 11.616h-2.256l1.744-3.84zm10.744-11.072h3.872c1.195 0 2.235.24 3.12.72a5.04 5.04 0 012.048 2.016c.48.864.72 1.861.72 2.992s-.24 2.128-.72 2.992a5.04 5.04 0 01-2.048 2.016c-.885.48-1.925.72-3.12.72h-3.872v-11.456zm3.776 9.408c1.237 0 2.181-.325 2.832-.976.651-.661.976-1.563.976-2.704 0-1.141-.325-2.037-.976-2.688-.651-.661-1.595-.992-2.832-.992h-1.616v7.36h1.616zm11.338 2.304c-.811 0-1.541-.187-2.192-.56a4.074 4.074 0 01-1.536-1.536c-.363-.661-.544-1.403-.544-2.224 0-.779.181-1.499.544-2.16a4.178 4.178 0 011.504-1.6 4 4 0 012.144-.592c.843 0 1.568.181 2.176.544a3.497 3.497 0 011.376 1.488c.32.629.48 1.328.48 2.096 0 .245-.016.48-.048.704h-6.128c.107.651.363 1.147.768 1.488.416.331.912.496 1.488.496.48 0 .891-.101 1.232-.304.352-.213.629-.496.832-.848l1.696.832c-.832 1.451-2.096 2.176-3.792 2.176zm1.936-5.328a1.526 1.526 0 00-.288-.752 1.777 1.777 0 00-.688-.624c-.288-.171-.629-.256-1.024-.256-.501 0-.933.149-1.296.448-.352.288-.608.683-.768 1.184h4.064zm6.948 5.2c-.405 0-.778-.059-1.12-.176a2.31 2.31 0 01-.832-.512c-.501-.48-.752-1.163-.752-2.048v-3.76h-1.424v-1.792h1.424v-2.304h2.096v2.304h2v1.792h-2v3.376c0 .416.091.715.272.896.15.171.406.256.768.256.203 0 .368-.027.496-.08.139-.053.315-.144.528-.272v2.048a3.928 3.928 0 01-1.456.272zm5.476.128c-.864 0-1.574-.251-2.128-.752-.555-.512-.832-1.179-.832-2 0-.544.144-1.024.432-1.44a2.78 2.78 0 011.184-.96 4.032 4.032 0 011.664-.336c.842 0 1.562.123 2.16.368v-.352c0-.448-.171-.811-.512-1.088-.331-.277-.779-.416-1.344-.416-.384 0-.758.091-1.12.272-.352.171-.646.4-.88.688l-1.344-1.056c.394-.512.89-.907 1.488-1.184a4.582 4.582 0 011.952-.416c1.248 0 2.197.288 2.848.864.65.576.976 1.419.976 2.528V435h-2.064v-.832h-.128c-.246.32-.571.581-.976.784-.395.203-.854.304-1.376.304zm.496-1.632c.608 0 1.088-.192 1.44-.576.362-.395.544-.853.544-1.376a3.975 3.975 0 00-1.712-.384c-1.088 0-1.632.405-1.632 1.216 0 .331.117.603.352.816.234.203.57.304 1.008.304zm7.16-7.68c-.373 0-.693-.133-.96-.4a1.313 1.313 0 01-.4-.96c0-.373.134-.688.4-.944.267-.267.587-.4.96-.4.374 0 .688.133.944.4.267.256.4.571.4.944s-.133.693-.4.96c-.256.267-.57.4-.944.4zm-1.056.896h2.096V435h-2.096v-8.16zm4.294-3.296h2.096V435h-2.096v-11.456zm7.182 11.712c-.992 0-1.797-.203-2.416-.608a3.25 3.25 0 01-1.28-1.584l1.872-.816c.171.384.411.677.72.88.32.192.688.288 1.104.288.384 0 .704-.059.96-.176.256-.128.384-.331.384-.608a.63.63 0 00-.352-.592c-.234-.139-.586-.261-1.056-.368l-.96-.208c-.661-.16-1.21-.448-1.648-.864a2.127 2.127 0 01-.656-1.584c0-.469.139-.891.416-1.264a2.797 2.797 0 011.152-.864 4.19 4.19 0 011.616-.304c1.686 0 2.811.592 3.376 1.776l-1.792.784c-.32-.576-.832-.864-1.536-.864-.362 0-.65.069-.864.208-.213.128-.32.293-.32.496 0 .384.363.672 1.088.864l1.2.288c.811.203 1.419.512 1.824.928.416.416.624.928.624 1.536 0 .523-.154.987-.464 1.392-.298.395-.714.704-1.248.928a4.381 4.381 0 01-1.744.336zm-119.439 104c-1.12 0-2.139-.261-3.056-.784a5.83 5.83 0 01-2.144-2.176 6 6 0 01-.784-3.024 6 6 0 01.784-3.024 5.716 5.716 0 012.144-2.16c.917-.533 1.936-.8 3.056-.8s2.133.267 3.04.8a5.683 5.683 0 012.16 2.16 6 6 0 01.784 3.024 6 6 0 01-.784 3.024 5.795 5.795 0 01-2.16 2.176c-.907.523-1.92.784-3.04.784zm0-2.048a3.87 3.87 0 001.936-.496 3.53 3.53 0 001.376-1.392c.341-.597.512-1.28.512-2.048s-.17-1.451-.512-2.048a3.53 3.53 0 00-1.376-1.392 3.872 3.872 0 00-1.936-.496 3.87 3.87 0 00-1.936.496 3.674 3.674 0 00-1.376 1.392c-.33.597-.496 1.28-.496 2.048s.165 1.451.496 2.048c.341.597.8 1.061 1.376 1.392a3.872 3.872 0 001.936.496zm7.677-6.368h1.968v.992h.129c.224-.352.549-.645.975-.88.427-.245.918-.368 1.473-.368a3.7 3.7 0 012 .56 3.747 3.747 0 011.424 1.536c.34.661.511 1.408.511 2.24 0 .843-.17 1.595-.511 2.256a3.874 3.874 0 01-1.424 1.536 3.775 3.775 0 01-2 .544 3.091 3.091 0 01-1.488-.352c-.427-.235-.747-.528-.96-.88h-.129l.129 1.152v3.28h-2.097V530.84zm4.176 6.48c.395 0 .763-.101 1.105-.304a2.23 2.23 0 00.816-.848c.202-.363.303-.779.303-1.248s-.1-.885-.303-1.248a2.11 2.11 0 00-.817-.832 2.122 2.122 0 00-2.192 0 2.11 2.11 0 00-.816.832 2.516 2.516 0 00-.303 1.248c0 .469.1.885.303 1.248.203.363.475.645.817.848.34.203.703.304 1.087.304zm9.744 1.936c-.81 0-1.542-.187-2.192-.56a4.079 4.079 0 01-1.536-1.536c-.363-.661-.544-1.403-.544-2.224 0-.779.181-1.499.544-2.16a4.175 4.175 0 011.504-1.6 4 4 0 012.144-.592c.842 0 1.568.181 2.176.544a3.5 3.5 0 011.376 1.488c.32.629.48 1.328.48 2.096 0 .245-.016.48-.048.704h-6.128c.106.651.362 1.147.768 1.488.416.331.912.496 1.488.496.48 0 .89-.101 1.232-.304a2.34 2.34 0 00.832-.848l1.696.832c-.832 1.451-2.096 2.176-3.792 2.176zm1.936-5.328a1.533 1.533 0 00-.288-.752 1.78 1.78 0 00-.688-.624c-.288-.171-.63-.256-1.024-.256a1.97 1.97 0 00-1.296.448c-.352.288-.608.683-.768 1.184h4.064zm3.63-3.088h1.968v1.024h.128a2.515 2.515 0 011.04-.928 3.087 3.087 0 011.456-.352c.982 0 1.728.299 2.24.896.512.597.768 1.413.768 2.448V539h-2.096v-4.816c0-.523-.133-.928-.4-1.216-.266-.288-.64-.432-1.12-.432-.565 0-1.024.219-1.376.656-.341.437-.512.987-.512 1.648V539h-2.096v-8.16zm12.604 8.416c-.992 0-1.797-.203-2.416-.608a3.247 3.247 0 01-1.28-1.584l1.872-.816c.171.384.411.677.72.88.32.192.688.288 1.104.288.384 0 .704-.059.96-.176.256-.128.384-.331.384-.608a.631.631 0 00-.352-.592c-.234-.139-.586-.261-1.056-.368l-.96-.208c-.661-.16-1.21-.448-1.648-.864a2.127 2.127 0 01-.656-1.584c0-.469.139-.891.416-1.264a2.797 2.797 0 011.152-.864 4.186 4.186 0 011.616-.304c1.686 0 2.811.592 3.376 1.776l-1.792.784c-.32-.576-.832-.864-1.536-.864-.362 0-.65.069-.864.208-.213.128-.32.293-.32.496 0 .384.363.672 1.088.864l1.2.288c.811.203 1.419.512 1.824.928.416.416.624.928.624 1.536 0 .523-.154.987-.464 1.392-.298.395-.714.704-1.248.928a4.384 4.384 0 01-1.744.336zm4.975-11.712h2.096v2.896l-.128 1.424h.128c.234-.384.576-.693 1.024-.928a3.086 3.086 0 011.456-.352c.992 0 1.749.299 2.272.896.533.587.8 1.403.8 2.448V539h-2.096v-4.816c0-.523-.144-.928-.432-1.216-.278-.288-.651-.432-1.12-.432-.555 0-1.014.224-1.376.672-.352.448-.528.997-.528 1.648V539h-2.096v-11.456zm10.809 2.4c-.374 0-.694-.133-.96-.4a1.309 1.309 0 01-.4-.96c0-.373.133-.688.4-.944.266-.267.586-.4.96-.4.373 0 .688.133.944.4.266.256.4.571.4.944s-.134.693-.4.96c-.256.267-.571.4-.944.4zm-1.056.896h2.096V539h-2.096v-8.16zm4.229 0h1.968v.992h.128c.224-.352.55-.645.976-.88.427-.245.918-.368 1.472-.368.736 0 1.403.187 2 .56a3.745 3.745 0 011.424 1.536c.342.661.512 1.408.512 2.24 0 .843-.17 1.595-.512 2.256a3.872 3.872 0 01-1.424 1.536 3.774 3.774 0 01-2 .544c-.554 0-1.05-.117-1.488-.352-.426-.235-.746-.528-.96-.88h-.128l.128 1.152v3.28h-2.096V530.84zm4.176 6.48a2.12 2.12 0 001.104-.304c.342-.203.614-.485.816-.848.203-.363.304-.779.304-1.248s-.101-.885-.304-1.248a2.101 2.101 0 00-.816-.832 2.12 2.12 0 00-2.192 0 2.114 2.114 0 00-.816.832 2.524 2.524 0 00-.304 1.248c0 .469.102.885.304 1.248.203.363.475.645.816.848.342.203.704.304 1.088.304zm12.689-9.776h2.48L139.093 539h-2.384l-.96-2.736h-4.384l-.96 2.736h-2.384l4.288-11.456zm2.736 6.736l-1.008-2.88-.416-1.376h-.128l-.416 1.376-1.024 2.88h2.992zm8.913 4.976c-.822 0-1.558-.181-2.208-.544a4.047 4.047 0 01-1.536-1.552c-.363-.661-.544-1.408-.544-2.24 0-.832.181-1.573.544-2.224a4.047 4.047 0 011.536-1.552c.65-.373 1.386-.56 2.208-.56.906 0 1.685.197 2.336.592.65.384 1.12.933 1.408 1.648l-1.92.8c-.342-.725-.95-1.088-1.824-1.088-.64 0-1.168.219-1.584.656-.406.437-.608 1.013-.608 1.728 0 .725.202 1.307.608 1.744.416.437.944.656 1.584.656.885 0 1.525-.384 1.92-1.152l1.904.832a3.93 3.93 0 01-1.504 1.664c-.651.395-1.424.592-2.32.592zm9.094 0c-.822 0-1.558-.181-2.208-.544a4.047 4.047 0 01-1.536-1.552c-.363-.661-.544-1.408-.544-2.24 0-.832.181-1.573.544-2.224a4.047 4.047 0 011.536-1.552c.65-.373 1.386-.56 2.208-.56.906 0 1.685.197 2.336.592.65.384 1.12.933 1.408 1.648l-1.92.8c-.342-.725-.95-1.088-1.824-1.088-.64 0-1.168.219-1.584.656-.406.437-.608 1.013-.608 1.728 0 .725.202 1.307.608 1.744.416.437.944.656 1.584.656.885 0 1.525-.384 1.92-1.152l1.904.832a3.93 3.93 0 01-1.504 1.664c-.651.395-1.424.592-2.32.592zm9.157 0c-.842 0-1.594-.187-2.256-.56a4.173 4.173 0 01-1.552-1.552c-.362-.661-.544-1.403-.544-2.224 0-.811.182-1.547.544-2.208a4.026 4.026 0 011.552-1.552c.662-.384 1.414-.576 2.256-.576.832 0 1.579.192 2.24.576a3.9 3.9 0 011.536 1.552c.374.661.56 1.397.56 2.208 0 .821-.186 1.563-.56 2.224a4.038 4.038 0 01-1.536 1.552c-.661.373-1.408.56-2.24.56zm0-1.936c.406 0 .779-.096 1.12-.288.342-.192.614-.469.816-.832.203-.363.304-.789.304-1.28 0-.48-.101-.901-.304-1.264a2.101 2.101 0 00-.816-.832 2.243 2.243 0 00-1.12-.288c-.405 0-.778.096-1.12.288a2.229 2.229 0 00-.832.832c-.202.363-.304.784-.304 1.264s.102.907.304 1.28c.214.363.491.64.832.832.342.192.715.288 1.12.288zm8.806 1.936c-.981 0-1.728-.304-2.24-.912-.512-.608-.768-1.456-.768-2.544v-4.96h2.096v4.704c0 .555.133.992.4 1.312.267.309.619.464 1.056.464.597 0 1.072-.219 1.424-.656.352-.437.528-.992.528-1.664v-4.16h2.096V539h-1.968v-1.024h-.128a2.626 2.626 0 01-1.04.944 3.147 3.147 0 01-1.456.336zm6.634-8.416h1.968v1.024h.128a2.513 2.513 0 011.04-.928 3.086 3.086 0 011.456-.352c.981 0 1.728.299 2.24.896.512.597.768 1.413.768 2.448V539h-2.096v-4.816c0-.523-.133-.928-.4-1.216-.267-.288-.64-.432-1.12-.432-.565 0-1.024.219-1.376.656-.341.437-.512.987-.512 1.648V539h-2.096v-8.16zm12.724 8.288c-.405 0-.779-.059-1.12-.176a2.302 2.302 0 01-.832-.512c-.501-.48-.752-1.163-.752-2.048v-3.76h-1.424v-1.792h1.424v-2.304h2.096v2.304h2v1.792h-2v3.376c0 .416.091.715.272.896.149.171.405.256.768.256.203 0 .368-.027.496-.08.139-.053.315-.144.528-.272v2.048a3.932 3.932 0 01-1.456.272z" fill="#fff"/><rect x="46" width="129" height="129" rx="11" fill="#fff"/><path d="M137 32H89.5a4.749 4.749 0 00-4.75 4.75v4.75h-2.375a2.376 2.376 0 000 4.75H89.5a2.376 2.376 0 010 4.75h-4.75v28.5h-2.375a2.376 2.376 0 000 4.75H89.5a2.376 2.376 0 010 4.75h-4.75v4.75a4.749 4.749 0 004.75 4.75H137a4.749 4.749 0 004.75-4.75v-57A4.749 4.749 0 00137 32zm-23.75 11.875c5.246 0 9.5 4.254 9.5 9.5s-4.254 9.5-9.5 9.5-9.5-4.254-9.5-9.5 4.254-9.5 9.5-9.5zM127.5 84.25H99V79.5c0-7.87 6.379-14.25 14.25-14.25s14.25 6.38 14.25 14.25v4.75z" fill="url(#paint0_linear_732_1383)"/><defs><linearGradient id="paint0_linear_732_1383" x1="110.875" y1="32" x2="110.875" y2="98.5" gradientUnits="userSpaceOnUse"><stop stop-color="#02204F"/><stop offset="1" stop-color="#0549B5"/></linearGradient></defs></svg>