<svg width="1205" height="53" viewBox="0 0 1205 53" fill="none" xmlns="http://www.w3.org/2000/svg">
<path d="M0 5C0 2.23858 2.23858 0 5 0H166.395L184.267 25.8837L166.395 53H5C2.23857 53 0 50.7614 0 48V5Z" fill="#00AE5A"/>
<path d="M42.312 20.544H46.344C47.0693 20.544 47.7307 20.6987 48.328 21.008C48.9253 21.3067 49.3947 21.7333 49.736 22.288C50.0773 22.832 50.248 23.456 50.248 24.16C50.248 24.864 50.0773 25.4933 49.736 26.048C49.3947 26.6027 48.9253 27.0347 48.328 27.344C47.7307 27.6427 47.0693 27.792 46.344 27.792H44.472V32H42.312V20.544ZM46.408 25.744C46.9413 25.744 47.3573 25.5893 47.656 25.28C47.9653 24.9707 48.12 24.5973 48.12 24.16C48.12 23.7227 47.9653 23.3547 47.656 23.056C47.3573 22.7467 46.9413 22.592 46.408 22.592H44.472V25.744H46.408ZM54.5774 32.256C53.596 32.256 52.8494 31.952 52.3374 31.344C51.8254 30.736 51.5694 29.888 51.5694 28.8V23.84H53.6654V28.544C53.6654 29.0987 53.7987 29.536 54.0654 29.856C54.332 30.1653 54.684 30.32 55.1214 30.32C55.7187 30.32 56.1934 30.1013 56.5454 29.664C56.8974 29.2267 57.0734 28.672 57.0734 28V23.84H59.1694V32H57.2014V30.976H57.0734C56.828 31.3707 56.4814 31.6853 56.0334 31.92C55.596 32.144 55.1107 32.256 54.5774 32.256ZM65.7555 32.256C65.2008 32.256 64.7048 32.1387 64.2675 31.904C63.8408 31.6693 63.5208 31.376 63.3075 31.024H63.1795V32H61.2115V20.544H63.3075V23.68L63.1795 24.832H63.3075C63.5315 24.48 63.8568 24.1867 64.2835 23.952C64.7102 23.7067 65.2008 23.584 65.7555 23.584C66.4915 23.584 67.1582 23.7707 67.7555 24.144C68.3635 24.5067 68.8382 25.0187 69.1795 25.68C69.5208 26.3413 69.6915 27.088 69.6915 27.92C69.6915 28.7627 69.5208 29.5147 69.1795 30.176C68.8382 30.8267 68.3635 31.3387 67.7555 31.712C67.1582 32.0747 66.4915 32.256 65.7555 32.256ZM65.3875 30.32C65.7822 30.32 66.1502 30.2187 66.4915 30.016C66.8328 29.8133 67.1048 29.5307 67.3075 29.168C67.5102 28.8053 67.6115 28.3893 67.6115 27.92C67.6115 27.4507 67.5102 27.0347 67.3075 26.672C67.1048 26.3093 66.8328 26.032 66.4915 25.84C66.1502 25.6373 65.7822 25.536 65.3875 25.536C65.0035 25.536 64.6408 25.6373 64.2995 25.84C63.9582 26.032 63.6862 26.3093 63.4835 26.672C63.2808 27.0347 63.1795 27.4507 63.1795 27.92C63.1795 28.3893 63.2808 28.8053 63.4835 29.168C63.6862 29.5307 63.9582 29.8133 64.2995 30.016C64.6408 30.2187 65.0035 30.32 65.3875 30.32ZM71.2271 20.544H73.3231V32H71.2271V20.544ZM76.5674 22.944C76.194 22.944 75.874 22.8107 75.6074 22.544C75.3407 22.2773 75.2074 21.9573 75.2074 21.584C75.2074 21.2107 75.3407 20.896 75.6074 20.64C75.874 20.3733 76.194 20.24 76.5674 20.24C76.9407 20.24 77.2554 20.3733 77.5114 20.64C77.778 20.896 77.9114 21.2107 77.9114 21.584C77.9114 21.9573 77.778 22.2773 77.5114 22.544C77.2554 22.8107 76.9407 22.944 76.5674 22.944ZM75.5114 23.84H77.6074V32H75.5114V23.84ZM83.5671 32.256C82.7458 32.256 82.0098 32.0747 81.3591 31.712C80.7085 31.3387 80.1965 30.8213 79.8231 30.16C79.4605 29.4987 79.2791 28.752 79.2791 27.92C79.2791 27.088 79.4605 26.3467 79.8231 25.696C80.1965 25.0347 80.7085 24.5173 81.3591 24.144C82.0098 23.7707 82.7458 23.584 83.5671 23.584C84.4738 23.584 85.2525 23.7813 85.9031 24.176C86.5538 24.56 87.0231 25.1093 87.3111 25.824L85.3911 26.624C85.0498 25.8987 84.4418 25.536 83.5671 25.536C82.9271 25.536 82.3991 25.7547 81.9831 26.192C81.5778 26.6293 81.3751 27.2053 81.3751 27.92C81.3751 28.6453 81.5778 29.2267 81.9831 29.664C82.3991 30.1013 82.9271 30.32 83.5671 30.32C84.4525 30.32 85.0925 29.936 85.4871 29.168L87.3911 30C87.0391 30.7147 86.5378 31.2693 85.8871 31.664C85.2365 32.0587 84.4631 32.256 83.5671 32.256ZM91.3169 32.256C90.4529 32.256 89.7435 32.0053 89.1889 31.504C88.6342 30.992 88.3569 30.3253 88.3569 29.504C88.3569 28.96 88.5009 28.48 88.7889 28.064C89.0769 27.648 89.4715 27.328 89.9729 27.104C90.4742 26.88 91.0289 26.768 91.6369 26.768C92.4795 26.768 93.1995 26.8907 93.7969 27.136V26.784C93.7969 26.336 93.6262 25.9733 93.2849 25.696C92.9542 25.4187 92.5062 25.28 91.9409 25.28C91.5569 25.28 91.1835 25.3707 90.8209 25.552C90.4689 25.7227 90.1755 25.952 89.9409 26.24L88.5969 25.184C88.9915 24.672 89.4875 24.2773 90.0849 24C90.6822 23.7227 91.3329 23.584 92.0369 23.584C93.2849 23.584 94.2342 23.872 94.8849 24.448C95.5355 25.024 95.8609 25.8667 95.8609 26.976V32H93.7969V31.168H93.6689C93.4235 31.488 93.0982 31.7493 92.6929 31.952C92.2982 32.1547 91.8395 32.256 91.3169 32.256ZM91.8129 30.624C92.4209 30.624 92.9009 30.432 93.2529 30.048C93.6155 29.6533 93.7969 29.1947 93.7969 28.672C93.2529 28.416 92.6822 28.288 92.0849 28.288C90.9969 28.288 90.4529 28.6933 90.4529 29.504C90.4529 29.8347 90.5702 30.1067 90.8049 30.32C91.0395 30.5227 91.3755 30.624 91.8129 30.624ZM101.185 32.128C100.78 32.128 100.407 32.0693 100.065 31.952C99.724 31.824 99.4467 31.6533 99.2334 31.44C98.732 30.96 98.4814 30.2773 98.4814 29.392V25.632H97.0574V23.84H98.4814V21.536H100.577V23.84H102.577V25.632H100.577V29.008C100.577 29.424 100.668 29.7227 100.849 29.904C100.999 30.0747 101.255 30.16 101.617 30.16C101.82 30.16 101.985 30.1333 102.113 30.08C102.252 30.0267 102.428 29.936 102.641 29.808V31.856C102.183 32.0373 101.697 32.128 101.185 32.128ZM105.583 22.944C105.21 22.944 104.89 22.8107 104.623 22.544C104.356 22.2773 104.223 21.9573 104.223 21.584C104.223 21.2107 104.356 20.896 104.623 20.64C104.89 20.3733 105.21 20.24 105.583 20.24C105.956 20.24 106.271 20.3733 106.527 20.64C106.794 20.896 106.927 21.2107 106.927 21.584C106.927 21.9573 106.794 22.2773 106.527 22.544C106.271 22.8107 105.956 22.944 105.583 22.944ZM104.527 23.84H106.623V32H104.527V23.84ZM112.647 32.256C111.804 32.256 111.052 32.0693 110.391 31.696C109.729 31.312 109.212 30.7947 108.839 30.144C108.476 29.4827 108.295 28.7413 108.295 27.92C108.295 27.1093 108.476 26.3733 108.839 25.712C109.212 25.0507 109.729 24.5333 110.391 24.16C111.052 23.776 111.804 23.584 112.647 23.584C113.479 23.584 114.225 23.776 114.887 24.16C115.548 24.5333 116.06 25.0507 116.423 25.712C116.796 26.3733 116.983 27.1093 116.983 27.92C116.983 28.7413 116.796 29.4827 116.423 30.144C116.06 30.7947 115.548 31.312 114.887 31.696C114.225 32.0693 113.479 32.256 112.647 32.256ZM112.647 30.32C113.052 30.32 113.425 30.224 113.767 30.032C114.108 29.84 114.38 29.5627 114.583 29.2C114.785 28.8373 114.887 28.4107 114.887 27.92C114.887 27.44 114.785 27.0187 114.583 26.656C114.38 26.2933 114.108 26.016 113.767 25.824C113.425 25.632 113.052 25.536 112.647 25.536C112.241 25.536 111.868 25.632 111.527 25.824C111.185 26.016 110.908 26.2933 110.695 26.656C110.492 27.0187 110.391 27.44 110.391 27.92C110.391 28.4 110.492 28.8267 110.695 29.2C110.908 29.5627 111.185 29.84 111.527 30.032C111.868 30.224 112.241 30.32 112.647 30.32ZM118.43 23.84H120.398V24.864H120.526C120.772 24.4693 121.118 24.16 121.566 23.936C122.014 23.7013 122.5 23.584 123.022 23.584C124.004 23.584 124.75 23.8827 125.262 24.48C125.774 25.0773 126.03 25.8933 126.03 26.928V32H123.934V27.184C123.934 26.6613 123.801 26.256 123.534 25.968C123.268 25.68 122.894 25.536 122.414 25.536C121.849 25.536 121.39 25.7547 121.038 26.192C120.697 26.6293 120.526 27.1787 120.526 27.84V32H118.43V23.84Z" fill="white"/>
<path d="M168.86 0H336.488L354.36 25.2674L336.488 53H168.86L186.116 25.8837L168.86 0Z" fill="#D9D9D9"/>
<path d="M234.528 19.544H237.008L241.312 31H238.928L237.968 28.264H233.584L232.624 31H230.24L234.528 19.544ZM237.264 26.28L236.256 23.4L235.84 22.024H235.712L235.296 23.4L234.272 26.28H237.264ZM246.177 31.256C245.355 31.256 244.619 31.0747 243.969 30.712C243.318 30.3387 242.806 29.8213 242.433 29.16C242.07 28.4987 241.889 27.752 241.889 26.92C241.889 26.088 242.07 25.3467 242.433 24.696C242.806 24.0347 243.318 23.5173 243.969 23.144C244.619 22.7707 245.355 22.584 246.177 22.584C247.083 22.584 247.862 22.7813 248.513 23.176C249.163 23.56 249.633 24.1093 249.921 24.824L248.001 25.624C247.659 24.8987 247.051 24.536 246.177 24.536C245.537 24.536 245.009 24.7547 244.593 25.192C244.187 25.6293 243.985 26.2053 243.985 26.92C243.985 27.6453 244.187 28.2267 244.593 28.664C245.009 29.1013 245.537 29.32 246.177 29.32C247.062 29.32 247.702 28.936 248.097 28.168L250.001 29C249.649 29.7147 249.147 30.2693 248.497 30.664C247.846 31.0587 247.073 31.256 246.177 31.256ZM254.982 31.128C254.577 31.128 254.204 31.0693 253.862 30.952C253.521 30.824 253.244 30.6533 253.03 30.44C252.529 29.96 252.278 29.2773 252.278 28.392V24.632H250.854V22.84H252.278V20.536H254.374V22.84H256.374V24.632H254.374V28.008C254.374 28.424 254.465 28.7227 254.646 28.904C254.796 29.0747 255.052 29.16 255.414 29.16C255.617 29.16 255.782 29.1333 255.91 29.08C256.049 29.0267 256.225 28.936 256.438 28.808V30.856C255.98 31.0373 255.494 31.128 254.982 31.128ZM259.38 21.944C259.007 21.944 258.687 21.8107 258.42 21.544C258.153 21.2773 258.02 20.9573 258.02 20.584C258.02 20.2107 258.153 19.896 258.42 19.64C258.687 19.3733 259.007 19.24 259.38 19.24C259.753 19.24 260.068 19.3733 260.324 19.64C260.591 19.896 260.724 20.2107 260.724 20.584C260.724 20.9573 260.591 21.2773 260.324 21.544C260.068 21.8107 259.753 21.944 259.38 21.944ZM258.324 22.84H260.42V31H258.324V22.84ZM261.706 22.84H264.09L266.154 28.152H266.282L268.378 22.84H270.73L267.242 31H265.162L261.706 22.84ZM275.457 31.256C274.647 31.256 273.916 31.0693 273.265 30.696C272.615 30.3227 272.103 29.8107 271.729 29.16C271.367 28.4987 271.185 27.7573 271.185 26.936C271.185 26.1573 271.367 25.4373 271.729 24.776C272.092 24.104 272.593 23.5707 273.233 23.176C273.873 22.7813 274.588 22.584 275.377 22.584C276.22 22.584 276.945 22.7653 277.553 23.128C278.161 23.4907 278.62 23.9867 278.929 24.616C279.249 25.2453 279.409 25.944 279.409 26.712C279.409 26.9573 279.393 27.192 279.361 27.416H273.233C273.34 28.0667 273.596 28.5627 274.001 28.904C274.417 29.2347 274.913 29.4 275.489 29.4C275.969 29.4 276.38 29.2987 276.721 29.096C277.073 28.8827 277.351 28.6 277.553 28.248L279.249 29.08C278.417 30.5307 277.153 31.256 275.457 31.256ZM277.393 25.928C277.372 25.672 277.276 25.4213 277.105 25.176C276.945 24.92 276.716 24.712 276.417 24.552C276.129 24.3813 275.788 24.296 275.393 24.296C274.892 24.296 274.46 24.4453 274.097 24.744C273.745 25.032 273.489 25.4267 273.329 25.928H277.393Z" fill="#979797"/>
<path d="M338.954 0H506.582L524.454 25.2674L506.582 53H338.954L356.21 25.2674L338.954 0Z" fill="#D9D9D9"/>
<path d="M402.312 21.544H406.792C407.432 21.544 408.019 21.6773 408.552 21.944C409.096 22.2107 409.523 22.5733 409.832 23.032C410.141 23.4907 410.296 23.992 410.296 24.536C410.296 25.112 410.152 25.6133 409.864 26.04C409.587 26.456 409.219 26.776 408.76 27V27.128C409.357 27.3413 409.832 27.6827 410.184 28.152C410.536 28.6107 410.712 29.1653 410.712 29.816C410.712 30.4453 410.541 31.0053 410.2 31.496C409.869 31.976 409.416 32.3493 408.84 32.616C408.275 32.872 407.645 33 406.952 33H402.312V21.544ZM406.632 26.216C407.101 26.216 407.475 26.088 407.752 25.832C408.04 25.5653 408.184 25.2347 408.184 24.84C408.184 24.456 408.045 24.136 407.768 23.88C407.501 23.6133 407.144 23.48 406.696 23.48H404.472V26.216H406.632ZM406.872 31.032C407.395 31.032 407.8 30.8987 408.088 30.632C408.387 30.3547 408.536 29.9973 408.536 29.56C408.536 29.1227 408.387 28.7653 408.088 28.488C407.789 28.2107 407.363 28.072 406.808 28.072H404.472V31.032H406.872ZM416.287 33.256C415.445 33.256 414.693 33.0693 414.031 32.696C413.37 32.312 412.853 31.7947 412.479 31.144C412.117 30.4827 411.935 29.7413 411.935 28.92C411.935 28.1093 412.117 27.3733 412.479 26.712C412.853 26.0507 413.37 25.5333 414.031 25.16C414.693 24.776 415.445 24.584 416.287 24.584C417.119 24.584 417.866 24.776 418.527 25.16C419.189 25.5333 419.701 26.0507 420.063 26.712C420.437 27.3733 420.623 28.1093 420.623 28.92C420.623 29.7413 420.437 30.4827 420.063 31.144C419.701 31.7947 419.189 32.312 418.527 32.696C417.866 33.0693 417.119 33.256 416.287 33.256ZM416.287 31.32C416.693 31.32 417.066 31.224 417.407 31.032C417.749 30.84 418.021 30.5627 418.223 30.2C418.426 29.8373 418.527 29.4107 418.527 28.92C418.527 28.44 418.426 28.0187 418.223 27.656C418.021 27.2933 417.749 27.016 417.407 26.824C417.066 26.632 416.693 26.536 416.287 26.536C415.882 26.536 415.509 26.632 415.167 26.824C414.826 27.016 414.549 27.2933 414.335 27.656C414.133 28.0187 414.031 28.44 414.031 28.92C414.031 29.4 414.133 29.8267 414.335 30.2C414.549 30.5627 414.826 30.84 415.167 31.032C415.509 31.224 415.882 31.32 416.287 31.32ZM426.131 33.256C425.288 33.256 424.536 33.0693 423.875 32.696C423.214 32.312 422.696 31.7947 422.323 31.144C421.96 30.4827 421.779 29.7413 421.779 28.92C421.779 28.1093 421.96 27.3733 422.323 26.712C422.696 26.0507 423.214 25.5333 423.875 25.16C424.536 24.776 425.288 24.584 426.131 24.584C426.963 24.584 427.71 24.776 428.371 25.16C429.032 25.5333 429.544 26.0507 429.907 26.712C430.28 27.3733 430.467 28.1093 430.467 28.92C430.467 29.7413 430.28 30.4827 429.907 31.144C429.544 31.7947 429.032 32.312 428.371 32.696C427.71 33.0693 426.963 33.256 426.131 33.256ZM426.131 31.32C426.536 31.32 426.91 31.224 427.251 31.032C427.592 30.84 427.864 30.5627 428.067 30.2C428.27 29.8373 428.371 29.4107 428.371 28.92C428.371 28.44 428.27 28.0187 428.067 27.656C427.864 27.2933 427.592 27.016 427.251 26.824C426.91 26.632 426.536 26.536 426.131 26.536C425.726 26.536 425.352 26.632 425.011 26.824C424.67 27.016 424.392 27.2933 424.179 27.656C423.976 28.0187 423.875 28.44 423.875 28.92C423.875 29.4 423.976 29.8267 424.179 30.2C424.392 30.5627 424.67 30.84 425.011 31.032C425.352 31.224 425.726 31.32 426.131 31.32ZM431.993 21.544H434.089V27.784H434.201L437.129 24.84H439.705V24.968L436.617 27.992L439.849 32.872V33H437.369L435.145 29.432L434.089 30.472V33H431.993V21.544ZM444.52 33.256C443.709 33.256 442.979 33.0693 442.328 32.696C441.677 32.3227 441.165 31.8107 440.792 31.16C440.429 30.4987 440.248 29.7573 440.248 28.936C440.248 28.1573 440.429 27.4373 440.792 26.776C441.155 26.104 441.656 25.5707 442.296 25.176C442.936 24.7813 443.651 24.584 444.44 24.584C445.283 24.584 446.008 24.7653 446.616 25.128C447.224 25.4907 447.683 25.9867 447.992 26.616C448.312 27.2453 448.472 27.944 448.472 28.712C448.472 28.9573 448.456 29.192 448.424 29.416H442.296C442.403 30.0667 442.659 30.5627 443.064 30.904C443.48 31.2347 443.976 31.4 444.552 31.4C445.032 31.4 445.443 31.2987 445.784 31.096C446.136 30.8827 446.413 30.6 446.616 30.248L448.312 31.08C447.48 32.5307 446.216 33.256 444.52 33.256ZM446.456 27.928C446.435 27.672 446.339 27.4213 446.168 27.176C446.008 26.92 445.779 26.712 445.48 26.552C445.192 26.3813 444.851 26.296 444.456 26.296C443.955 26.296 443.523 26.4453 443.16 26.744C442.808 27.032 442.552 27.4267 442.392 27.928H446.456ZM453.669 33.256C452.933 33.256 452.261 33.0747 451.653 32.712C451.055 32.3387 450.581 31.8267 450.229 31.176C449.887 30.5147 449.717 29.7627 449.717 28.92C449.717 28.088 449.887 27.3413 450.229 26.68C450.581 26.0187 451.055 25.5067 451.653 25.144C452.261 24.7707 452.933 24.584 453.669 24.584C454.223 24.584 454.714 24.7067 455.141 24.952C455.567 25.1867 455.893 25.48 456.117 25.832H456.245L456.117 24.68V21.544H458.197V33H456.245V32.024H456.117C455.903 32.376 455.578 32.6693 455.141 32.904C454.714 33.1387 454.223 33.256 453.669 33.256ZM454.021 31.32C454.415 31.32 454.783 31.2187 455.125 31.016C455.466 30.8133 455.738 30.5307 455.941 30.168C456.143 29.8053 456.245 29.3893 456.245 28.92C456.245 28.4507 456.143 28.0347 455.941 27.672C455.738 27.3093 455.466 27.032 455.125 26.84C454.783 26.6373 454.415 26.536 454.021 26.536C453.637 26.536 453.274 26.6373 452.933 26.84C452.591 27.032 452.319 27.3093 452.117 27.672C451.914 28.0347 451.813 28.4507 451.813 28.92C451.813 29.3893 451.914 29.8053 452.117 30.168C452.319 30.5307 452.591 30.8133 452.933 31.016C453.274 31.2187 453.637 31.32 454.021 31.32Z" fill="#979797"/>
<path d="M509.047 0H676.675L694.547 25.2674L676.675 53H509.047L526.303 25.2674L509.047 0Z" fill="#D9D9D9"/>
<path d="M559.312 19.544H563.184C564.379 19.544 565.419 19.784 566.304 20.264C567.189 20.744 567.872 21.416 568.352 22.28C568.832 23.144 569.072 24.1413 569.072 25.272C569.072 26.4027 568.832 27.4 568.352 28.264C567.872 29.128 567.189 29.8 566.304 30.28C565.419 30.76 564.379 31 563.184 31H559.312V19.544ZM563.088 28.952C564.325 28.952 565.269 28.6267 565.92 27.976C566.571 27.3147 566.896 26.4133 566.896 25.272C566.896 24.1307 566.571 23.2347 565.92 22.584C565.269 21.9227 564.325 21.592 563.088 21.592H561.472V28.952H563.088ZM572.021 21.944C571.647 21.944 571.327 21.8107 571.061 21.544C570.794 21.2773 570.661 20.9573 570.661 20.584C570.661 20.2107 570.794 19.896 571.061 19.64C571.327 19.3733 571.647 19.24 572.021 19.24C572.394 19.24 572.709 19.3733 572.965 19.64C573.231 19.896 573.365 20.2107 573.365 20.584C573.365 20.9573 573.231 21.2773 572.965 21.544C572.709 21.8107 572.394 21.944 572.021 21.944ZM570.965 22.84H573.061V31H570.965V22.84ZM578.362 31.256C577.37 31.256 576.565 31.0533 575.946 30.648C575.338 30.2427 574.912 29.7147 574.666 29.064L576.538 28.248C576.709 28.632 576.949 28.9253 577.258 29.128C577.578 29.32 577.946 29.416 578.362 29.416C578.746 29.416 579.066 29.3573 579.322 29.24C579.578 29.112 579.706 28.9093 579.706 28.632C579.706 28.3653 579.589 28.168 579.354 28.04C579.12 27.9013 578.768 27.7787 578.298 27.672L577.338 27.464C576.677 27.304 576.128 27.016 575.69 26.6C575.253 26.1733 575.034 25.6453 575.034 25.016C575.034 24.5467 575.173 24.1253 575.45 23.752C575.738 23.3787 576.122 23.0907 576.602 22.888C577.093 22.6853 577.632 22.584 578.218 22.584C579.904 22.584 581.029 23.176 581.594 24.36L579.802 25.144C579.482 24.568 578.97 24.28 578.266 24.28C577.904 24.28 577.616 24.3493 577.402 24.488C577.189 24.616 577.082 24.7813 577.082 24.984C577.082 25.368 577.445 25.656 578.17 25.848L579.37 26.136C580.181 26.3387 580.789 26.648 581.194 27.064C581.61 27.48 581.818 27.992 581.818 28.6C581.818 29.1227 581.664 29.5867 581.354 29.992C581.056 30.3867 580.64 30.696 580.106 30.92C579.584 31.144 579.002 31.256 578.362 31.256ZM583.194 22.84H585.162V23.832H585.29C585.514 23.48 585.84 23.1867 586.266 22.952C586.693 22.7067 587.184 22.584 587.738 22.584C588.474 22.584 589.141 22.7707 589.738 23.144C590.346 23.5067 590.821 24.0187 591.162 24.68C591.504 25.3413 591.674 26.088 591.674 26.92C591.674 27.7627 591.504 28.5147 591.162 29.176C590.821 29.8267 590.346 30.3387 589.738 30.712C589.141 31.0747 588.474 31.256 587.738 31.256C587.184 31.256 586.688 31.1387 586.25 30.904C585.824 30.6693 585.504 30.376 585.29 30.024H585.162L585.29 31.176V34.456H583.194V22.84ZM587.37 29.32C587.765 29.32 588.133 29.2187 588.474 29.016C588.816 28.8133 589.088 28.5307 589.29 28.168C589.493 27.8053 589.594 27.3893 589.594 26.92C589.594 26.4507 589.493 26.0347 589.29 25.672C589.088 25.3093 588.816 25.032 588.474 24.84C588.133 24.6373 587.765 24.536 587.37 24.536C586.986 24.536 586.624 24.6373 586.282 24.84C585.941 25.032 585.669 25.3093 585.466 25.672C585.264 26.0347 585.162 26.4507 585.162 26.92C585.162 27.3893 585.264 27.8053 585.466 28.168C585.669 28.5307 585.941 28.8133 586.282 29.016C586.624 29.2187 586.986 29.32 587.37 29.32ZM595.786 31.256C594.922 31.256 594.212 31.0053 593.658 30.504C593.103 29.992 592.826 29.3253 592.826 28.504C592.826 27.96 592.97 27.48 593.258 27.064C593.546 26.648 593.94 26.328 594.442 26.104C594.943 25.88 595.498 25.768 596.106 25.768C596.948 25.768 597.668 25.8907 598.266 26.136V25.784C598.266 25.336 598.095 24.9733 597.754 24.696C597.423 24.4187 596.975 24.28 596.41 24.28C596.026 24.28 595.652 24.3707 595.29 24.552C594.938 24.7227 594.644 24.952 594.41 25.24L593.066 24.184C593.46 23.672 593.956 23.2773 594.554 23C595.151 22.7227 595.802 22.584 596.506 22.584C597.754 22.584 598.703 22.872 599.354 23.448C600.004 24.024 600.33 24.8667 600.33 25.976V31H598.266V30.168H598.138C597.892 30.488 597.567 30.7493 597.162 30.952C596.767 31.1547 596.308 31.256 595.786 31.256ZM596.282 29.624C596.89 29.624 597.37 29.432 597.722 29.048C598.084 28.6533 598.266 28.1947 598.266 27.672C597.722 27.416 597.151 27.288 596.554 27.288C595.466 27.288 594.922 27.6933 594.922 28.504C594.922 28.8347 595.039 29.1067 595.274 29.32C595.508 29.5227 595.844 29.624 596.282 29.624ZM605.654 31.128C605.249 31.128 604.875 31.0693 604.534 30.952C604.193 30.824 603.915 30.6533 603.702 30.44C603.201 29.96 602.95 29.2773 602.95 28.392V24.632H601.526V22.84H602.95V20.536H605.046V22.84H607.046V24.632H605.046V28.008C605.046 28.424 605.137 28.7227 605.318 28.904C605.467 29.0747 605.723 29.16 606.086 29.16C606.289 29.16 606.454 29.1333 606.582 29.08C606.721 29.0267 606.897 28.936 607.11 28.808V30.856C606.651 31.0373 606.166 31.128 605.654 31.128ZM612.348 31.256C611.527 31.256 610.791 31.0747 610.14 30.712C609.49 30.3387 608.978 29.8213 608.604 29.16C608.242 28.4987 608.06 27.752 608.06 26.92C608.06 26.088 608.242 25.3467 608.604 24.696C608.978 24.0347 609.49 23.5173 610.14 23.144C610.791 22.7707 611.527 22.584 612.348 22.584C613.255 22.584 614.034 22.7813 614.684 23.176C615.335 23.56 615.804 24.1093 616.092 24.824L614.172 25.624C613.831 24.8987 613.223 24.536 612.348 24.536C611.708 24.536 611.18 24.7547 610.764 25.192C610.359 25.6293 610.156 26.2053 610.156 26.92C610.156 27.6453 610.359 28.2267 610.764 28.664C611.18 29.1013 611.708 29.32 612.348 29.32C613.234 29.32 613.874 28.936 614.268 28.168L616.172 29C615.82 29.7147 615.319 30.2693 614.668 30.664C614.018 31.0587 613.244 31.256 612.348 31.256ZM617.68 19.544H619.776V22.44L619.648 23.864H619.776C620.011 23.48 620.352 23.1707 620.8 22.936C621.248 22.7013 621.734 22.584 622.256 22.584C623.248 22.584 624.006 22.8827 624.528 23.48C625.062 24.0667 625.328 24.8827 625.328 25.928V31H623.232V26.184C623.232 25.6613 623.088 25.256 622.8 24.968C622.523 24.68 622.15 24.536 621.68 24.536C621.126 24.536 620.667 24.76 620.304 25.208C619.952 25.656 619.776 26.2053 619.776 26.856V31H617.68V19.544ZM631.129 31.256C630.319 31.256 629.588 31.0693 628.937 30.696C628.287 30.3227 627.775 29.8107 627.401 29.16C627.039 28.4987 626.857 27.7573 626.857 26.936C626.857 26.1573 627.039 25.4373 627.401 24.776C627.764 24.104 628.265 23.5707 628.905 23.176C629.545 22.7813 630.26 22.584 631.049 22.584C631.892 22.584 632.617 22.7653 633.225 23.128C633.833 23.4907 634.292 23.9867 634.601 24.616C634.921 25.2453 635.081 25.944 635.081 26.712C635.081 26.9573 635.065 27.192 635.033 27.416H628.905C629.012 28.0667 629.268 28.5627 629.673 28.904C630.089 29.2347 630.585 29.4 631.161 29.4C631.641 29.4 632.052 29.2987 632.393 29.096C632.745 28.8827 633.023 28.6 633.225 28.248L634.921 29.08C634.089 30.5307 632.825 31.256 631.129 31.256ZM633.065 25.928C633.044 25.672 632.948 25.4213 632.777 25.176C632.617 24.92 632.388 24.712 632.089 24.552C631.801 24.3813 631.46 24.296 631.065 24.296C630.564 24.296 630.132 24.4453 629.769 24.744C629.417 25.032 629.161 25.4267 629.001 25.928H633.065ZM640.278 31.256C639.542 31.256 638.87 31.0747 638.262 30.712C637.665 30.3387 637.19 29.8267 636.838 29.176C636.497 28.5147 636.326 27.7627 636.326 26.92C636.326 26.088 636.497 25.3413 636.838 24.68C637.19 24.0187 637.665 23.5067 638.262 23.144C638.87 22.7707 639.542 22.584 640.278 22.584C640.833 22.584 641.323 22.7067 641.75 22.952C642.177 23.1867 642.502 23.48 642.726 23.832H642.854L642.726 22.68V19.544H644.806V31H642.854V30.024H642.726C642.513 30.376 642.187 30.6693 641.75 30.904C641.323 31.1387 640.833 31.256 640.278 31.256ZM640.63 29.32C641.025 29.32 641.393 29.2187 641.734 29.016C642.075 28.8133 642.347 28.5307 642.55 28.168C642.753 27.8053 642.854 27.3893 642.854 26.92C642.854 26.4507 642.753 26.0347 642.55 25.672C642.347 25.3093 642.075 25.032 641.734 24.84C641.393 24.6373 641.025 24.536 640.63 24.536C640.246 24.536 639.883 24.6373 639.542 24.84C639.201 25.032 638.929 25.3093 638.726 25.672C638.523 26.0347 638.422 26.4507 638.422 26.92C638.422 27.3893 638.523 27.8053 638.726 28.168C638.929 28.5307 639.201 28.8133 639.542 29.016C639.883 29.2187 640.246 29.32 640.63 29.32Z" fill="#979797"/>
<path d="M679.14 0H846.768L864.64 25.2674L846.768 53H679.14L696.395 25.2674L679.14 0Z" fill="#D9D9D9"/>
<path d="M732.312 19.544H736.344C737.069 19.544 737.731 19.6987 738.328 20.008C738.925 20.3067 739.395 20.7333 739.736 21.288C740.077 21.832 740.248 22.456 740.248 23.16C740.248 23.864 740.077 24.4933 739.736 25.048C739.395 25.6027 738.925 26.0347 738.328 26.344C737.731 26.6427 737.069 26.792 736.344 26.792H734.472V31H732.312V19.544ZM736.408 24.744C736.941 24.744 737.357 24.5893 737.656 24.28C737.965 23.9707 738.12 23.5973 738.12 23.16C738.12 22.7227 737.965 22.3547 737.656 22.056C737.357 21.7467 736.941 21.592 736.408 21.592H734.472V24.744H736.408ZM742.974 21.944C742.6 21.944 742.28 21.8107 742.014 21.544C741.747 21.2773 741.614 20.9573 741.614 20.584C741.614 20.2107 741.747 19.896 742.014 19.64C742.28 19.3733 742.6 19.24 742.974 19.24C743.347 19.24 743.662 19.3733 743.918 19.64C744.184 19.896 744.318 20.2107 744.318 20.584C744.318 20.9573 744.184 21.2773 743.918 21.544C743.662 21.8107 743.347 21.944 742.974 21.944ZM741.918 22.84H744.014V31H741.918V22.84ZM749.973 31.256C749.152 31.256 748.416 31.0747 747.765 30.712C747.115 30.3387 746.603 29.8213 746.229 29.16C745.867 28.4987 745.685 27.752 745.685 26.92C745.685 26.088 745.867 25.3467 746.229 24.696C746.603 24.0347 747.115 23.5173 747.765 23.144C748.416 22.7707 749.152 22.584 749.973 22.584C750.88 22.584 751.659 22.7813 752.309 23.176C752.96 23.56 753.429 24.1093 753.717 24.824L751.797 25.624C751.456 24.8987 750.848 24.536 749.973 24.536C749.333 24.536 748.805 24.7547 748.389 25.192C747.984 25.6293 747.781 26.2053 747.781 26.92C747.781 27.6453 747.984 28.2267 748.389 28.664C748.805 29.1013 749.333 29.32 749.973 29.32C750.859 29.32 751.499 28.936 751.893 28.168L753.797 29C753.445 29.7147 752.944 30.2693 752.293 30.664C751.643 31.0587 750.869 31.256 749.973 31.256ZM755.305 19.544H757.401V25.784H757.513L760.441 22.84H763.017V22.968L759.929 25.992L763.161 30.872V31H760.681L758.457 27.432L757.401 28.472V31H755.305V19.544ZM767.832 31.256C767.022 31.256 766.291 31.0693 765.64 30.696C764.99 30.3227 764.478 29.8107 764.104 29.16C763.742 28.4987 763.56 27.7573 763.56 26.936C763.56 26.1573 763.742 25.4373 764.104 24.776C764.467 24.104 764.968 23.5707 765.608 23.176C766.248 22.7813 766.963 22.584 767.752 22.584C768.595 22.584 769.32 22.7653 769.928 23.128C770.536 23.4907 770.995 23.9867 771.304 24.616C771.624 25.2453 771.784 25.944 771.784 26.712C771.784 26.9573 771.768 27.192 771.736 27.416H765.608C765.715 28.0667 765.971 28.5627 766.376 28.904C766.792 29.2347 767.288 29.4 767.864 29.4C768.344 29.4 768.755 29.2987 769.096 29.096C769.448 28.8827 769.726 28.6 769.928 28.248L771.624 29.08C770.792 30.5307 769.528 31.256 767.832 31.256ZM769.768 25.928C769.747 25.672 769.651 25.4213 769.48 25.176C769.32 24.92 769.091 24.712 768.792 24.552C768.504 24.3813 768.163 24.296 767.768 24.296C767.267 24.296 766.835 24.4453 766.472 24.744C766.12 25.032 765.864 25.4267 765.704 25.928H769.768ZM776.981 31.256C776.245 31.256 775.573 31.0747 774.965 30.712C774.368 30.3387 773.893 29.8267 773.541 29.176C773.2 28.5147 773.029 27.7627 773.029 26.92C773.029 26.088 773.2 25.3413 773.541 24.68C773.893 24.0187 774.368 23.5067 774.965 23.144C775.573 22.7707 776.245 22.584 776.981 22.584C777.536 22.584 778.026 22.7067 778.453 22.952C778.88 23.1867 779.205 23.48 779.429 23.832H779.557L779.429 22.68V19.544H781.509V31H779.557V30.024H779.429C779.216 30.376 778.89 30.6693 778.453 30.904C778.026 31.1387 777.536 31.256 776.981 31.256ZM777.333 29.32C777.728 29.32 778.096 29.2187 778.437 29.016C778.778 28.8133 779.05 28.5307 779.253 28.168C779.456 27.8053 779.557 27.3893 779.557 26.92C779.557 26.4507 779.456 26.0347 779.253 25.672C779.05 25.3093 778.778 25.032 778.437 24.84C778.096 24.6373 777.728 24.536 777.333 24.536C776.949 24.536 776.586 24.6373 776.245 24.84C775.904 25.032 775.632 25.3093 775.429 25.672C775.226 26.0347 775.125 26.4507 775.125 26.92C775.125 27.3893 775.226 27.8053 775.429 28.168C775.632 28.5307 775.904 28.8133 776.245 29.016C776.586 29.2187 776.949 29.32 777.333 29.32ZM791.536 31.256C790.64 31.256 789.856 31.064 789.184 30.68C788.523 30.296 788.006 29.7413 787.632 29.016C787.27 28.2907 787.088 27.432 787.088 26.44V19.544H789.232V26.568C789.232 27.3573 789.43 27.9973 789.824 28.488C790.23 28.968 790.8 29.208 791.536 29.208C792.272 29.208 792.838 28.968 793.232 28.488C793.638 27.9973 793.84 27.3573 793.84 26.568V19.544H795.984V26.44C795.984 27.3893 795.803 28.2267 795.44 28.952C795.078 29.6773 794.56 30.2427 793.888 30.648C793.216 31.0533 792.432 31.256 791.536 31.256ZM798.054 22.84H800.022V23.832H800.15C800.374 23.48 800.699 23.1867 801.126 22.952C801.552 22.7067 802.043 22.584 802.598 22.584C803.334 22.584 804 22.7707 804.598 23.144C805.206 23.5067 805.68 24.0187 806.022 24.68C806.363 25.3413 806.534 26.088 806.534 26.92C806.534 27.7627 806.363 28.5147 806.022 29.176C805.68 29.8267 805.206 30.3387 804.598 30.712C804 31.0747 803.334 31.256 802.598 31.256C802.043 31.256 801.547 31.1387 801.11 30.904C800.683 30.6693 800.363 30.376 800.15 30.024H800.022L800.15 31.176V34.456H798.054V22.84ZM802.23 29.32C802.624 29.32 802.992 29.2187 803.334 29.016C803.675 28.8133 803.947 28.5307 804.15 28.168C804.352 27.8053 804.454 27.3893 804.454 26.92C804.454 26.4507 804.352 26.0347 804.15 25.672C803.947 25.3093 803.675 25.032 803.334 24.84C802.992 24.6373 802.624 24.536 802.23 24.536C801.846 24.536 801.483 24.6373 801.142 24.84C800.8 25.032 800.528 25.3093 800.326 25.672C800.123 26.0347 800.022 26.4507 800.022 26.92C800.022 27.3893 800.123 27.8053 800.326 28.168C800.528 28.5307 800.8 28.8133 801.142 29.016C801.483 29.2187 801.846 29.32 802.23 29.32Z" fill="#979797"/>
<path d="M849.232 0H1016.86L1034.73 25.2674L1016.86 53H849.232L866.488 25.2674L849.232 0Z" fill="#D9D9D9"/>
<path d="M905.312 19.544H909.184C910.379 19.544 911.419 19.784 912.304 20.264C913.189 20.744 913.872 21.416 914.352 22.28C914.832 23.144 915.072 24.1413 915.072 25.272C915.072 26.4027 914.832 27.4 914.352 28.264C913.872 29.128 913.189 29.8 912.304 30.28C911.419 30.76 910.379 31 909.184 31H905.312V19.544ZM909.088 28.952C910.325 28.952 911.269 28.6267 911.92 27.976C912.571 27.3147 912.896 26.4133 912.896 25.272C912.896 24.1307 912.571 23.2347 911.92 22.584C911.269 21.9227 910.325 21.592 909.088 21.592H907.472V28.952H909.088ZM920.426 31.256C919.615 31.256 918.885 31.0693 918.234 30.696C917.583 30.3227 917.071 29.8107 916.698 29.16C916.335 28.4987 916.154 27.7573 916.154 26.936C916.154 26.1573 916.335 25.4373 916.698 24.776C917.061 24.104 917.562 23.5707 918.202 23.176C918.842 22.7813 919.557 22.584 920.346 22.584C921.189 22.584 921.914 22.7653 922.522 23.128C923.13 23.4907 923.589 23.9867 923.898 24.616C924.218 25.2453 924.378 25.944 924.378 26.712C924.378 26.9573 924.362 27.192 924.33 27.416H918.202C918.309 28.0667 918.565 28.5627 918.97 28.904C919.386 29.2347 919.882 29.4 920.458 29.4C920.938 29.4 921.349 29.2987 921.69 29.096C922.042 28.8827 922.319 28.6 922.522 28.248L924.218 29.08C923.386 30.5307 922.122 31.256 920.426 31.256ZM922.362 25.928C922.341 25.672 922.245 25.4213 922.074 25.176C921.914 24.92 921.685 24.712 921.386 24.552C921.098 24.3813 920.757 24.296 920.362 24.296C919.861 24.296 919.429 24.4453 919.066 24.744C918.714 25.032 918.458 25.4267 918.298 25.928H922.362ZM925.993 19.544H928.089V31H925.993V19.544ZM931.333 21.944C930.96 21.944 930.64 21.8107 930.373 21.544C930.106 21.2773 929.973 20.9573 929.973 20.584C929.973 20.2107 930.106 19.896 930.373 19.64C930.64 19.3733 930.96 19.24 931.333 19.24C931.706 19.24 932.021 19.3733 932.277 19.64C932.544 19.896 932.677 20.2107 932.677 20.584C932.677 20.9573 932.544 21.2773 932.277 21.544C932.021 21.8107 931.706 21.944 931.333 21.944ZM930.277 22.84H932.373V31H930.277V22.84ZM933.659 22.84H936.043L938.107 28.152H938.235L940.331 22.84H942.683L939.195 31H937.115L933.659 22.84ZM947.411 31.256C946.6 31.256 945.869 31.0693 945.219 30.696C944.568 30.3227 944.056 29.8107 943.683 29.16C943.32 28.4987 943.139 27.7573 943.139 26.936C943.139 26.1573 943.32 25.4373 943.683 24.776C944.045 24.104 944.547 23.5707 945.187 23.176C945.827 22.7813 946.541 22.584 947.331 22.584C948.173 22.584 948.899 22.7653 949.507 23.128C950.115 23.4907 950.573 23.9867 950.883 24.616C951.203 25.2453 951.363 25.944 951.363 26.712C951.363 26.9573 951.347 27.192 951.315 27.416H945.187C945.293 28.0667 945.549 28.5627 945.955 28.904C946.371 29.2347 946.867 29.4 947.443 29.4C947.923 29.4 948.333 29.2987 948.675 29.096C949.027 28.8827 949.304 28.6 949.507 28.248L951.203 29.08C950.371 30.5307 949.107 31.256 947.411 31.256ZM949.347 25.928C949.325 25.672 949.229 25.4213 949.059 25.176C948.899 24.92 948.669 24.712 948.371 24.552C948.083 24.3813 947.741 24.296 947.347 24.296C946.845 24.296 946.413 24.4453 946.051 24.744C945.699 25.032 945.443 25.4267 945.283 25.928H949.347ZM952.977 22.84H954.945V23.928H955.073C955.276 23.544 955.59 23.2293 956.017 22.984C956.444 22.728 956.913 22.6 957.425 22.6C957.798 22.6 958.14 22.6587 958.449 22.776V24.872C958.161 24.7653 957.916 24.6907 957.713 24.648C957.521 24.5947 957.313 24.568 957.089 24.568C956.47 24.568 955.98 24.792 955.617 25.24C955.254 25.688 955.073 26.2533 955.073 26.936V31H952.977V22.84ZM963.145 31.256C962.334 31.256 961.604 31.0693 960.953 30.696C960.302 30.3227 959.79 29.8107 959.417 29.16C959.054 28.4987 958.873 27.7573 958.873 26.936C958.873 26.1573 959.054 25.4373 959.417 24.776C959.78 24.104 960.281 23.5707 960.921 23.176C961.561 22.7813 962.276 22.584 963.065 22.584C963.908 22.584 964.633 22.7653 965.241 23.128C965.849 23.4907 966.308 23.9867 966.617 24.616C966.937 25.2453 967.097 25.944 967.097 26.712C967.097 26.9573 967.081 27.192 967.049 27.416H960.921C961.028 28.0667 961.284 28.5627 961.689 28.904C962.105 29.2347 962.601 29.4 963.177 29.4C963.657 29.4 964.068 29.2987 964.409 29.096C964.761 28.8827 965.038 28.6 965.241 28.248L966.937 29.08C966.105 30.5307 964.841 31.256 963.145 31.256ZM965.081 25.928C965.06 25.672 964.964 25.4213 964.793 25.176C964.633 24.92 964.404 24.712 964.105 24.552C963.817 24.3813 963.476 24.296 963.081 24.296C962.58 24.296 962.148 24.4453 961.785 24.744C961.433 25.032 961.177 25.4267 961.017 25.928H965.081ZM972.294 31.256C971.558 31.256 970.886 31.0747 970.278 30.712C969.68 30.3387 969.206 29.8267 968.854 29.176C968.512 28.5147 968.342 27.7627 968.342 26.92C968.342 26.088 968.512 25.3413 968.854 24.68C969.206 24.0187 969.68 23.5067 970.278 23.144C970.886 22.7707 971.558 22.584 972.294 22.584C972.848 22.584 973.339 22.7067 973.766 22.952C974.192 23.1867 974.518 23.48 974.742 23.832H974.87L974.742 22.68V19.544H976.822V31H974.87V30.024H974.742C974.528 30.376 974.203 30.6693 973.766 30.904C973.339 31.1387 972.848 31.256 972.294 31.256ZM972.646 29.32C973.04 29.32 973.408 29.2187 973.75 29.016C974.091 28.8133 974.363 28.5307 974.566 28.168C974.768 27.8053 974.87 27.3893 974.87 26.92C974.87 26.4507 974.768 26.0347 974.566 25.672C974.363 25.3093 974.091 25.032 973.75 24.84C973.408 24.6373 973.04 24.536 972.646 24.536C972.262 24.536 971.899 24.6373 971.558 24.84C971.216 25.032 970.944 25.3093 970.742 25.672C970.539 26.0347 970.438 26.4507 970.438 26.92C970.438 27.3893 970.539 27.8053 970.742 28.168C970.944 28.5307 971.216 28.8133 971.558 29.016C971.899 29.2187 972.262 29.32 972.646 29.32Z" fill="#979797"/>
<path d="M1019.33 0H1186.95L1204.83 25.2674L1186.95 53H1019.33L1036.58 25.2674L1019.33 0Z" fill="#D9D9D9"/>
<path d="M1075.74 31.256C1074.63 31.256 1073.61 30.9947 1072.7 30.472C1071.78 29.9387 1071.05 29.2187 1070.52 28.312C1070 27.3947 1069.74 26.3813 1069.74 25.272C1069.74 24.1627 1070 23.1547 1070.52 22.248C1071.05 21.3307 1071.78 20.6107 1072.7 20.088C1073.61 19.5547 1074.63 19.288 1075.74 19.288C1077.46 19.288 1078.89 19.912 1080.02 21.16L1078.5 22.632C1077.77 21.768 1076.85 21.336 1075.75 21.336C1075.04 21.336 1074.39 21.5013 1073.8 21.832C1073.21 22.152 1072.75 22.6107 1072.41 23.208C1072.08 23.8053 1071.91 24.4933 1071.91 25.272C1071.91 26.0507 1072.08 26.7387 1072.41 27.336C1072.75 27.9333 1073.21 28.3973 1073.8 28.728C1074.39 29.048 1075.04 29.208 1075.75 29.208C1076.96 29.208 1077.97 28.7067 1078.78 27.704L1080.31 29.16C1079.75 29.8427 1079.07 30.3653 1078.3 30.728C1077.53 31.08 1076.67 31.256 1075.74 31.256ZM1085.62 31.256C1084.77 31.256 1084.02 31.0693 1083.36 30.696C1082.7 30.312 1082.18 29.7947 1081.81 29.144C1081.44 28.4827 1081.26 27.7413 1081.26 26.92C1081.26 26.1093 1081.44 25.3733 1081.81 24.712C1082.18 24.0507 1082.7 23.5333 1083.36 23.16C1084.02 22.776 1084.77 22.584 1085.62 22.584C1086.45 22.584 1087.19 22.776 1087.86 23.16C1088.52 23.5333 1089.03 24.0507 1089.39 24.712C1089.76 25.3733 1089.95 26.1093 1089.95 26.92C1089.95 27.7413 1089.76 28.4827 1089.39 29.144C1089.03 29.7947 1088.52 30.312 1087.86 30.696C1087.19 31.0693 1086.45 31.256 1085.62 31.256ZM1085.62 29.32C1086.02 29.32 1086.39 29.224 1086.74 29.032C1087.08 28.84 1087.35 28.5627 1087.55 28.2C1087.75 27.8373 1087.86 27.4107 1087.86 26.92C1087.86 26.44 1087.75 26.0187 1087.55 25.656C1087.35 25.2933 1087.08 25.016 1086.74 24.824C1086.39 24.632 1086.02 24.536 1085.62 24.536C1085.21 24.536 1084.84 24.632 1084.5 24.824C1084.15 25.016 1083.88 25.2933 1083.66 25.656C1083.46 26.0187 1083.36 26.44 1083.36 26.92C1083.36 27.4 1083.46 27.8267 1083.66 28.2C1083.88 28.5627 1084.15 28.84 1084.5 29.032C1084.84 29.224 1085.21 29.32 1085.62 29.32ZM1091.4 22.84H1093.37V23.864H1093.5C1093.75 23.4693 1094.09 23.16 1094.52 22.936C1094.96 22.7013 1095.44 22.584 1095.98 22.584C1096.55 22.584 1097.05 22.7227 1097.48 23C1097.91 23.2667 1098.21 23.608 1098.39 24.024C1098.66 23.5973 1099.02 23.2507 1099.48 22.984C1099.95 22.7173 1100.5 22.584 1101.13 22.584C1102.06 22.584 1102.76 22.872 1103.24 23.448C1103.73 24.0133 1103.98 24.7813 1103.98 25.752V31H1101.9V26.136C1101.9 25.624 1101.77 25.2293 1101.53 24.952C1101.29 24.6747 1100.96 24.536 1100.54 24.536C1099.99 24.536 1099.55 24.7547 1099.22 25.192C1098.9 25.6187 1098.74 26.184 1098.74 26.888V31H1096.65V26.136C1096.65 25.624 1096.52 25.2293 1096.26 24.952C1096.02 24.6747 1095.67 24.536 1095.21 24.536C1094.7 24.536 1094.28 24.7547 1093.96 25.192C1093.65 25.6187 1093.5 26.184 1093.5 26.888V31H1091.4V22.84ZM1105.91 22.84H1107.88V23.832H1108.01C1108.23 23.48 1108.56 23.1867 1108.99 22.952C1109.41 22.7067 1109.9 22.584 1110.46 22.584C1111.19 22.584 1111.86 22.7707 1112.46 23.144C1113.07 23.5067 1113.54 24.0187 1113.88 24.68C1114.22 25.3413 1114.39 26.088 1114.39 26.92C1114.39 27.7627 1114.22 28.5147 1113.88 29.176C1113.54 29.8267 1113.07 30.3387 1112.46 30.712C1111.86 31.0747 1111.19 31.256 1110.46 31.256C1109.9 31.256 1109.41 31.1387 1108.97 30.904C1108.54 30.6693 1108.22 30.376 1108.01 30.024H1107.88L1108.01 31.176V34.456H1105.91V22.84ZM1110.09 29.32C1110.48 29.32 1110.85 29.2187 1111.19 29.016C1111.53 28.8133 1111.81 28.5307 1112.01 28.168C1112.21 27.8053 1112.31 27.3893 1112.31 26.92C1112.31 26.4507 1112.21 26.0347 1112.01 25.672C1111.81 25.3093 1111.53 25.032 1111.19 24.84C1110.85 24.6373 1110.48 24.536 1110.09 24.536C1109.71 24.536 1109.34 24.6373 1109 24.84C1108.66 25.032 1108.39 25.3093 1108.19 25.672C1107.98 26.0347 1107.88 26.4507 1107.88 26.92C1107.88 27.3893 1107.98 27.8053 1108.19 28.168C1108.39 28.5307 1108.66 28.8133 1109 29.016C1109.34 29.2187 1109.71 29.32 1110.09 29.32ZM1115.85 19.544H1117.95V31H1115.85V19.544ZM1123.75 31.256C1122.94 31.256 1122.21 31.0693 1121.56 30.696C1120.91 30.3227 1120.4 29.8107 1120.03 29.16C1119.66 28.4987 1119.48 27.7573 1119.48 26.936C1119.48 26.1573 1119.66 25.4373 1120.03 24.776C1120.39 24.104 1120.89 23.5707 1121.53 23.176C1122.17 22.7813 1122.88 22.584 1123.67 22.584C1124.52 22.584 1125.24 22.7653 1125.85 23.128C1126.46 23.4907 1126.92 23.9867 1127.23 24.616C1127.55 25.2453 1127.71 25.944 1127.71 26.712C1127.71 26.9573 1127.69 27.192 1127.66 27.416H1121.53C1121.64 28.0667 1121.89 28.5627 1122.3 28.904C1122.71 29.2347 1123.21 29.4 1123.79 29.4C1124.27 29.4 1124.68 29.2987 1125.02 29.096C1125.37 28.8827 1125.65 28.6 1125.85 28.248L1127.55 29.08C1126.71 30.5307 1125.45 31.256 1123.75 31.256ZM1125.69 25.928C1125.67 25.672 1125.57 25.4213 1125.4 25.176C1125.24 24.92 1125.01 24.712 1124.71 24.552C1124.43 24.3813 1124.08 24.296 1123.69 24.296C1123.19 24.296 1122.76 24.4453 1122.39 24.744C1122.04 25.032 1121.79 25.4267 1121.63 25.928H1125.69ZM1132.64 31.128C1132.23 31.128 1131.86 31.0693 1131.52 30.952C1131.18 30.824 1130.9 30.6533 1130.69 30.44C1130.19 29.96 1129.93 29.2773 1129.93 28.392V24.632H1128.51V22.84H1129.93V20.536H1132.03V22.84H1134.03V24.632H1132.03V28.008C1132.03 28.424 1132.12 28.7227 1132.3 28.904C1132.45 29.0747 1132.71 29.16 1133.07 29.16C1133.27 29.16 1133.44 29.1333 1133.57 29.08C1133.71 29.0267 1133.88 28.936 1134.09 28.808V30.856C1133.64 31.0373 1133.15 31.128 1132.64 31.128ZM1139.32 31.256C1138.51 31.256 1137.78 31.0693 1137.12 30.696C1136.47 30.3227 1135.96 29.8107 1135.59 29.16C1135.23 28.4987 1135.04 27.7573 1135.04 26.936C1135.04 26.1573 1135.23 25.4373 1135.59 24.776C1135.95 24.104 1136.45 23.5707 1137.09 23.176C1137.73 22.7813 1138.45 22.584 1139.24 22.584C1140.08 22.584 1140.8 22.7653 1141.41 23.128C1142.02 23.4907 1142.48 23.9867 1142.79 24.616C1143.11 25.2453 1143.27 25.944 1143.27 26.712C1143.27 26.9573 1143.25 27.192 1143.22 27.416H1137.09C1137.2 28.0667 1137.46 28.5627 1137.86 28.904C1138.28 29.2347 1138.77 29.4 1139.35 29.4C1139.83 29.4 1140.24 29.2987 1140.58 29.096C1140.93 28.8827 1141.21 28.6 1141.41 28.248L1143.11 29.08C1142.28 30.5307 1141.01 31.256 1139.32 31.256ZM1141.25 25.928C1141.23 25.672 1141.14 25.4213 1140.96 25.176C1140.8 24.92 1140.58 24.712 1140.28 24.552C1139.99 24.3813 1139.65 24.296 1139.25 24.296C1138.75 24.296 1138.32 24.4453 1137.96 24.744C1137.6 25.032 1137.35 25.4267 1137.19 25.928H1141.25ZM1148.47 31.256C1147.73 31.256 1147.06 31.0747 1146.45 30.712C1145.85 30.3387 1145.38 29.8267 1145.03 29.176C1144.68 28.5147 1144.51 27.7627 1144.51 26.92C1144.51 26.088 1144.68 25.3413 1145.03 24.68C1145.38 24.0187 1145.85 23.5067 1146.45 23.144C1147.06 22.7707 1147.73 22.584 1148.47 22.584C1149.02 22.584 1149.51 22.7067 1149.94 22.952C1150.36 23.1867 1150.69 23.48 1150.91 23.832H1151.04L1150.91 22.68V19.544H1152.99V31H1151.04V30.024H1150.91C1150.7 30.376 1150.37 30.6693 1149.94 30.904C1149.51 31.1387 1149.02 31.256 1148.47 31.256ZM1148.82 29.32C1149.21 29.32 1149.58 29.2187 1149.92 29.016C1150.26 28.8133 1150.53 28.5307 1150.74 28.168C1150.94 27.8053 1151.04 27.3893 1151.04 26.92C1151.04 26.4507 1150.94 26.0347 1150.74 25.672C1150.53 25.3093 1150.26 25.032 1149.92 24.84C1149.58 24.6373 1149.21 24.536 1148.82 24.536C1148.43 24.536 1148.07 24.6373 1147.73 24.84C1147.39 25.032 1147.12 25.3093 1146.91 25.672C1146.71 26.0347 1146.61 26.4507 1146.61 26.92C1146.61 27.3893 1146.71 27.8053 1146.91 28.168C1147.12 28.5307 1147.39 28.8133 1147.73 29.016C1148.07 29.2187 1148.43 29.32 1148.82 29.32Z" fill="#979797"/>
</svg>
