<svg width="40" height="40" fill="none" xmlns="http://www.w3.org/2000/svg"><path fill-rule="evenodd" clip-rule="evenodd" d="M20 40c11.046 0 20-8.954 20-20S31.046 0 20 0 0 8.954 0 20s8.954 20 20 20zm-2.172-17.448c-.168 1.12.784 2.044 1.916 2.044h.94a1.05 1.05 0 001.048-.984c.114-1.052.566-1.972 1.352-2.758l1.26-1.24c.984-.99 1.672-1.888 2.066-2.694a5.91 5.91 0 00.59-2.598c0-2.01-.606-3.564-1.818-4.66C23.97 8.554 22.266 8 20.07 8c-2.176 0-3.894.58-5.16 1.742a5.68 5.68 0 00-1.586 2.56c-.368 1.208.72 2.262 1.98 2.262 1.068 0 1.866-.87 2.608-1.68.104-.114.206-.228.308-.336.468-.494 1.084-.74 1.85-.74 1.616 0 2.424.908 2.424 2.724 0 .602-.156 1.178-.466 1.726-.31.538-.938 1.242-1.88 2.112-.932.86-1.574 1.738-1.928 2.63a7.11 7.11 0 00-.392 1.552zm.114 5.222c-.466.462-.7 1.054-.7 1.774 0 .71.228 1.296.684 1.76.466.46 1.078.692 1.834.692s1.36-.232 1.818-.694c.466-.462.7-1.048.7-1.758 0-.72-.24-1.312-.716-1.774-.466-.474-1.068-.71-1.802-.71-.736 0-1.34.236-1.818.71z" fill="#a6a6a6"/></svg>