<svg width="409" height="309" viewBox="0 0 409 309" fill="none" xmlns="http://www.w3.org/2000/svg">
<path d="M205.202 58.1657L199.185 56.9906L179.542 157.562L185.559 158.737L205.202 58.1657Z" fill="#F8FAFB"/>
<path d="M198.356 61.177L188.556 111.352C190.477 111.324 192.532 111.567 194.635 112.206L204.173 63.371L198.356 61.177Z" fill="#A7A9AC"/>
<path d="M236.502 108.889L151.076 92.204C146.912 91.391 144.171 87.319 144.984 83.155L155.178 30.965C155.991 26.801 160.063 24.06 164.227 24.873L249.653 41.558C253.817 42.371 256.558 46.443 255.745 50.607L245.551 102.797C244.738 106.961 240.666 109.703 236.502 108.889Z" fill="#F8FAFB"/>
<path d="M202.513 57.929C202.604 57.833 202.694 57.736 202.782 57.636C203.871 56.399 204.646 54.887 205.021 53.282C205.309 52.049 205.581 50.214 207.024 49.81C208.158 49.492 209.339 50.436 209.702 51.557C210.065 52.678 209.828 53.896 209.562 55.043C209.097 57.047 208.549 59.033 207.921 60.992C209.863 61.612 211.805 62.232 213.747 62.852C214.876 63.213 216.044 63.595 216.919 64.395C217.794 65.195 218.292 66.538 217.761 67.598C217.022 69.074 214.933 69.128 213.333 68.724C215.133 69.294 216.429 71.288 216.01 73.129C215.591 74.969 213.336 76.212 211.629 75.408C212.849 75.708 213.529 77.181 213.222 78.399C212.915 79.617 211.843 80.53 210.663 80.958C209.482 81.387 208.196 81.405 206.941 81.371C202.133 81.242 197.344 80.419 192.769 78.936C192.088 78.715 191.387 78.466 190.875 77.966C190.326 77.43 190.057 76.666 189.932 75.909C189.557 73.639 190.315 71.341 191.206 69.22C191.967 67.411 192.833 65.647 193.799 63.939C194.321 63.016 194.886 62.094 195.687 61.399C196.771 60.459 198.011 60.744 199.236 60.212C200.464 59.679 201.587 58.899 202.513 57.929Z" fill="#2456A2"/>
<path d="M187.954 74.886C188.06 75.715 188.103 76.591 187.55 77.039C187.103 77.401 186.456 77.318 185.89 77.215C184.938 77.043 183.985 76.87 183.032 76.697C182.711 76.639 182.378 76.576 182.111 76.387C181.587 76.017 181.478 75.294 181.447 74.653C181.203 69.682 182.936 64.641 186.187 60.872C186.575 60.422 187.012 59.972 187.582 59.806C188.024 59.678 188.497 59.736 188.953 59.796C190.057 59.94 191.194 60.02 192.288 60.231C193.007 60.37 193.722 60.401 193.216 61.276C192.678 62.206 191.868 63.03 191.294 63.96C190.225 65.691 189.228 67.481 188.57 69.406C188.116 70.736 187.828 72.134 187.806 73.542C187.803 73.904 187.89 74.386 187.954 74.886Z" fill="#2456A2"/>
<path d="M312.307 261.174C312.307 261.174 322.223 268.788 316.676 283.253C312.326 294.597 307.932 296.498 287.573 298.734C265.647 301.142 199.309 308.533 199.309 308.533C199.309 308.533 180.364 310.006 162.677 289.334C144.991 268.661 10.3055 112.79 10.3055 112.79C10.3055 112.79 -1.47852 100.337 0.155479 91.249C1.78848 82.161 1.83948 73.885 18.1125 73.534C34.3855 73.182 113.374 72.643 113.374 72.643C113.374 72.643 127.45 69.919 146.518 89.382C165.588 108.845 312.307 261.174 312.307 261.174Z" fill="#34414C"/>
<path d="M316.676 283.253C312.326 294.597 307.932 296.498 287.573 298.734C265.647 301.142 199.309 308.533 199.309 308.533C199.309 308.533 180.364 310.006 162.677 289.334C144.991 268.661 10.3055 112.79 10.3055 112.79C10.3055 112.79 -1.47852 100.337 0.155479 91.249C1.49148 83.814 1.77448 76.927 10.7385 74.473C3.75748 81.442 13.0455 89.078 13.0455 89.078C13.0455 89.078 161.264 258.267 175.729 273.994C190.194 289.722 209.582 287.75 209.582 287.75C209.582 287.75 286.555 279.951 307.021 278.054C313.078 277.493 316.344 274.62 317.951 270.826C318.661 274.144 318.577 278.296 316.676 283.253Z" fill="#1B242B"/>
<path d="M236.399 261.017C235.072 265.102 239.46 270.189 246.2 272.378C252.94 274.568 259.48 273.032 260.807 268.947C262.134 264.862 257.746 259.775 251.006 257.586C244.266 255.395 237.726 256.932 236.399 261.017Z" fill="#1B242B"/>
<path d="M291.449 246.817L168.89 256.541L30.8394 100.462L146.369 97.1251L291.449 246.817Z" fill="#B9E5FA"/>
<path d="M88.9674 147.861L178.58 140.595C179.454 140.524 180.314 140.847 180.925 141.475L216.481 178.019C218.12 179.703 217.218 182.534 214.908 182.96L128.924 198.845C127.9 199.034 126.852 198.667 126.169 197.881L86.9844 152.718C85.4054 150.898 86.5654 148.055 88.9674 147.861Z" fill="white"/>
<path d="M87.2874 149.451L163.144 164.398L180.925 141.475" stroke="#B29CE5" stroke-miterlimit="10"/>
<g opacity="0.2">
<path d="M104.27 98.341L122.322 97.819L132.702 215.626L112.112 192.347L104.27 98.341Z" fill="white"/>
</g>
<g opacity="0.3">
<path d="M146.451 231.171L130.254 97.5901L146.369 97.1251L173.094 124.699L191.13 254.776L168.89 256.541L146.451 231.171Z" fill="white"/>
</g>
<path d="M57.6525 86.423C57.3595 87.325 58.6235 88.544 60.4765 89.146C62.3295 89.748 64.0685 89.5051 64.3615 88.6031C64.6545 87.7011 63.3906 86.482 61.5376 85.88C59.6846 85.278 57.9455 85.521 57.6525 86.423Z" fill="#1B242B"/>
<path d="M94.5084 85.0061C94.0024 86.5631 96.1844 88.668 99.3824 89.707C102.58 90.746 105.583 90.3261 106.088 88.7691C106.594 87.2121 104.411 85.1081 101.213 84.0691C98.0174 83.0301 95.0144 83.4491 94.5084 85.0061Z" fill="#1B242B"/>
<path d="M51.2775 89.775L32.4055 90.183C32.4055 90.183 28.8275 90.582 28.1095 88.787C27.3915 86.992 28.2385 86.486 30.8205 86.349C33.4025 86.212 48.3295 86.23 48.3295 86.23C48.3295 86.23 52.2435 85.598 53.3425 87.322C54.4425 89.046 53.2185 89.733 51.2775 89.775Z" fill="#1B242B"/>
<path d="M131.185 87.884L112.313 88.292C112.313 88.292 108.735 88.6911 108.017 86.8961C107.299 85.1011 108.146 84.595 110.729 84.458C113.311 84.321 128.238 84.339 128.238 84.339C128.238 84.339 132.152 83.7071 133.251 85.4311C134.35 87.1551 133.125 87.841 131.185 87.884Z" fill="#1B242B"/>
<path d="M26.2544 122.769L31.4444 128.677C32.7314 130.142 35.0224 130.11 36.2684 128.61C37.2654 127.409 37.2404 125.662 36.2114 124.49L31.0204 118.582C29.7334 117.117 27.4424 117.149 26.1964 118.649C25.2004 119.85 25.2244 121.597 26.2544 122.769Z" fill="#34414C"/>
<path d="M83.1014 109.97L100.902 107.31C100.902 107.31 126.887 112.546 133.48 86.367L69.6824 78.61C69.6824 78.61 72.0094 93.347 85.0014 99.941L83.1014 109.97Z" fill="#D1D3D4"/>
<path d="M231.963 242.892L243.332 238.155L293.865 242.03C290.395 238.429 286.525 234.412 282.352 230.081L239.542 229.438L231.963 242.892Z" fill="#D1D3D4"/>
<path d="M296.759 82.04L404.774 67.844C407.554 67.479 409.625 70.35 408.401 72.872L367.255 157.658C367.255 157.658 303.922 179.658 237.922 159.658C237.922 159.658 276.22 135.641 293.888 84.403C294.325 83.136 295.43 82.214 296.759 82.04Z" fill="white"/>
<path d="M303.756 123.982L303.309 124.653L299.982 124.923L300.43 124.252L303.756 123.982ZM297.991 129.322L301.9 123.461C302.097 123.166 302.344 122.913 302.641 122.703C302.938 122.493 303.252 122.328 303.583 122.208C303.914 122.088 304.227 122.016 304.521 121.992C304.754 121.973 304.934 121.973 305.06 121.993C305.187 122.012 305.277 122.032 305.332 122.053L304.602 122.759C304.563 122.75 304.507 122.738 304.435 122.725C304.365 122.712 304.262 122.711 304.126 122.722C303.812 122.747 303.542 122.832 303.315 122.975C303.09 123.118 302.893 123.317 302.723 123.571L298.939 129.245L297.991 129.322ZM303.911 128.942C303.316 128.99 302.876 128.923 302.591 128.739C302.31 128.552 302.185 128.271 302.216 127.894C302.251 127.515 302.445 127.061 302.797 126.534C303.149 126.006 303.574 125.532 304.073 125.111C304.575 124.687 305.11 124.346 305.675 124.086C306.245 123.824 306.809 123.671 307.366 123.625C307.687 123.599 307.975 123.618 308.228 123.682C308.482 123.746 308.67 123.868 308.793 124.049C308.918 124.227 308.947 124.474 308.88 124.79C308.814 125.106 308.62 125.505 308.3 125.985L308.076 126.32L303.32 126.707L303.776 126.023L307.568 125.715C307.762 125.424 307.865 125.171 307.878 124.954C307.894 124.737 307.818 124.573 307.652 124.462C307.488 124.35 307.235 124.308 306.892 124.336C306.514 124.367 306.135 124.472 305.755 124.651C305.379 124.827 305.034 125.045 304.722 125.305C304.409 125.566 304.158 125.838 303.968 126.121L303.664 126.577C303.405 126.966 303.265 127.29 303.246 127.547C303.23 127.802 303.32 127.988 303.515 128.105C303.712 128.22 304.002 128.262 304.385 128.231C304.634 128.211 304.878 128.164 305.118 128.089C305.362 128.012 305.597 127.909 305.823 127.778C306.051 127.646 306.265 127.487 306.464 127.301L307.237 127.441C306.968 127.709 306.653 127.95 306.295 128.165C305.937 128.378 305.555 128.553 305.147 128.69C304.741 128.824 304.328 128.908 303.911 128.942ZM310.495 128.407C309.9 128.456 309.461 128.388 309.175 128.204C308.895 128.017 308.77 127.736 308.8 127.359C308.836 126.98 309.029 126.526 309.381 125.999C309.733 125.471 310.158 124.997 310.657 124.576C311.16 124.152 311.694 123.811 312.26 123.551C312.83 123.289 313.393 123.136 313.95 123.091C314.271 123.064 314.559 123.083 314.813 123.147C315.066 123.211 315.255 123.333 315.378 123.514C315.502 123.692 315.531 123.939 315.464 124.255C315.398 124.571 315.204 124.97 314.884 125.45L314.66 125.786L309.904 126.172L310.36 125.488L314.152 125.18C314.346 124.889 314.449 124.636 314.462 124.419C314.478 124.202 314.402 124.038 314.236 123.927C314.072 123.815 313.819 123.774 313.476 123.801C313.098 123.832 312.719 123.937 312.339 124.116C311.963 124.292 311.619 124.51 311.306 124.771C310.993 125.031 310.742 125.303 310.553 125.586L310.248 126.042C309.989 126.431 309.849 126.755 309.83 127.012C309.814 127.267 309.904 127.453 310.099 127.57C310.296 127.686 310.586 127.728 310.969 127.696C311.218 127.676 311.462 127.629 311.702 127.554C311.946 127.478 312.181 127.374 312.407 127.243C312.635 127.111 312.849 126.952 313.048 126.766L313.821 126.907C313.552 127.174 313.238 127.415 312.879 127.63C312.521 127.843 312.139 128.018 311.731 128.155C311.325 128.289 310.913 128.373 310.495 128.407ZM316.822 127.893C316.308 127.935 315.926 127.863 315.677 127.679C315.43 127.492 315.327 127.208 315.37 126.828C315.415 126.446 315.619 125.982 315.983 125.437C316.344 124.896 316.768 124.418 317.256 124.002C317.743 123.586 318.258 123.253 318.799 123.004C319.34 122.755 319.87 122.61 320.39 122.567C320.791 122.535 321.071 122.565 321.23 122.658C321.392 122.748 321.488 122.859 321.518 122.989C321.551 123.118 321.573 123.224 321.583 123.308L321.663 123.301L323.354 120.766L324.302 120.689L319.722 127.556L318.806 127.631L319.334 126.839L319.221 126.848C319.089 126.948 318.911 127.074 318.687 127.228C318.464 127.379 318.197 127.52 317.884 127.652C317.572 127.78 317.218 127.861 316.822 127.893ZM317.425 127.172C317.805 127.141 318.181 127.032 318.554 126.845C318.929 126.656 319.282 126.409 319.616 126.103C319.951 125.794 320.248 125.446 320.507 125.057C320.764 124.672 320.921 124.341 320.98 124.064C321.04 123.784 320.992 123.574 320.837 123.435C320.683 123.293 320.414 123.238 320.028 123.269C319.626 123.302 319.234 123.415 318.851 123.609C318.473 123.8 318.119 124.048 317.79 124.352C317.465 124.653 317.182 124.984 316.94 125.347C316.695 125.713 316.54 126.041 316.474 126.329C316.413 126.616 316.455 126.836 316.603 126.991C316.754 127.144 317.028 127.204 317.425 127.172ZM321.718 127.394L326.299 120.527L327.247 120.45L325.556 122.985L325.636 122.978C325.765 122.883 325.938 122.761 326.154 122.613C326.373 122.462 326.636 122.322 326.942 122.194C327.253 122.063 327.609 121.981 328.01 121.948C328.53 121.906 328.915 121.977 329.167 122.162C329.419 122.346 329.523 122.629 329.48 123.009C329.437 123.388 329.235 123.849 328.874 124.39C328.51 124.935 328.084 125.417 327.595 125.835C327.107 126.251 326.593 126.585 326.053 126.836C325.515 127.084 324.989 127.23 324.475 127.271C324.078 127.304 323.798 127.275 323.632 127.184C323.468 127.092 323.369 126.981 323.335 126.85C323.301 126.718 323.281 126.607 323.274 126.519L323.162 126.528L322.634 127.319L321.718 127.394ZM324.368 124.743C324.108 125.132 323.948 125.47 323.886 125.756C323.826 126.04 323.871 126.255 324.022 126.401C324.174 126.545 324.44 126.602 324.82 126.571C325.217 126.539 325.606 126.425 325.987 126.229C326.373 126.031 326.732 125.777 327.064 125.469C327.4 125.158 327.691 124.82 327.935 124.453C328.177 124.091 328.327 123.77 328.387 123.491C328.451 123.208 328.406 122.993 328.252 122.845C328.101 122.695 327.825 122.636 327.424 122.668C327.038 122.7 326.659 122.807 326.288 122.992C325.918 123.174 325.57 123.416 325.242 123.718C324.916 124.017 324.624 124.359 324.368 124.743ZM330.351 126.807C329.96 126.838 329.646 126.806 329.409 126.709C329.174 126.609 329.041 126.45 329.01 126.231C328.981 126.009 329.078 125.73 329.302 125.395C329.498 125.1 329.728 124.855 329.989 124.661C330.252 124.464 330.535 124.303 330.838 124.179C331.141 124.055 331.451 123.956 331.766 123.882C332.086 123.805 332.399 123.74 332.707 123.685C333.109 123.614 333.433 123.559 333.679 123.52C333.93 123.479 334.126 123.428 334.267 123.368C334.411 123.308 334.526 123.214 334.611 123.086L334.629 123.06C334.849 122.729 334.912 122.48 334.818 122.315C334.726 122.149 334.461 122.084 334.025 122.119C333.572 122.156 333.162 122.268 332.795 122.454C332.427 122.64 332.129 122.831 331.899 123.028L331.178 122.833C331.548 122.507 331.924 122.245 332.308 122.049C332.697 121.851 333.073 121.704 333.438 121.609C333.807 121.511 334.147 121.45 334.458 121.424C334.656 121.408 334.87 121.41 335.101 121.429C335.335 121.446 335.532 121.505 335.693 121.606C335.856 121.707 335.937 121.873 335.935 122.104C335.933 122.334 335.796 122.654 335.523 123.063L333.26 126.456L332.312 126.533L332.777 125.836L332.729 125.84C332.59 125.957 332.403 126.085 332.168 126.225C331.933 126.364 331.661 126.489 331.352 126.598C331.044 126.708 330.71 126.778 330.351 126.807ZM330.97 126.084C331.345 126.054 331.702 125.967 332.041 125.823C332.383 125.679 332.684 125.504 332.945 125.299C333.209 125.094 333.412 124.884 333.555 124.669L334.038 123.945C333.971 123.988 333.858 124.032 333.699 124.077C333.544 124.119 333.37 124.16 333.177 124.199C332.988 124.235 332.805 124.269 332.627 124.3C332.453 124.329 332.312 124.354 332.202 124.373C331.938 124.42 331.679 124.482 331.424 124.56C331.174 124.635 330.943 124.737 330.733 124.867C330.527 124.993 330.357 125.157 330.223 125.358C330.039 125.633 330.023 125.831 330.172 125.952C330.326 126.071 330.592 126.115 330.97 126.084ZM337.425 126.219C336.847 126.266 336.425 126.193 336.159 125.999C335.893 125.805 335.781 125.517 335.823 125.135C335.865 124.753 336.058 124.305 336.401 123.791C336.749 123.268 337.172 122.797 337.67 122.378C338.171 121.957 338.705 121.616 339.27 121.357C339.84 121.095 340.404 120.941 340.961 120.896C341.395 120.861 341.741 120.896 342 121.002C342.258 121.108 342.418 121.272 342.479 121.496C342.541 121.719 342.491 121.99 342.33 122.307L341.382 122.384C341.466 122.155 341.444 121.96 341.315 121.8C341.191 121.636 340.92 121.572 340.503 121.606C340.133 121.636 339.755 121.742 339.369 121.926C338.988 122.107 338.622 122.349 338.273 122.652C337.928 122.953 337.626 123.298 337.366 123.687C337.101 124.085 336.945 124.425 336.898 124.708C336.854 124.991 336.915 125.203 337.082 125.343C337.252 125.484 337.524 125.539 337.899 125.508C338.146 125.488 338.393 125.434 338.642 125.347C338.89 125.259 339.129 125.142 339.358 124.997C339.586 124.851 339.793 124.682 339.977 124.49L340.925 124.413C340.669 124.721 340.354 125.006 339.979 125.266C339.61 125.525 339.204 125.74 338.763 125.911C338.326 126.079 337.88 126.182 337.425 126.219ZM343.445 123.853L344.082 122.875L344.275 122.859L348.504 120.347L349.677 120.251L345.182 122.913L345.102 122.919L343.445 123.853ZM341.309 125.802L345.889 118.935L346.838 118.858L342.257 125.725L341.309 125.802ZM345.23 125.484L344.519 123.131L345.561 122.527L346.435 125.386L345.23 125.484Z" fill="#1B242B"/>
<path d="M408.401 72.872C409.625 70.35 407.554 67.478 404.774 67.844L296.759 82.04C295.43 82.215 294.325 83.136 293.888 84.404C292.364 88.823 290.678 93.026 288.885 97.042L403.389 83.201L408.401 72.872Z" fill="#2456A2"/>
<path d="M382.873 77.533C382.944 78.621 382.328 79.547 381.497 79.602C380.666 79.656 379.935 78.818 379.863 77.73C379.792 76.642 380.408 75.716 381.239 75.661C382.07 75.607 382.802 76.445 382.873 77.533Z" fill="white"/>
<path d="M388.892 77.139C388.963 78.227 388.347 79.153 387.516 79.208C386.685 79.262 385.954 78.424 385.882 77.336C385.811 76.248 386.427 75.322 387.258 75.267C388.089 75.213 388.82 76.051 388.892 77.139Z" fill="white"/>
<path d="M394.91 76.746C394.981 77.834 394.365 78.76 393.534 78.815C392.703 78.869 391.972 78.031 391.9 76.943C391.829 75.855 392.445 74.928 393.276 74.874C394.108 74.819 394.839 75.657 394.91 76.746Z" fill="white"/>
<path d="M292.456 105.922C292.863 105.922 383.801 96.164 383.801 96.164" stroke="#2456A2" stroke-width="0.5669" stroke-miterlimit="10" stroke-linecap="round" stroke-linejoin="round"/>
<path d="M289.746 114.46L379.736 105.109" stroke="#2456A2" stroke-width="0.5669" stroke-miterlimit="10" stroke-linecap="round" stroke-linejoin="round"/>
<path d="M285.545 123.812L372.688 115.409" stroke="#2456A2" stroke-width="0.5669" stroke-miterlimit="10" stroke-linecap="round" stroke-linejoin="round"/>
<path d="M278.633 133.705C278.633 133.705 349.243 127.877 368.081 125.573" stroke="#2456A2" stroke-width="0.5669" stroke-miterlimit="10" stroke-linecap="round" stroke-linejoin="round"/>
<path d="M271.45 142.65C271.857 142.65 314.277 143.057 362.795 136.009" stroke="#2456A2" stroke-width="0.5669" stroke-miterlimit="10" stroke-linecap="round" stroke-linejoin="round"/>
<path d="M263.047 150.51C263.047 150.51 294.76 157.015 355.747 147.122" stroke="#2456A2" stroke-width="0.5669" stroke-miterlimit="10" stroke-linecap="round" stroke-linejoin="round"/>
<path d="M293.342 99.54L275.56 112.209L213.968 25.758C210.484 20.868 211.635 14.017 216.525 10.533C221.415 7.04901 228.267 8.19902 231.75 13.09L293.342 99.54Z" fill="#FBCE67"/>
<path d="M224.201 13.8965L217.488 18.6799L285.549 114.197L292.262 109.413L224.201 13.8965Z" fill="#E5B553"/>
<path d="M216.525 10.533C211.635 14.017 210.485 20.868 213.968 25.758L215.476 27.875C219.504 25.412 228.542 19.804 233.77 15.925L231.75 13.09C228.266 8.19902 221.415 7.04901 216.525 10.533Z" fill="#EA4E4E"/>
<path d="M213.968 25.758L215.476 27.875C216.743 27.1 218.507 26.014 220.49 24.768C217.59 18.914 216.452 14.308 216.249 10.75C211.601 14.294 210.553 20.964 213.968 25.758Z" fill="#C64646"/>
<path d="M275.56 112.208L294.171 122.603C295.338 123.233 296.724 122.261 296.529 120.95L293.342 99.54C293.342 99.54 280.28 99.844 275.56 112.208Z" fill="#FFE8BB"/>
<path d="M296.529 120.95L295.42 113.502C291.062 114.504 288.62 116.887 287.322 118.778L294.17 122.603C295.337 123.233 296.723 122.262 296.529 120.95Z" fill="#23201A"/>
<path d="M214.499 26.503L222.521 37.763C226.259 35.77 234.276 31.144 240.356 25.169L232.32 13.889C229.789 16.492 224.116 21.576 214.499 26.503Z" fill="#23201A"/>
<path d="M216.395 28.348C216.395 28.348 226.457 24.297 233.492 16.167" stroke="#FBCE67" stroke-width="0.2634" stroke-miterlimit="10" stroke-linecap="round" stroke-linejoin="round"/>
<path d="M218.434 31.211C218.434 31.211 228.495 27.16 235.532 19.03" stroke="#FBCE67" stroke-width="0.2634" stroke-miterlimit="10" stroke-linecap="round" stroke-linejoin="round"/>
<path d="M220.474 34.074C220.474 34.074 230.536 30.023 237.571 21.893" stroke="#FBCE67" stroke-width="0.2634" stroke-miterlimit="10" stroke-linecap="round" stroke-linejoin="round"/>
<path d="M152.41 7.38904L133.861 31.252L141.712 34.72L129.805 66.64L152.358 31.563L143.921 28.992L152.41 7.38904Z" fill="#FBB040"/>
<path d="M219.694 87.77L200.037 94.568L203.263 99.516L184.412 113.455L210.588 101.692L206.688 97.041L219.694 87.77Z" fill="#FBB040"/>
<path d="M286.614 177.277L266.96 170.471L266.437 176.355L243.003 175.661L270.851 182.593L270.659 176.526L286.614 177.277Z" fill="#FBB040"/>
<path d="M324.562 268.926L300.453 250.699L297.09 258.595L265.013 247.119L300.39 269.198L302.848 260.727L324.562 268.926Z" fill="#FBB040"/>
<path d="M382.138 232.375H232.124C225.745 232.375 220.526 227.156 220.526 220.777V200.534C220.526 194.155 225.745 188.936 232.124 188.936H382.138C388.517 188.936 393.736 194.155 393.736 200.534V220.777C393.736 227.156 388.517 232.375 382.138 232.375Z" fill="#3C8CF8"/>
<path d="M231.784 228.035V243.695L243.413 228.965L231.784 228.035Z" fill="#3C8CF8"/>
<path d="M244.848 199.165L248.01 205.572L255.08 206.6L249.964 211.587L251.172 218.629L244.848 215.304L238.524 218.629L239.732 211.587L234.615 206.6L241.686 205.572L244.848 199.165Z" fill="#FBB040"/>
<path d="M275.924 199.165L279.086 205.572L286.157 206.6L281.041 211.587L282.248 218.629L275.924 215.304L269.6 218.629L270.808 211.587L265.692 206.6L272.762 205.572L275.924 199.165Z" fill="#FBB040"/>
<path d="M307.002 199.165L310.164 205.572L317.234 206.6L312.118 211.587L313.326 218.629L307.002 215.304L300.678 218.629L301.886 211.587L296.769 206.6L303.84 205.572L307.002 199.165Z" fill="#FBB040"/>
<path d="M338.077 199.165L341.239 205.572L348.31 206.6L343.194 211.587L344.401 218.629L338.077 215.304L331.753 218.629L332.961 211.587L327.845 206.6L334.915 205.572L338.077 199.165Z" fill="#FBB040"/>
<path d="M369.154 199.165L372.316 205.572L379.386 206.6L374.27 211.587L375.478 218.629L369.154 215.304L362.83 218.629L364.038 211.587L358.921 206.6L365.992 205.572L369.154 199.165Z" fill="white"/>
<path d="M141.446 101.866L142.942 104.411C143.061 104.613 143.271 104.744 143.505 104.76L146.45 104.97C147.039 105.012 147.324 105.711 146.932 106.152L144.974 108.362C144.819 108.537 144.759 108.778 144.816 109.005L145.526 111.871C145.668 112.444 145.091 112.931 144.55 112.695L141.844 111.516C141.629 111.422 141.382 111.44 141.183 111.565L138.677 113.126C138.176 113.438 137.535 113.04 137.592 112.453L137.877 109.515C137.9 109.282 137.806 109.052 137.627 108.901L135.368 107C134.916 106.62 135.097 105.887 135.673 105.76L138.556 105.123C138.785 105.072 138.974 104.913 139.062 104.695L140.172 101.959C140.394 101.413 141.147 101.358 141.446 101.866Z" fill="#FBB040"/>
<path d="M341.037 273.68L341.562 275.131C341.604 275.246 341.699 275.333 341.818 275.364L343.31 275.754C343.608 275.832 343.688 276.218 343.444 276.408L342.227 277.355C342.13 277.43 342.077 277.548 342.084 277.67L342.174 279.21C342.192 279.518 341.849 279.713 341.594 279.54L340.317 278.675C340.216 278.606 340.087 278.592 339.973 278.637L338.537 279.199C338.25 279.311 337.958 279.045 338.044 278.749L338.472 277.267C338.506 277.149 338.48 277.023 338.402 276.928L337.424 275.735C337.228 275.497 337.391 275.137 337.699 275.127L339.241 275.076C339.363 275.072 339.476 275.008 339.542 274.905L340.374 273.606C340.54 273.347 340.932 273.39 341.037 273.68Z" fill="#FBB040"/>
<path d="M262.88 27.289L264.376 29.834C264.495 30.036 264.705 30.167 264.939 30.183L267.884 30.393C268.473 30.435 268.758 31.134 268.366 31.575L266.408 33.785C266.253 33.96 266.193 34.201 266.25 34.429L266.96 37.294C267.102 37.867 266.526 38.354 265.984 38.118L263.278 36.939C263.063 36.845 262.816 36.863 262.617 36.987L260.111 38.548C259.61 38.86 258.969 38.462 259.026 37.875L259.311 34.937C259.334 34.704 259.24 34.474 259.061 34.323L256.802 32.422C256.35 32.042 256.53 31.309 257.107 31.182L259.99 30.545C260.219 30.495 260.408 30.335 260.496 30.117L261.605 27.381C261.828 26.836 262.58 26.78 262.88 27.289Z" fill="#FBB040"/>
<path d="M260.058 109.162L261.555 111.707C261.674 111.909 261.884 112.04 262.118 112.056L265.063 112.266C265.652 112.308 265.937 113.007 265.545 113.449L263.587 115.659C263.432 115.834 263.372 116.075 263.429 116.303L264.139 119.168C264.281 119.741 263.705 120.228 263.163 119.992L260.456 118.813C260.241 118.719 259.994 118.737 259.795 118.861L257.289 120.422C256.788 120.734 256.147 120.336 256.204 119.749L256.489 116.811C256.512 116.578 256.418 116.348 256.239 116.197L253.98 114.296C253.528 113.916 253.709 113.183 254.285 113.056L257.168 112.419C257.397 112.368 257.586 112.209 257.674 111.991L258.784 109.255C259.006 108.709 259.759 108.653 260.058 109.162Z" fill="white"/>
<path d="M119.946 16.367L121.442 18.912C121.561 19.114 121.771 19.245 122.005 19.261L124.95 19.471C125.539 19.513 125.824 20.212 125.432 20.654L123.474 22.864C123.319 23.039 123.259 23.28 123.316 23.507L124.026 26.373C124.168 26.946 123.591 27.433 123.05 27.197L120.344 26.018C120.129 25.924 119.882 25.942 119.683 26.067L117.177 27.628C116.676 27.94 116.035 27.542 116.092 26.955L116.377 24.017C116.4 23.784 116.306 23.554 116.127 23.403L113.868 21.502C113.416 21.122 113.597 20.389 114.173 20.262L117.056 19.625C117.285 19.574 117.474 19.415 117.562 19.197L118.672 16.461C118.894 15.913 119.647 15.858 119.946 16.367Z" fill="white"/>
<path d="M383.167 162.722L384.172 165.498C384.252 165.718 384.435 165.885 384.662 165.945L387.518 166.691C388.089 166.84 388.241 167.579 387.775 167.942L385.445 169.755C385.26 169.899 385.158 170.125 385.172 170.359L385.345 173.306C385.38 173.895 384.723 174.268 384.235 173.937L381.791 172.282C381.597 172.15 381.351 172.123 381.132 172.208L378.383 173.283C377.833 173.498 377.276 172.989 377.439 172.422L378.258 169.586C378.323 169.361 378.273 169.118 378.125 168.937L376.253 166.654C375.879 166.198 376.19 165.51 376.78 165.491L379.731 165.393C379.965 165.385 380.181 165.263 380.307 165.065L381.899 162.579C382.216 162.083 382.966 162.167 383.167 162.722Z" fill="#FBB040"/>
<path d="M331.123 237.172L332.128 239.948C332.208 240.168 332.391 240.335 332.618 240.395L335.474 241.141C336.045 241.29 336.197 242.029 335.731 242.392L333.401 244.205C333.216 244.349 333.114 244.575 333.128 244.809L333.301 247.756C333.336 248.345 332.68 248.718 332.191 248.387L329.747 246.732C329.553 246.601 329.307 246.573 329.088 246.658L326.339 247.733C325.789 247.948 325.232 247.439 325.396 246.872L326.215 244.036C326.28 243.811 326.23 243.568 326.082 243.387L324.21 241.104C323.836 240.648 324.147 239.96 324.737 239.941L327.688 239.843C327.922 239.835 328.138 239.713 328.264 239.515L329.856 237.029C330.172 236.533 330.922 236.617 331.123 237.172Z" fill="#FBB040"/>
<path d="M374.032 50.024L375.037 52.8C375.117 53.02 375.3 53.187 375.527 53.247L378.383 53.993C378.954 54.142 379.106 54.881 378.64 55.244L376.31 57.057C376.125 57.201 376.023 57.427 376.037 57.661L376.21 60.608C376.245 61.197 375.589 61.57 375.1 61.239L372.656 59.584C372.462 59.453 372.216 59.425 371.997 59.51L369.248 60.585C368.698 60.8 368.141 60.291 368.305 59.724L369.124 56.888C369.189 56.663 369.139 56.42 368.991 56.239L367.119 53.956C366.745 53.5 367.056 52.812 367.646 52.793L370.597 52.695C370.831 52.687 371.047 52.565 371.173 52.367L372.765 49.881C373.081 49.386 373.831 49.469 374.032 50.024Z" fill="white"/>
<path d="M244.994 0.470034L245.999 3.24603C246.079 3.46603 246.262 3.63303 246.489 3.69303L249.345 4.43904C249.916 4.58804 250.068 5.32703 249.602 5.69003L247.272 7.50303C247.087 7.64703 246.985 7.87303 246.999 8.10703L247.172 11.054C247.207 11.643 246.551 12.016 246.062 11.685L243.618 10.03C243.424 9.89903 243.178 9.87103 242.959 9.95703L240.21 11.032C239.66 11.247 239.103 10.738 239.267 10.171L240.086 7.33503C240.151 7.11003 240.101 6.86703 239.953 6.68603L238.081 4.40303C237.707 3.94703 238.018 3.25903 238.608 3.24003L241.559 3.14203C241.793 3.13403 242.009 3.01204 242.135 2.81404L243.727 0.328036C244.043 -0.168965 244.793 -0.0849662 244.994 0.470034Z" fill="white"/>
<path d="M289.147 73.011L290.015 74.422C290.084 74.534 290.204 74.605 290.335 74.612L291.99 74.697C292.321 74.714 292.489 75.103 292.274 75.355L291.2 76.617C291.115 76.717 291.084 76.853 291.118 76.98L291.549 78.58C291.635 78.9 291.317 79.18 291.011 79.053L289.479 78.421C289.357 78.371 289.219 78.384 289.109 78.456L287.72 79.36C287.442 79.541 287.078 79.325 287.103 78.994L287.23 77.342C287.24 77.211 287.185 77.083 287.083 77L285.794 75.958C285.536 75.75 285.629 75.336 285.951 75.259L287.562 74.869C287.69 74.838 287.794 74.746 287.841 74.623L288.433 73.075C288.552 72.768 288.974 72.728 289.147 73.011Z" fill="white"/>
<path d="M200.882 13.898L201.75 15.31C201.819 15.422 201.939 15.493 202.07 15.5L203.725 15.585C204.056 15.602 204.224 15.991 204.009 16.243L202.935 17.505C202.85 17.605 202.819 17.741 202.853 17.868L203.284 19.468C203.37 19.788 203.052 20.068 202.746 19.941L201.214 19.309C201.092 19.259 200.954 19.272 200.844 19.344L199.455 20.248C199.177 20.429 198.813 20.213 198.838 19.882L198.965 18.23C198.975 18.099 198.92 17.971 198.818 17.888L197.529 16.846C197.271 16.638 197.364 16.224 197.686 16.146L199.297 15.756C199.425 15.725 199.529 15.633 199.576 15.51L200.168 13.962C200.286 13.655 200.708 13.616 200.882 13.898Z" fill="white"/>
<path d="M105.307 13.163L105.832 14.613C105.874 14.728 105.969 14.815 106.088 14.846L107.58 15.236C107.878 15.314 107.958 15.7 107.714 15.89L106.497 16.837C106.4 16.912 106.347 17.03 106.354 17.152L106.444 18.692C106.462 19 106.119 19.195 105.864 19.022L104.587 18.157C104.486 18.088 104.357 18.074 104.243 18.119L102.806 18.681C102.519 18.793 102.227 18.527 102.313 18.231L102.741 16.749C102.775 16.631 102.749 16.505 102.671 16.41L101.693 15.217C101.497 14.978 101.66 14.619 101.968 14.609L103.51 14.558C103.632 14.554 103.745 14.49 103.811 14.387L104.643 13.088C104.81 12.83 105.202 12.873 105.307 13.163Z" fill="#FBB040"/>
<path d="M389.388 59.774L389.913 61.224C389.955 61.339 390.05 61.426 390.169 61.457L391.661 61.847C391.959 61.925 392.039 62.311 391.796 62.501L390.579 63.448C390.482 63.523 390.429 63.641 390.436 63.763L390.526 65.303C390.544 65.611 390.201 65.806 389.946 65.633L388.669 64.768C388.568 64.699 388.439 64.685 388.325 64.73L386.888 65.292C386.601 65.404 386.31 65.139 386.395 64.842L386.823 63.36C386.857 63.242 386.831 63.116 386.753 63.021L385.775 61.828C385.579 61.59 385.742 61.23 386.05 61.22L387.592 61.169C387.714 61.165 387.827 61.101 387.893 60.998L388.725 59.699C388.891 59.441 389.283 59.484 389.388 59.774Z" fill="#FBB040"/>
<path d="M257.583 97.933L258.107 99.383C258.149 99.498 258.245 99.585 258.364 99.616L259.856 100.006C260.154 100.084 260.234 100.47 259.991 100.66L258.774 101.607C258.677 101.682 258.624 101.8 258.631 101.922L258.721 103.462C258.739 103.77 258.396 103.965 258.141 103.792L256.864 102.927C256.763 102.858 256.634 102.844 256.52 102.889L255.084 103.451C254.797 103.563 254.505 103.298 254.59 103.001L255.019 101.519C255.053 101.401 255.027 101.274 254.949 101.18L253.971 99.987C253.775 99.749 253.937 99.389 254.245 99.379L255.788 99.328C255.91 99.324 256.023 99.26 256.089 99.157L256.921 97.858C257.087 97.6 257.479 97.644 257.583 97.933Z" fill="#FBB040"/>
<path d="M378.085 148.256L378.61 149.706C378.652 149.821 378.747 149.908 378.866 149.939L380.358 150.329C380.656 150.407 380.736 150.793 380.492 150.983L379.275 151.931C379.178 152.006 379.125 152.124 379.132 152.246L379.222 153.786C379.24 154.094 378.897 154.289 378.642 154.116L377.365 153.251C377.264 153.182 377.135 153.168 377.021 153.213L375.585 153.775C375.298 153.887 375.006 153.622 375.092 153.325L375.52 151.843C375.554 151.725 375.528 151.598 375.45 151.504L374.472 150.311C374.276 150.073 374.439 149.713 374.747 149.703L376.289 149.652C376.411 149.648 376.524 149.584 376.59 149.481L377.422 148.182C377.588 147.922 377.98 147.966 378.085 148.256Z" fill="#FBB040"/>
<path d="M355.346 178.518L355.871 179.968C355.913 180.083 356.008 180.17 356.127 180.201L357.619 180.591C357.917 180.669 357.997 181.055 357.753 181.245L356.536 182.193C356.439 182.268 356.386 182.386 356.393 182.508L356.483 184.048C356.501 184.356 356.158 184.551 355.903 184.378L354.626 183.513C354.525 183.444 354.396 183.43 354.282 183.474L352.845 184.036C352.558 184.148 352.267 183.883 352.352 183.586L352.78 182.104C352.814 181.986 352.788 181.859 352.71 181.765L351.732 180.572C351.536 180.334 351.699 179.974 352.007 179.964L353.549 179.913C353.671 179.909 353.784 179.845 353.85 179.742L354.682 178.443C354.849 178.184 355.241 178.228 355.346 178.518Z" fill="white"/>
<path d="M112.901 231.786L113.993 255.114L56.4014 272.786L110.528 231.452L112.901 231.786Z" fill="#DAC7FF"/>
<path d="M56.5383 272.786L110.665 231.452L84.2353 228.713L56.5383 272.786Z" fill="white"/>
<path d="M56.5383 272.786L113.038 231.786L158.538 237.286L56.5383 272.786Z" fill="white"/>
<path d="M117.861 227.584C118.22 227.276 118.575 226.964 118.927 226.648" stroke="#383838" stroke-linecap="round" stroke-linejoin="round"/>
<path d="M120.986 224.707C130.597 215.217 137.047 202.547 138.976 189.172C139.344 186.619 139.542 183.947 138.667 181.521C136.693 176.051 129.231 173.804 124.113 176.566C118.995 179.328 116.648 185.921 117.949 191.589C119.25 197.257 123.655 201.881 128.863 204.468C134.071 207.055 140.014 207.813 145.829 207.78C157.577 207.715 169.537 204.397 178.719 197.068C187.161 190.329 192.955 179.975 193.234 169.238" stroke="#383838" stroke-linecap="round" stroke-linejoin="round" stroke-dasharray="2.83 2.83"/>
<path d="M193.24 167.826C193.231 167.355 193.211 166.883 193.18 166.41" stroke="#383838" stroke-linecap="round" stroke-linejoin="round"/>
<path d="M103.822 102.379C123.704 102.379 139.822 86.2613 139.822 66.379C139.822 46.4968 123.704 30.379 103.822 30.379C83.9393 30.379 67.8215 46.4968 67.8215 66.379C67.8215 86.2613 83.9393 102.379 103.822 102.379Z" fill="#EA4E4E"/>
<path d="M89.5556 93.404L83.1016 109.97L109.565 98.137L89.5556 93.404Z" fill="#EA4E4E"/>
<path d="M118.495 57.654C114.163 50.308 104.193 56.677 104.15 56.715C104.106 56.677 94.1365 50.307 89.8035 57.654C83.8535 67.743 104.059 79.875 104.148 79.928V79.93L104.15 79.929L104.152 79.93V79.928C104.24 79.875 124.444 67.743 118.495 57.654Z" fill="white"/>
</svg>
