<svg width="409" height="309" fill="none" xmlns="http://www.w3.org/2000/svg"><path d="M205.202 58.166l-6.017-1.175-19.643 100.571 6.017 1.175 19.643-100.571z" fill="#F8FAFB"/><path d="M198.356 61.177l-9.8 50.175a19.873 19.873 0 016.079.854l9.538-48.835-5.817-2.194z" fill="#A7A9AC"/><path d="M236.502 108.889l-85.426-16.685c-4.164-.813-6.905-4.885-6.092-9.049l10.194-52.19c.813-4.164 4.885-6.905 9.049-6.092l85.426 16.685c4.164.813 6.905 4.885 6.092 9.049l-10.194 52.19c-.813 4.164-4.885 6.906-9.049 6.092z" fill="#F8FAFB"/><path d="M202.513 57.929a10.098 10.098 0 002.508-4.647c.288-1.233.56-3.068 2.003-3.472 1.134-.318 2.315.626 2.678 1.747s.126 2.339-.14 3.486a75.104 75.104 0 01-1.641 5.949l5.826 1.86c1.129.361 2.297.743 3.172 1.543.875.8 1.373 2.143.842 3.203-.739 1.476-2.828 1.53-4.428 1.126 1.8.57 3.096 2.564 2.677 4.405-.419 1.84-2.674 3.083-4.381 2.279 1.22.3 1.9 1.773 1.593 2.991-.307 1.218-1.379 2.131-2.559 2.559-1.181.429-2.467.447-3.722.413a50.425 50.425 0 01-14.172-2.435c-.681-.221-1.382-.47-1.894-.97-.549-.536-.818-1.3-.943-2.057-.375-2.27.383-4.568 1.274-6.689a50.529 50.529 0 012.593-5.281c.522-.923 1.087-1.845 1.888-2.54 1.084-.94 2.324-.655 3.549-1.187a10.109 10.109 0 003.277-2.283zm-14.559 16.957c.106.829.149 1.705-.404 2.153-.447.362-1.094.279-1.66.176l-2.858-.518c-.321-.058-.654-.121-.921-.31-.524-.37-.633-1.093-.664-1.734-.244-4.971 1.489-10.012 4.74-13.781.388-.45.825-.9 1.395-1.066.442-.128.915-.07 1.371-.01 1.104.144 2.241.224 3.335.435.719.139 1.434.17.928 1.045-.538.93-1.348 1.754-1.922 2.684-1.069 1.731-2.066 3.521-2.724 5.446-.454 1.33-.742 2.728-.764 4.136-.003.362.084.844.148 1.344z" fill="#2456A2"/><path d="M312.307 261.174s9.916 7.614 4.369 22.079c-4.35 11.344-8.744 13.245-29.103 15.481-21.926 2.408-88.264 9.799-88.264 9.799s-18.945 1.473-36.632-19.199C144.991 268.661 10.306 112.79 10.306 112.79S-1.48 100.337.155 91.249c1.632-9.088 1.683-17.364 17.957-17.715 16.273-.352 95.261-.891 95.261-.891s14.076-2.724 33.144 16.739c19.07 19.463 165.789 171.792 165.789 171.792z" fill="#34414C"/><path d="M316.676 283.253c-4.35 11.344-8.744 13.245-29.103 15.481-21.926 2.408-88.264 9.799-88.264 9.799s-18.945 1.473-36.632-19.199C144.991 268.661 10.306 112.79 10.306 112.79S-1.48 100.337.155 91.249c1.335-7.435 1.618-14.322 10.582-16.776-6.98 6.969 2.308 14.605 2.308 14.605s148.218 169.189 162.683 184.916c14.465 15.728 33.853 13.756 33.853 13.756s76.973-7.799 97.439-9.696c6.057-.561 9.323-3.434 10.93-7.228.71 3.318.626 7.47-1.275 12.427z" fill="#1B242B"/><path d="M236.399 261.017c-1.327 4.085 3.061 9.172 9.801 11.361 6.74 2.19 13.28.654 14.607-3.431s-3.061-9.172-9.801-11.361c-6.74-2.191-13.28-.654-14.607 3.431z" fill="#1B242B"/><path d="M291.449 246.817l-122.559 9.724L30.84 100.462l115.529-3.337 145.08 149.692z" fill="#B9E5FA"/><path d="M88.967 147.861l89.613-7.266a2.94 2.94 0 012.345.88l35.556 36.544c1.639 1.684.737 4.515-1.573 4.941l-85.984 15.885a2.943 2.943 0 01-2.755-.964l-39.185-45.163c-1.579-1.82-.419-4.663 1.983-4.857z" fill="#fff"/><path d="M87.287 149.451l75.857 14.947 17.781-22.923" stroke="#B29CE5" stroke-miterlimit="10"/><path d="M104.27 98.341l18.052-.522 10.38 117.807-20.59-23.279-7.842-94.006z" fill="#fff" opacity=".2"/><path d="M146.451 231.171l-16.197-133.58 16.115-.466 26.725 27.574 18.036 130.077-22.24 1.765-22.439-25.37z" fill="#fff" opacity=".3"/><path d="M57.653 86.423c-.294.902.97 2.121 2.824 2.723 1.853.602 3.592.36 3.885-.543.293-.902-.971-2.121-2.824-2.723-1.853-.602-3.592-.359-3.885.543zm36.855-1.417c-.506 1.557 1.676 3.662 4.874 4.701 3.198 1.039 6.201.62 6.706-.938.506-1.557-1.677-3.66-4.875-4.7-3.196-1.039-6.199-.62-6.705.937zm-43.23 4.769l-18.872.408s-3.578.399-4.296-1.396c-.718-1.795.128-2.301 2.71-2.438 2.583-.137 17.51-.119 17.51-.119s3.913-.632 5.013 1.092c1.1 1.724-.125 2.411-2.066 2.453zm79.907-1.891l-18.872.408s-3.578.4-4.296-1.396c-.718-1.795.129-2.301 2.712-2.438 2.582-.137 17.509-.119 17.509-.119s3.914-.632 5.013 1.092c1.099 1.724-.126 2.41-2.066 2.453z" fill="#1B242B"/><path d="M26.254 122.769l5.19 5.908a3.172 3.172 0 004.767-4.187l-5.19-5.908a3.172 3.172 0 10-4.767 4.187z" fill="#34414C"/><path d="M83.101 109.97l17.801-2.66s25.985 5.236 32.578-20.943L69.682 78.61s2.327 14.737 15.32 21.331l-1.9 10.029zm148.862 132.922l11.369-4.737 50.533 3.875-11.513-11.949-42.81-.643-7.579 13.454z" fill="#D1D3D4"/><path d="M296.759 82.04l108.015-14.196c2.78-.365 4.851 2.506 3.627 5.028l-41.146 84.786s-63.333 22-129.333 2c0 0 38.298-24.017 55.966-75.255a3.531 3.531 0 012.871-2.363z" fill="#fff"/><path d="M303.756 123.982l-.447.671-3.327.27.448-.671 3.326-.27zm-5.765 5.34l3.909-5.861c.197-.295.444-.548.741-.758a3.97 3.97 0 011.88-.711c.233-.019.413-.019.539.001.127.019.217.039.272.06l-.73.706a1.264 1.264 0 00-.476-.037 1.76 1.76 0 00-.811.253 2.026 2.026 0 00-.592.596l-3.784 5.674-.948.077zm5.92-.38c-.595.048-1.035-.019-1.32-.203-.281-.187-.406-.468-.375-.845.035-.379.229-.833.581-1.36a6.766 6.766 0 011.276-1.423 7.037 7.037 0 011.602-1.025 5.03 5.03 0 011.691-.461c.321-.026.609-.007.862.057.254.064.442.186.565.367.125.178.154.425.087.741-.066.316-.26.715-.58 1.195l-.224.335-4.756.387.456-.684 3.792-.308c.194-.291.297-.544.31-.761.016-.217-.06-.381-.226-.492-.164-.112-.417-.154-.76-.126a3.29 3.29 0 00-1.137.315 4.756 4.756 0 00-1.033.654 3.92 3.92 0 00-.754.816l-.304.456c-.259.389-.399.713-.418.97-.016.255.074.441.269.558.197.115.487.157.87.126a3.346 3.346 0 001.438-.453 3.52 3.52 0 00.641-.477l.773.14a4.903 4.903 0 01-.942.724c-.358.213-.74.388-1.148.525a5.313 5.313 0 01-1.236.252zm6.584-.535c-.595.049-1.034-.019-1.32-.203-.28-.187-.405-.468-.375-.845.036-.379.229-.833.581-1.36a6.766 6.766 0 011.276-1.423 7.043 7.043 0 011.603-1.025 4.999 4.999 0 011.69-.46 2.63 2.63 0 01.863.056c.253.064.442.186.565.367.124.178.153.425.086.741-.066.316-.26.715-.58 1.195l-.224.336-4.756.386.456-.684 3.792-.308c.194-.291.297-.544.31-.761.016-.217-.06-.381-.226-.492-.164-.112-.417-.153-.76-.126a3.29 3.29 0 00-1.137.315c-.376.176-.72.394-1.033.655a3.86 3.86 0 00-.753.815l-.305.456c-.259.389-.399.713-.418.97-.016.255.074.441.269.558.197.116.487.158.87.126a3.346 3.346 0 001.438-.453 3.52 3.52 0 00.641-.477l.773.141a4.909 4.909 0 01-.942.723c-.358.213-.74.388-1.148.525a5.303 5.303 0 01-1.236.252zm6.327-.514c-.514.042-.896-.03-1.145-.214-.247-.187-.35-.471-.307-.851.045-.382.249-.846.613-1.391a6.926 6.926 0 011.273-1.435 6.668 6.668 0 011.543-.998 4.73 4.73 0 011.591-.437c.401-.032.681-.002.84.091.162.09.258.201.288.331.033.129.055.235.065.319l.08-.007 1.691-2.535.948-.077-4.58 6.867-.916.075.528-.792-.113.009c-.132.1-.31.226-.534.38-.223.151-.49.292-.803.424a3.538 3.538 0 01-1.062.241zm.603-.721a3.06 3.06 0 001.129-.327 4.707 4.707 0 001.062-.742c.335-.309.632-.657.891-1.046.257-.385.414-.716.473-.993.06-.28.012-.49-.143-.629-.154-.142-.423-.197-.809-.166a3.157 3.157 0 00-1.177.34 4.656 4.656 0 00-1.061.743 5.541 5.541 0 00-.85.995c-.245.366-.4.694-.466.982-.061.287-.019.507.129.662.151.153.425.213.822.181zm4.293.222l4.581-6.867.948-.077-1.691 2.535.08-.007c.129-.095.302-.217.518-.365a4.34 4.34 0 01.788-.419 3.475 3.475 0 011.068-.246c.52-.042.905.029 1.157.214.252.184.356.467.313.847-.043.379-.245.84-.606 1.381a7.016 7.016 0 01-2.821 2.446 4.654 4.654 0 01-1.578.435c-.397.033-.677.004-.843-.087-.164-.092-.263-.203-.297-.334a2.013 2.013 0 01-.061-.331l-.112.009-.528.791-.916.075zm2.65-2.651c-.26.389-.42.727-.482 1.013-.06.284-.015.499.136.645.152.144.418.201.798.17a3.074 3.074 0 001.167-.342 4.808 4.808 0 001.077-.76c.336-.311.627-.649.871-1.016.242-.362.392-.683.452-.962.064-.283.019-.498-.135-.646-.151-.15-.427-.209-.828-.177a3.103 3.103 0 00-1.136.324c-.37.182-.718.424-1.046.726a5.599 5.599 0 00-.874 1.025zm5.983 2.064c-.391.031-.705-.001-.942-.098-.235-.1-.368-.259-.399-.478-.029-.222.068-.501.292-.836.196-.295.426-.54.687-.734.263-.197.546-.358.849-.482.303-.124.613-.223.928-.297.32-.077.633-.142.941-.197.402-.071.726-.126.972-.165.251-.041.447-.092.588-.152a.75.75 0 00.344-.282l.018-.026c.22-.331.283-.58.189-.745-.092-.166-.357-.231-.793-.196a3.285 3.285 0 00-1.23.335 4.498 4.498 0 00-.896.574l-.721-.195a5.508 5.508 0 012.26-1.224 5.918 5.918 0 011.02-.185c.198-.016.412-.014.643.005.234.017.431.076.592.177.163.101.244.267.242.498-.002.23-.139.55-.412.959l-2.263 3.393-.948.077.465-.697-.048.004a4.624 4.624 0 01-1.377.758 3.9 3.9 0 01-1.001.209zm.619-.723c.375-.03.732-.117 1.071-.261.342-.144.643-.319.904-.524.264-.205.467-.415.61-.63l.483-.724c-.067.043-.18.087-.339.132a8.26 8.26 0 01-.522.122c-.189.036-.372.07-.55.101l-.425.073a6.625 6.625 0 00-.778.187c-.25.075-.481.177-.691.307-.206.126-.376.29-.51.491-.184.275-.2.473-.051.594.154.119.42.163.798.132zm6.455.135c-.578.047-1-.026-1.266-.22s-.378-.482-.336-.864c.042-.382.235-.83.578-1.344a6.673 6.673 0 011.269-1.413 7.054 7.054 0 011.6-1.021 5.007 5.007 0 011.691-.461c.434-.035.78 0 1.039.106.258.106.418.27.479.494.062.223.012.494-.149.811l-.948.077c.084-.229.062-.424-.067-.584-.124-.164-.395-.228-.812-.194a3.24 3.24 0 00-1.134.32 4.846 4.846 0 00-1.096.726 5.2 5.2 0 00-.907 1.035c-.265.398-.421.738-.468 1.021-.044.283.017.495.184.635.17.141.442.196.817.165.247-.02.494-.074.743-.161.248-.088.487-.205.716-.35.228-.146.435-.315.619-.507l.948-.077a4.706 4.706 0 01-.946.853 5.685 5.685 0 01-1.216.645 4.796 4.796 0 01-1.338.308zm6.02-2.366l.637-.978.193-.016 4.229-2.512 1.173-.096-4.495 2.662-.08.006-1.657.934zm-2.136 1.949l4.58-6.867.949-.077-4.581 6.867-.948.077zm3.921-.318l-.711-2.353 1.042-.604.874 2.859-1.205.098z" fill="#1B242B"/><path d="M408.401 72.872c1.224-2.522-.847-5.394-3.627-5.028L296.759 82.04a3.533 3.533 0 00-2.871 2.364 154.595 154.595 0 01-5.003 12.638l114.504-13.841 5.012-10.329z" fill="#2456A2"/><path d="M382.873 77.533c.071 1.088-.545 2.014-1.376 2.069-.831.054-1.562-.784-1.634-1.872-.071-1.088.545-2.014 1.376-2.069.831-.054 1.563.784 1.634 1.872zm6.019-.394c.071 1.088-.545 2.014-1.376 2.069-.831.054-1.562-.784-1.634-1.872-.071-1.088.545-2.014 1.376-2.069.831-.054 1.562.784 1.634 1.872zm6.018-.393c.071 1.088-.545 2.014-1.376 2.069-.831.054-1.562-.784-1.634-1.872-.071-1.088.545-2.015 1.376-2.069.832-.055 1.563.783 1.634 1.872z" fill="#fff"/><path d="M292.456 105.922c.407 0 91.345-9.758 91.345-9.758m-94.055 18.296l89.99-9.351m-94.191 18.703l87.143-8.403m-94.055 18.296s70.61-5.828 89.448-8.132M271.45 142.65c.407 0 42.827.407 91.345-6.641m-99.748 14.501s31.713 6.505 92.7-3.388" stroke="#2456A2" stroke-width=".567" stroke-miterlimit="10" stroke-linecap="round" stroke-linejoin="round"/><path d="M293.342 99.54l-17.782 12.669-61.592-86.451c-3.484-4.89-2.333-11.741 2.557-15.225 4.89-3.484 11.742-2.334 15.225 2.557l61.592 86.45z" fill="#FBCE67"/><path d="M224.201 13.896l-6.713 4.784 68.061 95.517 6.713-4.784-68.061-95.516z" fill="#E5B553"/><path d="M216.525 10.533c-4.89 3.484-6.04 10.335-2.557 15.225l1.508 2.117c4.028-2.463 13.066-8.071 18.294-11.95l-2.02-2.835c-3.484-4.891-10.335-6.041-15.225-2.557z" fill="#EA4E4E"/><path d="M213.968 25.758l1.508 2.117a493.498 493.498 0 005.014-3.107c-2.9-5.854-4.038-10.46-4.241-14.018-4.648 3.544-5.696 10.214-2.281 15.008z" fill="#C64646"/><path d="M275.56 112.208l18.611 10.395c1.167.63 2.553-.342 2.358-1.653l-3.187-21.41s-13.062.304-17.782 12.668z" fill="#FFE8BB"/><path d="M296.529 120.95l-1.109-7.448c-4.358 1.002-6.8 3.385-8.098 5.276l6.848 3.825c1.167.63 2.553-.341 2.359-1.653zm-82.03-94.447l8.022 11.26c3.738-1.993 11.755-6.619 17.835-12.594l-8.036-11.28c-2.531 2.603-8.204 7.687-17.821 12.614z" fill="#23201A"/><path d="M216.395 28.348s10.062-4.051 17.097-12.181m-15.058 15.044s10.061-4.051 17.098-12.181m-15.058 15.044s10.062-4.051 17.097-12.181" stroke="#FBCE67" stroke-width=".263" stroke-miterlimit="10" stroke-linecap="round" stroke-linejoin="round"/><path d="M152.41 7.389l-18.549 23.863 7.851 3.468-11.907 31.92 22.553-35.077-8.437-2.571 8.489-21.603zm67.284 80.381l-19.657 6.798 3.226 4.948-18.851 13.939 26.176-11.763-3.9-4.651 13.006-9.271zm66.92 89.507l-19.654-6.806-.523 5.884-23.434-.694 27.848 6.932-.192-6.067 15.955.751zm37.948 91.649l-24.109-18.227-3.363 7.896-32.077-11.476 35.377 22.079 2.458-8.471 21.714 8.199z" fill="#FBB040"/><path d="M382.138 232.375H232.124c-6.379 0-11.598-5.219-11.598-11.598v-20.243c0-6.379 5.219-11.598 11.598-11.598h150.014c6.379 0 11.598 5.219 11.598 11.598v20.243c0 6.379-5.219 11.598-11.598 11.598z" fill="#3C8CF8"/><path d="M231.784 228.035v15.66l11.629-14.73-11.629-.93z" fill="#3C8CF8"/><path d="M244.848 199.165l3.162 6.407 7.07 1.028-5.116 4.987 1.208 7.042-6.324-3.325-6.324 3.325 1.208-7.042-5.117-4.987 7.071-1.028 3.162-6.407zm31.076 0l3.162 6.407 7.071 1.028-5.116 4.987 1.207 7.042-6.324-3.325-6.324 3.325 1.208-7.042-5.116-4.987 7.07-1.028 3.162-6.407zm31.078 0l3.162 6.407 7.07 1.028-5.116 4.987 1.208 7.042-6.324-3.325-6.324 3.325 1.208-7.042-5.117-4.987 7.071-1.028 3.162-6.407zm31.075 0l3.162 6.407 7.071 1.028-5.116 4.987 1.207 7.042-6.324-3.325-6.324 3.325 1.208-7.042-5.116-4.987 7.07-1.028 3.162-6.407z" fill="#FBB040"/><path d="M369.154 199.165l3.162 6.407 7.07 1.028-5.116 4.987 1.208 7.042-6.324-3.325-6.324 3.325 1.208-7.042-5.117-4.987 7.071-1.028 3.162-6.407z" fill="#fff"/><path d="M141.446 101.866l1.496 2.545a.71.71 0 00.563.349l2.945.21a.711.711 0 01.482 1.182l-1.958 2.21a.71.71 0 00-.158.643l.71 2.866a.712.712 0 01-.976.824l-2.706-1.179a.708.708 0 00-.661.049l-2.506 1.561a.712.712 0 01-1.085-.673l.285-2.938a.713.713 0 00-.25-.614L135.368 107a.712.712 0 01.305-1.24l2.883-.637a.71.71 0 00.506-.428l1.11-2.736a.713.713 0 011.274-.093zM341.037 273.68l.525 1.451a.372.372 0 00.256.233l1.492.39a.372.372 0 01.134.654l-1.217.947a.37.37 0 00-.143.315l.09 1.54a.372.372 0 01-.58.33l-1.277-.865a.37.37 0 00-.344-.038l-1.436.562a.372.372 0 01-.493-.45l.428-1.482a.37.37 0 00-.07-.339l-.978-1.193a.372.372 0 01.275-.608l1.542-.051a.373.373 0 00.301-.171l.832-1.299a.372.372 0 01.663.074zM262.88 27.289l1.496 2.545a.71.71 0 00.563.349l2.945.21a.711.711 0 01.482 1.182l-1.958 2.21a.712.712 0 00-.158.644l.71 2.865a.712.712 0 01-.976.824l-2.706-1.179a.71.71 0 00-.661.048l-2.506 1.561a.712.712 0 01-1.085-.673l.285-2.938a.713.713 0 00-.25-.614l-2.259-1.901a.712.712 0 01.305-1.24l2.883-.637a.709.709 0 00.506-.428l1.109-2.736a.714.714 0 011.275-.092z" fill="#FBB040"/><path d="M260.058 109.162l1.497 2.545a.71.71 0 00.563.349l2.945.21a.712.712 0 01.482 1.183l-1.958 2.21a.712.712 0 00-.158.644l.71 2.865a.712.712 0 01-.976.824l-2.707-1.179a.71.71 0 00-.661.048l-2.506 1.561a.712.712 0 01-1.085-.673l.285-2.938a.713.713 0 00-.25-.614l-2.259-1.901a.712.712 0 01.305-1.24l2.883-.637a.71.71 0 00.506-.428l1.11-2.736a.713.713 0 011.274-.093zM119.946 16.367l1.496 2.545a.71.71 0 00.563.349l2.945.21a.712.712 0 01.482 1.183l-1.958 2.21a.71.71 0 00-.158.643l.71 2.866a.712.712 0 01-.976.824l-2.706-1.179a.708.708 0 00-.661.049l-2.506 1.561a.712.712 0 01-1.085-.673l.285-2.938a.713.713 0 00-.25-.614l-2.259-1.901a.712.712 0 01.305-1.24l2.883-.637a.71.71 0 00.506-.428l1.11-2.736a.712.712 0 011.274-.094z" fill="#fff"/><path d="M383.167 162.722l1.005 2.776c.08.22.263.387.49.447l2.856.746a.712.712 0 01.257 1.251l-2.33 1.813a.711.711 0 00-.273.604l.173 2.947a.712.712 0 01-1.11.631l-2.444-1.655a.712.712 0 00-.659-.074l-2.749 1.075a.713.713 0 01-.944-.861l.819-2.836a.713.713 0 00-.133-.649l-1.872-2.283a.712.712 0 01.527-1.163l2.951-.098a.711.711 0 00.576-.328l1.592-2.486a.712.712 0 011.268.143zm-52.044 74.45l1.005 2.776c.08.22.263.387.49.447l2.856.746a.712.712 0 01.257 1.251l-2.33 1.813a.711.711 0 00-.273.604l.173 2.947a.712.712 0 01-1.11.631l-2.444-1.655a.715.715 0 00-.659-.074l-2.749 1.075a.712.712 0 01-.943-.861l.819-2.836a.713.713 0 00-.133-.649l-1.872-2.283a.712.712 0 01.527-1.163l2.951-.098a.711.711 0 00.576-.328l1.592-2.486a.71.71 0 011.267.143z" fill="#FBB040"/><path d="M374.032 50.024l1.005 2.776c.08.22.263.387.49.447l2.856.746a.712.712 0 01.257 1.251l-2.33 1.813a.711.711 0 00-.273.604l.173 2.947a.712.712 0 01-1.11.631l-2.444-1.655a.715.715 0 00-.659-.074l-2.749 1.075a.712.712 0 01-.943-.861l.819-2.836a.713.713 0 00-.133-.649l-1.872-2.283a.712.712 0 01.527-1.163l2.951-.098a.711.711 0 00.576-.328l1.592-2.486a.711.711 0 011.267.143zM244.994.47l1.005 2.776c.08.22.263.387.49.447l2.856.746a.712.712 0 01.257 1.251l-2.33 1.813a.711.711 0 00-.273.604l.173 2.947a.712.712 0 01-1.11.631l-2.444-1.655a.712.712 0 00-.659-.073l-2.749 1.075a.712.712 0 01-.943-.861l.819-2.836a.713.713 0 00-.133-.649l-1.872-2.283a.712.712 0 01.527-1.163l2.951-.098a.711.711 0 00.576-.328l1.592-2.486a.71.71 0 011.267.142zm44.153 72.541l.868 1.411a.401.401 0 00.32.19l1.655.085a.4.4 0 01.284.658l-1.074 1.262a.401.401 0 00-.082.363l.431 1.6a.4.4 0 01-.538.473l-1.532-.632a.399.399 0 00-.37.035l-1.389.904a.4.4 0 01-.617-.366l.127-1.652a.402.402 0 00-.147-.342l-1.289-1.042a.4.4 0 01.157-.699l1.611-.39a.4.4 0 00.279-.246l.592-1.548a.4.4 0 01.714-.064zm-88.265-59.113l.868 1.412a.401.401 0 00.32.19l1.655.085a.4.4 0 01.284.658l-1.074 1.262a.401.401 0 00-.082.363l.431 1.6a.4.4 0 01-.538.473l-1.532-.632a.399.399 0 00-.37.035l-1.389.904a.4.4 0 01-.617-.366l.127-1.652a.402.402 0 00-.147-.342l-1.289-1.042a.4.4 0 01.157-.7l1.611-.39a.4.4 0 00.279-.246l.592-1.548a.4.4 0 01.714-.064z" fill="#fff"/><path d="M105.307 13.163l.525 1.45a.372.372 0 00.256.233l1.492.39a.372.372 0 01.134.654l-1.217.947a.37.37 0 00-.143.315l.09 1.54a.372.372 0 01-.58.33l-1.277-.865a.37.37 0 00-.344-.038l-1.437.562a.372.372 0 01-.493-.45l.428-1.482a.37.37 0 00-.07-.339l-.978-1.193a.372.372 0 01.275-.608l1.542-.051a.373.373 0 00.301-.171l.832-1.299a.373.373 0 01.664.075zm284.081 46.611l.525 1.45a.372.372 0 00.256.233l1.492.39a.373.373 0 01.135.654l-1.217.947a.37.37 0 00-.143.315l.09 1.54a.372.372 0 01-.58.33l-1.277-.865a.37.37 0 00-.344-.038l-1.437.562a.372.372 0 01-.493-.45l.428-1.482a.37.37 0 00-.07-.339l-.978-1.193a.372.372 0 01.275-.608l1.542-.051a.373.373 0 00.301-.171l.832-1.299a.373.373 0 01.663.075zM257.583 97.933l.524 1.45a.373.373 0 00.257.233l1.492.39a.373.373 0 01.135.654l-1.217.947a.37.37 0 00-.143.315l.09 1.54a.372.372 0 01-.58.33l-1.277-.865a.37.37 0 00-.344-.038l-1.436.562a.373.373 0 01-.494-.45l.429-1.482a.37.37 0 00-.07-.339l-.978-1.193a.372.372 0 01.274-.608l1.543-.051a.373.373 0 00.301-.171l.832-1.299a.372.372 0 01.662.075zm120.502 50.323l.525 1.45a.372.372 0 00.256.233l1.492.39a.372.372 0 01.134.654l-1.217.948a.37.37 0 00-.143.315l.09 1.54a.372.372 0 01-.58.33l-1.277-.865a.37.37 0 00-.344-.038l-1.436.562a.372.372 0 01-.493-.45l.428-1.482a.37.37 0 00-.07-.339l-.978-1.193a.372.372 0 01.275-.608l1.542-.051a.373.373 0 00.301-.171l.832-1.299a.372.372 0 01.663.074z" fill="#FBB040"/><path d="M355.346 178.518l.525 1.45a.372.372 0 00.256.233l1.492.39a.372.372 0 01.134.654l-1.217.948a.37.37 0 00-.143.315l.09 1.54a.372.372 0 01-.58.33l-1.277-.865a.373.373 0 00-.344-.039l-1.437.562a.372.372 0 01-.493-.45l.428-1.482a.37.37 0 00-.07-.339l-.978-1.193a.372.372 0 01.275-.608l1.542-.051a.373.373 0 00.301-.171l.832-1.299a.373.373 0 01.664.075z" fill="#fff"/><path d="M112.901 231.786l1.092 23.328-57.592 17.672 54.127-41.334 2.373.334z" fill="#DAC7FF"/><path d="M56.538 272.786l54.127-41.334-26.43-2.739-27.697 44.073zm0 0l56.5-41 45.5 5.5-102 35.5z" fill="#fff"/><path d="M117.861 227.584c.359-.308.714-.62 1.066-.936" stroke="#383838" stroke-linecap="round" stroke-linejoin="round"/><path d="M120.986 224.707c9.611-9.49 16.061-22.16 17.99-35.535.368-2.553.566-5.225-.309-7.651-1.974-5.47-9.436-7.717-14.554-4.955-5.118 2.762-7.465 9.355-6.164 15.023 1.301 5.668 5.706 10.292 10.914 12.879 5.208 2.587 11.151 3.345 16.966 3.312 11.748-.065 23.708-3.383 32.89-10.712 8.442-6.739 14.236-17.093 14.515-27.83" stroke="#383838" stroke-linecap="round" stroke-linejoin="round" stroke-dasharray="2.83 2.83"/><path d="M193.24 167.826a30.583 30.583 0 00-.06-1.416" stroke="#383838" stroke-linecap="round" stroke-linejoin="round"/><path d="M103.822 102.379c19.882 0 36-16.118 36-36s-16.118-36-36-36c-19.883 0-36 16.118-36 36s16.117 36 36 36z" fill="#EA4E4E"/><path d="M89.556 93.404l-6.454 16.566 26.463-11.833-20.01-4.733z" fill="#EA4E4E"/><path d="M118.495 57.654c-4.332-7.346-14.302-.977-14.345-.939-.044-.038-10.014-6.408-14.347.939-5.95 10.089 14.256 22.221 14.345 22.274v.002l.002-.001.002.001v-.002c.088-.053 20.292-12.185 14.343-22.274z" fill="#fff"/></svg>