<svg width="443" height="350" fill="none" xmlns="http://www.w3.org/2000/svg"><path d="M242.294 40.661c-110.457 0-200 93.688-200 209.257 0 35.514 8.467 68.954 23.386 98.251h353.228c14.919-29.297 23.386-62.737 23.386-98.251.001-115.57-89.543-209.257-200-209.257z" fill="#DEDDF9"/><path d="M421.139 213.258c2.191 2.671 5.593 4.029 8.856 4.107 3.282.075 6.529-.927 9.109-2.79-2.806 1.472-5.984 2.2-9.04 1.812-3.041-.303-5.939-1.747-7.702-4.099a11.23 11.23 0 01-.948-1.57c2.45-.553 4.766-1.875 6.391-3.903 1.083-1.38 1.828-3.086 1.848-4.967-.002-.929-.202-1.936-.793-2.807-.58-.881-1.542-1.486-2.506-1.713a5.092 5.092 0 00-2.91.164 6.537 6.537 0 00-2.339 1.504c-1.286 1.265-2.129 2.904-2.477 4.622-.398 1.966-.211 3.965.409 5.811-.104.009-.206.027-.311.034-3.003.174-6.074-.616-8.949-1.814-2.911-1.157-5.616-2.821-8.125-4.768 2.214 2.287 4.863 4.161 7.717 5.653 2.863 1.445 6.046 2.528 9.416 2.483.293.001.588-.025.882-.046.406.816.897 1.587 1.472 2.287zm-.661-9.231c.313-1.376.994-2.678 1.988-3.628.979-.957 2.248-1.437 3.412-1.13 1.17.251 1.821 1.252 1.823 2.589.013 1.305-.555 2.681-1.391 3.803-.852 1.133-2.019 2.059-3.327 2.708a10.81 10.81 0 01-2.221.783c-.547-1.672-.692-3.456-.284-5.125zM146.721 245.7l-92.048 1.2 29.415 14.007-10.005 22.612 17.93-8.35-4.523-6.658 21.611 31.817 37.62-54.628zm-82.848 44.81c-2.549 1.781-5.193 3.414-7.975 4.72-2.67 1.201-5.467 2.176-8.328 2.511.113.506.227 1.012.343 1.517 3.017-.478 5.861-1.58 8.518-2.943a45.048 45.048 0 004.072-2.435 65.594 65.594 0 003.781-2.823c2.444-1.97 4.766-4.065 7.037-6.213-2.465 1.921-4.905 3.872-7.448 5.666z" fill="#DEDDF9"/><path d="M337.103 326.388V161.362l3.161-1.13v-36.92l-3.161-1.13v-7.069l3.161-1.13V94.446l-3.161-1.13v-3.953l3.161-1.13V68.698l-3.161-1.131v-1.938c-28.216-15.924-60.501-24.967-94.808-24.967-30.776 0-59.924 7.281-85.969 20.274v52.379H130.52c-3.219-7.852-10.936-13.402-19.933-13.402-3.698 0-7.18.938-10.224 2.586a207.44 207.44 0 00-9.826 11.13 21.394 21.394 0 00-1.493 7.826c0 9.812 6.601 18.096 15.59 20.687v49.051c0 9.787 7.934 17.721 17.721 17.721h33.971v117.475c0 8.667 4.564 16.749 11.502 21.781h157.351c7.324-4.919 11.924-12.829 11.924-21.782zm12.504-150.707l26.008 37.766 11.814-17.393 12.395 5.772-6.917-15.632 20.336-9.683-63.636-.83z" fill="#DEDDF9"/><path d="M435.917 348.169H48.673" stroke="#5774BE" stroke-width="2.072" stroke-miterlimit="10" stroke-linecap="round" stroke-linejoin="round"/><path d="M334.263 82.232V62.697l-3.161-1.131V54.01c0-13.993-11.385-25.378-25.378-25.378h-130.02c-13.993 0-25.378 11.385-25.378 25.378v266.378c0 13.09 10.404 24.851 23.685 26.774.262.038.526.056.789.056h130.021c.225 0 .448-.013.671-.04 14.839-1.821 25.611-13.087 25.611-26.79V155.362l3.161-1.13v-36.92l-3.161-1.13v-7.069l3.161-1.13V88.446l-3.161-1.13v-3.953l3.16-1.131z" fill="#5774BE"/><path d="M174.8 341.711c-10.053-1.455-18.966-10.369-18.966-21.323V54.01c0-10.957 8.913-19.871 19.87-19.871h130.021c10.957 0 19.87 8.914 19.87 19.871v266.377c0 10.954-8.913 19.868-20.773 21.323H174.8v.001z" fill="#94B7F7"/><path d="M305.725 41.916h-22.669s-7.499 10.576-11.172 10.576h-58.967c-3.672 0-11.172-10.576-11.172-10.576h-26.041c-6.679 0-12.094 5.415-12.094 12.094v241.021c0 8.629 6.995 15.624 15.624 15.624h122.962c8.629 0 15.624-6.995 15.624-15.624V54.01c-.001-6.679-5.415-12.094-12.095-12.094z" fill="#fff"/><path d="M306.818 69.257H176.333v13.049h130.485V69.257zm0 27.681H176.333v6.524h130.485v-6.524zm0 16.068H176.333v6.524h130.485v-6.524zm0 16.068H176.333v6.524h130.485v-6.524zm0 16.067H176.333v6.524h130.485v-6.524zm0 16.068H176.333v6.524h130.485v-6.524zm0 16.068H176.333v6.524h130.485v-6.524zm0 16.067H176.333v6.524h130.485v-6.524zm0 16.068H176.333v6.524h130.485v-6.524zm0 16.068H176.333v6.524h130.485v-6.524zm0 16.068H176.333v6.524h130.485v-6.524zm0 16.067H176.333v6.524h130.485v-6.524zm-46.629 16.068h-83.856v6.524h83.856v-6.524zm-33.245 16.068h-50.611v6.524h50.611v-6.524z" fill="#B5B5E2"/><path d="M258.247 45.8h-41.655a1.948 1.948 0 01-1.942-1.942c0-1.068.874-1.942 1.942-1.942h41.655c1.068 0 1.942.874 1.942 1.942a1.948 1.948 0 01-1.942 1.942zm11.904-1.921a1.963 1.963 0 11-3.926 0 1.963 1.963 0 013.926 0zm-27.856 292.49c5.322 0 9.637-4.315 9.637-9.637s-4.315-9.637-9.637-9.637-9.637 4.315-9.637 9.637 4.315 9.637 9.637 9.637z" fill="#5774BE"/><path d="M309.314 42.457L163.61 286.067v8.964c0 8.629 6.995 15.624 15.624 15.624h26.93L317.82 123.971V54.01c-.001-5.43-3.579-10.024-8.506-11.553zm-26.258-.541s-7.499 10.576-11.172 10.576H219.04l-55.43 92.677v120.533L297.457 41.916h-14.401zm-26.992 268.738l61.755-103.252v-63.065l-99.475 166.317h37.72z" fill="#fff"/><path d="M329.181 0c.625 2.177.936 4.354 1.175 6.53.22 2.177.323 4.354.324 6.53.002 2.177-.1 4.354-.32 6.53-.237 2.177-.551 4.354-1.179 6.53-.628-2.177-.942-4.354-1.179-6.53a64.024 64.024 0 01-.32-6.53c.002-2.177.104-4.354.324-6.53.239-2.176.55-4.353 1.175-6.53zm34.592 35.325c-2.177.625-4.354.936-6.53 1.175-2.177.22-4.354.322-6.531.324-2.177.002-4.353-.1-6.53-.32-2.177-.238-4.354-.551-6.53-1.18 2.177-.628 4.354-.942 6.53-1.179a64.01 64.01 0 016.53-.32c2.177.002 4.354.104 6.531.324 2.176.24 4.353.551 6.53 1.176zm-11.576-23.434c-1.098 1.981-2.417 3.74-3.786 5.449a65.562 65.562 0 01-4.389 4.847 64.098 64.098 0 01-4.844 4.391c-1.707 1.371-3.468 2.689-5.452 3.784 1.095-1.984 2.412-3.744 3.784-5.452a64.292 64.292 0 014.391-4.844 65.36 65.36 0 014.847-4.389c1.708-1.369 3.468-2.688 5.449-3.786zm4.466 47.443c-1.981-1.097-3.741-2.417-5.449-3.786a65.562 65.562 0 01-4.847-4.389 64.11 64.11 0 01-4.392-4.844c-1.371-1.707-2.689-3.468-3.784-5.452 1.984 1.095 3.745 2.412 5.452 3.784a64.507 64.507 0 014.844 4.391 65.126 65.126 0 014.388 4.847c1.371 1.709 2.69 3.468 3.788 5.449zm-33.438-33.438c-1.981-1.097-3.74-2.416-5.449-3.786a65.773 65.773 0 01-4.847-4.388 64.078 64.078 0 01-4.391-4.844c-1.371-1.707-2.689-3.468-3.784-5.452 1.984 1.095 3.744 2.413 5.452 3.784a64.292 64.292 0 014.844 4.391 65.126 65.126 0 014.388 4.847c1.37 1.707 2.689 3.467 3.787 5.448zm-160.09 158.962s13.93 50.734 77.008 44.676c0 0-31.575-5.326-31.575-44.676h-45.433z" fill="#BE515B"/><path d="M232.621 202.913H116.355c-9.787 0-17.721-7.934-17.721-17.721v-60.158c0-9.787 7.934-17.721 17.721-17.721h116.267c9.787 0 17.721 7.934 17.721 17.721v60.158c0 9.787-7.934 17.721-17.722 17.721z" fill="#BE515B"/><path d="M212.013 137.025h-75.049v53.941h75.049v-53.941z" fill="#DCB650"/><path d="M202.367 119.26h-55.758v69.112h55.758V119.26z" fill="#fff"/><path d="M196.161 126.751h-43.345v4.07h43.345v-4.07zm0 8.343h-43.345v4.07h43.345v-4.07zm0 8.344h-43.345v4.07h43.345v-4.07zm0 8.343h-43.345v4.07h43.345v-4.07zm0 8.343h-43.345v4.07h43.345v-4.07zm0 8.344h-43.345v4.07h43.345v-4.07zm0 8.343h-43.345v4.07h43.345v-4.07z" fill="#D0D0D0"/><path d="M153.739 162.285l-16.776-25.26v53.941h75.05l-.001-53.941-16.71 25.26h-41.563z" fill="#E9D457"/><path d="M212.013 190.966h-75.049l16.775-28.681h41.498l16.776 28.681z" fill="#E9D457"/><path d="M136.964 190.966c1.3-2.447 2.631-4.877 3.965-7.304 1.335-2.427 2.651-4.865 4.02-7.272l4.072-7.242 4.089-7.232.201-.356.428-.005c6.916-.076 13.833-.093 20.749-.11 6.916.016 13.833.031 20.749.108l.426.005.204.357c2.751 4.806 5.439 9.65 8.161 14.473 1.368 2.407 2.686 4.844 4.02 7.272a571.336 571.336 0 013.964 7.305 576.209 576.209 0 01-4.424-7.036c-1.462-2.352-2.94-4.696-4.368-7.069-2.869-4.737-5.774-9.454-8.615-14.208l.63.362c-6.916.077-13.833.092-20.749.108-6.916-.016-13.833-.033-20.749-.11l.629-.361-4.299 7.109-4.316 7.099c-1.427 2.373-2.906 4.716-4.368 7.069a528.414 528.414 0 01-4.419 7.038z" fill="#DCB650"/><path d="M238.002 139.276c-1.097 1.981-2.417 3.74-3.786 5.449a65.34 65.34 0 01-4.389 4.847 64.078 64.078 0 01-4.844 4.391c-1.707 1.371-3.468 2.689-5.452 3.784 1.095-1.984 2.413-3.744 3.784-5.452a64.098 64.098 0 014.391-4.844 65.36 65.36 0 014.847-4.389c1.708-1.369 3.468-2.688 5.449-3.786zm-.519 49.439c-1.981-1.097-3.74-2.417-5.449-3.787a65.347 65.347 0 01-4.847-4.388 64.292 64.292 0 01-4.391-4.844c-1.371-1.707-2.689-3.468-3.784-5.452 1.984 1.095 3.744 2.412 5.452 3.784a64.292 64.292 0 014.844 4.391 65.126 65.126 0 014.388 4.847c1.371 1.709 2.69 3.468 3.787 5.449zm8.385-24.756c-2.177.625-4.354.936-6.53 1.175-2.177.22-4.354.322-6.53.324-2.177.002-4.354-.1-6.53-.32-2.177-.238-4.354-.551-6.53-1.18 2.177-.628 4.354-.942 6.53-1.18a64.312 64.312 0 016.53-.32c2.177.002 4.354.104 6.53.324 2.176.241 4.353.552 6.53 1.177zm-134.893-24.683c1.981 1.097 3.74 2.417 5.449 3.786a65.562 65.562 0 014.847 4.389 64.098 64.098 0 014.391 4.844c1.371 1.707 2.689 3.468 3.784 5.452-1.984-1.095-3.744-2.413-5.452-3.784a64.098 64.098 0 01-4.844-4.391 65.126 65.126 0 01-4.388-4.847c-1.371-1.708-2.69-3.468-3.787-5.449zm.518 49.439c1.097-1.981 2.417-3.74 3.786-5.449a65.34 65.34 0 014.389-4.847 63.885 63.885 0 014.844-4.391c1.707-1.371 3.468-2.689 5.452-3.784-1.095 1.984-2.412 3.744-3.784 5.452a64.292 64.292 0 01-4.391 4.844 65.126 65.126 0 01-4.847 4.388c-1.709 1.371-3.468 2.69-5.449 3.787zm-8.385-24.756c2.177-.625 4.354-.936 6.53-1.175a65.497 65.497 0 016.53-.324c2.177-.002 4.354.1 6.53.32 2.177.238 4.354.551 6.53 1.18-2.177.628-4.354.942-6.53 1.18-2.177.22-4.354.322-6.53.32a65.467 65.467 0 01-6.53-.324c-2.176-.241-4.353-.552-6.53-1.177z" fill="#E2C7C9"/><path d="M112.434 134.387c10.455-4.331 15.42-16.318 11.089-26.774-4.331-10.455-16.318-15.42-26.773-11.09-10.456 4.332-15.42 16.319-11.09 26.774 4.331 10.456 16.318 15.421 26.774 11.09z" fill="#fff" stroke="#BE515B" stroke-width="2.104" stroke-miterlimit="10"/><path d="M106.719 103.802h-2.305a.75.75 0 00-.694.464c-.517 1.247-2.35 2.099-4.902 2.279a.752.752 0 00-.699.75v2.305c0 .415.337.752.752.752h3.796v16.004c0 .415.337.752.752.752h3.301a.752.752 0 00.752-.752v-21.801a.753.753 0 00-.753-.753z" fill="#405071"/><path d="M81.49 262.511l59.231-22.811-37.62 54.628-21.611-31.817z" fill="#CBEBF9"/><path d="M68.083 277.519l13.407-15.008 4.522 6.658-17.929 8.35z" fill="#A3CADD"/><path d="M78.088 254.907l-10.005 22.612 13.407-15.008 59.231-22.811-62.633 15.207z" fill="#BADFF9"/><path d="M48.673 240.9l29.415 14.007 62.633-15.207-92.048 1.2z" fill="#fff"/><path d="M65.322 278.844c-2.271 2.148-4.593 4.243-7.037 6.213a66.061 66.061 0 01-3.781 2.823 45.048 45.048 0 01-4.072 2.435c-2.819 1.447-5.846 2.608-9.07 3.032a22.883 22.883 0 01-9.625-.732c-3.113-.929-6.102-2.632-8.27-5.198-2.173-2.522-3.482-5.911-3.234-9.333.11-1.703.655-3.424 1.657-4.877 1.034-1.473 2.41-2.487 3.875-3.306.744-.399 1.527-.74 2.376-.965.843-.222 1.768-.354 2.747-.156.978.164 1.96.817 2.493 1.674.533.852.746 1.766.833 2.626l.001.009a.894.894 0 01-.14.577c-.995 1.531-2.477 2.819-4.199 3.494-1.715.704-3.561.829-5.306.687-3.512-.331-6.75-1.626-9.729-3.238-2.988-1.619-5.743-3.612-8.251-5.862-2.5-2.25-4.815-4.74-6.59-7.586 2.021 2.669 4.44 4.99 7.036 7.057 2.612 2.047 5.412 3.851 8.364 5.307 2.952 1.419 6.099 2.558 9.28 2.746 1.579.082 3.156-.106 4.537-.698 1.389-.58 2.526-1.608 3.332-2.889l-.139.586c-.077-.688-.27-1.324-.578-1.796a1.902 1.902 0 00-1.306-.833c-1.148-.196-2.596.275-3.834.958-1.246.699-2.437 1.618-3.187 2.725-.762 1.126-1.201 2.489-1.281 3.899-.103 1.408.113 2.855.574 4.21.474 1.344 1.222 2.618 2.151 3.73 1.873 2.227 4.49 3.813 7.324 4.727 2.843.914 5.905 1.19 8.904.899 2.999-.287 5.927-1.304 8.72-2.56 2.782-1.306 5.426-2.939 7.975-4.72 2.544-1.793 4.984-3.744 7.45-5.665z" fill="#BADFF9"/><path d="M384.556 185.451l-40.949-15.77 26.008 37.766 14.941-21.996z" fill="#CBEBF9"/><path d="M393.824 195.826l-9.268-10.375-3.127 4.603 12.395 5.772z" fill="#A3CADD"/><path d="M386.907 180.194l6.917 15.632-9.268-10.375-40.949-15.77 43.3 10.513z" fill="#BADFF9"/><path d="M407.243 170.511l-20.336 9.683-43.3-10.513 63.636.83z" fill="#fff"/><path d="M395.652 196.881c2.51 1.947 5.214 3.611 8.125 4.768 2.875 1.198 5.945 1.988 8.949 1.814 1.5-.1 2.941-.453 4.257-1.094 1.308-.65 2.475-1.575 3.327-2.708.836-1.122 1.404-2.498 1.391-3.803-.002-1.337-.653-2.338-1.823-2.589-1.164-.307-2.433.173-3.412 1.13-.994.95-1.675 2.252-1.988 3.628-.68 2.784.154 5.899 1.884 8.261 1.763 2.353 4.661 3.796 7.702 4.099 3.057.388 6.235-.34 9.04-1.812-2.58 1.863-5.827 2.865-9.109 2.79-3.263-.078-6.665-1.437-8.856-4.107-2.154-2.619-3.21-6.19-2.511-9.64.348-1.718 1.19-3.357 2.477-4.622.644-.634 1.431-1.176 2.339-1.504a5.093 5.093 0 012.91-.164c.964.227 1.926.832 2.506 1.713.591.872.791 1.879.793 2.807-.021 1.881-.765 3.587-1.848 4.967-2.201 2.746-5.666 4.208-9.02 4.202-3.37.045-6.553-1.038-9.416-2.483-2.854-1.492-5.503-3.366-7.717-5.653z" fill="#BADFF9"/></svg>