<svg width="633" height="633" fill="none" xmlns="http://www.w3.org/2000/svg"><circle cx="316.5" cy="316.5" r="316.5" fill="url(#paint0_linear_1064_2029)"/><path d="M425.591 212H206.324C182.99 212 164 230.99 164 254.324v142.473c0 23.334 18.99 42.324 42.324 42.324H327.38a9.18 9.18 0 000-18.358H206.324c-13.217 0-23.967-10.749-23.967-23.966v-73.735h267.201v15.705a9.18 9.18 0 0018.357 0v-84.433C467.915 231 448.926 212 425.591 212zm-219.267 18.367h219.267c13.218 0 23.967 10.75 23.967 23.967v8.72H182.357v-8.72c0-13.217 10.75-23.967 23.967-23.967zm-23.967 74.327v-23.273h267.201v23.273H182.357z" fill="#fff"/><path d="M217.114 360.663h28.117a9.18 9.18 0 000-18.357h-28.117a9.18 9.18 0 000 18.357zm0 34.563h56.235a9.18 9.18 0 000-18.357h-56.235a9.18 9.18 0 000 18.357zm200.829-2.478l-16.43 13.248-3.569-4.549c-3.121-3.967-8.904-4.691-12.891-1.55a9.183 9.183 0 00-1.561 12.891l9.312 11.871a9.194 9.194 0 007.22 3.518c2.091 0 4.12-.713 5.762-2.029l23.671-19.081c3.947-3.193 4.569-8.965 1.387-12.912-3.172-3.967-8.954-4.579-12.901-1.407z" fill="#fff"/><path d="M457.013 367.609l-40.916-20.571c-5.579-2.794-12.208-2.804-17.776.01l-40.896 20.55c-6.803 3.407-11.076 10.535-10.913 18.154.429 19.52 6.14 66.963 49.738 85.902a27.578 27.578 0 0010.964 2.274c3.743 0 7.475-.755 10.953-2.274 43.599-18.929 49.31-66.382 49.738-85.892.184-7.618-4.1-14.747-10.892-18.153zm-46.158 87.217c-2.315 1-4.967 1-7.292 0-33.88-14.706-38.357-53.481-38.704-69.472a1.469 1.469 0 01.796-1.356l40.886-20.55c.214-.102.438-.164.663-.164.224 0 .438.051.642.153l40.916 20.571c.5.245.796.755.786 1.346-.347 15.991-4.824 54.756-38.693 69.472z" fill="#fff"/><defs><linearGradient id="paint0_linear_1064_2029" x1="-68.487" y1="381.809" x2="701.487" y2="388.191" gradientUnits="userSpaceOnUse"><stop stop-color="#024EC9"/><stop offset="1" stop-color="#3884FF"/></linearGradient></defs></svg>