<svg width="16" height="17" fill="none" xmlns="http://www.w3.org/2000/svg"><g clip-path="url(#clip0_368_6636)"><path fill-rule="evenodd" clip-rule="evenodd" d="M7.965 1.032a1.99 1.99 0 00-1.792 1.1l-.313.626a5.832 5.832 0 00-.365.15l-.664-.22a1.989 1.989 0 00-2.044.49A1.988 1.988 0 002.32 5.2l.22.662a6.922 6.922 0 00-.153.367l-.624.312a1.988 1.988 0 00-1.1 1.79 1.987 1.987 0 001.1 1.762l.627.316c.046.123.096.244.15.364l-.22.663c-.24.716-.05 1.511.489 2.043a1.988 1.988 0 002.022.468l.662-.22c.121.055.244.106.368.153l.312.622a1.986 1.986 0 003.553 0l.311-.623c.125-.047.249-.097.37-.152l.66.22c.707.236 1.49.056 2.022-.468a1.99 1.99 0 00.49-2.044l-.22-.663a6 6 0 00.152-.366l.624-.313a1.987 1.987 0 001.1-1.761 1.988 1.988 0 00-1.1-1.79l-.626-.314a5.998 5.998 0 00-.15-.367l.22-.661v-.002a1.988 1.988 0 00-.468-2.02 1.99 1.99 0 00-2.044-.49l-.664.22a6.029 6.029 0 00-.366-.152l-.312-.624a1.988 1.988 0 00-1.76-1.1zm-.01 1.325a.66.66 0 01.585.368l.42.84a.662.662 0 00.392.336c.25.08.492.18.724.3a.662.662 0 00.514.041l.895-.297h.001a.66.66 0 01.835.835v.002l-.296.891a.66.66 0 00.038.51c.12.233.218.476.297.726a.661.661 0 00.336.394l.846.423a.658.658 0 010 1.182h-.001l-.841.421a.663.663 0 00-.334.391c-.08.25-.18.492-.301.725a.661.661 0 00-.042.515l.298.894a.658.658 0 01-.835.836h-.001l-.891-.297a.662.662 0 00-.511.039 4.62 4.62 0 01-.726.298.662.662 0 00-.395.336l-.422.843a.66.66 0 01-1.182 0l-.42-.84a.663.663 0 00-.391-.334c-.25-.08-.493-.18-.726-.302a.665.665 0 00-.515-.041l-.894.298a.659.659 0 01-.835-.836v-.002l.297-.891a.663.663 0 00-.04-.511 4.633 4.633 0 01-.298-.725.663.663 0 00-.334-.393l-.845-.424h-.001a.66.66 0 010-1.182l.84-.42a.663.663 0 00.336-.39c.08-.25.18-.493.301-.725a.663.663 0 00.042-.514l-.298-.895V4.78a.66.66 0 01.835-.835l.893.297a.662.662 0 00.51-.039c.233-.119.476-.218.725-.296a.662.662 0 00.395-.336l.423-.846a.659.659 0 01.596-.368zm-.003 2.649a3.324 3.324 0 00-3.316 3.31 3.328 3.328 0 003.316 3.315 3.322 3.322 0 003.31-3.315 3.319 3.319 0 00-3.31-3.31zm0 1.324c1.105 0 1.984.881 1.984 1.986 0 1.106-.879 1.99-1.984 1.99a1.983 1.983 0 01-1.992-1.99A1.98 1.98 0 017.952 6.33z" fill="#9390A0"/></g><defs><clipPath id="clip0_368_6636"><path fill="#fff" transform="translate(0 .369)" d="M0 0h15.899v15.899H0z"/></clipPath></defs></svg>