<svg width="26" height="26" fill="none" xmlns="http://www.w3.org/2000/svg"><path d="M14.083 26h-2.166c-.896 0-1.625-.73-1.625-1.625v-2.017a9.665 9.665 0 01-1.994-.827L6.87 22.958c-.614.614-1.684.613-2.298 0L3.04 21.426a1.613 1.613 0 01-.476-1.149c0-.434.17-.842.476-1.149l1.428-1.427a9.608 9.608 0 01-.826-1.993H1.625c-.896 0-1.625-.73-1.625-1.625v-2.167c0-.434.169-.842.476-1.149a1.615 1.615 0 011.149-.476h2.017c.2-.692.477-1.36.827-1.993L3.042 6.871a1.626 1.626 0 010-2.298l1.532-1.532c.614-.613 1.684-.614 2.298 0L8.3 4.468a9.665 9.665 0 011.993-.826V1.625A1.625 1.625 0 0111.917 0h2.166c.896 0 1.625.73 1.625 1.625v2.017c.694.2 1.361.477 1.993.826l1.427-1.427c.614-.613 1.684-.614 2.298 0l1.533 1.532c.307.306.476.715.476 1.149 0 .433-.17.842-.476 1.148l-1.427 1.428c.35.631.627 1.3.826 1.993h2.017c.896 0 1.625.73 1.625 1.625v2.167c0 .434-.169.842-.476 1.149a1.616 1.616 0 01-1.149.476h-2.017a9.671 9.671 0 01-.827 1.993l1.427 1.427a1.626 1.626 0 010 2.298l-1.532 1.533c-.614.613-1.684.613-2.298 0l-1.426-1.428c-.632.35-1.3.627-1.993.827v2.017A1.628 1.628 0 0114.083 26zM8.21 20.311c.097 0 .195.026.282.08a8.599 8.599 0 002.469 1.024.542.542 0 01.414.526v2.434c0 .299.243.542.542.542h2.166a.542.542 0 00.542-.542v-2.434a.542.542 0 01.414-.526 8.597 8.597 0 002.468-1.024.542.542 0 01.666.08l1.721 1.721a.558.558 0 00.767 0l1.532-1.532a.541.541 0 000-.766l-1.722-1.722a.541.541 0 01-.08-.666 8.59 8.59 0 001.024-2.468.542.542 0 01.526-.415h2.434a.539.539 0 00.542-.54v-2.167a.542.542 0 00-.542-.542h-2.434a.541.541 0 01-.526-.415 8.587 8.587 0 00-1.023-2.467.541.541 0 01.079-.666l1.722-1.722a.546.546 0 000-.766L20.66 3.806a.556.556 0 00-.766 0l-1.722 1.722a.539.539 0 01-.666.08 8.593 8.593 0 00-2.467-1.024.54.54 0 01-.414-.525V1.625a.542.542 0 00-.542-.542h-2.166a.542.542 0 00-.542.542v2.434a.542.542 0 01-.414.526 8.599 8.599 0 00-2.468 1.023.54.54 0 01-.665-.079L6.106 3.807a.556.556 0 00-.767 0L3.808 5.34a.542.542 0 000 .766L5.53 7.827a.542.542 0 01.079.666 8.588 8.588 0 00-1.023 2.467.542.542 0 01-.527.415H1.625a.539.539 0 00-.542.541v2.167c0 .299.244.541.542.541h2.434c.25 0 .468.172.526.415.21.871.556 1.704 1.023 2.468a.542.542 0 01-.079.665l-1.722 1.723a.547.547 0 00-.158.383.55.55 0 00.158.383l1.533 1.532a.556.556 0 00.766 0l1.722-1.722a.537.537 0 01.382-.16z" fill="#024EC9"/><path d="M13 18.417A5.423 5.423 0 017.583 13 5.423 5.423 0 0113 7.583 5.423 5.423 0 0118.417 13 5.422 5.422 0 0113 18.417zm0-9.75A4.338 4.338 0 008.667 13 4.338 4.338 0 0013 17.333 4.338 4.338 0 0017.334 13 4.338 4.338 0 0013 8.667z" fill="#5F35E6"/></svg>