<svg width="18" height="18" viewBox="0 0 23 23" fill="none" xmlns="http://www.w3.org/2000/svg"><path d="M4.563.555c.2-.252.48-.43.794-.503.256-.07.527-.07.782 0 .315.073.596.25.798.503l4.131 3.966a1.362 1.362 0 010 1.987l-.046.043a1.51 1.51 0 01-2.073 0L7.247 4.919v10.894c0 .794-.64 1.438-1.433 1.438h-.13a1.436 1.436 0 01-1.433-1.438V4.916L2.548 6.552a1.51 1.51 0 01-2.073 0L.43 6.508a1.364 1.364 0 010-1.987L4.563.555zm13.872 21.891c-.2.252-.48.43-.793.503a1.533 1.533 0 01-.782 0 1.432 1.432 0 01-.798-.503L11.93 18.48a1.365 1.365 0 010-1.987l.046-.043a1.51 1.51 0 012.073 0l1.704 1.632V7.188c0-.794.641-1.438 1.433-1.438h.13c.79 0 1.433.644 1.433 1.438v10.897l1.703-1.635a1.51 1.51 0 012.073 0l.046.045a1.364 1.364 0 010 1.986l-4.136 3.965z" fill="#FFF"/></svg>