<svg width="27" height="22" viewBox="0 0 22 22" fill="none" xmlns="http://www.w3.org/2000/svg"><path d="M5.5 12l.784 1.569c.266.53.399.796.576 1.026a3 3 0 00.545.545c.23.177.495.31 1.026.575L10 16.5l-1.569.785c-.53.265-.796.398-1.026.575a3 3 0 00-.545.545c-.177.23-.31.495-.576 1.026L5.5 21l-.784-1.569c-.266-.53-.399-.796-.576-1.026a3 3 0 00-.545-.545c-.23-.177-.495-.31-1.026-.575L1 16.5l1.569-.784c.53-.266.796-.399 1.026-.576a3 3 0 00.545-.545c.177-.23.31-.495.576-1.026L5.5 12zM14 1l1.179 3.064c.282.734.423 1.1.642 1.409a3 3 0 00.706.706c.309.22.675.36 1.409.642L21 8l-3.064 1.179c-.734.282-1.1.423-1.409.642a3 3 0 00-.706.706c-.22.309-.36.675-.642 1.409L14 15l-1.179-3.064c-.282-.734-.423-1.1-.642-1.409a3 3 0 00-.706-.706c-.309-.22-.675-.36-1.409-.642L7 8l3.064-1.179c.734-.282 1.1-.423 1.409-.642a3 3 0 00.706-.706c.22-.309.36-.675.642-1.409L14 1z" stroke="#707070" stroke-linecap="round" stroke-linejoin="round"/></svg>