<svg width="24" height="28" fill="none" xmlns="http://www.w3.org/2000/svg"><path d="M10.09 23.662C8.888 26.157 7.384 27.358 6 27.358h11.829c3.408 0 6.171-5.97 6.171-13.334S21.237.692 17.83.692H6c1.385 0 2.889 1.201 4.09 3.697 1.168 2.43 1.91 5.836 1.91 9.636 0 3.8-.742 7.207-1.91 9.636z" fill="#FFF"/><path fill-rule="evenodd" clip-rule="evenodd" d="M1.911 4.389C.742 6.819 0 10.225 0 14.025c0 3.8.742 7.207 1.911 9.636 1.2 2.496 2.704 3.697 4.089 3.697 1.385 0 2.889-1.2 4.09-3.697 1.168-2.43 1.91-5.836 1.91-9.636 0-3.8-.742-7.206-1.91-9.636C8.888 1.893 7.384.692 6 .692c-1.385 0-2.889 1.201-4.089 3.697zm1.839 9.636c0 4.651 1.007 8.421 2.25 8.421 1.147 0 2.094-3.214 2.233-7.368H6.75c-.621 0-1.125-.471-1.125-1.053 0-.581.504-1.053 1.125-1.053h1.483C8.094 8.82 7.147 5.604 6 5.604c-1.243 0-2.25 3.77-2.25 8.421z" fill="#FFF"/></svg>