<svg width="633" height="633" viewBox="0 0 633 633" fill="none" xmlns="http://www.w3.org/2000/svg">
<circle cx="316.5" cy="316.5" r="316.5" fill="url(#paint0_linear_1064_2026)"/>
<path d="M428 366C416.473 365.998 405.3 369.978 396.371 377.267C387.442 384.556 381.305 394.706 379 406H238C227.391 406 217.217 401.786 209.716 394.284C202.214 386.783 198 376.609 198 366C198 355.391 202.214 345.217 209.716 337.716C217.217 330.214 227.391 326 238 326H418C433.913 326 449.174 319.679 460.426 308.426C471.679 297.174 478 281.913 478 266C478 250.087 471.679 234.826 460.426 223.574C449.174 212.322 433.913 206 418 206H277C274.522 193.86 267.624 183.072 257.644 175.728C247.664 168.384 235.313 165.008 222.985 166.253C210.657 167.499 199.23 173.277 190.921 182.469C182.611 191.66 178.01 203.609 178.01 216C178.01 228.391 182.611 240.34 190.921 249.532C199.23 258.723 210.657 264.502 222.985 265.747C235.313 266.992 247.664 263.616 257.644 256.272C267.624 248.928 274.522 238.141 277 226H418C425.924 225.974 433.678 228.302 440.277 232.689C446.876 237.077 452.023 243.325 455.066 250.642C458.108 257.959 458.909 266.015 457.366 273.788C455.823 281.561 452.007 288.7 446.4 294.3C442.671 298.025 438.242 300.977 433.368 302.985C428.494 304.993 423.271 306.017 418 306H238C222.087 306 206.826 312.321 195.574 323.574C184.321 334.826 178 350.087 178 366C178 381.913 184.321 397.174 195.574 408.426C206.826 419.679 222.087 426 238 426H379C380.892 435.269 385.375 443.811 391.928 450.634C398.481 457.458 406.835 462.282 416.021 464.546C425.206 466.811 434.845 466.423 443.819 463.428C452.793 460.433 460.732 454.954 466.716 447.627C472.7 440.299 476.483 431.425 477.624 422.034C478.766 412.643 477.22 403.12 473.166 394.573C469.112 386.025 462.716 378.803 454.721 373.745C446.726 368.688 437.46 366.002 428 366ZM228 246C222.067 246 216.266 244.241 211.333 240.944C206.399 237.648 202.554 232.962 200.284 227.481C198.013 221.999 197.419 215.967 198.576 210.147C199.734 204.328 202.591 198.982 206.787 194.787C210.982 190.591 216.328 187.734 222.147 186.577C227.967 185.419 233.999 186.013 239.481 188.284C244.962 190.554 249.648 194.4 252.944 199.333C256.241 204.266 258 210.067 258 216C258 223.957 254.839 231.587 249.213 237.213C243.587 242.839 235.956 246 228 246ZM428 446C422.067 446 416.266 444.241 411.333 440.944C406.399 437.648 402.554 432.962 400.284 427.481C398.013 421.999 397.419 415.967 398.576 410.147C399.734 404.328 402.591 398.982 406.787 394.787C410.982 390.591 416.328 387.734 422.147 386.576C427.967 385.419 433.999 386.013 439.481 388.284C444.962 390.554 449.648 394.399 452.944 399.333C456.241 404.266 458 410.067 458 416C458 423.957 454.839 431.587 449.213 437.213C443.587 442.839 435.956 446 428 446Z" fill="white"/>
<defs>
<linearGradient id="paint0_linear_1064_2026" x1="-68.4868" y1="381.809" x2="701.487" y2="388.191" gradientUnits="userSpaceOnUse">
<stop stop-color="#024EC9"/>
<stop offset="1" stop-color="#3884FF"/>
</linearGradient>
</defs>
</svg>
