<svg width="45" height="45" viewBox="0 0 40 40" fill="none" xmlns="http://www.w3.org/2000/svg"><circle cx="20" cy="20" r="20" fill="#D85C34"/><path d="M24.881 13.308c0 .233-.016.466-.047.697a9.97 9.97 0 00.039-.28 5.25 5.25 0 01-.38 1.337c.036-.085.075-.17.111-.254-.185.418-.424.81-.715 1.171l.175-.215a5.522 5.522 0 01-.995.952l.224-.167a5.717 5.717 0 01-1.224.683c.088-.034.177-.071.265-.106-.448.178-.917.3-1.399.363.097-.013.197-.026.294-.037a5.831 5.831 0 01-1.458 0c.097.013.197.027.294.037a5.898 5.898 0 01-1.4-.363c.09.035.178.072.267.106a5.6 5.6 0 01-1.225-.683l.224.167a5.521 5.521 0 01-.995-.952l.175.215a5.34 5.34 0 01-.715-1.171c.036.085.075.17.11.254a5.254 5.254 0 01-.379-1.338c.014.093.028.188.039.281a5.098 5.098 0 010-1.394 9.657 9.657 0 00-.039.281c.067-.46.194-.909.38-1.338-.036.085-.075.17-.111.254.185-.418.424-.81.715-1.17l-.175.214c.288-.355.624-.676.995-.951l-.224.167a5.708 5.708 0 011.224-.684c-.088.034-.177.072-.266.106.45-.178.918-.3 1.4-.363a14.75 14.75 0 01-.294.037c.485-.06.973-.06 1.458 0a11.119 11.119 0 00-.294-.037c.482.064.95.185 1.4.363-.09-.034-.178-.072-.267-.106a5.6 5.6 0 011.225.684L23.07 9.9c.371.275.707.596.995.95l-.175-.214c.288.36.53.753.715 1.171-.036-.084-.075-.17-.11-.254.185.43.313.877.379 1.338a9.657 9.657 0 01-.039-.28c.03.23.044.463.047.696.003.554.507 1.087 1.109 1.06.598-.027 1.111-.466 1.108-1.06-.005-1.27-.404-2.567-1.186-3.6a7.352 7.352 0 00-.684-.798 6.988 6.988 0 00-.818-.673 6.626 6.626 0 00-1.73-.88c-2.502-.877-5.52-.095-7.213 1.876-.232.27-.454.551-.643.853-.188.3-.335.617-.47.94a6.023 6.023 0 00-.438 1.88c-.103 1.26.24 2.577.928 3.659.662 1.043 1.663 1.94 2.832 2.445a7.74 7.74 0 001.062.384 7.62 7.62 0 001.105.191 6.837 6.837 0 002.05-.106c2.559-.498 4.7-2.604 5.097-5.077.058-.36.103-.72.103-1.086.003-.554-.513-1.086-1.109-1.06-.598.019-1.103.459-1.103 1.052zm3.678 16.568h-14.22c-.629 0-1.258.006-1.887 0-.069 0-.138-.005-.205-.013.097.013.197.027.294.037a1.447 1.447 0 01-.319-.084c.089.034.178.071.266.106a1.422 1.422 0 01-.31-.175l.224.166a1.566 1.566 0 01-.227-.217l.175.215a1.443 1.443 0 01-.183-.297c.036.085.075.17.11.255a1.483 1.483 0 01-.088-.305c.014.093.028.188.039.28-.044-.32-.014-.66-.014-.982v-1.134c0-.284.017-.565.055-.846-.013.093-.027.188-.038.281a5.99 5.99 0 01.451-1.582c-.036.085-.075.17-.11.255.216-.482.493-.936.828-1.352l-.175.215a6.44 6.44 0 011.153-1.102l-.224.167a6.59 6.59 0 011.413-.793c-.088.035-.177.072-.266.106a6.803 6.803 0 011.655-.432 9.846 9.846 0 01-.294.038c.41-.05.817-.053 1.23-.053h5.072c.457 0 .911-.003 1.369.053a11.333 11.333 0 00-.294-.038 6.718 6.718 0 011.654.432l-.266-.106a6.59 6.59 0 011.413.793l-.224-.167c.43.32.818.689 1.153 1.102l-.175-.215c.336.416.613.87.829 1.352-.036-.085-.075-.17-.11-.255a6.1 6.1 0 01.45 1.582 9.617 9.617 0 01-.038-.28c.053.4.055.797.055 1.2v1.311c0 .151.006.302-.014.45.014-.092.028-.188.04-.28a1.289 1.289 0 01-.09.305l.111-.255a1.331 1.331 0 01-.182.297l.174-.215a1.55 1.55 0 01-.227.217l.224-.166c-.097.071-.2.127-.31.175l.266-.107a1.58 1.58 0 01-.319.085c.097-.013.197-.026.294-.037a2.17 2.17 0 01-.188.013c-.286.003-.58.117-.785.31-.19.183-.338.485-.324.75.028.567.488 1.068 1.109 1.06 1.078-.016 2.025-.689 2.341-1.677.125-.392.097-.813.097-1.216 0-.922.03-1.837-.135-2.75-.244-1.339-.948-2.597-1.913-3.586a7.567 7.567 0 00-3.633-2.037c-.787-.186-1.58-.215-2.383-.215h-4.916c-.823 0-1.64.037-2.441.241-1.361.345-2.642 1.079-3.587 2.075-.953 1.004-1.643 2.265-1.867 3.611-.15.904-.12 1.81-.12 2.722 0 .418-.024.855.134 1.256a2.5 2.5 0 001.011 1.224c.374.236.848.35 1.291.355.217.003.433 0 .649 0H28.56c.58 0 1.137-.488 1.109-1.06a1.106 1.106 0 00-1.111-1.063z" fill="#fff"/></svg>