<svg width="55" height="55" viewBox="0 0 820 820" fill="none" xmlns="http://www.w3.org/2000/svg"><rect width="820" height="820" rx="133" fill="#1300EE"/><path d="M502.759 272.545c0 5.195-.354 10.39-1.003 15.526.295-2.066.59-4.191.826-6.257a121.294 121.294 0 01-8.082 29.812c.767-1.889 1.593-3.778 2.36-5.667-3.952 9.327-9.025 18.064-15.219 26.093l3.716-4.782a119.927 119.927 0 01-21.176 21.193l4.778-3.719c-8.023 6.14-16.753 11.276-26.073 15.231 1.888-.767 3.775-1.594 5.663-2.361a120.987 120.987 0 01-29.789 8.087c2.065-.295 4.188-.59 6.253-.826a118.658 118.658 0 01-31.027 0c2.064.295 4.188.59 6.252.826a120.987 120.987 0 01-29.789-8.087c1.888.767 3.776 1.594 5.663 2.361-9.32-3.955-18.05-9.032-26.072-15.231l4.778 3.719a119.932 119.932 0 01-21.177-21.193l3.716 4.782c-6.134-8.029-11.266-16.766-15.218-26.093.767 1.889 1.592 3.778 2.359 5.667a121.292 121.292 0 01-8.081-29.812c.295 2.066.59 4.191.826 6.257a118.935 118.935 0 010-31.052c-.295 2.066-.59 4.192-.826 6.258a121.288 121.288 0 018.081-29.813c-.767 1.889-1.592 3.779-2.359 5.668 3.952-9.328 9.025-18.065 15.218-26.094l-3.716 4.782a119.966 119.966 0 0121.177-21.193l-4.778 3.719c8.022-6.14 16.752-11.276 26.072-15.231-1.887.768-3.775 1.594-5.663 2.362a120.989 120.989 0 0129.789-8.088c-2.064.295-4.188.59-6.252.826a118.745 118.745 0 0131.027 0c-2.065-.295-4.188-.59-6.253-.826a120.989 120.989 0 0129.789 8.088c-1.888-.768-3.775-1.594-5.663-2.362 9.32 3.955 18.05 9.032 26.073 15.231l-4.778-3.719a119.96 119.96 0 0121.176 21.193l-3.716-4.782c6.135 8.029 11.267 16.766 15.219 26.094-.767-1.889-1.593-3.779-2.36-5.668a121.29 121.29 0 018.082 29.813c-.295-2.066-.59-4.192-.826-6.258.649 5.136.944 10.331 1.003 15.526.059 12.338 10.794 24.204 23.595 23.614 12.741-.59 23.654-10.39 23.595-23.614-.118-28.277-8.613-57.204-25.247-80.228-4.483-6.198-9.261-12.279-14.57-17.769-5.368-5.549-11.267-10.331-17.401-14.995-11.149-8.501-23.595-14.758-36.809-19.599-53.265-19.541-117.503-2.125-153.544 41.796-4.955 6.022-9.674 12.279-13.685 19.009-4.011 6.671-7.138 13.755-10.028 20.957-5.427 13.342-8.199 27.511-9.32 41.856-2.183 28.1 5.132 57.44 19.761 81.526 14.098 23.26 35.392 43.214 60.285 54.489 7.314 3.306 14.806 6.376 22.592 8.56 7.728 2.125 15.573 3.306 23.536 4.251 14.511 1.712 29.317.531 43.651-2.362 54.446-11.098 100.043-58.031 108.478-113.11 1.239-8.028 2.183-16.057 2.183-24.204.059-12.338-10.913-24.204-23.595-23.614-12.742.414-23.477 10.213-23.477 23.437zm78.276 369.142H278.37c-13.39 0-26.78.118-40.171 0-1.474 0-2.949-.118-4.365-.295 2.065.295 4.188.59 6.253.827-2.36-.355-4.601-1.004-6.784-1.89 1.888.768 3.776 1.594 5.663 2.362-2.359-1.004-4.542-2.303-6.606-3.896l4.778 3.719c-1.77-1.476-3.422-3.07-4.837-4.841l3.716 4.782c-1.593-2.067-2.832-4.251-3.893-6.612.766 1.889 1.592 3.778 2.359 5.667-.885-2.184-1.475-4.486-1.887-6.789.295 2.066.589 4.192.825 6.258-.943-7.143-.295-14.7-.295-21.902V593.81c0-6.316.354-12.574 1.18-18.832-.295 2.067-.59 4.192-.826 6.258 1.652-12.102 4.837-23.968 9.615-35.244-.766 1.89-1.592 3.779-2.359 5.668a138.866 138.866 0 0117.637-30.108l-3.716 4.782c7.137-9.15 15.337-17.415 24.539-24.558l-4.778 3.719a138.677 138.677 0 0130.083-17.651c-1.887.767-3.775 1.593-5.662 2.361 11.266-4.723 23.064-7.97 35.215-9.623-2.064.295-4.188.591-6.253.827 8.731-1.122 17.402-1.181 26.191-1.181h107.947c9.733 0 19.407-.059 29.14 1.181a226.736 226.736 0 00-6.253-.827c12.093 1.653 23.949 4.841 35.216 9.623-1.888-.768-3.775-1.594-5.663-2.361a138.66 138.66 0 0130.084 17.651l-4.778-3.719c9.143 7.143 17.401 15.349 24.539 24.558l-3.717-4.782a138.83 138.83 0 0117.638 30.108c-.767-1.889-1.593-3.778-2.36-5.668 4.719 11.276 7.964 23.083 9.615 35.244-.295-2.066-.59-4.191-.826-6.258 1.121 8.915 1.18 17.77 1.18 26.743v29.222c0 3.365.118 6.73-.295 10.036.295-2.066.59-4.192.826-6.258-.354 2.362-1.003 4.605-1.888 6.789.767-1.889 1.593-3.778 2.36-5.667-1.003 2.361-2.301 4.545-3.893 6.612l3.716-4.782c-1.475 1.771-3.067 3.424-4.837 4.841l4.778-3.719c-2.065 1.593-4.247 2.833-6.607 3.896 1.888-.768 3.776-1.594 5.663-2.362-2.182.886-4.483 1.476-6.783 1.89 2.064-.296 4.188-.591 6.252-.827-1.298.177-2.654.236-4.011.295-6.076.059-12.328 2.598-16.693 6.907-4.071 4.074-7.197 10.804-6.902 16.707.59 12.633 10.382 23.791 23.595 23.614 22.946-.354 43.12-15.349 49.845-37.369 2.654-8.737 2.064-18.124 2.064-27.097 0-20.544.649-40.911-2.89-61.278-5.191-29.812-20.174-57.853-40.702-79.873-20.527-22.02-48.134-38.195-77.332-45.398-16.753-4.132-33.623-4.781-50.73-4.781H356.646c-17.519 0-34.92.826-51.968 5.372-28.963 7.674-56.215 24.027-76.33 46.224-20.291 22.374-34.979 50.474-39.757 80.464-3.185 20.13-2.537 40.32-2.537 60.628 0 9.327-.531 19.068 2.832 27.982 4.365 11.453 11.325 20.485 21.53 27.274 7.964 5.254 18.05 7.793 27.488 7.911 4.601.059 9.202 0 13.804 0h329.386c12.328 0 24.185-10.863 23.595-23.614-.59-12.87-10.382-23.673-23.654-23.673z" fill="#fff"/></svg>