<svg width="121" height="44" fill="none" xmlns="http://www.w3.org/2000/svg"><path d="M98.33 43.828c-6.974 0-12.653-5.678-12.653-12.653 0-6.975 5.679-12.654 12.654-12.654 6.974 0 12.653 5.679 12.653 12.654s-5.679 12.653-12.653 12.653zm0-22.974c-5.678 0-10.297 4.618-10.297 10.297s4.619 10.297 10.298 10.297c5.678 0 10.297-4.618 10.297-10.297s-4.619-10.297-10.297-10.297zM21.938 43.828c-6.975 0-12.653-5.678-12.653-12.653 0-6.975 5.678-12.654 12.653-12.654 6.975 0 12.654 5.679 12.654 12.654s-5.679 12.653-12.654 12.653zm0-22.974c-5.678 0-10.297 4.618-10.297 10.297s4.619 10.321 10.297 10.321c5.68 0 10.298-4.619 10.298-10.297 0-5.68-4.619-10.321-10.298-10.321z" fill="#024EC9"/><path d="M21.938 37.985c-3.747 0-6.81-3.064-6.81-6.81 0-3.747 3.063-6.81 6.81-6.81 3.746 0 6.81 3.063 6.81 6.81 0 3.746-3.064 6.81-6.81 6.81zm0-11.287a4.465 4.465 0 00-4.454 4.453 4.465 4.465 0 004.454 4.454 4.465 4.465 0 004.453-4.454 4.465 4.465 0 00-4.453-4.453zm76.346 11.287c-3.747 0-6.81-3.064-6.81-6.81 0-3.747 3.063-6.81 6.81-6.81 3.747 0 6.81 3.063 6.81 6.81 0 3.746-3.063 6.81-6.81 6.81zm0-11.287a4.465 4.465 0 00-4.454 4.453 4.465 4.465 0 004.454 4.454 4.464 4.464 0 004.453-4.454 4.464 4.464 0 00-4.453-4.453z" fill="#024EC9"/><path d="M116.64 37.937h-8.318v-2.356h7.14v-4.43c0-.165.023-.33.094-.471l2.451-5.585-4.69-3.51a30.289 30.289 0 00-18.073-6.033H85.3c-.235 0-.471-.07-.66-.212L74.203 8.247a34.148 34.148 0 00-19.228-5.914H30.326l-27.97 8.553v1.131H3.77c.66 0 1.178.519 1.178 1.179v10.132c0 .66-.518 1.178-1.178 1.178H2.356v6.433l3.535 4.642h6.032v2.356H5.302a1.16 1.16 0 01-.943-.47l-4.123-5.42A1.112 1.112 0 010 31.34v-8.012c0-.66.518-1.178 1.178-1.178h1.414v-7.776H1.178c-.66 0-1.178-.519-1.178-1.178v-3.181c0-.519.33-.967.825-1.132L29.808.047c.118-.023.236-.047.353-.047h24.813A36.5 36.5 0 0175.52 6.315l10.133 6.88h9.59c6.975 0 13.903 2.31 19.487 6.504l5.443 4.077c.448.33.59.919.377 1.413l-2.733 6.221v5.35c0 .659-.518 1.177-1.178 1.177z" fill="#024EC9"/><path d="M88.316 35.581H71.445v2.356h16.871v-2.356zm-21.584 0H31.93v2.356h34.803v-2.356zM8.883 24.506H3.77c-.66 0-1.178-.518-1.178-1.178V13.196c0-.66.518-1.179 1.178-1.179h5.137c.471 0 .895.283 1.084.707l2.474 5.773c.141.33.118.73-.047 1.037l-2.474 4.36a1.267 1.267 0 01-1.06.612zM4.948 22.15H8.2l1.838-3.252-1.909-4.524H4.95v7.776zm73.047-7.07H60.323c-.071 0-.118 0-.189-.023l-23.681-3.652.353-2.333 23.61 3.652H74.32l-.967-.683c-5.843-4.17-12.724-6.386-19.91-6.386H32.446L26.273 7.47l5.844.895-.353 2.333L20.689 9c-.542-.094-.966-.542-.99-1.084a1.146 1.146 0 01.848-1.201L31.976 3.37c.117-.024.212-.048.33-.048h21.16a36.43 36.43 0 0121.278 6.81l3.958 2.828c.424.306.59.825.448 1.32a1.252 1.252 0 01-1.155.8z" fill="#024EC9"/><path d="M45.996 12.89c-.07 0-.118 0-.188-.024L41 12.136a1.185 1.185 0 01-.99-1.155V4.477c0-.66.518-1.178 1.178-1.178h4.807c.66 0 1.178.518 1.178 1.178v7.21c0 .354-.141.66-.4.896a1.194 1.194 0 01-.778.306zm-3.629-2.946l2.451.377V5.655h-2.45v4.289zm41.567 22.385l-38.315-2.285a1.214 1.214 0 01-.848-.448l-7.281-9.19a1.122 1.122 0 01-.212-1.013c.094-.354.33-.636.66-.801l7.61-3.417c.213-.094.425-.118.66-.094l37.325 5.655-.353 2.333-36.995-5.585-5.891 2.64 6.009 7.587 37.796 2.262-.165 2.356zm35.533-8.765h-7.304v2.356h7.304v-2.356z" fill="#024EC9"/></svg>