<svg width="64" height="64" viewBox="0 0 64 64" fill="none" xmlns="http://www.w3.org/2000/svg">
<circle cx="32" cy="32" r="32" fill="#024EC9"/>
<path d="M37.0072 25.0651C37.0072 25.3263 36.9882 25.5874 36.9533 25.8456C36.9692 25.7417 36.985 25.6349 36.9977 25.531C36.9217 26.0474 36.776 26.5489 36.5638 27.0297C36.6049 26.9347 36.6493 26.8397 36.6905 26.7448C36.4783 27.2137 36.2059 27.6529 35.8733 28.0565L36.0729 27.8161C35.7435 28.2137 35.3603 28.5728 34.9359 28.8815L35.1924 28.6945C34.7617 29.0031 34.293 29.2613 33.7926 29.4601C33.8939 29.4216 33.9952 29.38 34.0966 29.3414C33.5835 29.5403 33.0483 29.6768 32.4972 29.748C32.608 29.7332 32.7221 29.7183 32.8329 29.7065C32.2787 29.7747 31.7213 29.7747 31.167 29.7065C31.2779 29.7213 31.3919 29.7361 31.5027 29.748C30.9516 29.6768 30.4164 29.5403 29.9033 29.3414C30.0047 29.38 30.106 29.4216 30.2074 29.4601C29.707 29.2613 29.2382 29.0061 28.8075 28.6945L29.064 28.8815C28.6396 28.5728 28.2564 28.2137 27.927 27.8161L28.1266 28.0565C27.7972 27.6529 27.5217 27.2137 27.3095 26.7448C27.3506 26.8397 27.395 26.9347 27.4361 27.0297C27.2239 26.5489 27.0783 26.0474 27.0023 25.531C27.0181 25.6349 27.0339 25.7417 27.0466 25.8456C26.9737 25.3263 26.9737 24.804 27.0466 24.2846C27.0308 24.3885 27.0149 24.4953 27.0023 24.5992C27.0783 24.0828 27.2239 23.5813 27.4361 23.1005C27.395 23.1955 27.3506 23.2905 27.3095 23.3854C27.5217 22.9165 27.794 22.4773 28.1266 22.0737L27.927 22.3141C28.2564 21.9165 28.6396 21.5574 29.064 21.2487L28.8075 21.4357C29.2382 21.1271 29.707 20.8689 30.2074 20.6701C30.106 20.7086 30.0047 20.7502 29.9033 20.7888C30.4164 20.5899 30.9516 20.4534 31.5027 20.3822C31.3919 20.397 31.2779 20.4119 31.167 20.4237C31.7213 20.3555 32.2787 20.3555 32.8329 20.4237C32.7221 20.4089 32.608 20.3941 32.4972 20.3822C33.0483 20.4534 33.5835 20.5899 34.0966 20.7888C33.9952 20.7502 33.8939 20.7086 33.7926 20.6701C34.293 20.8689 34.7617 21.1241 35.1924 21.4357L34.9359 21.2487C35.3603 21.5574 35.7435 21.9165 36.0729 22.3141L35.8733 22.0737C36.2027 22.4773 36.4783 22.9165 36.6905 23.3854C36.6493 23.2905 36.6049 23.1955 36.5638 23.1005C36.776 23.5813 36.9217 24.0828 36.9977 24.5992C36.9818 24.4953 36.966 24.3885 36.9533 24.2846C36.9882 24.5428 37.004 24.804 37.0072 25.0651C37.0103 25.6853 37.5868 26.2818 38.274 26.2522C38.9581 26.2225 39.544 25.7299 39.5409 25.0651C39.5345 23.6436 39.0785 22.1895 38.1853 21.0321C37.9446 20.7205 37.6881 20.4148 37.4031 20.1389C37.1149 19.8599 36.7981 19.6195 36.4688 19.3851C35.8702 18.9577 35.2019 18.6432 34.4925 18.3998C31.6326 17.4176 28.1836 18.293 26.2485 20.5009C25.9824 20.8036 25.7291 21.1182 25.5137 21.4565C25.2983 21.7918 25.1305 22.1479 24.9753 22.51C24.6839 23.1807 24.5351 23.8929 24.4749 24.614C24.3577 26.0266 24.7504 27.5015 25.5359 28.7123C26.2928 29.8815 27.4361 30.8846 28.7727 31.4514C29.1654 31.6176 29.5676 31.7719 29.9857 31.8817C30.4006 31.9886 30.8218 32.0479 31.2494 32.0954C32.0285 32.1815 32.8234 32.1221 33.593 31.9767C36.5163 31.4188 38.9645 29.0595 39.4174 26.2907C39.4839 25.8871 39.5345 25.4835 39.5345 25.074C39.5377 24.4538 38.9486 23.8573 38.2677 23.887C37.5836 23.9077 37.0072 24.4004 37.0072 25.0651ZM41.2099 43.6216H24.9595C24.2405 43.6216 23.5216 43.6276 22.8027 43.6216C22.7235 43.6216 22.6443 43.6157 22.5683 43.6068C22.6791 43.6216 22.7932 43.6365 22.904 43.6483C22.7773 43.6305 22.657 43.5979 22.5398 43.5534C22.6411 43.5919 22.7425 43.6335 22.8438 43.6721C22.7171 43.6216 22.6 43.5563 22.4891 43.4762L22.7456 43.6632C22.6506 43.589 22.562 43.5089 22.4859 43.4198L22.6855 43.6602C22.6 43.5563 22.5334 43.4465 22.4764 43.3278C22.5176 43.4228 22.562 43.5178 22.6031 43.6127C22.5556 43.5029 22.5239 43.3872 22.5018 43.2714C22.5176 43.3753 22.5334 43.4821 22.5461 43.586C22.4954 43.2269 22.5303 42.8471 22.5303 42.485V41.2149C22.5303 40.8973 22.5493 40.5828 22.5936 40.2682C22.5778 40.3721 22.562 40.4789 22.5493 40.5828C22.638 39.9744 22.809 39.3779 23.0655 38.8111C23.0243 38.9061 22.98 39.001 22.9388 39.096C23.1859 38.5559 23.5026 38.0484 23.8858 37.5825L23.6863 37.8229C24.0695 37.3629 24.5097 36.9474 25.0038 36.5884L24.7473 36.7753C25.2445 36.4162 25.7861 36.1195 26.3625 35.888C26.2611 35.9266 26.1598 35.9681 26.0584 36.0067C26.6634 35.7693 27.2968 35.6061 27.9492 35.523C27.8384 35.5378 27.7244 35.5527 27.6135 35.5645C28.0822 35.5082 28.5478 35.5052 29.0197 35.5052H34.8155C35.3381 35.5052 35.8575 35.5022 36.3801 35.5645C36.2692 35.5497 36.1552 35.5349 36.0444 35.523C36.6936 35.6061 37.3302 35.7663 37.9351 36.0067C37.8338 35.9681 37.7324 35.9266 37.6311 35.888C38.2075 36.1195 38.7491 36.4162 39.2463 36.7753L38.9898 36.5884C39.4807 36.9474 39.9241 37.3599 40.3073 37.8229L40.1078 37.5825C40.491 38.0484 40.8077 38.5559 41.0548 39.096C41.0136 39.001 40.9692 38.9061 40.9281 38.8111C41.1814 39.3779 41.3556 39.9714 41.4443 40.5828C41.4285 40.4789 41.4126 40.3721 41.4 40.2682C41.4601 40.7163 41.4633 41.1615 41.4633 41.6125V43.0815C41.4633 43.2507 41.4696 43.4198 41.4475 43.586C41.4633 43.4821 41.4791 43.3753 41.4918 43.2714C41.4728 43.3901 41.438 43.5029 41.3905 43.6127C41.4316 43.5178 41.476 43.4228 41.5172 43.3278C41.4633 43.4465 41.3936 43.5563 41.3081 43.6602L41.5076 43.4198C41.4285 43.5089 41.343 43.5919 41.2479 43.6632L41.5045 43.4762C41.3936 43.5563 41.2765 43.6187 41.1498 43.6721C41.2511 43.6335 41.3525 43.5919 41.4538 43.5534C41.3366 43.5979 41.2131 43.6276 41.0896 43.6483C41.2004 43.6335 41.3145 43.6187 41.4253 43.6068C41.3556 43.6157 41.2828 43.6187 41.2099 43.6216C40.8837 43.6246 40.548 43.7522 40.3136 43.9688C40.0951 44.1736 39.9273 44.5119 39.9431 44.8087C39.9748 45.4437 40.5005 46.0046 41.2099 45.9957C42.4419 45.9779 43.5251 45.2241 43.8862 44.1172C44.0287 43.678 43.997 43.2062 43.997 42.7551C43.997 41.7223 44.0318 40.6985 43.8418 39.6747C43.5631 38.176 42.7587 36.7664 41.6565 35.6595C40.5543 34.5526 39.0721 33.7395 37.5044 33.3774C36.605 33.1697 35.6992 33.137 34.7807 33.137H29.1622C28.2216 33.137 27.2873 33.1786 26.372 33.4071C24.8169 33.7929 23.3537 34.6149 22.2737 35.7307C21.1843 36.8555 20.3956 38.268 20.1391 39.7756C19.9681 40.7875 20.0029 41.8025 20.0029 42.8233C20.0029 43.2922 19.9744 43.7819 20.1549 44.23C20.3893 44.8057 20.763 45.2597 21.3109 45.601C21.7385 45.8651 22.2801 45.9927 22.7868 45.9987C23.0339 46.0016 23.2809 45.9987 23.5279 45.9987H41.2131C41.875 45.9987 42.5116 45.4526 42.48 44.8116C42.4483 44.1647 41.9225 43.6216 41.2099 43.6216Z" fill="white"/>
</svg>
